<?xml version="1.0" encoding="UTF-8" standalone="no"?><!DOCTYPE svg PUBLIC "-//W3C//DTD SVG 1.1//EN" "http://www.w3.org/Graphics/SVG/1.1/DTD/svg11.dtd"><svg width="100%" height="100%" viewBox="0 0 815 239" version="1.1" xmlns="http://www.w3.org/2000/svg" xmlns:xlink="http://www.w3.org/1999/xlink" xml:space="preserve" xmlns:serif="http://www.serif.com/" style="fill-rule:evenodd;clip-rule:evenodd;stroke-linejoin:round;stroke-miterlimit:2;"><rect id="Artboard2" x="0" y="0" width="814.499" height="238.138" style="fill:none;"/><clipPath id="_clip1"><rect x="0" y="0" width="814.499" height="238.138"/></clipPath><g clip-path="url(#_clip1)"><rect id="Artboard1" x="-56.879" y="-85.282" width="927.987" height="401.308" style="fill:none;"/><g><g><path d="M217.078,96.976c-0,-2.666 -0.296,-5.185 -0.888,-7.555c-0.592,-2.37 -1.48,-4.74 -2.516,-6.961c-3.108,-6.518 -8.436,-11.85 -14.949,-15.109c-3.852,-1.926 -8.148,-3.111 -12.593,-3.407l0,-0.149l-4,0l0,18.368l4.149,0c6.518,0.889 11.704,6.073 12.593,12.591l-0,72.433l18.5,-0l-0,-70.508l-0.296,0.297Z" style="fill:#00ffcd;fill-rule:nonzero;stroke:#fff;stroke-width:4.17px;"/><path d="M231.911,62.166l0,18.5l42.52,0l-0,85.187l18.5,0l0,-85.187l42.52,0l-0,-18.5l-103.54,-0Z" style="fill:#00ffcd;fill-rule:nonzero;stroke:#fff;stroke-width:4.17px;"/><path d="M419.322,118.001c2.815,-0.296 5.483,-1.036 7.999,-2.22c9.62,-4.44 16.28,-14.209 16.28,-25.55c0,-7.772 -3.108,-14.745 -8.14,-19.925c-5.032,-5.032 -11.99,-8.14 -19.696,-8.14l-65.481,-0l0,103.687l18.501,0l-0,-47.556l18.525,-0c6.669,-0 12.449,3.545 15.709,8.861l0.445,0.887l9.93,19.347l9.484,18.461l20.723,0l-9.472,-18.461l-14.807,-29.391Zm-50.537,-18.057l-0,-19.278l46.98,0c3.26,0 5.483,1.495 6.669,2.69c1.037,1.046 2.815,3.437 2.815,6.875c0,3.736 -2.222,7.173 -5.631,8.667c-1.186,0.598 -2.519,0.897 -3.853,0.897l-46.98,0.149Z" style="fill:#00ffcd;fill-rule:nonzero;stroke:#fff;stroke-width:4.17px;"/><path d="M543.77,62.166l0,51.853c0,18.371 -14.967,33.334 -33.343,33.334c-18.376,-0 -33.343,-14.963 -33.343,-33.334l-0,-51.853l-18.501,-0l0,51.853c0,28.593 23.243,51.834 51.844,51.834c28.601,0 51.844,-23.241 51.844,-51.834l-0,-51.853l-18.501,-0Z" style="fill:#00ffcd;fill-rule:nonzero;stroke:#fff;stroke-width:4.17px;"/><path d="M662.292,62.166l-0,42.667l-54.683,0c-6.669,0 -12.152,-5.481 -12.152,-12.148l-0,-30.519l-18.501,-0l0,30.519c0,11.852 6.661,22.065 16.577,27.097c4.147,2.22 8.889,3.404 13.927,3.404l54.683,-0l0,42.667l18.501,0l0,-103.687l-18.352,-0Z" style="fill:#00ffcd;fill-rule:nonzero;stroke:#fff;stroke-width:4.17px;"/><path d="M780.813,62.166l0,51.853c0,18.371 -14.968,33.334 -33.343,33.334c-18.376,-0 -33.344,-14.963 -33.344,-33.334l0,-51.853l-18.5,-0l-0,51.853c-0,28.593 23.242,51.834 51.844,51.834c28.601,0 51.843,-23.241 51.843,-51.834l0,-51.853l-18.5,-0Z" style="fill:#00ffcd;fill-rule:nonzero;stroke:#fff;stroke-width:4.17px;"/></g></g><g><g><path d="M55.497,99.069c-0,-9.38 12.731,-8.671 12.731,-1.26l-0.021,-14.824c-0,-7.95 12.122,-7.977 12.122,-0.028l-0,-10.988c-0,-7.95 13.613,-7.95 13.613,-0l-0,10.966c2.935,-9.193 12.752,-7.466 12.479,0l-0,41.092c3.646,-6.171 8.061,-11.051 12.716,-13.187c6.873,-3.522 13.327,0.077 11.611,4.49c-4.438,11.411 -11.799,13.491 -13.487,20.671c-5.602,19.64 -14.307,30.756 -31.26,30.756c-20.485,-0.393 -30.63,-13.707 -30.63,-24.201l0.126,-43.487Z" style="fill:#c0fff3;stroke:#e9c7ff;stroke-width:3.94px;stroke-linecap:round;stroke-miterlimit:1.5;"/><path d="M68.355,97.324l0,18.745" style="fill:none;stroke:#e9c7ff;stroke-width:3.94px;stroke-linecap:round;stroke-miterlimit:1.5;"/><path d="M80.265,82.91l0,28.219" style="fill:none;stroke:#e9c7ff;stroke-width:3.94px;stroke-linecap:round;stroke-miterlimit:1.5;"/><path d="M94.07,82.842l0,27.475" style="fill:none;stroke:#e9c7ff;stroke-width:3.94px;stroke-linecap:round;stroke-miterlimit:1.5;"/></g><g><path d="M85.411,46.942l0,11.737" style="fill:none;stroke:#e9c7ff;stroke-width:3.94px;stroke-linecap:round;stroke-miterlimit:1.5;"/><path d="M85.411,176.661l0,11.737" style="fill:none;stroke:#e9c7ff;stroke-width:3.94px;stroke-linecap:round;stroke-miterlimit:1.5;"/></g><g><path d="M14.683,117.67l11.737,0" style="fill:none;stroke:#e9c7ff;stroke-width:3.94px;stroke-linecap:round;stroke-miterlimit:1.5;"/><path d="M144.403,117.67l11.737,0" style="fill:none;stroke:#e9c7ff;stroke-width:3.94px;stroke-linecap:round;stroke-miterlimit:1.5;"/></g><g><path d="M35.399,167.682l8.299,-8.299" style="fill:none;stroke:#e9c7ff;stroke-width:3.94px;stroke-linecap:round;stroke-miterlimit:1.5;"/><path d="M127.125,75.957l8.299,-8.299" style="fill:none;stroke:#e9c7ff;stroke-width:3.94px;stroke-linecap:round;stroke-miterlimit:1.5;"/></g><g><path d="M135.424,167.682l-8.299,-8.299" style="fill:none;stroke:#e9c7ff;stroke-width:3.94px;stroke-linecap:round;stroke-miterlimit:1.5;"/><path d="M43.698,75.957l-8.299,-8.299" style="fill:none;stroke:#e9c7ff;stroke-width:3.94px;stroke-linecap:round;stroke-miterlimit:1.5;"/></g><g><path d="M146.664,153.034l-10.165,-5.868" style="fill:none;stroke:#e9c7ff;stroke-width:3.94px;stroke-linecap:round;stroke-miterlimit:1.5;"/><path d="M34.323,88.174l-10.164,-5.868" style="fill:none;stroke:#e9c7ff;stroke-width:3.94px;stroke-linecap:round;stroke-miterlimit:1.5;"/></g><g><path d="M153.73,135.976l-11.337,-3.038" style="fill:none;stroke:#e9c7ff;stroke-width:3.94px;stroke-linecap:round;stroke-miterlimit:1.5;"/><path d="M28.43,102.402l-11.337,-3.038" style="fill:none;stroke:#e9c7ff;stroke-width:3.94px;stroke-linecap:round;stroke-miterlimit:1.5;"/></g><g><path d="M153.73,99.364l-11.337,3.038" style="fill:none;stroke:#e9c7ff;stroke-width:3.94px;stroke-linecap:round;stroke-miterlimit:1.5;"/><path d="M28.43,132.938l-11.337,3.038" style="fill:none;stroke:#e9c7ff;stroke-width:3.94px;stroke-linecap:round;stroke-miterlimit:1.5;"/></g><g><path d="M146.664,82.306l-10.165,5.868" style="fill:none;stroke:#e9c7ff;stroke-width:3.94px;stroke-linecap:round;stroke-miterlimit:1.5;"/><path d="M34.323,147.166l-10.164,5.868" style="fill:none;stroke:#e9c7ff;stroke-width:3.94px;stroke-linecap:round;stroke-miterlimit:1.5;"/></g><g><path d="M120.776,56.418l-5.869,10.164" style="fill:none;stroke:#e9c7ff;stroke-width:3.94px;stroke-linecap:round;stroke-miterlimit:1.5;"/><path d="M55.916,168.758l-5.869,10.164" style="fill:none;stroke:#e9c7ff;stroke-width:3.94px;stroke-linecap:round;stroke-miterlimit:1.5;"/></g><g><path d="M67.106,49.352l3.037,11.337" style="fill:none;stroke:#e9c7ff;stroke-width:3.94px;stroke-linecap:round;stroke-miterlimit:1.5;"/><path d="M100.68,174.651l3.037,11.337" style="fill:none;stroke:#e9c7ff;stroke-width:3.94px;stroke-linecap:round;stroke-miterlimit:1.5;"/></g><g><path d="M50.047,56.418l5.869,10.164" style="fill:none;stroke:#e9c7ff;stroke-width:3.94px;stroke-linecap:round;stroke-miterlimit:1.5;"/><path d="M114.907,168.758l5.869,10.164" style="fill:none;stroke:#e9c7ff;stroke-width:3.94px;stroke-linecap:round;stroke-miterlimit:1.5;"/></g><g><path d="M67.106,185.988l3.037,-11.337" style="fill:none;stroke:#e9c7ff;stroke-width:3.94px;stroke-linecap:round;stroke-miterlimit:1.5;"/><path d="M100.68,60.689l3.037,-11.337" style="fill:none;stroke:#e9c7ff;stroke-width:3.94px;stroke-linecap:round;stroke-miterlimit:1.5;"/></g></g></g></svg>