<?xml version="1.0" encoding="UTF-8" standalone="no"?><!DOCTYPE svg PUBLIC "-//W3C//DTD SVG 1.1//EN" "http://www.w3.org/Graphics/SVG/1.1/DTD/svg11.dtd">
<svg width="100%" height="100%" viewBox="0 0 711 1000" version="1.1"
    xmlns="http://www.w3.org/2000/svg"
    xmlns:xlink="http://www.w3.org/1999/xlink" xml:space="preserve"
    xmlns:serif="http://www.serif.com/" style="fill-rule:evenodd;clip-rule:evenodd;stroke-linecap:round;stroke-linejoin:round;stroke-miterlimit:1.5;">
    <filter id="neon">
        <feFlood flood-color="rgb(255,255,128)" flood-opacity="0.5" in="SourceGraphic" />
        <feComposite operator="in" in2="SourceGraphic" />
        <feGaussianBlur stdDeviation="10" />
        <feComponentTransfer result="glow1">
            <feFuncA type="linear" slope="4" intercept="0" />
        </feComponentTransfer>
        <feMerge>
            <feMergeNode in="glow1" />
            <feMergeNode in="SourceGraphic" />
        </feMerge>
    </filter>
    <style>
        :root {
            --main-path: path("M156.956,420.793c-1.755,-100.593 -27.352,-96.646 -17.904,-160.785c7.246,-49.181 17.968,-58.673 36.337,-65.894c-39.088,44.214 -0.241,88.995 15.078,108.987c-3.106,-45.043 16.774,-139.444 44.092,-132.446c-35.418,19.163 8.145,64.735 18.138,56.974c15.531,-12.061 28.03,-67.441 -20.258,-109.275c12.078,-3.13 68.073,27.901 73.579,112.922c14.867,-23.132 43.935,-75.449 15.693,-101.083c-19.599,-17.79 -28.883,-13.497 -28.802,-13.56c19.7,-15.341 39.366,15.838 43.135,11.099c9.287,-11.677 12.61,-60.483 -27.251,-80.139c35.923,11.318 75.524,20.098 96.038,50.265c9.059,13.322 21.962,21.34 13.59,84.85c-1.336,10.134 -1.618,36.252 8.374,38.372c6.201,1.315 6.909,-55.94 15.833,-59.721c8.554,11.539 18.269,45.031 23.25,20.385c2.792,-13.818 10.488,-26.421 -2.271,-47.288c18.727,8.027 29.107,28.897 32.02,61.254c-0.271,-55.714 19.43,-75.116 45.941,-82.137c-33.574,38.765 19.62,85.676 -17.72,183.567c10.387,1.875 46.347,-29.74 40.616,-98.118c35.034,37.981 22.755,143.32 -3.632,220.996");
        }
        path {
            stroke: #fff;
            stroke-width: .3em;
            fill: none;
        }
        #flame3 {
            animation: 4s poo infinite;
        }
        @keyframes poo {
            0% {
                d: var(--main-path);
            }
            20% {
                d: path("M156.956,420.793c3.615,-48.08 -0.805,-62.721 -14.831,-82.449c-12.07,-16.978 14.088,-73.293 -31.393,-113.037c44.454,5.725 66.505,24.674 79.735,57.794c-3.106,-45.043 -2.787,-91.383 23.948,-121.099c-15.022,32.566 28.289,73.388 38.282,65.627c15.531,-12.061 31.908,-58.182 0.33,-93.154c44.003,45.505 39.429,32.964 52.991,96.801c14.867,-23.132 43.417,-57.312 25.693,-91.083c-11.841,-22.564 -18.855,-13.472 -18.802,-13.56c12.539,-20.712 34.439,15.54 38.208,10.801c9.286,-11.678 -10.067,-69.724 30.035,-65.808c-7.341,21.164 -4.294,21.137 16.22,51.305c9.058,13.321 17.487,29.088 21.049,59.777c1.179,10.153 -1.187,41.967 8.374,38.372c13.958,-5.249 -0.55,-80.271 15.833,-89.721c-8.751,68.229 18.269,95.031 23.25,70.385c2.792,-13.818 22.721,-37.759 -2.271,-47.288c27.977,-1.819 29.107,18.897 32.02,51.254c-0.569,-18.12 25.551,-20.641 12.678,-47.95c31.171,-2.708 32.295,67.148 15.543,139.38c10.387,1.875 44.412,-42.262 45.842,-87.069c30.261,70.802 17.529,132.271 -8.858,209.947");
            }
            40% {
                d: path("M156.956,420.793c-1.755,-100.593 -36.215,-69.033 -26.766,-133.172c7.245,-49.181 24.83,-56.286 43.199,-63.507c-39.088,44.214 1.759,58.995 17.078,78.987c-3.106,-45.043 -2.787,-91.383 23.948,-121.099c-15.022,32.566 28.289,53.388 38.282,45.627c15.531,-12.061 37.876,-68.173 -20.258,-79.275c43.705,-4.622 68.073,-2.099 73.579,82.922c14.867,-23.132 33.417,-67.312 15.693,-101.083c-11.841,-22.564 -18.855,-13.472 -18.802,-13.56c12.539,-20.712 34.439,15.54 38.208,10.801c9.286,-11.678 19.924,-42.418 -22.324,-49.841c49.349,-8.374 65.524,10.098 86.038,40.265c9.059,13.322 10.028,34.161 13.59,64.85c1.179,10.153 -1.187,41.967 8.374,38.372c13.958,-5.249 -0.55,-70.271 15.833,-79.721c-1.292,25.563 18.269,65.031 23.25,40.385c2.792,-13.818 12.721,-57.759 -12.271,-67.288c27.977,-1.819 39.107,48.897 42.02,81.254c12.857,-39.901 46.139,-45.405 55.941,-32.137c-47.299,2.961 4.548,63.722 -27.72,133.567c10.387,1.875 75.144,-33.311 33.907,-68.571c59.799,8.145 29.464,113.773 3.077,191.449");
            }
            60% {
                d: path("M156.956,420.793c3.615,-48.08 -0.805,-62.721 -14.831,-82.449c-12.07,-16.978 14.088,-73.293 -31.393,-113.037c44.454,5.725 66.505,24.674 79.735,57.794c-3.106,-45.043 -2.787,-91.383 23.948,-121.099c-15.022,32.566 28.289,73.388 38.282,65.627c15.531,-12.061 31.908,-58.182 0.33,-93.154c44.003,45.505 39.429,32.964 52.991,96.801c14.867,-23.132 43.417,-57.312 25.693,-91.083c-11.841,-22.564 -18.855,-13.472 -18.802,-13.56c12.539,-20.712 34.439,15.54 38.208,10.801c9.286,-11.678 -10.067,-69.724 30.035,-65.808c-7.341,21.164 -4.294,21.137 16.22,51.305c9.058,13.321 17.487,29.088 21.049,59.777c1.179,10.153 -1.187,41.967 8.374,38.372c13.958,-5.249 -0.55,-80.271 15.833,-89.721c-8.751,68.229 18.269,95.031 23.25,70.385c2.792,-13.818 22.721,-37.759 -2.271,-47.288c27.977,-1.819 29.107,18.897 32.02,51.254c-0.569,-18.12 25.551,-20.641 12.678,-47.95c31.171,-2.708 32.295,67.148 15.543,139.38c10.387,1.875 44.412,-42.262 45.842,-87.069c30.261,70.802 17.529,132.271 -8.858,209.947");
            }
            80% {
                d: path("M156.956,420.793c-1.755,-100.593 -36.215,-69.033 -26.766,-133.172c7.245,-49.181 24.83,-56.286 43.199,-63.507c-39.088,44.214 1.759,58.995 17.078,78.987c-3.106,-45.043 -2.787,-91.383 23.948,-121.099c-15.022,32.566 28.289,53.388 38.282,45.627c15.531,-12.061 37.876,-68.173 -20.258,-79.275c43.705,-4.622 68.073,-2.099 73.579,82.922c14.867,-23.132 33.417,-67.312 15.693,-101.083c-11.841,-22.564 -18.855,-13.472 -18.802,-13.56c12.539,-20.712 34.439,15.54 38.208,10.801c9.286,-11.678 19.924,-42.418 -22.324,-49.841c49.349,-8.374 65.524,10.098 86.038,40.265c9.059,13.322 10.028,34.161 13.59,64.85c1.179,10.153 -1.187,41.967 8.374,38.372c13.958,-5.249 -0.55,-70.271 15.833,-79.721c-1.292,25.563 18.269,65.031 23.25,40.385c2.792,-13.818 12.721,-57.759 -12.271,-67.288c27.977,-1.819 39.107,48.897 42.02,81.254c12.857,-39.901 46.139,-45.405 55.941,-32.137c-47.299,2.961 4.548,63.722 -27.72,133.567c10.387,1.875 75.144,-33.311 33.907,-68.571c59.799,8.145 29.464,113.773 3.077,191.449");
            }
            100% {
                d: var(--main-path);
            }
        }
        #play * {
            animation-play-state: paused;
        }
        #play:target * {
            animation-play-state: running;
        }
    </style>
    <g id="play">
        <g>
            <g id="l">
                <path d="M580.548,420.951l-452.379,0c-4.958,-8.55 -6.62,-15.039 -7.489,-27.75c-0.844,-12.357 -5.175,-17.767 -11.893,-23.346c-18.468,-4.203 -32.921,-1.523 -43.167,8.369c-18.625,17.983 -25.861,64.311 -5.727,82.812c7.392,5.671 15.807,7.249 25.549,3.523l-0,61.669c-0.804,11.845 24.119,13.65 24.226,1.321l-3.153,-66.322c4.747,-1.571 9.032,-6.52 9.77,-11.31l61.844,60.259l0.8,36.955c-47.377,20.249 -50.432,171.493 93.552,224.694c-2.537,6.308 -2.875,13.104 0,20.615l6.85,0.093c5.274,11.951 6.016,24.251 -0.37,37.098c-5.578,11.223 -12.535,16.206 -36.285,26.014l-43.602,0.295l-0.148,45.006l-63.186,0l1.998,70.024l433.882,0"/>
                <path d="M108.193,405.479c-4.376,-10.609 -21.277,-11.461 -32.025,-2.931c-8.067,6.401 -5.689,25.333 -0.902,33.378c2.377,3.995 9.9,6.91 9.927,4.684c0.101,-8.3 17.466,-8.333 19.384,-0.948c0.302,1.165 3.852,-1.059 4.656,-4.645c2.869,-12.797 2.177,-21.739 -1.04,-29.538Z"/>
                <path d="M85.203,440.378l0.221,23.847"/>
                <path d="M104.582,439.807c0.823,6.602 1.548,13.51 1.93,21.479"/>
            </g>
            <g id="l1" serif:id="l">
                <path d="M129.459,420.951l452.38,0c4.957,-8.55 6.619,-15.039 7.488,-27.75c0.844,-12.357 5.175,-17.767 11.893,-23.346c18.468,-4.203 32.922,-1.523 43.168,8.369c18.625,17.983 25.86,64.311 5.726,82.812c-7.392,5.671 -15.807,7.249 -25.548,3.523l-0,61.669c0.803,11.845 -24.119,13.65 -24.227,1.321l3.153,-66.322c-4.746,-1.571 -9.031,-6.52 -9.769,-11.31l-61.845,60.259l-0.8,36.955c47.377,20.249 50.433,171.493 -93.552,224.694c2.537,6.308 2.876,13.104 0,20.615l-6.85,0.093c-5.274,11.951 -6.016,24.251 0.37,37.098c5.578,11.223 12.535,16.206 36.285,26.014l43.602,0.295l0.148,45.006l63.186,0l-1.998,70.024l-433.882,0"/>
                <path d="M601.814,405.479c4.376,-10.609 21.277,-11.461 32.025,-2.931c8.067,6.401 5.689,25.333 0.902,33.378c-2.376,3.995 -9.9,6.91 -9.927,4.684c-0.101,-8.3 -17.466,-8.333 -19.384,-0.948c-0.302,1.165 -3.851,-1.059 -4.656,-4.645c-2.869,-12.797 -2.177,-21.739 1.04,-29.538Z"/>
                <path d="M624.804,440.378l-0.221,23.847"/>
                <path d="M605.425,439.807c-0.823,6.602 -1.548,13.51 -1.93,21.479"/>
            </g>
        </g>
        <path id="flame3" filter="url(#neon)" d="M156.956,420.793c-1.755,-100.593 -27.352,-96.646 -17.904,-160.785c7.246,-49.181 17.968,-58.673 36.337,-65.894c-39.088,44.214 -0.241,88.995 15.078,108.987c-3.106,-45.043 16.774,-139.444 44.092,-132.446c-35.418,19.163 8.145,64.735 18.138,56.974c15.531,-12.061 28.03,-67.441 -20.258,-109.275c12.078,-3.13 68.073,27.901 73.579,112.922c14.867,-23.132 43.935,-75.449 15.693,-101.083c-19.599,-17.79 -28.883,-13.497 -28.802,-13.56c19.7,-15.341 39.366,15.838 43.135,11.099c9.287,-11.677 4.493,-34.187 1.371,-43.457c-9.257,-27.481 -28.761,-47.026 -68.622,-66.682c35.923,11.318 112.61,40.774 136.038,80.265c8.219,13.856 21.962,21.34 13.59,84.85c-1.336,10.134 -1.618,36.252 8.374,38.372c6.201,1.315 6.909,-55.94 15.833,-59.721c8.554,11.539 18.269,45.031 23.25,20.385c2.792,-13.818 10.488,-26.421 -2.271,-47.288c18.727,8.027 29.107,28.897 32.02,61.254c-0.271,-55.714 19.43,-75.116 45.941,-82.137c-33.574,38.765 19.62,85.676 -17.72,183.567c10.387,1.875 46.347,-29.74 40.616,-98.118c35.034,37.981 22.755,143.32 -3.632,220.996">
            <!-- <animate 
                attributeType="XML"
                attributeName="d"
                dur="2s"
                fill="freeze"
                repeatCount="indefinite"
                values="
                    M156.956,420.793c-1.755,-100.593 -27.352,-96.646 -17.904,-160.785c7.246,-49.181 17.968,-58.673 36.337,-65.894c-39.088,44.214 -0.241,88.995 15.078,108.987c-3.106,-45.043 16.774,-139.444 44.092,-132.446c-35.418,19.163 8.145,64.735 18.138,56.974c15.531,-12.061 28.03,-67.441 -20.258,-109.275c12.078,-3.13 68.073,27.901 73.579,112.922c14.867,-23.132 43.935,-75.449 15.693,-101.083c-19.599,-17.79 -28.883,-13.497 -28.802,-13.56c19.7,-15.341 39.366,15.838 43.135,11.099c9.287,-11.677 4.493,-34.187 1.371,-43.457c-9.257,-27.481 -28.761,-47.026 -68.622,-66.682c35.923,11.318 112.61,40.774 136.038,80.265c8.219,13.856 21.962,21.34 13.59,84.85c-1.336,10.134 -1.618,36.252 8.374,38.372c6.201,1.315 6.909,-55.94 15.833,-59.721c8.554,11.539 18.269,45.031 23.25,20.385c2.792,-13.818 10.488,-26.421 -2.271,-47.288c18.727,8.027 29.107,28.897 32.02,61.254c-0.271,-55.714 19.43,-75.116 45.941,-82.137c-33.574,38.765 19.62,85.676 -17.72,183.567c10.387,1.875 46.347,-29.74 40.616,-98.118c35.034,37.981 22.755,143.32 -3.632,220.996;
                    M156.956,420.793c-44.879,-127.983 10.553,-164.096 -7.208,-226.679c32.007,33.141 25.4,88.995 40.719,108.987c-3.106,-45.043 32.509,-95.155 22.531,-145.267c36.843,15.666 29.706,77.556 39.699,69.795c15.531,-12.061 34.44,-56.369 -0.444,-94.123c12.077,-3.13 48.259,12.749 53.765,97.77c14.867,-23.132 41.814,-61.114 13.362,-86.515c-11.44,-10.214 -26.573,-28.127 -26.471,-28.128c19.7,-0.19 38.784,30.407 42.553,25.668c9.286,-11.677 6.991,-85.239 -32.87,-104.894c35.923,11.317 78.811,20.96 102.239,60.451c8.219,13.856 21.962,21.34 13.59,84.85c-1.336,10.134 -1.618,36.252 8.374,38.372c6.201,1.315 5.743,-66.43 14.668,-70.211c8.554,11.54 19.434,55.521 24.415,30.875c2.792,-13.818 9.322,-47.983 -3.436,-68.85c18.727,8.028 30.272,50.459 33.185,82.816c-0.271,-55.714 24.675,-60.548 51.186,-67.568c-33.575,38.765 14.375,71.107 -22.965,168.998c10.387,1.875 52.757,-9.926 47.026,-78.305c35.035,37.982 16.345,123.507 -10.042,201.183" /> -->

        </path>
        <path d="M198.879,900.939l311.596,-0"/>
        <path d="M242.297,855.676l222.923,-0"/>
        <path d="M280.116,792.746l150.431,0"/>
        <path d="M272.636,771.553l164.56,0"/>
        <path d="M227.555,546.183c-50.419,80.419 -8.661,158.565 64.538,225.131"/>
        <path d="M271.328,546.1c-27.674,94.353 7.979,173.16 49.497,225.129"/>
        <path d="M317.889,545.931c-22.327,78.527 2.399,168.891 30.254,225.127"/>
        <path d="M479.755,546.183c50.419,80.419 8.661,158.565 -64.538,225.131"/>
        <path d="M435.982,546.1c27.674,94.353 -7.978,173.16 -49.497,225.129"/>
        <path d="M389.422,545.931c22.326,78.527 -2.399,168.891 -30.254,225.127"/>
        <path d="M179.703,546.126l351.6,0"/>
        <path d="M354.855,545.448l0,225.497"/>
        <path id="flame2" filter="url(#neon)" d="M199.266,420.387c6.246,-51.505 -22.571,-89.952 -40.543,-121.78c19.14,21.739 43.888,30.353 56.225,22.186c18.046,-11.946 28.126,-68.359 1.08,-84.03c15.732,0.069 29.47,7.115 39.149,28.369c21.885,-10.087 25.97,-33.785 22.127,-63.546c10.704,7.347 14.453,39.71 22.128,83.404c63.891,-21.863 73.509,-89.857 76.595,-163.404c-0.201,68.978 11.359,115.609 41.419,127.092c21.173,5.029 29.33,-11.636 32.34,-36.879c-0.373,13.791 4.699,28.761 11.065,7.102c7.629,11.505 14.295,-10.086 16.169,-34.904c0.989,18.025 2.389,34.818 7.943,39.149c8.154,7.324 17.564,-10.469 27.234,-33.475c13.231,39.622 8.519,81.039 -8.511,123.688c15.959,8.928 33.215,4.877 52.199,-16.454c8.245,37.936 -11.627,80.606 -42.168,123.453"/>
        <path id="flame1" filter="url(#neon)" d="M267.505,420.684c-36.2,-36.581 -38.193,-56.187 -35.877,-80.495c18.032,72.434 62.377,39.9 45.085,6.043c-13.057,-25.566 -10.067,-38.828 -2.789,-48.803c8.982,45.485 29.611,51.663 54.846,42.296c35.464,-21.296 56.619,-49.167 43.683,-94.832c11.775,7.885 27.798,34.216 33.472,75.31c8.744,24.243 75.362,-48.181 57.456,-64.867c18.337,-7.92 19.586,33.228 -5.399,101.121c-5.579,15.162 19.1,25.695 51.964,-10.525c3.003,29.529 -46.781,64.865 -78.301,74.595"/>
        <path d="M178.53,509.951l353.505,-0"/>
    </g>
</svg>