<?xml version="1.0" encoding="UTF-8" standalone="no"?><!DOCTYPE svg PUBLIC "-//W3C//DTD SVG 1.1//EN" "http://www.w3.org/Graphics/SVG/1.1/DTD/svg11.dtd">
<svg width="100%" height="100%" viewBox="0 0 1200 1843" version="1.1"
     xmlns="http://www.w3.org/2000/svg"
     xmlns:xlink="http://www.w3.org/1999/xlink" xml:space="preserve"
     xmlns:serif="http://www.serif.com/" style="fill-rule:evenodd;clip-rule:evenodd;stroke-linecap:round;stroke-linejoin:round;stroke-miterlimit:1.5;">
    <style>
        #cmt>g{
            animation: 10s shake linear infinite;
        }
        @keyframes shake {
            25%{
                transform: translate(-.25%, .25%);
            }
            50%{
                transform: translate(.25%, -.25%);
            }
            75%{
                transform: translate(-.25%, -.25%);
            }
        }
        #s1-1{
            transform-origin: center;
            transform-box: fill-box;
            animation: 5s twinkle ease-in-out infinite;
        }
        #s1-2{
            opacity: 0;
            transform-origin: center;
            transform-box: fill-box;
            animation: 5s twinkle 3s ease-in-out infinite;
        }
        @keyframes twinkle {
            0%{
                transform: scale(1.1);
                opacity: 1;
            }
            5%{
                opacity: 0;
            }
            10%{
                opacity: initial;
            }
        }
    </style>
    <g id="cmt">
        <path id="tail" d="M356.679,583.201c-309.762,383.444 -72.053,437.663 292.14,291.082l57.627,94.621c-410.551,299.992 -848.188,-33.144 -349.767,-385.703Z" style="fill:url(#_Linear1);stroke:#77ffd9;stroke-width:13.37px;"/>
        <g>
            <path d="M576.252,1111.9c438.024,-284.129 397.444,-385.574 -111.696,-236.91l142.288,14.229l-186.397,67.587l168.611,-18.498l-171.457,103.87l185.686,-66.163l-122.368,119.521l173.592,-103.87c-0,0 -78.97,120.945 -78.259,120.234Z" style="fill:#00ffc6;"/>
            <path d="M566.478,867.061c338.087,-86.544 363.229,-28.561 80.428,171.638l49.247,-81.011l-115.979,66.15l80.719,-79.263l-111.9,37.883l99.078,-63.235l-105.197,10.782l121.225,-46.625l-97.621,-16.319Z" style="fill:#00d5bd;"/>
        </g>
    </g>
    <g transform="matrix(0.977737,-0.209834,0.209834,0.977737,-40.9278,487.062)">
        <g transform="matrix(1,0,-0.249328,1,56.8561,0)">
            <text x="65.599px" y="228.038px" style="font-family:'Gameplay';font-size:150px;fill:#ff00fd;stroke:#00fff1;stroke-width:6.44px;stroke-linecap:butt;stroke-miterlimit:2;">Prophecies</text>
        </g>
        <g transform="matrix(1,0,-0.249328,1,106.722,0)">
            <text x="65.599px" y="428.038px" style="font-family:'Gameplay';font-size:150px;fill:#ff00fd;stroke:#00fff1;stroke-width:6.44px;stroke-linecap:butt;stroke-miterlimit:2;">Fulfilled!</text>
        </g>
    </g>
    <path d="M105.943,429.221l4.168,23.9l23.901,4.168l-23.901,4.168l-4.168,23.901l-4.168,-23.901l-23.9,-4.168l23.9,-4.168l4.168,-23.9Zm0,21.231l0.575,3.296l2.966,2.967l3.296,0.574c0,0 -3.296,0.575 -3.296,0.575l-2.966,2.967l-0.575,3.295c0,0 -0.575,-3.295 -0.575,-3.295l-2.966,-2.967l-3.296,-0.575c0,0 3.296,-0.574 3.296,-0.574l2.966,-2.967l0.575,-3.296Z" style="fill:#fff;"/>
    <g>
        <path d="M218.111,131.81c75.77,0 137.286,61.516 137.286,137.286c-0,75.77 -61.516,137.285 -137.286,137.285c-75.77,0 -137.285,-61.515 -137.285,-137.285c-0,-75.77 61.515,-137.286 137.285,-137.286Zm0,3.648c73.757,-0 133.638,59.881 133.638,133.638c0,73.757 -59.881,133.638 -133.638,133.638c-73.757,-0 -133.638,-59.881 -133.638,-133.638c0,-73.757 59.881,-133.638 133.638,-133.638Z" style="fill:#fefdff;fill-opacity:0.55;"/>
        <path d="M157.99,149.696c-66.335,34.447 -92.57,115.604 -58.548,181.12c34.021,65.516 115.498,90.74 181.833,56.294c-54.888,15.943 -121.133,-12.868 -151.786,-71.897c-30.653,-59.029 -16.114,-129.789 28.501,-165.517Z" style="fill:#fff;fill-opacity:0.51;"/>
    </g>
    <path d="M572.724,148.753l7.139,40.939l40.939,7.139l-40.939,7.139l-7.139,40.939l-7.139,-40.939l-40.939,-7.139l40.939,-7.139l7.139,-40.939Zm-0,21.232l3.546,20.334l2.966,2.966l20.334,3.546c0,0 -20.334,3.546 -20.334,3.546l-2.966,2.967l-3.546,20.333c-0,0 -3.546,-20.333 -3.546,-20.333l-2.967,-2.967l-20.333,-3.546c-0,0 20.333,-3.546 20.333,-3.546l2.967,-2.966l3.546,-20.334Z" style="fill:#fff;"/>
    <path d="M592.724,128.753l7.139,40.939l40.939,7.139l-40.939,7.139l-7.139,40.939l-7.139,-40.939l-40.939,-7.139l40.939,-7.139l7.139,-40.939Zm-0,21.232l3.546,20.334l2.966,2.966l20.334,3.546c0,0 -20.334,3.546 -20.334,3.546l-2.966,2.967l-3.546,20.333c-0,0 -3.546,-20.333 -3.546,-20.333l-2.967,-2.967l-20.333,-3.546c-0,0 20.333,-3.546 20.333,-3.546l2.967,-2.966l3.546,-20.334Z" style="fill:#fff;"/>
    <path id="s1-2" d="M1068.51,767.928l7.139,40.939l40.939,7.139l-40.939,7.139l-7.139,40.939l-7.139,-40.939l-40.938,-7.139l40.938,-7.139l7.139,-40.939Zm0,21.232l3.546,20.333l2.967,2.967l20.334,3.546c-0,0 -20.334,3.546 -20.334,3.546l-2.967,2.967l-3.546,20.333c0,0 -3.546,-20.333 -3.546,-20.333l-2.966,-2.967l-20.334,-3.546c0,0 20.334,-3.546 20.334,-3.546l2.966,-2.967l3.546,-20.333Z" style="fill:#fff;"/>
    <path id="s1-1" d="M1047.44,833.95l7.139,40.938l40.939,7.14l-40.939,7.139l-7.139,40.938l-7.139,-40.938l-40.938,-7.139l40.938,-7.14l7.139,-40.938Zm0,21.231l3.546,20.334l2.967,2.967l20.333,3.546c0,-0 -20.333,3.546 -20.333,3.546l-2.967,2.966l-3.546,20.334c0,-0 -3.546,-20.334 -3.546,-20.334l-2.966,-2.966l-20.334,-3.546c0,-0 20.334,-3.546 20.334,-3.546l2.966,-2.967l3.546,-20.334Z" style="fill:#fff;"/>
    <path id="s2-1" d="M1129.74,496.692l4.168,23.9l23.901,4.168l-23.901,4.168l-4.168,23.901l-4.168,-23.901l-23.9,-4.168l23.9,-4.168l4.168,-23.9Zm0,21.231l0.575,3.296l2.967,2.967l3.295,0.574c0,0 -3.295,0.575 -3.295,0.575l-2.967,2.967l-0.575,3.295c0,0 -0.574,-3.295 -0.574,-3.295l-2.967,-2.967l-3.296,-0.575c0,0 3.296,-0.574 3.296,-0.574l2.967,-2.967l0.574,-3.296Z" style="fill:#fff;"/>
    <path id="s2-2" d="M1148.06,458.9l4.168,23.901l23.901,4.168l-23.901,4.168l-4.168,23.9l-4.168,-23.9l-23.9,-4.168l23.9,-4.168l4.168,-23.901Zm0,21.232l0.575,3.295l2.967,2.967l3.295,0.575c0,-0 -3.295,0.575 -3.295,0.575l-2.967,2.966l-0.575,3.296c0,-0 -0.574,-3.296 -0.574,-3.296l-2.967,-2.966l-3.296,-0.575c0,-0 3.296,-0.575 3.296,-0.575l2.967,-2.967l0.574,-3.295Z" style="fill:#fff;"/>
    <path d="M58.134,746.807l4.168,23.901l23.901,4.168l-23.901,4.168l-4.168,23.9l-4.168,-23.9l-23.9,-4.168l23.9,-4.168l4.168,-23.901Zm0,21.232l0.575,3.296l2.967,2.966l3.295,0.575c0,-0 -3.295,0.575 -3.295,0.575l-2.967,2.966l-0.575,3.296c0,-0 -0.574,-3.296 -0.574,-3.296l-2.967,-2.966l-3.296,-0.575c0,-0 3.296,-0.575 3.296,-0.575l2.967,-2.966l0.574,-3.296Z" style="fill:#fff;"/>
    <path d="M75.892,788.242l4.168,23.9l23.9,4.168l-23.9,4.168l-4.168,23.901l-4.168,-23.901l-23.901,-4.168l23.901,-4.168l4.168,-23.9Zm-0,21.231l0.575,3.296l2.966,2.966l3.296,0.575c-0,0 -3.296,0.575 -3.296,0.575l-2.966,2.967l-0.575,3.295c-0,0 -0.575,-3.295 -0.575,-3.295l-2.966,-2.967l-3.296,-0.575c-0,0 3.296,-0.575 3.296,-0.575l2.966,-2.966l0.575,-3.296Z" style="fill:#fff;"/>
    <path id="s5-2" d="M672.77,244.353l5.323,30.527l30.527,5.323l-30.527,5.324l-5.323,30.526l-5.323,-30.526l-30.527,-5.324l30.527,-5.323l5.323,-30.527Zm0,21.232l1.73,9.921l2.967,2.967l9.921,1.73c0,0 -9.921,1.73 -9.921,1.73l-2.967,2.967l-1.73,9.921c0,0 -1.73,-9.921 -1.73,-9.921l-2.967,-2.967l-9.921,-1.73c-0,0 9.921,-1.73 9.921,-1.73l2.967,-2.967l1.73,-9.921Z" style="fill:#fff;"/>
    <path id="s5-1" d="M686.43,257.558l5.323,30.526l30.527,5.323l-30.527,5.324l-5.323,30.526l-5.324,-30.526l-30.526,-5.324l30.526,-5.323l5.324,-30.526Zm-0,21.231l1.73,9.922l2.966,2.966l9.922,1.73c0,0 -9.922,1.731 -9.922,1.731l-2.966,2.966l-1.73,9.922c-0,-0 -1.731,-9.922 -1.731,-9.922l-2.966,-2.966l-9.922,-1.731c0,0 9.922,-1.73 9.922,-1.73l2.966,-2.966l1.731,-9.922Z" style="fill:#fff;"/>
    <path id="s3-1" d="M862.858,123.186l5.323,30.527l30.527,5.323l-30.527,5.323l-5.323,30.527l-5.324,-30.527l-30.526,-5.323l30.526,-5.323l5.324,-30.527Zm-0,21.232l1.73,9.921l2.967,2.967l9.921,1.73c0,0 -9.921,1.73 -9.921,1.73l-2.967,2.967l-1.73,9.921c-0,0 -1.73,-9.921 -1.73,-9.921l-2.967,-2.967l-9.922,-1.73c0,0 9.922,-1.73 9.922,-1.73l2.967,-2.967l1.73,-9.921Z" style="fill:#fff;"/>
    <path id="s4-1" d="M735.542,65.816l5.324,30.526l30.526,5.324l-30.526,5.323l-5.324,30.526l-5.323,-30.526l-30.527,-5.323l30.527,-5.324l5.323,-30.526Zm0,21.231l1.73,9.922l2.967,2.966l9.922,1.731c-0,-0 -9.922,1.73 -9.922,1.73l-2.967,2.966l-1.73,9.922c0,-0 -1.73,-9.922 -1.73,-9.922l-2.967,-2.966l-9.921,-1.73c-0,-0 9.921,-1.731 9.921,-1.731l2.967,-2.966l1.73,-9.922Z" style="fill:#fff;"/>
    <path d="M485.571,316.698l5.323,30.526l30.527,5.324l-30.527,5.323l-5.323,30.526l-5.324,-30.526l-30.526,-5.323l30.526,-5.324l5.324,-30.526Zm-0,21.231l1.73,9.922l2.967,2.966l9.921,1.731c0,-0 -9.921,1.73 -9.921,1.73l-2.967,2.966l-1.73,9.922c-0,-0 -1.73,-9.922 -1.73,-9.922l-2.967,-2.966l-9.922,-1.73c0,-0 9.922,-1.731 9.922,-1.731l2.967,-2.966l1.73,-9.922Z" style="fill:#fff;"/>
    <path id="s4-2" d="M819.777,211.063l5.323,30.527l30.527,5.323l-30.527,5.323l-5.323,30.527l-5.324,-30.527l-30.526,-5.323l30.526,-5.323l5.324,-30.527Zm-0,21.232l1.73,9.921l2.966,2.967l9.922,1.73c-0,0 -9.922,1.73 -9.922,1.73l-2.966,2.967l-1.73,9.921c-0,0 -1.731,-9.921 -1.731,-9.921l-2.966,-2.967l-9.922,-1.73c0,0 9.922,-1.73 9.922,-1.73l2.966,-2.967l1.731,-9.921Z" style="fill:#fff;"/>
    <path id="s3-2" d="M899.458,96.777l5.323,30.527l30.527,5.323l-30.527,5.324l-5.323,30.526l-5.324,-30.526l-30.526,-5.324l30.526,-5.323l5.324,-30.527Zm-0,21.232l1.73,9.922l2.967,2.966l9.921,1.73c0,0 -9.921,1.731 -9.921,1.731l-2.967,2.966l-1.73,9.922c-0,-0 -1.73,-9.922 -1.73,-9.922l-2.967,-2.966l-9.922,-1.731c0,0 9.922,-1.73 9.922,-1.73l2.967,-2.966l1.73,-9.922Z" style="fill:#fff;"/>
    <circle cx="171.983" cy="228.513" r="28.624" style="fill:#fff;fill-opacity:0.52;"/>
    <ellipse cx="292.082" cy="238.985" rx="9.77" ry="10.371" style="fill:#fff;fill-opacity:0.52;"/>
    <ellipse cx="187.589" cy="303.459" rx="9.77" ry="10.371" style="fill:#fff;fill-opacity:0.52;"/>
    <circle cx="279.501" cy="307.688" r="19.453" style="fill:#fff;fill-opacity:0.52;"/>
    <ellipse cx="243.17" cy="192.296" rx="9.77" ry="10.371" style="fill:#fff;fill-opacity:0.52;"/>
    <path d="M262.512,1692.28c1.821,13.471 16.638,20.946 40.217,13.203c106.206,-47.828 219.001,-91.278 326.017,-125.146c4.55,-1.44 -4.096,-9.711 -0.774,-12.102c2.427,-1.747 24.248,4.794 29.155,3.305c127.184,-38.584 244.446,-62.679 330.353,-63.272c37.584,-17.592 45.486,-40.13 43.202,-64.367c-89.341,-100.365 -142.412,-182.501 -204.679,-270.042c-26.503,-8.549 -38.238,6.142 -36.853,40.089l10.583,23.905c-37.659,-5.245 -82.607,-6.88 -131.227,-5.633c-1.459,0.038 1.595,20.199 0.13,20.242c-1.56,0.045 -7.639,-20.028 -9.206,-19.977c-93.889,3.065 -200.408,16.521 -294.212,35.275c-0.538,0.107 6.114,6.82 8.331,15.41c0.38,1.474 -4.079,3.58 -3.684,5.1c2.907,11.175 5.952,22.777 5.276,22.913c-1.123,0.228 -21.641,-40.93 -22.761,-40.702c-21.863,4.467 -37.436,7.969 -57.497,12.939c-13.44,-113.121 -103.089,-67.475 -99.867,8.796c37.822,111.359 61.214,232.265 67.496,400.064Z" style="fill:#fff;fill-opacity:0.5;stroke:#fff;stroke-width:4.17px;stroke-linecap:square;stroke-linejoin:bevel;stroke-miterlimit:1;"/>
    <path d="M800.007,1238.18c52.378,83.034 109.456,165.749 172.883,248.783" style="fill:none;stroke:#fff;stroke-width:4.17px;stroke-linecap:square;stroke-linejoin:bevel;stroke-miterlimit:1;"/>
    <path d="M381.343,1611.9c-25.726,-125.404 -54.443,-233.706 -86.118,-328.512" style="fill:none;stroke:#fff;stroke-width:4.17px;stroke-linecap:square;stroke-linejoin:bevel;stroke-miterlimit:1;"/>
    <path d="M319.466,1650.25c-13.248,24.621 34.61,-3.966 37.532,-21.051c3.166,-18.512 -46.414,-2 -63.805,34.759c-11.013,23.275 46.506,33.153 84.53,-35.085c27.884,-50.041 -84.812,-15.204 -108.845,41.938c-3.558,8.459 -7.474,14.459 -5.999,23.428" style="fill:none;stroke:#fff;stroke-width:4.17px;stroke-linecap:square;stroke-linejoin:bevel;stroke-miterlimit:1;"/>
    <path d="M994.047,1465.33c6.844,-11.296 22.521,-10.626 9.604,6.588c-5.698,7.594 -20.535,13.514 -23.485,3.178c-6.878,-24.094 33.689,-37.295 38.32,-22.505c8.09,25.834 -30.402,49.243 -44.754,35.952c-30.199,-48.079 64.234,-74.929 57.408,-33.557" style="fill:none;stroke:#fff;stroke-width:4.17px;stroke-linecap:square;stroke-linejoin:bevel;stroke-miterlimit:1;"/>
    <g>
        <path d="M377.911,1389.41c-0.399,5.215 -0.017,9.798 1.148,13.746c1.165,3.948 2.99,7.187 5.475,9.716c2.485,2.528 5.574,4.257 9.266,5.187c3.692,0.929 7.872,0.914 12.538,-0.045c12.183,-2.506 21.41,-7.206 27.679,-14.102c6.268,-6.895 9.897,-16.794 10.885,-29.696l-0.005,-2.431l0.852,-11.117c-0.581,-4.069 -1.914,-7.071 -3.999,-9.006c-2.084,-1.936 -4.602,-3.208 -7.553,-3.817c-2.951,-0.609 -6.099,-0.739 -9.442,-0.389c-3.344,0.35 -6.571,0.845 -9.682,1.484c-4.925,1.013 -9.549,2.673 -13.872,4.981c-4.323,2.307 -8.147,5.187 -11.474,8.641c-3.326,3.453 -6.022,7.419 -8.087,11.896c-2.065,4.478 -3.308,9.462 -3.729,14.952Zm13.436,6.964l13.998,-2.879l-0.899,11.736c-1.555,0.32 -3.154,0.378 -4.797,0.176c-1.643,-0.203 -3.105,-0.679 -4.388,-1.429c-1.282,-0.749 -2.289,-1.758 -3.021,-3.026c-0.732,-1.268 -1.03,-2.794 -0.893,-4.578Zm39.662,-8.156c-2.088,3.942 -4.328,7.375 -6.721,10.298c-2.393,2.924 -5.663,4.812 -9.811,5.665l1.215,-8.355c0.192,-0.85 0.59,-1.878 1.192,-3.082c0.603,-1.205 1.034,-1.834 1.293,-1.887l12.832,-2.639Zm-10.23,-31.332l3.321,-0.886c2.333,-0.479 4.212,-0.021 5.636,1.375c1.424,1.396 2.5,3.167 3.228,5.314c0.729,2.146 1.185,4.518 1.369,7.115c0.184,2.596 0.207,4.787 0.071,6.571l-15.359,3.158l1.734,-22.647Zm-10.046,1.255l-1.514,12.267c-0.053,0.687 -0.216,1.564 -0.489,2.634c-0.273,1.069 -0.544,2.104 -0.812,3.105c-0.268,1.001 -0.558,1.871 -0.87,2.611c-0.311,0.739 -0.532,1.122 -0.662,1.149l-13.22,2.719c0.199,-2.608 0.688,-5.242 1.466,-7.901c0.778,-2.659 1.891,-5.117 3.34,-7.374c1.448,-2.257 3.224,-4.209 5.328,-5.858c2.103,-1.648 4.581,-2.765 7.433,-3.352Z" style="fill:#9bfffb;fill-rule:nonzero;"/>
        <path d="M457.345,1333.58c4.361,3.272 7.982,7.024 10.864,11.255c2.881,4.231 5.434,8.709 7.659,13.432c2.225,4.724 4.296,9.628 6.212,14.713c1.917,5.085 4.033,10.129 6.349,15.132l1.015,-0.03c0.114,-0.024 0.288,-0.089 0.521,-0.197c0.233,-0.107 0.35,-0.161 0.35,-0.161c1.692,-1.539 3.341,-3.605 4.945,-6.198c1.605,-2.593 3.071,-5.217 4.399,-7.873c1.329,-2.655 2.476,-5.154 3.443,-7.497c0.967,-2.342 1.716,-4.045 2.247,-5.107c4.043,-7.263 8.418,-14.088 13.125,-20.476c4.707,-6.387 9.998,-12.686 15.873,-18.896c0.238,-0.168 0.889,-0.6 1.955,-1.296c1.065,-0.695 1.722,-1.187 1.969,-1.476c-0,-0 0.035,-0.097 0.106,-0.29c0.071,-0.194 0.112,-0.351 0.121,-0.472c0.028,-0.363 0.022,-0.66 -0.016,-0.89c-0.039,-0.23 -0.058,-0.345 -0.058,-0.345c-0.096,-0.219 -0.331,-0.826 -0.704,-1.821c-0.374,-0.995 -0.666,-1.59 -0.876,-1.785l-4.628,0.952c-2.057,0.423 -3.888,0.829 -5.492,1.218c-1.605,0.39 -3.214,0.84 -4.828,1.35c-1.613,0.511 -3.344,1.075 -5.191,1.693c-1.847,0.618 -3.984,1.355 -6.412,2.212c-0.009,0.121 -0.061,0.429 -0.155,0.925c-0.094,0.496 -0.15,0.865 -0.169,1.107l5.457,5.845l-0.241,0.943c-0.645,1.086 -1.854,2.913 -3.625,5.48c-1.771,2.568 -3.697,5.316 -5.777,8.245c-2.081,2.929 -4.006,5.678 -5.778,8.246c-1.771,2.567 -2.979,4.394 -3.625,5.48l-2.039,2.384c0,0 -0.116,0.054 -0.349,0.161c-0.233,0.108 -0.407,0.173 -0.521,0.197c-0.229,0.047 -0.455,0.063 -0.679,0.05c-0.224,-0.014 -0.336,-0.02 -0.336,-0.02c-0.105,-0.098 -0.396,-0.336 -0.873,-0.714c-0.477,-0.378 -0.764,-0.677 -0.86,-0.895c-0.305,-0.414 -0.676,-1.082 -1.111,-2.005c-0.436,-0.923 -0.592,-1.457 -0.468,-1.601l10.192,-11.922c0,-0 0.057,-0.369 0.169,-1.107c0.113,-0.738 0.179,-1.228 0.197,-1.47c0.093,-1.21 -0.024,-2.258 -0.349,-3.144c-0.326,-0.886 -0.711,-1.73 -1.156,-2.531c-0.445,-0.802 -0.83,-1.646 -1.156,-2.532c-0.326,-0.886 -0.438,-1.994 -0.336,-3.326c0.074,-0.968 0.513,-1.921 1.316,-2.861c0.803,-0.939 1.747,-1.877 2.831,-2.815c1.084,-0.938 2.194,-1.851 3.331,-2.74c1.136,-0.888 2.018,-1.755 2.645,-2.598l-5.35,-2.83c-0,-0 -0.474,0.305 -1.42,0.917c-0.947,0.611 -2.044,1.343 -3.29,2.195c-1.246,0.852 -2.525,1.77 -3.838,2.754c-1.313,0.985 -2.388,1.802 -3.225,2.45c-0.827,0.528 -1.725,1.606 -2.694,3.234c-0.968,1.628 -1.48,2.806 -1.536,3.532c-0.009,0.121 0.204,0.643 0.64,1.566c0.435,0.922 0.749,1.602 0.94,2.039l5.045,6.824c-0,0 0.019,0.115 0.058,0.346c0.038,0.23 0.048,0.466 0.03,0.708c-0.009,0.121 -0.052,0.308 -0.128,0.562c-0.075,0.254 -0.113,0.381 -0.113,0.381c-0.256,0.41 -0.91,1.229 -1.96,2.457c-1.05,1.229 -1.756,1.999 -2.117,2.312c-0.964,-0.636 -2.075,-1.539 -3.336,-2.709c-1.26,-1.17 -2.401,-2.424 -3.423,-3.762c-1.022,-1.339 -1.873,-2.712 -2.553,-4.121c-0.679,-1.408 -0.972,-2.718 -0.88,-3.928c0.019,-0.242 0.066,-0.49 0.142,-0.744c0.075,-0.254 0.113,-0.38 0.113,-0.38l4.077,-4.769c0.133,-0.266 0.273,-0.622 0.42,-1.069c0.146,-0.447 0.229,-0.792 0.247,-1.034l-25.026,5.146l-0.306,3.994Z" style="fill:#9bfffb;fill-rule:nonzero;"/>
        <path d="M587.857,1338.64c-0.037,0.484 -0.23,1.536 -0.579,3.156c-0.349,1.62 -0.707,3.361 -1.075,5.224c-0.367,1.862 -0.723,3.573 -1.068,5.132c-0.344,1.56 -0.53,2.521 -0.558,2.884l-0.459,5.991l3.942,-0.811l22.883,-32.219l4.095,-2.808c0.229,-0.047 0.51,-0.045 0.843,0.006c0.334,0.05 0.558,0.064 0.672,0.04l-3.304,18.903l-0.218,5.047c2.169,-1.875 3.969,-4.448 5.4,-7.72c1.432,-3.273 2.623,-6.703 3.572,-10.293c0.95,-3.59 1.672,-7.133 2.164,-10.629c0.493,-3.496 0.823,-6.333 0.99,-8.511c0.12,-1.573 -0.044,-2.731 -0.494,-3.472c-0.449,-0.741 -1.474,-0.948 -3.073,-0.619l-25.704,22.795l1.669,-21.783l12.513,-2.573c2.857,-0.587 5.728,-1.356 8.612,-2.307c2.885,-0.95 5.462,-2.284 7.73,-4.001c2.269,-1.717 4.177,-3.867 5.724,-6.448c1.548,-2.581 2.474,-5.868 2.78,-9.862c0.241,-3.146 -0.654,-5.404 -2.686,-6.773c-2.033,-1.368 -4.363,-1.782 -6.991,-1.242c-2.286,0.47 -3.842,1.326 -4.668,2.568c-0.826,1.242 -1.309,2.77 -1.448,4.585c-0.157,2.058 -0.08,4.722 0.232,7.993c-4.93,2.681 -9.81,4.726 -14.642,6.137c-4.833,1.41 -9.705,2.621 -14.619,3.631l1.339,-8.672c0.13,-1.694 -0.137,-2.979 -0.801,-3.855c-0.664,-0.876 -2.139,-1.079 -4.425,-0.609c-1.028,0.211 -2.75,1.399 -5.165,3.563c-2.416,2.165 -5.151,4.841 -8.208,8.03c-3.056,3.19 -6.19,6.663 -9.402,10.42c-3.212,3.758 -6.187,7.347 -8.923,10.768c-2.737,3.421 -4.993,6.446 -6.769,9.074c-1.776,2.629 -2.696,4.366 -2.761,5.213c2.399,-0.493 4.564,-1.593 6.495,-3.3c1.93,-1.708 3.815,-3.554 5.654,-5.54c1.84,-1.986 3.696,-3.827 5.569,-5.523c1.873,-1.695 3.953,-2.778 6.238,-3.248l2.057,-0.423c1.248,-0.137 2.836,-0.315 4.765,-0.533c1.929,-0.218 3.77,-0.388 5.522,-0.51c1.753,-0.122 3.28,-0.228 4.58,-0.316c1.3,-0.089 1.95,-0.133 1.95,-0.133l1.58,3.605c-2.514,0.517 -4.986,1.949 -7.415,4.294c-2.429,2.346 -4.822,4.952 -7.179,7.819c-2.356,2.867 -4.656,5.722 -6.898,8.565c-2.243,2.843 -4.439,5.081 -6.588,6.714c-0.952,0.673 -2.056,1.138 -3.313,1.396c-0.8,0.165 -1.481,0.245 -2.043,0.242c-0.562,-0.004 -1.129,0.053 -1.7,0.171c-0.686,0.141 -1.309,0.567 -1.869,1.277c-0.561,0.711 -0.915,2.035 -1.064,3.971c-0.074,0.968 -0.015,2.028 0.178,3.179c0.193,1.152 0.529,2.274 1.008,3.366c0.479,1.093 1.116,1.944 1.913,2.555c0.797,0.61 1.767,0.798 2.91,0.563c0.114,-0.024 0.288,-0.089 0.521,-0.197c0.233,-0.107 0.35,-0.161 0.35,-0.161l8.154,-9.538l18.04,-17.466l1.043,-0.393c0.114,-0.024 0.283,-0.029 0.507,-0.015c0.224,0.013 0.336,0.02 0.336,0.02c0.21,0.195 0.53,0.784 0.961,1.768c0.431,0.983 0.637,1.596 0.618,1.838Z" style="fill:#9bfffb;fill-rule:nonzero;"/>
        <path d="M705.623,1327.74c-0.214,1.341 -0.225,2.739 -0.034,4.195c0.192,1.456 0.639,2.798 1.343,4.027c0.704,1.229 1.61,2.187 2.718,2.874c1.109,0.687 2.472,0.932 4.092,0.735c1.619,-0.198 3.4,-0.908 5.342,-2.13c1.942,-1.223 3.766,-2.705 5.473,-4.447c1.707,-1.742 3.193,-3.594 4.459,-5.556c1.265,-1.962 2.041,-3.837 2.326,-5.625l0.133,-0.838c-2.115,-5.33 -5.621,-11.231 -10.518,-17.702c-4.898,-6.471 -10.594,-14.241 -17.088,-23.312l-1.283,-7.897c0,0 -0.103,-0.015 -0.31,-0.044c-0.207,-0.03 -0.419,-0.031 -0.635,-0.005l-0.836,0.266c-2.118,3.326 -4.125,6.282 -6.019,8.869c-1.895,2.586 -3.794,5.036 -5.698,7.35c-1.904,2.314 -3.911,4.613 -6.022,6.897c-2.111,2.284 -4.505,4.849 -7.182,7.695l-1.159,1.292c-1.168,1.347 -3.059,3.084 -5.674,5.211c-2.616,2.126 -5.24,4.308 -7.873,6.546c-2.633,2.239 -5.037,4.367 -7.211,6.385c-2.174,2.017 -3.459,3.598 -3.853,4.742c-0.143,0.237 -0.358,1.085 -0.643,2.544c-0.286,1.459 -0.491,2.58 -0.616,3.362c-0.641,4.022 0.102,7 2.229,8.932c2.127,1.933 5.08,2.669 8.859,2.208c1.08,-0.131 2.533,-0.445 4.359,-0.941c1.826,-0.497 3.629,-1.182 5.409,-2.056c1.781,-0.874 3.381,-1.946 4.801,-3.214c1.419,-1.269 2.263,-2.741 2.53,-4.417l0.107,-0.671c0.035,-0.223 -0.02,-0.874 -0.165,-1.952c-0.146,-1.078 -0.337,-2.205 -0.573,-3.382c-0.236,-1.176 -0.454,-2.3 -0.654,-3.372c-0.199,-1.071 -0.336,-1.712 -0.408,-1.922l0.134,-0.838c0.142,-0.894 1.255,-2.728 3.338,-5.502c2.083,-2.774 4.445,-5.636 7.086,-8.587c2.641,-2.952 5.125,-5.583 7.452,-7.893c2.327,-2.31 3.814,-3.505 4.462,-3.584c0.216,-0.026 0.427,-0.025 0.634,0.005c0.207,0.029 0.311,0.044 0.311,0.044c0.108,-0.013 0.338,0.206 0.689,0.656c0.352,0.45 0.618,0.774 0.799,0.971c0.613,0.802 1.434,1.962 2.462,3.48c1.029,1.519 2.048,3.093 3.059,4.723c1.011,1.63 1.94,3.105 2.788,4.427c0.848,1.321 1.354,2.136 1.516,2.445c0.127,0.532 0.362,1.216 0.705,2.05c0.344,0.835 0.507,1.308 0.489,1.42l-4.445,5.965c-0.018,0.112 -0.196,0.901 -0.536,2.366c-0.339,1.466 -0.562,2.534 -0.669,3.205Zm-49.587,5.217c0.232,-1.453 0.959,-2.692 2.181,-3.717c1.222,-1.026 2.535,-1.624 3.939,-1.795c0.432,-0.052 1.062,-0.02 1.89,0.099c0.828,0.118 1.616,0.323 2.363,0.616c0.747,0.292 1.369,0.71 1.865,1.252c0.496,0.542 0.681,1.204 0.557,1.987c-0.018,0.111 -0.063,0.226 -0.135,0.345c-0.071,0.118 -0.125,0.289 -0.161,0.512c-0.717,1.841 -1.7,3.029 -2.95,3.565c-1.25,0.535 -2.523,0.882 -3.818,1.04c-1.404,0.171 -2.777,-0.018 -4.119,-0.567c-1.341,-0.549 -1.879,-1.661 -1.612,-3.337Zm63.877,-16.162c1.836,-0.223 3.132,0.276 3.89,1.499c0.758,1.222 1.004,2.672 0.737,4.348c-0.374,2.346 -1.551,3.914 -3.529,4.703c-1.979,0.789 -4.048,1.315 -6.207,1.578l-3.239,0.394c0.16,-1.006 0.406,-2.213 0.736,-3.623c0.331,-1.41 0.833,-2.731 1.505,-3.964c0.673,-1.232 1.481,-2.317 2.425,-3.253c0.943,-0.937 2.171,-1.498 3.682,-1.682Z" style="fill:#9bfffb;fill-rule:nonzero;"/>
        <path d="M760.185,1311.82c0.623,0.223 0.951,0.754 0.985,1.592c0.034,0.839 0.031,1.812 -0.009,2.918c-0.041,1.106 -0.026,2.288 0.044,3.546c0.07,1.258 0.477,2.398 1.221,3.421c0.743,1.023 1.916,1.871 3.517,2.543c1.602,0.672 3.928,0.994 6.979,0.967c2.288,-0.021 4.602,-0.48 6.943,-1.379c2.341,-0.898 4.543,-2.119 6.606,-3.663c2.063,-1.544 3.923,-3.315 5.58,-5.313c1.656,-1.998 2.906,-4.106 3.749,-6.326l5.72,-0.051c0.992,-0.009 1.867,0.059 2.625,0.205c0.758,0.146 1.449,0.33 2.072,0.553c0.623,0.223 1.275,0.408 1.957,0.555c0.682,0.146 1.443,0.215 2.282,0.208l3.273,-11.813c-0.229,0.002 -0.67,0.082 -1.322,0.24c-1.945,0.704 -3.766,1.235 -5.463,1.594c-1.697,0.358 -3.378,0.66 -5.043,0.903c-1.665,0.244 -3.363,0.469 -5.094,0.675c-1.73,0.207 -3.591,0.471 -5.583,0.794l-0.222,0.803c-0.487,1.759 -1.29,3.558 -2.409,5.399c-1.118,1.841 -2.456,3.512 -4.013,5.013c-1.557,1.501 -3.293,2.756 -5.208,3.765c-1.915,1.009 -3.902,1.522 -5.961,1.541c-1.983,0.018 -3.403,-0.351 -4.258,-1.106c-0.856,-0.755 -1.368,-1.723 -1.535,-2.903c-0.168,-1.181 -0.142,-2.44 0.076,-3.776c0.218,-1.337 0.42,-2.617 0.607,-3.839c0.186,-1.222 0.248,-2.271 0.187,-3.147c-0.062,-0.877 -0.452,-1.388 -1.173,-1.534c-0.534,0.004 -1.397,0.031 -2.59,0.08c-1.192,0.049 -2.437,0.079 -3.733,0.091c-1.297,0.012 -2.531,0.004 -3.702,-0.024c-1.172,-0.027 -2.025,-0.039 -2.558,-0.034c-0.971,-0.068 -1.687,-0.366 -2.149,-0.896c-0.461,-0.53 -0.831,-1.117 -1.109,-1.763c-0.277,-0.646 -0.557,-1.216 -0.839,-1.709c-0.281,-0.493 -0.727,-0.737 -1.337,-0.731l-0.719,0.12c-0.995,2.221 -2.018,4.747 -3.069,7.579c-1.051,2.831 -1.915,5.471 -2.593,7.917c0.992,-0.009 1.949,-0.17 2.873,-0.483c0.924,-0.314 1.853,-0.646 2.787,-0.998c0.934,-0.351 1.901,-0.684 2.901,-0.998c1,-0.314 2.072,-0.477 3.216,-0.487l5.491,-0.049Zm10.161,-18.969c-1.186,4.282 -0.906,7.254 0.84,8.916c1.745,1.663 4.639,2.475 8.681,2.439c3.661,-0.033 6.943,-1.035 9.848,-3.006c2.904,-1.971 4.928,-5.021 6.072,-9.15c0.445,-1.606 0.528,-3.075 0.251,-4.407c-0.278,-1.332 -0.799,-2.471 -1.564,-3.418c-0.764,-0.946 -1.759,-1.681 -2.984,-2.204c-1.224,-0.523 -2.561,-0.778 -4.01,-0.765c-1.907,0.017 -3.757,0.244 -5.551,0.679c-1.795,0.436 -3.448,1.118 -4.961,2.047c-1.512,0.929 -2.851,2.123 -4.016,3.583c-1.165,1.46 -2.034,3.222 -2.606,5.286Zm5.847,1.549l0.922,-3.326c0.36,-1.3 1.125,-2.413 2.294,-3.338l3.87,-0.378c2.67,-0.024 4.246,0.533 4.729,1.673c0.483,1.14 0.343,3.086 -0.419,5.839c-0.509,1.835 -1.252,3.214 -2.231,4.138c-0.979,0.924 -2.459,1.395 -4.442,1.413c-2.212,0.02 -3.706,-0.424 -4.481,-1.332c-0.775,-0.909 -0.856,-2.471 -0.242,-4.689Z" style="fill:#9bfffb;fill-rule:nonzero;"/>
        <path d="M528.364,1490.9c1.769,2.864 3.612,5.368 5.527,7.511c1.916,2.144 4.015,3.831 6.296,5.062c2.281,1.23 4.826,1.917 7.635,2.06c2.81,0.143 6.048,-0.371 9.715,-1.543c0.556,-0.178 1.499,-0.51 2.831,-0.997c1.332,-0.487 2.688,-1.104 4.067,-1.851c1.38,-0.748 2.588,-1.624 3.624,-2.628c1.035,-1.005 1.537,-2.053 1.504,-3.145c-3.667,1.172 -7.288,2.023 -10.862,2.553c-3.575,0.53 -6.804,0.399 -9.689,-0.393c-2.885,-0.793 -5.235,-2.431 -7.049,-4.913c-1.813,-2.482 -2.792,-6.089 -2.934,-10.82c-0.209,-6.915 1.043,-12.857 3.754,-17.827c2.711,-4.97 7.401,-8.52 14.069,-10.651c2.667,-0.853 4.93,-1.148 6.789,-0.885c1.859,0.264 4.067,-0.013 6.623,-0.83c-0.066,-2.184 -0.79,-3.882 -2.173,-5.093c-1.383,-1.212 -3.034,-2.001 -4.952,-2.367c-1.919,-0.367 -3.996,-0.438 -6.234,-0.212c-2.237,0.225 -4.244,0.621 -6.022,1.19c-3.89,1.243 -7.011,2.853 -9.364,4.83c-2.352,1.977 -4.251,4.115 -5.697,6.414c-1.445,2.299 -2.581,4.622 -3.408,6.969c-0.827,2.346 -1.63,4.562 -2.409,6.648c-0.778,2.087 -1.76,3.931 -2.946,5.535c-1.186,1.604 -2.779,2.726 -4.779,3.365c-2.001,0.64 -3.658,0.557 -4.973,-0.248c-1.314,-0.804 -2.527,-1.948 -3.637,-3.43c-1.111,-1.482 -2.281,-3.068 -3.51,-4.757c-1.229,-1.69 -2.732,-3.169 -4.509,-4.438c-1.777,-1.269 -4.018,-2.084 -6.721,-2.445c-2.704,-0.36 -6.112,0.116 -10.223,1.431c-1.334,0.426 -2.86,0.975 -4.579,1.647c-1.719,0.672 -3.375,1.568 -4.968,2.69c-1.593,1.122 -2.926,2.497 -3.999,4.126c-1.073,1.629 -1.576,3.535 -1.51,5.719l20.836,-6.66c1.778,-0.569 3.222,-0.112 4.333,1.371c1.11,1.482 1.924,3.335 2.439,5.558c0.516,2.224 0.863,4.44 1.042,6.649c0.179,2.209 0.281,3.738 0.307,4.587c0.04,1.334 -0.019,3.098 -0.177,5.292c-0.159,2.194 -0.542,4.369 -1.15,6.523c-0.609,2.154 -1.503,4.124 -2.683,5.91c-1.181,1.785 -2.771,2.998 -4.771,3.637l-20.503,6.554c0.047,1.577 0.725,2.677 2.035,3.3c1.309,0.622 2.834,0.992 4.577,1.109c1.743,0.116 3.479,0.021 5.209,-0.287c1.729,-0.308 3.094,-0.622 4.094,-0.942c4.223,-1.35 7.627,-2.897 10.211,-4.641c2.584,-1.745 4.717,-3.56 6.399,-5.445c1.683,-1.885 3.056,-3.793 4.119,-5.726c1.064,-1.932 2.215,-3.77 3.453,-5.512c1.237,-1.743 2.787,-3.372 4.649,-4.885c1.862,-1.514 4.348,-2.768 7.46,-3.763l2.834,-0.906Z" style="fill:#9bfffb;fill-rule:nonzero;"/>
        <path d="M623.058,1487.9c-0.075,0.968 0.21,1.654 0.854,2.058c0.644,0.403 1.526,0.639 2.646,0.707c1.119,0.067 2.331,0.026 3.636,-0.123c1.305,-0.149 2.643,-0.365 4.015,-0.647c1.142,-0.235 2.259,-0.494 3.349,-0.778c1.09,-0.284 1.921,-0.484 2.493,-0.602c0.231,-3.025 0.147,-5.598 -0.253,-7.72c-0.399,-2.121 -0.474,-4.815 -0.224,-8.082l12.685,-2.609c0.228,-0.047 0.62,-0.395 1.176,-1.046c0.556,-0.65 0.844,-1.096 0.862,-1.338l1.451,-10.125l-13.885,2.855l0.542,-7.079l28.626,-5.886c0.112,-1.453 0.033,-2.628 -0.236,-3.525c-0.268,-0.898 -0.756,-1.869 -1.464,-2.915l-11.516,-19.25c-0.516,-0.609 -1.181,-1.842 -1.994,-3.699c-0.814,-1.858 -1.719,-3.994 -2.715,-6.41c-0.996,-2.415 -2.068,-4.934 -3.217,-7.557c-1.149,-2.622 -2.257,-5.044 -3.324,-7.267c-1.067,-2.222 -2.111,-4.002 -3.134,-5.34c-1.022,-1.339 -1.876,-1.937 -2.562,-1.796c-0.228,0.047 -0.459,0.124 -0.692,0.232c-0.233,0.107 -0.35,0.161 -0.35,0.161c-0.238,0.168 -0.604,0.541 -1.098,1.119c-0.494,0.578 -0.808,1 -0.94,1.265c-2.295,4.998 -4.816,10.37 -7.562,16.116c-2.746,5.746 -5.665,11.557 -8.759,17.434c-3.093,5.877 -6.346,11.638 -9.759,17.282c-3.413,5.645 -6.934,10.865 -10.563,15.661l-0.241,0.943c-0.019,0.242 -0.009,0.478 0.03,0.709c0.038,0.23 0.058,0.345 0.058,0.345c0.21,0.195 0.522,0.518 0.938,0.969c0.415,0.45 0.68,0.664 0.794,0.64l24.512,-5.04l-0.458,5.99l-13.199,2.714l-1.085,14.159l1.9,-0.57c0.342,-0.07 0.978,-0.29 1.906,-0.66c0.928,-0.369 1.885,-0.745 2.87,-1.126c0.985,-0.381 1.944,-0.787 2.877,-1.217c0.933,-0.43 1.575,-0.74 1.927,-0.932c1.001,0.152 1.562,0.543 1.682,1.173c0.12,0.63 0.148,1.369 0.083,2.216c-0.018,0.242 -0.077,0.641 -0.176,1.197c-0.099,0.557 -0.153,0.895 -0.162,1.016l-2.344,6.378Zm15.67,-70.22c0.457,-0.094 1.398,0.844 2.821,2.814c1.424,1.971 2.851,4.268 4.281,6.892c1.43,2.624 2.693,5.223 3.789,7.797c1.096,2.573 1.598,4.465 1.506,5.675l-28.969,5.957c0.092,-1.21 0.85,-3.391 2.272,-6.542c1.423,-3.151 3.047,-6.373 4.874,-9.667c1.827,-3.294 3.626,-6.225 5.398,-8.792c1.771,-2.568 3.114,-3.946 4.028,-4.134Z" style="fill:#9bfffb;fill-rule:nonzero;"/>
        <path d="M744.565,1435.05c0.198,-0.025 0.392,-0.025 0.582,0c0.191,0.026 0.286,0.039 0.286,0.039c0.099,-0.013 0.312,0.186 0.638,0.597c0.326,0.412 0.573,0.707 0.74,0.887c0.318,0.462 0.921,1.291 1.808,2.486c0.887,1.195 1.841,2.431 2.861,3.709c1.021,1.279 1.978,2.49 2.873,3.633c0.896,1.143 1.51,1.895 1.844,2.255l0.892,-0.116c2.08,-0.269 3.834,-1.1 5.259,-2.494c1.426,-1.393 2.722,-2.896 3.889,-4.508c1.168,-1.612 2.365,-3.101 3.592,-4.469c1.228,-1.368 2.733,-2.167 4.516,-2.398c1.09,-0.141 1.925,0.28 2.504,1.263c0.58,0.982 1.169,2.065 1.766,3.247c0.598,1.181 1.311,2.248 2.138,3.198c0.827,0.951 2.083,1.318 3.767,1.099c1.387,-0.179 2.655,-0.696 3.805,-1.55c1.149,-0.854 2.24,-1.801 3.272,-2.841c1.032,-1.04 2.098,-1.984 3.198,-2.832c1.1,-0.847 2.294,-1.354 3.582,-1.521c0.991,-0.128 1.763,0.225 2.316,1.06c0.553,0.835 1.12,1.744 1.699,2.727c0.58,0.983 1.249,1.853 2.008,2.611c0.759,0.758 1.882,1.041 3.368,0.848l0.743,-0.096l3.527,-2.118c0,-0 0.041,-0.106 0.121,-0.318c0.081,-0.212 0.129,-0.37 0.145,-0.472c0.062,-0.411 -0.261,-1.327 -0.968,-2.746c-0.707,-1.42 -1.573,-2.92 -2.596,-4.5c-1.023,-1.58 -2.048,-2.983 -3.077,-4.21c-1.028,-1.227 -1.888,-1.796 -2.582,-1.706c-1.585,0.205 -2.957,0.76 -4.114,1.666c-1.157,0.905 -2.259,1.929 -3.307,3.072c-1.048,1.143 -2.112,2.238 -3.194,3.285c-1.081,1.046 -2.389,1.82 -3.921,2.321c-0.22,-0.476 -0.554,-1.314 -1.003,-2.515c-0.449,-1.201 -0.99,-2.441 -1.622,-3.719c-0.631,-1.278 -1.386,-2.39 -2.262,-3.334c-0.877,-0.944 -1.86,-1.346 -2.95,-1.205c-1.387,0.18 -2.89,0.803 -4.509,1.868c-1.619,1.066 -3.182,2.251 -4.692,3.554c-1.509,1.304 -2.894,2.591 -4.155,3.863c-1.261,1.271 -2.286,2.26 -3.073,2.966c-0.099,0.013 -0.35,0.071 -0.754,0.173c-0.405,0.103 -0.706,0.167 -0.904,0.193c-1.585,0.205 -2.801,-0.267 -3.646,-1.417c-0.846,-1.15 -1.651,-2.406 -2.416,-3.767c-0.764,-1.362 -1.669,-2.605 -2.712,-3.729c-1.044,-1.124 -2.606,-1.552 -4.687,-1.282c-1.981,0.256 -3.772,1.017 -5.373,2.282c-1.6,1.265 -3.17,2.652 -4.71,4.161c-1.541,1.509 -3.086,2.892 -4.637,4.151c-1.551,1.258 -3.218,2.003 -5.001,2.234c-1.685,0.218 -2.95,-0.248 -3.795,-1.398c-0.846,-1.15 -1.651,-2.405 -2.416,-3.767c-0.764,-1.362 -1.693,-2.602 -2.787,-3.719c-1.093,-1.118 -2.68,-1.542 -4.76,-1.273c-0.892,0.115 -2.097,0.372 -3.614,0.77c-1.518,0.398 -3.062,0.975 -4.634,1.733c-1.572,0.758 -2.944,1.64 -4.117,2.648c-1.173,1.009 -1.861,2.181 -2.063,3.516c-0.032,0.206 -0.054,0.511 -0.066,0.916c-0.013,0.404 0.022,0.651 0.106,0.741l10.323,-4.66c-0,-0 0.103,-0.039 0.309,-0.116c0.206,-0.077 0.457,-0.135 0.755,-0.173c0.396,-0.051 1.068,0.642 2.015,2.081c0.948,1.439 2.016,3.039 3.206,4.799c1.19,1.76 2.457,3.333 3.801,4.721c1.344,1.387 2.66,1.998 3.948,1.831c-0,0 0.316,-0.167 0.95,-0.501c0.633,-0.333 1.349,-0.728 2.147,-1.184c0.797,-0.456 1.57,-0.909 2.318,-1.358c0.748,-0.449 1.294,-0.848 1.638,-1.194c0.443,-0.36 1.194,-0.986 2.252,-1.878c1.058,-0.893 2.178,-1.869 3.358,-2.928c1.181,-1.06 2.304,-2.062 3.37,-3.005c1.066,-0.944 1.771,-1.59 2.115,-1.936l0.767,-0.251Zm54.937,-28.871c1.289,-0.166 2.207,0.344 2.755,1.533c0.548,1.188 1.102,2.502 1.661,3.94c0.558,1.439 1.285,2.73 2.181,3.874c0.895,1.143 2.333,1.586 4.314,1.33l0.298,-0.039c1.486,-0.192 2.723,-0.503 3.711,-0.933c0.988,-0.43 1.622,-1.57 1.903,-3.42c0.031,-0.205 0.053,-0.51 0.066,-0.915c0.013,-0.405 0.019,-0.607 0.019,-0.607l-4.39,-2.756c-1.008,-1.683 -1.562,-3.148 -1.665,-4.394c-0.102,-1.246 -0.24,-2.26 -0.412,-3.044c-0.173,-0.784 -0.6,-1.333 -1.28,-1.648c-0.681,-0.314 -2.111,-0.331 -4.291,-0.049c-1.684,0.218 -3.151,0.761 -4.399,1.628c-1.249,0.866 -2.439,1.826 -3.57,2.879c-1.131,1.053 -2.246,2.004 -3.346,2.851c-1.1,0.848 -2.294,1.355 -3.582,1.522l-4.824,-9.5c-0.199,0.025 -0.779,0.327 -1.741,0.905c-0.961,0.578 -1.557,0.982 -1.786,1.213c-0.443,0.36 -1.21,1.089 -2.299,2.187l-6.88,6.935c-1.089,1.098 -1.814,1.872 -2.173,2.321l-8.009,-10.599c-3.488,1.862 -6.753,4.173 -9.794,6.935c-3.041,2.761 -5.912,5.676 -8.612,8.745l-1.634,0.212c-1.373,-1.837 -2.615,-3.414 -3.727,-4.731c-1.111,-1.317 -2.222,-2.483 -3.33,-3.498c-1.109,-1.015 -2.337,-1.889 -3.682,-2.621c-1.346,-0.732 -2.99,-1.426 -4.93,-2.082l-0.892,0.115c-1.585,0.206 -3.246,0.748 -4.982,1.628c-1.736,0.879 -3.359,1.971 -4.868,3.274c-1.509,1.304 -2.826,2.784 -3.951,4.44c-1.126,1.657 -1.821,3.359 -2.086,5.106l-0.249,2.601c1.726,-1.13 3.368,-1.871 4.927,-2.224c1.559,-0.353 3.181,-0.639 4.865,-0.857l0.743,-0.096c2.081,-0.269 3.794,-0.038 5.14,0.695c1.346,0.732 2.631,1.548 3.854,2.448c1.224,0.899 2.509,1.715 3.855,2.447c1.345,0.733 3.009,0.971 4.991,0.714c1.585,-0.205 3.229,-0.795 4.931,-1.771c1.702,-0.976 3.365,-2.174 4.989,-3.593c1.624,-1.419 3.135,-2.899 4.534,-4.44c1.4,-1.541 2.639,-2.986 3.718,-4.334c0.114,-0.116 0.374,-0.225 0.778,-0.328c0.404,-0.103 0.705,-0.167 0.903,-0.192c1.288,-0.167 2.169,0.273 2.641,1.32c0.473,1.047 0.884,2.177 1.234,3.391c0.35,1.214 0.836,2.335 1.457,3.363c0.621,1.028 1.774,1.433 3.458,1.214c1.586,-0.205 2.969,-0.837 4.149,-1.897c1.181,-1.059 2.225,-2.176 3.131,-3.351c0.907,-1.176 1.802,-2.274 2.686,-3.295c0.883,-1.021 1.919,-1.608 3.108,-1.762c0.198,-0.026 0.368,-0.022 0.509,0.01c0.14,0.032 0.211,0.048 0.211,0.048c0.334,0.36 0.678,0.97 1.033,1.831c0.356,0.86 0.756,1.74 1.203,2.639c0.446,0.9 0.986,1.661 1.62,2.284c0.634,0.623 1.348,0.883 2.14,0.781c1.487,-0.193 2.77,-0.812 3.852,-1.859c1.082,-1.046 2.125,-2.164 3.131,-3.352c1.006,-1.188 2.025,-2.302 3.057,-3.342c1.032,-1.04 2.241,-1.65 3.628,-1.83Z" style="fill:#9bfffb;fill-rule:nonzero;"/>
    </g>
    <defs>
        <linearGradient id="_Linear1" x1="0" y1="0" x2="1" y2="0" gradientUnits="userSpaceOnUse" gradientTransform="matrix(556.479,0,0,494.447,149.967,834.796)">
            <stop offset="0" style="stop-color:#8fffc7;stop-opacity:0.51"/>
            <stop offset="0.37" style="stop-color:#8fffc7;stop-opacity:0.74"/>
            <stop offset="1" style="stop-color:#8fffc7;stop-opacity:1"/>
        </linearGradient>
    </defs>
</svg>