<?xml version="1.0" encoding="UTF-8" standalone="no"?><!DOCTYPE svg PUBLIC "-//W3C//DTD SVG 1.1//EN" "http://www.w3.org/Graphics/SVG/1.1/DTD/svg11.dtd">
<svg width="100%" height="100%" viewBox="0 0 1000 1000" version="1.1"
    xmlns="http://www.w3.org/2000/svg"
    xmlns:xlink="http://www.w3.org/1999/xlink" xml:space="preserve"
    xmlns:serif="http://www.serif.com/" style="fill-rule:evenodd;clip-rule:evenodd;stroke-linecap:round;stroke-linejoin:round;stroke-miterlimit:1.5;">
    <style>
        #outline {
            fill: #00f5b8;fill-opacity:0.5;stroke:#fff;stroke-width:.5em;
            animation: 5s glow ease-in-out infinite;
        }
        @keyframes glow {
            0% {
                filter: drop-shadow(1em 1em 1em #00ff99);
            }
            50% {
                filter: drop-shadow(1em 1em 6em #00ff99);
            }
            100% {
                filter: drop-shadow(1em 1em 1em #00ff99);
            }
        }
        #lines > path {
            fill: none;
            stroke: #fff;
            stroke-width: .25em;
        }
        #play *{
            animation-play-state: paused;
        }
        #play:target *{
            animation-play-state: running;
        }
    </style>
    <rect id="Artboard1" x="0" y="0" width="1000" height="1000" style="fill:none;"/>
    <g id="play">
            <path id="outline" d="M238.609,99.026l-77.514,146.868l-15.736,98.495l90.336,386.987l11.073,26.81l-46.625,34.385l-16.318,61.196l53.036,20.981l68.771,-0.583l34.386,-28.558l13.405,9.325l16.319,-4.662l6.411,5.245l-28.558,20.399l30.889,22.729l73.434,-10.49l33.803,14.57l26.809,-22.147l26.81,-0l54.201,22.73l39.049,-40.214l22.729,16.901l129.384,-2.914l60.03,-31.472l-20.398,-60.612l-19.816,-16.902l50.122,-176.009l-33.803,-79.845l-78.68,23.895l-9.908,36.135l10.491,-204.567l-9.325,-79.263l-25.061,-43.128l-59.447,-16.901l-111.899,127.636l-44.877,-45.46l-54.201,48.956l-25.644,-113.065l-106.072,-118.894l-67.606,-28.557Z"/>
        <g id="lines">
            <g id="lines">
                <path d="M372.656,272.121l-66.441,-144.538"/>
                <path d="M198.625,798.267l45.812,11.789l1.166,62.943"/>
                <path d="M244.437,810.056l14.57,-9.325l60.613,61.195"/>
                <path d="M259.007,800.731l1.166,-30.889l19.233,25.061l27.975,2.914l6.993,30.306l24.479,13.405"/>
                <path d="M260.173,769.842l-13.405,-14.571"/>
                <path d="M229.284,719.72l62.944,36.134l15.153,40.214"/>
                <path d="M292.228,755.854l-32.055,-99.078l25.644,-78.679l70.52,47.79l20.398,81.011l-26.226,48.373l26.226,96.164"/>
                <path d="M376.735,851.435l-22.147,-3.496l-49.538,-156.194l-47.208,-41.38"/>
                <path d="M305.05,691.745l21.564,-38.466l-39.632,-75.182l-15.153,39.048l-102.575,-163.77l29.141,-117.145l-50.122,-34.969"/>
                <path d="M198.395,336.23l43.711,-24.478l-2.914,-215.058"/>
                <path d="M242.106,311.752l38.465,48.373l79.846,-28.558l9.907,-59.446"/>
                <path d="M370.324,272.121l40.797,-26.81l-40.797,26.81Z"/>
                <path d="M278.823,357.794l48.373,247.695"/>
                <path d="M363.331,330.402l49.539,247.695"/>
                <path d="M437.348,358.96l-19.816,21.564l-2.331,264.013l-18.65,25.644l11.073,46.625l-22.729,-18.067"/>
                <path d="M396.551,670.181l43.128,32.637l10.491,-26.226l-31.472,-37.883"/>
                <path d="M450.17,676.592l18.067,4.662l-5.246,-27.392l-40.214,-15.736"/>
                <path d="M468.237,681.254l41.962,201.653"/>
                <path d="M439.096,703.401l47.208,195.825"/>
                <path d="M408.79,714.475l44.294,173.678"/>
                <path d="M419.405,756.096l-37.424,9.083l-32.638,-10.49"/>
                <path d="M445.507,861.343l-45.459,-15.153l-18.067,-81.011l1.748,-64.692"/>
                <path d="M400.048,846.19l-19.816,6.994"/>
                <path d="M380.815,898.643l33.22,-48.373"/>
                <path d="M356.92,627.636l-28.558,23.895l27.392,90.336"/>
                <path d="M416.949,382.272l39.632,30.306l26.809,-19.233l8.742,-80.428"/>
                <path d="M483.39,393.345l23.895,20.399l39.049,-15.153l2.331,-25.061l-13.405,-18.65"/>
                <path d="M507.285,413.744l-5.245,115.397l22.147,14.57l15.736,26.226l7.576,-170.181"/>
                <path d="M456.581,411.995l-10.491,176.01l30.889,-66.441l1.166,68.772l-32.055,-2.331"/>
                <path d="M478.145,590.336l27.392,27.975l43.711,-23.313l-10.491,-25.643"/>
                <path d="M500.291,529.141l-22.729,-5.246"/>
                <path d="M550.413,593.833l0.583,108.403l-22.147,61.195l-23.895,-146.286"/>
                <path d="M528.849,763.431l-7.576,20.981l32.054,23.895l50.705,-65.857l2.914,-42.546l-23.313,-32.637l-30.306,32.055"/>
                <path d="M604.032,742.45l-15.736,86.256l-36.134,-21.564"/>
                <path d="M588.296,828.706l5.828,69.937"/>
                <path d="M549.83,805.393l14.571,84.508"/>
                <path d="M520.107,785.578l17.484,92.084"/>
                <path d="M612.774,702.818l20.981,64.693l0,90.335"/>
                <path d="M633.755,767.511l50.705,-28.558l-33.22,-46.042l-24.478,51.287"/>
                <path d="M651.24,692.911l37.882,-21.564l16.902,30.889l-22.147,34.386"/>
                <path d="M684.46,737.204l-19.816,131.716l23.313,-46.042l29.723,54.201"/>
                <path d="M687.957,822.878l35.551,-19.233"/>
                <path d="M723.508,803.645l42.546,-59.447"/>
                <path d="M723.508,803.645l40.214,23.312l50.705,-50.121"/>
                <path d="M763.722,826.957l-12.239,50.705"/>
                <path d="M767.219,745.947l-67.606,30.889l5.245,-74.018"/>
                <path d="M699.613,776.836l-10.491,41.962"/>
                <path d="M777.127,745.947l36.717,-138.127l32.055,-29.723"/>
                <path d="M813.844,607.82l-29.723,-5.828l-46.042,155.028"/>
                <path d="M784.121,601.992l-7.577,-26.226l40.214,-63.527"/>
                <path d="M776.544,575.766l-33.22,-39.049"/>
                <path d="M730.502,568.772l-22.73,131.132"/>
                <path d="M708.938,244.729l-54.202,143.371l-69.937,83.342l-37.883,-1.748"/>
                <path d="M654.736,388.1l29.724,8.742l48.373,-108.985"/>
                <path d="M684.46,396.842l-25.061,288.492"/>
                <path d="M803.936,766.928l-38.465,-20.399"/>
            </g>
            <path d="M584.799,471.442l-1.166,195.825"/>
            <path d="M443.759,594.998l17.484,57.699"/>
        </g>
        <path d="M571.216,527.963l-1.165,195.825"/>
        <path d="M430.176,651.519l17.484,57.698"/>
    </g>
</svg>