<?xml version="1.0" encoding="UTF-8" standalone="no"?><!DOCTYPE svg PUBLIC "-//W3C//DTD SVG 1.1//EN" "http://www.w3.org/Graphics/SVG/1.1/DTD/svg11.dtd"><svg width="100%" height="100%" viewBox="0 0 1092 1017" version="1.1" xmlns="http://www.w3.org/2000/svg" xmlns:xlink="http://www.w3.org/1999/xlink" xml:space="preserve" xmlns:serif="http://www.serif.com/" style="fill-rule:evenodd;clip-rule:evenodd;stroke-linejoin:round;stroke-miterlimit:2;"><rect id="Artboard1" x="0" y="0" width="1091.02" height="1016.25" style="fill:none;"/><g><path d="M697.006,690.819c63.189,-0 114.491,51.302 114.491,114.491c-0,63.189 -51.302,114.491 -114.491,114.491c-63.189,-0 -114.491,-51.302 -114.491,-114.491c0,-63.189 51.302,-114.491 114.491,-114.491Zm0,46.922c37.292,0 67.569,30.277 67.569,67.569c-0,37.292 -30.277,67.568 -67.569,67.568c-37.292,0 -67.569,-30.276 -67.569,-67.568c0,-37.292 30.277,-67.569 67.569,-67.569Z" style="fill:#00ffef;"/><path d="M620.014,694.52l-1.092,-0.221l137.961,-333.44l-0,-96.795l0.006,0l-0,-21.424c-0,-4.968 1.973,-9.733 5.486,-13.246c3.513,-3.513 8.278,-5.486 13.246,-5.486c54.236,-0 207.557,-0 207.557,-0l-0,60.036l-170.695,0l0,449.602l-0.823,-0.167c-15.955,-44.044 -113.468,-93.768 -191.646,-38.859Zm64.515,13.082c6.161,-1.852 12.688,-2.846 19.446,-2.846c16.364,0 31.376,5.83 43.07,15.522l-62.516,-12.676Z" style="fill:#00ffef;"/></g><g><g><path d="M448.023,690.819c63.189,-0 114.49,51.302 114.49,114.491c0,63.189 -51.301,114.491 -114.49,114.491c-63.19,-0 -114.491,-51.302 -114.491,-114.491c-0,-63.189 51.301,-114.491 114.491,-114.491Zm-0,46.922c37.292,0 67.568,30.277 67.568,67.569c0,37.292 -30.276,67.568 -67.568,67.568c-37.293,0 -67.569,-30.276 -67.569,-67.568c-0,-37.292 30.276,-67.569 67.569,-67.569Z" style="fill:#c300ff;"/><path d="M401.178,686.211l-1.092,-0.221l286.889,-344.668l0.116,-146.569l0.006,0l0,-21.435c0,-4.962 1.974,-9.72 5.486,-13.226c3.512,-3.505 8.274,-5.47 13.236,-5.46c65.066,0.123 277.424,0.526 277.424,0.526l-0,60.036l-235.368,0l-0.576,143.643l-175.186,391.964c-41.092,-80.738 -127.578,-89.581 -170.935,-64.59Zm34.368,21.391c6.161,-1.852 12.688,-2.846 19.445,-2.846c16.364,0 31.377,5.83 43.07,15.522l-62.515,-12.676Z" style="fill:#c300ff;"/></g></g><g><path d="M203.032,691.953c63.189,0 114.49,51.302 114.49,114.491c0,63.189 -51.301,114.491 -114.49,114.491c-63.19,-0 -114.491,-51.302 -114.491,-114.491c-0,-63.189 51.301,-114.491 114.491,-114.491Zm-0,46.922c37.292,0 67.568,30.277 67.568,67.569c0,37.292 -30.276,67.569 -67.568,67.569c-37.293,-0 -67.569,-30.277 -67.569,-67.569c0,-37.292 30.276,-67.569 67.569,-67.569Z" style="fill:#ff00db;"/><path d="M156.808,685.1c-0.878,0.313 460.176,-348.894 460.176,-348.894l0.116,-209.069l0.006,0l0,-21.525c0,-4.939 1.964,-9.675 5.459,-13.164c3.495,-3.49 8.234,-5.446 13.173,-5.439c74.408,0.115 346.264,0.533 346.264,0.533l-0,56.911l-304.118,0l-0.575,196.768l-355.614,401.506l-0.823,-0.167c-17.584,-37.29 -82.68,-86.445 -164.064,-57.46Zm33.747,23.636c6.161,-1.852 12.688,-2.846 19.445,-2.846c16.364,0 31.377,5.83 43.071,15.522l-62.516,-12.676Z" style="fill:#ff00db;"/></g></svg>