<?xml version="1.0" encoding="UTF-8" standalone="no"?><!DOCTYPE svg PUBLIC "-//W3C//DTD SVG 1.1//EN" "http://www.w3.org/Graphics/SVG/1.1/DTD/svg11.dtd"><svg width="100%" height="100%" viewBox="0 0 1897 1000" version="1.1" xmlns="http://www.w3.org/2000/svg" xmlns:xlink="http://www.w3.org/1999/xlink" xml:space="preserve" xmlns:serif="http://www.serif.com/" style="fill-rule:evenodd;clip-rule:evenodd;stroke-linecap:round;stroke-linejoin:round;stroke-miterlimit:1.5;"><rect id="Artboard1" x="0" y="0" width="1896.7" height="1000" style="fill:none;"/><clipPath id="_clip1"><rect x="0" y="0" width="1896.7" height="1000"/></clipPath><g clip-path="url(#_clip1)"><g id="after"><g id="l"><path d="M1683.9,484.033c0,-2.149 -1.742,-3.892 -3.891,-3.892c-25.835,0 -172.337,0 -198.172,0c-2.149,0 -3.891,1.743 -3.891,3.892c-0,3.197 -0,7.703 -0,10.9c-0,2.149 1.742,3.892 3.891,3.892c25.835,-0 172.337,-0 198.172,-0c2.149,-0 3.891,-1.743 3.891,-3.892c0,-3.197 0,-7.703 0,-10.9Z" style="fill:#7e5ba9;"/><path d="M1613.13,310.505l-95.194,-0l24.541,174.628l95.195,0l-24.542,-174.628Z" style="fill:#7d4db3;"/><path d="M1812.08,130.484c0,-4.215 -1.674,-8.258 -4.655,-11.239c-2.981,-2.981 -7.024,-4.655 -11.239,-4.655c-75.227,-0 -394.978,-0 -470.205,-0c-4.216,-0 -8.258,1.674 -11.239,4.655c-2.981,2.981 -4.655,7.024 -4.655,11.239c-0,55.072 -0,237.356 -0,292.427c-0,4.216 1.674,8.258 4.655,11.239c2.981,2.981 7.023,4.655 11.239,4.655c75.227,0 394.978,0 470.205,0c4.215,0 8.258,-1.674 11.239,-4.655c2.981,-2.981 4.655,-7.023 4.655,-11.239c0,-55.071 0,-237.355 0,-292.427Z" style="fill:#8e61c4;"/><circle cx="1325.04" cy="121.816" r="3.064" style="fill:#a281cf;"/><path d="M1797.45,132.357c-0,-1.786 -1.448,-3.234 -3.234,-3.234c-39.429,0 -426.846,0 -466.275,0c-1.786,0 -3.234,1.448 -3.234,3.234c0,30.034 0,259.825 0,289.859c0,1.786 1.448,3.234 3.234,3.234c39.429,-0 426.846,-0 466.275,-0c1.786,-0 3.234,-1.448 3.234,-3.234c-0,-30.034 -0,-259.825 -0,-289.859Z" style="fill:#61b0c4;"/><g id="logo"><path d="M1512.39,176.365l-0,201.166l97.261,-53.329l0,-98.039l-97.261,-49.798Z" style="fill:none;stroke:#fff;stroke-width:1px;"/><circle cx="1513.17" cy="176.123" r="11.485" style="fill:#fff;"/><circle cx="1513.17" cy="225.384" r="11.485" style="fill:#fff;"/><circle cx="1609" cy="225.384" r="11.485" style="fill:#fff;"/><circle cx="1513.17" cy="378.45" r="11.485" style="fill:#fff;"/><circle cx="1513.17" cy="323.667" r="11.485" style="fill:#fff;"/><circle cx="1609" cy="323.667" r="11.485" style="fill:#fff;"/><path d="M1513.39,226.853l94.627,0l-94.627,97.19l95.445,0l-95.445,-97.19Z" style="fill:none;stroke:#fff;stroke-width:1px;"/></g></g><g id="s"><path d="M1852.12,310.035c0,-4.216 -1.675,-8.258 -4.655,-11.239c-2.981,-2.981 -7.024,-4.656 -11.239,-4.656l-132.321,0c-4.215,0 -8.258,1.675 -11.238,4.656c-2.981,2.981 -4.656,7.023 -4.656,11.239l0,292.427c0,4.215 1.675,8.258 4.656,11.239c2.98,2.98 7.023,4.655 11.238,4.655l132.321,0c4.215,0 8.258,-1.675 11.239,-4.655c2.98,-2.981 4.655,-7.024 4.655,-11.239l0,-292.427Z" style="fill:#8e61c4;"/><circle cx="1770.07" cy="602.955" r="8.133" style="fill:#a281cf;"/><circle cx="1702.97" cy="301.367" r="3.064" style="fill:#a281cf;"/><path d="M1845.86,311.908c0,-0.858 -0.341,-1.68 -0.947,-2.287c-0.606,-0.606 -1.429,-0.947 -2.287,-0.947c-19.872,0 -125.245,0 -145.117,0c-0.858,0 -1.68,0.341 -2.287,0.947c-0.606,0.607 -0.947,1.429 -0.947,2.287c0,29.103 0,245.501 0,274.604c0,0.857 0.341,1.68 0.947,2.286c0.607,0.607 1.429,0.948 2.287,0.948c19.872,-0 125.245,-0 145.117,-0c0.858,-0 1.681,-0.341 2.287,-0.948c0.606,-0.606 0.947,-1.429 0.947,-2.286c0,-29.103 0,-245.501 0,-274.604Z" style="fill:#61b0c4;"/><g id="logo1" serif:id="logo"><path d="M1740.41,382.728l-0,122.539l59.246,-32.484l-0,-59.72l-59.246,-30.335Z" style="fill:none;stroke:#fff;stroke-width:1px;"/><circle cx="1740.88" cy="382.582" r="6.996" style="fill:#fff;"/><circle cx="1740.88" cy="412.588" r="6.996" style="fill:#fff;"/><circle cx="1799.25" cy="412.588" r="6.996" style="fill:#fff;"/><circle cx="1740.88" cy="505.827" r="6.996" style="fill:#fff;"/><circle cx="1740.88" cy="472.456" r="6.996" style="fill:#fff;"/><circle cx="1799.25" cy="472.456" r="6.996" style="fill:#fff;"/><path d="M1741.01,413.483l57.642,0l-57.642,59.203l58.14,-0l-58.14,-59.203Z" style="fill:none;stroke:#fff;stroke-width:1px;"/></g></g><g id="m"><path d="M1473.53,244.897c0,-8.779 -7.116,-15.895 -15.894,-15.895c-50.92,0 -209.641,0 -260.561,0c-8.778,0 -15.895,7.116 -15.895,15.895c0,68.104 0,334.905 0,403.009c0,8.779 7.117,15.895 15.895,15.895c50.92,-0 209.641,-0 260.561,-0c8.778,-0 15.894,-7.116 15.894,-15.895c0,-68.104 0,-334.905 0,-403.009Z" style="fill:#8e61c4;"/><circle cx="1198.63" cy="239.644" r="4.108" style="fill:#a281cf;"/><path d="M1462.38,251.727c-0,-0.858 -0.341,-1.68 -0.947,-2.287c-0.607,-0.606 -1.429,-0.947 -2.287,-0.947c-28.414,-0 -235.158,-0 -263.572,-0c-0.857,-0 -1.68,0.341 -2.286,0.947c-0.607,0.607 -0.947,1.429 -0.947,2.287c-0,36.008 -0,361.294 -0,397.303c-0,0.857 0.34,1.68 0.947,2.286c0.606,0.607 1.429,0.948 2.286,0.948c28.414,-0 235.158,-0 263.572,-0c0.858,-0 1.68,-0.341 2.287,-0.948c0.606,-0.606 0.947,-1.429 0.947,-2.286c-0,-36.009 -0,-361.295 -0,-397.303Z" style="fill:#61b0c4;"/><g id="logo2" serif:id="logo"><path d="M1287.58,367.934l0,164.335l79.454,-43.565l0,-80.089l-79.454,-40.681Z" style="fill:none;stroke:#fff;stroke-width:1px;"/><circle cx="1288.22" cy="367.737" r="9.382" style="fill:#fff;"/><circle cx="1288.22" cy="407.979" r="9.382" style="fill:#fff;"/><circle cx="1366.5" cy="407.979" r="9.382" style="fill:#fff;"/><circle cx="1288.22" cy="533.019" r="9.382" style="fill:#fff;"/><circle cx="1288.22" cy="488.266" r="9.382" style="fill:#fff;"/><circle cx="1366.5" cy="488.266" r="9.382" style="fill:#fff;"/><path d="M1288.4,409.179l77.301,-0l-77.301,79.395l77.969,-0l-77.969,-79.395Z" style="fill:none;stroke:#fff;stroke-width:1px;"/></g></g></g><g id="before"><g id="l1" serif:id="l"><path d="M151.345,140.066l0.186,-18.837c0.938,-5.077 3.95,-7.981 9.323,-8.413l46.827,1.878l115.978,-20.068c1.927,-2.102 4.614,-3.914 8.357,-5.324l40.075,-0.133c31.447,-5.085 63.125,-5.305 95.045,-0.455c35.496,5.38 70.401,12.964 104.596,23.193l11.369,0.227c9.841,0.664 10.007,9.603 7.503,9.778l-7.958,1.364c4.728,1.859 8.187,4.141 9.721,7.065l0.056,13.626c0.29,1.679 -0.434,2.906 -2.273,3.639l-19.555,7.048l-12.961,139.158c-0.333,3.714 -2.326,7.427 -5.912,11.141c-5.376,81.175 -15.088,162.351 -29.559,243.526c-1.594,3.805 -3.532,6.834 -5.912,8.867c-3.555,3.26 -8.591,6.519 -15.69,9.778c-6.5,0.053 -13.403,-1.102 -20.691,-3.411l-15.007,7.504c-3.792,0.003 -6.993,-1.371 -9.604,-4.123c-3.174,1.668 -8.782,2.757 -16.091,3.441l-8.002,-0.207l-3.697,27.194c-1.171,2.381 -3.955,7.884 -8.083,10.758c-8.744,7.267 -22.353,8.589 -37.745,7.731c-18.401,-5.93 -35.941,-13.079 -51.388,-23.193c-2.259,-3.254 -3.593,-6.714 -3.638,-10.46l-0.03,-9.223l-12.704,-9.422l-0.733,-25.99l-1.893,0.019c-0.703,9.175 -4.302,18.235 -18.293,26.426c-13.908,4.845 -26.942,2.56 -38.882,-8.641c-8.23,-8.704 -15.413,-18.937 -17.963,-35.926c-1.385,-11.281 -3.167,-22.457 5.457,-36.381c1.973,-2.653 4.401,-5.305 8.186,-7.958c3.54,-2.468 7.348,-4.337 11.596,-5.23l-2.728,-6.594l-13.643,-169.399l-11.369,-17.736l-8.796,-96.644c-15.907,-10.901 -29.637,-22.593 -39.409,-33.645l-34.066,-5.948Z" style="fill:#8e61c4;stroke:#fff;stroke-width:4.17px;"/><path d="M264.761,515.081c1.974,-1.049 4.734,0.275 6.158,2.955c1.424,2.68 0.978,5.708 -0.997,6.757c-1.975,1.05 -4.734,-0.274 -6.159,-2.954c-1.424,-2.68 -0.977,-5.708 0.998,-6.758Z" style="fill:#8e61c4;stroke:#fff;stroke-width:4.17px;"/><path d="M247.627,476.868c27.473,-21.714 77.103,77.619 37.202,89.322" style="fill:none;stroke:#fff;stroke-width:4.17px;"/><path d="M270.102,479.586c-31.102,-10.545 -32.547,39.888 -15.435,63.22c9.717,13.249 33.855,26.329 45.069,-2.597" style="fill:none;stroke:#fff;stroke-width:4.17px;"/><path d="M262.069,469.612c24.302,4.894 46.291,20.275 62.309,62.723" style="fill:none;stroke:#fff;stroke-width:4.17px;"/><path d="M311.337,535.44c1.243,-15.947 -1.774,-29.273 -7.708,-40.805" style="fill:none;stroke:#fff;stroke-width:4.17px;"/><path d="M460.589,177.731l-0.207,55.685l23.806,-22.149l54.443,-11.179l0.621,12.007l19.666,-18.01l-20.287,6.003" style="fill:none;stroke:#fff;stroke-width:4.17px;"/><path d="M552.087,159.308l1.449,18.216l6.624,14.491" style="fill:none;stroke:#fff;stroke-width:4.17px;"/><path d="M475.287,174.419l3.933,25.462l5.175,8.901" style="fill:none;stroke:#fff;stroke-width:4.17px;"/><path d="M478.182,193.163l4.971,-0.113l8.073,9.936l22.15,-5.382l1.671,-9.522l9.729,8.28l0.454,4.877" style="fill:none;stroke:#fff;stroke-width:4.17px;"/><path d="M513.376,197.604l10.266,3.635" style="fill:none;stroke:#fff;stroke-width:4.17px;"/><path d="M523.934,194.913l26.954,-5.165l-3.273,-10.692l4.886,-0.704" style="fill:none;stroke:#fff;stroke-width:4.17px;"/><path d="M546.219,159.517l1.396,19.539" style="fill:none;stroke:#fff;stroke-width:4.17px;"/><path d="M481.418,173.012l2.202,20.289" style="fill:none;stroke:#fff;stroke-width:4.17px;"/><path d="M201.24,123.542c48.988,-12.72 100.059,-21.6 181.144,24.84" style="fill:none;stroke:#fff;stroke-width:4.17px;"/><path d="M368.167,153.1l14.217,-4.718c13.845,1.335 28.09,1.668 43.031,0.261c50.392,-7.315 101.059,-16.242 152.548,-29.961c0.187,-2.325 -2.107,-5.131 -6.679,-6.676" style="fill:none;stroke:#fff;stroke-width:4.17px;"/><path d="M185.411,146.014l188.794,34.834l63.318,0.328l132.87,-27.558" style="fill:none;stroke:#fff;stroke-width:4.17px;"/><path d="M154.723,116.217l211.608,43.962" style="fill:none;stroke:#fff;stroke-width:4.17px;"/><path d="M367.643,152.961l0,11.476c61.042,14.885 177.687,-19.908 220.138,-33.785" style="fill:none;stroke:#fff;stroke-width:4.17px;"/><path d="M367.643,152.961c19.376,1.03 39.336,3.229 56.946,0.727c52.754,-6.196 106.592,-14.661 158.547,-30.457" style="fill:none;stroke:#fff;stroke-width:4.17px;"/><path d="M243.506,108.658l118.508,-3.463l80.597,-12.824l-73.108,0.187l-69.453,14.448" style="fill:none;stroke:#fff;stroke-width:4.17px;"/><path d="M324.009,94.898l37.882,0" style="fill:none;stroke:#fff;stroke-width:4.17px;"/><path d="M233.316,274.05c40.622,19.615 76.291,89.204 96.464,315.161" style="fill:none;stroke:#fff;stroke-width:4.17px;"/><path d="M272.53,315.409l111.228,28.638c21.428,3.34 42.069,2.348 61.639,-4.527l104.126,-35.173" style="fill:none;stroke:#fff;stroke-width:4.17px;"/><path d="M507.684,318.48l-3.085,46.113l-51.888,18.109" style="fill:none;stroke:#fff;stroke-width:4.17px;"/><path d="M516.788,366.335l-12.189,-1.742" style="fill:none;stroke:#fff;stroke-width:4.17px;"/><path d="M454.686,336.382l-3.02,49.454l2.786,5.572l61.987,-22.636l6.617,-9.751l2.089,-45.968" style="fill:none;stroke:#fff;stroke-width:4.17px;"/><path d="M500.072,565.879l17.76,-179.694l-67.559,23.68l-18.805,157.755" style="fill:none;stroke:#fff;stroke-width:4.17px;"/><path d="M503.978,526.359l-18.532,-7.145l9.402,-124.672" style="fill:none;stroke:#fff;stroke-width:4.17px;"/><path d="M435.647,542.895l22.287,-13.582l9.403,-0.348l17.76,-10.099" style="fill:none;stroke:#fff;stroke-width:4.17px;"/><path d="M434.254,555.432l5.92,2.437c29.615,-8.329 50.481,-18.602 63.38,-30.645" style="fill:none;stroke:#fff;stroke-width:4.17px;"/><path d="M439.477,567.62l0.697,-9.751" style="fill:none;stroke:#fff;stroke-width:4.17px;"/><path d="M439.477,567.62c19.034,-2.804 39.587,-10.545 62.336,-25.422" style="fill:none;stroke:#fff;stroke-width:4.17px;"/><path d="M480.222,563.063l0.158,-7.849" style="fill:none;stroke:#fff;stroke-width:4.17px;"/></g><path d="M7.572,357.532l1.368,36.929c-7.966,2.842 -9.711,5.126 -3.398,11.792l7.821,7.611c4.614,81.087 9.04,164.705 13.357,249.356c37.686,50.794 142.544,73.281 220.765,1.928c7.557,15.26 29.843,36.662 42.523,37.736c32.672,2.766 43.924,-0.762 59.702,-11.327c69.147,-46.298 18.634,-230.238 -52.863,-232.813c-13.129,-2.884 -26.687,-1.905 -41.032,6.155l1.414,-44.797c8.201,-8.117 8.574,-15.977 0.638,-16.605l1.299,-37.631c12.735,-2.793 12.932,-13.892 6.223,-23.379c-12.108,-7.913 -25.769,-7.547 -38.98,-9.574c-3.199,-2.555 -6.787,-3.686 -10.942,-2.736l0.762,-11.163l13.027,-18.644l-11.592,-8.964l-15.179,19.601l-17.568,8.007l-5.259,6.095l-30.596,-48.403l-12.19,-0.12l-12.907,7.53l-4.303,-5.02l-9.203,5.378l3.466,6.932l-3.346,2.39l7.41,15.896c-16.648,-5.341 -25.502,-2.109 -29.401,6.573c7.028,-0.309 15.163,-1.404 24.62,7.051c0,0 -0.994,2.831 -4.9,-0.239c-7.246,0.42 -18.065,-0.054 -29.161,-0.597c-3.005,-2.305 -6.737,-3.54 -15.179,2.151c-4.984,-2.274 -9.795,-1.272 -14.461,2.51c-16.778,0.52 -33.143,2.808 -47.686,12.907c-4.764,7.313 -3.827,13.359 5.751,17.484Z" style="fill:#8e61c4;"/><clipPath id="_clip2"><path d="M7.572,357.532l1.368,36.929c-7.966,2.842 -9.711,5.126 -3.398,11.792l7.821,7.611c4.614,81.087 9.04,164.705 13.357,249.356c37.686,50.794 142.544,73.281 220.765,1.928c7.557,15.26 29.843,36.662 42.523,37.736c32.672,2.766 43.924,-0.762 59.702,-11.327c69.147,-46.298 18.634,-230.238 -52.863,-232.813c-13.129,-2.884 -26.687,-1.905 -41.032,6.155l1.414,-44.797c8.201,-8.117 8.574,-15.977 0.638,-16.605l1.299,-37.631c12.735,-2.793 12.932,-13.892 6.223,-23.379c-12.108,-7.913 -25.769,-7.547 -38.98,-9.574c-3.199,-2.555 -6.787,-3.686 -10.942,-2.736l0.762,-11.163l13.027,-18.644l-11.592,-8.964l-15.179,19.601l-17.568,8.007l-5.259,6.095l-30.596,-48.403l-12.19,-0.12l-12.907,7.53l-4.303,-5.02l-9.203,5.378l3.466,6.932l-3.346,2.39l7.41,15.896c-16.648,-5.341 -25.502,-2.109 -29.401,6.573c7.028,-0.309 15.163,-1.404 24.62,7.051c0,0 -0.994,2.831 -4.9,-0.239c-7.246,0.42 -18.065,-0.054 -29.161,-0.597c-3.005,-2.305 -6.737,-3.54 -15.179,2.151c-4.984,-2.274 -9.795,-1.272 -14.461,2.51c-16.778,0.52 -33.143,2.808 -47.686,12.907c-4.764,7.313 -3.827,13.359 5.751,17.484Z"/></clipPath><g clip-path="url(#_clip2)"><path d="M277.236,494.349c-25.666,39.645 -12.744,135.706 45.938,160.597" style="fill:none;stroke:#fff;stroke-width:4.17px;"/><path d="M301.885,520.867l14.753,-2.988l1.867,14.192l10.458,6.723l8.03,43.697l-5.603,16.06l2.428,11.951l-13.819,4.295l-2.988,-14.379l5.042,-14.939l-7.656,-40.523l-10.084,-9.71l-2.428,-14.379Z" style="fill:none;stroke:#fff;stroke-width:4.17px;"/><path d="M314.397,544.956l15.012,-3.733" style="fill:none;stroke:#fff;stroke-width:4.17px;"/><path d="M336.806,581.744l-13.819,2.801" style="fill:none;stroke:#fff;stroke-width:4.17px;"/><path d="M296.847,458.744c-75.398,0.594 -115.939,97.278 -49.922,205.843" style="fill:none;stroke:#fff;stroke-width:4.17px;"/><path d="M296.847,458.744c-112.4,9.285 -55.92,250.533 45.374,236.266" style="fill:none;stroke:#fff;stroke-width:4.17px;"/><path d="M12.198,411.957c94.981,37.049 149.238,36.668 244.874,6.051" style="fill:none;stroke:#fff;stroke-width:4.17px;"/><path d="M256.846,400.356c-59.781,21.501 -130.87,41.419 -247.434,-4.774" style="fill:none;stroke:#fff;stroke-width:4.17px;"/><path d="M235.679,644.496c-0.182,17.004 -1.662,18.86 -12.995,18.661c-14.995,0.422 -14.083,-4.137 -14.224,-48.873l-0,-163.034c0.418,-12.553 24.14,-18.449 25.531,-1.823l-0,40.748" style="fill:none;stroke:#fff;stroke-width:4.17px;"/><path d="M7.633,357.55c23.139,10.945 53.741,19.941 96.179,20.303" style="fill:none;stroke:#fff;stroke-width:4.17px;"/><path d="M259.967,365.438c-46.395,11.19 -95.592,14.824 -142.948,11.862" style="fill:none;stroke:#fff;stroke-width:4.17px;"/><path d="M4.65,340.045c10.137,16.232 59.079,23.233 95.157,24.79" style="fill:none;stroke:#fff;stroke-width:4.17px;"/><path d="M119.706,365.981c37.817,1.66 71.353,0.669 101.078,-5.141" style="fill:none;stroke:#fff;stroke-width:4.17px;"/><path d="M228.35,359.198c12.802,-1.496 33.263,-3.776 37.372,-14.659" style="fill:none;stroke:#fff;stroke-width:4.17px;"/><path d="M66.966,646.88l-0.583,-194.949c-1.046,-15.598 -27.742,-15.24 -27.428,-0.875l1.751,192.614c-0.584,14.56 25.385,19.777 26.26,3.21Z" style="fill:none;stroke:#fff;stroke-width:4.17px;"/><path d="M110.151,670.608l-0.583,-211.136c-1.045,-16.893 -27.742,-16.505 -27.428,-0.948l1.751,208.607c-0.584,15.769 25.385,21.419 26.26,3.477Z" style="fill:none;stroke:#fff;stroke-width:4.17px;"/><path d="M148.643,674.363l-0.584,-211.136c-1.045,-16.893 -27.741,-16.505 -27.427,-0.948l1.75,208.608c-0.583,15.768 25.385,21.419 26.261,3.476Z" style="fill:none;stroke:#fff;stroke-width:4.17px;"/><path d="M193.706,671.546l-0.584,-211.135c-1.045,-16.893 -27.742,-16.505 -27.428,-0.948l1.751,208.607c-0.583,15.769 25.385,21.419 26.261,3.476Z" style="fill:none;stroke:#fff;stroke-width:4.17px;"/><path d="M48.876,444.594l2.042,208.04" style="fill:none;stroke:#fff;stroke-width:4.17px;"/><path d="M92.351,450.137l0,229.05" style="fill:none;stroke:#fff;stroke-width:4.17px;"/><path d="M133.201,453.639l-0.584,229.049" style="fill:none;stroke:#fff;stroke-width:4.17px;"/><path d="M176.093,449.554l0.875,229.341" style="fill:none;stroke:#fff;stroke-width:4.17px;"/><path d="M257.146,433.187c-16.771,0.06 -15.237,4.414 -14.767,47.14" style="fill:none;stroke:#fff;stroke-width:4.17px;"/><path d="M214.372,329.705l-0.277,13.003l-11.066,19.504" style="fill:none;stroke:#fff;stroke-width:4.17px;"/><path d="M182.142,325.002l15.354,8.3l-19.227,32.23" style="fill:none;stroke:#fff;stroke-width:4.17px;"/><path d="M182.142,325.002l-14.386,23.101" style="fill:none;stroke:#fff;stroke-width:4.17px;"/><path d="M180.897,359.722c-14.268,-17.166 -39.172,-14.464 -50.074,4.427" style="fill:none;stroke:#fff;stroke-width:4.17px;"/><path d="M215.063,333.717c9.662,2.342 22.456,8.095 19.781,18.397c-0.551,2.123 -2.073,3.276 -4.565,3.458c-1.152,-6.04 -3.781,-9.129 -7.884,-9.267c6.294,7.386 5.925,13.316 0.415,18.12c-0.099,-8.339 -2.483,-14.392 -8.853,-16.461" style="fill:none;stroke:#fff;stroke-width:4.17px;"/><path d="M117.127,381.424c-4.727,-15.377 7.235,-30.069 25.497,-44.501l-19.241,7.437l0.709,-9.326c-24.333,18.545 -32.209,46.613 -6.965,46.39Z" style="fill:none;stroke:#fff;stroke-width:4.17px;"/><path d="M146.519,349.553c-0.756,-14.525 0.973,-26.883 12.512,-30.69c-3.023,-2.941 -9.607,-3.983 -22.073,-1.888c-4.566,4.221 -6.255,10.061 -5.784,17.115c-1.945,-10.81 -4.625,-19.289 -11.922,-23.489" style="fill:none;stroke:#fff;stroke-width:4.17px;"/><path d="M113.94,324.175c3.363,3.262 6.634,6.651 6.847,11.804" style="fill:none;stroke:#fff;stroke-width:4.17px;"/><path d="M98.477,362.537c1.889,-13.152 -0.432,-20.292 -9.561,-17.705c-0.531,-10.378 -9.974,-10.004 -14.873,1.18" style="fill:none;stroke:#fff;stroke-width:4.17px;"/><path d="M87.756,340.109c-8.634,-17.371 -37.343,-13.082 -30.238,18.887" style="fill:none;stroke:#fff;stroke-width:4.17px;"/><path d="M33.792,354.511c-0.033,-25.022 16.482,-29.886 27.348,-19.536" style="fill:none;stroke:#fff;stroke-width:4.17px;"/><path d="M87.736,324.411c-3.271,1.535 -3.261,3.069 0.708,4.604c3.403,-1.292 6.474,-0.837 8.617,4.485c1.362,-4.928 3.713,-6.561 6.964,-5.194c-0.377,5.251 2.736,8.915 12.748,9.443" style="fill:none;stroke:#fff;stroke-width:4.17px;"/><path d="M65.427,325.591c3.127,0.289 3.641,1.127 3.305,4.25" style="fill:none;stroke:#fff;stroke-width:4.17px;"/><path d="M115.057,291.739l9.428,-6.406" style="fill:none;stroke:#fff;stroke-width:4.17px;"/><path d="M137.539,278.081l36.02,57.655" style="fill:none;stroke:#fff;stroke-width:4.17px;"/></g><path d="M7.572,357.532l1.368,36.929c-7.966,2.842 -9.711,5.126 -3.398,11.792l7.821,7.611c4.614,81.087 9.04,164.705 13.357,249.356c37.686,50.794 142.544,73.281 220.765,1.928c7.557,15.26 29.843,36.662 42.523,37.736c32.672,2.766 43.924,-0.762 59.702,-11.327c69.147,-46.298 18.634,-230.238 -52.863,-232.813c-13.129,-2.884 -26.687,-1.905 -41.032,6.155l1.414,-44.797c8.201,-8.117 8.574,-15.977 0.638,-16.605l1.299,-37.631c12.735,-2.793 12.932,-13.892 6.223,-23.379c-12.108,-7.913 -25.769,-7.547 -38.98,-9.574c-3.199,-2.555 -6.787,-3.686 -10.942,-2.736l0.762,-11.163l13.027,-18.644l-11.592,-8.964l-15.179,19.601l-17.568,8.007l-5.259,6.095l-30.596,-48.403l-12.19,-0.12l-12.907,7.53l-4.303,-5.02l-9.203,5.378l3.466,6.932l-3.346,2.39l7.41,15.896c-16.648,-5.341 -25.502,-2.109 -29.401,6.573c7.028,-0.309 15.163,-1.404 24.62,7.051c0,0 -0.994,2.831 -4.9,-0.239c-7.246,0.42 -18.065,-0.054 -29.161,-0.597c-3.005,-2.305 -6.737,-3.54 -15.179,2.151c-4.984,-2.274 -9.795,-1.272 -14.461,2.51c-16.778,0.52 -33.143,2.808 -47.686,12.907c-4.764,7.313 -3.827,13.359 5.751,17.484Z" style="fill:none;stroke:#fff;stroke-width:4.17px;"/><g><path d="M548.765,447.996l0,272.999l147.715,0l0,-273.62c-36.363,22.901 -112.729,25.029 -147.715,0.621Z" style="fill:none;stroke:#fff;stroke-width:4.17px;"/><path d="M548.765,447.996l0,272.999c38.109,33.119 105.82,33.809 147.715,0l0,-273.62c-7.912,-29.826 -147.283,-21.684 -147.715,0.621Z" style="fill:#8e61c4;stroke:#fff;stroke-width:4.17px;"/><path d="M548.642,447.387c6.428,25.133 144.35,21.868 147.685,-0.459" style="fill:none;stroke:#fff;stroke-width:4.17px;"/><path d="M553.26,439.987c15.393,17.527 109.301,19.524 136.933,0.275" style="fill:none;stroke:#fff;stroke-width:4.17px;"/><path d="M679.05,434.021c11.806,1.41 15.651,7.07 17.784,13.448c13.144,-0.134 14.18,-10.298 14.196,-33.093c-10.77,6.821 -12.01,7.996 -28.882,10.085c3.049,1.458 -0.546,8.956 -3.098,9.56Z" style="fill:#8e61c4;stroke:#fff;stroke-width:4.17px;"/><path d="M711.532,413.853c29.374,-19.721 25.443,-51.584 -10.454,-95.101c-36.815,-38.888 -67.55,-53.154 -90.767,-36.97c-19.633,17.178 -29.966,41.256 -7.394,89.747c24.148,36.805 50.812,57.108 81.079,53.798" style="fill:#8e61c4;stroke:#fff;stroke-width:4.17px;"/><path d="M682.148,424.461c-70.08,-25.094 -98.982,-93.986 -76.681,-127.381c23.295,-34.884 146.09,49.244 106.065,116.773c-8.35,8.593 -18.315,11.534 -29.384,10.608Z" style="fill:#8e61c4;stroke:#fff;stroke-width:4.17px;"/><path d="M683.996,425.327c12.724,0.784 21.61,-3.42 27.536,-11.474" style="fill:#8e61c4;stroke:#fff;stroke-width:4.17px;"/><path d="M579.382,738.735l-7.239,1.939l-5.392,5.761l-24.933,-15.665l5.866,-6.181l5.426,-0.062l26.272,14.208Z" style="fill:#8e61c4;stroke:#fff;stroke-width:4.17px;"/><path d="M581.714,726.073l-2,13.15l-25.667,-14.218l0.794,-11.894l26.873,12.962Z" style="fill:none;stroke:#fff;stroke-width:4.17px;"/></g></g><g><path d="M98.906,901.192c2.375,0.933 4.313,2.355 5.815,4.266c1.501,1.911 2.252,4.378 2.252,7.4c-0,5.289 -1.524,8.978 -4.571,11.067c-3.048,2.089 -6.677,3.133 -10.89,3.133l-16.737,0c-1.165,0 -2.14,-0.389 -2.924,-1.166c-0.784,-0.778 -1.176,-1.745 -1.176,-2.9l-0,-38.534c-0,-1.155 0.392,-2.122 1.176,-2.9c0.784,-0.778 1.759,-1.166 2.924,-1.166l16.939,-0c8.514,-0 12.771,3.955 12.771,11.866c0,2 -0.481,3.767 -1.445,5.3c-0.963,1.534 -2.341,2.745 -4.134,3.634Zm-3.159,-7.467c0,-1.822 -0.459,-3.189 -1.378,-4.1c-0.919,-0.911 -2.207,-1.367 -3.865,-1.367l-11.091,0l0,10.4l11.293,0c1.344,0 2.52,-0.444 3.529,-1.333c1.008,-0.889 1.512,-2.089 1.512,-3.6Zm-4.235,25.667c2.106,-0 3.753,-0.556 4.941,-1.667c1.187,-1.111 1.781,-2.733 1.781,-4.867c0,-2.622 -0.694,-4.333 -2.084,-5.133c-1.389,-0.8 -3.092,-1.2 -5.108,-1.2l-11.629,-0l0,12.867l12.099,-0Z" style="fill:#fff;fill-rule:nonzero;"/><path d="M146.228,908.392c-0.045,1.066 -0.471,1.933 -1.277,2.6c-0.807,0.666 -1.748,1 -2.823,1l-22.182,-0c0.537,2.622 1.77,4.677 3.697,6.166c1.927,1.489 4.1,2.234 6.52,2.234c1.837,-0 3.271,-0.167 4.302,-0.5c1.03,-0.334 1.848,-0.689 2.453,-1.067c0.605,-0.378 1.02,-0.633 1.244,-0.767c0.806,-0.4 1.568,-0.6 2.285,-0.6c0.941,0 1.748,0.334 2.42,1c0.672,0.667 1.008,1.445 1.008,2.334c0,1.2 -0.627,2.288 -1.882,3.266c-1.255,1.022 -2.935,1.889 -5.041,2.6c-2.106,0.711 -4.235,1.067 -6.386,1.067c-3.764,-0 -7.047,-0.778 -9.847,-2.333c-2.801,-1.556 -4.963,-3.7 -6.487,-6.434c-1.524,-2.733 -2.285,-5.811 -2.285,-9.233c-0,-3.822 0.806,-7.178 2.42,-10.067c1.613,-2.889 3.741,-5.1 6.385,-6.633c2.644,-1.533 5.467,-2.3 8.47,-2.3c2.957,-0 5.747,0.8 8.368,2.4c2.622,1.6 4.717,3.755 6.285,6.467c1.569,2.711 2.353,5.644 2.353,8.8Zm-17.006,-10.334c-5.198,0 -8.268,2.422 -9.209,7.267l17.611,-0l0,-0.467c-0.179,-1.866 -1.098,-3.466 -2.756,-4.8c-1.658,-1.333 -3.54,-2 -5.646,-2Z" style="fill:#fff;fill-rule:nonzero;"/><path d="M170.225,884.792c-1.524,-0 -2.599,0.433 -3.227,1.3c-0.627,0.866 -0.941,1.811 -0.941,2.833l0,3.133l6.117,0c1.076,0 1.972,0.345 2.689,1.034c0.717,0.688 1.075,1.566 1.075,2.633c0,1.067 -0.358,1.944 -1.075,2.633c-0.717,0.689 -1.613,1.034 -2.689,1.034l-6.117,-0l0,23.6c0,1.155 -0.381,2.122 -1.142,2.9c-0.762,0.777 -1.726,1.166 -2.891,1.166c-1.165,0 -2.128,-0.389 -2.89,-1.166c-0.762,-0.778 -1.143,-1.745 -1.143,-2.9l0,-23.6l-3.63,-0c-1.075,-0 -1.971,-0.345 -2.688,-1.034c-0.717,-0.689 -1.076,-1.566 -1.076,-2.633c0,-1.067 0.359,-1.945 1.076,-2.633c0.717,-0.689 1.613,-1.034 2.688,-1.034l3.63,0l0,-3.066c0,-3.334 1.154,-6.045 3.462,-8.134c2.308,-2.089 5.635,-3.133 9.982,-3.133c1.658,-0 3.103,0.333 4.335,1c1.233,0.667 1.849,1.689 1.849,3.067c-0,1.066 -0.314,1.933 -0.941,2.6c-0.628,0.666 -1.389,1 -2.286,1c-0.224,-0 -0.459,-0.023 -0.705,-0.067c-0.247,-0.045 -0.505,-0.089 -0.773,-0.133c-1.076,-0.267 -1.972,-0.4 -2.689,-0.4Z" style="fill:#fff;fill-rule:nonzero;"/><path d="M215.53,909.258c-0,3.556 -0.807,6.745 -2.42,9.567c-1.613,2.822 -3.82,5.011 -6.621,6.567c-2.801,1.555 -5.882,2.333 -9.242,2.333c-3.406,-0 -6.498,-0.778 -9.277,-2.333c-2.778,-1.556 -4.974,-3.745 -6.587,-6.567c-1.613,-2.822 -2.42,-6.011 -2.42,-9.567c0,-3.555 0.807,-6.744 2.42,-9.566c1.613,-2.823 3.809,-5.023 6.587,-6.6c2.779,-1.578 5.871,-2.367 9.277,-2.367c3.36,-0 6.441,0.789 9.242,2.367c2.801,1.577 5.008,3.777 6.621,6.6c1.613,2.822 2.42,6.011 2.42,9.566Zm-8.066,0c-0,-2.178 -0.46,-4.122 -1.378,-5.833c-0.919,-1.711 -2.151,-3.033 -3.697,-3.967c-1.546,-0.933 -3.26,-1.4 -5.142,-1.4c-1.883,0 -3.597,0.467 -5.143,1.4c-1.546,0.934 -2.778,2.256 -3.697,3.967c-0.918,1.711 -1.378,3.655 -1.378,5.833c0,2.178 0.46,4.111 1.378,5.8c0.919,1.689 2.151,3 3.697,3.934c1.546,0.933 3.26,1.4 5.143,1.4c1.882,-0 3.596,-0.467 5.142,-1.4c1.546,-0.934 2.778,-2.245 3.697,-3.934c0.918,-1.689 1.378,-3.622 1.378,-5.8Z" style="fill:#fff;fill-rule:nonzero;"/><path d="M240.938,890.725c1.345,-0 2.476,0.378 3.395,1.133c0.919,0.756 1.378,1.645 1.378,2.667c-0,1.378 -0.359,2.411 -1.076,3.1c-0.717,0.689 -1.568,1.033 -2.554,1.033c-0.672,0 -1.434,-0.155 -2.285,-0.466c-0.135,-0.045 -0.437,-0.134 -0.908,-0.267c-0.47,-0.133 -0.974,-0.2 -1.512,-0.2c-1.165,-0 -2.286,0.355 -3.361,1.067c-1.076,0.711 -1.961,1.788 -2.655,3.233c-0.695,1.444 -1.042,3.167 -1.042,5.167l-0,15.8c-0,1.155 -0.381,2.122 -1.143,2.9c-0.762,0.777 -1.725,1.166 -2.89,1.166c-1.165,0 -2.129,-0.389 -2.891,-1.166c-0.761,-0.778 -1.142,-1.745 -1.142,-2.9l-0,-27.534c-0,-1.155 0.381,-2.122 1.142,-2.9c0.762,-0.778 1.726,-1.166 2.891,-1.166c1.165,-0 2.128,0.388 2.89,1.166c0.762,0.778 1.143,1.745 1.143,2.9l-0,0.867c1.031,-1.822 2.509,-3.211 4.436,-4.167c1.927,-0.955 3.989,-1.433 6.184,-1.433Z" style="fill:#fff;fill-rule:nonzero;"/><path d="M282.21,908.392c-0.044,1.066 -0.47,1.933 -1.277,2.6c-0.806,0.666 -1.747,1 -2.823,1l-22.182,-0c0.538,2.622 1.77,4.677 3.697,6.166c1.927,1.489 4.1,2.234 6.52,2.234c1.837,-0 3.271,-0.167 4.302,-0.5c1.031,-0.334 1.849,-0.689 2.454,-1.067c0.605,-0.378 1.019,-0.633 1.243,-0.767c0.807,-0.4 1.569,-0.6 2.286,-0.6c0.941,0 1.747,0.334 2.419,1c0.673,0.667 1.009,1.445 1.009,2.334c-0,1.2 -0.628,2.288 -1.882,3.266c-1.255,1.022 -2.936,1.889 -5.042,2.6c-2.106,0.711 -4.235,1.067 -6.386,1.067c-3.764,-0 -7.046,-0.778 -9.847,-2.333c-2.801,-1.556 -4.963,-3.7 -6.487,-6.434c-1.523,-2.733 -2.285,-5.811 -2.285,-9.233c0,-3.822 0.807,-7.178 2.42,-10.067c1.613,-2.889 3.742,-5.1 6.386,-6.633c2.644,-1.533 5.467,-2.3 8.469,-2.3c2.958,-0 5.747,0.8 8.369,2.4c2.621,1.6 4.716,3.755 6.285,6.467c1.568,2.711 2.352,5.644 2.352,8.8Zm-17.006,-10.334c-5.198,0 -8.268,2.422 -9.209,7.267l17.611,-0l0,-0.467c-0.179,-1.866 -1.098,-3.466 -2.756,-4.8c-1.658,-1.333 -3.54,-2 -5.646,-2Z" style="fill:#fff;fill-rule:nonzero;"/><path d="M316.828,922.992c-0,1.155 -0.426,2.122 -1.277,2.9c-0.852,0.777 -1.838,1.166 -2.958,1.166c-1.21,0 -2.207,-0.389 -2.991,-1.166c-0.784,-0.778 -1.177,-1.745 -1.177,-2.9l0,-38.534c0,-1.155 0.404,-2.122 1.21,-2.9c0.807,-0.778 1.838,-1.166 3.092,-1.166c1.121,-0 2.084,0.388 2.891,1.166c0.806,0.778 1.21,1.745 1.21,2.9l-0,38.534Z" style="fill:#fff;fill-rule:nonzero;"/><path d="M345.463,890.725c4.57,-0 7.73,1.344 9.477,4.033c1.748,2.689 2.622,6.411 2.622,11.167l-0,17.067c-0,1.155 -0.381,2.122 -1.143,2.9c-0.762,0.777 -1.725,1.166 -2.89,1.166c-1.165,0 -2.129,-0.389 -2.891,-1.166c-0.761,-0.778 -1.142,-1.745 -1.142,-2.9l-0,-17.067c-0,-2.445 -0.516,-4.367 -1.546,-5.767c-1.031,-1.4 -2.801,-2.1 -5.311,-2.1c-2.599,0 -4.638,0.745 -6.116,2.234c-1.479,1.488 -2.219,3.366 -2.219,5.633l0,17.067c0,1.155 -0.38,2.122 -1.142,2.9c-0.762,0.777 -1.726,1.166 -2.891,1.166c-1.165,0 -2.128,-0.389 -2.89,-1.166c-0.762,-0.778 -1.143,-1.745 -1.143,-2.9l0,-27.534c0,-1.155 0.381,-2.122 1.143,-2.9c0.762,-0.778 1.725,-1.166 2.89,-1.166c1.165,-0 2.129,0.388 2.891,1.166c0.762,0.778 1.142,1.745 1.142,2.9l0,1.134c1.21,-1.6 2.79,-2.978 4.739,-4.134c1.95,-1.155 4.089,-1.733 6.42,-1.733Z" style="fill:#fff;fill-rule:nonzero;"/><path d="M364.217,921.525c-0.404,-0.533 -0.605,-1.2 -0.605,-2c-0,-1.156 0.582,-2.133 1.747,-2.933c0.628,-0.4 1.277,-0.6 1.95,-0.6c0.941,-0 1.837,0.422 2.688,1.266c1.345,1.378 2.745,2.4 4.201,3.067c1.457,0.667 3.216,1 5.277,1c3.495,-0.133 5.243,-1.445 5.243,-3.933c0,-1.289 -0.594,-2.267 -1.781,-2.934c-1.188,-0.666 -3.036,-1.333 -5.546,-2c-2.599,-0.711 -4.716,-1.422 -6.352,-2.133c-1.635,-0.711 -3.047,-1.789 -4.235,-3.233c-1.187,-1.445 -1.781,-3.389 -1.781,-5.834c0,-2.133 0.616,-3.989 1.849,-5.566c1.232,-1.578 2.845,-2.8 4.839,-3.667c1.994,-0.867 4.112,-1.3 6.352,-1.3c2.286,-0 4.571,0.422 6.857,1.267c2.285,0.844 4.078,2.088 5.377,3.733c0.583,0.711 0.874,1.511 0.874,2.4c0,1.022 -0.426,1.867 -1.277,2.533c-0.628,0.489 -1.345,0.734 -2.151,0.734c-0.986,-0 -1.793,-0.312 -2.42,-0.934c-0.807,-0.978 -1.848,-1.755 -3.126,-2.333c-1.277,-0.578 -2.722,-0.867 -4.335,-0.867c-3.406,0 -5.109,1.222 -5.109,3.667c0,0.978 0.314,1.767 0.941,2.367c0.628,0.6 1.423,1.066 2.387,1.4c0.963,0.333 2.319,0.744 4.066,1.233c2.42,0.667 4.437,1.355 6.05,2.067c1.613,0.711 2.98,1.8 4.1,3.266c1.12,1.467 1.681,3.4 1.681,5.8c-0,2.178 -0.65,4.078 -1.95,5.7c-1.299,1.622 -2.969,2.856 -5.007,3.7c-2.039,0.845 -4.134,1.267 -6.285,1.267c-2.958,-0 -5.714,-0.489 -8.268,-1.467c-2.554,-0.978 -4.638,-2.555 -6.251,-4.733Z" style="fill:#fff;fill-rule:nonzero;"/><path d="M416.042,919.525c0.627,-0 1.198,0.3 1.714,0.9c0.515,0.6 0.773,1.389 0.773,2.367c-0,1.2 -0.661,2.211 -1.983,3.033c-1.322,0.822 -2.812,1.233 -4.47,1.233c-2.778,0 -5.12,-0.589 -7.024,-1.766c-1.905,-1.178 -2.857,-3.678 -2.857,-7.5l-0,-18.4l-3.092,-0c-1.076,-0 -1.972,-0.356 -2.689,-1.067c-0.717,-0.711 -1.075,-1.6 -1.075,-2.667c-0,-1.022 0.358,-1.878 1.075,-2.566c0.717,-0.689 1.613,-1.034 2.689,-1.034l3.092,0l-0,-4.266c-0,-1.156 0.392,-2.123 1.176,-2.9c0.784,-0.778 1.759,-1.167 2.924,-1.167c1.12,-0 2.061,0.389 2.823,1.167c0.762,0.777 1.143,1.744 1.143,2.9l-0,4.266l4.772,0c1.076,0 1.972,0.356 2.689,1.067c0.717,0.711 1.076,1.6 1.076,2.667c-0,1.022 -0.359,1.877 -1.076,2.566c-0.717,0.689 -1.613,1.034 -2.689,1.034l-4.772,-0l-0,18.066c-0,0.934 0.246,1.611 0.739,2.034c0.493,0.422 1.165,0.633 2.017,0.633c0.358,-0 0.851,-0.089 1.479,-0.267c0.537,-0.222 1.053,-0.333 1.546,-0.333Z" style="fill:#fff;fill-rule:nonzero;"/><path d="M455.297,890.725c1.165,-0 2.129,0.378 2.891,1.133c0.761,0.756 1.142,1.734 1.142,2.934l0,28.2c0,1.155 -0.381,2.122 -1.142,2.9c-0.762,0.777 -1.726,1.166 -2.891,1.166c-1.165,0 -2.117,-0.378 -2.857,-1.133c-0.739,-0.756 -1.131,-1.711 -1.176,-2.867c-1.12,1.289 -2.633,2.389 -4.537,3.3c-1.905,0.911 -3.91,1.367 -6.016,1.367c-3.092,-0 -5.893,-0.789 -8.402,-2.367c-2.51,-1.578 -4.493,-3.766 -5.949,-6.566c-1.457,-2.8 -2.185,-5.978 -2.185,-9.534c0,-3.555 0.717,-6.744 2.151,-9.566c1.434,-2.823 3.395,-5.023 5.882,-6.6c2.487,-1.578 5.232,-2.367 8.234,-2.367c2.151,-0 4.167,0.389 6.05,1.167c1.882,0.777 3.473,1.766 4.772,2.966l0,-0.066c0,-1.156 0.381,-2.123 1.143,-2.9c0.762,-0.778 1.725,-1.167 2.89,-1.167Zm-13.578,29.667c2.913,-0 5.288,-1.056 7.125,-3.167c1.838,-2.111 2.756,-4.767 2.756,-7.967c0,-3.2 -0.918,-5.866 -2.756,-8c-1.837,-2.133 -4.212,-3.2 -7.125,-3.2c-2.868,0 -5.221,1.067 -7.058,3.2c-1.837,2.134 -2.756,4.8 -2.756,8c0,3.2 0.908,5.856 2.723,7.967c1.814,2.111 4.178,3.167 7.091,3.167Z" style="fill:#fff;fill-rule:nonzero;"/><path d="M476.807,922.992c-0,1.155 -0.392,2.122 -1.176,2.9c-0.785,0.777 -1.759,1.166 -2.924,1.166c-1.121,0 -2.062,-0.389 -2.823,-1.166c-0.762,-0.778 -1.143,-1.745 -1.143,-2.9l-0,-41.2c-0,-1.156 0.392,-2.123 1.176,-2.9c0.784,-0.778 1.759,-1.167 2.924,-1.167c1.12,-0 2.061,0.389 2.823,1.167c0.762,0.777 1.143,1.744 1.143,2.9l-0,41.2Z" style="fill:#fff;fill-rule:nonzero;"/><path d="M494.956,922.992c-0,1.155 -0.392,2.122 -1.176,2.9c-0.785,0.777 -1.759,1.166 -2.924,1.166c-1.121,0 -2.062,-0.389 -2.824,-1.166c-0.761,-0.778 -1.142,-1.745 -1.142,-2.9l-0,-41.2c-0,-1.156 0.392,-2.123 1.176,-2.9c0.784,-0.778 1.759,-1.167 2.924,-1.167c1.12,-0 2.061,0.389 2.823,1.167c0.762,0.777 1.143,1.744 1.143,2.9l-0,41.2Z" style="fill:#fff;fill-rule:nonzero;"/><path d="M533.472,890.725c1.165,-0 2.128,0.378 2.89,1.133c0.762,0.756 1.143,1.734 1.143,2.934l-0,28.2c-0,1.155 -0.381,2.122 -1.143,2.9c-0.762,0.777 -1.725,1.166 -2.89,1.166c-1.165,0 -2.117,-0.378 -2.857,-1.133c-0.739,-0.756 -1.131,-1.711 -1.176,-2.867c-1.12,1.289 -2.633,2.389 -4.537,3.3c-1.905,0.911 -3.91,1.367 -6.016,1.367c-3.092,-0 -5.893,-0.789 -8.403,-2.367c-2.509,-1.578 -4.492,-3.766 -5.949,-6.566c-1.456,-2.8 -2.184,-5.978 -2.184,-9.534c-0,-3.555 0.717,-6.744 2.151,-9.566c1.434,-2.823 3.394,-5.023 5.881,-6.6c2.488,-1.578 5.232,-2.367 8.235,-2.367c2.151,-0 4.167,0.389 6.049,1.167c1.882,0.777 3.473,1.766 4.773,2.966l-0,-0.066c-0,-1.156 0.381,-2.123 1.143,-2.9c0.761,-0.778 1.725,-1.167 2.89,-1.167Zm-13.578,29.667c2.913,-0 5.288,-1.056 7.125,-3.167c1.837,-2.111 2.756,-4.767 2.756,-7.967c-0,-3.2 -0.919,-5.866 -2.756,-8c-1.837,-2.133 -4.212,-3.2 -7.125,-3.2c-2.868,0 -5.221,1.067 -7.058,3.2c-1.837,2.134 -2.756,4.8 -2.756,8c-0,3.2 0.907,5.856 2.722,7.967c1.815,2.111 4.179,3.167 7.092,3.167Z" style="fill:#fff;fill-rule:nonzero;"/><path d="M563.586,919.525c0.627,-0 1.198,0.3 1.714,0.9c0.515,0.6 0.773,1.389 0.773,2.367c-0,1.2 -0.661,2.211 -1.983,3.033c-1.322,0.822 -2.812,1.233 -4.47,1.233c-2.779,0 -5.12,-0.589 -7.025,-1.766c-1.904,-1.178 -2.856,-3.678 -2.856,-7.5l-0,-18.4l-3.092,-0c-1.076,-0 -1.972,-0.356 -2.689,-1.067c-0.717,-0.711 -1.076,-1.6 -1.076,-2.667c0,-1.022 0.359,-1.878 1.076,-2.566c0.717,-0.689 1.613,-1.034 2.689,-1.034l3.092,0l-0,-4.266c-0,-1.156 0.392,-2.123 1.176,-2.9c0.784,-0.778 1.759,-1.167 2.924,-1.167c1.12,-0 2.061,0.389 2.823,1.167c0.762,0.777 1.143,1.744 1.143,2.9l-0,4.266l4.772,0c1.076,0 1.972,0.356 2.689,1.067c0.717,0.711 1.076,1.6 1.076,2.667c-0,1.022 -0.359,1.877 -1.076,2.566c-0.717,0.689 -1.613,1.034 -2.689,1.034l-4.772,-0l-0,18.066c-0,0.934 0.246,1.611 0.739,2.034c0.493,0.422 1.165,0.633 2.017,0.633c0.358,-0 0.851,-0.089 1.479,-0.267c0.537,-0.222 1.053,-0.333 1.546,-0.333Z" style="fill:#fff;fill-rule:nonzero;"/><path d="M581.331,922.992c0,1.155 -0.381,2.122 -1.142,2.9c-0.762,0.777 -1.726,1.166 -2.891,1.166c-1.165,0 -2.128,-0.389 -2.89,-1.166c-0.762,-0.778 -1.143,-1.745 -1.143,-2.9l0,-27.534c0,-1.155 0.381,-2.122 1.143,-2.9c0.762,-0.778 1.725,-1.166 2.89,-1.166c1.165,-0 2.129,0.388 2.891,1.166c0.761,0.778 1.142,1.745 1.142,2.9l0,27.534Zm-4.1,-35.934c-1.524,0 -2.599,-0.244 -3.227,-0.733c-0.627,-0.489 -0.941,-1.356 -0.941,-2.6l0,-1.267c0,-1.244 0.337,-2.111 1.009,-2.6c0.672,-0.489 1.747,-0.733 3.226,-0.733c1.569,-0 2.666,0.244 3.294,0.733c0.627,0.489 0.941,1.356 0.941,2.6l-0,1.267c-0,1.289 -0.325,2.167 -0.975,2.633c-0.65,0.467 -1.759,0.7 -3.327,0.7Z" style="fill:#fff;fill-rule:nonzero;"/><path d="M624.149,909.258c0,3.556 -0.806,6.745 -2.42,9.567c-1.613,2.822 -3.82,5.011 -6.621,6.567c-2.8,1.555 -5.881,2.333 -9.242,2.333c-3.406,-0 -6.498,-0.778 -9.276,-2.333c-2.779,-1.556 -4.974,-3.745 -6.588,-6.567c-1.613,-2.822 -2.419,-6.011 -2.419,-9.567c-0,-3.555 0.806,-6.744 2.419,-9.566c1.614,-2.823 3.809,-5.023 6.588,-6.6c2.778,-1.578 5.87,-2.367 9.276,-2.367c3.361,-0 6.442,0.789 9.242,2.367c2.801,1.577 5.008,3.777 6.621,6.6c1.614,2.822 2.42,6.011 2.42,9.566Zm-8.066,0c0,-2.178 -0.459,-4.122 -1.378,-5.833c-0.919,-1.711 -2.151,-3.033 -3.697,-3.967c-1.546,-0.933 -3.26,-1.4 -5.142,-1.4c-1.882,0 -3.596,0.467 -5.142,1.4c-1.546,0.934 -2.779,2.256 -3.697,3.967c-0.919,1.711 -1.378,3.655 -1.378,5.833c-0,2.178 0.459,4.111 1.378,5.8c0.918,1.689 2.151,3 3.697,3.934c1.546,0.933 3.26,1.4 5.142,1.4c1.882,-0 3.596,-0.467 5.142,-1.4c1.546,-0.934 2.778,-2.245 3.697,-3.934c0.919,-1.689 1.378,-3.622 1.378,-5.8Z" style="fill:#fff;fill-rule:nonzero;"/><path d="M650.095,890.725c4.571,-0 7.731,1.344 9.478,4.033c1.748,2.689 2.622,6.411 2.622,11.167l-0,17.067c-0,1.155 -0.381,2.122 -1.143,2.9c-0.762,0.777 -1.725,1.166 -2.89,1.166c-1.165,0 -2.129,-0.389 -2.891,-1.166c-0.762,-0.778 -1.142,-1.745 -1.142,-2.9l-0,-17.067c-0,-2.445 -0.516,-4.367 -1.546,-5.767c-1.031,-1.4 -2.801,-2.1 -5.311,-2.1c-2.599,0 -4.638,0.745 -6.117,2.234c-1.478,1.488 -2.218,3.366 -2.218,5.633l0,17.067c0,1.155 -0.381,2.122 -1.142,2.9c-0.762,0.777 -1.726,1.166 -2.891,1.166c-1.165,0 -2.128,-0.389 -2.89,-1.166c-0.762,-0.778 -1.143,-1.745 -1.143,-2.9l0,-27.534c0,-1.155 0.381,-2.122 1.143,-2.9c0.762,-0.778 1.725,-1.166 2.89,-1.166c1.165,-0 2.129,0.388 2.891,1.166c0.761,0.778 1.142,1.745 1.142,2.9l0,1.134c1.21,-1.6 2.79,-2.978 4.739,-4.134c1.949,-1.155 4.089,-1.733 6.419,-1.733Z" style="fill:#fff;fill-rule:nonzero;"/></g><g><path d="M1277.58,921.858c0.225,0.578 0.337,1.111 0.337,1.6c-0,1.156 -0.381,2.1 -1.143,2.834c-0.762,0.733 -1.636,1.1 -2.622,1.1c-0.806,-0 -1.534,-0.245 -2.184,-0.734c-0.65,-0.489 -1.154,-1.155 -1.513,-2l-3.495,-8.066l-20.031,-0l-3.495,8.133c-0.314,0.844 -0.796,1.5 -1.446,1.967c-0.649,0.466 -1.355,0.7 -2.117,0.7c-1.165,-0 -2.05,-0.312 -2.655,-0.934c-0.605,-0.622 -0.907,-1.466 -0.907,-2.533c-0,-0.4 0.067,-0.822 0.201,-1.267l16.737,-39.866c0.359,-0.889 0.897,-1.578 1.614,-2.067c0.717,-0.489 1.523,-0.689 2.42,-0.6c0.806,-0 1.557,0.233 2.251,0.7c0.695,0.467 1.199,1.122 1.513,1.967l16.535,39.066Zm-27.357,-12.933l13.443,-0l-6.789,-15.6l-6.654,15.6Z" style="fill:#fff;fill-rule:nonzero;"/><path d="M1300.23,884.792c-1.524,-0 -2.599,0.433 -3.226,1.3c-0.628,0.866 -0.942,1.811 -0.942,2.833l0,3.133l6.117,0c1.076,0 1.972,0.345 2.689,1.034c0.717,0.688 1.076,1.566 1.076,2.633c-0,1.067 -0.359,1.944 -1.076,2.633c-0.717,0.689 -1.613,1.034 -2.689,1.034l-6.117,-0l0,23.6c0,1.155 -0.38,2.122 -1.142,2.9c-0.762,0.777 -1.726,1.166 -2.891,1.166c-1.165,0 -2.128,-0.389 -2.89,-1.166c-0.762,-0.778 -1.143,-1.745 -1.143,-2.9l0,-23.6l-3.629,-0c-1.076,-0 -1.972,-0.345 -2.689,-1.034c-0.717,-0.689 -1.076,-1.566 -1.076,-2.633c0,-1.067 0.359,-1.945 1.076,-2.633c0.717,-0.689 1.613,-1.034 2.689,-1.034l3.629,0l0,-3.066c0,-3.334 1.154,-6.045 3.462,-8.134c2.308,-2.089 5.635,-3.133 9.982,-3.133c1.658,-0 3.103,0.333 4.336,1c1.232,0.667 1.848,1.689 1.848,3.067c0,1.066 -0.314,1.933 -0.941,2.6c-0.627,0.666 -1.389,1 -2.285,1c-0.225,-0 -0.46,-0.023 -0.706,-0.067c-0.247,-0.045 -0.504,-0.089 -0.773,-0.133c-1.076,-0.267 -1.972,-0.4 -2.689,-0.4Z" style="fill:#fff;fill-rule:nonzero;"/><path d="M1328.53,919.525c0.627,-0 1.199,0.3 1.714,0.9c0.515,0.6 0.773,1.389 0.773,2.367c-0,1.2 -0.661,2.211 -1.983,3.033c-1.322,0.822 -2.812,1.233 -4.47,1.233c-2.778,0 -5.12,-0.589 -7.024,-1.766c-1.905,-1.178 -2.857,-3.678 -2.857,-7.5l-0,-18.4l-3.092,-0c-1.076,-0 -1.972,-0.356 -2.689,-1.067c-0.717,-0.711 -1.075,-1.6 -1.075,-2.667c-0,-1.022 0.358,-1.878 1.075,-2.566c0.717,-0.689 1.613,-1.034 2.689,-1.034l3.092,0l-0,-4.266c-0,-1.156 0.392,-2.123 1.176,-2.9c0.784,-0.778 1.759,-1.167 2.924,-1.167c1.121,-0 2.062,0.389 2.823,1.167c0.762,0.777 1.143,1.744 1.143,2.9l0,4.266l4.773,0c1.075,0 1.971,0.356 2.688,1.067c0.717,0.711 1.076,1.6 1.076,2.667c-0,1.022 -0.359,1.877 -1.076,2.566c-0.717,0.689 -1.613,1.034 -2.688,1.034l-4.773,-0l0,18.066c0,0.934 0.247,1.611 0.739,2.034c0.493,0.422 1.166,0.633 2.017,0.633c0.359,-0 0.851,-0.089 1.479,-0.267c0.538,-0.222 1.053,-0.333 1.546,-0.333Z" style="fill:#fff;fill-rule:nonzero;"/><path d="M1370.61,908.392c-0.044,1.066 -0.47,1.933 -1.277,2.6c-0.806,0.666 -1.747,1 -2.823,1l-22.182,-0c0.538,2.622 1.77,4.677 3.697,6.166c1.927,1.489 4.1,2.234 6.52,2.234c1.838,-0 3.272,-0.167 4.302,-0.5c1.031,-0.334 1.849,-0.689 2.454,-1.067c0.605,-0.378 1.019,-0.633 1.243,-0.767c0.807,-0.4 1.569,-0.6 2.286,-0.6c0.941,0 1.747,0.334 2.42,1c0.672,0.667 1.008,1.445 1.008,2.334c-0,1.2 -0.628,2.288 -1.882,3.266c-1.255,1.022 -2.935,1.889 -5.042,2.6c-2.106,0.711 -4.234,1.067 -6.385,1.067c-3.765,-0 -7.047,-0.778 -9.848,-2.333c-2.801,-1.556 -4.963,-3.7 -6.486,-6.434c-1.524,-2.733 -2.286,-5.811 -2.286,-9.233c0,-3.822 0.807,-7.178 2.42,-10.067c1.613,-2.889 3.742,-5.1 6.386,-6.633c2.644,-1.533 5.467,-2.3 8.469,-2.3c2.958,-0 5.747,0.8 8.369,2.4c2.621,1.6 4.716,3.755 6.285,6.467c1.568,2.711 2.352,5.644 2.352,8.8Zm-17.006,-10.334c-5.198,0 -8.268,2.422 -9.209,7.267l17.612,-0l-0,-0.467c-0.18,-1.866 -1.098,-3.466 -2.756,-4.8c-1.658,-1.333 -3.541,-2 -5.647,-2Z" style="fill:#fff;fill-rule:nonzero;"/><path d="M1396.02,890.725c1.344,-0 2.476,0.378 3.394,1.133c0.919,0.756 1.378,1.645 1.378,2.667c0,1.378 -0.358,2.411 -1.075,3.1c-0.717,0.689 -1.569,1.033 -2.554,1.033c-0.673,0 -1.434,-0.155 -2.286,-0.466c-0.134,-0.045 -0.437,-0.134 -0.907,-0.267c-0.471,-0.133 -0.975,-0.2 -1.513,-0.2c-1.165,-0 -2.285,0.355 -3.361,1.067c-1.075,0.711 -1.96,1.788 -2.655,3.233c-0.694,1.444 -1.042,3.167 -1.042,5.167l0,15.8c0,1.155 -0.38,2.122 -1.142,2.9c-0.762,0.777 -1.726,1.166 -2.891,1.166c-1.165,0 -2.128,-0.389 -2.89,-1.166c-0.762,-0.778 -1.143,-1.745 -1.143,-2.9l0,-27.534c0,-1.155 0.381,-2.122 1.143,-2.9c0.762,-0.778 1.725,-1.166 2.89,-1.166c1.165,-0 2.129,0.388 2.891,1.166c0.762,0.778 1.142,1.745 1.142,2.9l0,0.867c1.031,-1.822 2.51,-3.211 4.437,-4.167c1.927,-0.955 3.988,-1.433 6.184,-1.433Z" style="fill:#fff;fill-rule:nonzero;"/><path d="M1434.4,922.992c-0,1.155 -0.426,2.122 -1.278,2.9c-0.851,0.777 -1.837,1.166 -2.957,1.166c-1.21,0 -2.207,-0.389 -2.991,-1.166c-0.785,-0.778 -1.177,-1.745 -1.177,-2.9l0,-38.534c0,-1.155 0.404,-2.122 1.21,-2.9c0.807,-0.778 1.837,-1.166 3.092,-1.166c1.12,-0 2.084,0.388 2.891,1.166c0.806,0.778 1.21,1.745 1.21,2.9l-0,38.534Z" style="fill:#fff;fill-rule:nonzero;"/><path d="M1463.03,890.725c4.571,-0 7.731,1.344 9.478,4.033c1.748,2.689 2.622,6.411 2.622,11.167l-0,17.067c-0,1.155 -0.381,2.122 -1.143,2.9c-0.762,0.777 -1.725,1.166 -2.89,1.166c-1.165,0 -2.129,-0.389 -2.891,-1.166c-0.762,-0.778 -1.142,-1.745 -1.142,-2.9l-0,-17.067c-0,-2.445 -0.516,-4.367 -1.546,-5.767c-1.031,-1.4 -2.801,-2.1 -5.311,-2.1c-2.599,0 -4.638,0.745 -6.117,2.234c-1.478,1.488 -2.218,3.366 -2.218,5.633l0,17.067c0,1.155 -0.381,2.122 -1.142,2.9c-0.762,0.777 -1.726,1.166 -2.891,1.166c-1.165,0 -2.128,-0.389 -2.89,-1.166c-0.762,-0.778 -1.143,-1.745 -1.143,-2.9l0,-27.534c0,-1.155 0.381,-2.122 1.143,-2.9c0.762,-0.778 1.725,-1.166 2.89,-1.166c1.165,-0 2.129,0.388 2.891,1.166c0.761,0.778 1.142,1.745 1.142,2.9l0,1.134c1.21,-1.6 2.79,-2.978 4.739,-4.134c1.949,-1.155 4.089,-1.733 6.419,-1.733Z" style="fill:#fff;fill-rule:nonzero;"/><path d="M1481.79,921.525c-0.403,-0.533 -0.605,-1.2 -0.605,-2c0,-1.156 0.583,-2.133 1.748,-2.933c0.627,-0.4 1.277,-0.6 1.949,-0.6c0.941,-0 1.838,0.422 2.689,1.266c1.344,1.378 2.745,2.4 4.201,3.067c1.457,0.667 3.215,1 5.277,1c3.495,-0.133 5.243,-1.445 5.243,-3.933c-0,-1.289 -0.594,-2.267 -1.781,-2.934c-1.188,-0.666 -3.036,-1.333 -5.546,-2c-2.599,-0.711 -4.716,-1.422 -6.352,-2.133c-1.636,-0.711 -3.047,-1.789 -4.235,-3.233c-1.187,-1.445 -1.781,-3.389 -1.781,-5.834c-0,-2.133 0.616,-3.989 1.848,-5.566c1.233,-1.578 2.846,-2.8 4.84,-3.667c1.994,-0.867 4.112,-1.3 6.352,-1.3c2.286,-0 4.571,0.422 6.857,1.267c2.285,0.844 4.077,2.088 5.377,3.733c0.583,0.711 0.874,1.511 0.874,2.4c-0,1.022 -0.426,1.867 -1.277,2.533c-0.628,0.489 -1.345,0.734 -2.151,0.734c-0.986,-0 -1.793,-0.312 -2.42,-0.934c-0.807,-0.978 -1.849,-1.755 -3.126,-2.333c-1.277,-0.578 -2.722,-0.867 -4.335,-0.867c-3.406,0 -5.109,1.222 -5.109,3.667c0,0.978 0.314,1.767 0.941,2.367c0.627,0.6 1.423,1.066 2.386,1.4c0.964,0.333 2.319,0.744 4.067,1.233c2.42,0.667 4.436,1.355 6.05,2.067c1.613,0.711 2.98,1.8 4.1,3.266c1.12,1.467 1.68,3.4 1.68,5.8c0,2.178 -0.649,4.078 -1.949,5.7c-1.299,1.622 -2.969,2.856 -5.008,3.7c-2.039,0.845 -4.134,1.267 -6.285,1.267c-2.957,-0 -5.713,-0.489 -8.267,-1.467c-2.555,-0.978 -4.638,-2.555 -6.252,-4.733Z" style="fill:#fff;fill-rule:nonzero;"/><path d="M1533.61,919.525c0.627,-0 1.198,0.3 1.714,0.9c0.515,0.6 0.773,1.389 0.773,2.367c-0,1.2 -0.661,2.211 -1.983,3.033c-1.322,0.822 -2.812,1.233 -4.47,1.233c-2.779,0 -5.12,-0.589 -7.025,-1.766c-1.904,-1.178 -2.856,-3.678 -2.856,-7.5l-0,-18.4l-3.092,-0c-1.076,-0 -1.972,-0.356 -2.689,-1.067c-0.717,-0.711 -1.076,-1.6 -1.076,-2.667c0,-1.022 0.359,-1.878 1.076,-2.566c0.717,-0.689 1.613,-1.034 2.689,-1.034l3.092,0l-0,-4.266c-0,-1.156 0.392,-2.123 1.176,-2.9c0.784,-0.778 1.759,-1.167 2.924,-1.167c1.12,-0 2.061,0.389 2.823,1.167c0.762,0.777 1.143,1.744 1.143,2.9l-0,4.266l4.772,0c1.076,0 1.972,0.356 2.689,1.067c0.717,0.711 1.075,1.6 1.075,2.667c0,1.022 -0.358,1.877 -1.075,2.566c-0.717,0.689 -1.613,1.034 -2.689,1.034l-4.772,-0l-0,18.066c-0,0.934 0.246,1.611 0.739,2.034c0.493,0.422 1.165,0.633 2.017,0.633c0.358,-0 0.851,-0.089 1.479,-0.267c0.537,-0.222 1.053,-0.333 1.546,-0.333Z" style="fill:#fff;fill-rule:nonzero;"/><path d="M1572.87,890.725c1.165,-0 2.129,0.378 2.89,1.133c0.762,0.756 1.143,1.734 1.143,2.934l0,28.2c0,1.155 -0.381,2.122 -1.143,2.9c-0.761,0.777 -1.725,1.166 -2.89,1.166c-1.165,0 -2.117,-0.378 -2.857,-1.133c-0.739,-0.756 -1.131,-1.711 -1.176,-2.867c-1.12,1.289 -2.633,2.389 -4.537,3.3c-1.905,0.911 -3.91,1.367 -6.016,1.367c-3.092,-0 -5.893,-0.789 -8.403,-2.367c-2.509,-1.578 -4.492,-3.766 -5.948,-6.566c-1.457,-2.8 -2.185,-5.978 -2.185,-9.534c-0,-3.555 0.717,-6.744 2.151,-9.566c1.434,-2.823 3.394,-5.023 5.882,-6.6c2.487,-1.578 5.231,-2.367 8.234,-2.367c2.151,-0 4.167,0.389 6.049,1.167c1.882,0.777 3.473,1.766 4.773,2.966l-0,-0.066c-0,-1.156 0.381,-2.123 1.143,-2.9c0.761,-0.778 1.725,-1.167 2.89,-1.167Zm-13.578,29.667c2.913,-0 5.288,-1.056 7.125,-3.167c1.837,-2.111 2.756,-4.767 2.756,-7.967c-0,-3.2 -0.919,-5.866 -2.756,-8c-1.837,-2.133 -4.212,-3.2 -7.125,-3.2c-2.868,0 -5.221,1.067 -7.058,3.2c-1.837,2.134 -2.756,4.8 -2.756,8c0,3.2 0.907,5.856 2.722,7.967c1.815,2.111 4.179,3.167 7.092,3.167Z" style="fill:#fff;fill-rule:nonzero;"/><path d="M1594.38,922.992c-0,1.155 -0.392,2.122 -1.177,2.9c-0.784,0.777 -1.758,1.166 -2.924,1.166c-1.12,0 -2.061,-0.389 -2.823,-1.166c-0.761,-0.778 -1.142,-1.745 -1.142,-2.9l-0,-41.2c-0,-1.156 0.392,-2.123 1.176,-2.9c0.784,-0.778 1.759,-1.167 2.924,-1.167c1.12,-0 2.061,0.389 2.823,1.167c0.762,0.777 1.143,1.744 1.143,2.9l-0,41.2Z" style="fill:#fff;fill-rule:nonzero;"/><path d="M1612.53,922.992c-0,1.155 -0.392,2.122 -1.177,2.9c-0.784,0.777 -1.758,1.166 -2.924,1.166c-1.12,0 -2.061,-0.389 -2.823,-1.166c-0.762,-0.778 -1.142,-1.745 -1.142,-2.9l-0,-41.2c-0,-1.156 0.392,-2.123 1.176,-2.9c0.784,-0.778 1.759,-1.167 2.924,-1.167c1.12,-0 2.061,0.389 2.823,1.167c0.762,0.777 1.143,1.744 1.143,2.9l-0,41.2Z" style="fill:#fff;fill-rule:nonzero;"/><path d="M1651.04,890.725c1.165,-0 2.128,0.378 2.89,1.133c0.762,0.756 1.143,1.734 1.143,2.934l-0,28.2c-0,1.155 -0.381,2.122 -1.143,2.9c-0.762,0.777 -1.725,1.166 -2.89,1.166c-1.165,0 -2.118,-0.378 -2.857,-1.133c-0.739,-0.756 -1.132,-1.711 -1.176,-2.867c-1.121,1.289 -2.633,2.389 -4.538,3.3c-1.904,0.911 -3.909,1.367 -6.016,1.367c-3.092,-0 -5.892,-0.789 -8.402,-2.367c-2.509,-1.578 -4.492,-3.766 -5.949,-6.566c-1.456,-2.8 -2.184,-5.978 -2.184,-9.534c-0,-3.555 0.717,-6.744 2.151,-9.566c1.434,-2.823 3.394,-5.023 5.881,-6.6c2.487,-1.578 5.232,-2.367 8.234,-2.367c2.151,-0 4.168,0.389 6.05,1.167c1.882,0.777 3.473,1.766 4.773,2.966l-0,-0.066c-0,-1.156 0.381,-2.123 1.142,-2.9c0.762,-0.778 1.726,-1.167 2.891,-1.167Zm-13.578,29.667c2.912,-0 5.287,-1.056 7.125,-3.167c1.837,-2.111 2.756,-4.767 2.756,-7.967c-0,-3.2 -0.919,-5.866 -2.756,-8c-1.838,-2.133 -4.213,-3.2 -7.125,-3.2c-2.868,0 -5.221,1.067 -7.058,3.2c-1.838,2.134 -2.756,4.8 -2.756,8c-0,3.2 0.907,5.856 2.722,7.967c1.815,2.111 4.179,3.167 7.092,3.167Z" style="fill:#fff;fill-rule:nonzero;"/><path d="M1681.15,919.525c0.628,-0 1.199,0.3 1.715,0.9c0.515,0.6 0.773,1.389 0.773,2.367c-0,1.2 -0.661,2.211 -1.983,3.033c-1.322,0.822 -2.812,1.233 -4.47,1.233c-2.779,0 -5.12,-0.589 -7.025,-1.766c-1.904,-1.178 -2.856,-3.678 -2.856,-7.5l-0,-18.4l-3.093,-0c-1.075,-0 -1.971,-0.356 -2.688,-1.067c-0.717,-0.711 -1.076,-1.6 -1.076,-2.667c0,-1.022 0.359,-1.878 1.076,-2.566c0.717,-0.689 1.613,-1.034 2.688,-1.034l3.093,0l-0,-4.266c-0,-1.156 0.392,-2.123 1.176,-2.9c0.784,-0.778 1.759,-1.167 2.924,-1.167c1.12,-0 2.061,0.389 2.823,1.167c0.762,0.777 1.143,1.744 1.143,2.9l-0,4.266l4.772,0c1.076,0 1.972,0.356 2.689,1.067c0.717,0.711 1.075,1.6 1.075,2.667c0,1.022 -0.358,1.877 -1.075,2.566c-0.717,0.689 -1.613,1.034 -2.689,1.034l-4.772,-0l-0,18.066c-0,0.934 0.246,1.611 0.739,2.034c0.493,0.422 1.165,0.633 2.017,0.633c0.358,-0 0.851,-0.089 1.478,-0.267c0.538,-0.222 1.054,-0.333 1.546,-0.333Z" style="fill:#fff;fill-rule:nonzero;"/><path d="M1698.9,922.992c0,1.155 -0.381,2.122 -1.143,2.9c-0.761,0.777 -1.725,1.166 -2.89,1.166c-1.165,0 -2.129,-0.389 -2.89,-1.166c-0.762,-0.778 -1.143,-1.745 -1.143,-2.9l-0,-27.534c-0,-1.155 0.381,-2.122 1.143,-2.9c0.761,-0.778 1.725,-1.166 2.89,-1.166c1.165,-0 2.129,0.388 2.89,1.166c0.762,0.778 1.143,1.745 1.143,2.9l0,27.534Zm-4.1,-35.934c-1.524,0 -2.599,-0.244 -3.227,-0.733c-0.627,-0.489 -0.941,-1.356 -0.941,-2.6l0,-1.267c0,-1.244 0.336,-2.111 1.009,-2.6c0.672,-0.489 1.747,-0.733 3.226,-0.733c1.568,-0 2.666,0.244 3.294,0.733c0.627,0.489 0.941,1.356 0.941,2.6l-0,1.267c-0,1.289 -0.325,2.167 -0.975,2.633c-0.65,0.467 -1.759,0.7 -3.327,0.7Z" style="fill:#fff;fill-rule:nonzero;"/><path d="M1741.72,909.258c0,3.556 -0.807,6.745 -2.42,9.567c-1.613,2.822 -3.82,5.011 -6.621,6.567c-2.801,1.555 -5.881,2.333 -9.242,2.333c-3.406,-0 -6.498,-0.778 -9.276,-2.333c-2.779,-1.556 -4.975,-3.745 -6.588,-6.567c-1.613,-2.822 -2.42,-6.011 -2.42,-9.567c0,-3.555 0.807,-6.744 2.42,-9.566c1.613,-2.823 3.809,-5.023 6.588,-6.6c2.778,-1.578 5.87,-2.367 9.276,-2.367c3.361,-0 6.441,0.789 9.242,2.367c2.801,1.577 5.008,3.777 6.621,6.6c1.613,2.822 2.42,6.011 2.42,9.566Zm-8.066,0c-0,-2.178 -0.459,-4.122 -1.378,-5.833c-0.919,-1.711 -2.151,-3.033 -3.697,-3.967c-1.546,-0.933 -3.26,-1.4 -5.142,-1.4c-1.882,0 -3.596,0.467 -5.142,1.4c-1.547,0.934 -2.779,2.256 -3.697,3.967c-0.919,1.711 -1.378,3.655 -1.378,5.833c-0,2.178 0.459,4.111 1.378,5.8c0.918,1.689 2.15,3 3.697,3.934c1.546,0.933 3.26,1.4 5.142,1.4c1.882,-0 3.596,-0.467 5.142,-1.4c1.546,-0.934 2.778,-2.245 3.697,-3.934c0.919,-1.689 1.378,-3.622 1.378,-5.8Z" style="fill:#fff;fill-rule:nonzero;"/><path d="M1767.66,890.725c4.571,-0 7.73,1.344 9.478,4.033c1.748,2.689 2.622,6.411 2.622,11.167l-0,17.067c-0,1.155 -0.381,2.122 -1.143,2.9c-0.762,0.777 -1.725,1.166 -2.891,1.166c-1.165,0 -2.128,-0.389 -2.89,-1.166c-0.762,-0.778 -1.143,-1.745 -1.143,-2.9l0,-17.067c0,-2.445 -0.515,-4.367 -1.546,-5.767c-1.03,-1.4 -2.8,-2.1 -5.31,-2.1c-2.599,0 -4.638,0.745 -6.117,2.234c-1.479,1.488 -2.218,3.366 -2.218,5.633l0,17.067c0,1.155 -0.381,2.122 -1.143,2.9c-0.761,0.777 -1.725,1.166 -2.89,1.166c-1.165,0 -2.129,-0.389 -2.89,-1.166c-0.762,-0.778 -1.143,-1.745 -1.143,-2.9l-0,-27.534c-0,-1.155 0.381,-2.122 1.143,-2.9c0.761,-0.778 1.725,-1.166 2.89,-1.166c1.165,-0 2.129,0.388 2.89,1.166c0.762,0.778 1.143,1.745 1.143,2.9l0,1.134c1.21,-1.6 2.79,-2.978 4.739,-4.134c1.949,-1.155 4.089,-1.733 6.419,-1.733Z" style="fill:#fff;fill-rule:nonzero;"/></g><path d="M820.613,495.396l-0,-101.544l158.43,-0l-0,-94.292l145.063,145.064l-145.063,145.064l-0,-94.292l-158.43,0Z" style="fill:#fff;stroke:#fff;stroke-width:4.17px;"/></g></svg>