<?xml version="1.0" encoding="UTF-8" standalone="no"?><!DOCTYPE svg PUBLIC "-//W3C//DTD SVG 1.1//EN" "http://www.w3.org/Graphics/SVG/1.1/DTD/svg11.dtd"><svg width="100%" height="100%" viewBox="0 0 500 500" version="1.1" xmlns="http://www.w3.org/2000/svg" xmlns:xlink="http://www.w3.org/1999/xlink" xml:space="preserve" xmlns:serif="http://www.serif.com/" style="fill-rule:evenodd;clip-rule:evenodd;stroke-linecap:round;stroke-linejoin:round;stroke-miterlimit:1.5;"><rect id="Artboard1" x="0" y="0" width="500" height="500" style="fill:none;"/><g id="Artboard11" serif:id="Artboard1"><g><g><g id="book"><path d="M370.817,35.713c0,0 -0.006,-0.233 -0.017,-0.603c-0.078,-2.696 -2.286,-4.842 -4.984,-4.842c-38.828,0 -297.972,0 -297.972,0l-0,12.042" style="fill:none;stroke:#d2d2d2;stroke-width:11.7px;"/><path d="M432.529,57.021c-0,-4.752 -3.853,-8.605 -8.606,-8.605c-51.593,-0 -317.683,-0 -317.683,-0l-0,421.299l317.668,-0c2.286,-0 4.479,-0.909 6.096,-2.525c1.616,-1.617 2.525,-3.81 2.525,-6.096c-0,-54.413 -0,-349.706 -0,-404.073Z" style="fill:none;stroke:#d2d2d2;stroke-width:11.7px;"/><path d="M106.257,48.939c-12.807,0.069 -25.614,-6.076 -38.421,-17.016l-0.356,411.8c8.608,12.988 22.263,26.009 38.779,26.009l-0.002,-420.793Z" style="fill:none;stroke:#d2d2d2;stroke-width:11.7px;"/><path d="M351.146,32.081l60.934,17.581" style="fill:none;stroke:#d2d2d2;stroke-width:8.33px;"/></g><g id="logo"><circle cx="269.384" cy="261.277" r="121.25" style="fill:none;stroke:#e1c8ff;stroke-width:11.7px;"/><g id="Network"><circle cx="223.178" cy="175.019" r="7.734" style="fill:#82e1b4;stroke:#82e1b4;stroke-width:0.52px;"/><circle cx="223.178" cy="217.02" r="7.734" style="fill:#82e1b4;stroke:#82e1b4;stroke-width:0.52px;"/><circle cx="223.178" cy="303.407" r="7.734" style="fill:#82e1b4;stroke:#82e1b4;stroke-width:0.52px;"/><circle cx="327.098" cy="303.407" r="7.734" style="fill:#82e1b4;stroke:#82e1b4;stroke-width:0.52px;"/><circle cx="327.098" cy="217.02" r="7.734" style="fill:#82e1b4;stroke:#82e1b4;stroke-width:0.52px;"/><circle cx="223.178" cy="346.919" r="7.734" style="fill:#82e1b4;stroke:#82e1b4;stroke-width:0.52px;"/><path d="M223.553,175.414l103.567,41.535" style="fill:none;stroke:#82e1b4;stroke-width:5.41px;"/><path d="M223.319,304.663l0.167,42.273" style="fill:none;stroke:#82e1b4;stroke-width:5.41px;"/><path d="M223.486,221.29l0,79.165" style="fill:none;stroke:#82e1b4;stroke-width:5.41px;"/><path d="M327.385,304.129l-103.865,0" style="fill:none;stroke:#82e1b4;stroke-width:5.41px;"/><path d="M223.486,177.442l0,36.413" style="fill:#82e1b4;stroke:#82e1b4;stroke-width:5.41px;"/><path d="M327.406,221.29l0,79.165" style="fill:none;stroke:#82e1b4;stroke-width:5.41px;"/><path d="M327.736,217.856l-103.822,86.271" style="fill:none;stroke:#82e1b4;stroke-width:5.41px;"/><path d="M223.914,218.191l103.487,85.936" style="fill:none;stroke:#82e1b4;stroke-width:5.41px;"/><path id="bbp" d="M223.809,347.163l103.462,-42.494" style="fill:none;stroke:#82e1b4;stroke-width:5.41px;"/><path id="tbp" d="M327.385,217.573l-103.865,-0" style="fill:none;stroke:#82e1b4;stroke-width:5.41px;"/></g></g></g></g></g></svg>