<?xml version="1.0" encoding="UTF-8" standalone="no"?><!DOCTYPE svg PUBLIC "-//W3C//DTD SVG 1.1//EN" "http://www.w3.org/Graphics/SVG/1.1/DTD/svg11.dtd">
<svg width="100%" height="100%" viewBox="0 0 411 224" version="1.1"
    xmlns="http://www.w3.org/2000/svg"
    xmlns:xlink="http://www.w3.org/1999/xlink" xml:space="preserve"
    xmlns:serif="http://www.serif.com/" style="fill-rule:evenodd;clip-rule:evenodd;stroke-linejoin:round;stroke-miterlimit:2;">
    <rect id="Artboard1" x="0" y="0" width="410.766" height="223.558" style="fill:none;"/>
    <style>
        g:nth-of-type(1) > path:not(:nth-of-type(3)) {
            fill: #fff;
            filter: drop-shadow(.25em .25em 0 #bd99ff)
        }
        g:nth-of-type(1) > path:nth-of-type(3) {
            fill: #32ffad;
            filter: drop-shadow(.25em .25em 0 #25c283)
        }
        g:nth-of-type(2) > path {
            fill: #fff;
        }
    </style>
    <g>
        <path d="M23.008,119.391c1.467,-6.8 4.667,-12.967 9.6,-18.5c4.934,-5.533 10.867,-10.233 17.8,-14.1c-4.133,-3.6 -7.2,-8.067 -9.2,-13.4c-2,-5.333 -2.333,-11 -1,-17c1.2,-5.333 3.267,-10.4 6.2,-15.2c2.934,-4.8 6.667,-8.967 11.2,-12.5c4.534,-3.533 9.767,-6.333 15.7,-8.4c5.934,-2.067 12.5,-3.1 19.7,-3.1c6.667,0 12.734,1.033 18.2,3.1c5.467,2.067 10,4.867 13.6,8.4c3.6,3.533 6.2,7.7 7.8,12.5c1.6,4.8 1.8,9.867 0.6,15.2c-1.333,6 -3.8,11.867 -7.4,17.6c-3.6,5.733 -8.2,10.4 -13.8,14c5.2,3.867 8.767,8.367 10.7,13.5c1.934,5.133 2.167,11.1 0.7,17.9c-1.2,5.733 -3.4,11.133 -6.6,16.2c-3.2,5.067 -7.233,9.5 -12.1,13.3c-4.866,3.8 -10.533,6.8 -17,9c-6.466,2.2 -13.633,3.3 -21.5,3.3c-7.333,0 -13.933,-1.1 -19.8,-3.3c-5.866,-2.2 -10.733,-5.2 -14.6,-9c-3.866,-3.8 -6.6,-8.233 -8.2,-13.3c-1.6,-5.067 -1.8,-10.467 -0.6,-16.2Zm19,0c-1.466,6.667 -0.1,12.3 4.1,16.9c4.2,4.6 10.9,6.9 20.1,6.9c5.067,0 9.8,-0.633 14.2,-1.9c4.4,-1.267 8.234,-2.967 11.5,-5.1c3.267,-2.133 6,-4.633 8.2,-7.5c2.2,-2.867 3.634,-5.967 4.3,-9.3c1.467,-6.667 0.067,-12.3 -4.2,-16.9c-4.266,-4.6 -11,-6.9 -20.2,-6.9c-4.666,0 -9.133,0.633 -13.4,1.9c-4.266,1.267 -8.1,2.967 -11.5,5.1c-3.4,2.133 -6.266,4.633 -8.6,7.5c-2.333,2.867 -3.833,5.967 -4.5,9.3Zm17.2,-63c-1.333,6 -0.166,11.033 3.5,15.1c3.667,4.067 9.434,6.1 17.3,6.1c4.4,0 8.534,-0.567 12.4,-1.7c3.867,-1.133 7.3,-2.633 10.3,-4.5c3,-1.867 5.5,-4.1 7.5,-6.7c2,-2.6 3.334,-5.367 4,-8.3c1.2,-6 -0.066,-11.033 -3.8,-15.1c-3.733,-4.067 -9.533,-6.1 -17.4,-6.1c-4.4,0 -8.533,0.567 -12.4,1.7c-3.866,1.133 -7.266,2.633 -10.2,4.5c-2.933,1.867 -5.4,4.1 -7.4,6.7c-2,2.6 -3.266,5.367 -3.8,8.3Z"/>
        <path d="M206.008,159.191c-1.466,0 -2.633,-0.533 -3.5,-1.6c-0.866,-1.067 -1.166,-2.333 -0.9,-3.8l6,-27.6l-63.4,0c-1.466,0 -2.633,-0.533 -3.5,-1.6c-0.866,-1.067 -1.166,-2.333 -0.9,-3.8l1.6,-7.2c0.267,-0.933 0.767,-2.033 1.5,-3.3c0.734,-1.267 1.634,-2.433 2.7,-3.5l80.8,-82.8c2.934,-3.2 5.867,-4.8 8.8,-4.8l8.6,0c1.467,0 2.634,0.533 3.5,1.6c0.867,1.067 1.167,2.333 0.9,3.8l-17.8,83.6l17.2,0c1.467,0 2.6,0.533 3.4,1.6c0.8,1.067 1.067,2.333 0.8,3.8l-1.6,7.2c-0.266,1.467 -1.033,2.733 -2.3,3.8c-1.266,1.067 -2.633,1.6 -4.1,1.6l-17.2,0l-6,27.6c-0.266,1.467 -1.033,2.733 -2.3,3.8c-1.266,1.067 -2.633,1.6 -4.1,1.6l-8.2,0Zm5.4,-51l12,-56.4l-55.4,56.4l43.4,0Z"/>
        <path d="M343.208,109.391l24.2,42.4c0.934,1.6 0.9,3.233 -0.1,4.9c-1,1.667 -2.766,2.5 -5.3,2.5l-27.2,0c-1.733,0 -2.933,-0.333 -3.6,-1c-0.666,-0.667 -1.333,-1.6 -2,-2.8l-12,-20.8l-21,20.8c-0.666,0.667 -1.6,1.467 -2.8,2.4c-1.2,0.933 -2.666,1.4 -4.4,1.4l-34.4,0c-2.4,0 -3.8,-0.867 -4.2,-2.6c-0.4,-1.733 0.134,-3.333 1.6,-4.8l48,-47.8l-23.6,-41.4c-0.933,-1.6 -0.9,-3.233 0.1,-4.9c1,-1.667 2.834,-2.5 5.5,-2.5l27,0c1.734,0 2.934,0.367 3.6,1.1c0.667,0.733 1.334,1.633 2,2.7l11.2,19.6l19.2,-19.6c0.667,-0.667 1.6,-1.467 2.8,-2.4c1.2,-0.933 2.667,-1.4 4.4,-1.4l34.8,0c2.4,0 3.767,0.867 4.1,2.6c0.334,1.733 -0.233,3.333 -1.7,4.8l-46.2,46.8Z"/>
        <path d="M387.241,25.564l4.9,-2.55c0.3,-0.166 0.642,-0.225 1.025,-0.175c0.384,0.05 0.592,0.292 0.625,0.725l0.3,2.85c0.067,0.4 -0.041,0.734 -0.325,1c-0.283,0.267 -0.641,0.417 -1.075,0.45l-5.1,0.5l3.05,3.3c0.234,0.234 0.325,0.542 0.275,0.925c-0.05,0.384 -0.258,0.692 -0.625,0.925l-2.85,1.75c-0.266,0.167 -0.566,0.209 -0.9,0.125c-0.333,-0.083 -0.55,-0.325 -0.65,-0.725l-1.05,-4.5l-3.25,4.85c-0.166,0.234 -0.416,0.375 -0.75,0.425c-0.333,0.05 -0.6,-0.008 -0.8,-0.175l-2.05,-1.75c-0.3,-0.266 -0.366,-0.591 -0.2,-0.975c0.167,-0.383 0.384,-0.675 0.65,-0.875l4.4,-3.3l-4.85,-0.5c-0.333,-0.033 -0.608,-0.175 -0.825,-0.425c-0.216,-0.25 -0.208,-0.591 0.025,-1.025l1.5,-2.85c0.167,-0.266 0.425,-0.491 0.775,-0.675c0.35,-0.183 0.709,-0.141 1.075,0.125l3.75,2.55l0,-4.9c0,-0.366 0.134,-0.708 0.4,-1.025c0.267,-0.316 0.6,-0.475 1,-0.475l3,0c0.467,0 0.734,0.167 0.8,0.5c0.067,0.334 0.034,0.667 -0.1,1l-2.15,4.9Z"/>
    </g>
    <g>
        <path d="M281.309,183.935l2.859,-1.488c0.175,-0.097 0.374,-0.131 0.598,-0.102c0.223,0.03 0.345,0.171 0.364,0.423l0.175,1.663c0.039,0.233 -0.024,0.428 -0.189,0.583c-0.166,0.156 -0.375,0.243 -0.627,0.263l-2.975,0.291l1.779,1.925c0.136,0.136 0.189,0.316 0.16,0.54c-0.029,0.224 -0.151,0.403 -0.364,0.539l-1.663,1.021c-0.155,0.098 -0.33,0.122 -0.525,0.073c-0.194,-0.048 -0.321,-0.189 -0.379,-0.423l-0.613,-2.625l-1.895,2.829c-0.098,0.137 -0.243,0.219 -0.438,0.248c-0.194,0.03 -0.35,-0.004 -0.467,-0.102l-1.195,-1.021c-0.175,-0.155 -0.214,-0.345 -0.117,-0.568c0.097,-0.224 0.224,-0.394 0.379,-0.511l2.567,-1.925l-2.829,-0.291c-0.195,-0.02 -0.355,-0.102 -0.482,-0.248c-0.126,-0.146 -0.121,-0.345 0.015,-0.598l0.875,-1.663c0.097,-0.155 0.248,-0.286 0.452,-0.393c0.204,-0.107 0.413,-0.083 0.627,0.072l2.188,1.488l-0,-2.858c-0,-0.214 0.077,-0.414 0.233,-0.598c0.155,-0.185 0.35,-0.277 0.583,-0.277l1.75,-0c0.272,-0 0.428,0.097 0.467,0.291c0.039,0.195 0.019,0.389 -0.058,0.584l-1.255,2.858Z"/>
        <path d="M293.676,186.035c0.603,-0 1.138,0.063 1.604,0.19c0.467,0.126 0.87,0.286 1.211,0.481c0.34,0.194 0.622,0.408 0.846,0.641c0.223,0.234 0.393,0.457 0.51,0.671l0.175,-0.904c0.039,-0.214 0.151,-0.398 0.335,-0.554c0.185,-0.156 0.384,-0.233 0.598,-0.233l1.079,-0c0.214,-0 0.384,0.077 0.511,0.233c0.126,0.156 0.17,0.34 0.131,0.554l-2.887,13.592c-0.039,0.214 -0.151,0.398 -0.336,0.554c-0.185,0.156 -0.384,0.233 -0.598,0.233l-1.079,0c-0.214,0 -0.384,-0.077 -0.51,-0.233c-0.127,-0.156 -0.17,-0.34 -0.132,-0.554l0.205,-0.904c-0.467,0.564 -1.046,1.035 -1.736,1.414c-0.69,0.379 -1.628,0.569 -2.814,0.569c-0.914,-0 -1.731,-0.175 -2.45,-0.525c-0.72,-0.35 -1.308,-0.846 -1.765,-1.488c-0.457,-0.641 -0.773,-1.404 -0.948,-2.289c-0.175,-0.885 -0.175,-1.862 0,-2.931c0.039,-0.292 0.097,-0.608 0.175,-0.948c0.078,-0.341 0.156,-0.657 0.233,-0.948c0.564,-2.159 1.522,-3.802 2.873,-4.929c1.352,-1.128 2.941,-1.692 4.769,-1.692Zm2.654,9.129c0.078,-0.292 0.166,-0.676 0.263,-1.152c0.097,-0.476 0.165,-0.86 0.204,-1.152c0.233,-1.381 0.073,-2.445 -0.481,-3.194c-0.554,-0.748 -1.444,-1.123 -2.669,-1.123c-1.283,0 -2.358,0.409 -3.223,1.225c-0.865,0.817 -1.483,1.925 -1.852,3.325c-0.097,0.292 -0.17,0.564 -0.219,0.817c-0.048,0.253 -0.092,0.525 -0.131,0.817c-0.233,1.4 -0.097,2.508 0.408,3.325c0.506,0.816 1.322,1.225 2.45,1.225c0.603,-0 1.182,-0.098 1.736,-0.292c0.554,-0.194 1.064,-0.472 1.531,-0.831c0.467,-0.36 0.87,-0.793 1.21,-1.298c0.341,-0.506 0.598,-1.07 0.773,-1.692Z"/>
        <path d="M306.918,196.389c-0.214,1.031 -0.185,1.721 0.087,2.071c0.272,0.35 0.778,0.525 1.517,0.525l1.837,-0c0.214,-0 0.38,0.078 0.496,0.233c0.117,0.156 0.156,0.341 0.117,0.554l-0.204,0.934c-0.039,0.214 -0.151,0.398 -0.336,0.554c-0.184,0.156 -0.384,0.233 -0.598,0.233l-1.604,0c-0.758,0 -1.429,-0.097 -2.012,-0.291c-0.584,-0.195 -1.05,-0.501 -1.4,-0.919c-0.35,-0.418 -0.579,-0.948 -0.686,-1.59c-0.107,-0.641 -0.063,-1.409 0.132,-2.304l1.604,-7.554l-2.159,-0c-0.213,-0 -0.384,-0.078 -0.51,-0.233c-0.126,-0.156 -0.17,-0.341 -0.131,-0.555l0.204,-0.933c0.039,-0.214 0.155,-0.398 0.35,-0.554c0.194,-0.156 0.399,-0.233 0.612,-0.233l2.188,-0l0.992,-4.755c0.038,-0.213 0.15,-0.398 0.335,-0.554c0.185,-0.155 0.384,-0.233 0.598,-0.233l1.079,-0c0.214,-0 0.384,0.078 0.511,0.233c0.126,0.156 0.17,0.341 0.131,0.554l-0.992,4.755l3.675,-0c0.214,-0 0.379,0.077 0.496,0.233c0.117,0.156 0.155,0.34 0.117,0.554l-0.205,0.933c-0.038,0.214 -0.15,0.399 -0.335,0.555c-0.185,0.155 -0.384,0.233 -0.598,0.233l-3.704,-0l-1.604,7.554Z"/>
        <path d="M323.514,200.706c-0.039,0.214 -0.151,0.398 -0.336,0.554c-0.185,0.156 -0.384,0.233 -0.598,0.233l-1.079,0c-0.214,0 -0.384,-0.077 -0.51,-0.233c-0.127,-0.156 -0.17,-0.34 -0.132,-0.554l4.084,-19.134c0.039,-0.213 0.15,-0.398 0.335,-0.554c0.185,-0.155 0.384,-0.233 0.598,-0.233l1.079,-0c0.214,-0 0.384,0.078 0.511,0.233c0.126,0.156 0.17,0.341 0.131,0.554l-4.083,19.134Z"/>
        <path d="M328.939,192.452c0.272,-0.895 0.656,-1.731 1.152,-2.509c0.496,-0.777 1.084,-1.458 1.764,-2.041c0.681,-0.584 1.444,-1.041 2.29,-1.371c0.846,-0.331 1.755,-0.496 2.727,-0.496c0.972,-0 1.837,0.18 2.596,0.54c0.758,0.359 1.38,0.87 1.866,1.531c0.487,0.661 0.817,1.444 0.992,2.348c0.175,0.904 0.165,1.891 -0.029,2.96l-0.146,0.788c-0.058,0.214 -0.18,0.398 -0.364,0.554c-0.185,0.155 -0.385,0.233 -0.598,0.233l-10.15,0c-0.175,1.342 0.014,2.392 0.568,3.15c0.555,0.758 1.337,1.138 2.348,1.138c1.07,-0 1.891,-0.151 2.465,-0.452c0.573,-0.302 1.064,-0.637 1.473,-1.007c0.175,-0.155 0.33,-0.262 0.466,-0.321c0.137,-0.058 0.321,-0.087 0.555,-0.087l1.312,-0c0.214,-0 0.384,0.078 0.511,0.233c0.126,0.156 0.14,0.341 0.043,0.554c-0.155,0.292 -0.403,0.647 -0.743,1.065c-0.341,0.418 -0.788,0.812 -1.342,1.181c-0.554,0.37 -1.22,0.686 -1.998,0.948c-0.778,0.263 -1.682,0.394 -2.713,0.394c-0.972,-0 -1.827,-0.17 -2.566,-0.51c-0.739,-0.341 -1.356,-0.807 -1.852,-1.4c-0.496,-0.593 -0.846,-1.293 -1.05,-2.1c-0.204,-0.807 -0.248,-1.687 -0.132,-2.64c0.039,-0.447 0.107,-0.894 0.205,-1.342c0.097,-0.447 0.213,-0.894 0.35,-1.341Zm10.908,0.087c0.214,-1.167 0.034,-2.124 -0.54,-2.873c-0.573,-0.748 -1.434,-1.123 -2.581,-1.123c-0.564,0 -1.103,0.098 -1.619,0.292c-0.515,0.194 -0.996,0.467 -1.443,0.817c-0.448,0.35 -0.846,0.773 -1.196,1.268c-0.35,0.496 -0.632,1.036 -0.846,1.619l8.225,0Z"/>
        <path d="M352.768,186.035c0.603,-0 1.137,0.063 1.604,0.19c0.467,0.126 0.87,0.286 1.21,0.481c0.341,0.194 0.623,0.408 0.846,0.641c0.224,0.234 0.394,0.457 0.511,0.671l0.175,-0.904c0.038,-0.214 0.15,-0.398 0.335,-0.554c0.185,-0.156 0.384,-0.233 0.598,-0.233l1.079,-0c0.214,-0 0.384,0.077 0.511,0.233c0.126,0.156 0.17,0.34 0.131,0.554l-2.888,13.592c-0.039,0.214 -0.15,0.398 -0.335,0.554c-0.185,0.156 -0.384,0.233 -0.598,0.233l-1.079,0c-0.214,0 -0.384,-0.077 -0.511,-0.233c-0.126,-0.156 -0.17,-0.34 -0.131,-0.554l0.204,-0.904c-0.466,0.564 -1.045,1.035 -1.735,1.414c-0.69,0.379 -1.629,0.569 -2.815,0.569c-0.914,-0 -1.73,-0.175 -2.45,-0.525c-0.719,-0.35 -1.307,-0.846 -1.764,-1.488c-0.457,-0.641 -0.773,-1.404 -0.948,-2.289c-0.175,-0.885 -0.175,-1.862 -0,-2.931c0.039,-0.292 0.097,-0.608 0.175,-0.948c0.078,-0.341 0.155,-0.657 0.233,-0.948c0.564,-2.159 1.522,-3.802 2.873,-4.929c1.351,-1.128 2.941,-1.692 4.769,-1.692Zm2.654,9.129c0.078,-0.292 0.165,-0.676 0.262,-1.152c0.098,-0.476 0.166,-0.86 0.205,-1.152c0.233,-1.381 0.073,-2.445 -0.482,-3.194c-0.554,-0.748 -1.443,-1.123 -2.668,-1.123c-1.284,0 -2.358,0.409 -3.223,1.225c-0.866,0.817 -1.483,1.925 -1.852,3.325c-0.098,0.292 -0.171,0.564 -0.219,0.817c-0.049,0.253 -0.093,0.525 -0.131,0.817c-0.234,1.4 -0.098,2.508 0.408,3.325c0.505,0.816 1.322,1.225 2.45,1.225c0.603,-0 1.181,-0.098 1.735,-0.292c0.555,-0.194 1.065,-0.472 1.532,-0.831c0.466,-0.36 0.87,-0.793 1.21,-1.298c0.34,-0.506 0.598,-1.07 0.773,-1.692Z"/>
        <path d="M370.589,197.293c0.077,-0.369 0.043,-0.675 -0.102,-0.918c-0.146,-0.243 -0.409,-0.453 -0.788,-0.628c-0.379,-0.175 -0.865,-0.34 -1.458,-0.495c-0.593,-0.156 -1.289,-0.321 -2.086,-0.496c-0.758,-0.175 -1.375,-0.413 -1.852,-0.715c-0.476,-0.301 -0.836,-0.656 -1.079,-1.064c-0.243,-0.409 -0.384,-0.851 -0.423,-1.327c-0.039,-0.477 0,-0.968 0.117,-1.473c0.116,-0.584 0.33,-1.128 0.641,-1.634c0.312,-0.505 0.725,-0.943 1.24,-1.312c0.515,-0.37 1.133,-0.661 1.852,-0.875c0.72,-0.214 1.556,-0.321 2.508,-0.321c0.953,-0 1.765,0.107 2.436,0.321c0.671,0.214 1.22,0.481 1.648,0.802c0.428,0.321 0.744,0.676 0.948,1.064c0.204,0.389 0.306,0.759 0.306,1.109c-0,0.214 -0.102,0.398 -0.306,0.554c-0.204,0.156 -0.414,0.233 -0.627,0.233l-0.963,0c-0.117,0 -0.258,-0.024 -0.423,-0.073c-0.165,-0.048 -0.296,-0.16 -0.394,-0.335c-0.175,-0.331 -0.437,-0.608 -0.787,-0.831c-0.35,-0.224 -0.963,-0.336 -1.838,-0.336c-1.05,0 -1.895,0.166 -2.537,0.496c-0.642,0.331 -1.031,0.788 -1.167,1.371c-0.078,0.369 -0.063,0.671 0.044,0.904c0.107,0.233 0.321,0.438 0.642,0.613c0.321,0.175 0.753,0.335 1.298,0.481c0.544,0.146 1.225,0.316 2.041,0.51c0.856,0.195 1.551,0.448 2.086,0.759c0.534,0.311 0.943,0.666 1.225,1.064c0.282,0.399 0.452,0.831 0.51,1.298c0.058,0.467 0.029,0.953 -0.087,1.458c-0.117,0.584 -0.346,1.133 -0.686,1.648c-0.34,0.516 -0.787,0.973 -1.341,1.371c-0.555,0.399 -1.225,0.71 -2.013,0.934c-0.787,0.223 -1.687,0.335 -2.698,0.335c-0.953,-0 -1.789,-0.107 -2.508,-0.321c-0.72,-0.214 -1.322,-0.491 -1.809,-0.831c-0.486,-0.34 -0.841,-0.71 -1.064,-1.108c-0.224,-0.399 -0.316,-0.793 -0.277,-1.182c0.039,-0.214 0.141,-0.398 0.306,-0.554c0.165,-0.155 0.365,-0.233 0.598,-0.233l1.05,-0c0.117,-0 0.258,0.019 0.423,0.058c0.165,0.039 0.296,0.146 0.394,0.321c0.252,0.447 0.607,0.783 1.064,1.006c0.457,0.224 1.055,0.336 1.794,0.336c0.505,-0 0.996,-0.049 1.473,-0.146c0.476,-0.097 0.904,-0.234 1.283,-0.409c0.379,-0.175 0.69,-0.384 0.934,-0.627c0.243,-0.243 0.393,-0.51 0.452,-0.802Z"/>
        <path d="M380.739,196.389c-0.214,1.031 -0.185,1.721 0.087,2.071c0.272,0.35 0.778,0.525 1.517,0.525l1.837,-0c0.214,-0 0.379,0.078 0.496,0.233c0.117,0.156 0.156,0.341 0.117,0.554l-0.204,0.934c-0.039,0.214 -0.151,0.398 -0.336,0.554c-0.185,0.156 -0.384,0.233 -0.598,0.233l-1.604,0c-0.758,0 -1.429,-0.097 -2.012,-0.291c-0.584,-0.195 -1.05,-0.501 -1.4,-0.919c-0.35,-0.418 -0.579,-0.948 -0.686,-1.59c-0.107,-0.641 -0.063,-1.409 0.131,-2.304l1.605,-7.554l-2.159,-0c-0.214,-0 -0.384,-0.078 -0.51,-0.233c-0.127,-0.156 -0.17,-0.341 -0.131,-0.555l0.204,-0.933c0.039,-0.214 0.155,-0.398 0.35,-0.554c0.194,-0.156 0.398,-0.233 0.612,-0.233l2.188,-0l0.991,-4.755c0.039,-0.213 0.151,-0.398 0.336,-0.554c0.185,-0.155 0.384,-0.233 0.598,-0.233l1.079,-0c0.214,-0 0.384,0.078 0.51,0.233c0.127,0.156 0.17,0.341 0.132,0.554l-0.992,4.755l3.675,-0c0.214,-0 0.379,0.077 0.496,0.233c0.116,0.156 0.155,0.34 0.116,0.554l-0.204,0.933c-0.039,0.214 -0.15,0.399 -0.335,0.555c-0.185,0.155 -0.384,0.233 -0.598,0.233l-3.704,-0l-1.604,7.554Z"/>
    </g>
</svg>