<?xml version="1.0" encoding="UTF-8" standalone="no"?><!DOCTYPE svg PUBLIC "-//W3C//DTD SVG 1.1//EN" "http://www.w3.org/Graphics/SVG/1.1/DTD/svg11.dtd">
<svg width="100%" height="100%" viewBox="0 0 800 800" version="1.1"
    xmlns="http://www.w3.org/2000/svg"
    xmlns:xlink="http://www.w3.org/1999/xlink" xml:space="preserve"
    xmlns:serif="http://www.serif.com/" style="fill-rule:evenodd;clip-rule:evenodd;stroke-linecap:round;stroke-linejoin:round;stroke-miterlimit:1.5;">
    <rect id="Artboard1" x="0" y="0" width="800" height="800" style="fill:none;"/>
    <path d="M286.246,438.282c15.997,47.486 60.909,81.718 113.754,81.718c8.12,0 16.052,-0.808 23.723,-2.349c10.575,31.503 8.105,67.221 -9.8,98.234c-33.115,57.356 -106.566,77.038 -163.923,43.923c-57.357,-33.115 -77.038,-106.567 -43.923,-163.923c17.905,-31.013 47.603,-51.011 80.169,-57.603Z" style="fill:none;stroke:#fff;stroke-width:3.55px;"/>
    <circle cx="400" cy="400" r="120" style="fill:none;stroke:#fff;stroke-width:3.55px;"/>
    <circle cx="400" cy="400" r="120" style="fill:none;stroke:#fff;stroke-width:3.55px;"/>
    <circle cx="400" cy="400" r="120" style="fill:none;stroke:#fff;stroke-width:3.55px;"/>
    <circle cx="400" cy="400" r="120" style="fill:none;stroke:#fff;stroke-width:3.55px;"/>
    <path d="M513.611,361.295l0.058,0.171l-0.127,-0.37l0.069,0.199Zm-0.22,-0.638l0.041,0.118l-0.09,-0.258l0.049,0.14Zm-0.223,-0.637l0.052,0.149l-0.068,-0.194l0.016,0.045Zm-0.227,-0.635l0.031,0.085l-0.078,-0.216l0.047,0.131Zm-0.23,-0.634l0.052,0.144l-0.073,-0.201l0.021,0.057Zm-0.233,-0.632l0.028,0.077l-0.081,-0.216l0.053,0.139Zm-0.238,-0.63l0.055,0.144l-0.081,-0.214l0.026,0.07Zm-0.24,-0.628l0.025,0.066l-0.082,-0.213l0.057,0.147Zm-0.244,-0.627l0.071,0.183l-0.147,-0.376l0.076,0.193Zm-0.247,-0.625l0.078,0.196l-0.151,-0.378l0.073,0.182Zm-0.251,-0.624l0.085,0.211l-0.155,-0.382l0.07,0.171Zm-0.254,-0.621l0.092,0.226l-0.159,-0.387l0.067,0.161Zm-0.257,-0.62l0.1,0.242l-0.164,-0.393l0.064,0.151Zm-0.261,-0.618l0.109,0.258l-0.17,-0.399l0.061,0.141Zm-0.264,-0.617l0.118,0.275l-0.175,-0.405l0.057,0.13Zm-0.268,-0.614l0.127,0.292l-0.18,-0.413l0.053,0.121Zm-0.271,-0.613l0.138,0.311l-0.187,-0.421l0.049,0.11Zm-0.274,-0.611l0.149,0.33l-0.194,-0.43l0.045,0.1Zm-0.277,-0.61l0.16,0.352l-0.201,-0.44l0.041,0.088Zm-0.281,-0.607l0.174,0.376l-0.211,-0.454l0.037,0.078Zm-0.284,-0.605l0.19,0.405l-0.223,-0.474l0.033,0.069Zm-0.287,-0.604l0.211,0.443l-0.24,-0.502l0.029,0.059Zm-0.912,-1.86l-0.302,-0.6c0.101,0.2 0.202,0.4 0.302,0.6l0.007,0.013l0.095,0.191l0.185,0.372l0.013,0.027l0.013,0.025l0.188,0.385l0.075,0.153l0.005,0.01c0.094,0.194 0.188,0.388 0.281,0.582l-0.281,-0.582l-0.08,-0.163l-0.201,-0.41l-0.198,-0.399l-0.102,-0.204Zm-0.573,-1.131l0.239,0.469l-0.279,-0.545l0.04,0.076Zm-0.307,-0.592l0.215,0.416l-0.262,-0.505l0.047,0.089Zm-0.31,-0.591l0.198,0.377l-0.252,-0.478l0.054,0.101Zm-0.313,-0.588l0.183,0.344l-0.244,-0.458l0.061,0.114Zm-0.316,-0.587l0.171,0.317l-0.24,-0.444l0.069,0.127Zm-0.319,-0.585l0.159,0.292l-0.237,-0.431l0.078,0.139Zm-0.323,-0.582l0.149,0.268l-0.234,-0.42l0.085,0.152Zm-0.326,-0.581l0.139,0.247l-0.232,-0.411l0.093,0.164Zm-0.328,-0.579l0.128,0.226l-0.23,-0.402l0.102,0.176Zm-0.332,-0.577l0.119,0.207l-0.229,-0.394l0.11,0.187Zm-0.335,-0.574l0.109,0.187l-0.227,-0.387l0.118,0.2Zm-0.338,-0.573l0.1,0.169l-0.226,-0.38l0.126,0.211Zm-0.341,-0.571l0.09,0.152l-0.225,-0.375l0.135,0.223Zm-0.344,-0.568l0.081,0.135l-0.226,-0.371l0.145,0.236Zm-0.348,-0.567l0.074,0.12l-0.231,-0.373l0.157,0.253Zm-0.35,-0.564l0.064,0.103l-0.235,-0.375l0.171,0.272Zm-0.353,-0.563l0.055,0.088l-0.241,-0.38l0.186,0.292Zm-0.357,-0.56l0.046,0.072l-0.251,-0.39l0.205,0.318Zm-0.359,-0.558l0.037,0.057l-0.266,-0.409l0.229,0.352Zm-0.362,-0.556l0.027,0.042l-0.295,-0.448l0.268,0.406Zm-0.366,-0.554l0.018,0.027l-0.375,-0.562l0.357,0.535Zm-1.113,-1.649l0.315,0.461l-0.33,-0.483l0.015,0.022Zm-0.377,-0.545l0.221,0.32l-0.244,-0.352l0.023,0.032Zm-0.38,-0.543l0.184,0.263l-0.214,-0.305l0.03,0.042Zm-0.383,-0.541l0.16,0.227l-0.197,-0.279l0.037,0.052Zm-0.386,-0.539l0.142,0.199l-0.186,-0.259l0.044,0.06Zm-0.389,-0.536l0.127,0.175l-0.177,-0.243l0.05,0.068Zm-0.392,-0.535l0.114,0.155l-0.169,-0.23l0.055,0.075Zm-0.394,-0.532l0.101,0.136l-0.162,-0.217l0.061,0.081Zm-0.397,-0.529l0.048,0.064l-0.072,-0.096l0.024,0.032Zm-1.618,-2.097l0.017,0.022l-0.049,-0.062l0.032,0.04Zm-0.412,-0.518l0.029,0.036l-0.058,-0.073l0.029,0.037Zm-0.414,-0.516l0.027,0.033l-0.043,-0.053l0.016,0.02Zm-93.413,-159.989c36.989,-41.994 99.687,-53.571 150,-24.523c50.313,29.049 71.636,89.135 53.763,142.165c-7.685,-1.546 -15.63,-2.357 -23.763,-2.357c-35.824,0 -68.002,15.732 -90,40.661c-1.902,-2.156 -3.88,-4.243 -5.931,-6.257c-4.326,-4.25 -8.973,-8.174 -13.889,-11.727c-4.276,-3.09 -8.755,-5.899 -13.399,-8.401c-4.574,-2.463 -9.309,-4.629 -14.165,-6.476c-3.86,-1.469 -7.797,-2.737 -11.789,-3.796c-2.35,-0.624 -4.72,-1.176 -7.104,-1.655c10.575,-31.503 8.105,-67.221 -9.8,-98.234c-4.066,-7.043 -8.741,-13.518 -13.923,-19.4Z" style="fill:none;stroke:#fff;stroke-width:3.55px;"/>
    <path d="M490,320.661c21.998,-24.929 54.176,-40.661 90,-40.661c66.23,0 120,53.77 120,120c-0,66.23 -53.77,120 -120,120c-35.824,0 -68.002,-15.732 -90,-40.661c18.667,-21.153 30,-48.933 30,-79.339c0,-30.406 -11.333,-58.186 -30,-79.339Z" style="fill:none;stroke:#fff;stroke-width:3.55px;"/>
    <path d="M423.723,517.651c26.051,-5.231 49.064,-18.912 66.05,-38.055l0.227,-0.257c21.998,24.929 54.176,40.661 90,40.661c8.133,0 16.078,-0.811 23.763,-2.357c17.873,53.03 -3.45,113.116 -53.763,142.165c-50.313,29.048 -113.011,17.471 -150,-24.523c5.182,-5.882 9.857,-12.357 13.923,-19.4c17.905,-31.013 20.375,-66.731 9.8,-98.234Zm66.774,-38.879l-0.017,0.02l0.017,-0.02Zm0.476,-0.55l-0.017,0.02l0.033,-0.038l-0.016,0.018Zm0.482,-0.562l-0.026,0.029l0.046,-0.054l-0.02,0.025Zm0.478,-0.566l-0.034,0.04l0.058,-0.069l-0.024,0.029Zm0.474,-0.569l-0.041,0.05l0.068,-0.082l-0.027,0.032Zm0.471,-0.571l-0.048,0.059l0.076,-0.094l-0.028,0.035Zm0.468,-0.575l-0.056,0.069l0.084,-0.104l-0.028,0.035Zm0.464,-0.577l-0.063,0.078l0.091,-0.114l-0.028,0.036Zm0.461,-0.581l-0.07,0.088l0.097,-0.123l-0.027,0.035Zm0.457,-0.583l-0.076,0.097l0.102,-0.131l-0.026,0.034Zm0.454,-0.586l-0.082,0.105l0.106,-0.137l-0.024,0.032Zm0.45,-0.59l-0.087,0.114l0.109,-0.142l-0.022,0.028Zm0.446,-0.591l-0.091,0.12l0.11,-0.146l-0.019,0.026Zm0.443,-0.595l-0.094,0.127l0.11,-0.149l-0.016,0.022Zm0.44,-0.598l-0.096,0.131l0.109,-0.148l-0.013,0.017Zm0.436,-0.6l-0.095,0.13l0.104,-0.143l-0.009,0.013Zm0.432,-0.603l-0.086,0.119l0.091,-0.128l-0.005,0.009Zm0.853,-1.215l-0.002,0.003l0.099,-0.143l-0.097,0.14Zm0.421,-0.611l-0.009,0.013l0.197,-0.29l-0.188,0.277Zm0.418,-0.615l-0.017,0.025l0.221,-0.329l-0.204,0.304Zm0.414,-0.617l-0.024,0.036l0.23,-0.348l-0.206,0.312Zm0.41,-0.619l-0.031,0.046l0.235,-0.359l-0.204,0.313Zm0.406,-0.622l-0.038,0.057l0.238,-0.368l-0.2,0.311Zm0.403,-0.625l-0.045,0.068l0.239,-0.374l-0.194,0.306Zm0.398,-0.628l-0.051,0.08l0.239,-0.379l-0.188,0.299Zm0.395,-0.63l-0.057,0.092l0.238,-0.385l-0.181,0.293Zm0.392,-0.633l-0.064,0.104l0.237,-0.389l-0.173,0.285Zm0.387,-0.635l-0.07,0.115l0.237,-0.392l-0.167,0.277Zm0.384,-0.638l-0.077,0.127l0.236,-0.396l-0.159,0.269Zm0.379,-0.64l-0.082,0.139l0.234,-0.399l-0.152,0.26Zm0.376,-0.643l-0.088,0.151l0.233,-0.402l-0.145,0.251Zm0.372,-0.646l-0.094,0.164l0.231,-0.406l-0.137,0.242Zm0.368,-0.648l-0.1,0.176l0.23,-0.408l-0.13,0.232Zm0.364,-0.65l-0.105,0.188l0.228,-0.411l-0.123,0.223Zm0.36,-0.653l-0.11,0.201l0.226,-0.414l-0.116,0.213Zm0.357,-0.656l-0.117,0.214l0.225,-0.417l-0.108,0.203Zm0.352,-0.658l-0.121,0.227l0.223,-0.42l-0.102,0.193Zm0.348,-0.66l-0.126,0.24l0.221,-0.423l-0.095,0.183Zm0.345,-0.663l-0.132,0.253l0.22,-0.425l-0.088,0.172Zm0.34,-0.665l-0.136,0.267l0.217,-0.428l-0.081,0.161Zm0.336,-0.668l-0.141,0.281l0.216,-0.431l-0.075,0.15Zm0.333,-0.669l-0.146,0.293l0.214,-0.433l-0.068,0.14Zm0.328,-0.673l-0.151,0.308l0.212,-0.436l-0.061,0.128Zm0.324,-0.674l-0.155,0.321l0.21,-0.438l-0.055,0.117Zm0.32,-0.677l-0.159,0.335l0.208,-0.441l-0.049,0.106Zm0.316,-0.679l-0.163,0.349l0.206,-0.443l-0.043,0.094Zm0.311,-0.682l-0.166,0.364l0.203,-0.446l-0.037,0.082Zm0.308,-0.684l-0.17,0.378l0.201,-0.448l-0.031,0.07Zm0.304,-0.686l-0.173,0.391l0.198,-0.448l-0.025,0.057Zm0.299,-0.688l-0.176,0.404l0.195,-0.449l-0.019,0.045Zm0.295,-0.69l-0.178,0.415l0.192,-0.448l-0.014,0.033Zm0.291,-0.693l-0.177,0.422l0.185,-0.442l-0.008,0.02Zm0.287,-0.695l-0.165,0.399l0.207,-0.502l-0.042,0.103Zm0.282,-0.697l-0.003,0.007l0.072,-0.181l-0.069,0.174Zm0.278,-0.699l-0.004,0.012l0.072,-0.184l-0.068,0.172Zm0.274,-0.701l-0.006,0.016l0.069,-0.179l-0.063,0.163Zm0.27,-0.704l-0.008,0.021l0.065,-0.171l-0.057,0.15Zm0.265,-0.705l-0.009,0.023l0.06,-0.161l-0.051,0.138Zm0.261,-0.708l-0.009,0.026l0.054,-0.149l-0.045,0.123Zm0.257,-0.71l-0.01,0.028l0.048,-0.136l-0.038,0.108Zm0.252,-0.712l-0.01,0.028l0.043,-0.121l-0.033,0.093Zm0.248,-0.713l-0.009,0.027l0.036,-0.105l-0.027,0.078Z" style="fill:none;stroke:#fff;stroke-width:3.55px;"/>
    <path d="M286.246,361.718c-32.566,-6.592 -62.264,-26.59 -80.169,-57.603c-33.115,-57.356 -13.434,-130.808 43.923,-163.923c57.357,-33.115 130.808,-13.433 163.923,43.923c17.905,31.013 20.375,66.731 9.8,98.234c-7.671,-1.541 -15.603,-2.349 -23.723,-2.349c-52.845,0 -97.757,34.232 -113.754,81.718Z" style="fill:none;stroke:#fff;stroke-width:3.55px;"/>
    <path d="M286.246,438.282c-32.566,6.592 -62.264,26.59 -80.169,57.603c-4.067,7.043 -7.337,14.329 -9.84,21.758c-54.862,-11.037 -96.237,-59.546 -96.237,-117.643c0,-58.097 41.375,-106.606 96.237,-117.643c2.503,7.429 5.773,14.715 9.84,21.758c17.905,31.013 47.603,51.011 80.169,57.603" style="fill:none;stroke:#fff;stroke-width:3.55px;"/>
</svg>