<?xml version="1.0" encoding="UTF-8" standalone="no"?><!DOCTYPE svg PUBLIC "-//W3C//DTD SVG 1.1//EN" "http://www.w3.org/Graphics/SVG/1.1/DTD/svg11.dtd">
<svg width="100%" height="100%" viewBox="0 0 3407 3407" version="1.1"
     xmlns="http://www.w3.org/2000/svg"
     xmlns:xlink="http://www.w3.org/1999/xlink" xml:space="preserve"
     xmlns:serif="http://www.serif.com/" style="fill-rule:evenodd;clip-rule:evenodd;stroke-linecap:round;stroke-linejoin:round;stroke-miterlimit:1.5;">
    <g>
        <path d="M2549.74,1185.56c-282.202,-285.097 -564.404,-428.108 -846.607,-428.338c-282.202,-0.231 -564.404,142.317 -846.606,428.338c564.404,548.111 1128.81,547.576 1693.21,0Zm-845.967,-302.915c167.782,0 304,136.218 304,304c-0,167.781 -136.218,303.999 -304,303.999c-167.782,0 -303.999,-136.218 -303.999,-303.999c-0,-167.782 136.217,-304 303.999,-304Zm0,150.388c84.781,0 153.612,68.831 153.612,153.612c-0,84.78 -68.831,153.611 -153.612,153.611c-84.78,-0 -153.611,-68.831 -153.611,-153.611c0,-84.781 68.831,-153.612 153.611,-153.612Z" style="fill:#e480ff;"/>
        <path d="M1363.68,1850.28c226.299,184.361 452.598,207.514 678.897,0" style="fill:none;stroke:#e27bfb;stroke-width:122.26px;"/>
        <path d="M1363.68,1850.28c226.299,184.361 452.598,207.514 678.897,0" style="fill:none;stroke:#e27bfb;stroke-width:122.26px;"/>
        <path d="M1166.89,2078.48c357.495,291.243 714.99,327.819 1072.49,-0" style="fill:none;stroke:#e27bfb;stroke-width:122.26px;"/>
        <path d="M952.048,2323.61c500.722,407.927 1001.44,459.156 1502.17,-0" style="fill:none;stroke:#e27bfb;stroke-width:122.26px;"/>
    </g>
    <circle cx="1703.13" cy="1703.13" r="1425" style="fill:none;stroke:#fff;stroke-width:5em"/>
    <path d="M671.385,796.825l1926.41,1926.41c37.92,37.92 99.492,37.92 137.411,0c37.92,-37.919 37.92,-99.491 0,-137.41l-1926.41,-1926.41c-37.919,-37.92 -99.491,-37.92 -137.41,-0c-37.92,37.919 -37.92,99.491 -0,137.41Z" style="fill:#fff;"/>
</svg>