<?xml version="1.0" encoding="UTF-8" standalone="no"?><!DOCTYPE svg PUBLIC "-//W3C//DTD SVG 1.1//EN" "http://www.w3.org/Graphics/SVG/1.1/DTD/svg11.dtd"><svg width="100%" height="100%" viewBox="0 0 5210 472" version="1.1" xmlns="http://www.w3.org/2000/svg" xmlns:xlink="http://www.w3.org/1999/xlink" xml:space="preserve" xmlns:serif="http://www.serif.com/" style="fill-rule:evenodd;clip-rule:evenodd;stroke-linecap:round;stroke-linejoin:round;stroke-miterlimit:1.5;"><rect id="Artboard1" x="0" y="0" width="5209.98" height="471.164" style="fill:none;"/><g id="cool"><path d="M5201.45,123.771c-0,-61.297 -49.766,-111.063 -111.063,-111.063l-4962.54,0c-61.297,0 -111.063,49.766 -111.063,111.063l0,222.125c0,61.298 49.766,111.063 111.063,111.063l4962.54,0c61.297,0 111.063,-49.765 111.063,-111.063l-0,-222.125Z" style="fill:#fff;fill-opacity:0.11;stroke:#d400ff;stroke-width:16.25px;"/><g><g><path d="M533.244,287.179l0,-91.599c0,-3.162 0.6,-6.133 1.799,-8.914c1.2,-2.781 2.836,-5.207 4.907,-7.279c2.072,-2.072 4.499,-3.707 7.279,-4.907c2.781,-1.199 5.752,-1.799 8.915,-1.799l68.699,-0c3.162,-0 6.133,0.6 8.914,1.799c2.781,1.2 5.207,2.835 7.279,4.907c2.072,2.072 3.708,4.498 4.907,7.279c1.2,2.781 1.799,5.752 1.799,8.914l0,91.599l-22.899,-0l-0,-34.35l-68.699,0l-0,34.35l-22.9,-0Zm91.599,-57.249l-0,-27.153c-0,-1.962 -0.709,-3.653 -2.127,-5.07c-1.417,-1.418 -3.108,-2.127 -5.07,-2.127l-54.305,0c-1.963,0 -3.653,0.709 -5.071,2.127c-1.417,1.417 -2.126,3.108 -2.126,5.07l-0,27.153l68.699,-0Z" style="fill:#fff;fill-rule:nonzero;"/><path d="M667.861,287.179l0,-22.9l80.149,0c3.162,0 5.861,-1.117 8.097,-3.353c2.235,-2.235 3.353,-4.934 3.353,-8.097c-0,-3.162 -1.118,-5.861 -3.353,-8.096c-2.236,-2.236 -4.935,-3.353 -8.097,-3.353l-45.799,-0c-4.798,-0 -9.269,-0.9 -13.413,-2.699c-4.144,-1.799 -7.769,-4.253 -10.877,-7.361c-3.108,-3.108 -5.562,-6.761 -7.361,-10.959c-1.799,-4.198 -2.699,-8.642 -2.699,-13.331c0,-4.689 0.9,-9.132 2.699,-13.331c1.799,-4.198 4.253,-7.851 7.361,-10.959c3.108,-3.108 6.733,-5.561 10.877,-7.36c4.144,-1.8 8.615,-2.699 13.413,-2.699l80.148,-0l0,22.899l-80.148,0c-3.163,0 -5.862,1.118 -8.097,3.354c-2.235,2.235 -3.353,4.934 -3.353,8.096c-0,3.163 1.118,5.861 3.353,8.097c2.235,2.235 4.934,3.353 8.097,3.353l45.799,0c4.798,0 9.269,0.9 13.413,2.699c4.143,1.799 7.769,4.253 10.877,7.361c3.108,3.107 5.561,6.76 7.36,10.959c1.8,4.198 2.699,8.642 2.699,13.33c0,4.689 -0.899,9.133 -2.699,13.331c-1.799,4.199 -4.252,7.852 -7.36,10.959c-3.108,3.108 -6.734,5.562 -10.877,7.361c-4.144,1.799 -8.615,2.699 -13.413,2.699l-80.149,-0Z" style="fill:#fff;fill-rule:nonzero;"/><path d="M843.371,287.179l-0,-91.599c-0,-3.162 0.599,-6.133 1.799,-8.914c1.199,-2.781 2.835,-5.207 4.907,-7.279c2.072,-2.072 4.498,-3.707 7.279,-4.907c2.78,-1.199 5.752,-1.799 8.914,-1.799l91.599,-0l-0,22.899l-84.402,0c-1.963,0 -3.653,0.709 -5.07,2.127c-1.418,1.417 -2.127,3.108 -2.127,5.07l0,15.703l68.699,0l0,22.9l-68.699,-0l0,45.799l-22.899,-0Z" style="fill:#fff;fill-rule:nonzero;"/><path d="M969.482,264.279l0,-68.699c0,-3.162 0.6,-6.133 1.799,-8.914c1.2,-2.781 2.835,-5.207 4.907,-7.279c2.072,-2.072 4.498,-3.707 7.279,-4.907c2.781,-1.199 5.752,-1.799 8.915,-1.799l68.699,-0c3.162,-0 6.133,0.6 8.914,1.799c2.781,1.2 5.207,2.835 7.279,4.907c2.072,2.072 3.707,4.498 4.907,7.279c1.199,2.781 1.799,5.752 1.799,8.914l0,68.699c0,3.163 -0.6,6.134 -1.799,8.915c-1.2,2.78 -2.835,5.207 -4.907,7.279c-2.072,2.071 -4.498,3.707 -7.279,4.907c-2.781,1.199 -5.752,1.799 -8.914,1.799l-68.699,-0c-3.163,-0 -6.134,-0.6 -8.915,-1.799c-2.781,-1.2 -5.207,-2.836 -7.279,-4.907c-2.072,-2.072 -3.707,-4.499 -4.907,-7.279c-1.199,-2.781 -1.799,-5.752 -1.799,-8.915Zm22.9,-7.197c-0,1.963 0.708,3.653 2.126,5.071c1.418,1.417 3.108,2.126 5.071,2.126l54.304,0c1.963,0 3.654,-0.709 5.071,-2.126c1.418,-1.418 2.127,-3.108 2.127,-5.071l-0,-54.305c-0,-1.962 -0.709,-3.653 -2.127,-5.07c-1.417,-1.418 -3.108,-2.127 -5.071,-2.127l-54.304,0c-1.963,0 -3.653,0.709 -5.071,2.127c-1.418,1.417 -2.126,3.108 -2.126,5.07l-0,54.305Z" style="fill:#fff;fill-rule:nonzero;"/><path d="M1107.04,195.58c0,-3.162 0.6,-6.133 1.8,-8.914c1.199,-2.781 2.835,-5.207 4.907,-7.279c2.072,-2.072 4.498,-3.707 7.278,-4.907c2.781,-1.199 5.753,-1.799 8.915,-1.799l68.699,-0c3.162,-0 6.134,0.6 8.914,1.799c2.781,1.2 5.207,2.835 7.279,4.907c2.072,2.072 3.708,4.498 4.907,7.279c1.2,2.781 1.799,5.752 1.799,8.914l0,24.699c0,0.218 -0.027,0.382 -0.081,0.491c-0.055,0.109 -0.082,0.273 -0.082,0.491l-0,1.145c-0,0.109 -0.027,0.191 -0.082,0.245c-0.054,0.055 -0.082,0.136 -0.082,0.245l0,0.818c-0.109,0.109 -0.163,0.273 -0.163,0.491l-0,0.327c-0,0.109 -0.028,0.164 -0.082,0.164c-0.055,-0 -0.082,0.054 -0.082,0.163l0,0.654c-0.109,0.11 -0.163,0.219 -0.163,0.328l-0,0.327c-0,0.109 -0.055,0.163 -0.164,0.163l0,0.327c0,0.219 -0.054,0.328 -0.164,0.328l0,0.327c-0.109,0.218 -0.163,0.381 -0.163,0.49c-0,0.11 -0.055,0.273 -0.164,0.491l0,0.327c-0.109,0.218 -0.163,0.327 -0.163,0.327c-0,0.109 -0.055,0.219 -0.164,0.328l0,0.327l-0.327,0.654l0,0.164c-0.218,0.436 -0.327,0.654 -0.327,0.654c-0,0.109 -0.109,0.381 -0.327,0.818l-0,0.327c-0.109,0.218 -0.218,0.381 -0.327,0.491c-0,0.109 -0.055,0.218 -0.164,0.327c-0.109,0.218 -0.163,0.327 -0.163,0.327c-0,0.109 -0.028,0.191 -0.082,0.245c-0.055,0.055 -0.082,0.136 -0.082,0.246c-0.109,0.109 -0.273,0.381 -0.491,0.817c-0.109,0.218 -0.218,0.437 -0.327,0.655c0,0.218 -0.109,0.436 -0.327,0.654c-0.109,0.109 -0.164,0.191 -0.164,0.245c0,0.055 -0.054,0.137 -0.163,0.246c-0.109,0.109 -0.164,0.218 -0.164,0.327c0,-0 -0.109,0.109 -0.327,0.327c0,0.109 -0.109,0.327 -0.327,0.654c-0.218,0.327 -0.382,0.545 -0.491,0.654l-0.163,0.164c-0.218,0.218 -0.355,0.409 -0.409,0.572c-0.055,0.164 -0.191,0.355 -0.409,0.573l-0.164,0.164l0,0.163c-0.109,0 -0.163,0.027 -0.163,0.082c-0,0.054 -0.055,0.082 -0.164,0.082c0,0.109 -0.109,0.272 -0.327,0.49l-0.327,0.328c-0.109,0.109 -0.164,0.218 -0.164,0.327l0,0.163c0.109,0 0.164,0.027 0.164,0.082c-0,0.055 0.054,0.082 0.163,0.082l0,0.163l0.818,0.818c0.109,0.218 0.164,0.327 0.164,0.327c0.218,0.218 0.327,0.327 0.327,0.327c0.109,0.219 0.164,0.328 0.164,0.328c0.218,0.218 0.327,0.327 0.327,0.327c0.109,0.218 0.163,0.327 0.163,0.327l0,0.163c0,0 0.109,0.11 0.327,0.328c0.109,0.109 0.164,0.218 0.164,0.327l0.164,-0l-0,0.163c0.327,0.327 0.49,0.6 0.49,0.818l0.327,0.327c0,0.218 0.055,0.327 0.164,0.327c0.109,0.219 0.164,0.328 0.164,0.328c0.109,0.109 0.163,0.272 0.163,0.49c0,0 0.109,0.109 0.327,0.327c0,0.109 0.055,0.219 0.164,0.328c0.109,0.218 0.163,0.354 0.163,0.408c0,0.055 0.055,0.191 0.164,0.409c0.109,0.109 0.164,0.218 0.164,0.328c0.109,0.109 0.163,0.218 0.163,0.327c0.218,0.436 0.436,0.981 0.654,1.635c0.109,0 0.164,0.109 0.164,0.327l0.327,0.655l0,0.163l0.327,0.655l0,0.327c0.109,0.109 0.164,0.218 0.164,0.327c-0,0.109 0.054,0.218 0.163,0.327l0,0.327c0.109,0.218 0.164,0.382 0.164,0.491c-0,0.109 0.054,0.272 0.163,0.491l0,0.327c0.11,-0 0.164,0.109 0.164,0.327l0,0.327c0.109,0.109 0.164,0.164 0.164,0.164l-0,0.327c0.109,0.218 0.163,0.327 0.163,0.327l0,0.654c0,0.109 0.027,0.164 0.082,0.164c0.054,-0 0.082,0.054 0.082,0.163l-0,0.327c-0,0.218 0.054,0.382 0.163,0.491l0,0.818c0,0.109 0.028,0.191 0.082,0.245c0.055,0.055 0.082,0.137 0.082,0.246l-0,1.145c-0,0.218 0.027,0.381 0.082,0.49c0.054,0.109 0.081,0.273 0.081,0.491l0,24.699l-22.899,-0l-0,-22.9c-0,-0.763 -0.055,-1.472 -0.164,-2.126c-0.109,-0.654 -0.272,-1.309 -0.49,-1.963c-1.2,-2.835 -3.108,-4.907 -5.725,-6.216c-1.854,-0.763 -3.544,-1.145 -5.071,-1.145l-57.249,0l-0,34.35l-22.9,-0l0,-91.599Zm22.9,7.197l-0,27.153l57.249,-0c3.162,-0 5.861,-1.118 8.097,-3.353c2.235,-2.236 3.353,-4.935 3.353,-8.097l-0,-15.703c-0,-1.962 -0.709,-3.653 -2.127,-5.07c-1.417,-1.418 -3.107,-2.127 -5.07,-2.127l-54.305,0c-1.963,0 -3.653,0.709 -5.071,2.127c-1.417,1.417 -2.126,3.108 -2.126,5.07Z" style="fill:#fff;fill-rule:nonzero;"/><path d="M1244.61,264.279l-0,-68.699c-0,-3.162 0.599,-6.133 1.799,-8.914c1.199,-2.781 2.835,-5.207 4.907,-7.279c2.072,-2.072 4.498,-3.707 7.279,-4.907c2.78,-1.199 5.752,-1.799 8.914,-1.799l91.599,-0l-0,22.899l-84.402,0c-1.963,0 -3.653,0.709 -5.07,2.127c-1.418,1.417 -2.127,3.108 -2.127,5.07l0,15.703l68.699,0l0,22.9l-68.699,-0l0,15.702c0,1.963 0.709,3.653 2.127,5.071c1.417,1.417 3.107,2.126 5.07,2.126l84.402,0l-0,22.9l-91.599,-0c-3.162,-0 -6.134,-0.6 -8.914,-1.799c-2.781,-1.2 -5.207,-2.836 -7.279,-4.907c-2.072,-2.072 -3.708,-4.499 -4.907,-7.279c-1.2,-2.781 -1.799,-5.752 -1.799,-8.915Z" style="fill:#fff;fill-rule:nonzero;"/><path d="M1367.77,172.681l114.498,-0l0,22.899l-45.799,0l-0,91.599l-22.9,-0l0,-91.599l-45.799,0l-0,-22.899Z" style="fill:#fff;fill-rule:nonzero;"/><path d="M1496.99,264.279l0,-68.699c0,-3.162 0.6,-6.133 1.799,-8.914c1.2,-2.781 2.836,-5.207 4.908,-7.279c2.071,-2.072 4.498,-3.707 7.278,-4.907c2.781,-1.199 5.753,-1.799 8.915,-1.799l68.699,-0c3.162,-0 6.134,0.6 8.914,1.799c2.781,1.2 5.207,2.835 7.279,4.907c2.072,2.072 3.708,4.498 4.907,7.279c1.2,2.781 1.799,5.752 1.799,8.914l0,68.699c0,3.163 -0.599,6.134 -1.799,8.915c-1.199,2.78 -2.835,5.207 -4.907,7.279c-2.072,2.071 -4.498,3.707 -7.279,4.907c-2.78,1.199 -5.752,1.799 -8.914,1.799l-68.699,-0c-3.162,-0 -6.134,-0.6 -8.915,-1.799c-2.78,-1.2 -5.207,-2.836 -7.278,-4.907c-2.072,-2.072 -3.708,-4.499 -4.908,-7.279c-1.199,-2.781 -1.799,-5.752 -1.799,-8.915Zm22.9,-7.197c-0,1.963 0.709,3.653 2.126,5.071c1.418,1.417 3.108,2.126 5.071,2.126l54.305,0c1.963,0 3.653,-0.709 5.07,-2.126c1.418,-1.418 2.127,-3.108 2.127,-5.071l-0,-54.305c-0,-1.962 -0.709,-3.653 -2.127,-5.07c-1.417,-1.418 -3.107,-2.127 -5.07,-2.127l-54.305,0c-1.963,0 -3.653,0.709 -5.071,2.127c-1.417,1.417 -2.126,3.108 -2.126,5.07l-0,54.305Z" style="fill:#fff;fill-rule:nonzero;"/><path d="M1657.45,172.681l0,84.401c0,1.963 0.709,3.653 2.127,5.071c1.417,1.417 3.107,2.126 5.07,2.126l84.402,0l-0,22.9l-91.599,-0c-3.162,-0 -6.134,-0.6 -8.914,-1.799c-2.781,-1.2 -5.207,-2.836 -7.279,-4.907c-2.072,-2.072 -3.708,-4.499 -4.907,-7.279c-1.2,-2.781 -1.799,-5.752 -1.799,-8.915l-0,-91.598l22.899,-0Z" style="fill:#fff;fill-rule:nonzero;"/><path d="M1760.34,172.681l91.598,-0c3.163,-0 6.134,0.6 8.915,1.799c2.781,1.2 5.207,2.835 7.279,4.907c2.072,2.072 3.707,4.498 4.907,7.279c1.199,2.781 1.799,5.752 1.799,8.914l0,68.699c0,3.163 -0.6,6.134 -1.799,8.915c-1.2,2.78 -2.835,5.207 -4.907,7.279c-2.072,2.071 -4.498,3.707 -7.279,4.907c-2.781,1.199 -5.752,1.799 -8.915,1.799l-91.598,-0l-0,-114.498Zm22.9,91.598l61.501,0c1.963,0 3.653,-0.709 5.071,-2.126c1.418,-1.418 2.126,-3.108 2.126,-5.071l0,-54.305c0,-1.962 -0.708,-3.653 -2.126,-5.07c-1.418,-1.418 -3.108,-2.127 -5.071,-2.127l-61.501,0l-0,68.699Z" style="fill:#fff;fill-rule:nonzero;"/><path d="M1938.46,172.681l80.149,-0c4.798,-0 9.269,0.899 13.413,2.699c4.143,1.799 7.769,4.252 10.877,7.36c3.108,3.108 5.561,6.761 7.361,10.959c1.799,4.199 2.698,8.642 2.698,13.331c0,4.144 -0.736,8.206 -2.208,12.186c-1.472,3.98 -3.626,7.552 -6.461,10.714c2.835,3.162 4.989,6.733 6.461,10.714c1.472,3.98 2.208,8.042 2.208,12.185c0,4.689 -0.899,9.133 -2.698,13.331c-1.8,4.199 -4.253,7.852 -7.361,10.959c-3.108,3.108 -6.734,5.562 -10.877,7.361c-4.144,1.799 -8.615,2.699 -13.413,2.699l-80.149,-0l0,-114.498Zm22.9,45.799l57.249,0c3.162,0 5.861,-1.118 8.097,-3.353c2.235,-2.236 3.353,-4.934 3.353,-8.097c-0,-3.162 -1.118,-5.861 -3.353,-8.096c-2.236,-2.236 -4.935,-3.354 -8.097,-3.354l-57.249,0l-0,22.9Zm-0,22.9l-0,22.899l57.249,0c3.162,0 5.861,-1.117 8.097,-3.353c2.235,-2.235 3.353,-4.934 3.353,-8.097c-0,-3.162 -1.118,-5.861 -3.353,-8.096c-2.236,-2.236 -4.935,-3.353 -8.097,-3.353l-57.249,-0Z" style="fill:#fff;fill-rule:nonzero;"/><path d="M2070.63,221.915l-0,-49.234l22.899,-0l0,42.037c0,1.963 0.709,3.653 2.127,5.071c1.417,1.417 3.108,2.126 5.07,2.126l54.305,-0c1.963,-0 3.653,-0.709 5.071,-2.126c1.418,-1.418 2.126,-3.108 2.126,-5.071l0,-42.037l22.9,-0l-0,49.234c-0,3.162 -0.6,6.134 -1.799,8.914c-1.2,2.781 -2.835,5.207 -4.907,7.279c-2.072,2.072 -4.498,3.708 -7.279,4.907c-2.781,1.2 -5.752,1.8 -8.915,1.8l-22.899,-0l-0,42.364l-22.9,-0l0,-42.364l-22.9,-0c-3.162,-0 -6.133,-0.6 -8.914,-1.8c-2.781,-1.199 -5.207,-2.835 -7.279,-4.907c-2.072,-2.072 -3.707,-4.498 -4.907,-7.279c-1.199,-2.78 -1.799,-5.752 -1.799,-8.914Z" style="fill:#fff;fill-rule:nonzero;"/></g><g><path d="M2274.01,211.76c-0.464,-3.128 -0.307,-6.156 0.472,-9.082c0.779,-2.927 2.041,-5.567 3.787,-7.92c1.745,-2.353 3.905,-4.327 6.48,-5.922c2.575,-1.594 5.426,-2.623 8.554,-3.087l67.956,-10.075c3.128,-0.464 6.156,-0.307 9.082,0.472c2.927,0.779 5.567,2.041 7.92,3.786c2.353,1.746 4.327,3.906 5.921,6.481c1.595,2.575 2.624,5.426 3.088,8.554l3.622,24.432c0.032,0.216 0.029,0.381 -0.009,0.497c-0.038,0.116 -0.041,0.282 -0.009,0.498l0.168,1.132c0.016,0.108 0.001,0.193 -0.045,0.255c-0.046,0.062 -0.061,0.147 -0.045,0.255l0.12,0.809c-0.092,0.124 -0.122,0.293 -0.09,0.509l0.048,0.324c0.016,0.108 -0.003,0.165 -0.056,0.173c-0.054,0.008 -0.073,0.066 -0.057,0.174l0.096,0.647c-0.092,0.124 -0.13,0.24 -0.114,0.348l0.048,0.324c0.016,0.108 -0.03,0.169 -0.138,0.185l0.048,0.324c0.032,0.216 -0.006,0.332 -0.114,0.348l0.048,0.323c-0.076,0.232 -0.106,0.402 -0.09,0.51c0.016,0.107 -0.014,0.277 -0.09,0.509l0.048,0.324c-0.076,0.231 -0.113,0.347 -0.113,0.347c0.016,0.108 -0.022,0.224 -0.114,0.348l0.048,0.323l-0.228,0.696l0.024,0.161c-0.152,0.464 -0.228,0.696 -0.228,0.696c0.016,0.107 -0.051,0.393 -0.203,0.857l0.048,0.323c-0.076,0.232 -0.16,0.41 -0.252,0.534c0.016,0.107 -0.022,0.223 -0.114,0.347c-0.076,0.232 -0.114,0.348 -0.114,0.348c0.016,0.108 0.001,0.192 -0.044,0.254c-0.046,0.062 -0.061,0.147 -0.045,0.255c-0.092,0.124 -0.214,0.418 -0.366,0.881c-0.076,0.232 -0.152,0.463 -0.227,0.695c0.032,0.216 -0.044,0.448 -0.228,0.695c-0.092,0.124 -0.134,0.213 -0.126,0.267c0.008,0.054 -0.034,0.143 -0.126,0.267c-0.092,0.124 -0.13,0.24 -0.114,0.347c0,0 -0.091,0.124 -0.275,0.372c0.016,0.108 -0.06,0.34 -0.228,0.695c-0.168,0.356 -0.297,0.595 -0.389,0.719l-0.138,0.186c-0.184,0.248 -0.291,0.457 -0.321,0.626c-0.03,0.17 -0.136,0.379 -0.32,0.627l-0.138,0.185l0.024,0.162c-0.108,0.016 -0.158,0.051 -0.15,0.105c0.008,0.054 -0.042,0.089 -0.15,0.105c0.016,0.108 -0.067,0.286 -0.251,0.533l-0.276,0.372c-0.092,0.124 -0.13,0.24 -0.114,0.348l0.024,0.161c0.108,-0.016 0.166,0.003 0.174,0.057c0.008,0.054 0.066,0.073 0.174,0.057l0.024,0.162l0.929,0.689c0.14,0.2 0.21,0.3 0.21,0.3c0.247,0.183 0.371,0.275 0.371,0.275c0.14,0.2 0.21,0.3 0.21,0.3c0.248,0.184 0.372,0.275 0.372,0.275c0.139,0.2 0.209,0.3 0.209,0.3l0.024,0.162c0,-0 0.124,0.092 0.372,0.276c0.124,0.091 0.194,0.191 0.21,0.299l0.162,-0.024l0.024,0.162c0.371,0.276 0.573,0.521 0.605,0.737l0.371,0.276c0.032,0.215 0.102,0.315 0.21,0.299c0.14,0.2 0.21,0.3 0.21,0.3c0.124,0.092 0.202,0.245 0.234,0.461c-0,0 0.124,0.092 0.371,0.276c0.016,0.108 0.086,0.208 0.21,0.299c0.14,0.2 0.214,0.327 0.222,0.381c0.008,0.054 0.082,0.181 0.222,0.38c0.124,0.092 0.193,0.192 0.209,0.3c0.124,0.092 0.194,0.192 0.21,0.3c0.28,0.399 0.576,0.907 0.887,1.522c0.108,-0.016 0.178,0.084 0.21,0.299l0.42,0.6l0.024,0.161l0.419,0.6l0.048,0.323c0.124,0.092 0.194,0.192 0.21,0.3c0.016,0.108 0.086,0.208 0.21,0.299l0.048,0.324c0.14,0.2 0.217,0.354 0.233,0.461c0.016,0.108 0.094,0.262 0.234,0.462l0.048,0.323c0.108,-0.016 0.178,0.084 0.21,0.3l0.048,0.324c0.124,0.092 0.186,0.137 0.186,0.137l0.048,0.324c0.14,0.2 0.21,0.3 0.21,0.3l0.096,0.647c0.015,0.108 0.05,0.158 0.104,0.15c0.054,-0.008 0.089,0.042 0.105,0.149l0.048,0.324c0.032,0.216 0.11,0.37 0.234,0.461l0.12,0.809c0.016,0.108 0.055,0.185 0.117,0.231c0.062,0.046 0.101,0.123 0.117,0.231l0.168,1.132c0.032,0.216 0.083,0.374 0.153,0.474c0.069,0.1 0.12,0.258 0.152,0.473l3.623,24.432l-22.652,3.359l-3.359,-22.652c-0.112,-0.755 -0.27,-1.449 -0.473,-2.08c-0.204,-0.631 -0.462,-1.254 -0.774,-1.869c-1.602,-2.629 -3.794,-4.399 -6.574,-5.309c-1.946,-0.483 -3.674,-0.613 -5.184,-0.389l-56.63,8.396l5.038,33.978l-22.652,3.359l-13.434,-90.608Zm23.707,3.76l3.982,26.859l56.63,-8.396c3.129,-0.464 5.634,-1.965 7.518,-4.504c1.883,-2.54 2.593,-5.373 2.129,-8.501l-2.303,-15.533c-0.288,-1.942 -1.237,-3.51 -2.847,-4.704c-1.61,-1.194 -3.386,-1.648 -5.328,-1.36l-53.717,7.965c-1.942,0.288 -3.51,1.237 -4.704,2.847c-1.194,1.61 -1.648,3.386 -1.36,5.327Z" style="fill:#e900a5;fill-rule:nonzero;"/><path d="M2420.16,259.541l-10.076,-67.956c-0.463,-3.129 -0.306,-6.156 0.473,-9.082c0.779,-2.927 2.041,-5.567 3.786,-7.92c1.746,-2.354 3.906,-4.327 6.481,-5.922c2.574,-1.594 5.426,-2.623 8.554,-3.087l90.608,-13.434l3.358,22.652l-83.488,12.379c-1.942,0.287 -3.51,1.236 -4.704,2.847c-1.195,1.61 -1.648,3.386 -1.36,5.327l2.303,15.533l67.956,-10.076l3.359,22.652l-67.956,10.076l2.303,15.533c0.287,1.941 1.236,3.509 2.847,4.704c1.61,1.194 3.386,1.647 5.327,1.36l83.489,-12.379l3.359,22.652l-90.608,13.434c-3.129,0.464 -6.156,0.306 -9.082,-0.472c-2.927,-0.779 -5.567,-2.041 -7.92,-3.787c-2.353,-1.745 -4.327,-3.906 -5.922,-6.48c-1.594,-2.575 -2.623,-5.426 -3.087,-8.554Z" style="fill:#e900a5;fill-rule:nonzero;"/><path d="M2553.6,262.905l-13.434,-90.608c-0.464,-3.128 -0.307,-6.155 0.472,-9.082c0.779,-2.927 2.041,-5.566 3.787,-7.92c1.745,-2.353 3.905,-4.327 6.48,-5.921c2.575,-1.595 5.426,-2.624 8.554,-3.088l67.956,-10.075c3.128,-0.464 6.156,-0.306 9.082,0.472c2.927,0.779 5.567,2.041 7.92,3.787c2.353,1.745 4.327,3.905 5.921,6.48c1.595,2.575 2.624,5.426 3.088,8.554l13.434,90.608l-22.652,3.359l-5.038,-33.978l-67.956,10.075l5.038,33.978l-22.652,3.359Zm82.211,-70.064l-3.982,-26.859c-0.288,-1.942 -1.237,-3.51 -2.847,-4.704c-1.61,-1.194 -3.386,-1.647 -5.328,-1.36l-53.717,7.965c-1.942,0.288 -3.51,1.237 -4.704,2.847c-1.194,1.61 -1.648,3.386 -1.36,5.328l3.982,26.858l67.956,-10.075Z" style="fill:#e900a5;fill-rule:nonzero;"/><path d="M2695.7,126.087l12.378,83.489c0.288,1.942 1.237,3.51 2.847,4.704c1.611,1.194 3.386,1.648 5.328,1.36l83.489,-12.379l3.358,22.652l-90.608,13.434c-3.128,0.464 -6.155,0.307 -9.082,-0.472c-2.926,-0.779 -5.566,-2.041 -7.919,-3.787c-2.354,-1.745 -4.328,-3.905 -5.922,-6.48c-1.594,-2.575 -2.623,-5.426 -3.087,-8.554l-13.434,-90.608l22.652,-3.359Z" style="fill:#e900a5;fill-rule:nonzero;"/><path d="M2292.93,335.006l513.29,-76.104" style="fill:none;stroke:#e900a5;stroke-width:16.25px;"/></g><g><path d="M2895.77,287.179l0,-91.599c0,-3.162 0.6,-6.133 1.8,-8.914c1.199,-2.781 2.835,-5.207 4.907,-7.279c2.072,-2.072 4.498,-3.707 7.278,-4.907c2.781,-1.199 5.753,-1.799 8.915,-1.799l68.699,-0c3.162,-0 6.134,0.6 8.914,1.799c2.781,1.2 5.207,2.835 7.279,4.907c2.072,2.072 3.708,4.498 4.907,7.279c1.2,2.781 1.799,5.752 1.799,8.914l0,91.599l-22.899,-0l-0,-34.35l-68.699,0l-0,34.35l-22.9,-0Zm91.599,-57.249l-0,-27.153c-0,-1.962 -0.709,-3.653 -2.127,-5.07c-1.417,-1.418 -3.107,-2.127 -5.07,-2.127l-54.305,0c-1.963,0 -3.653,0.709 -5.071,2.127c-1.417,1.417 -2.126,3.108 -2.126,5.07l-0,27.153l68.699,-0Z" style="fill:#fff;fill-rule:nonzero;"/><path d="M3033.66,184.131c-0,-3.163 1.117,-5.862 3.353,-8.097c2.235,-2.235 4.934,-3.353 8.097,-3.353c3.271,-0 5.943,1.145 8.014,3.435l72.134,71.97l0,-75.405l22.9,-0l-0,103.048c-0,3.162 -1.118,5.861 -3.353,8.097c-2.236,2.235 -4.935,3.353 -8.097,3.353c-3.271,-0 -5.943,-1.145 -8.015,-3.435l-72.134,-71.97l0,75.405l-22.899,-0l-0,-103.048Z" style="fill:#fff;fill-rule:nonzero;"/><path d="M3263.31,172.681c3.163,-0 6.134,0.6 8.915,1.799c2.78,1.2 5.207,2.835 7.279,4.907c2.071,2.072 3.707,4.498 4.907,7.279c1.199,2.781 1.799,5.752 1.799,8.914l-0,11.45l-22.9,0l0,-4.253c0,-1.962 -0.709,-3.653 -2.126,-5.07c-1.418,-1.418 -3.108,-2.127 -5.071,-2.127l-61.502,0l0,68.699l61.502,0c1.963,0 3.653,-0.709 5.071,-2.126c1.417,-1.418 2.126,-3.108 2.126,-5.071l0,-4.253l22.9,0l-0,11.45c-0,3.163 -0.6,6.134 -1.799,8.915c-1.2,2.78 -2.836,5.207 -4.907,7.279c-2.072,2.071 -4.499,3.707 -7.279,4.907c-2.781,1.199 -5.752,1.799 -8.915,1.799l-91.598,-0l-0,-114.498l91.598,-0Z" style="fill:#fff;fill-rule:nonzero;"/><rect x="3307.31" y="172.681" width="22.9" height="114.498" style="fill:#fff;fill-rule:nonzero;"/><path d="M3353.44,264.279l-0,-68.699c-0,-3.162 0.599,-6.133 1.799,-8.914c1.199,-2.781 2.835,-5.207 4.907,-7.279c2.072,-2.072 4.498,-3.707 7.279,-4.907c2.78,-1.199 5.752,-1.799 8.914,-1.799l91.599,-0l-0,22.899l-84.402,0c-1.963,0 -3.653,0.709 -5.07,2.127c-1.418,1.417 -2.127,3.108 -2.127,5.07l0,15.703l68.699,0l0,22.9l-68.699,-0l0,15.702c0,1.963 0.709,3.653 2.127,5.071c1.417,1.417 3.107,2.126 5.07,2.126l84.402,0l-0,22.9l-91.599,-0c-3.162,-0 -6.134,-0.6 -8.914,-1.799c-2.781,-1.2 -5.207,-2.836 -7.279,-4.907c-2.072,-2.072 -3.708,-4.499 -4.907,-7.279c-1.2,-2.781 -1.799,-5.752 -1.799,-8.915Z" style="fill:#fff;fill-rule:nonzero;"/><path d="M3485.11,184.131c-0,-3.163 1.117,-5.862 3.353,-8.097c2.235,-2.235 4.934,-3.353 8.096,-3.353c3.272,-0 5.943,1.145 8.015,3.435l72.134,71.97l0,-75.405l22.9,-0l-0,103.048c-0,3.162 -1.118,5.861 -3.354,8.097c-2.235,2.235 -4.934,3.353 -8.096,3.353c-3.272,-0 -5.943,-1.145 -8.015,-3.435l-72.134,-71.97l0,75.405l-22.899,-0l-0,-103.048Z" style="fill:#fff;fill-rule:nonzero;"/><path d="M3614.66,172.681l114.498,-0l0,22.899l-45.799,0l-0,91.599l-22.9,-0l0,-91.599l-45.799,0l-0,-22.899Z" style="fill:#fff;fill-rule:nonzero;"/><path d="M3785.09,172.681l82.438,-0c0.109,0.109 0.164,0.163 0.164,0.163l1.472,0c0.218,0.109 0.327,0.164 0.327,0.164l0.981,-0c0.11,0.109 0.273,0.163 0.491,0.163l0.327,0c0.109,0 0.191,0.028 0.246,0.082c0.054,0.055 0.136,0.082 0.245,0.082l0.327,0c0.109,0 0.191,0.027 0.246,0.082c0.054,0.054 0.136,0.082 0.245,0.082l0.327,-0c0.109,0.109 0.273,0.163 0.491,0.163c0.218,0 0.327,0.055 0.327,0.164l0.491,-0c0.109,-0 0.163,0.054 0.163,0.163l0.327,0c0.109,0 0.218,0.055 0.327,0.164l0.164,-0c0.109,-0 0.218,0.054 0.327,0.163l0.164,0c0.218,0.11 0.436,0.191 0.654,0.246c0.218,0.054 0.436,0.136 0.654,0.245l0.164,0c0.654,0.218 1.145,0.436 1.472,0.654l0.327,0c0.545,0.219 1.009,0.437 1.39,0.655c0.382,0.218 0.791,0.436 1.227,0.654c0.109,0.109 0.218,0.164 0.327,0.164l0,0.163c0.109,0 0.382,0.109 0.818,0.327c0.109,0.109 0.218,0.164 0.327,0.164c0.218,0.218 0.327,0.327 0.327,0.327c0.109,-0 0.273,0.109 0.491,0.327c0.109,0 0.327,0.109 0.654,0.327c0.328,0.218 0.546,0.382 0.655,0.491c0.109,0.109 0.218,0.164 0.327,0.164l0.491,0.49l0.163,0c0,0 0.109,0.109 0.327,0.327c0.109,0.109 0.218,0.164 0.327,0.164l1.145,1.145c0.218,-0 0.327,0.109 0.327,0.327c0.219,0.109 0.328,0.164 0.328,0.164l1.799,1.799c-0,0.109 0.027,0.163 0.082,0.163c0.054,0 0.081,0.055 0.081,0.164c0.219,0 0.328,0.109 0.328,0.327c0.109,0 0.163,0.027 0.163,0.082c0,0.054 0.055,0.082 0.164,0.082l-0,0.163l0.818,0.818c0.109,0.218 0.163,0.327 0.163,0.327c0.218,0.218 0.327,0.327 0.327,0.327c0.109,0.219 0.164,0.328 0.164,0.328c0.218,0.218 0.327,0.327 0.327,0.327c0.109,0.218 0.164,0.327 0.164,0.327l-0,0.163l0.49,0.491c0.109,0.109 0.164,0.218 0.164,0.327c0.109,0.109 0.163,0.191 0.163,0.246c0,0.054 0.055,0.136 0.164,0.245c-0,0.109 0.027,0.164 0.082,0.164c0.054,-0 0.082,0.054 0.082,0.163l0.327,0.327c-0,0.218 0.054,0.327 0.163,0.327c0.109,0.218 0.164,0.328 0.164,0.328c0.109,0.109 0.163,0.272 0.163,0.49c0,0 0.109,0.109 0.328,0.327c-0,0.109 0.054,0.218 0.163,0.327c0.109,0.219 0.164,0.355 0.164,0.409c-0,0.055 0.054,0.191 0.163,0.409c0.109,0.109 0.164,0.218 0.164,0.327c0.109,0.11 0.163,0.219 0.163,0.328c0.218,0.436 0.437,0.981 0.655,1.635c0.109,0 0.163,0.109 0.163,0.327l0.327,0.655l0,0.163c0.109,0.109 0.164,0.218 0.164,0.327c-0,0.109 0.054,0.219 0.163,0.328l0,0.327c0.11,0.109 0.164,0.218 0.164,0.327c0,0.109 0.055,0.218 0.164,0.327l-0,0.327c0.109,0.218 0.163,0.382 0.163,0.491c0,0.109 0.055,0.272 0.164,0.491l-0,0.327c0.109,-0 0.163,0.109 0.163,0.327l0,0.327c0.109,0.109 0.164,0.163 0.164,0.163l-0,0.328c0.109,0.218 0.163,0.327 0.163,0.327l0,0.654c0,0.109 0.028,0.164 0.082,0.164c0.055,-0 0.082,0.054 0.082,0.163l0,0.327c0,0.218 0.055,0.382 0.164,0.491l-0,0.818c-0,0.109 0.027,0.191 0.081,0.245c0.055,0.055 0.082,0.137 0.082,0.246l0,1.145c0,0.218 0.027,0.381 0.082,0.49c0.054,0.109 0.082,0.273 0.082,0.491l-0,3.598c-0,0.219 -0.028,0.382 -0.082,0.491c-0.055,0.109 -0.082,0.273 -0.082,0.491l0,1.145c0,0.109 -0.027,0.191 -0.082,0.245c-0.054,0.055 -0.081,0.137 -0.081,0.246l-0,0.817c-0.109,0.109 -0.164,0.273 -0.164,0.491l0,0.327c0,0.109 -0.027,0.164 -0.082,0.164c-0.054,-0 -0.082,0.054 -0.082,0.163l0,0.655c-0.109,0.109 -0.163,0.218 -0.163,0.327l-0,0.327c-0,0.109 -0.055,0.164 -0.164,0.164l0,0.327c0,0.218 -0.054,0.327 -0.163,0.327l-0,0.327c-0.109,0.218 -0.164,0.382 -0.164,0.491c0,0.109 -0.054,0.272 -0.163,0.49l-0,0.327c-0.109,0.219 -0.164,0.328 -0.164,0.328c0,0.109 -0.054,0.218 -0.164,0.327l0,0.327l-0.327,0.654l0,0.164c-0.218,0.436 -0.327,0.654 -0.327,0.654c0,0.109 -0.109,0.382 -0.327,0.818l0,0.327c-0.109,0.218 -0.218,0.382 -0.327,0.491c-0,0.109 -0.055,0.218 -0.164,0.327c-0.109,0.218 -0.163,0.327 -0.163,0.327c-0,0.109 -0.027,0.191 -0.082,0.245c-0.055,0.055 -0.082,0.137 -0.082,0.246c-0.109,0.109 -0.272,0.381 -0.49,0.818c-0.11,0.218 -0.219,0.436 -0.328,0.654c0,0.218 -0.109,0.436 -0.327,0.654c-0.109,0.109 -0.163,0.191 -0.163,0.245c-0,0.055 -0.055,0.137 -0.164,0.246c-0.109,0.109 -0.163,0.218 -0.163,0.327c-0,-0 -0.11,0.109 -0.328,0.327c0,0.109 -0.109,0.327 -0.327,0.654c-0.218,0.327 -0.381,0.546 -0.49,0.655l-0.164,0.163c-0.218,0.218 -0.354,0.409 -0.409,0.573c-0.054,0.163 -0.191,0.354 -0.409,0.572l-0.163,0.164l-0,0.163c-0.109,0 -0.164,0.028 -0.164,0.082c-0,0.055 -0.055,0.082 -0.164,0.082c0,0.109 -0.109,0.272 -0.327,0.491l-0.327,0.327c-0.109,0.109 -0.163,0.218 -0.163,0.327c-3.163,3.489 -6.952,6.27 -11.368,8.342c-4.417,2.072 -9.188,3.108 -14.313,3.108l-57.249,-0l0,45.799l-22.899,-0l-0,-114.498Zm22.899,45.799l57.249,0c3.163,0 5.861,-1.118 8.097,-3.353c2.235,-2.236 3.353,-4.934 3.353,-8.097c0,-3.162 -1.118,-5.861 -3.353,-8.096c-2.236,-2.236 -4.934,-3.354 -8.097,-3.354l-57.249,0l0,22.9Z" style="fill:#fff;fill-rule:nonzero;"/><path d="M3913.33,195.58c0,-3.162 0.6,-6.133 1.8,-8.914c1.199,-2.781 2.835,-5.207 4.907,-7.279c2.072,-2.072 4.498,-3.707 7.279,-4.907c2.78,-1.199 5.752,-1.799 8.914,-1.799l68.699,-0c3.162,-0 6.134,0.6 8.914,1.799c2.781,1.2 5.207,2.835 7.279,4.907c2.072,2.072 3.708,4.498 4.907,7.279c1.2,2.781 1.8,5.752 1.8,8.914l-0,24.699c-0,0.218 -0.028,0.382 -0.082,0.491c-0.055,0.109 -0.082,0.273 -0.082,0.491l0,1.145c0,0.109 -0.027,0.191 -0.082,0.245c-0.054,0.055 -0.082,0.136 -0.082,0.245l0,0.818c-0.109,0.109 -0.163,0.273 -0.163,0.491l-0,0.327c-0,0.109 -0.027,0.164 -0.082,0.164c-0.054,-0 -0.082,0.054 -0.082,0.163l0,0.654c-0.109,0.11 -0.163,0.219 -0.163,0.328l-0,0.327c-0,0.109 -0.055,0.163 -0.164,0.163l0,0.327c0,0.219 -0.054,0.328 -0.163,0.328l-0,0.327c-0.109,0.218 -0.164,0.381 -0.164,0.49c0,0.11 -0.054,0.273 -0.164,0.491l0,0.327c-0.109,0.218 -0.163,0.327 -0.163,0.327c-0,0.109 -0.055,0.219 -0.164,0.328l0,0.327l-0.327,0.654l0,0.164c-0.218,0.436 -0.327,0.654 -0.327,0.654c0,0.109 -0.109,0.381 -0.327,0.818l-0,0.327c-0.109,0.218 -0.218,0.381 -0.327,0.491c-0,0.109 -0.055,0.218 -0.164,0.327c-0.109,0.218 -0.163,0.327 -0.163,0.327c-0,0.109 -0.028,0.191 -0.082,0.245c-0.055,0.055 -0.082,0.136 -0.082,0.246c-0.109,0.109 -0.273,0.381 -0.491,0.817c-0.109,0.218 -0.218,0.437 -0.327,0.655c0,0.218 -0.109,0.436 -0.327,0.654c-0.109,0.109 -0.163,0.191 -0.163,0.245c-0,0.055 -0.055,0.137 -0.164,0.246c-0.109,0.109 -0.164,0.218 -0.164,0.327c0,-0 -0.109,0.109 -0.327,0.327c0,0.109 -0.109,0.327 -0.327,0.654c-0.218,0.327 -0.382,0.545 -0.491,0.654l-0.163,0.164c-0.218,0.218 -0.355,0.409 -0.409,0.572c-0.055,0.164 -0.191,0.355 -0.409,0.573l-0.164,0.164l0,0.163c-0.109,0 -0.163,0.027 -0.163,0.082c-0,0.054 -0.055,0.082 -0.164,0.082c0,0.109 -0.109,0.272 -0.327,0.49l-0.327,0.328c-0.109,0.109 -0.164,0.218 -0.164,0.327l0,0.163c0.11,0 0.164,0.027 0.164,0.082c0,0.055 0.055,0.082 0.164,0.082l-0,0.163l0.817,0.818c0.11,0.218 0.164,0.327 0.164,0.327c0.218,0.218 0.327,0.327 0.327,0.327c0.109,0.219 0.164,0.328 0.164,0.328c0.218,0.218 0.327,0.327 0.327,0.327c0.109,0.218 0.163,0.327 0.163,0.327l0,0.163c0,0 0.109,0.11 0.328,0.328c0.109,0.109 0.163,0.218 0.163,0.327l0.164,-0l-0,0.163c0.327,0.327 0.49,0.6 0.49,0.818l0.328,0.327c-0,0.218 0.054,0.327 0.163,0.327c0.109,0.219 0.164,0.328 0.164,0.328c0.109,0.109 0.163,0.272 0.163,0.49c0,0 0.109,0.109 0.327,0.327c0,0.109 0.055,0.219 0.164,0.328c0.109,0.218 0.164,0.354 0.164,0.408c-0,0.055 0.054,0.191 0.163,0.409c0.109,0.109 0.164,0.218 0.164,0.328c0.109,0.109 0.163,0.218 0.163,0.327c0.218,0.436 0.436,0.981 0.655,1.635c0.109,0 0.163,0.109 0.163,0.327l0.327,0.655l0,0.163l0.327,0.655l0,0.327c0.109,0.109 0.164,0.218 0.164,0.327c-0,0.109 0.054,0.218 0.163,0.327l0,0.327c0.11,0.218 0.164,0.382 0.164,0.491c0,0.109 0.055,0.272 0.164,0.491l-0,0.327c0.109,-0 0.163,0.109 0.163,0.327l0,0.327c0.109,0.109 0.164,0.164 0.164,0.164l-0,0.327c0.109,0.218 0.163,0.327 0.163,0.327l0,0.654c0,0.109 0.028,0.164 0.082,0.164c0.055,-0 0.082,0.054 0.082,0.163l-0,0.327c-0,0.218 0.054,0.382 0.163,0.491l0,0.818c0,0.109 0.028,0.191 0.082,0.245c0.055,0.055 0.082,0.137 0.082,0.246l0,1.145c0,0.218 0.027,0.381 0.082,0.49c0.054,0.109 0.082,0.273 0.082,0.491l-0,24.699l-22.9,-0l-0,-22.9c-0,-0.763 -0.055,-1.472 -0.164,-2.126c-0.109,-0.654 -0.272,-1.309 -0.49,-1.963c-1.2,-2.835 -3.108,-4.907 -5.725,-6.216c-1.854,-0.763 -3.544,-1.145 -5.071,-1.145l-57.249,0l0,34.35l-22.9,-0l0,-91.599Zm22.9,7.197l0,27.153l57.249,-0c3.163,-0 5.861,-1.118 8.097,-3.353c2.235,-2.236 3.353,-4.935 3.353,-8.097l-0,-15.703c-0,-1.962 -0.709,-3.653 -2.126,-5.07c-1.418,-1.418 -3.108,-2.127 -5.071,-2.127l-54.305,0c-1.963,0 -3.653,0.709 -5.07,2.127c-1.418,1.417 -2.127,3.108 -2.127,5.07Z" style="fill:#fff;fill-rule:nonzero;"/><path d="M4050.89,264.279l-0,-68.699c-0,-3.162 0.6,-6.133 1.799,-8.914c1.2,-2.781 2.835,-5.207 4.907,-7.279c2.072,-2.072 4.498,-3.707 7.279,-4.907c2.781,-1.199 5.752,-1.799 8.914,-1.799l68.699,-0c3.163,-0 6.134,0.6 8.915,1.799c2.78,1.2 5.207,2.835 7.279,4.907c2.071,2.072 3.707,4.498 4.907,7.279c1.199,2.781 1.799,5.752 1.799,8.914l-0,68.699c-0,3.163 -0.6,6.134 -1.799,8.915c-1.2,2.78 -2.836,5.207 -4.907,7.279c-2.072,2.071 -4.499,3.707 -7.279,4.907c-2.781,1.199 -5.752,1.799 -8.915,1.799l-68.699,-0c-3.162,-0 -6.133,-0.6 -8.914,-1.799c-2.781,-1.2 -5.207,-2.836 -7.279,-4.907c-2.072,-2.072 -3.707,-4.499 -4.907,-7.279c-1.199,-2.781 -1.799,-5.752 -1.799,-8.915Zm22.899,-7.197c0,1.963 0.709,3.653 2.127,5.071c1.417,1.417 3.108,2.126 5.07,2.126l54.305,0c1.963,0 3.653,-0.709 5.071,-2.126c1.418,-1.418 2.126,-3.108 2.126,-5.071l0,-54.305c0,-1.962 -0.708,-3.653 -2.126,-5.07c-1.418,-1.418 -3.108,-2.127 -5.071,-2.127l-54.305,0c-1.962,0 -3.653,0.709 -5.07,2.127c-1.418,1.417 -2.127,3.108 -2.127,5.07l0,54.305Z" style="fill:#fff;fill-rule:nonzero;"/><path d="M4188.62,172.681l82.438,-0c0.109,0.109 0.164,0.163 0.164,0.163l1.472,0c0.218,0.109 0.327,0.164 0.327,0.164l0.982,-0c0.109,0.109 0.272,0.163 0.49,0.163l0.327,0c0.109,0 0.191,0.028 0.246,0.082c0.054,0.055 0.136,0.082 0.245,0.082l0.327,0c0.109,0 0.191,0.027 0.246,0.082c0.054,0.054 0.136,0.082 0.245,0.082l0.327,-0c0.109,0.109 0.273,0.163 0.491,0.163c0.218,0 0.327,0.055 0.327,0.164l0.491,-0c0.109,-0 0.163,0.054 0.163,0.163l0.327,0c0.109,0 0.218,0.055 0.328,0.164l0.163,-0c0.109,-0 0.218,0.054 0.327,0.163l0.164,0c0.218,0.11 0.436,0.191 0.654,0.246c0.218,0.054 0.436,0.136 0.654,0.245l0.164,0c0.654,0.218 1.145,0.436 1.472,0.654l0.327,0c0.545,0.219 1.009,0.437 1.39,0.655c0.382,0.218 0.791,0.436 1.227,0.654c0.109,0.109 0.218,0.164 0.327,0.164l0,0.163c0.109,0 0.382,0.109 0.818,0.327c0.109,0.109 0.218,0.164 0.327,0.164c0.218,0.218 0.328,0.327 0.328,0.327c0.109,-0 0.272,0.109 0.49,0.327c0.109,0 0.327,0.109 0.654,0.327c0.328,0.218 0.546,0.382 0.655,0.491c0.109,0.109 0.218,0.164 0.327,0.164l0.491,0.49l0.163,0c0,0 0.109,0.109 0.327,0.327c0.109,0.109 0.218,0.164 0.327,0.164l1.145,1.145c0.219,-0 0.328,0.109 0.328,0.327c0.218,0.109 0.327,0.164 0.327,0.164l1.799,1.799c-0,0.109 0.027,0.163 0.082,0.163c0.054,0 0.082,0.055 0.082,0.164c0.218,0 0.327,0.109 0.327,0.327c0.109,0 0.163,0.027 0.163,0.082c0,0.054 0.055,0.082 0.164,0.082l-0,0.163l0.818,0.818c0.109,0.218 0.163,0.327 0.163,0.327c0.218,0.218 0.327,0.327 0.327,0.327c0.109,0.219 0.164,0.328 0.164,0.328c0.218,0.218 0.327,0.327 0.327,0.327c0.109,0.218 0.164,0.327 0.164,0.327l-0,0.163l0.49,0.491c0.109,0.109 0.164,0.218 0.164,0.327c0.109,0.109 0.163,0.191 0.163,0.246c0,0.054 0.055,0.136 0.164,0.245c0,0.109 0.027,0.164 0.082,0.164c0.054,-0 0.082,0.054 0.082,0.163l0.327,0.327c-0,0.218 0.054,0.327 0.163,0.327c0.109,0.218 0.164,0.328 0.164,0.328c0.109,0.109 0.163,0.272 0.163,0.49c0,0 0.11,0.109 0.328,0.327c-0,0.109 0.054,0.218 0.163,0.327c0.109,0.219 0.164,0.355 0.164,0.409c-0,0.055 0.054,0.191 0.163,0.409c0.109,0.109 0.164,0.218 0.164,0.327c0.109,0.11 0.163,0.219 0.163,0.328c0.219,0.436 0.437,0.981 0.655,1.635c0.109,0 0.163,0.109 0.163,0.327l0.327,0.655l0,0.163c0.109,0.109 0.164,0.218 0.164,0.327c-0,0.109 0.055,0.219 0.164,0.328l-0,0.327c0.109,0.109 0.163,0.218 0.163,0.327c0,0.109 0.055,0.218 0.164,0.327l-0,0.327c0.109,0.218 0.163,0.382 0.163,0.491c0,0.109 0.055,0.272 0.164,0.491l-0,0.327c0.109,-0 0.163,0.109 0.163,0.327l0,0.327c0.109,0.109 0.164,0.163 0.164,0.163l-0,0.328c0.109,0.218 0.164,0.327 0.164,0.327l-0,0.654c-0,0.109 0.027,0.164 0.081,0.164c0.055,-0 0.082,0.054 0.082,0.163l0,0.327c0,0.218 0.055,0.382 0.164,0.491l-0,0.818c-0,0.109 0.027,0.191 0.081,0.245c0.055,0.055 0.082,0.137 0.082,0.246l0,1.145c0,0.218 0.028,0.381 0.082,0.49c0.055,0.109 0.082,0.273 0.082,0.491l-0,3.598c-0,0.219 -0.027,0.382 -0.082,0.491c-0.054,0.109 -0.082,0.273 -0.082,0.491l0,1.145c0,0.109 -0.027,0.191 -0.082,0.245c-0.054,0.055 -0.081,0.137 -0.081,0.246l-0,0.817c-0.109,0.109 -0.164,0.273 -0.164,0.491l0,0.327c0,0.109 -0.027,0.164 -0.082,0.164c-0.054,-0 -0.081,0.054 -0.081,0.163l-0,0.655c-0.109,0.109 -0.164,0.218 -0.164,0.327l-0,0.327c-0,0.109 -0.055,0.164 -0.164,0.164l0,0.327c0,0.218 -0.054,0.327 -0.163,0.327l-0,0.327c-0.109,0.218 -0.164,0.382 -0.164,0.491c0,0.109 -0.054,0.272 -0.163,0.49l-0,0.327c-0.109,0.219 -0.164,0.328 -0.164,0.328c0,0.109 -0.054,0.218 -0.163,0.327l-0,0.327l-0.328,0.654l0,0.164c-0.218,0.436 -0.327,0.654 -0.327,0.654c0,0.109 -0.109,0.382 -0.327,0.818l0,0.327c-0.109,0.218 -0.218,0.382 -0.327,0.491c0,0.109 -0.055,0.218 -0.164,0.327c-0.109,0.218 -0.163,0.327 -0.163,0.327c-0,0.109 -0.027,0.191 -0.082,0.245c-0.054,0.055 -0.082,0.137 -0.082,0.246c-0.109,0.109 -0.272,0.381 -0.49,0.818c-0.109,0.218 -0.218,0.436 -0.328,0.654c0,0.218 -0.109,0.436 -0.327,0.654c-0.109,0.109 -0.163,0.191 -0.163,0.245c-0,0.055 -0.055,0.137 -0.164,0.246c-0.109,0.109 -0.163,0.218 -0.163,0.327c-0,-0 -0.109,0.109 -0.328,0.327c0,0.109 -0.109,0.327 -0.327,0.654c-0.218,0.327 -0.381,0.546 -0.49,0.655l-0.164,0.163c-0.218,0.218 -0.354,0.409 -0.409,0.573c-0.054,0.163 -0.191,0.354 -0.409,0.572l-0.163,0.164l-0,0.163c-0.109,0 -0.164,0.028 -0.164,0.082c0,0.055 -0.054,0.082 -0.163,0.082c-0,0.109 -0.11,0.272 -0.328,0.491l-0.327,0.327c-0.109,0.109 -0.163,0.218 -0.163,0.327c-3.163,3.489 -6.952,6.27 -11.368,8.342c-4.417,2.072 -9.187,3.108 -14.313,3.108l-57.249,-0l0,45.799l-22.899,-0l-0,-114.498Zm22.899,45.799l57.249,0c3.163,0 5.862,-1.118 8.097,-3.353c2.235,-2.236 3.353,-4.934 3.353,-8.097c0,-3.162 -1.118,-5.861 -3.353,-8.096c-2.235,-2.236 -4.934,-3.354 -8.097,-3.354l-57.249,0l0,22.9Z" style="fill:#fff;fill-rule:nonzero;"/><path d="M4317.02,172.681l22.9,-0l-0,45.799l68.699,0l-0,-45.799l22.899,-0l0,114.498l-22.899,-0l-0,-45.799l-68.699,-0l-0,45.799l-22.9,-0l0,-114.498Z" style="fill:#fff;fill-rule:nonzero;"/><path d="M4454.74,264.279l0,-68.699c0,-3.162 0.6,-6.133 1.799,-8.914c1.2,-2.781 2.836,-5.207 4.907,-7.279c2.072,-2.072 4.499,-3.707 7.279,-4.907c2.781,-1.199 5.752,-1.799 8.915,-1.799l91.598,-0l0,22.899l-84.401,0c-1.963,0 -3.653,0.709 -5.071,2.127c-1.418,1.417 -2.126,3.108 -2.126,5.07l-0,15.703l68.699,0l-0,22.9l-68.699,-0l-0,15.702c-0,1.963 0.708,3.653 2.126,5.071c1.418,1.417 3.108,2.126 5.071,2.126l84.401,0l0,22.9l-91.598,-0c-3.163,-0 -6.134,-0.6 -8.915,-1.799c-2.78,-1.2 -5.207,-2.836 -7.279,-4.907c-2.071,-2.072 -3.707,-4.499 -4.907,-7.279c-1.199,-2.781 -1.799,-5.752 -1.799,-8.915Z" style="fill:#fff;fill-rule:nonzero;"/><path d="M4678.02,172.681c3.163,-0 6.134,0.6 8.915,1.799c2.781,1.2 5.207,2.835 7.279,4.907c2.072,2.072 3.707,4.498 4.907,7.279c1.199,2.781 1.799,5.752 1.799,8.914l0,11.45l-22.9,0l0,-4.253c0,-1.962 -0.708,-3.653 -2.126,-5.07c-1.418,-1.418 -3.108,-2.127 -5.071,-2.127l-61.501,0l-0,68.699l61.501,0c1.963,0 3.653,-0.709 5.071,-2.126c1.418,-1.418 2.126,-3.108 2.126,-5.071l0,-4.253l22.9,0l0,11.45c0,3.163 -0.6,6.134 -1.799,8.915c-1.2,2.78 -2.835,5.207 -4.907,7.279c-2.072,2.071 -4.498,3.707 -7.279,4.907c-2.781,1.199 -5.752,1.799 -8.915,1.799l-91.598,-0l-0,-114.498l91.598,-0Z" style="fill:#fff;fill-rule:nonzero;"/><rect x="4722.02" y="172.681" width="22.9" height="114.498" style="fill:#fff;fill-rule:nonzero;"/><path d="M4768.14,264.279l-0,-68.699c-0,-3.162 0.6,-6.133 1.799,-8.914c1.2,-2.781 2.835,-5.207 4.907,-7.279c2.072,-2.072 4.498,-3.707 7.279,-4.907c2.781,-1.199 5.752,-1.799 8.914,-1.799l91.599,-0l-0,22.899l-84.402,0c-1.962,0 -3.653,0.709 -5.07,2.127c-1.418,1.417 -2.127,3.108 -2.127,5.07l0,15.703l68.699,0l0,22.9l-68.699,-0l0,15.702c0,1.963 0.709,3.653 2.127,5.071c1.417,1.417 3.108,2.126 5.07,2.126l84.402,0l-0,22.9l-91.599,-0c-3.162,-0 -6.133,-0.6 -8.914,-1.799c-2.781,-1.2 -5.207,-2.836 -7.279,-4.907c-2.072,-2.072 -3.707,-4.499 -4.907,-7.279c-1.199,-2.781 -1.799,-5.752 -1.799,-8.915Z" style="fill:#fff;fill-rule:nonzero;"/><path d="M4896.54,287.179l0,-22.9l80.149,0c3.162,0 5.861,-1.117 8.097,-3.353c2.235,-2.235 3.353,-4.934 3.353,-8.097c-0,-3.162 -1.118,-5.861 -3.353,-8.096c-2.236,-2.236 -4.935,-3.353 -8.097,-3.353l-45.799,-0c-4.798,-0 -9.269,-0.9 -13.413,-2.699c-4.144,-1.799 -7.769,-4.253 -10.877,-7.361c-3.108,-3.108 -5.562,-6.761 -7.361,-10.959c-1.799,-4.198 -2.699,-8.642 -2.699,-13.331c0,-4.689 0.9,-9.132 2.699,-13.331c1.799,-4.198 4.253,-7.851 7.361,-10.959c3.108,-3.108 6.733,-5.561 10.877,-7.36c4.144,-1.8 8.615,-2.699 13.413,-2.699l80.148,-0l0,22.899l-80.148,0c-3.163,0 -5.862,1.118 -8.097,3.354c-2.235,2.235 -3.353,4.934 -3.353,8.096c-0,3.163 1.118,5.861 3.353,8.097c2.235,2.235 4.934,3.353 8.097,3.353l45.799,0c4.798,0 9.269,0.9 13.413,2.699c4.143,1.799 7.769,4.253 10.877,7.361c3.108,3.107 5.561,6.76 7.36,10.959c1.8,4.198 2.699,8.642 2.699,13.33c0,4.689 -0.899,9.133 -2.699,13.331c-1.799,4.199 -4.252,7.852 -7.36,10.959c-3.108,3.108 -6.734,5.562 -10.877,7.361c-4.144,1.799 -8.615,2.699 -13.413,2.699l-80.149,-0Z" style="fill:#fff;fill-rule:nonzero;"/><path d="M5037.83,258.107l-4.393,-62.057l0,-25.957l17.811,0l-0,25.957l-4.154,62.057l-9.264,0Zm-3.754,29.072l0,-16.373l16.533,0l-0,16.373l-16.533,-0Z" style="fill:#fff;fill-rule:nonzero;"/></g></g></g><g id="tryforit"><path d="M246.488,217.414l57.929,97.381l-115.857,-0l57.928,-97.381Z" style="fill:#e90044;fill-opacity:0.11;stroke:#00ffa7;stroke-width:9.53px;"/><path d="M361.461,217.414l57.928,97.381l-115.857,-0l57.929,-97.381Z" style="fill:#e90044;fill-opacity:0.11;stroke:#00ffa7;stroke-width:9.53px;"/><path d="M304.077,120.881l57.929,97.381l-115.858,0l57.929,-97.381Z" style="fill:#e90044;fill-opacity:0.11;stroke:#00ffa7;stroke-width:9.53px;"/></g></svg>