<?xml version="1.0" encoding="UTF-8" standalone="no"?><!DOCTYPE svg PUBLIC "-//W3C//DTD SVG 1.1//EN" "http://www.w3.org/Graphics/SVG/1.1/DTD/svg11.dtd"><svg width="100%" height="100%" viewBox="0 0 1383 779" version="1.1" xmlns="http://www.w3.org/2000/svg" xmlns:xlink="http://www.w3.org/1999/xlink" xml:space="preserve" xmlns:serif="http://www.serif.com/" style="fill-rule:evenodd;clip-rule:evenodd;stroke-linecap:round;stroke-linejoin:round;stroke-miterlimit:1.5;"><rect id="Artboard1" x="0" y="0" width="1382.22" height="778.064" style="fill:none;"/><g><path d="M291.349,413.072c-3.377,-25.866 -27.118,-44.124 -52.984,-40.747l-90.581,11.825c-25.865,3.376 -44.124,27.117 -40.747,52.983l1.992,15.259c3.377,25.865 27.118,44.124 52.984,40.747l90.58,-11.825c25.866,-3.377 44.124,-27.118 40.748,-52.984l-1.992,-15.258Z" style="fill:none;stroke:#00ffca;stroke-width:18.17px;"/><path d="M507.671,368.013c-5.885,-25.413 -31.295,-41.266 -56.708,-35.381l-88.994,20.611c-25.412,5.885 -41.266,31.295 -35.38,56.708l3.472,14.991c5.885,25.413 31.295,41.266 56.708,35.381l88.994,-20.611c25.412,-5.886 41.266,-31.296 35.38,-56.708l-3.472,-14.991Z" style="fill:none;stroke:#00ffca;stroke-width:18.17px;"/><path d="M1266.41,232.916c-11,-23.652 -39.133,-33.925 -62.786,-22.926l-82.83,38.52c-23.653,10.999 -33.926,39.133 -22.926,62.785l6.488,13.953c11,23.653 39.133,33.926 62.785,22.926l82.831,-38.52c23.653,-10.999 33.926,-39.132 22.926,-62.785l-6.488,-13.953Z" style="fill:none;stroke:#00ffca;stroke-width:18.17px;"/><path d="M1075.14,344.119c-1.557,-26.039 -23.961,-45.915 -50,-44.358l-91.186,5.451c-26.039,1.557 -45.915,23.961 -44.359,50l0.919,15.36c1.557,26.039 23.961,45.915 49.999,44.359l91.187,-5.452c26.039,-1.557 45.915,-23.961 44.358,-49.999l-0.918,-15.361Z" style="fill:none;stroke:#00ffca;stroke-width:18.17px;"/><path d="M641.219,342.927l-42.912,-7.33c-25.713,-4.392 -50.155,12.917 -54.547,38.63l-2.59,15.169c-4.392,25.712 12.917,50.154 38.63,54.546l43.572,7.442" style="fill:none;stroke:#00ffca;stroke-width:18.17px;"/><path d="M761.569,428.093l43.255,4.917c25.919,2.947 49.353,-15.703 52.3,-41.622l1.738,-15.289c2.946,-25.918 -15.704,-49.353 -41.622,-52.299l-43.92,-4.994" style="fill:none;stroke:#00ffca;stroke-width:18.17px;"/><path d="M244.788,431.869l117.97,-27.623" style="fill:none;stroke:#00ffca;stroke-width:29.69px;"/><path d="M467.184,384.086l120.89,8.094" style="fill:none;stroke:#00ffca;stroke-width:29.69px;"/><path d="M814.593,384.499l117.783,-28.41" style="fill:none;stroke:#00ffca;stroke-width:29.69px;"/><path d="M1031.97,356.012l108.879,-53.153" style="fill:none;stroke:#00ffca;stroke-width:29.69px;"/></g><g><path d="M389.681,537.186l123.38,-58.468l-115.553,107.728l-7.827,-49.26l7.827,49.26" style="fill:#00ffdc;"/><path d="M483.137,579.08l16.113,12.43l45.577,-82.867l-61.69,70.437Z" style="fill:#00ffdc;"/><path d="M503.854,684.045l23.939,9.207l62.151,-157.447l-86.09,148.24Z" style="fill:#00ffdc;"/><path d="M600.532,636.626l20.717,8.747l14.732,-81.946l-35.449,73.199Z" style="fill:#00ffdc;"/><path d="M785.602,545.472l73.66,116.935l46.958,-8.747l-120.618,-108.188Z" style="fill:#00ffdc;"/><path d="M810.923,509.563l75.961,59.849l17.494,-17.034l-93.455,-42.815Z" style="fill:#00ffdc;"/><path d="M823.813,468.59l172.64,50.641l-0.46,-27.162l-172.18,-23.479Z" style="fill:#00ffdc;"/><path d="M866.167,252.675c6.446,-0.46 110.03,-85.169 110.03,-85.169l-21.178,-43.275c0,0 -95.297,128.905 -88.852,128.444Z" style="fill:#00ffdc;"/><path d="M828.417,226.894l43.735,-76.421l-19.335,-13.351l-24.4,89.772Z" style="fill:#00ffdc;"/><path d="M775.474,231.038l22.558,-172.64l-25.32,-2.762l2.762,175.402Z" style="fill:#00ffdc;"/><path d="M654.856,207.098l-45.116,-130.745l-54.785,-1.842l99.901,132.587Z" style="fill:#00ffdc;"/><path d="M612.962,236.102l-52.943,-68.596l-20.716,8.287l73.659,60.309Z" style="fill:#00ffdc;"/><path d="M598.691,278.917l-148.24,-87.011l-12.891,25.321l161.131,61.69Z" style="fill:#00ffdc;"/></g></svg>