<?xml version="1.0" encoding="UTF-8" standalone="no"?><!DOCTYPE svg PUBLIC "-//W3C//DTD SVG 1.1//EN" "http://www.w3.org/Graphics/SVG/1.1/DTD/svg11.dtd"><svg width="100%" height="100%" viewBox="0 0 401 213" version="1.1" xmlns="http://www.w3.org/2000/svg" xmlns:xlink="http://www.w3.org/1999/xlink" xml:space="preserve" xmlns:serif="http://www.serif.com/" style="fill-rule:evenodd;clip-rule:evenodd;stroke-linecap:round;stroke-linejoin:round;stroke-miterlimit:1.5;"><rect id="Artboard1" x="0" y="0" width="400.71" height="212.478" style="fill:none;"/><g><ellipse cx="203.147" cy="106.781" rx="182.631" ry="89.391" style="fill:url(#_Linear1);stroke:url(#_Linear2);stroke-width:9.78px;"/><path d="M140.116,85.325c7.787,-13.784 23.359,-13.784 31.147,-6.891c7.787,6.891 7.787,20.679 -0,34.463c-5.451,10.34 -19.466,20.678 -31.147,27.572c-11.682,-6.894 -25.697,-17.232 -31.147,-27.572c-7.788,-13.784 -7.788,-27.572 -0,-34.463c7.787,-6.893 23.359,-6.893 31.147,6.891Z" style="fill:#ff00df;"/><path d="M270.109,85.325c7.788,-13.784 23.36,-13.784 31.147,-6.891c7.785,6.891 7.785,20.679 0,34.463c-5.453,10.34 -19.469,20.678 -31.147,27.572c-11.681,-6.894 -25.697,-17.232 -31.146,-27.572c-7.788,-13.784 -7.788,-27.572 -0,-34.463c7.787,-6.893 23.359,-6.893 31.146,6.891Z" style="fill:#ff00df;"/><path d="M193.731,113.028c0.278,-2.253 1.175,-4.266 2.691,-6.034c1.515,-1.769 3.309,-3.022 5.378,-3.76c1.15,-0.412 2.344,-0.618 3.587,-0.618c0.044,-0 0.069,-0.013 0.069,-0.035c0,-0.025 0.022,-0.034 0.069,-0.034l-0,0.069l2.069,-0c1.009,-0.047 1.897,-0.416 2.653,-1.104c0.759,-0.69 1.206,-1.54 1.347,-2.553l1.172,-9.515c0.09,-1.01 -0.163,-1.86 -0.76,-2.55c-0.597,-0.691 -1.403,-1.035 -2.412,-1.035l-17.21,0l0.825,-6.828l17.21,0c1.287,0 2.459,0.21 3.518,0.622c1.932,0.734 3.425,1.988 4.482,3.759c1.056,1.769 1.447,3.779 1.172,6.032l-1.172,9.515l-0.069,0.622c-0.231,1.335 -0.7,2.597 -1.412,3.794c-0.713,1.194 -1.576,2.228 -2.588,3.103c-1.009,0.872 -2.15,1.572 -3.413,2.103c-1.265,0.528 -2.587,0.816 -3.965,0.86l-2.413,-0c-0.965,-0 -1.84,0.356 -2.622,1.068c-0.781,0.713 -1.218,1.553 -1.309,2.519l-1.309,10.825c-0.138,0.966 0.09,1.794 0.687,2.484c0.6,0.688 1.381,1.057 2.347,1.104l22.075,-0l-0.897,6.825l-22.212,-0c-0.6,-0 -1.163,-0.057 -1.691,-0.172c-0.528,-0.116 -1.047,-0.266 -1.55,-0.447c-1.841,-0.738 -3.287,-1.922 -4.347,-3.553c-1.056,-1.632 -1.515,-3.528 -1.378,-5.688l0.069,-0.622l0.622,-4.756l0.137,-1.244l0.55,-4.756Z" style="fill:#cecece;fill-rule:nonzero;"/></g><defs><linearGradient id="_Linear1" x1="0" y1="0" x2="1" y2="0" gradientUnits="userSpaceOnUse" gradientTransform="matrix(8.94956,88.7684,-88.7684,8.94956,175.703,6.83938)"><stop offset="0" style="stop-color:#fff;stop-opacity:1"/><stop offset="1" style="stop-color:#8b8b8b;stop-opacity:1"/></linearGradient><linearGradient id="_Linear2" x1="0" y1="0" x2="1" y2="0" gradientUnits="userSpaceOnUse" gradientTransform="matrix(365.266,0,0,365.266,20.5156,106.781)"><stop offset="0" style="stop-color:#cdcdcd;stop-opacity:1"/><stop offset="1" style="stop-color:#c5c5c5;stop-opacity:1"/></linearGradient></defs></svg>