<?xml version="1.0" encoding="UTF-8" standalone="no"?><!DOCTYPE svg PUBLIC "-//W3C//DTD SVG 1.1//EN" "http://www.w3.org/Graphics/SVG/1.1/DTD/svg11.dtd"><svg width="100%" height="100%" viewBox="0 0 401 213" version="1.1" xmlns="http://www.w3.org/2000/svg" xmlns:xlink="http://www.w3.org/1999/xlink" xml:space="preserve" xmlns:serif="http://www.serif.com/" style="fill-rule:evenodd;clip-rule:evenodd;stroke-linecap:round;stroke-linejoin:round;stroke-miterlimit:1.5;"><rect id="Artboard1" x="0" y="0" width="400.71" height="212.478" style="fill:none;"/><g><g><path d="M135.359,84.377c7.788,-13.785 23.359,-13.785 31.147,-6.891c7.787,6.891 7.787,20.678 -0,34.463c-5.45,10.34 -19.466,20.678 -31.147,27.571c-11.681,-6.893 -25.697,-17.231 -31.147,-27.571c-7.787,-13.785 -7.787,-27.572 0,-34.463c7.788,-6.894 23.36,-6.894 31.147,6.891Z" style="fill:#ff00df;"/><path d="M265.353,84.377c7.787,-13.785 23.359,-13.785 31.147,-6.891c7.784,6.891 7.784,20.678 -0,34.463c-5.453,10.34 -19.469,20.678 -31.147,27.571c-11.681,-6.893 -25.697,-17.231 -31.147,-27.571c-7.788,-13.785 -7.788,-27.572 -0,-34.463c7.787,-6.894 23.359,-6.894 31.147,6.891Z" style="fill:#ff00df;"/><path d="M188.975,112.08c0.278,-2.253 1.175,-4.266 2.69,-6.035c1.516,-1.768 3.31,-3.021 5.378,-3.759c1.15,-0.412 2.344,-0.619 3.588,-0.619c0.044,0 0.069,-0.012 0.069,-0.034c-0,-0.025 0.022,-0.034 0.068,-0.034l0,0.068l2.069,0c1.01,-0.047 1.897,-0.415 2.653,-1.103c0.76,-0.69 1.207,-1.54 1.347,-2.553l1.172,-9.516c0.091,-1.009 -0.162,-1.859 -0.759,-2.55c-0.597,-0.69 -1.403,-1.034 -2.413,-1.034l-17.209,0l0.825,-6.828l17.209,-0c1.288,-0 2.46,0.209 3.519,0.622c1.931,0.734 3.425,1.987 4.481,3.759c1.056,1.769 1.447,3.778 1.172,6.031l-1.172,9.516l-0.069,0.622c-0.231,1.334 -0.7,2.597 -1.412,3.794c-0.713,1.193 -1.575,2.228 -2.588,3.103c-1.009,0.872 -2.15,1.572 -3.412,2.103c-1.266,0.528 -2.588,0.816 -3.966,0.859l-2.412,0c-0.966,0 -1.841,0.357 -2.622,1.069c-0.781,0.713 -1.219,1.553 -1.309,2.519l-1.31,10.825c-0.137,0.965 0.091,1.794 0.688,2.484c0.6,0.688 1.381,1.056 2.347,1.103l22.075,0l-0.897,6.825l-22.213,0c-0.6,0 -1.162,-0.056 -1.69,-0.172c-0.529,-0.115 -1.047,-0.265 -1.55,-0.446c-1.841,-0.738 -3.288,-1.922 -4.347,-3.554c-1.057,-1.631 -1.516,-3.528 -1.378,-5.687l0.068,-0.622l0.622,-4.756l0.138,-1.244l0.55,-4.756Z" style="fill:#cecece;fill-rule:nonzero;"/></g><path d="M370.082,66.12c0,-22.142 -17.977,-40.119 -40.119,-40.119l-259.217,0c-22.142,0 -40.119,17.977 -40.119,40.119l0,80.238c0,22.142 17.977,40.119 40.119,40.119l259.217,-0c22.142,-0 40.119,-17.977 40.119,-40.119l0,-80.238Z" style="fill:none;stroke:#00ffce;stroke-width:12.18px;"/></g></svg>