<?xml version="1.0" encoding="UTF-8" standalone="no"?><!DOCTYPE svg PUBLIC "-//W3C//DTD SVG 1.1//EN" "http://www.w3.org/Graphics/SVG/1.1/DTD/svg11.dtd">
<svg width="100%" height="100%" viewBox="0 0 1050 900" version="1.1"
    xmlns="http://www.w3.org/2000/svg"
    xmlns:xlink="http://www.w3.org/1999/xlink" xml:space="preserve"
    xmlns:serif="http://www.serif.com/" style="fill-rule:evenodd;clip-rule:evenodd;stroke-linecap:round;stroke-linejoin:round;stroke-miterlimit:1.5;">
    <filter id="neon">
        <feFlood flood-color="rgb(255,255,128)" flood-opacity="0.5" in="SourceGraphic" />
        <feComposite operator="in" in2="SourceGraphic" />
        <feGaussianBlur stdDeviation="10" />
        <feComponentTransfer result="glow1">
            <feFuncA type="linear" slope="4" intercept="0" />
        </feComponentTransfer>
        <feMerge>
            <feMergeNode in="glow1" />
            <feMergeNode in="SourceGraphic" />
        </feMerge>
    </filter>
    <style>
        #g {
            animation: 10s gwv linear infinite alternate-reverse;
        }
        @keyframes gwv {
            0% {
                d: path("M623.549,342.074c-5.278,-1.948 -10.727,-3.911 -16.294,-5.837c-44.479,-15.392 -96.44,-28.467 -127.75,-13.451c-49.86,23.913 -92.178,47.422 -127.433,48.142c-25.187,0.514 -61.287,-6.631 -105.547,-22.238c-58.303,-20.559 -140.147,-9.037 -208.912,64.711c7.453,-31.449 25.187,-70.992 42.665,-89.074c66.43,-35.765 121.605,-29.742 169.479,-8.621c58.861,25.967 66.239,30.398 108.395,27.694c42.457,-2.722 70.077,-27.141 115.44,-45.095c30.509,-12.075 93.605,-3.341 115.415,6.924c3.098,1.458 5.364,2.947 6.584,4.412c0.191,0.231 23.037,25.924 27.958,32.433Z");
            }
            50% {
                d: path("M623.549,342.074c-74.595,-20.089 -102.133,14.485 -140.23,5.241c-45.739,-11.099 -95.768,-37.214 -127.078,-22.198c-49.86,23.913 -68.907,46.07 -104.169,45.811c-56.888,-0.418 -56.688,-26.773 -106.186,-34.746c-33.979,-5.474 -42.34,7.117 -81.699,-15.294c7.881,-7.413 12.718,-18.775 12.787,-18.737c36.427,19.953 51.124,3.731 74.454,9.302c50.379,12.032 64.568,34.651 106.724,31.947c42.457,-2.722 53.424,-31.402 98.238,-50.69c49.795,-21.431 106.395,9.173 150.516,21.564c27.691,7.777 53.857,-12.017 88.685,-4.633c0.293,0.063 23.037,25.924 27.958,32.433Z");
            }
        }
        #r {
            animation: 10s rwv linear infinite alternate-reverse;
        }
        @keyframes rwv {
            0% {
                d: path("M575.527,284.307l-28.229,-32.975c-8.139,-0.654 -15.592,-1.148 -22.492,-1.445c-45.763,-1.972 -67.234,4.677 -103.597,30.205c-18.383,12.905 -45.726,31.64 -79.863,31.369c-38.32,-0.305 -78.983,-37.324 -108.19,-47.954c-16.059,-5.845 -76.908,-26.061 -127.825,4.249c49.334,-2.963 95.577,4.575 99.812,5.768c41.528,11.695 80.516,54.36 134.238,59.727c30.533,4.575 76.228,-25.387 117.721,-47.307c20.073,-10.605 47.781,-13.771 83.495,-8.655c10.894,1.561 22.534,3.892 34.93,7.018Z");
            }
            50% {
                d: path("M575.527,284.307l-28.229,-32.975c-5.616,7.636 -33.107,13.038 -40.007,12.74c-45.763,-1.972 -87.809,-46.874 -131.047,-36.654c-43.275,10.229 -85.777,71.628 -119.915,71.356c-38.319,-0.305 -61.543,-38.847 -92.612,-37.986c-34.42,0.954 -37.524,12.348 -69.973,23.494c46.528,-1.033 65.364,2.612 69.598,3.805c41.528,11.695 36.423,30.964 90.144,36.331c30.534,4.575 83.215,-58.758 129.766,-64.693c26.497,-3.378 88.336,19.954 123.075,29.694c29.394,8.241 56.804,-8.238 69.2,-5.112Z");
            }
        }
        #y {
            animation: 10s ywv linear infinite alternate-reverse;
        }
        @keyframes ywv {
            0% {
                d: path("M595.591,309.641l-20.064,-25.334c-8.246,-4.118 -16.736,-7.029 -25.276,-8.956c-45.444,-10.252 -92.319,7.351 -111.387,19.05c-48.791,29.936 -103.949,51.051 -168.11,10.719c-45.01,-28.293 -94.266,-48.192 -163.899,-37.114c12.938,6.918 27.472,12 45.393,13.186c-32.888,14.732 -56.642,27.97 -71.341,42.702c50.012,-23.651 114.439,-18.78 187.262,7.756c61.965,22.579 112.699,12.198 145.594,-6.181c25.439,-14.213 65.667,-41.267 139.227,-27.425c13.107,2.466 27.272,6.231 42.601,11.597Z");
            }
            50% {
                d: path("M595.591,309.641l-20.064,-25.334c-37.887,6.852 -57.592,4.831 -66.164,3.05c-33.525,-6.964 -77.009,-34.885 -123.64,-30.439c-65.973,6.29 -105.379,90.438 -166.436,56.766c-31.388,-17.31 -53.109,-36.725 -125.849,-28.756c17.2,5.892 26.527,4.805 31.06,11.138c-22.839,-3.426 -27.282,7.412 -46.951,5.921c14.667,31.201 53.757,-5.672 122.192,29.52c93.257,47.957 110.396,-35.973 188.896,-42.212c55.485,-4.41 67.817,13.186 118.362,28.336c20.142,6.037 73.265,-13.356 88.594,-7.99Z");
            }
        }
        #tp>path:nth-of-type(2) {
            animation: 10s tp2 linear infinite alternate-reverse;
            animation-play-state: inherit;
        }
        @keyframes tp2 {
            50% {
                d: path("M284.789,214.845c13.521,0.434 22.141,-2.969 30.198,-7.512c6.944,-3.915 18.512,-12.204 21.384,-15.892c3.8,-4.882 14.177,-22.395 52.767,-9.811c39.707,12.947 42.408,22.997 61.832,13.132c29.393,-14.929 60.778,16.004 60.778,16.004l13.223,15.847c-0,0 -44.792,-21.271 -65.945,-10.2c-17.189,8.997 -40.662,2.768 -61.61,-3.615c-23.1,-7.038 -30.934,-7.031 -48.328,-2.059c-7.919,2.264 -16.114,10.594 -31.986,10.945c-6.291,0.139 -19.618,-0.3 -32.313,-6.839Z");
            }
        }
        #tp>path:nth-of-type(1) {
            animation: 10s tp1 linear infinite alternate-reverse;
            animation-play-state: inherit;
        }
        @keyframes tp1 {
            50% {
                d: path("M256.131,202.553c33.944,-20.653 56.64,-5.827 69.995,-10.327c14.376,-4.845 23.029,-17.827 35.651,-19.775c13.833,-2.133 28.156,5.267 39.82,11.076c23.558,11.732 47.683,-14.645 85.037,-1.577c-29.428,-25.98 -72.444,-6.993 -82.945,-13.359c-6.63,-4.02 -16.833,-21.683 -47.403,-19.664c-8.28,0.547 -23.373,9.436 -36.389,24.413c-13.849,15.935 -31.085,-3.01 -63.766,29.213Z");
            }            
        }


        #eyes>ellipse {
            fill: #fff;
            filter: blur(.05em) drop-shadow(0 0 .1em #f60);
            animation: 2s eyes linear infinite;
            animation-play-state: inherit;
        }
        @keyframes eyes {
            33% {
                fill: #fff;
                filter: blur(.05em) drop-shadow(0 0 .5em #fff);
            }
            66% {
                fill: #fff8c2;
                filter: blur(.05em) drop-shadow(0 0 1em #fff8c2);
            }
        }
        #lion>path {
            fill: #b65aff;
            stroke: #fff;
            stroke-width: .3em;
        }
        path#ft {
            stroke-width: .3em;
            stroke: #fff;
            filter: blur(.02em) drop-shadow(0 0 .5em #fff8c2);
            animation: 2s ft infinite;
        }
        @keyframes ft {
            33% {
                stroke: #fff8c2;
            }
            66% {
                stroke: #fee0c1;
            }
        }
        #lion {
            filter: drop-shadow(.2em .2em 1em #fff);
        }
        #play *, #play {
            animation-play-state: paused;
        }
        #play:target * {
            animation-play-state: running;
        }

        
    </style>
    <g id="play">
        <g id="lion">
            <path d="M405.777,806.043c-7.386,-3.597 -13.81,-2.069 -19.668,2.482l-88.031,0.573c-25.25,-23.418 -38.536,-60.976 -46.975,-104.262c1.535,-55.391 91.43,-112.8 87.267,-154.101c4.16,-79.085 43.848,-112.477 95.859,-117.629c105.861,1.032 182.064,-6.053 191.147,-31.507c-12.435,2.004 -21.873,-1.686 -29.216,-9.357c26.885,-9.621 42.05,-24.369 44.493,-44.684l-172.242,-205.277l-5.92,3.628l-6.302,-6.111l4.392,-5.537l-19.095,-34.754l30.171,24.633l6.11,-2.864l5.729,6.301l-4.774,5.729l169.951,198.594c7.105,-50.777 26.563,-89.387 67.789,-106.553c49.461,11.595 95.347,11.7 137.679,0.381c6.796,2.726 14.142,7.321 23.488,18.714c2.339,-2.371 2.816,-7.431 0.572,-16.422c27.407,30.467 33.646,66.365 30.364,106.498c-0.605,7.396 -2.734,2.861 0.38,11.131c25.333,67.277 23.998,128.58 -14.321,181.599c6.736,-21.576 8.158,-42.14 4.201,-61.679l-4.774,0.955c3.16,38.672 -14.169,72.719 -42.583,104.261c-0.034,0.037 27.475,5.826 91.658,7.448c23.9,0.603 45.237,26.016 39.337,57.477c-1.909,-9.42 -7.383,-15.276 -16.422,-17.568c7.068,11.915 3.944,22.331 -6.301,31.699c0.935,-10.094 -3.037,-17.149 -12.794,-20.623c2.859,11.446 0.196,18.597 -6.111,22.915c1.154,-9.248 -1.599,-15.322 -8.593,-17.95l-24.251,0.955l72.563,80.774c4.07,-0.256 5.501,1.973 5.919,5.156c10.663,3.5 14.347,10.752 7.83,23.487c-14.416,5.411 -20.788,1.1 -20.815,-10.884c-3.991,-0.604 -6.366,-2.644 -6.492,-6.684l-76.573,-88.412c-27.237,2.392 -57.22,3.353 -89.941,2.1c1.493,21.864 0.444,43.446 -11.839,63.779c-2.946,22.101 3.201,42.443 16.041,61.488c23.987,-1.165 43.74,1.736 54.995,12.794c-7.791,-1.594 -14.492,0.827 -15.659,3.819c13.471,0.113 22.09,8.581 25.207,17.377c-12.19,-2.705 -19.255,-0.286 -23.297,5.156l-85.166,0c-16.306,-14.31 -26.978,-34.766 -32.081,-61.297c-27.814,-29.676 -39.275,-63.51 -37.045,-100.824c-59.537,-24.692 -104.45,-41.056 -141.262,-42.848c-4.752,27.342 -12.809,38.616 -30.598,56.978c-14.674,17.587 -48.356,33.945 -52.704,47.357c-1.573,22.938 7.81,42.433 24.06,59.77c4.879,5.204 14.71,7.57 21.496,7.577c14.316,0.015 22.334,4.438 25.479,11.136l-12.603,0.191c16.862,3.642 24.385,10.68 24.443,20.432c-8.689,-1.985 -16.009,-2.089 -20.624,1.528l-87.266,0c-12.018,-2.738 -22.745,-13.757 -28.644,-55.759c1.335,-8.149 -5.677,-24.646 -13.558,-42.01c-3.437,-0.573 -6.619,2.419 -9.547,8.975c-4.499,-11.842 -2.567,-26.541 6.683,-44.493c24.328,-14.861 38.489,-48.371 38.489,-48.371c8.168,-7.616 15.009,-14.864 21.089,-21.901c-18.147,21.259 -39.541,41.202 -76.573,54.805c-28.719,9.47 -55.118,20.981 -58.814,43.728c-2.274,15.923 -1.618,33.338 24.251,63.589c10.481,0.477 20.772,3.978 30.744,12.603c10.017,-0.439 17.735,2.284 23.678,7.447c-7.906,-0.905 -13.735,0.268 -16.04,4.965c15.4,5.101 22.855,9.221 21.96,17.377Z"/>
            <path d="M890.423,638.575l17.568,-3.437"/>
            <path d="M973.488,733.671c2.126,-5.914 6.109,-10.384 12.985,-12.603"/>
            <path d="M980.786,715.948c-4.294,0.247 -10.924,5.845 -13.657,11.15"/>
            <path d="M691.638,642.967c62.304,10.193 72.176,-4.876 108.844,-2.292"/>
            <path d="M550.536,600.119c-29.757,2.974 -62.593,6.004 -93.677,1.235"/>
            <path d="M456.893,601.205c19.754,-22.707 33.542,-46.149 34.337,-71.189"/>
            <path d="M640.51,347.413l188.581,220.013"/>
            <path d="M851.586,570.804c-18.095,-2.26 -36.191,-4.722 -53.244,-8.727"/>
            <path d="M851.263,570.435l-202.74,-238.757"/>
            <path d="M478.871,133.146c-2.962,3.685 -6.261,6.717 -10.454,9.07"/>
            <path d="M460.539,134.107c2.932,-3.863 6.547,-7.244 11.222,-9.877"/>
            <path d="M678.993,165.269l46.425,53.755c39.997,9.778 79.195,9.795 117.59,0l47.647,-54.671c-5.947,-3.848 -14.858,-3.213 -28.1,3.97c2.655,19.589 -17.99,33.664 -33.956,28.967c-17.737,-5.219 -12.635,-29.342 14.511,-36.643l-13.846,-15.231c-4.766,12.493 -12.91,19.38 -26.573,17.104c-12.988,-5.371 -13.166,-13.879 0,-25.656c-8.5,-8.35 -18.783,-11.099 -32.986,-1.527c11.525,14.982 12.242,23.346 0.306,25.656c-10.802,3.509 -19.64,-2.796 -27.183,-15.577l-14.518,14.437c26.457,10.3 33.459,26.422 18.545,35.264c-14.335,8.498 -38.735,-2.552 -37.93,-25.877c-10.874,-8.949 -20.687,-8.87 -29.932,-3.971Z"/>
            <path d="M741.491,381.776c0.087,-8.34 -1.321,-16.979 -4.222,-25.917c-12.14,-12.284 -21.866,-29.225 -27.439,-54.174c0.663,-3.919 1.512,-7.666 2.532,-11.253"/>
            <path d="M720.696,270.259c2.609,-4.669 5.571,-9.012 8.834,-13.075c12.981,2.95 26.418,2.095 40.807,-6.684l30.429,-0.879c12.547,7.913 25.094,10.614 37.641,9.146c3.541,3.637 6.564,7.496 9.122,11.555"/>
            <path d="M856.275,290.563c1.046,3.889 1.822,7.894 2.359,12.001c-4.732,20.415 -13.56,38.099 -25.328,53.823c-3.484,6.573 -6,15.496 -7.282,27.416"/>
            <path d="M360.996,473.503c-20.876,-6.254 -48.144,-6.002 -67.735,9.603c-14.277,13.76 -20.989,28.655 -22.413,44.343c1.467,35.83 -0.502,57.919 -6.747,62.901c-22.253,24.46 -44.505,27.836 -66.757,13.737c-18.376,-15.302 -23.323,-31.051 -22.413,-46.995c1.204,-18.669 11.807,-30.176 26.51,-38.559c33.158,-11.98 50.148,-32.043 57.599,-56.876c30.483,-13.396 7.482,-30.268 9.88,-63.383c-5.269,4.703 -8.468,12.167 -7.952,24.582c-7.895,-7.082 -10.342,-17.097 -9.881,-28.678c-6.485,6.062 -9.662,15.708 -8.435,30.124c-5.222,-3.293 -6.91,-10.12 -6.989,-18.557c-11.932,18.357 -10.164,33.62 -2.169,47.477c-1.828,15.178 -18.899,29.086 -51.574,41.693c-25.493,18.966 -37.648,39.837 -36.15,62.659c3.412,52.852 31.353,74.099 68.203,83.868c40.576,3.404 67.391,-15.776 82.903,-53.502c7.893,-19.195 0.002,-58.575 7.953,-72.54c8.907,-15.645 27.977,-20.746 42.668,-17.111"/>
            <path d="M233.658,452.921c3.456,7.229 10.726,11.058 25.532,8.166"/>
            <path d="M765.767,341.693c12.279,-1.138 24.691,-1.676 37.596,-0c1.447,0.169 3.197,0.886 4.116,2.538c-0.144,0.061 0.009,3.736 -0,3.842c-0.134,1.495 -0.667,2.956 -2.333,3.842c-5.317,1.177 -6.888,-0.301 -13.917,5.395c-0.056,0.045 -0.338,4.388 -0.009,8.257c6.8,6.846 14.456,12.194 22.845,16.26c5.377,1.482 9.026,1.956 11.8,1.921"/>
            <path d="M765.767,341.693c-1.99,0.867 -3.21,2.007 -3.43,3.498l-0.069,3.499c0.544,1.781 1.436,2.735 2.813,2.539c7.941,1.618 12.269,3.407 15.004,5.754l0.039,8.19c-6.367,8.565 -16.427,14.788 -24.373,16.242c-4.061,0.743 -7.732,1.521 -14.133,0.343"/>
            <path d="M765.684,396.186c-0,4.947 6.525,11.632 13.292,13.206l13.807,-0.257c6.603,-2.191 12.092,-8.27 12.092,-12.263c-2.156,-7.482 -9.08,-7.61 -19.21,-7.89c-10.01,-0.276 -16.923,0.408 -19.981,7.204Z"/>
            <path d="M720.977,270.271c18.553,-1.867 37.385,0.355 45.276,7.447c6.008,5.399 4.752,20.996 -0.357,34.916c-1.698,-7.58 -0.061,-18.995 -5.385,-21.233c-9.619,-4.044 -37.595,-8.24 -48.17,-0.961"/>
            <path d="M847.517,270.3c-18.605,-1.919 -37.108,0.29 -45.039,7.418c-6.008,5.399 -4.751,20.996 0.357,34.916c1.698,-7.58 0.061,-18.995 5.385,-21.233c9.505,-3.996 36.933,-8.141 47.787,-1.215"/>
            <path d="M626.018,400.878c9.31,-0.552 21.045,-5.952 34.21,-14.214c-8.192,27.681 -25.293,47.727 -46.979,63.843c7.739,2.754 30.269,6.142 51.515,-1.395c-4.251,22.756 -25.517,25.867 -45.425,33.628c19.221,13.855 49.02,19.739 76.899,-1.465c-3.358,27.1 -12.302,25.141 -29.746,37.894c20.265,2.705 46.578,4.556 66.2,-8.812c4.606,15.77 4.5,24.257 -5.167,46.395c24.101,-2.122 30.365,-9.208 40.521,-21.082c8.064,8.362 -0.6,33.791 -3.922,36.703c19.382,-1.334 35.332,-6.744 48.288,-24.144"/>
            <path id="ft" d="M259.04,461.657c30.483,-13.396 7.482,-30.268 9.88,-63.383c-5.269,4.703 -8.468,12.167 -7.952,24.582c-7.895,-7.082 -10.342,-17.097 -9.881,-28.678c-6.485,6.062 -9.662,15.708 -8.435,30.124c-5.222,-3.293 -6.91,-10.12 -6.989,-18.557c-11.932,18.357 -10.164,33.62 -2.169,47.477c3.777,6.547 14.836,13.141 25.546,8.435Z"/>
        </g>
        <g id="eyes">
            <path d="M744.064,295.923c16.904,-0 16.028,2.965 16.028,6.617c-0,3.652 -7.182,6.617 -16.028,6.617c-8.846,-0 -16.028,-2.965 -16.028,-6.617c-0,-3.652 -13.846,-6.617 16.028,-6.617Z" style="fill:none;stroke:#fff;stroke-width:2.13px;"/>
            <path d="M823.868,295.923c-16.905,-0 -16.028,2.965 -16.028,6.617c-0,3.652 7.182,6.617 16.028,6.617c8.846,-0 16.027,-2.965 16.027,-6.617c0,-3.652 13.846,-6.617 -16.027,-6.617Z" style="fill:none;stroke:#fff;stroke-width:2.13px;"/>
            <ellipse cx="745" cy="302.319" rx="11" ry="5"/>
            <ellipse cx="823" cy="302.319" rx="11" ry="5"/>
        </g>
        <g id="tp">
            <path d="M266.988,166.514c36.059,29.904 74.608,35.257 115.39,18.599c13.665,-6.589 26.777,-10.714 39.399,-12.662c13.833,-2.133 27.078,-1.65 39.82,1.076c8.564,1.832 16.902,4.678 25.037,8.423c-5.207,-9.257 -12.444,-16.993 -22.945,-23.359c-6.63,-4.02 -16.833,-11.683 -47.403,-9.664c-8.28,0.547 -21.215,4.847 -38.312,9.9c-27.083,8.005 -64.657,16.601 -110.986,7.687Z" style="fill:#7fcf7f;stroke:#fff;stroke-width:4.13px;"/>
            <path id="t1" d="M281.003,220.365c17.998,4.514 31.419,8.08 42.732,10.076c15.393,2.716 26.881,2.524 40.682,-2.141c10.227,-3.457 26.938,-12.845 54.721,-26.67c18.518,-7.963 50.705,-2.183 71.832,3.132c12.247,3.08 20.778,6.004 20.778,6.004l13.223,15.847c-0,0 -13.614,-7.371 -31.726,-11.548c-19.595,-4.518 -44.455,-5.297 -63.041,11.042c-33.157,29.15 -41.307,28.699 -66.328,29.062c-12.612,0.183 -28.726,-6.247 -44.314,-14.023c-14.346,-7.156 -28.246,-15.451 -38.559,-20.781Z" style="fill:#f00;stroke:#fff;stroke-width:4.13px;"/>
        </g>
        <g id="wv">
            <path id="r" d="M575.527,284.307l-28.229,-32.975c-8.139,-0.654 -15.592,-1.148 -22.492,-1.445c-45.763,-1.972 -67.234,4.677 -103.597,30.205c-18.383,12.905 -45.726,31.64 -79.863,31.369c-38.32,-0.305 -78.983,-37.324 -108.19,-47.954c-16.059,-5.845 -76.908,-26.061 -127.825,4.249c49.334,-2.963 95.577,4.575 99.812,5.768c41.528,11.695 80.516,54.36 134.238,59.727c30.533,4.575 76.228,-25.387 117.721,-47.307c20.073,-10.605 47.781,-13.771 83.495,-8.655c10.894,1.561 22.534,3.892 34.93,7.018Z" style="fill:#ff002e;stroke:#fff;stroke-width:4.13px;"/>
            <path id="y" d="M595.591,309.641l-20.064,-25.334c-8.246,-4.118 -16.736,-7.029 -25.276,-8.956c-45.444,-10.252 -92.319,7.351 -111.387,19.05c-48.791,29.936 -103.949,51.051 -168.11,10.719c-45.01,-28.293 -94.266,-48.192 -163.899,-37.114c12.938,6.918 27.472,12 45.393,13.186c-32.888,14.732 -56.642,27.97 -71.341,42.702c50.012,-23.651 114.439,-18.78 187.262,7.756c61.965,22.579 112.699,12.198 145.594,-6.181c25.439,-14.213 65.667,-41.267 139.227,-27.425c13.107,2.466 27.272,6.231 42.601,11.597Z" style="fill:#fe0;stroke:#fff;stroke-width:4.13px;"/>
            <path id="g" d="M623.549,342.074c-5.278,-1.948 -10.727,-3.911 -16.294,-5.837c-44.479,-15.392 -96.44,-28.467 -127.75,-13.451c-49.86,23.913 -92.178,47.422 -127.433,48.142c-25.187,0.514 -61.287,-6.631 -105.547,-22.238c-58.303,-20.559 -140.147,-9.037 -208.912,64.711c7.453,-31.449 25.187,-70.992 42.665,-89.074c66.43,-35.765 121.605,-29.742 169.479,-8.621c58.861,25.967 66.239,30.398 108.395,27.694c42.457,-2.722 70.077,-27.141 115.44,-45.095c30.509,-12.075 93.605,-3.341 115.415,6.924c3.098,1.458 5.364,2.947 6.584,4.412c0.191,0.231 23.037,25.924 27.958,32.433Z" style="fill:#7fcf7f;stroke:#fff;stroke-width:4.13px;"/>
        </g>
    </g>
</svg>