<?xml version="1.0" encoding="UTF-8" standalone="no"?><!DOCTYPE svg PUBLIC "-//W3C//DTD SVG 1.1//EN" "http://www.w3.org/Graphics/SVG/1.1/DTD/svg11.dtd">
<svg width="100%" height="100%" viewBox="0 0 7634 3004" version="1.1"
     xmlns="http://www.w3.org/2000/svg"
     xmlns:xlink="http://www.w3.org/1999/xlink" xml:space="preserve"
     xmlns:serif="http://www.serif.com/" style="fill-rule:evenodd;clip-rule:evenodd;stroke-linejoin:round;stroke-miterlimit:1.5;">
    <style>
        #myb{
            filter: drop-shadow(2em 2em 2em #4444dd);
        }
        #stkr>path{
            animation: 5s look ease-in-out infinite;
            stroke-width: 2em;
        }
        @keyframes look{
            0%{
                stroke-width: 2em;
            }
            10%{
                stroke-width: 3em;
            }
            20%{
                stroke-width: 2em;
            }
            30%{
                stroke-width: 3em;
            }
            40%{
                stroke-width: 2em;
            }
            50%{
                stroke-width: 3em;
            }
            60%{
                stroke-width: 2em;
            }
            70%{
                stroke-width: 2em;
            }
            100%{
                stroke-width: 2em;
            }
        }
    </style>

    <g id="robe">
        <path d="M868.918,955.606c-34.174,13.284 -56.407,21.579 -68.745,51.24c-175.7,75.096 -273.131,176.804 -312.358,298.301c-120.486,235.647 -223.063,472.041 -310.796,709.053l109.325,73.404l-4.686,73.404c-66.052,81.229 -74.144,133.205 -51.459,147.54c5.899,25.788 19.729,41.884 50.197,37.642c69.713,19.448 101.813,4.437 120.982,-21.194c14.118,-31.285 4.961,-61.466 -1.429,-83.181c2.301,-31.408 -5.112,-53.113 -18.336,-68.313l22.73,-52.21l49.006,3.583c45.381,-83.167 89.172,-169.193 121.926,-298.09c39.272,-108.153 62.879,-153.642 84.337,-190.538c-22.214,94.113 -8.359,143.768 28.112,165.549c-5.856,14.935 -8.188,30.751 -3.124,48.416c-86.881,82.346 -108.291,158.555 -107.763,232.706c-29.172,29.064 -60.244,48.622 -92.146,64.034c4.036,20.824 9.626,41.647 21.865,62.471c-156.612,174.639 -238.935,352.473 -268.628,532.571c9.909,74.584 62.341,115.296 154.132,110.728c85.666,21.128 159.203,18.001 217.574,-15.459c54.06,-48.936 78.841,-97.872 90.584,-146.808c13.56,34.529 45.64,49.287 89.049,49.333c50.478,0.053 78.691,-39.097 93.68,-86.817c13.897,-27.418 0.661,-53.604 -15.618,-79.651c-5.532,-21.934 -12.852,-33.136 -21.114,-38.692l43.5,-52.712c17.267,7.778 35.104,9.282 53.735,2.047c5.095,-20.641 8.386,-41.282 6.653,-61.923c56.267,0.56 110.003,0.683 126.407,-5.63c2.888,32.367 11.612,52.928 32.241,55.271c29.196,21.903 53.752,53.508 50.153,64.483c-13.135,42.954 -26.27,67.284 -39.406,87c-6.904,24.358 -10.095,35.287 3.071,60.389c21.87,41.697 42.452,55.073 62.947,66.529c11.275,7.695 33.249,8.852 69.089,1.536c29.441,-6.957 45.788,-18.802 49.641,-35.312l93.654,99.794c67.175,46.279 150.155,60.34 252.813,34.289c70.837,-23.411 109.304,-56.937 114.635,-100.818c12.526,-31.636 -9.966,-102.959 -58.853,-204.196c-26.369,-58.212 -63.701,-122.271 -110.542,-191.4c-79.21,-179.042 -173.988,-313.977 -269.701,-446.261c3.036,-17.912 1.911,-35.824 -4.606,-53.736c27.572,-10.885 38.626,-39.259 42.989,-74.718l10.235,-155.065c14.804,-0.502 29.037,6.983 42.477,25.588c42.645,144.12 73.631,283.638 170.93,449.332c18.196,5.25 43.216,1.402 73.694,-9.724l20.983,55.783c-12.112,18.423 -14.671,40.941 -7.677,67.553c-16.148,35.986 -18.997,67.222 3.071,89.559c38.894,26.396 77.788,28.534 116.683,3.071c30.309,-1.018 50.045,-10.407 47.594,-37.359c16.177,-16.188 19.476,-38.23 5.63,-68.065c-10.378,-26.702 -27.493,-52.281 -54.248,-76.254l-23.029,-72.159l88.024,-47.594c-85.067,-213.344 -179.004,-426.195 -288.637,-638.174c-11.102,-94.309 -44.541,-207.471 -148.413,-274.307c-48.125,-24.943 -110.683,-58.642 -188.842,-93.142c-20.853,-23.617 -50.279,-43.427 -87.512,-46.57c11.224,-27.336 13.684,-56.424 11.259,-86.489c34.462,-16.972 48.957,-46.146 34.289,-93.142c17.168,-67.023 13.537,-125.572 -6.142,-177.583c-71.574,-95.386 -269.315,-94.433 -334.695,0c-36.88,78.716 -34.918,130.36 -26.612,177.583c-15.516,45.026 1.007,68.081 33.265,80.348c0.432,39.36 4.7,73.349 11.956,103.156Z" style="fill:#d69bff;stroke:#ebcdff;stroke-width:12.5px;"/>
        <path d="M863.03,966.646c-34.174,13.285 -47.207,24.523 -62.857,40.2c-175.7,75.096 -273.131,176.804 -312.358,298.301c-120.486,235.647 -223.063,472.041 -310.796,709.053l109.325,73.404l117.999,33.688l49.006,3.583c45.381,-83.167 89.172,-169.193 121.926,-298.09c39.272,-108.153 62.879,-153.642 84.337,-190.538c-22.214,94.113 -8.359,143.768 28.112,165.549c-5.856,14.935 -8.188,30.751 -3.124,48.416c-86.881,82.346 -108.291,158.555 -107.763,232.706c-29.172,29.064 -60.244,48.622 -92.146,64.034c4.036,20.824 9.626,41.647 21.865,62.471c-156.612,174.639 -238.935,352.473 -268.628,532.571c9.909,74.584 62.341,115.296 154.132,110.728c85.666,21.128 159.203,18.001 217.574,-15.459c54.06,-48.936 78.841,-97.872 90.584,-146.808c-9.407,2.951 134.553,-177.366 145.997,-155.827l43.5,-52.712c17.267,7.778 35.104,9.282 53.735,2.047c5.095,-20.641 8.386,-41.282 6.653,-61.923c56.267,0.56 110.003,0.683 126.407,-5.63c2.888,32.367 11.612,52.928 32.241,55.271c29.196,21.903 53.752,53.508 50.153,64.483c13.723,23.261 115.971,158.324 145.342,180.142l93.654,99.794c67.175,46.279 150.155,60.34 252.813,34.289c70.837,-23.411 109.304,-56.937 114.635,-100.818c12.526,-31.636 -9.966,-102.959 -58.853,-204.196c-26.369,-58.212 -63.701,-122.271 -110.542,-191.4c-79.21,-179.042 -173.988,-313.977 -269.701,-446.261c3.036,-17.912 1.911,-35.824 -4.606,-53.736c27.572,-10.885 38.626,-39.259 42.989,-74.718l10.235,-155.065c14.804,-0.502 29.037,6.983 42.477,25.588c42.645,144.12 73.631,283.638 170.93,449.332c18.196,5.25 43.216,1.402 73.694,-9.724l109.007,-37.871l88.024,-47.594c-85.067,-213.344 -179.004,-426.195 -288.637,-638.174c-11.102,-94.309 -44.541,-207.471 -148.413,-274.307c-48.125,-24.943 -110.683,-58.642 -188.842,-93.142c-20.853,-23.617 -43.655,-39.379 -80.888,-42.522c2.345,58.15 -122.267,506.294 -140.406,446.485c-30.359,17.904 -157.485,-385.613 -148.786,-435.62Z" style="fill:#fff;fill-opacity:0.68;stroke:#fff;stroke-width:21.05px;"/>
        <path d="M793.802,1019.37c14.938,189.563 45.974,372.298 171.265,515.045c-25.114,40.005 -63.515,108.483 -158.764,298.777c-72.67,158.736 -181.101,255.885 -313.778,311.277" style="fill:none;stroke:#fff;stroke-width:21.05px;"/>
        <path d="M479.765,2242.2c130.187,-43.565 268.103,-90.623 391.544,-292.752l37.503,-60.005c32.485,-88.873 82.941,-191.569 158.764,-313.778c97.224,-162.134 149.465,-355.411 160.014,-577.551" style="fill:none;stroke:#fff;stroke-width:21.05px;"/>
        <path d="M497.478,2171.79c111.614,-52.691 223.099,-139.763 300.577,-247.073" style="fill:none;stroke:#fff;stroke-width:9.53px;"/>
        <path d="M504.099,2191.33c111.614,-52.691 236.32,-149.707 313.797,-257.017" style="fill:none;stroke:#fff;stroke-width:9.53px;"/>
        <path d="M868.258,1892.87c32.393,-74.075 61.909,-146.664 116.665,-232.28c50.664,-90.759 99.263,-182.737 134.491,-282.616c31.022,-66.555 60.492,-164 83.107,-397.97" style="fill:none;stroke:#fff;stroke-width:9.53px;"/>
        <path d="M429.898,2408.88c131.467,35.813 303.537,64.442 454.952,53.349c-6.956,-6.912 -8.938,-12.128 -8.219,-21.189c-127.502,16.61 -285.683,3.873 -446.733,-32.16Z" style="fill:#fff;stroke:#fff;stroke-width:9.53px;"/>
        <path d="M512.42,2209.58c128.895,-53.332 245.28,-158.35 322.758,-265.66" style="fill:none;stroke:#fff;stroke-width:9.53px;"/>
        <path d="M1152.97,958.71c-26.448,173.601 -68.376,316.169 -122.567,432.435c-21.576,46.438 -41.219,104.937 -66.134,144.698" style="fill:none;stroke:#fff;stroke-width:21.05px;"/>
        <path d="M1016.42,1423.09c-88.08,-118.955 -151.232,-257.072 -153.542,-455.325" style="fill:none;stroke:#fff;stroke-width:21.25px;"/>
        <path d="M1186.3,967.494c-10.055,96.972 -21.701,196.243 -62.726,337.95c-24.879,73.578 -56.16,153.182 -110.09,254.102c-60.664,105.68 -115.351,214.349 -165.774,325.149" style="fill:none;stroke:#fff;stroke-width:9.53px;"/>
        <path d="M1168.38,959.174c-12.924,94.514 -9.136,151.627 -63.366,338.589c-22.63,53.162 -28.762,99.512 -118.41,267.544c-50.36,88.581 -101.724,181.988 -160.654,311.707" style="fill:none;stroke:#fff;stroke-width:9.53px;"/>
        <path d="M687.524,1855.09l245.021,117.511c-17.255,60.762 -31.584,130.887 -32.135,245.105c-1.388,129.816 -13.562,201.388 -31.621,241.187l72.507,20.002c34.899,-132.609 35.944,-246.176 17.501,-348.781c-12.29,-131.366 11.021,-182.038 48.755,-200.017c-16.649,39.287 -17.592,52.399 -14.213,58.307c39.05,35.234 80.587,28.177 122.972,6.699c53.153,34.887 63.942,90.956 43.754,162.514c-25.275,52.179 -36.814,135.754 -38.753,241.271c9.297,24.614 21.954,39.147 41.253,33.753c15.729,8.777 27.68,8.194 30.003,-16.251c24.571,-106.322 26.267,-209.124 7.501,-308.778c9.339,-74.214 -42.818,-133.786 -103.759,-191.266l68.756,55.005c55.702,-12.006 108.887,-31.251 158.763,-60.006l-2.5,-58.755c-67.157,36.263 -137.557,53.066 -211.268,50.004c-48.172,-6.207 -93.602,-5.435 -133.762,8.751c-113.589,-5.147 -198.9,-55.976 -283.775,-107.509l-5,51.254Z" style="fill:#e3b9ff;stroke:#fff;stroke-width:9.53px;"/>
        <path d="M803.923,2555.7l-23.42,31.11c-222.843,47.457 -346.813,34.177 -439.042,1.399c144.213,26.085 298.673,14.113 462.462,-32.509Z" style="fill:#faf3ff;stroke:#fff;stroke-width:9.53px;"/>
        <path d="M570.851,2220.32c8.973,46.496 51.475,73.337 142.946,71.473c9.601,37.692 9.245,62.583 -1.067,74.673c81.9,1.696 137.141,17.506 170.682,44.804" style="fill:none;stroke:#fff;stroke-width:21.25px;"/>
        <path d="M713.797,2291.79c84.826,3.927 152.367,9.583 180.282,19.202" style="fill:none;stroke:#fff;stroke-width:21.25px;"/>
        <path d="M967.686,2318.46c59.622,3.495 117.783,15.007 154.647,32.726" style="fill:none;stroke:#fff;stroke-width:21.25px;"/>
        <path d="M1205.04,2361.23c24.891,6.4 66.707,-5.765 75.208,-39.574c44.684,-177.7 31.123,-290.682 -1.067,-382.967" style="fill:none;stroke:#fff;stroke-width:21.25px;"/>
        <path d="M1288.36,2305.64c11.376,8.299 31.113,51.056 42.49,90.647c61.054,19.871 92.809,6.138 133.951,-47.953c-28.569,-88.023 -84.863,-184.711 -158.948,-286.958" style="fill:none;stroke:#fff;stroke-width:21.25px;"/>
        <path d="M1431.81,2376.65c-16.854,-69.634 -60.751,-153.194 -117.43,-234.207" style="fill:none;stroke:#fff;stroke-width:10.42px;"/>
        <path d="M1407.35,2391.88c-16.854,-69.634 -45.885,-134.285 -102.564,-215.297" style="fill:none;stroke:#fff;stroke-width:10.42px;"/>
        <path d="M1379.45,2403.8c-16.855,-69.634 -26.528,-90.736 -83.207,-171.749" style="fill:none;stroke:#fff;stroke-width:10.42px;"/>
        <path d="M1263.5,2646.48c207.718,41.865 329.215,28.417 340.886,-55.485c-56.286,80.596 -195.342,69.71 -357.185,33.638l16.299,21.847Z" style="fill:#fff;"/>
        <path d="M1159.12,2509.16c152.335,2.098 338.444,-52.383 448.735,-32.251c-129.468,-40.666 -325.524,22.625 -470.236,11.79l21.501,20.461Z" style="fill:#fff;"/>
        <path d="M1192.41,2420.38l172.003,-8.67c-39.326,-17.203 -57.47,-55.682 -73.501,-92.851l-12.847,25.922l13.524,47.162l-92.937,4.855l-6.242,23.582Z" style="fill:#fff;"/>
        <path d="M191.822,1975.33c81.009,51.352 169.63,93.949 274.318,118.072" style="fill:none;stroke:#fff;stroke-width:8.33px;"/>
        <path d="M478.346,2068.77c-86.266,-18.828 -177.25,-53.742 -276.537,-116.962" style="fill:none;stroke:#fff;stroke-width:8.33px;"/>
        <path d="M1572.83,2062.06c95.122,-18.865 183.875,-51.138 264.941,-99.595" style="fill:none;stroke:#fff;stroke-width:8.33px;"/>
        <path d="M1563.68,2042.08c89.153,-22.978 177.452,-54.794 264.386,-100.705" style="fill:none;stroke:#fff;stroke-width:8.33px;"/>
        <path d="M1409.45,1288.86c54.786,198.166 -49.69,152.326 -31.289,309.653c-5.448,180.64 -5.235,233.239 -55.573,258.158l-26.747,5.395c-3.64,-8.861 -3.522,-16.469 -1.612,-23.481c6.363,-22.344 18.483,-36.054 30.478,-49.951c17.179,-25.818 24.866,-108.058 25.399,-232.824c-153.34,143.94 -142.211,0.72 -325.953,214.198c89.612,-207.754 175.233,-111.445 327.647,-245.524c-3.615,-109.678 45.69,-25.653 57.65,-235.624Z" style="fill:#fff;"/>
        <path d="M739.414,1637.4c33.414,-162.982 54.529,-129.018 107.285,-299.099l-13.004,-33.594c-27.541,163.494 -80.117,129.782 -94.281,332.693Z" style="fill:#fff;"/>
        <path d="M613.597,1263.11c-26.505,142.169 79.166,116.941 95.878,210.932c5.885,23.364 5.361,43.277 -1.065,60.012c-59.607,180.301 -40.071,244.867 8.523,257.806c4.109,7.734 2.874,14.4 -2.486,20.24c-81.422,-32.356 -68.814,-104.604 -55.396,-177.196l23.792,-86.29c3.923,-64.842 -2.976,-100.638 -17.045,-117.185c-45.214,-36.631 -93.991,-39.122 -52.201,-168.319Z" style="fill:#fff;"/>
        <path d="M546.483,1281.23c-30.607,178.687 -7.153,322.481 66.404,433.936l-13.139,40.127c-83.001,-136.419 -110.414,-291.243 -53.265,-474.063Z" style="fill:#fff;"/>
        <path d="M768.381,2719.83c0.187,-19.61 10.978,-35.78 30.254,-52.595" style="fill:none;stroke:#fff;stroke-opacity:0.44;stroke-width:8.33px;stroke-linecap:round;"/>
        <path d="M739.524,2708.66c6.157,-13.834 16.959,-28.83 33.046,-45.147" style="fill:none;stroke:#fff;stroke-opacity:0.44;stroke-width:8.33px;stroke-linecap:round;"/>
        <path d="M720.906,2698.89c5.534,-15.72 14.169,-26.014 24.668,-33.046" style="fill:none;stroke:#fff;stroke-opacity:0.44;stroke-width:8.33px;stroke-linecap:round;"/>
        <path d="M1202.64,2678.41c26.356,22.166 33.691,40.358 33.977,56.318" style="fill:none;stroke:#fff;stroke-opacity:0.44;stroke-width:8.33px;stroke-linecap:round;"/>
        <path d="M1230.56,2677.48c17.201,20.253 31.074,38.715 32.116,50.267" style="fill:none;stroke:#fff;stroke-opacity:0.44;stroke-width:8.33px;stroke-linecap:round;"/>
        <path d="M1258.49,2679.34c10.124,7.391 19.2,17.582 25.599,34.908" style="fill:none;stroke:#fff;stroke-opacity:0.44;stroke-width:8.33px;stroke-linecap:round;"/>
        <path d="M1715.97,2129.51c55.946,-19.402 81.386,44.262 40.908,65.453c-13.005,54.93 -50.648,93.381 -77.271,69.089" style="fill:none;stroke:#fff;stroke-opacity:0.44;stroke-width:8.33px;stroke-linecap:round;"/>
        <path d="M1764.4,2215.3c13.358,3.216 40.204,-9.258 66.045,-29.873" style="fill:none;stroke:#fff;stroke-opacity:0.44;stroke-width:8.33px;stroke-linecap:round;"/>
        <path d="M1836.87,2265.01c-46.535,7.788 -85.466,5.431 -92.259,-7.787" style="fill:none;stroke:#fff;stroke-opacity:0.44;stroke-width:8.33px;stroke-linecap:round;"/>
        <path d="M1796.23,2299.1c-35.859,3.492 -61.372,-5.854 -75.662,-18.256" style="fill:none;stroke:#fff;stroke-opacity:0.44;stroke-width:8.33px;stroke-linecap:round;"/>
        <path d="M333.34,2294.27c-3.402,18.927 -68.788,18.555 -103.623,4.423" style="fill:none;stroke:#fff;stroke-opacity:0.44;stroke-width:8.33px;stroke-linecap:round;"/>
        <path d="M360.88,2314.31c-14.312,17.307 -74.538,25.025 -110.737,21.82" style="fill:none;stroke:#fff;stroke-opacity:0.44;stroke-width:8.33px;stroke-linecap:round;"/>
        <path d="M351.642,2165.46c-46.797,-24.313 -83.149,46.367 -37.475,68.153c21.604,46.221 46.408,81.05 83.84,70.942" style="fill:none;stroke:#fff;stroke-opacity:0.44;stroke-width:8.33px;stroke-linecap:round;"/>
        <path d="M307.195,2253.3c-15.789,4.291 -34.873,-0.157 -61.355,-24.228" style="fill:none;stroke:#fff;stroke-opacity:0.44;stroke-width:8.33px;stroke-linecap:round;"/>
        <path d="M1426.28,1680.42c112.932,-191.217 77.045,-320.575 62.235,-458.694c7.168,155.232 5.852,306.076 -73.24,416.692l11.005,42.002Z" style="fill:#fff;"/>
        <path d="M1426.28,1680.42c112.932,-191.217 77.045,-320.575 62.235,-458.694c7.168,155.232 5.852,306.076 -73.24,416.692l11.005,42.002Zm2.894,-21.836l-4.855,-18.528c48.2,-69.153 67.271,-153.45 73.101,-244.578c1.466,77.644 -12.012,161.521 -68.247,263.108l0.001,-0.002Z" style="fill:#fff;"/>
        <path d="M1157.72,2526.54c44.256,40.321 87.511,115.918 146.529,189.769" style="fill:none;stroke:#fff;stroke-width:21.25px;"/>
    </g>
    <g id="user">
        <g id="face">
            <path d="M868.622,760.625l33.751,-7.972l30.404,3.295l20.291,10.077l30.466,25.809" style="fill:#d69bff;stroke:#fff;stroke-width:8.79px;stroke-linecap:round;"/>
            <path d="M1022.94,791.727l14.586,-18.051l24.724,-15.828l28.125,-6.831l47.297,5.5" style="fill:#d69bff;stroke:#fff;stroke-width:8.79px;stroke-linecap:round;"/>
            <path d="M880.727,777.628l12.978,-2.396l12.971,-5.348l15.938,0.842l12.111,4.394l16.56,12.35l18.35,19.427" style="fill:#d69bff;stroke:#fff;stroke-width:8.79px;stroke-linecap:round;"/>
            <path d="M1039.57,805.527l15.888,-17.75l22.401,-10.094l15.928,-2.995l10.623,-0.324l15.651,3.794l6.205,2.639l8.851,-0.909" style="fill:#d69bff;stroke:#fff;stroke-width:8.79px;stroke-linecap:round;"/>
            <path d="M864.279,806.298l12.395,0.262l4.439,4.709l7.104,7.654l8.859,2.337l11.518,2.92l25.09,1.997l17.404,-2.703" style="fill:#d69bff;stroke:#fff;stroke-width:8.79px;stroke-linecap:round;"/>
            <path d="M1050.53,821.138l12.118,7.05l15.645,1.433l22.129,-1.831l12.673,-5.936l9.126,-8.288l8.544,-5.335l10.617,-2.39" style="fill:#d69bff;stroke:#fff;stroke-width:8.79px;stroke-linecap:round;"/>
            <path d="M991.807,821.298l0.13,47.807l-2.034,11.81l-8.241,7.991l-10.898,7.702l-2.028,13.876l1.796,9.438l13.288,2.915l11.8,-1.507l4.439,4.414l8.572,5.289l10.034,-0.027l9.419,-8.879l15.352,2.319l11.192,-8.293l-0.928,-15.934l-13.024,-14.13l-12.714,-9.114l-2.408,-17.405l-2.466,-38.652" style="fill:#d69bff;stroke:#fff;stroke-width:8.79px;stroke-linecap:round;"/>
            <path d="M970.674,972.452l18.886,-0.642l6.808,7.655l10.938,7.053l12.096,-1.509l13.849,-7.71l7.652,-7.694l16.531,1.726" style="fill:#d69bff;stroke:#fff;stroke-width:8.79px;stroke-linecap:round;"/>
            <path d="M956.839,985.179c3.394,7.853 19.469,21.271 33.409,22.633c16.703,3.616 32.719,3.171 48.1,-1.016c13.942,-5.966 28.152,-17.488 30.628,-23.397" style="fill:#d69bff;stroke:#fff;stroke-width:8.79px;stroke-linecap:round;"/>
        </g>
        <g id="helmet">
            <path id="a-" serif:id="a " d="M822.352,753.837c-8.957,-57.939 -18.206,-97.229 -11.541,-130.987c23.859,-41.339 99.49,-101.715 121.314,-150.676c38.533,-17.516 87.071,-12.208 126.18,-2.266c38.052,45.011 77.421,87.48 120.281,123.211c13.781,31.796 20.964,96.796 18.879,148.613c-94.185,-145.823 -314.3,-122.898 -375.113,12.105Z" style="fill:#d69bff;stroke:#fff;stroke-width:13.18px;stroke-linecap:round;"/>
            <path d="M825.198,711.585c-2.447,-15.254 1.94,-21.708 15.844,-15.906" style="fill:#d69bff;stroke:#fff;stroke-width:8.79px;stroke-linecap:round;"/>
            <path d="M813.055,738.382c-13.587,-7.353 -16.031,-14.764 -2.959,-22.255" style="fill:#d69bff;stroke:#fff;stroke-width:8.79px;stroke-linecap:round;"/>
            <path d="M813.546,700.645c-14.907,-4.057 -18.98,-10.713 -7.964,-20.991" style="fill:#d69bff;stroke:#fff;stroke-width:8.79px;stroke-linecap:round;"/>
            <path d="M802.94,665.05c-11.724,-10.061 -12.546,-17.821 1.815,-22.377" style="fill:#d69bff;stroke:#fff;stroke-width:8.79px;stroke-linecap:round;"/>
            <path d="M808.264,628.42c-10.523,-11.31 -10.471,-19.113 4.309,-22.033" style="fill:#d69bff;stroke:#fff;stroke-width:8.79px;stroke-linecap:round;"/>
            <path d="M819.708,668.743c-2.448,-15.254 1.94,-21.707 15.844,-15.906" style="fill:#d69bff;stroke:#fff;stroke-width:8.79px;stroke-linecap:round;"/>
            <path d="M838.471,638.47c-2.447,-15.254 1.94,-21.707 15.844,-15.906" style="fill:#d69bff;stroke:#fff;stroke-width:8.79px;stroke-linecap:round;"/>
            <path d="M857.411,595.981c-2.447,-15.253 1.94,-21.707 15.844,-15.906" style="fill:#d69bff;stroke:#fff;stroke-width:8.79px;stroke-linecap:round;"/>
            <path d="M891.207,567.757c4.627,-14.74 11.436,-18.552 21.282,-7.149" style="fill:#d69bff;stroke:#fff;stroke-width:8.79px;stroke-linecap:round;"/>
            <path d="M934.136,556.159c4.628,-14.739 11.436,-18.552 21.282,-7.148" style="fill:#d69bff;stroke:#fff;stroke-width:8.79px;stroke-linecap:round;"/>
            <path d="M982.201,547.397c8.746,-12.735 16.374,-14.383 22.443,-0.594" style="fill:#d69bff;stroke:#fff;stroke-width:8.79px;stroke-linecap:round;"/>
            <path d="M982.642,516.859c8.746,-12.735 16.374,-14.383 22.443,-0.594" style="fill:#d69bff;stroke:#fff;stroke-width:8.79px;stroke-linecap:round;"/>
            <path d="M970.868,486.145c8.746,-12.735 16.373,-14.384 22.443,-0.594" style="fill:#d69bff;stroke:#fff;stroke-width:8.79px;stroke-linecap:round;"/>
            <path d="M1025.99,483.404c12.149,-9.544 19.92,-8.841 21.598,6.131" style="fill:#d69bff;stroke:#fff;stroke-width:8.79px;stroke-linecap:round;"/>
            <path d="M1025.45,514.532c11.645,-10.152 19.443,-9.847 21.882,5.021" style="fill:#d69bff;stroke:#fff;stroke-width:8.79px;stroke-linecap:round;"/>
            <path d="M1067.6,524.95c11.645,-10.151 19.443,-9.846 21.882,5.021" style="fill:#d69bff;stroke:#fff;stroke-width:8.79px;stroke-linecap:round;"/>
            <path d="M940.789,519.639c4.576,-14.755 11.371,-18.592 21.257,-7.223" style="fill:#d69bff;stroke:#fff;stroke-width:8.79px;stroke-linecap:round;"/>
            <path d="M935.034,495.121c4.576,-14.756 11.372,-18.592 21.257,-7.223" style="fill:#d69bff;stroke:#fff;stroke-width:8.79px;stroke-linecap:round;"/>
            <path d="M903.934,533.638c4.576,-14.755 11.371,-18.592 21.257,-7.223" style="fill:#d69bff;stroke:#fff;stroke-width:8.79px;stroke-linecap:round;"/>
            <path d="M1031.11,545.175c11.63,-10.169 19.428,-9.875 21.89,4.988" style="fill:#d69bff;stroke:#fff;stroke-width:8.79px;stroke-linecap:round;"/>
            <path d="M1079.8,558.096c11.631,-10.169 19.429,-9.876 21.89,4.988" style="fill:#d69bff;stroke:#fff;stroke-width:8.79px;stroke-linecap:round;"/>
            <path d="M1117.51,567.019c14.382,-5.643 21.622,-2.732 18.918,12.089" style="fill:#d69bff;stroke:#fff;stroke-width:8.79px;stroke-linecap:round;"/>
            <path d="M820.678,601.56c-2.448,-15.254 1.94,-21.707 15.844,-15.906" style="fill:#d69bff;stroke:#fff;stroke-width:8.79px;stroke-linecap:round;"/>
            <path d="M839.353,577.394c-2.447,-15.254 1.94,-21.707 15.844,-15.906" style="fill:#d69bff;stroke:#fff;stroke-width:8.79px;stroke-linecap:round;"/>
            <path d="M864.136,553.317c-2.447,-15.254 1.94,-21.708 15.844,-15.907" style="fill:#d69bff;stroke:#fff;stroke-width:8.79px;stroke-linecap:round;"/>
            <path d="M889.008,523.131c-2.448,-15.254 1.939,-21.707 15.844,-15.906" style="fill:#d69bff;stroke:#fff;stroke-width:8.79px;stroke-linecap:round;"/>
            <path d="M907.683,498.966c-2.447,-15.254 1.94,-21.708 15.844,-15.907" style="fill:#d69bff;stroke:#fff;stroke-width:8.79px;stroke-linecap:round;"/>
            <path d="M921.466,471.477c3.836,-14.965 10.433,-19.134 20.871,-8.271" style="fill:#d69bff;stroke:#fff;stroke-width:8.79px;stroke-linecap:round;"/>
            <path d="M961.831,463.04c5.302,-14.511 12.28,-18.005 21.589,-6.16" style="fill:#d69bff;stroke:#fff;stroke-width:8.79px;stroke-linecap:round;"/>
            <path d="M1006.88,456.98c11.224,-10.615 19.028,-10.626 22.067,4.13" style="fill:#d69bff;stroke:#fff;stroke-width:8.79px;stroke-linecap:round;"/>
            <path d="M1051.87,462.136c14.427,-5.525 21.644,-2.556 18.82,12.243" style="fill:#d69bff;stroke:#fff;stroke-width:8.79px;stroke-linecap:round;"/>
            <path d="M1069.84,486.831c14.427,-5.526 21.644,-2.556 18.82,12.242" style="fill:#d69bff;stroke:#fff;stroke-width:8.79px;stroke-linecap:round;"/>
            <path d="M1094,505.507c14.427,-5.526 21.644,-2.557 18.819,12.242" style="fill:#d69bff;stroke:#fff;stroke-width:8.79px;stroke-linecap:round;"/>
            <path d="M1118.08,530.29c14.427,-5.526 21.643,-2.557 18.819,12.242" style="fill:#d69bff;stroke:#fff;stroke-width:8.79px;stroke-linecap:round;"/>
            <path d="M1142.16,555.073c14.427,-5.526 21.643,-2.557 18.819,12.242" style="fill:#d69bff;stroke:#fff;stroke-width:8.79px;stroke-linecap:round;"/>
            <path d="M843.962,681.311c-2.448,-15.254 1.94,-21.707 15.844,-15.906" style="fill:#d69bff;stroke:#fff;stroke-width:8.79px;stroke-linecap:round;"/>
            <path d="M871.744,658.553c1.8,-15.344 7.779,-20.358 19.577,-10.989" style="fill:#d69bff;stroke:#fff;stroke-width:8.79px;stroke-linecap:round;"/>
            <path d="M902.141,640.667c5.376,-14.483 12.371,-17.942 21.62,-6.049" style="fill:#d69bff;stroke:#fff;stroke-width:8.79px;stroke-linecap:round;"/>
            <path d="M938.372,633.316c7.581,-13.462 15.032,-15.781 22.301,-2.585" style="fill:#d69bff;stroke:#fff;stroke-width:8.79px;stroke-linecap:round;"/>
            <path d="M973.92,627.817c8.502,-12.898 16.097,-14.691 22.427,-1.02" style="fill:#d69bff;stroke:#fff;stroke-width:8.79px;stroke-linecap:round;"/>
            <path d="M1012.13,628.369c8.503,-12.899 16.098,-14.692 22.428,-1.02" style="fill:#d69bff;stroke:#fff;stroke-width:8.79px;stroke-linecap:round;"/>
            <path d="M1055.32,627.749c10.845,-11.002 18.644,-11.286 22.198,3.354" style="fill:#d69bff;stroke:#fff;stroke-width:8.79px;stroke-linecap:round;"/>
            <path d="M1098.12,633.281c11.915,-9.833 19.702,-9.317 21.738,5.61" style="fill:#d69bff;stroke:#fff;stroke-width:8.79px;stroke-linecap:round;"/>
            <path d="M1128.49,645.937c11.916,-9.833 19.702,-9.317 21.739,5.61" style="fill:#d69bff;stroke:#fff;stroke-width:8.79px;stroke-linecap:round;"/>
            <path d="M1160.49,660.294c14.834,-4.316 21.781,-0.762 17.745,13.753" style="fill:#d69bff;stroke:#fff;stroke-width:8.79px;stroke-linecap:round;"/>
            <path d="M1207.46,708.756c9.962,11.809 9.53,19.6 -5.374,21.798" style="fill:#d69bff;stroke:#fff;stroke-width:8.79px;stroke-linecap:round;"/>
            <path d="M1198.68,673.89c13.19,8.044 15.249,15.571 1.809,22.378" style="fill:#d69bff;stroke:#fff;stroke-width:8.79px;stroke-linecap:round;"/>
            <path d="M1197.2,640.473c13.19,8.044 15.249,15.57 1.808,22.378" style="fill:#d69bff;stroke:#fff;stroke-width:8.79px;stroke-linecap:round;"/>
            <path d="M1188.85,606.521c14.563,5.158 18.127,12.1 6.375,21.527" style="fill:#d69bff;stroke:#fff;stroke-width:8.79px;stroke-linecap:round;"/>
            <path d="M1169,578.287c15.086,-3.326 21.783,0.68 16.796,14.897" style="fill:#d69bff;stroke:#fff;stroke-width:8.79px;stroke-linecap:round;"/>
            <path d="M1161.55,616.906c15.087,-3.326 21.783,0.68 16.796,14.896" style="fill:#d69bff;stroke:#fff;stroke-width:8.79px;stroke-linecap:round;"/>
            <path d="M1123.25,601.971c12.824,-8.615 20.522,-7.337 21.082,7.719" style="fill:#d69bff;stroke:#fff;stroke-width:8.79px;stroke-linecap:round;"/>
            <path d="M1080.36,590.672c11.561,-10.248 19.36,-10.007 21.923,4.839" style="fill:#d69bff;stroke:#fff;stroke-width:8.79px;stroke-linecap:round;"/>
            <path d="M1043.8,580.142c9.424,-12.241 17.13,-13.473 22.442,0.625" style="fill:#d69bff;stroke:#fff;stroke-width:8.79px;stroke-linecap:round;"/>
            <path d="M995.106,580.888c7.828,-13.319 15.32,-15.501 22.346,-2.173" style="fill:#d69bff;stroke:#fff;stroke-width:8.79px;stroke-linecap:round;"/>
            <path d="M952.853,588.485c5.217,-14.542 12.173,-18.078 21.553,-6.288" style="fill:#d69bff;stroke:#fff;stroke-width:8.79px;stroke-linecap:round;"/>
            <path d="M909.892,599.998c5.329,-14.501 12.312,-17.983 21.6,-6.12" style="fill:#d69bff;stroke:#fff;stroke-width:8.79px;stroke-linecap:round;"/>
            <path d="M874.376,620.432c1.49,-15.377 7.367,-20.511 19.352,-11.381" style="fill:#d69bff;stroke:#fff;stroke-width:8.79px;stroke-linecap:round;"/>
            <path d="M957.671,432.802c-11.311,-12.946 -19.327,-30.05 -23.892,-51.51c-2.927,-10.328 -4.595,-31.03 4.92,-45.409c10.351,-15.642 17.561,-31.329 22.945,-47.043c6.051,-24.184 5.015,-38.323 6.01,-55.342c0.601,-10.261 14.82,-9.385 17.872,-23.729c-1.145,-7.702 0.626,-22.522 5.382,-44.629c1.605,-9.382 4.276,-13.415 7.33,-15.528c6.235,-2.237 9.683,3.868 12.13,12.967c5.111,26.013 5.708,44.093 5.749,61.196c-0.109,9.967 9.063,10.21 12.563,15.815c3.898,6.243 2.397,20.1 0.448,34.59c-1.841,13.686 15.675,26.207 19.428,32.496c10.231,19.641 11.787,30.511 12.709,38.557c1.856,16.203 3.578,31.089 -0.746,51.628c-3.989,18.951 -12.889,31.378 -17.591,37.172c-29.432,-19.379 -57.835,-19.455 -85.257,-1.231Z" style="fill:#d69bff;stroke:#fff;stroke-width:14.58px;stroke-linecap:round;"/>
            <path d="M988.542,416.961c-7.485,-9.184 -13.677,-21.165 -18.427,-36.271c-2.444,-7.444 -2.165,-17.358 0.424,-29.366c2.192,-9.641 5.969,-17.241 10.763,-23.532" style="fill:#d69bff;stroke:#fff;stroke-width:8.79px;stroke-linecap:round;"/>
            <path d="M1001.13,276.142c3.072,7.262 5.496,16.079 7.195,26.633c0.591,2.851 1.108,10.755 1.553,23.71c-0.193,13.692 -2.711,23.377 -6.602,30.699" style="fill:#d69bff;stroke:#fff;stroke-width:8.79px;stroke-linecap:round;"/>
        </g>
        <g id="eyes">
            <path d="M922.613,781.602c17.493,3.009 30.33,13.389 28.648,23.164c-1.681,9.776 -17.248,15.269 -34.741,12.26c-17.493,-3.009 -30.33,-13.388 -28.648,-23.164c1.681,-9.775 17.248,-15.269 34.741,-12.26Z" style="fill:#fff;"/>
            <path d="M1081.49,785.427c-17.476,3.105 -30.256,13.553 -28.522,23.32c1.735,9.766 17.332,15.175 34.808,12.07c17.476,-3.104 30.256,-13.552 28.522,-23.319c-1.735,-9.766 -17.332,-15.175 -34.808,-12.071Z" style="fill:#fff;"/>
        </g>
        <path d="M867.861,951.268c24.812,59.676 26.974,32.191 74.684,95.66c37.133,49.399 105.162,44.552 136.175,1.362c26.361,-40.397 49.052,-49.129 69.118,-102.698" style="fill:none;stroke:#ebcdff;stroke-width:12.5px;stroke-linecap:round;"/>
    </g>
    <g id="myb">
        <path d="M2023.03,804.881l-0,-336c-0,-11.6 2.2,-22.5 6.6,-32.7c4.4,-10.2 10.4,-19.1 18,-26.7c7.6,-7.6 16.5,-13.6 26.7,-18c10.2,-4.4 21.1,-6.6 32.7,-6.6l252,0c11.6,0 22.5,2.2 32.7,6.6c10.2,4.4 19.1,10.4 26.7,18c7.6,7.6 13.6,16.5 18,26.7c4.4,10.2 6.6,21.1 6.6,32.7l-0,336l-84,0l-0,-309.6c-0,-7.2 -2.6,-13.4 -7.8,-18.6c-5.2,-5.2 -11.4,-7.8 -18.6,-7.8l-57.6,0l-0,336l-84,0l-0,-336l-57.6,0c-7.2,0 -13.4,2.6 -18.6,7.8c-5.2,5.2 -7.8,11.4 -7.8,18.6l-0,309.6l-84,0Z" style="fill:#fff4e7;fill-rule:nonzero;"/>
        <path d="M2528.23,804.881l-0,-336c-0,-11.6 2.2,-22.5 6.6,-32.7c4.4,-10.2 10.4,-19.1 18,-26.7c7.6,-7.6 16.5,-13.6 26.7,-18c10.2,-4.4 21.1,-6.6 32.7,-6.6l252,0c11.6,0 22.5,2.2 32.7,6.6c10.2,4.4 19.1,10.4 26.7,18c7.6,7.6 13.6,16.5 18,26.7c4.4,10.2 6.6,21.1 6.6,32.7l-0,336l-84,0l-0,-126l-252,0l-0,126l-84,0Zm336,-210l-0,-99.6c-0,-7.2 -2.6,-13.4 -7.8,-18.6c-5.2,-5.2 -11.4,-7.8 -18.6,-7.8l-199.2,0c-7.2,0 -13.4,2.6 -18.6,7.8c-5.2,5.2 -7.8,11.4 -7.8,18.6l-0,99.6l252,0Z" style="fill:#fff4e7;fill-rule:nonzero;"/>
        <path d="M3022.03,804.881l-0,-84l294,0c11.6,0 21.5,-4.1 29.7,-12.3c8.2,-8.2 12.3,-18.1 12.3,-29.7c-0,-11.6 -4.1,-21.5 -12.3,-29.7c-8.2,-8.2 -18.1,-12.3 -29.7,-12.3l-168,0c-17.6,0 -34,-3.3 -49.2,-9.9c-15.2,-6.6 -28.5,-15.6 -39.9,-27c-11.4,-11.4 -20.4,-24.8 -27,-40.2c-6.6,-15.4 -9.9,-31.7 -9.9,-48.9c-0,-17.2 3.3,-33.5 9.9,-48.9c6.6,-15.4 15.6,-28.8 27,-40.2c11.4,-11.4 24.7,-20.4 39.9,-27c15.2,-6.6 31.6,-9.9 49.2,-9.9l294,0l-0,84l-294,0c-11.6,0 -21.5,4.1 -29.7,12.3c-8.2,8.2 -12.3,18.1 -12.3,29.7c-0,11.6 4.1,21.5 12.3,29.7c8.2,8.2 18.1,12.3 29.7,12.3l168,0c17.6,0 34,3.3 49.2,9.9c15.2,6.6 28.5,15.6 39.9,27c11.4,11.4 20.4,24.8 27,40.2c6.6,15.4 9.9,31.7 9.9,48.9c-0,17.2 -3.3,33.5 -9.9,48.9c-6.6,15.4 -15.6,28.8 -27,40.2c-11.4,11.4 -24.7,20.4 -39.9,27c-15.2,6.6 -31.6,9.9 -49.2,9.9l-294,0Z" style="fill:#fff4e7;fill-rule:nonzero;"/>
        <path d="M3485.23,384.881l420,0l-0,84l-168,0l-0,336l-84,0l-0,-336l-168,0l-0,-84Z" style="fill:#fff4e7;fill-rule:nonzero;"/>
        <path d="M3959.23,720.881l-0,-252c-0,-11.6 2.2,-22.5 6.6,-32.7c4.4,-10.2 10.4,-19.1 18,-26.7c7.6,-7.6 16.5,-13.6 26.7,-18c10.2,-4.4 21.1,-6.6 32.7,-6.6l336,0l-0,84l-309.6,0c-7.2,0 -13.4,2.6 -18.6,7.8c-5.2,5.2 -7.8,11.4 -7.8,18.6l-0,57.6l252,0l-0,84l-252,0l-0,57.6c-0,7.2 2.6,13.4 7.8,18.6c5.2,5.2 11.4,7.8 18.6,7.8l309.6,0l-0,84l-336,0c-11.6,0 -22.5,-2.2 -32.7,-6.6c-10.2,-4.4 -19.1,-10.4 -26.7,-18c-7.6,-7.6 -13.6,-16.5 -18,-26.7c-4.4,-10.2 -6.6,-21.1 -6.6,-32.7Z" style="fill:#fff4e7;fill-rule:nonzero;"/>
        <path d="M4441.63,468.881c-0,-11.6 2.2,-22.5 6.6,-32.7c4.4,-10.2 10.4,-19.1 18,-26.7c7.6,-7.6 16.5,-13.6 26.7,-18c10.2,-4.4 21.1,-6.6 32.7,-6.6l252,0c11.6,0 22.5,2.2 32.7,6.6c10.2,4.4 19.1,10.4 26.7,18c7.6,7.6 13.6,16.5 18,26.7c4.4,10.2 6.6,21.1 6.6,32.7l-0,90.6c-0,0.8 -0.1,1.4 -0.3,1.8c-0.2,0.4 -0.3,1 -0.3,1.8l-0,4.2c-0,0.4 -0.1,0.7 -0.3,0.9c-0.2,0.2 -0.3,0.5 -0.3,0.9l-0,3c-0.4,0.4 -0.6,1 -0.6,1.8l-0,1.2c-0,0.4 -0.1,0.6 -0.3,0.6c-0.2,0 -0.3,0.2 -0.3,0.6l-0,2.4c-0.4,0.4 -0.6,0.8 -0.6,1.2l-0,1.2c-0,0.4 -0.2,0.6 -0.6,0.6l-0,1.2c-0,0.8 -0.2,1.2 -0.6,1.2l-0,1.2c-0.4,0.8 -0.6,1.4 -0.6,1.8c-0,0.4 -0.2,1 -0.6,1.8l-0,1.2c-0.4,0.8 -0.6,1.2 -0.6,1.2c-0,0.4 -0.2,0.8 -0.6,1.2l-0,1.2l-1.2,2.4l-0,0.6c-0.8,1.6 -1.2,2.4 -1.2,2.4c-0,0.4 -0.4,1.4 -1.2,3l-0,1.2c-0.4,0.8 -0.8,1.4 -1.2,1.8c-0,0.4 -0.2,0.8 -0.6,1.2c-0.4,0.8 -0.6,1.2 -0.6,1.2c-0,0.4 -0.1,0.7 -0.3,0.9c-0.2,0.2 -0.3,0.5 -0.3,0.9c-0.4,0.4 -1,1.4 -1.8,3c-0.4,0.8 -0.8,1.6 -1.2,2.4c-0,0.8 -0.4,1.6 -1.2,2.4c-0.4,0.4 -0.6,0.7 -0.6,0.9c-0,0.2 -0.2,0.5 -0.6,0.9c-0.4,0.4 -0.6,0.8 -0.6,1.2c-0,0 -0.4,0.4 -1.2,1.2c-0,0.4 -0.4,1.2 -1.2,2.4c-0.8,1.2 -1.4,2 -1.8,2.4l-0.6,0.6c-0.8,0.8 -1.3,1.5 -1.5,2.1c-0.2,0.6 -0.7,1.3 -1.5,2.1l-0.6,0.6l-0,0.6c-0.4,0 -0.6,0.1 -0.6,0.3c-0,0.2 -0.2,0.3 -0.6,0.3c-0,0.4 -0.4,1 -1.2,1.8l-1.2,1.2c-0.4,0.4 -0.6,0.8 -0.6,1.2l-0,0.6c0.4,0 0.6,0.1 0.6,0.3c-0,0.2 0.2,0.3 0.6,0.3l-0,0.6l3,3c0.4,0.8 0.6,1.2 0.6,1.2c0.8,0.8 1.2,1.2 1.2,1.2c0.4,0.8 0.6,1.2 0.6,1.2c0.8,0.8 1.2,1.2 1.2,1.2c0.4,0.8 0.6,1.2 0.6,1.2l-0,0.6c-0,0 0.4,0.4 1.2,1.2c0.4,0.4 0.6,0.8 0.6,1.2l0.6,0l-0,0.6c1.2,1.2 1.8,2.2 1.8,3l1.2,1.2c-0,0.8 0.2,1.2 0.6,1.2c0.4,0.8 0.6,1.2 0.6,1.2c0.4,0.4 0.6,1 0.6,1.8c-0,0 0.4,0.4 1.2,1.2c-0,0.4 0.2,0.8 0.6,1.2c0.4,0.8 0.6,1.3 0.6,1.5c-0,0.2 0.2,0.7 0.6,1.5c0.4,0.4 0.6,0.8 0.6,1.2c0.4,0.4 0.6,0.8 0.6,1.2c0.8,1.6 1.6,3.6 2.4,6c0.4,0 0.6,0.4 0.6,1.2l1.2,2.4l-0,0.6l1.2,2.4l-0,1.2c0.4,0.4 0.6,0.8 0.6,1.2c-0,0.4 0.2,0.8 0.6,1.2l-0,1.2c0.4,0.8 0.6,1.4 0.6,1.8c-0,0.4 0.2,1 0.6,1.8l-0,1.2c0.4,0 0.6,0.4 0.6,1.2l-0,1.2c0.4,0.4 0.6,0.6 0.6,0.6l-0,1.2c0.4,0.8 0.6,1.2 0.6,1.2l-0,2.4c-0,0.4 0.1,0.6 0.3,0.6c0.2,0 0.3,0.2 0.3,0.6l-0,1.2c-0,0.8 0.2,1.4 0.6,1.8l-0,3c-0,0.4 0.1,0.7 0.3,0.9c0.2,0.2 0.3,0.5 0.3,0.9l-0,4.2c-0,0.8 0.1,1.4 0.3,1.8c0.2,0.4 0.3,1 0.3,1.8l-0,90.6l-84,0l-0,-84c-0,-2.8 -0.2,-5.4 -0.6,-7.8c-0.4,-2.4 -1,-4.8 -1.8,-7.2c-4.4,-10.4 -11.4,-18 -21,-22.8c-6.8,-2.8 -13,-4.2 -18.6,-4.2l-210,0l-0,126l-84,0l-0,-336Zm84,26.4l-0,99.6l210,0c11.6,0 21.5,-4.1 29.7,-12.3c8.2,-8.2 12.3,-18.1 12.3,-29.7l-0,-57.6c-0,-7.2 -2.6,-13.4 -7.8,-18.6c-5.2,-5.2 -11.4,-7.8 -18.6,-7.8l-199.2,0c-7.2,0 -13.4,2.6 -18.6,7.8c-5.2,5.2 -7.8,11.4 -7.8,18.6Z" style="fill:#fff4e7;fill-rule:nonzero;"/>
        <path d="M5078.23,565.481l-0,-180.6l84,0l-0,154.2c-0,7.2 2.6,13.4 7.8,18.6c5.2,5.2 11.4,7.8 18.6,7.8l199.2,0c7.2,0 13.4,-2.6 18.6,-7.8c5.2,-5.2 7.8,-11.4 7.8,-18.6l-0,-154.2l84,0l-0,180.6c-0,11.6 -2.2,22.5 -6.6,32.7c-4.4,10.2 -10.4,19.1 -18,26.7c-7.6,7.6 -16.5,13.6 -26.7,18c-10.2,4.4 -21.1,6.6 -32.7,6.6l-84,0l-0,155.4l-84,0l-0,-155.4l-84,0c-11.6,0 -22.5,-2.2 -32.7,-6.6c-10.2,-4.4 -19.1,-10.4 -26.7,-18c-7.6,-7.6 -13.6,-16.5 -18,-26.7c-4.4,-10.2 -6.6,-21.1 -6.6,-32.7Z" style="fill:#fff4e7;fill-rule:nonzero;"/>
        <path d="M5564.23,720.881l-0,-252c-0,-11.6 2.2,-22.5 6.6,-32.7c4.4,-10.2 10.4,-19.1 18,-26.7c7.6,-7.6 16.5,-13.6 26.7,-18c10.2,-4.4 21.1,-6.6 32.7,-6.6l252,0c11.6,0 22.5,2.2 32.7,6.6c10.2,4.4 19.1,10.4 26.7,18c7.6,7.6 13.6,16.5 18,26.7c4.4,10.2 6.6,21.1 6.6,32.7l-0,252c-0,11.6 -2.2,22.5 -6.6,32.7c-4.4,10.2 -10.4,19.1 -18,26.7c-7.6,7.6 -16.5,13.6 -26.7,18c-10.2,4.4 -21.1,6.6 -32.7,6.6l-252,0c-11.6,0 -22.5,-2.2 -32.7,-6.6c-10.2,-4.4 -19.1,-10.4 -26.7,-18c-7.6,-7.6 -13.6,-16.5 -18,-26.7c-4.4,-10.2 -6.6,-21.1 -6.6,-32.7Zm84,-26.4c-0,7.2 2.6,13.4 7.8,18.6c5.2,5.2 11.4,7.8 18.6,7.8l199.2,0c7.2,0 13.4,-2.6 18.6,-7.8c5.2,-5.2 7.8,-11.4 7.8,-18.6l-0,-199.2c-0,-7.2 -2.6,-13.4 -7.8,-18.6c-5.2,-5.2 -11.4,-7.8 -18.6,-7.8l-199.2,0c-7.2,0 -13.4,2.6 -18.6,7.8c-5.2,5.2 -7.8,11.4 -7.8,18.6l-0,199.2Z" style="fill:#fff4e7;fill-rule:nonzero;"/>
        <path d="M6068.83,720.881l-0,-336l84,0l-0,309.6c-0,7.2 2.6,13.4 7.8,18.6c5.2,5.2 11.4,7.8 18.6,7.8l199.2,0c7.2,0 13.4,-2.6 18.6,-7.8c5.2,-5.2 7.8,-11.4 7.8,-18.6l-0,-309.6l84,0l-0,336c-0,11.6 -2.2,22.5 -6.6,32.7c-4.4,10.2 -10.4,19.1 -18,26.7c-7.6,7.6 -16.5,13.6 -26.7,18c-10.2,4.4 -21.1,6.6 -32.7,6.6l-252,0c-11.6,0 -22.5,-2.2 -32.7,-6.6c-10.2,-4.4 -19.1,-10.4 -26.7,-18c-7.6,-7.6 -13.6,-16.5 -18,-26.7c-4.4,-10.2 -6.6,-21.1 -6.6,-32.7Z" style="fill:#fff4e7;fill-rule:nonzero;"/>
        <path d="M6574.03,468.881c-0,-11.6 2.2,-22.5 6.6,-32.7c4.4,-10.2 10.4,-19.1 18,-26.7c7.6,-7.6 16.5,-13.6 26.7,-18c10.2,-4.4 21.1,-6.6 32.7,-6.6l252,0c11.6,0 22.5,2.2 32.7,6.6c10.2,4.4 19.1,10.4 26.7,18c7.6,7.6 13.6,16.5 18,26.7c4.4,10.2 6.6,21.1 6.6,32.7l-0,90.6c-0,0.8 -0.1,1.4 -0.3,1.8c-0.2,0.4 -0.3,1 -0.3,1.8l-0,4.2c-0,0.4 -0.1,0.7 -0.3,0.9c-0.2,0.2 -0.3,0.5 -0.3,0.9l-0,3c-0.4,0.4 -0.6,1 -0.6,1.8l-0,1.2c-0,0.4 -0.1,0.6 -0.3,0.6c-0.2,0 -0.3,0.2 -0.3,0.6l-0,2.4c-0.4,0.4 -0.6,0.8 -0.6,1.2l-0,1.2c-0,0.4 -0.2,0.6 -0.6,0.6l-0,1.2c-0,0.8 -0.2,1.2 -0.6,1.2l-0,1.2c-0.4,0.8 -0.6,1.4 -0.6,1.8c-0,0.4 -0.2,1 -0.6,1.8l-0,1.2c-0.4,0.8 -0.6,1.2 -0.6,1.2c-0,0.4 -0.2,0.8 -0.6,1.2l-0,1.2l-1.2,2.4l-0,0.6c-0.8,1.6 -1.2,2.4 -1.2,2.4c-0,0.4 -0.4,1.4 -1.2,3l-0,1.2c-0.4,0.8 -0.8,1.4 -1.2,1.8c-0,0.4 -0.2,0.8 -0.6,1.2c-0.4,0.8 -0.6,1.2 -0.6,1.2c-0,0.4 -0.1,0.7 -0.3,0.9c-0.2,0.2 -0.3,0.5 -0.3,0.9c-0.4,0.4 -1,1.4 -1.8,3c-0.4,0.8 -0.8,1.6 -1.2,2.4c-0,0.8 -0.4,1.6 -1.2,2.4c-0.4,0.4 -0.6,0.7 -0.6,0.9c-0,0.2 -0.2,0.5 -0.6,0.9c-0.4,0.4 -0.6,0.8 -0.6,1.2c-0,0 -0.4,0.4 -1.2,1.2c-0,0.4 -0.4,1.2 -1.2,2.4c-0.8,1.2 -1.4,2 -1.8,2.4l-0.6,0.6c-0.8,0.8 -1.3,1.5 -1.5,2.1c-0.2,0.6 -0.7,1.3 -1.5,2.1l-0.6,0.6l-0,0.6c-0.4,0 -0.6,0.1 -0.6,0.3c-0,0.2 -0.2,0.3 -0.6,0.3c-0,0.4 -0.4,1 -1.2,1.8l-1.2,1.2c-0.4,0.4 -0.6,0.8 -0.6,1.2l-0,0.6c0.4,0 0.6,0.1 0.6,0.3c-0,0.2 0.2,0.3 0.6,0.3l-0,0.6l3,3c0.4,0.8 0.6,1.2 0.6,1.2c0.8,0.8 1.2,1.2 1.2,1.2c0.4,0.8 0.6,1.2 0.6,1.2c0.8,0.8 1.2,1.2 1.2,1.2c0.4,0.8 0.6,1.2 0.6,1.2l-0,0.6c-0,0 0.4,0.4 1.2,1.2c0.4,0.4 0.6,0.8 0.6,1.2l0.6,0l-0,0.6c1.2,1.2 1.8,2.2 1.8,3l1.2,1.2c-0,0.8 0.2,1.2 0.6,1.2c0.4,0.8 0.6,1.2 0.6,1.2c0.4,0.4 0.6,1 0.6,1.8c-0,0 0.4,0.4 1.2,1.2c-0,0.4 0.2,0.8 0.6,1.2c0.4,0.8 0.6,1.3 0.6,1.5c-0,0.2 0.2,0.7 0.6,1.5c0.4,0.4 0.6,0.8 0.6,1.2c0.4,0.4 0.6,0.8 0.6,1.2c0.8,1.6 1.6,3.6 2.4,6c0.4,0 0.6,0.4 0.6,1.2l1.2,2.4l-0,0.6l1.2,2.4l-0,1.2c0.4,0.4 0.6,0.8 0.6,1.2c-0,0.4 0.2,0.8 0.6,1.2l-0,1.2c0.4,0.8 0.6,1.4 0.6,1.8c-0,0.4 0.2,1 0.6,1.8l-0,1.2c0.4,0 0.6,0.4 0.6,1.2l-0,1.2c0.4,0.4 0.6,0.6 0.6,0.6l-0,1.2c0.4,0.8 0.6,1.2 0.6,1.2l-0,2.4c-0,0.4 0.1,0.6 0.3,0.6c0.2,0 0.3,0.2 0.3,0.6l-0,1.2c-0,0.8 0.2,1.4 0.6,1.8l-0,3c-0,0.4 0.1,0.7 0.3,0.9c0.2,0.2 0.3,0.5 0.3,0.9l-0,4.2c-0,0.8 0.1,1.4 0.3,1.8c0.2,0.4 0.3,1 0.3,1.8l-0,90.6l-84,0l-0,-84c-0,-2.8 -0.2,-5.4 -0.6,-7.8c-0.4,-2.4 -1,-4.8 -1.8,-7.2c-4.4,-10.4 -11.4,-18 -21,-22.8c-6.8,-2.8 -13,-4.2 -18.6,-4.2l-210,0l-0,126l-84,0l-0,-336Zm84,26.4l-0,99.6l210,0c11.6,0 21.5,-4.1 29.7,-12.3c8.2,-8.2 12.3,-18.1 12.3,-29.7l-0,-57.6c-0,-7.2 -2.6,-13.4 -7.8,-18.6c-5.2,-5.2 -11.4,-7.8 -18.6,-7.8l-199.2,0c-7.2,0 -13.4,2.6 -18.6,7.8c-5.2,5.2 -7.8,11.4 -7.8,18.6Z" style="fill:#fff4e7;fill-rule:nonzero;"/>
        <path d="M2023.63,1044.88l302.4,0c0.4,0.4 0.6,0.6 0.6,0.6l5.4,0c0.8,0.4 1.2,0.6 1.2,0.6l3.6,0c0.4,0.4 1,0.6 1.8,0.6l1.2,0c0.4,0 0.7,0.1 0.9,0.3c0.2,0.2 0.5,0.3 0.9,0.3l1.2,0c0.4,0 0.7,0.1 0.9,0.3c0.2,0.2 0.5,0.3 0.9,0.3l1.2,0c0.4,0.4 1,0.6 1.8,0.6c0.8,0 1.2,0.2 1.2,0.6l1.8,0c0.4,0 0.6,0.2 0.6,0.6l1.2,0c0.4,0 0.8,0.2 1.2,0.6l0.6,0c0.4,0 0.8,0.2 1.2,0.6l0.6,0c0.8,0.4 1.6,0.7 2.4,0.9c0.8,0.2 1.6,0.5 2.4,0.9l0.6,0c2.4,0.8 4.2,1.6 5.4,2.4l1.2,0c2,0.8 3.7,1.6 5.1,2.4c1.4,0.8 2.9,1.6 4.5,2.4c0.4,0.4 0.8,0.6 1.2,0.6l-0,0.6c0.4,0 1.4,0.4 3,1.2c0.4,0.4 0.8,0.6 1.2,0.6c0.8,0.8 1.2,1.2 1.2,1.2c0.4,0 1,0.4 1.8,1.2c0.4,0 1.2,0.4 2.4,1.2c1.2,0.8 2,1.4 2.4,1.8c0.4,0.4 0.8,0.6 1.2,0.6l1.8,1.8l0.6,0c-0,0 0.4,0.4 1.2,1.2c0.4,0.4 0.8,0.6 1.2,0.6l4.2,4.2c0.8,0 1.2,0.4 1.2,1.2c0.8,0.4 1.2,0.6 1.2,0.6l6.6,6.6c-0,0.4 0.1,0.6 0.3,0.6c0.2,0 0.3,0.2 0.3,0.6c0.8,0 1.2,0.4 1.2,1.2c0.4,0 0.6,0.1 0.6,0.3c-0,0.2 0.2,0.3 0.6,0.3l-0,0.6l3,3c0.4,0.8 0.6,1.2 0.6,1.2c0.8,0.8 1.2,1.2 1.2,1.2c0.4,0.8 0.6,1.2 0.6,1.2c0.8,0.8 1.2,1.2 1.2,1.2c0.4,0.8 0.6,1.2 0.6,1.2l-0,0.6l1.8,1.8c0.4,0.4 0.6,0.8 0.6,1.2c0.4,0.4 0.6,0.7 0.6,0.9c-0,0.2 0.2,0.5 0.6,0.9c-0,0.4 0.1,0.6 0.3,0.6c0.2,0 0.3,0.2 0.3,0.6l1.2,1.2c-0,0.8 0.2,1.2 0.6,1.2c0.4,0.8 0.6,1.2 0.6,1.2c0.4,0.4 0.6,1 0.6,1.8c-0,0 0.4,0.4 1.2,1.2c-0,0.4 0.2,0.8 0.6,1.2c0.4,0.8 0.6,1.3 0.6,1.5c-0,0.2 0.2,0.7 0.6,1.5c0.4,0.4 0.6,0.8 0.6,1.2c0.4,0.4 0.6,0.8 0.6,1.2c0.8,1.6 1.6,3.6 2.4,6c0.4,0 0.6,0.4 0.6,1.2l1.2,2.4l-0,0.6c0.4,0.4 0.6,0.8 0.6,1.2c-0,0.4 0.2,0.8 0.6,1.2l-0,1.2c0.4,0.4 0.6,0.8 0.6,1.2c-0,0.4 0.2,0.8 0.6,1.2l-0,1.2c0.4,0.8 0.6,1.4 0.6,1.8c-0,0.4 0.2,1 0.6,1.8l-0,1.2c0.4,0 0.6,0.4 0.6,1.2l-0,1.2c0.4,0.4 0.6,0.6 0.6,0.6l-0,1.2c0.4,0.8 0.6,1.2 0.6,1.2l-0,2.4c-0,0.4 0.1,0.6 0.3,0.6c0.2,0 0.3,0.2 0.3,0.6l-0,1.2c-0,0.8 0.2,1.4 0.6,1.8l-0,3c-0,0.4 0.1,0.7 0.3,0.9c0.2,0.2 0.3,0.5 0.3,0.9l-0,4.2c-0,0.8 0.1,1.4 0.3,1.8c0.2,0.4 0.3,1 0.3,1.8l-0,13.2c-0,0.8 -0.1,1.4 -0.3,1.8c-0.2,0.4 -0.3,1 -0.3,1.8l-0,4.2c-0,0.4 -0.1,0.7 -0.3,0.9c-0.2,0.2 -0.3,0.5 -0.3,0.9l-0,3c-0.4,0.4 -0.6,1 -0.6,1.8l-0,1.2c-0,0.4 -0.1,0.6 -0.3,0.6c-0.2,0 -0.3,0.2 -0.3,0.6l-0,2.4c-0.4,0.4 -0.6,0.8 -0.6,1.2l-0,1.2c-0,0.4 -0.2,0.6 -0.6,0.6l-0,1.2c-0,0.8 -0.2,1.2 -0.6,1.2l-0,1.2c-0.4,0.8 -0.6,1.4 -0.6,1.8c-0,0.4 -0.2,1 -0.6,1.8l-0,1.2c-0.4,0.8 -0.6,1.2 -0.6,1.2c-0,0.4 -0.2,0.8 -0.6,1.2l-0,1.2l-1.2,2.4l-0,0.6c-0.8,1.6 -1.2,2.4 -1.2,2.4c-0,0.4 -0.4,1.4 -1.2,3l-0,1.2c-0.4,0.8 -0.8,1.4 -1.2,1.8c-0,0.4 -0.2,0.8 -0.6,1.2c-0.4,0.8 -0.6,1.2 -0.6,1.2c-0,0.4 -0.1,0.7 -0.3,0.9c-0.2,0.2 -0.3,0.5 -0.3,0.9c-0.4,0.4 -1,1.4 -1.8,3c-0.4,0.8 -0.8,1.6 -1.2,2.4c-0,0.8 -0.4,1.6 -1.2,2.4c-0.4,0.4 -0.6,0.7 -0.6,0.9c-0,0.2 -0.2,0.5 -0.6,0.9c-0.4,0.4 -0.6,0.8 -0.6,1.2c-0,0 -0.4,0.4 -1.2,1.2c-0,0.4 -0.4,1.2 -1.2,2.4c-0.8,1.2 -1.4,2 -1.8,2.4l-0.6,0.6c-0.8,0.8 -1.3,1.5 -1.5,2.1c-0.2,0.6 -0.7,1.3 -1.5,2.1l-0.6,0.6l-0,0.6c-0.4,0 -0.6,0.1 -0.6,0.3c-0,0.2 -0.2,0.3 -0.6,0.3c-0,0.4 -0.4,1 -1.2,1.8l-1.2,1.2c-0.4,0.4 -0.6,0.8 -0.6,1.2c-11.6,12.8 -25.5,23 -41.7,30.6c-16.2,7.6 -33.7,11.4 -52.5,11.4l-210,0l-0,168l-84,0l-0,-420Zm84,168l210,0c11.6,0 21.5,-4.1 29.7,-12.3c8.2,-8.2 12.3,-18.1 12.3,-29.7c-0,-11.6 -4.1,-21.5 -12.3,-29.7c-8.2,-8.2 -18.1,-12.3 -29.7,-12.3l-210,0l-0,84Z" style="fill:#fff4e7;fill-rule:nonzero;"/>
        <path d="M2578.03,1044.88l-0,309.6c-0,7.2 2.6,13.4 7.8,18.6c5.2,5.2 11.4,7.8 18.6,7.8l309.6,0l-0,84l-336,0c-11.6,0 -22.5,-2.2 -32.7,-6.6c-10.2,-4.4 -19.1,-10.4 -26.7,-18c-7.6,-7.6 -13.6,-16.5 -18,-26.7c-4.4,-10.2 -6.6,-21.1 -6.6,-32.7l-0,-336l84,0Z" style="fill:#fff4e7;fill-rule:nonzero;"/>
        <path d="M2955.43,1464.88l-0,-336c-0,-11.6 2.2,-22.5 6.6,-32.7c4.4,-10.2 10.4,-19.1 18,-26.7c7.6,-7.6 16.5,-13.6 26.7,-18c10.2,-4.4 21.1,-6.6 32.7,-6.6l252,0c11.6,0 22.5,2.2 32.7,6.6c10.2,4.4 19.1,10.4 26.7,18c7.6,7.6 13.6,16.5 18,26.7c4.4,10.2 6.6,21.1 6.6,32.7l-0,336l-84,0l-0,-126l-252,0l-0,126l-84,0Zm336,-210l-0,-99.6c-0,-7.2 -2.6,-13.4 -7.8,-18.6c-5.2,-5.2 -11.4,-7.8 -18.6,-7.8l-199.2,0c-7.2,0 -13.4,2.6 -18.6,7.8c-5.2,5.2 -7.8,11.4 -7.8,18.6l-0,99.6l252,0Z" style="fill:#fff4e7;fill-rule:nonzero;"/>
        <path d="M3430.03,1044.88l420,0l-0,84l-168,0l-0,336l-84,0l-0,-336l-168,0l-0,-84Z" style="fill:#fff4e7;fill-rule:nonzero;"/>
        <path d="M3904.63,1464.88l-0,-336c-0,-11.6 2.2,-22.5 6.6,-32.7c4.4,-10.2 10.4,-19.1 18,-26.7c7.6,-7.6 16.5,-13.6 26.7,-18c10.2,-4.4 21.1,-6.6 32.7,-6.6l336,0l-0,84l-309.6,0c-7.2,0 -13.4,2.6 -18.6,7.8c-5.2,5.2 -7.8,11.4 -7.8,18.6l-0,57.6l252,0l-0,84l-252,0l-0,168l-84,0Z" style="fill:#fff4e7;fill-rule:nonzero;"/>
        <path d="M4367.23,1380.88l-0,-252c-0,-11.6 2.2,-22.5 6.6,-32.7c4.4,-10.2 10.4,-19.1 18,-26.7c7.6,-7.6 16.5,-13.6 26.7,-18c10.2,-4.4 21.1,-6.6 32.7,-6.6l252,0c11.6,0 22.5,2.2 32.7,6.6c10.2,4.4 19.1,10.4 26.7,18c7.6,7.6 13.6,16.5 18,26.7c4.4,10.2 6.6,21.1 6.6,32.7l-0,252c-0,11.6 -2.2,22.5 -6.6,32.7c-4.4,10.2 -10.4,19.1 -18,26.7c-7.6,7.6 -16.5,13.6 -26.7,18c-10.2,4.4 -21.1,6.6 -32.7,6.6l-252,0c-11.6,0 -22.5,-2.2 -32.7,-6.6c-10.2,-4.4 -19.1,-10.4 -26.7,-18c-7.6,-7.6 -13.6,-16.5 -18,-26.7c-4.4,-10.2 -6.6,-21.1 -6.6,-32.7Zm84,-26.4c-0,7.2 2.6,13.4 7.8,18.6c5.2,5.2 11.4,7.8 18.6,7.8l199.2,0c7.2,0 13.4,-2.6 18.6,-7.8c5.2,-5.2 7.8,-11.4 7.8,-18.6l-0,-199.2c-0,-7.2 -2.6,-13.4 -7.8,-18.6c-5.2,-5.2 -11.4,-7.8 -18.6,-7.8l-199.2,0c-7.2,0 -13.4,2.6 -18.6,7.8c-5.2,5.2 -7.8,11.4 -7.8,18.6l-0,199.2Z" style="fill:#fff4e7;fill-rule:nonzero;"/>
        <path d="M4871.83,1128.88c-0,-11.6 2.2,-22.5 6.6,-32.7c4.4,-10.2 10.4,-19.1 18,-26.7c7.6,-7.6 16.5,-13.6 26.7,-18c10.2,-4.4 21.1,-6.6 32.7,-6.6l252,0c11.6,0 22.5,2.2 32.7,6.6c10.2,4.4 19.1,10.4 26.7,18c7.6,7.6 13.6,16.5 18,26.7c4.4,10.2 6.6,21.1 6.6,32.7l-0,90.6c-0,0.8 -0.1,1.4 -0.3,1.8c-0.2,0.4 -0.3,1 -0.3,1.8l-0,4.2c-0,0.4 -0.1,0.7 -0.3,0.9c-0.2,0.2 -0.3,0.5 -0.3,0.9l-0,3c-0.4,0.4 -0.6,1 -0.6,1.8l-0,1.2c-0,0.4 -0.1,0.6 -0.3,0.6c-0.2,0 -0.3,0.2 -0.3,0.6l-0,2.4c-0.4,0.4 -0.6,0.8 -0.6,1.2l-0,1.2c-0,0.4 -0.2,0.6 -0.6,0.6l-0,1.2c-0,0.8 -0.2,1.2 -0.6,1.2l-0,1.2c-0.4,0.8 -0.6,1.4 -0.6,1.8c-0,0.4 -0.2,1 -0.6,1.8l-0,1.2c-0.4,0.8 -0.6,1.2 -0.6,1.2c-0,0.4 -0.2,0.8 -0.6,1.2l-0,1.2l-1.2,2.4l-0,0.6c-0.8,1.6 -1.2,2.4 -1.2,2.4c-0,0.4 -0.4,1.4 -1.2,3l-0,1.2c-0.4,0.8 -0.8,1.4 -1.2,1.8c-0,0.4 -0.2,0.8 -0.6,1.2c-0.4,0.8 -0.6,1.2 -0.6,1.2c-0,0.4 -0.1,0.7 -0.3,0.9c-0.2,0.2 -0.3,0.5 -0.3,0.9c-0.4,0.4 -1,1.4 -1.8,3c-0.4,0.8 -0.8,1.6 -1.2,2.4c-0,0.8 -0.4,1.6 -1.2,2.4c-0.4,0.4 -0.6,0.7 -0.6,0.9c-0,0.2 -0.2,0.5 -0.6,0.9c-0.4,0.4 -0.6,0.8 -0.6,1.2c-0,0 -0.4,0.4 -1.2,1.2c-0,0.4 -0.4,1.2 -1.2,2.4c-0.8,1.2 -1.4,2 -1.8,2.4l-0.6,0.6c-0.8,0.8 -1.3,1.5 -1.5,2.1c-0.2,0.6 -0.7,1.3 -1.5,2.1l-0.6,0.6l-0,0.6c-0.4,0 -0.6,0.1 -0.6,0.3c-0,0.2 -0.2,0.3 -0.6,0.3c-0,0.4 -0.4,1 -1.2,1.8l-1.2,1.2c-0.4,0.4 -0.6,0.8 -0.6,1.2l-0,0.6c0.4,0 0.6,0.1 0.6,0.3c-0,0.2 0.2,0.3 0.6,0.3l-0,0.6l3,3c0.4,0.8 0.6,1.2 0.6,1.2c0.8,0.8 1.2,1.2 1.2,1.2c0.4,0.8 0.6,1.2 0.6,1.2c0.8,0.8 1.2,1.2 1.2,1.2c0.4,0.8 0.6,1.2 0.6,1.2l-0,0.6c-0,0 0.4,0.4 1.2,1.2c0.4,0.4 0.6,0.8 0.6,1.2l0.6,0l-0,0.6c1.2,1.2 1.8,2.2 1.8,3l1.2,1.2c-0,0.8 0.2,1.2 0.6,1.2c0.4,0.8 0.6,1.2 0.6,1.2c0.4,0.4 0.6,1 0.6,1.8c-0,0 0.4,0.4 1.2,1.2c-0,0.4 0.2,0.8 0.6,1.2c0.4,0.8 0.6,1.3 0.6,1.5c-0,0.2 0.2,0.7 0.6,1.5c0.4,0.4 0.6,0.8 0.6,1.2c0.4,0.4 0.6,0.8 0.6,1.2c0.8,1.6 1.6,3.6 2.4,6c0.4,0 0.6,0.4 0.6,1.2l1.2,2.4l-0,0.6l1.2,2.4l-0,1.2c0.4,0.4 0.6,0.8 0.6,1.2c-0,0.4 0.2,0.8 0.6,1.2l-0,1.2c0.4,0.8 0.6,1.4 0.6,1.8c-0,0.4 0.2,1 0.6,1.8l-0,1.2c0.4,0 0.6,0.4 0.6,1.2l-0,1.2c0.4,0.4 0.6,0.6 0.6,0.6l-0,1.2c0.4,0.8 0.6,1.2 0.6,1.2l-0,2.4c-0,0.4 0.1,0.6 0.3,0.6c0.2,0 0.3,0.2 0.3,0.6l-0,1.2c-0,0.8 0.2,1.4 0.6,1.8l-0,3c-0,0.4 0.1,0.7 0.3,0.9c0.2,0.2 0.3,0.5 0.3,0.9l-0,4.2c-0,0.8 0.1,1.4 0.3,1.8c0.2,0.4 0.3,1 0.3,1.8l-0,90.6l-84,0l-0,-84c-0,-2.8 -0.2,-5.4 -0.6,-7.8c-0.4,-2.4 -1,-4.8 -1.8,-7.2c-4.4,-10.4 -11.4,-18 -21,-22.8c-6.8,-2.8 -13,-4.2 -18.6,-4.2l-210,0l-0,126l-84,0l-0,-336Zm84,26.4l-0,99.6l210,0c11.6,0 21.5,-4.1 29.7,-12.3c8.2,-8.2 12.3,-18.1 12.3,-29.7l-0,-57.6c-0,-7.2 -2.6,-13.4 -7.8,-18.6c-5.2,-5.2 -11.4,-7.8 -18.6,-7.8l-199.2,0c-7.2,0 -13.4,2.6 -18.6,7.8c-5.2,5.2 -7.8,11.4 -7.8,18.6Z" style="fill:#fff4e7;fill-rule:nonzero;"/>
        <path d="M5377.03,1464.88l-0,-336c-0,-11.6 2.2,-22.5 6.6,-32.7c4.4,-10.2 10.4,-19.1 18,-26.7c7.6,-7.6 16.5,-13.6 26.7,-18c10.2,-4.4 21.1,-6.6 32.7,-6.6l252,0c11.6,0 22.5,2.2 32.7,6.6c10.2,4.4 19.1,10.4 26.7,18c7.6,7.6 13.6,16.5 18,26.7c4.4,10.2 6.6,21.1 6.6,32.7l-0,336l-84,0l-0,-309.6c-0,-7.2 -2.6,-13.4 -7.8,-18.6c-5.2,-5.2 -11.4,-7.8 -18.6,-7.8l-57.6,0l-0,336l-84,0l-0,-336l-57.6,0c-7.2,0 -13.4,2.6 -18.6,7.8c-5.2,5.2 -7.8,11.4 -7.8,18.6l-0,309.6l-84,0Z" style="fill:#fff4e7;fill-rule:nonzero;"/>
    </g>
    <g id="wt">
        <path d="M2177.63,1855.34l27.527,-5.126l18.892,101.456c0.44,2.359 1.67,4.232 3.691,5.619c2.022,1.387 4.212,1.861 6.571,1.421l18.876,-3.515l-20.503,-110.107l27.527,-5.126l20.503,110.108l18.875,-3.515c2.36,-0.439 4.233,-1.67 5.62,-3.691c1.386,-2.021 1.86,-4.212 1.421,-6.571l-18.892,-101.456l27.527,-5.126l20.502,110.107c0.708,3.802 0.652,7.508 -0.167,11.119c-0.819,3.611 -2.243,6.894 -4.269,9.848c-2.027,2.954 -4.578,5.463 -7.652,7.528c-3.074,2.064 -6.511,3.45 -10.313,4.158l-82.58,15.377c-3.802,0.708 -7.508,0.652 -11.119,-0.167c-3.611,-0.82 -6.893,-2.243 -9.848,-4.27c-2.954,-2.027 -5.463,-4.577 -7.528,-7.651c-2.064,-3.074 -3.45,-6.512 -4.158,-10.313l-20.503,-110.107Z" style="fill:#ee91fe;fill-rule:nonzero;"/>
        <path d="M2343.38,1824.47l27.527,-5.125l25.629,137.634l-27.527,5.126l-25.629,-137.635Z" style="fill:#ee91fe;fill-rule:nonzero;"/>
        <path d="M2389,1815.98l137.634,-25.628l5.126,27.527l-55.053,10.251l20.502,110.108l-27.527,5.125l-20.502,-110.107l-55.054,10.251l-5.126,-27.527Z" style="fill:#ee91fe;fill-rule:nonzero;"/>
        <path d="M2544.72,1786.98l27.526,-5.126l10.252,55.054l82.58,-15.378l-10.251,-55.053l27.527,-5.126l25.628,137.634l-27.527,5.126l-10.251,-55.054l-82.58,15.377l10.251,55.054l-27.527,5.126l-25.628,-137.634Z" style="fill:#ee91fe;fill-rule:nonzero;"/>
    </g>
    <g id="cc">
        <path d="M2984.51,1894.5l0,195.313l156.25,-0l0,39.062l-234.375,0l0,-39.062l-39.062,-0l-0,-195.313l39.062,0l0,-39.062l234.375,-0l0,39.062l-156.25,0Z" style="fill:#91fef7;fill-rule:nonzero;"/>
        <path d="M3414.2,2128.88l-195.313,0l0,-39.062l-39.062,-0l-0,-195.313l39.062,0l0,-39.062l195.313,-0l-0,39.062l39.062,0l0,195.313l-39.062,-0l-0,39.062Zm-39.063,-39.062l0,-195.313l-78.125,0l0,195.313l78.125,-0Z" style="fill:#91fef7;fill-rule:nonzero;"/>
        <path d="M3687.64,1894.5l0,234.375l-78.125,0l0,-234.375l-39.062,0l-0,234.375l-78.125,0l-0,-273.437l234.57,-0l0,39.062l38.867,0l0,234.375l-39.062,0l-0,-234.375l-39.063,0Z" style="fill:#91fef7;fill-rule:nonzero;"/>
        <path d="M3922.21,2011.69l0.39,117.187l-117.773,0l-0,-273.437l234.375,-0l-0,39.062l39.062,0l0,78.125l-39.062,0l-0,39.063l-116.992,-0Zm-0.196,-117.188l0,78.125l78.125,0l0,-78.125l-78.125,0Z" style="fill:#91fef7;fill-rule:nonzero;"/>
        <path d="M4390.76,2128.88l-273.437,0l-0,-273.437l117.187,-0l0,234.375l156.25,-0l0,39.062Z" style="fill:#91fef7;fill-rule:nonzero;"/>
        <path d="M4703.26,2128.88l-273.437,0l-0,-273.437l273.437,-0l0,39.062l-156.25,0l0,78.125l117.188,0l-0,39.063l-117.188,-0l0,78.125l156.25,-0l0,39.062Z" style="fill:#91fef7;fill-rule:nonzero;"/>
        <path d="M5015.76,1855.44l0,39.062l-78.125,0l0,234.375l-117.187,0l-0,-234.375l-78.125,0l-0,-39.062l273.437,-0Z" style="fill:#91fef7;fill-rule:nonzero;"/>
        <path d="M5328.26,2128.88l-273.437,0l-0,-273.437l273.437,-0l0,39.062l-156.25,0l0,78.125l117.188,0l-0,39.063l-117.188,-0l0,78.125l156.25,-0l0,39.062Z" style="fill:#91fef7;fill-rule:nonzero;"/>
        <path d="M2984.51,2303.49l0,195.312l156.25,0l0,39.063l-234.375,-0l0,-39.063l-39.062,0l-0,-195.312l39.062,-0l0,-39.063l234.375,0l0,39.063l-156.25,-0Z" style="fill:#91fef7;fill-rule:nonzero;"/>
        <path d="M3414.2,2537.86l-195.313,-0l0,-39.063l-39.062,0l-0,-195.312l39.062,-0l0,-39.063l195.313,0l-0,39.063l39.062,-0l0,195.312l-39.062,0l-0,39.063Zm-39.063,-39.063l0,-195.312l-78.125,-0l0,195.312l78.125,0Z" style="fill:#91fef7;fill-rule:nonzero;"/>
        <path d="M3492.33,2537.86l-0,-273.438l234.375,0l-0,39.063l39.062,-0l0,234.375l-78.125,-0l0,-234.375l-78.125,-0l0.196,234.375l-117.383,-0Z" style="fill:#91fef7;fill-rule:nonzero;"/>
        <path d="M4078.26,2264.42l0,39.063l-78.125,-0l0,234.375l-117.187,-0l-0,-234.375l-78.125,-0l-0,-39.063l273.437,0Z" style="fill:#91fef7;fill-rule:nonzero;"/>
        <path d="M4117.32,2537.86l-0,-273.438l234.375,0l-0,39.063l39.062,-0l0,78.125l-39.062,-0l-0,39.062l39.062,0l0,117.188l-117.187,-0l-0,-117.188l-77.93,0l0,117.188l-78.32,-0Zm117.187,-234.375l0,78.125l78.125,-0l0,-78.125l-78.125,-0Z" style="fill:#91fef7;fill-rule:nonzero;"/>
        <path d="M4664.2,2537.86l-195.313,-0l0,-39.063l-39.062,0l-0,-195.312l39.062,-0l0,-39.063l195.313,0l-0,39.063l39.062,-0l0,195.312l-39.062,0l-0,39.063Zm-39.063,-39.063l0,-195.312l-78.125,-0l0,195.312l78.125,0Z" style="fill:#91fef7;fill-rule:nonzero;"/>
        <path d="M5015.76,2537.86l-273.437,-0l-0,-273.438l117.187,0l0,234.375l156.25,0l0,39.063Z" style="fill:#91fef7;fill-rule:nonzero;"/>
        <path d="M5024.45,2372.87l19.434,-0l0,19.433l77.541,0l-0,-19.433l19.434,-0l-0,-77.735l-19.434,-0l-0,-19.434l-77.541,-0l0,19.434l-19.434,-0l0,77.735Zm-19.531,-77.735l19.434,-0l0,-19.434l19.434,-0l-0,-19.434l77.735,0l-0,19.434l19.434,-0l-0,19.434l19.433,-0l0,77.735l-19.433,-0l-0,19.433l-19.434,0l-0,19.434l-77.735,0l-0,-19.434l-19.434,0l0,-19.433l-19.434,-0l0,-77.735Zm38.868,19.433l19.434,0l-0,-19.433l58.107,-0l-0,19.433l-58.01,0l-0,38.868l58.01,-0l-0,19.434l-58.107,-0l-0,-19.434l-19.434,-0l-0,-38.868Z" style="fill:#91fef7;fill-rule:nonzero;"/>
    </g>
    <g id="stkr">
        <path d="M6448.71,1441.28l142.997,162.548l162.521,-196.546l44.584,193.744l242.811,-167.766l-58.193,205.975l299.333,-122.564l-155.275,198.045l326.554,-65.366l-237.157,170.729l321.81,-1.768l-295.824,126.7l285.565,62.002l-325.534,70.269l221.367,119.704l-323.379,6.96l135.5,165.687l-289.569,-57.031l36.369,195.453l-227.414,-115.439l-66.322,206.086l-142.998,-162.547l-162.52,196.545l-44.585,-193.744l-242.81,167.767l58.193,-205.976l-299.333,122.565l155.275,-198.046l-326.554,65.366l237.157,-170.729l-321.811,1.768l295.825,-126.7l-285.565,-62.002l325.534,-70.269l-221.367,-119.704l323.379,-6.959l-135.5,-165.688l289.569,57.031l-36.369,-195.453l227.414,115.439l66.322,-206.086Z" style="fill:#47ffe8;stroke:#00eaff;stroke-width:35.45px;stroke-linecap:square;"/>
        <g>
            <path d="M6043.39,2033.1l-1.986,-9.546l-9.178,1.909l-27.798,-133.64l27.536,-5.727l23.826,114.548l45.893,-9.545l-23.826,-114.549l27.535,-5.727l27.798,133.64l-9.179,1.909l1.986,9.545l-82.607,17.183Z" style="fill:#da00ff;fill-rule:nonzero;"/>
            <path d="M6031.3,2038.8c2.57,5.471 8.639,8.674 14.818,7.389l82.607,-17.182c6.178,-1.285 10.467,-6.643 10.642,-12.685c5.185,-2.69 8.168,-8.586 6.92,-14.586l-27.797,-133.639c-1.504,-7.231 -8.585,-11.874 -15.816,-10.37l-27.535,5.728c-7.231,1.504 -11.874,8.585 -10.37,15.815l21.103,101.456c0,0 -19.708,4.1 -19.708,4.1c0,-0 -21.103,-101.456 -21.103,-101.456c-1.504,-7.231 -8.584,-11.873 -15.815,-10.369l-27.536,5.727c-7.231,1.504 -11.873,8.585 -10.369,15.816l27.797,133.639c1.248,6 6.335,10.217 12.162,10.617Zm12.095,-5.703l-1.986,-9.546l-9.178,1.909l-27.798,-133.64l27.536,-5.727l23.826,114.548l45.893,-9.545l-23.826,-114.549l27.535,-5.727l27.798,133.64l-9.179,1.909l1.986,9.545l-82.607,17.183Z" style="fill:#fff;"/>
            <path d="M6144.35,2012.09l-29.783,-143.185l27.536,-5.728l1.985,9.546l9.179,-1.909l3.971,19.091l9.178,-1.909l3.971,19.091l9.179,-1.909l3.971,19.092l9.178,-1.909l1.986,9.545l9.179,-1.909l-15.885,-76.365l27.536,-5.728l29.783,143.185l-27.536,5.728l-1.985,-9.546l-9.179,1.909l-3.971,-19.091l-9.179,1.909l-3.971,-19.091l-9.178,1.909l-3.971,-19.092l-9.179,1.91l-1.985,-9.546l-9.179,1.909l15.884,76.366l-27.535,5.727Z" style="fill:#da00ff;fill-rule:nonzero;"/>
            <path d="M6182.34,1892.1l-1.457,-0.229l-1.371,-6.594c-1.221,-5.867 -6.113,-10.03 -11.778,-10.588l-1.372,-6.594c-1.248,-6 -6.335,-10.217 -12.162,-10.617c-2.57,-5.472 -8.639,-8.674 -14.818,-7.389l-27.535,5.727c-7.231,1.504 -11.873,8.585 -10.369,15.816l29.782,143.185c1.504,7.231 8.585,11.873 15.816,10.369l27.536,-5.727c7.23,-1.504 11.873,-8.585 10.369,-15.816l-7.434,-35.741l1.456,0.229l1.372,6.594c1.22,5.867 6.112,10.03 11.778,10.588l1.372,6.595c1.248,5.999 6.335,10.216 12.161,10.616c2.57,5.472 8.64,8.674 14.818,7.389l27.536,-5.727c7.231,-1.504 11.873,-8.585 10.369,-15.816l-29.783,-143.185c-1.504,-7.231 -8.584,-11.873 -15.815,-10.369l-27.536,5.727c-7.231,1.504 -11.873,8.585 -10.369,15.816l7.434,35.741Zm-37.987,119.994l-29.783,-143.185l27.536,-5.728l1.985,9.546l9.179,-1.909l3.971,19.091l9.178,-1.909l3.971,19.091l9.179,-1.909l3.971,19.092l9.178,-1.909l1.986,9.545l9.179,-1.909l-15.885,-76.365l27.536,-5.728l29.783,143.185l-27.536,5.728l-1.985,-9.546l-9.179,1.909l-3.971,-19.091l-9.179,1.909l-3.971,-19.091l-9.178,1.909l-3.971,-19.092l-9.179,1.91l-1.985,-9.546l-9.179,1.909l15.884,76.366l-27.535,5.727Z" style="fill:#fff;"/>
            <path d="M6263.68,1987.28l-1.986,-9.546l-9.178,1.91l-27.797,-133.64l27.535,-5.728l23.826,114.549l73.429,-15.273l5.956,28.637l-91.785,19.091Z" style="fill:#da00ff;fill-rule:nonzero;"/>
            <path d="M6251.58,1992.98c2.57,5.472 8.639,8.675 14.818,7.39l91.786,-19.092c7.23,-1.504 11.873,-8.585 10.369,-15.816l-5.957,-28.637c-1.504,-7.23 -8.585,-11.873 -15.815,-10.369l-60.336,12.55c-0,0 -21.103,-101.456 -21.103,-101.456c-1.504,-7.23 -8.585,-11.873 -15.816,-10.369l-27.536,5.728c-7.23,1.504 -11.873,8.584 -10.369,15.815l27.797,133.64c1.248,5.999 6.335,10.217 12.162,10.616Zm12.095,-5.703l-1.986,-9.546l-9.178,1.91l-27.797,-133.64l27.535,-5.728l23.826,114.549l73.429,-15.273l5.956,28.637l-91.785,19.091Z" style="fill:#fff;"/>
            <path d="M6432.11,1922.36l-17.87,-85.911l-45.893,9.546l17.87,85.911l45.893,-9.546Zm-58.294,42.001l-1.985,-9.545l-9.179,1.909l-25.811,-124.094l9.178,-1.909l-1.985,-9.546l82.607,-17.182l1.985,9.545l9.179,-1.909l25.811,124.094l-9.178,1.909l1.985,9.546l-82.607,17.182Z" style="fill:#da00ff;fill-rule:nonzero;"/>
            <path d="M6330.67,1820.77c-5.184,2.69 -8.168,8.586 -6.92,14.585l25.812,124.094c1.248,5.999 6.335,10.217 12.162,10.616c2.57,5.472 8.639,8.675 14.818,7.39l82.607,-17.183c6.178,-1.285 10.467,-6.642 10.642,-12.685c5.184,-2.689 8.168,-8.586 6.92,-14.585l-25.812,-124.094c-1.248,-5.999 -6.335,-10.217 -12.161,-10.616c-2.571,-5.472 -8.64,-8.675 -14.819,-7.39l-82.606,17.183c-6.179,1.285 -10.468,6.642 -10.643,12.685Zm43.148,143.592l-1.985,-9.545l-9.179,1.909l-25.811,-124.094l9.178,-1.909l-1.985,-9.546l82.607,-17.182l1.985,9.545l9.179,-1.909l25.811,124.094l-9.178,1.909l1.985,9.546l-82.607,17.182Zm58.294,-42.001l-17.87,-85.911l-45.893,9.546l17.87,85.911l45.893,-9.546Zm-15.816,-10.369l-19.708,4.099c0,0 -12.423,-59.726 -12.423,-59.726c0,-0 19.708,-4.099 19.708,-4.099l12.423,59.726Z" style="fill:#fff;"/>
            <path d="M6483.96,1941.46l-1.985,-9.546l-9.179,1.909l-25.812,-124.094l9.179,-1.909l-1.986,-9.546l82.607,-17.182l1.986,9.546l9.178,-1.91l5.957,28.638l-27.536,5.727l-1.985,-9.546l-45.893,9.546l17.87,85.911l45.892,-9.545l-1.985,-9.546l27.536,-5.728l5.956,28.637l-9.179,1.91l1.986,9.545l-82.607,17.183Z" style="fill:#da00ff;fill-rule:nonzero;"/>
            <path d="M6440.81,1797.86c-5.185,2.69 -8.168,8.586 -6.92,14.585l25.812,124.094c1.247,6 6.334,10.217 12.161,10.617c2.57,5.471 8.64,8.674 14.818,7.389l82.607,-17.182c6.179,-1.285 10.468,-6.643 10.643,-12.685c5.184,-2.69 8.167,-8.586 6.919,-14.586l-5.956,-28.637c-1.504,-7.231 -8.585,-11.873 -15.816,-10.369l-27.535,5.727c-6.002,1.249 -10.22,6.339 -10.617,12.167l-20.198,4.202c-0,-0 -12.423,-59.727 -12.423,-59.727l20.198,-4.201c2.688,5.187 8.586,8.173 14.587,6.924l27.536,-5.727c7.231,-1.504 11.873,-8.585 10.369,-15.816l-5.956,-28.637c-1.248,-5.999 -6.335,-10.217 -12.162,-10.616c-2.57,-5.472 -8.639,-8.675 -14.818,-7.389l-82.607,17.182c-6.179,1.285 -10.467,6.642 -10.642,12.685Zm43.148,143.593l-1.985,-9.546l-9.179,1.909l-25.812,-124.094l9.179,-1.909l-1.986,-9.546l82.607,-17.182l1.986,9.546l9.178,-1.91l5.957,28.638l-27.536,5.727l-1.985,-9.546l-45.893,9.546l17.87,85.911l45.892,-9.545l-1.985,-9.546l27.536,-5.728l5.956,28.637l-9.179,1.91l1.986,9.545l-82.607,17.183Z" style="fill:#fff;"/>
            <path d="M6584.92,1920.45l-29.783,-143.185l27.536,-5.728l11.913,57.274l45.893,-9.545l-11.913,-57.275l27.535,-5.727l13.899,66.82l-9.178,1.909l1.985,9.546l9.179,-1.909l13.898,66.819l-27.535,5.728l-11.914,-57.274l-45.892,9.545l11.913,57.275l-27.536,5.727Z" style="fill:#da00ff;fill-rule:nonzero;"/>
            <path d="M6683.19,1825.33c0.276,-1.599 0.259,-3.276 -0.092,-4.96l-13.898,-66.82c-1.504,-7.231 -8.585,-11.873 -15.816,-10.369l-27.535,5.727c-7.231,1.504 -11.874,8.585 -10.37,15.816l9.19,44.181c0,0.001 -19.708,4.1 -19.708,4.1c0,-0 -9.19,-44.182 -9.19,-44.182c-1.504,-7.231 -8.584,-11.873 -15.815,-10.369l-27.536,5.727c-7.231,1.504 -11.873,8.585 -10.369,15.816l29.783,143.185c1.504,7.231 8.585,11.873 15.815,10.369l27.536,-5.727c7.231,-1.504 11.873,-8.585 10.369,-15.816l-9.19,-44.181c0,-0 19.708,-4.1 19.708,-4.1c0,0 9.19,44.182 9.19,44.182c1.504,7.231 8.585,11.873 15.816,10.369l27.535,-5.727c7.231,-1.504 11.874,-8.585 10.37,-15.816l-13.899,-66.82c-0.35,-1.684 -1.004,-3.229 -1.894,-4.585Zm-98.264,95.129l-29.783,-143.185l27.536,-5.728l11.913,57.274l45.893,-9.545l-11.913,-57.275l27.535,-5.727l13.899,66.82l-9.178,1.909l1.985,9.546l9.179,-1.909l13.898,66.819l-27.535,5.728l-11.914,-57.274l-45.892,9.545l11.913,57.275l-27.536,5.727Z" style="fill:#fff;"/>
            <path d="M6740.96,1888l-29.782,-143.186l27.535,-5.727l1.986,9.545l9.178,-1.909l3.972,19.092l9.178,-1.909l3.971,19.091l9.179,-1.909l3.971,19.091l9.178,-1.909l1.986,9.546l9.178,-1.909l-15.884,-76.366l27.536,-5.727l29.783,143.185l-27.536,5.727l-1.986,-9.545l-9.178,1.909l-3.971,-19.092l-9.179,1.91l-3.971,-19.092l-9.178,1.909l-3.971,-19.091l-9.179,1.909l-1.985,-9.546l-9.179,1.91l15.884,76.365l-27.536,5.728Z" style="fill:#da00ff;fill-rule:nonzero;"/>
            <path d="M6778.95,1768.01l-1.457,-0.228l-1.372,-6.595c-1.22,-5.867 -6.112,-10.03 -11.777,-10.587l-1.372,-6.595c-1.248,-5.999 -6.335,-10.217 -12.162,-10.616c-2.57,-5.472 -8.639,-8.675 -14.818,-7.39l-27.535,5.728c-7.231,1.504 -11.874,8.585 -10.37,15.815l29.783,143.186c1.504,7.231 8.585,11.873 15.816,10.369l27.535,-5.727c7.231,-1.504 11.873,-8.585 10.369,-15.816l-7.434,-35.741l1.457,0.228l1.372,6.595c1.22,5.867 6.112,10.03 11.778,10.588l1.371,6.594c1.248,5.999 6.335,10.217 12.162,10.616c2.57,5.472 8.639,8.675 14.818,7.39l27.536,-5.728c7.23,-1.504 11.873,-8.585 10.369,-15.815l-29.783,-143.186c-1.504,-7.23 -8.585,-11.873 -15.815,-10.369l-27.536,5.728c-7.231,1.504 -11.873,8.585 -10.369,15.815l7.434,35.741Zm-37.988,119.995l-29.782,-143.186l27.535,-5.727l1.986,9.545l9.178,-1.909l3.972,19.092l9.178,-1.909l3.971,19.091l9.179,-1.909l3.971,19.091l9.178,-1.909l1.986,9.546l9.178,-1.909l-15.884,-76.366l27.536,-5.727l29.783,143.185l-27.536,5.727l-1.986,-9.545l-9.178,1.909l-3.971,-19.092l-9.179,1.91l-3.971,-19.092l-9.178,1.909l-3.971,-19.091l-9.179,1.909l-1.985,-9.546l-9.179,1.91l15.884,76.365l-27.536,5.728Z" style="fill:#fff;"/>
            <path d="M6860.28,1863.18l-1.986,-9.546l-9.178,1.909l-25.812,-124.094l9.178,-1.909l-1.985,-9.546l91.785,-19.091l5.957,28.637l-73.428,15.273l5.956,28.637l45.893,-9.546l5.956,28.637l-45.892,9.546l5.956,28.637l73.429,-15.273l5.956,28.637l-91.785,19.092Z" style="fill:#da00ff;fill-rule:nonzero;"/>
            <path d="M6817.13,1719.59c-5.184,2.69 -8.167,8.586 -6.919,14.585l25.811,124.094c1.248,6 6.335,10.217 12.162,10.617c2.57,5.471 8.639,8.674 14.818,7.389l91.785,-19.091c7.231,-1.504 11.873,-8.585 10.369,-15.816l-5.956,-28.637c-1.504,-7.231 -8.585,-11.873 -15.816,-10.369l-60.336,12.55c0,-0 -0.51,-2.453 -0.51,-2.453c0,0 32.801,-6.822 32.801,-6.822c7.23,-1.504 11.873,-8.585 10.369,-15.816l-5.957,-28.637c-1.504,-7.231 -8.585,-11.873 -15.815,-10.369l-32.801,6.823c0,-0.001 -0.51,-2.453 -0.51,-2.453c0,0 60.336,-12.55 60.336,-12.55c7.231,-1.504 11.873,-8.585 10.369,-15.815l-5.956,-28.637c-1.504,-7.231 -8.585,-11.874 -15.816,-10.37l-91.785,19.092c-6.179,1.285 -10.468,6.642 -10.643,12.685Zm43.149,143.593l-1.986,-9.546l-9.178,1.909l-25.812,-124.094l9.178,-1.909l-1.985,-9.546l91.785,-19.091l5.957,28.637l-73.428,15.273l5.956,28.637l45.893,-9.546l5.956,28.637l-45.892,9.546l5.956,28.637l73.429,-15.273l5.956,28.637l-91.785,19.092Z" style="fill:#fff;"/>
            <path d="M6961.24,1842.18l-29.783,-143.185l27.536,-5.728l15.884,76.366l9.178,-1.909l-1.985,-9.546l9.178,-1.909l-3.971,-19.092l9.179,-1.909l-1.986,-9.545l9.179,-1.91l1.985,9.546l9.179,-1.909l3.971,19.091l9.179,-1.909l1.985,9.546l9.179,-1.909l-15.885,-76.366l27.536,-5.727l29.783,143.185l-27.536,5.728l-1.985,-9.546l-9.179,1.909l-3.971,-19.091l-9.178,1.909l-3.971,-19.092l-9.179,1.91l-3.971,-19.092l-9.179,1.909l3.971,19.092l-9.178,1.909l3.971,19.091l-9.179,1.909l3.971,19.092l-9.178,1.909l1.985,9.546l-27.535,5.727Z" style="fill:#da00ff;fill-rule:nonzero;"/>
            <path d="M7017.59,1718.37c-0.602,-0.128 -1.217,-0.215 -1.84,-0.258c-2.57,-5.471 -8.64,-8.674 -14.818,-7.389l-9.179,1.909c-6.179,1.285 -10.467,6.643 -10.642,12.685c-0.556,0.286 -1.085,0.612 -1.586,0.97l-7.434,-35.741c-1.504,-7.231 -8.585,-11.873 -15.816,-10.369l-27.535,5.727c-7.231,1.504 -11.873,8.585 -10.369,15.816l29.782,143.185c1.504,7.231 8.585,11.873 15.816,10.369l27.536,-5.727c6.178,-1.285 10.467,-6.642 10.642,-12.685c5.184,-2.69 8.168,-8.586 6.92,-14.585l-1.372,-6.595c4.973,-2.771 7.8,-8.539 6.579,-14.406l-1.371,-6.595l0.626,-0.373l0.724,0.092l1.372,6.595c1.22,5.867 6.112,10.03 11.778,10.588l1.372,6.594c1.248,6 6.335,10.217 12.161,10.617c2.57,5.471 8.64,8.674 14.818,7.389l27.536,-5.727c7.231,-1.504 11.873,-8.585 10.369,-15.816l-29.782,-143.185c-1.504,-7.231 -8.585,-11.874 -15.816,-10.37l-27.536,5.728c-7.23,1.504 -11.873,8.585 -10.369,15.815l7.434,35.742Zm-56.344,123.812l-29.783,-143.185l27.536,-5.728l15.884,76.366l9.178,-1.909l-1.985,-9.546l9.178,-1.909l-3.971,-19.092l9.179,-1.909l-1.986,-9.545l9.179,-1.91l1.985,9.546l9.179,-1.909l3.971,19.091l9.179,-1.909l1.985,9.546l9.179,-1.909l-15.885,-76.366l27.536,-5.727l29.783,143.185l-27.536,5.728l-1.985,-9.546l-9.179,1.909l-3.971,-19.091l-9.178,1.909l-3.971,-19.092l-9.179,1.91l-3.971,-19.092l-9.179,1.909l3.971,19.092l-9.178,1.909l3.971,19.091l-9.179,1.909l3.971,19.092l-9.178,1.909l1.985,9.546l-27.535,5.727Z" style="fill:#fff;"/>
            <path d="M6217.21,2201.22l-27.797,-133.64l9.178,-1.909l-1.985,-9.545l91.785,-19.092l5.957,28.637l-73.428,15.273l5.956,28.637l45.893,-9.545l5.956,28.637l-45.892,9.546l11.913,57.274l-27.536,5.727Z" style="fill:#da00ff;fill-rule:nonzero;"/>
            <path d="M6183.24,2055.72c-5.184,2.69 -8.167,8.586 -6.919,14.586l27.797,133.639c1.504,7.231 8.585,11.874 15.815,10.37l27.536,-5.728c7.231,-1.504 11.873,-8.585 10.369,-15.816l-9.19,-44.181c0,-0 32.801,-6.823 32.801,-6.823c7.23,-1.504 11.873,-8.585 10.369,-15.815l-5.957,-28.638c-1.504,-7.23 -8.585,-11.873 -15.815,-10.369l-32.801,6.823c0,-0 -0.51,-2.452 -0.51,-2.452c0,-0 60.336,-12.55 60.336,-12.55c7.231,-1.504 11.873,-8.585 10.369,-15.816l-5.956,-28.637c-1.504,-7.231 -8.585,-11.873 -15.816,-10.369l-91.785,19.091c-6.179,1.285 -10.468,6.643 -10.643,12.685Zm33.97,145.502l-27.797,-133.64l9.178,-1.909l-1.985,-9.545l91.785,-19.092l5.957,28.637l-73.428,15.273l5.956,28.637l45.893,-9.545l5.956,28.637l-45.892,9.546l11.913,57.274l-27.536,5.727Z" style="fill:#fff;"/>
            <path d="M6327.35,2178.31l-29.783,-143.185l27.536,-5.727l29.782,143.185l-27.535,5.727Z" style="fill:#da00ff;fill-rule:nonzero;"/>
            <path d="M6314.26,2181.03c1.504,7.23 8.585,11.873 15.816,10.369l27.536,-5.728c7.23,-1.504 11.873,-8.585 10.369,-15.815l-29.783,-143.186c-1.504,-7.23 -8.585,-11.873 -15.816,-10.369l-27.535,5.728c-7.231,1.504 -11.873,8.584 -10.369,15.815l29.782,143.186Zm13.093,-2.724l-29.783,-143.185l27.536,-5.727l29.782,143.185l-27.535,5.727Z" style="fill:#fff;"/>
            <path d="M6364.06,2170.68l-29.783,-143.186l27.536,-5.727l1.985,9.546l9.179,-1.909l3.971,19.091l9.178,-1.909l3.972,19.091l9.178,-1.909l3.971,19.091l9.179,-1.909l1.985,9.546l9.179,-1.909l-15.884,-76.366l27.535,-5.727l29.783,143.185l-27.536,5.728l-1.985,-9.546l-9.179,1.909l-3.971,-19.091l-9.178,1.909l-3.971,-19.092l-9.179,1.91l-3.971,-19.092l-9.179,1.909l-1.985,-9.545l-9.179,1.909l15.885,76.365l-27.536,5.728Z" style="fill:#da00ff;fill-rule:nonzero;"/>
            <path d="M6402.05,2050.68l-1.456,-0.229l-1.372,-6.594c-1.22,-5.867 -6.112,-10.03 -11.778,-10.588l-1.372,-6.595c-1.248,-5.999 -6.335,-10.217 -12.161,-10.616c-2.57,-5.472 -8.64,-8.675 -14.818,-7.389l-27.536,5.727c-7.231,1.504 -11.873,8.585 -10.369,15.816l29.782,143.185c1.504,7.231 8.585,11.873 15.816,10.369l27.536,-5.727c7.23,-1.504 11.873,-8.585 10.369,-15.816l-7.434,-35.741l1.457,0.228l1.371,6.595c1.221,5.867 6.113,10.03 11.778,10.588l1.372,6.594c1.248,6 6.335,10.217 12.161,10.617c2.571,5.471 8.64,8.674 14.819,7.389l27.535,-5.727c7.231,-1.504 11.873,-8.585 10.369,-15.816l-29.782,-143.185c-1.504,-7.231 -8.585,-11.874 -15.816,-10.37l-27.536,5.728c-7.23,1.504 -11.873,8.585 -10.369,15.815l7.434,35.742Zm-37.987,119.994l-29.783,-143.186l27.536,-5.727l1.985,9.546l9.179,-1.909l3.971,19.091l9.178,-1.909l3.972,19.091l9.178,-1.909l3.971,19.091l9.179,-1.909l1.985,9.546l9.179,-1.909l-15.884,-76.366l27.535,-5.727l29.783,143.185l-27.536,5.728l-1.985,-9.546l-9.179,1.909l-3.971,-19.091l-9.178,1.909l-3.971,-19.092l-9.179,1.91l-3.971,-19.092l-9.179,1.909l-1.985,-9.545l-9.179,1.909l15.885,76.365l-27.536,5.728Z" style="fill:#fff;"/>
            <path d="M6474.21,2147.76l-29.782,-143.185l27.535,-5.728l29.783,143.186l-27.536,5.727Z" style="fill:#da00ff;fill-rule:nonzero;"/>
            <path d="M6461.11,2150.49c1.504,7.231 8.585,11.873 15.816,10.369l27.535,-5.727c7.231,-1.504 11.874,-8.585 10.37,-15.816l-29.783,-143.185c-1.504,-7.231 -8.585,-11.873 -15.816,-10.369l-27.535,5.727c-7.231,1.504 -11.874,8.585 -10.37,15.816l29.783,143.185Zm13.092,-2.723l-29.782,-143.185l27.535,-5.728l29.783,143.186l-27.536,5.727Z" style="fill:#fff;"/>
            <path d="M6520.1,2138.22l-1.985,-9.545l-9.179,1.909l-5.956,-28.637l27.535,-5.728l1.986,9.546l45.893,-9.546l-5.957,-28.637l-64.25,13.364l-1.985,-9.546l-9.179,1.91l-13.898,-66.82l9.178,-1.909l-1.985,-9.546l82.607,-17.182l1.985,9.545l9.179,-1.909l5.956,28.637l-27.536,5.728l-1.985,-9.546l-45.893,9.546l5.957,28.637l64.25,-13.364l1.985,9.545l9.179,-1.909l13.898,66.82l-9.178,1.909l1.985,9.546l-82.607,17.182Z" style="fill:#da00ff;fill-rule:nonzero;"/>
            <path d="M6476.95,1994.63c-5.184,2.689 -8.168,8.586 -6.92,14.585l13.899,66.82c1.248,5.999 6.335,10.217 12.161,10.616c0.495,1.061 1.125,2.035 1.861,2.908c-5.881,2.374 -9.403,8.684 -8.066,15.113l5.957,28.637c1.248,5.999 6.335,10.217 12.161,10.616c2.571,5.472 8.64,8.675 14.818,7.39l82.607,-17.183c6.179,-1.285 10.468,-6.642 10.643,-12.685c5.184,-2.69 8.167,-8.586 6.92,-14.585l-13.899,-66.82c-1.248,-5.999 -6.335,-10.217 -12.162,-10.616c-0.495,-1.061 -1.124,-2.035 -1.86,-2.908c5.881,-2.374 9.403,-8.684 8.065,-15.113c0,-0 -5.956,-28.637 -5.956,-28.637c-1.248,-5.999 -6.335,-10.217 -12.162,-10.616c-2.57,-5.472 -8.639,-8.675 -14.818,-7.39l-82.607,17.183c-6.178,1.285 -10.467,6.642 -10.642,12.685Zm43.148,143.592l-1.985,-9.545l-9.179,1.909l-5.956,-28.637l27.535,-5.728l1.986,9.546l45.893,-9.546l-5.957,-28.637l-64.25,13.364l-1.985,-9.546l-9.179,1.91l-13.898,-66.82l9.178,-1.909l-1.985,-9.546l82.607,-17.182l1.985,9.545l9.179,-1.909l5.956,28.637l-27.536,5.728l-1.985,-9.546l-45.893,9.546l5.957,28.637l64.25,-13.364l1.985,9.545l9.179,-1.909l13.898,66.82l-9.178,1.909l1.985,9.546l-82.607,17.182Zm20.803,-50.42c0.564,0.691 1.061,1.444 1.477,2.251l20.198,-4.201c-0,0 -0.51,-2.452 -0.51,-2.452l-21.165,4.402Zm9.742,-61.778l-20.198,4.201c-0,-0 0.51,2.452 0.51,2.452l21.164,-4.402c-0.563,-0.691 -1.06,-1.444 -1.476,-2.251Z" style="fill:#fff;"/>
            <path d="M6621.06,2117.22l-29.782,-143.186l27.535,-5.727l11.913,57.274l45.893,-9.546l-11.913,-57.274l27.536,-5.727l29.782,143.185l-27.535,5.728l-11.913,-57.275l-45.893,9.546l11.913,57.274l-27.536,5.728Z" style="fill:#da00ff;fill-rule:nonzero;"/>
            <path d="M6607.97,2119.94c1.504,7.231 8.585,11.873 15.816,10.369l27.535,-5.727c7.231,-1.504 11.873,-8.585 10.369,-15.816l-9.19,-44.182c0.001,0 19.708,-4.099 19.708,-4.099c0,0 9.19,44.182 9.19,44.182c1.504,7.23 8.585,11.873 15.816,10.369l27.536,-5.728c7.23,-1.504 11.873,-8.584 10.369,-15.815l-29.783,-143.186c-1.504,-7.23 -8.585,-11.873 -15.816,-10.369l-27.535,5.728c-7.231,1.504 -11.873,8.585 -10.369,15.815l9.189,44.182c0,0 -19.707,4.099 -19.707,4.099c-0.001,0 -9.19,-44.181 -9.19,-44.181c-1.504,-7.231 -8.585,-11.874 -15.816,-10.37l-27.536,5.728c-7.23,1.504 -11.873,8.585 -10.369,15.816l29.783,143.185Zm13.092,-2.723l-29.782,-143.186l27.535,-5.727l11.913,57.274l45.893,-9.546l-11.913,-57.274l27.536,-5.727l29.782,143.185l-27.535,5.728l-11.913,-57.275l-45.893,9.546l11.913,57.274l-27.536,5.728Z" style="fill:#fff;"/>
            <path d="M6731.21,2094.31l-29.783,-143.185l27.536,-5.728l29.783,143.185l-27.536,5.728Z" style="fill:#da00ff;fill-rule:nonzero;"/>
            <path d="M6718.11,2097.03c1.503,7.231 8.584,11.873 15.815,10.369l27.536,-5.727c7.23,-1.504 11.873,-8.585 10.369,-15.816l-29.783,-143.185c-1.504,-7.231 -8.585,-11.873 -15.815,-10.369l-27.536,5.727c-7.231,1.504 -11.873,8.585 -10.369,15.816l29.783,143.185Zm13.092,-2.723l-29.783,-143.185l27.536,-5.728l29.783,143.185l-27.536,5.728Z" style="fill:#fff;"/>
            <path d="M6767.92,2086.67l-29.783,-143.185l27.536,-5.727l1.986,9.545l9.178,-1.909l3.971,19.091l9.179,-1.909l3.971,19.092l9.178,-1.909l3.971,19.091l9.179,-1.909l1.985,9.545l9.179,-1.909l-15.884,-76.365l27.535,-5.728l29.783,143.186l-27.536,5.727l-1.985,-9.546l-9.179,1.91l-3.971,-19.092l-9.178,1.909l-3.971,-19.091l-9.179,1.909l-3.971,-19.091l-9.178,1.909l-1.986,-9.546l-9.178,1.909l15.884,76.366l-27.536,5.727Z" style="fill:#da00ff;fill-rule:nonzero;"/>
            <path d="M6805.91,1966.68l-1.457,-0.228l-1.372,-6.595c-1.22,-5.867 -6.112,-10.03 -11.778,-10.588l-1.371,-6.594c-1.248,-5.999 -6.335,-10.217 -12.162,-10.616c-2.57,-5.472 -8.64,-8.675 -14.818,-7.39l-27.536,5.728c-7.231,1.504 -11.873,8.584 -10.369,15.815l29.783,143.186c1.504,7.23 8.585,11.873 15.815,10.369l27.536,-5.728c7.231,-1.504 11.873,-8.585 10.369,-15.815l-7.434,-35.741l1.457,0.228l1.371,6.595c1.221,5.867 6.113,10.03 11.778,10.587l1.372,6.595c1.248,5.999 6.335,10.217 12.162,10.616c2.57,5.472 8.639,8.675 14.818,7.39l27.535,-5.728c7.231,-1.504 11.874,-8.585 10.37,-15.815l-29.783,-143.186c-1.504,-7.231 -8.585,-11.873 -15.816,-10.369l-27.535,5.727c-7.231,1.504 -11.874,8.585 -10.37,15.816l7.435,35.741Zm-37.988,119.994l-29.783,-143.185l27.536,-5.727l1.986,9.545l9.178,-1.909l3.971,19.091l9.179,-1.909l3.971,19.092l9.178,-1.909l3.971,19.091l9.179,-1.909l1.985,9.545l9.179,-1.909l-15.884,-76.365l27.535,-5.728l29.783,143.186l-27.536,5.727l-1.985,-9.546l-9.179,1.91l-3.971,-19.092l-9.178,1.909l-3.971,-19.091l-9.179,1.909l-3.971,-19.091l-9.178,1.909l-1.986,-9.546l-9.178,1.909l15.884,76.366l-27.536,5.727Z" style="fill:#fff;"/>
            <path d="M6887.24,2061.85l-1.985,-9.545l-9.179,1.909l-25.811,-124.094l9.178,-1.909l-1.985,-9.546l82.607,-17.182l1.985,9.545l9.179,-1.909l5.956,28.637l-27.536,5.728l-1.985,-9.546l-45.893,9.546l17.87,85.911l45.893,-9.546l-5.957,-28.637l-18.357,3.819l-5.957,-28.638l36.715,-7.636l1.985,9.546l9.179,-1.91l13.898,66.82l-9.178,1.909l1.985,9.546l-82.607,17.182Z" style="fill:#da00ff;fill-rule:nonzero;"/>
            <path d="M6844.09,1918.26c-5.184,2.69 -8.168,8.586 -6.92,14.585l25.812,124.094c1.248,5.999 6.335,10.217 12.161,10.616c2.571,5.472 8.64,8.675 14.818,7.39l82.607,-17.182c6.179,-1.286 10.468,-6.643 10.643,-12.686c5.184,-2.689 8.167,-8.586 6.92,-14.585l-13.899,-66.82c-1.248,-5.999 -6.335,-10.217 -12.162,-10.616c-0.495,-1.061 -1.124,-2.035 -1.86,-2.908c5.881,-2.374 9.403,-8.684 8.065,-15.113l-5.956,-28.637c-1.248,-5.999 -6.335,-10.217 -12.162,-10.616c-2.57,-5.472 -8.639,-8.675 -14.818,-7.39l-82.607,17.183c-6.178,1.285 -10.467,6.642 -10.642,12.685Zm43.148,143.592l-1.985,-9.545l-9.179,1.909l-25.811,-124.094l9.178,-1.909l-1.985,-9.546l82.607,-17.182l1.985,9.545l9.179,-1.909l5.956,28.637l-27.536,5.728l-1.985,-9.546l-45.893,9.546l17.87,85.911l45.893,-9.546l-5.957,-28.637l-18.357,3.819l-5.957,-28.638l36.715,-7.636l1.985,9.546l9.179,-1.91l13.898,66.82l-9.178,1.909l1.985,9.546l-82.607,17.182Zm30.545,-112.198l-20.198,4.201c-0,-0 12.423,59.726 12.423,59.726c0,0 19.708,-4.099 19.708,-4.099c-0,0 -0.51,-2.452 -0.51,-2.452l-5.265,1.095c-7.231,1.504 -14.311,-3.138 -15.815,-10.369l-5.957,-28.637c-1.504,-7.231 3.138,-14.312 10.369,-15.816l6.721,-1.398c-0.563,-0.691 -1.06,-1.444 -1.476,-2.251Z" style="fill:#fff;"/>
            <path d="M6340.54,2379.85l-29.782,-143.186l27.535,-5.727l1.986,9.546l9.179,-1.909l3.971,19.091l9.178,-1.909l3.971,19.091l9.179,-1.909l3.971,19.091l9.178,-1.909l-3.971,-19.091l9.179,-1.909l-3.971,-19.092l9.178,-1.909l-3.971,-19.091l9.179,-1.909l-1.986,-9.546l27.536,-5.727l29.783,143.185l-27.536,5.727l-15.884,-76.365l-9.179,1.909l1.986,9.546l-9.179,1.909l3.971,19.091l-9.178,1.909l1.985,9.546l-9.178,1.909l-1.986,-9.545l-9.178,1.909l-3.971,-19.092l-9.179,1.909l-1.985,-9.545l-9.179,1.909l15.884,76.365l-27.536,5.728Z" style="fill:#da00ff;fill-rule:nonzero;"/>
            <path d="M6389.18,2217.16c-5.185,2.69 -8.168,8.586 -6.92,14.585l1.372,6.595c-4.974,2.77 -7.8,8.539 -6.58,14.406l1.372,6.594l-0.627,0.374l-0.724,-0.093l-1.372,-6.594c-1.22,-5.867 -6.112,-10.03 -11.777,-10.588l-1.372,-6.595c-1.248,-5.999 -6.335,-10.216 -12.162,-10.616c-2.57,-5.472 -8.639,-8.674 -14.818,-7.389l-27.535,5.727c-7.231,1.504 -11.874,8.585 -10.37,15.816l29.783,143.185c1.504,7.231 8.585,11.873 15.816,10.369l27.535,-5.727c7.231,-1.504 11.874,-8.585 10.37,-15.816l-7.435,-35.741c0.602,0.128 1.217,0.214 1.841,0.257c2.57,5.472 8.639,8.675 14.818,7.39l9.179,-1.91c6.178,-1.285 10.467,-6.642 10.642,-12.685c0.556,-0.285 1.084,-0.611 1.585,-0.97l7.435,35.742c1.504,7.23 8.584,11.873 15.815,10.369l27.536,-5.728c7.231,-1.504 11.873,-8.585 10.369,-15.815c0,-0 -29.783,-143.186 -29.783,-143.186c-1.504,-7.23 -8.585,-11.873 -15.815,-10.369l-27.536,5.728c-6.179,1.285 -10.467,6.642 -10.642,12.685Zm-48.638,162.684l-29.782,-143.186l27.535,-5.727l1.986,9.546l9.179,-1.909l3.971,19.091l9.178,-1.909l3.971,19.091l9.179,-1.909l3.971,19.091l9.178,-1.909l-3.971,-19.091l9.179,-1.909l-3.971,-19.092l9.178,-1.909l-3.971,-19.091l9.179,-1.909l-1.986,-9.546l27.536,-5.727l29.783,143.185l-27.536,5.727l-15.884,-76.365l-9.179,1.909l1.986,9.546l-9.179,1.909l3.971,19.091l-9.178,1.909l1.985,9.546l-9.178,1.909l-1.986,-9.545l-9.178,1.909l-3.971,-19.092l-9.179,1.909l-1.985,-9.545l-9.179,1.909l15.884,76.365l-27.536,5.728Z" style="fill:#fff;"/>
            <path d="M6536.51,2309.21l-17.87,-85.912l-45.892,9.546l17.869,85.911l45.893,-9.545Zm-58.293,42.001l-1.986,-9.546l-9.178,1.909l-25.812,-124.094l9.179,-1.909l-1.986,-9.546l82.607,-17.182l1.986,9.546l9.178,-1.909l25.812,124.094l-9.179,1.909l1.986,9.545l-82.607,17.183Z" style="fill:#da00ff;fill-rule:nonzero;"/>
            <path d="M6435.07,2207.62c-5.184,2.69 -8.167,8.586 -6.919,14.585l25.811,124.094c1.248,6 6.335,10.217 12.162,10.617c2.57,5.471 8.639,8.674 14.818,7.389l82.607,-17.182c6.179,-1.285 10.467,-6.643 10.642,-12.685c5.185,-2.69 8.168,-8.586 6.92,-14.586l-25.812,-124.094c-1.247,-5.999 -6.334,-10.217 -12.161,-10.616c-2.57,-5.472 -8.64,-8.675 -14.818,-7.389l-82.607,17.182c-6.179,1.285 -10.468,6.642 -10.643,12.685Zm43.149,143.593l-1.986,-9.546l-9.178,1.909l-25.812,-124.094l9.179,-1.909l-1.986,-9.546l82.607,-17.182l1.986,9.546l9.178,-1.909l25.812,124.094l-9.179,1.909l1.986,9.545l-82.607,17.183Zm58.293,-42.001l-17.87,-85.912l-45.892,9.546l17.869,85.911l45.893,-9.545Zm-15.816,-10.37l-19.708,4.1c0,-0 -12.423,-59.727 -12.423,-59.727c0,0 19.708,-4.099 19.708,-4.099l12.423,59.726Z" style="fill:#fff;"/>
            <path d="M6615.9,2322.57l-1.986,-9.545l-9.178,1.909l-3.971,-19.091l-9.179,1.909l-1.985,-9.546l-9.179,1.909l-3.971,-19.091l-9.178,1.909l-17.87,-85.911l27.536,-5.728l17.869,85.911l9.179,-1.909l3.971,19.092l9.178,-1.909l1.986,9.545l9.179,-1.909l-1.986,-9.546l9.179,-1.909l-3.971,-19.091l9.178,-1.909l-17.869,-85.911l27.535,-5.728l17.87,85.911l-9.179,1.909l3.971,19.092l-9.178,1.909l1.985,9.546l-9.178,1.909l3.971,19.091l-9.179,1.909l1.986,9.546l-27.536,5.727Z" style="fill:#da00ff;fill-rule:nonzero;"/>
            <path d="M6625.01,2247.89c-4.973,2.771 -7.799,8.539 -6.579,14.406l1.372,6.595l-0.627,0.374l-0.724,-0.093l-1.372,-6.595c-1.22,-5.867 -6.112,-10.03 -11.778,-10.588l-15.27,-73.414c-1.504,-7.231 -8.585,-11.873 -15.815,-10.369l-27.536,5.727c-7.231,1.504 -11.873,8.585 -10.369,15.816l17.869,85.911c1.221,5.867 6.113,10.03 11.778,10.588l1.372,6.594c1.248,6 6.335,10.217 12.162,10.617c2.002,4.265 6.131,7.15 10.78,7.608l1.372,6.594c1.247,6 6.334,10.217 12.161,10.616c2.57,5.472 8.64,8.675 14.818,7.39l27.536,-5.728c6.179,-1.285 10.467,-6.642 10.642,-12.685c5.185,-2.689 8.168,-8.586 6.92,-14.585l-1.372,-6.595c4.082,-2.273 6.716,-6.566 6.853,-11.275c5.184,-2.69 8.167,-8.586 6.92,-14.585l-1.372,-6.595c4.973,-2.771 7.799,-8.539 6.579,-14.406l-17.869,-85.911c-1.504,-7.231 -8.585,-11.873 -15.816,-10.369l-27.536,5.727c-7.23,1.504 -11.873,8.585 -10.369,15.816l15.27,73.414Zm-9.109,74.684l-1.986,-9.545l-9.178,1.909l-3.971,-19.091l-9.179,1.909l-1.985,-9.546l-9.179,1.909l-3.971,-19.091l-9.178,1.909l-17.87,-85.911l27.536,-5.728l17.869,85.911l9.179,-1.909l3.971,19.092l9.178,-1.909l1.986,9.545l9.179,-1.909l-1.986,-9.546l9.179,-1.909l-3.971,-19.091l9.178,-1.909l-17.869,-85.911l27.535,-5.728l17.87,85.911l-9.179,1.909l3.971,19.092l-9.178,1.909l1.985,9.546l-9.178,1.909l3.971,19.091l-9.179,1.909l1.986,9.546l-27.536,5.727Z" style="fill:#fff;"/>
            <path d="M6698.51,2305.39l-1.986,-9.546l-9.178,1.91l-25.812,-124.094l9.179,-1.91l-1.986,-9.545l91.786,-19.092l5.956,28.637l-73.428,15.274l5.956,28.637l45.893,-9.546l5.957,28.637l-45.893,9.546l5.956,28.637l73.429,-15.273l5.956,28.637l-91.785,19.091Z" style="fill:#da00ff;fill-rule:nonzero;"/>
            <path d="M6655.36,2161.8c-5.185,2.689 -8.168,8.586 -6.92,14.585l25.811,124.094c1.248,5.999 6.335,10.217 12.162,10.616c2.57,5.472 8.64,8.675 14.818,7.39l91.786,-19.092c7.23,-1.504 11.873,-8.585 10.369,-15.816l-5.957,-28.637c-1.504,-7.23 -8.585,-11.873 -15.815,-10.369l-60.336,12.55c-0,0 -0.51,-2.452 -0.51,-2.452c-0,-0 32.8,-6.823 32.8,-6.823c7.231,-1.504 11.873,-8.585 10.369,-15.815l-5.956,-28.637c-1.504,-7.231 -8.585,-11.873 -15.816,-10.369l-32.8,6.822c-0,-0 -0.51,-2.452 -0.51,-2.452c-0,-0 60.336,-12.55 60.336,-12.55c7.23,-1.504 11.873,-8.585 10.369,-15.816l-5.957,-28.637c-1.504,-7.231 -8.585,-11.873 -15.815,-10.369l-91.786,19.091c-6.179,1.286 -10.467,6.643 -10.642,12.686Zm43.148,143.592l-1.986,-9.546l-9.178,1.91l-25.812,-124.094l9.179,-1.91l-1.986,-9.545l91.786,-19.092l5.956,28.637l-73.428,15.274l5.956,28.637l45.893,-9.546l5.957,28.637l-45.893,9.546l5.956,28.637l73.429,-15.273l5.956,28.637l-91.785,19.091Z" style="fill:#fff;"/>
            <path d="M6808.65,2282.48l-1.986,-9.545l-9.179,1.909l-5.956,-28.637l27.536,-5.728l1.985,9.546l45.893,-9.546l-5.957,-28.637l-64.25,13.364l-1.985,-9.545l-9.179,1.909l-13.898,-66.82l9.178,-1.909l-1.985,-9.546l82.607,-17.182l1.985,9.545l9.179,-1.909l5.956,28.637l-27.535,5.728l-1.986,-9.546l-45.893,9.546l5.957,28.637l64.25,-13.364l1.985,9.546l9.179,-1.91l13.899,66.82l-9.179,1.909l1.985,9.546l-82.606,17.182Z" style="fill:#da00ff;fill-rule:nonzero;"/>
            <path d="M6765.5,2138.89c-5.184,2.69 -8.167,8.586 -6.92,14.585l13.899,66.82c1.248,5.999 6.335,10.217 12.162,10.616c0.495,1.061 1.124,2.035 1.86,2.908c-5.881,2.374 -9.403,8.684 -8.065,15.113l5.956,28.637c1.248,5.999 6.335,10.217 12.162,10.616c2.57,5.472 8.639,8.675 14.818,7.39l82.607,-17.183c6.178,-1.285 10.467,-6.642 10.642,-12.685c5.184,-2.689 8.168,-8.586 6.92,-14.585l-13.899,-66.82c-1.248,-5.999 -6.335,-10.217 -12.161,-10.616c-0.495,-1.061 -1.125,-2.035 -1.861,-2.908c5.881,-2.374 9.403,-8.684 8.066,-15.113l-5.957,-28.637c-1.248,-5.999 -6.335,-10.217 -12.161,-10.616c-2.571,-5.472 -8.64,-8.675 -14.818,-7.39l-82.607,17.183c-6.179,1.285 -10.468,6.642 -10.643,12.685Zm43.149,143.592l-1.986,-9.545l-9.179,1.909l-5.956,-28.637l27.536,-5.728l1.985,9.546l45.893,-9.546l-5.957,-28.637l-64.25,13.364l-1.985,-9.545l-9.179,1.909l-13.898,-66.82l9.178,-1.909l-1.985,-9.546l82.607,-17.182l1.985,9.545l9.179,-1.909l5.956,28.637l-27.535,5.728l-1.986,-9.546l-45.893,9.546l5.957,28.637l64.25,-13.364l1.985,9.546l9.179,-1.91l13.899,66.82l-9.179,1.909l1.985,9.546l-82.606,17.182Zm20.803,-50.42c0.563,0.691 1.06,1.444 1.476,2.251l20.198,-4.201c0,0 -0.51,-2.452 -0.51,-2.452l-21.164,4.402Zm9.741,-61.778l-20.198,4.201c0,0 0.51,2.452 0.51,2.452l21.165,-4.402c-0.564,-0.691 -1.061,-1.444 -1.477,-2.251Z" style="fill:#fff;"/>
            <path d="M6909.61,2261.48l-5.957,-28.637l27.536,-5.728l5.956,28.637l-27.535,5.728Zm-9.928,-47.729l-19.855,-95.457l27.536,-5.727l19.855,95.457l-27.536,5.727Z" style="fill:#da00ff;fill-rule:nonzero;"/>
            <path d="M6892.72,2225.16c-2.051,2.915 -2.935,6.64 -2.151,10.406l5.956,28.637c1.504,7.231 8.585,11.873 15.816,10.369l27.535,-5.727c7.231,-1.504 11.874,-8.585 10.37,-15.816l-5.957,-28.637c-0.783,-3.766 -3.079,-6.829 -6.122,-8.685c2.051,-2.915 2.934,-6.641 2.151,-10.406l-19.855,-95.457c-1.504,-7.231 -8.585,-11.873 -15.816,-10.369l-27.535,5.727c-7.231,1.504 -11.873,8.585 -10.369,15.816l19.855,95.457c0.783,3.765 3.079,6.829 6.122,8.685Zm16.898,36.32l-5.957,-28.637l27.536,-5.728l5.956,28.637l-27.535,5.728Zm-9.928,-47.729l-19.855,-95.457l27.536,-5.727l19.855,95.457l-27.536,5.727Z" style="fill:#fff;"/>
        </g>
    </g>
</svg>