<?xml version="1.0" encoding="UTF-8" standalone="no"?><!DOCTYPE svg PUBLIC "-//W3C//DTD SVG 1.1//EN" "http://www.w3.org/Graphics/SVG/1.1/DTD/svg11.dtd"><svg width="100%" height="100%" viewBox="0 0 2034 3004" version="1.1" xmlns="http://www.w3.org/2000/svg" xmlns:xlink="http://www.w3.org/1999/xlink" xml:space="preserve" xmlns:serif="http://www.serif.com/" style="fill-rule:evenodd;clip-rule:evenodd;stroke-linejoin:round;stroke-miterlimit:1.5;"><rect id="Artboard1" x="-0" y="0" width="2033.89" height="3003.44" style="fill:none;"/><g id="robe"><path d="M868.918,955.606c-34.174,13.284 -56.407,21.579 -68.745,51.24c-175.7,75.096 -273.131,176.804 -312.358,298.301c-120.486,235.647 -223.063,472.041 -310.796,709.053l109.325,73.404l-4.686,73.404c-66.052,81.229 -74.144,133.205 -51.459,147.54c5.899,25.788 19.729,41.884 50.197,37.642c69.713,19.448 101.813,4.437 120.982,-21.194c14.118,-31.285 4.961,-61.466 -1.429,-83.181c2.301,-31.408 -5.112,-53.113 -18.336,-68.313l22.73,-52.21l49.006,3.583c45.381,-83.167 89.172,-169.193 121.926,-298.09c39.272,-108.153 62.879,-153.642 84.337,-190.538c-22.214,94.113 -8.359,143.768 28.112,165.549c-5.856,14.935 -8.188,30.751 -3.124,48.416c-86.881,82.346 -108.291,158.555 -107.763,232.706c-29.172,29.064 -60.244,48.622 -92.146,64.034c4.036,20.824 9.626,41.647 21.865,62.471c-156.612,174.639 -238.935,352.473 -268.628,532.571c9.909,74.584 62.341,115.296 154.132,110.728c85.666,21.128 159.203,18.001 217.574,-15.459c54.06,-48.936 78.841,-97.872 90.584,-146.808c13.56,34.529 45.64,49.287 89.049,49.333c50.478,0.053 78.691,-39.097 93.68,-86.817c13.897,-27.418 0.661,-53.604 -15.618,-79.651c-5.532,-21.934 -12.852,-33.136 -21.114,-38.692l43.5,-52.712c17.267,7.778 35.104,9.282 53.735,2.047c5.095,-20.641 8.386,-41.282 6.653,-61.923c56.267,0.56 110.003,0.683 126.407,-5.63c2.888,32.367 11.612,52.928 32.241,55.271c29.196,21.903 53.752,53.508 50.153,64.483c-13.135,42.954 -26.27,67.284 -39.406,87c-6.904,24.358 -10.095,35.287 3.071,60.389c21.87,41.697 42.452,55.073 62.947,66.529c11.275,7.695 33.249,8.852 69.089,1.536c29.441,-6.957 45.788,-18.802 49.641,-35.312l93.654,99.794c67.175,46.279 150.155,60.34 252.813,34.289c70.837,-23.411 109.304,-56.937 114.635,-100.818c12.526,-31.636 -9.966,-102.959 -58.853,-204.196c-26.369,-58.212 -63.701,-122.271 -110.542,-191.4c-79.21,-179.042 -173.988,-313.977 -269.701,-446.261c3.036,-17.912 1.911,-35.824 -4.606,-53.736c27.572,-10.885 38.626,-39.259 42.989,-74.718l10.235,-155.065c14.804,-0.502 29.037,6.983 42.477,25.588c42.645,144.12 73.631,283.638 170.93,449.332c18.196,5.25 43.216,1.402 73.694,-9.724l20.983,55.783c-12.112,18.423 -14.671,40.941 -7.677,67.553c-16.148,35.986 -18.997,67.222 3.071,89.559c38.894,26.396 77.788,28.534 116.683,3.071c30.309,-1.018 50.045,-10.407 47.594,-37.359c16.177,-16.188 19.476,-38.23 5.63,-68.065c-10.378,-26.702 -27.493,-52.281 -54.248,-76.254l-23.029,-72.159l88.024,-47.594c-85.067,-213.344 -179.004,-426.195 -288.637,-638.174c-11.102,-94.309 -44.541,-207.471 -148.413,-274.307c-48.125,-24.943 -110.683,-58.642 -188.842,-93.142c-20.853,-23.617 -50.279,-43.427 -87.512,-46.57c11.224,-27.336 13.684,-56.424 11.259,-86.489c34.462,-16.972 48.957,-46.146 34.289,-93.142c17.168,-67.023 13.537,-125.572 -6.142,-177.583c-71.574,-95.386 -269.315,-94.433 -334.695,0c-36.88,78.716 -34.918,130.36 -26.612,177.583c-15.516,45.026 1.007,68.081 33.265,80.348c0.432,39.36 4.7,73.349 11.956,103.156Z" style="fill:#d69bff;stroke:#ebcdff;stroke-width:12.5px;"/><path d="M863.03,966.646c-34.174,13.285 -47.207,24.523 -62.857,40.2c-175.7,75.096 -273.131,176.804 -312.358,298.301c-120.486,235.647 -223.063,472.041 -310.796,709.053l109.325,73.404l117.999,33.688l49.006,3.583c45.381,-83.167 89.172,-169.193 121.926,-298.09c39.272,-108.153 62.879,-153.642 84.337,-190.538c-22.214,94.113 -8.359,143.768 28.112,165.549c-5.856,14.935 -8.188,30.751 -3.124,48.416c-86.881,82.346 -108.291,158.555 -107.763,232.706c-29.172,29.064 -60.244,48.622 -92.146,64.034c4.036,20.824 9.626,41.647 21.865,62.471c-156.612,174.639 -238.935,352.473 -268.628,532.571c9.909,74.584 62.341,115.296 154.132,110.728c85.666,21.128 159.203,18.001 217.574,-15.459c54.06,-48.936 78.841,-97.872 90.584,-146.808c-9.407,2.951 134.553,-177.366 145.997,-155.827l43.5,-52.712c17.267,7.778 35.104,9.282 53.735,2.047c5.095,-20.641 8.386,-41.282 6.653,-61.923c56.267,0.56 110.003,0.683 126.407,-5.63c2.888,32.367 11.612,52.928 32.241,55.271c29.196,21.903 53.752,53.508 50.153,64.483c13.723,23.261 115.971,158.324 145.342,180.142l93.654,99.794c67.175,46.279 150.155,60.34 252.813,34.289c70.837,-23.411 109.304,-56.937 114.635,-100.818c12.526,-31.636 -9.966,-102.959 -58.853,-204.196c-26.369,-58.212 -63.701,-122.271 -110.542,-191.4c-79.21,-179.042 -173.988,-313.977 -269.701,-446.261c3.036,-17.912 1.911,-35.824 -4.606,-53.736c27.572,-10.885 38.626,-39.259 42.989,-74.718l10.235,-155.065c14.804,-0.502 29.037,6.983 42.477,25.588c42.645,144.12 73.631,283.638 170.93,449.332c18.196,5.25 43.216,1.402 73.694,-9.724l109.007,-37.871l88.024,-47.594c-85.067,-213.344 -179.004,-426.195 -288.637,-638.174c-11.102,-94.309 -44.541,-207.471 -148.413,-274.307c-48.125,-24.943 -110.683,-58.642 -188.842,-93.142c-20.853,-23.617 -43.655,-39.379 -80.888,-42.522c2.345,58.15 -122.267,506.294 -140.406,446.485c-30.359,17.904 -157.485,-385.613 -148.786,-435.62Z" style="fill:#fff;fill-opacity:0.68;stroke:#fff;stroke-width:21.05px;"/><path d="M793.802,1019.37c14.938,189.563 45.974,372.298 171.265,515.045c-25.114,40.005 -63.515,108.483 -158.764,298.777c-72.67,158.736 -181.101,255.885 -313.778,311.277" style="fill:none;stroke:#fff;stroke-width:21.05px;"/><path d="M479.765,2242.2c130.187,-43.565 268.103,-90.623 391.544,-292.752l37.503,-60.005c32.485,-88.873 82.941,-191.569 158.764,-313.778c97.224,-162.134 149.465,-355.411 160.014,-577.551" style="fill:none;stroke:#fff;stroke-width:21.05px;"/><path d="M497.478,2171.79c111.614,-52.691 223.099,-139.763 300.577,-247.073" style="fill:none;stroke:#fff;stroke-width:9.53px;"/><path d="M504.099,2191.33c111.614,-52.691 236.32,-149.707 313.797,-257.017" style="fill:none;stroke:#fff;stroke-width:9.53px;"/><path d="M868.258,1892.87c32.393,-74.075 61.909,-146.664 116.665,-232.28c50.664,-90.759 99.263,-182.737 134.491,-282.616c31.022,-66.555 60.492,-164 83.107,-397.97" style="fill:none;stroke:#fff;stroke-width:9.53px;"/><path d="M429.898,2408.88c131.467,35.813 303.537,64.442 454.952,53.349c-6.956,-6.912 -8.938,-12.128 -8.219,-21.189c-127.502,16.61 -285.683,3.873 -446.733,-32.16Z" style="fill:#fff;stroke:#fff;stroke-width:9.53px;"/><path d="M512.42,2209.58c128.895,-53.332 245.28,-158.35 322.758,-265.66" style="fill:none;stroke:#fff;stroke-width:9.53px;"/><path d="M1152.97,958.71c-26.448,173.601 -68.376,316.169 -122.567,432.435c-21.576,46.438 -41.219,104.937 -66.134,144.698" style="fill:none;stroke:#fff;stroke-width:21.05px;"/><path d="M1016.42,1423.09c-88.08,-118.955 -151.232,-257.072 -153.542,-455.325" style="fill:none;stroke:#fff;stroke-width:21.25px;"/><path d="M1186.3,967.494c-10.055,96.972 -21.701,196.243 -62.726,337.95c-24.879,73.578 -56.16,153.182 -110.09,254.102c-60.664,105.68 -115.351,214.349 -165.774,325.149" style="fill:none;stroke:#fff;stroke-width:9.53px;"/><path d="M1168.38,959.174c-12.924,94.514 -9.136,151.627 -63.366,338.589c-22.63,53.162 -28.762,99.512 -118.41,267.544c-50.36,88.581 -101.724,181.988 -160.654,311.707" style="fill:none;stroke:#fff;stroke-width:9.53px;"/><path d="M687.524,1855.09l245.021,117.511c-17.255,60.762 -31.584,130.887 -32.135,245.105c-1.388,129.816 -13.562,201.388 -31.621,241.187l72.507,20.002c34.899,-132.609 35.944,-246.176 17.501,-348.781c-12.29,-131.366 11.021,-182.038 48.755,-200.017c-16.649,39.287 -17.592,52.399 -14.213,58.307c39.05,35.234 80.587,28.177 122.972,6.699c53.153,34.887 63.942,90.956 43.754,162.514c-25.275,52.179 -36.814,135.754 -38.753,241.271c9.297,24.614 21.954,39.147 41.253,33.753c15.729,8.777 27.68,8.194 30.003,-16.251c24.571,-106.322 26.267,-209.124 7.501,-308.778c9.339,-74.214 -42.818,-133.786 -103.759,-191.266l68.756,55.005c55.702,-12.006 108.887,-31.251 158.763,-60.006l-2.5,-58.755c-67.157,36.263 -137.557,53.066 -211.268,50.004c-48.172,-6.207 -93.602,-5.435 -133.762,8.751c-113.589,-5.147 -198.9,-55.976 -283.775,-107.509l-5,51.254Z" style="fill:#e3b9ff;stroke:#fff;stroke-width:9.53px;"/><path d="M803.923,2555.7l-23.42,31.11c-222.843,47.457 -346.813,34.177 -439.042,1.399c144.213,26.085 298.673,14.113 462.462,-32.509Z" style="fill:#faf3ff;stroke:#fff;stroke-width:9.53px;"/><path d="M570.851,2220.32c8.973,46.496 51.475,73.337 142.946,71.473c9.601,37.692 9.245,62.583 -1.067,74.673c81.9,1.696 137.141,17.506 170.682,44.804" style="fill:none;stroke:#fff;stroke-width:21.25px;"/><path d="M713.797,2291.79c84.826,3.927 152.367,9.583 180.282,19.202" style="fill:none;stroke:#fff;stroke-width:21.25px;"/><path d="M967.686,2318.46c59.622,3.495 117.783,15.007 154.647,32.726" style="fill:none;stroke:#fff;stroke-width:21.25px;"/><path d="M1205.04,2361.23c24.891,6.4 66.707,-5.765 75.208,-39.574c44.684,-177.7 31.123,-290.682 -1.067,-382.967" style="fill:none;stroke:#fff;stroke-width:21.25px;"/><path d="M1288.36,2305.64c11.376,8.299 31.113,51.056 42.49,90.647c61.054,19.871 92.809,6.138 133.951,-47.953c-28.569,-88.023 -84.863,-184.711 -158.948,-286.958" style="fill:none;stroke:#fff;stroke-width:21.25px;"/><path d="M1431.81,2376.65c-16.854,-69.634 -60.751,-153.194 -117.43,-234.207" style="fill:none;stroke:#fff;stroke-width:10.42px;"/><path d="M1407.35,2391.88c-16.854,-69.634 -45.885,-134.285 -102.564,-215.297" style="fill:none;stroke:#fff;stroke-width:10.42px;"/><path d="M1379.45,2403.8c-16.855,-69.634 -26.528,-90.736 -83.207,-171.749" style="fill:none;stroke:#fff;stroke-width:10.42px;"/><path d="M1263.5,2646.48c207.718,41.865 329.215,28.417 340.886,-55.485c-56.286,80.596 -195.342,69.71 -357.185,33.638l16.299,21.847Z" style="fill:#fff;"/><path d="M1159.12,2509.16c152.335,2.098 338.444,-52.383 448.735,-32.251c-129.468,-40.666 -325.524,22.625 -470.236,11.79l21.501,20.461Z" style="fill:#fff;"/><path d="M1192.41,2420.38l172.003,-8.67c-39.326,-17.203 -57.47,-55.682 -73.501,-92.851l-12.847,25.922l13.524,47.162l-92.937,4.855l-6.242,23.582Z" style="fill:#fff;"/><path d="M191.822,1975.33c81.009,51.352 169.63,93.949 274.318,118.072" style="fill:none;stroke:#fff;stroke-width:8.33px;"/><path d="M478.346,2068.77c-86.266,-18.828 -177.25,-53.742 -276.537,-116.962" style="fill:none;stroke:#fff;stroke-width:8.33px;"/><path d="M1572.83,2062.06c95.122,-18.865 183.875,-51.138 264.941,-99.595" style="fill:none;stroke:#fff;stroke-width:8.33px;"/><path d="M1563.68,2042.08c89.153,-22.978 177.452,-54.794 264.386,-100.705" style="fill:none;stroke:#fff;stroke-width:8.33px;"/><path d="M1409.45,1288.86c54.786,198.166 -49.69,152.326 -31.289,309.653c-5.448,180.64 -5.235,233.239 -55.573,258.158l-26.747,5.395c-3.64,-8.861 -3.522,-16.469 -1.612,-23.481c6.363,-22.344 18.483,-36.054 30.478,-49.951c17.179,-25.818 24.866,-108.058 25.399,-232.824c-153.34,143.94 -142.211,0.72 -325.953,214.198c89.612,-207.754 175.233,-111.445 327.647,-245.524c-3.615,-109.678 45.69,-25.653 57.65,-235.624Z" style="fill:#fff;"/><path d="M739.414,1637.4c33.414,-162.982 54.529,-129.018 107.285,-299.099l-13.004,-33.594c-27.541,163.494 -80.117,129.782 -94.281,332.693Z" style="fill:#fff;"/><path d="M613.597,1263.11c-26.505,142.169 79.166,116.941 95.878,210.932c5.885,23.364 5.361,43.277 -1.065,60.012c-59.607,180.301 -40.071,244.867 8.523,257.806c4.109,7.734 2.874,14.4 -2.486,20.24c-81.422,-32.356 -68.814,-104.604 -55.396,-177.196l23.792,-86.29c3.923,-64.842 -2.976,-100.638 -17.045,-117.185c-45.214,-36.631 -93.991,-39.122 -52.201,-168.319Z" style="fill:#fff;"/><path d="M546.483,1281.23c-30.607,178.687 -7.153,322.481 66.404,433.936l-13.139,40.127c-83.001,-136.419 -110.414,-291.243 -53.265,-474.063Z" style="fill:#fff;"/><path d="M768.381,2719.83c0.187,-19.61 10.978,-35.78 30.254,-52.595" style="fill:none;stroke:#fff;stroke-opacity:0.44;stroke-width:8.33px;stroke-linecap:round;"/><path d="M739.524,2708.66c6.157,-13.834 16.959,-28.83 33.046,-45.147" style="fill:none;stroke:#fff;stroke-opacity:0.44;stroke-width:8.33px;stroke-linecap:round;"/><path d="M720.906,2698.89c5.534,-15.72 14.169,-26.014 24.668,-33.046" style="fill:none;stroke:#fff;stroke-opacity:0.44;stroke-width:8.33px;stroke-linecap:round;"/><path d="M1202.64,2678.41c26.356,22.166 33.691,40.358 33.977,56.318" style="fill:none;stroke:#fff;stroke-opacity:0.44;stroke-width:8.33px;stroke-linecap:round;"/><path d="M1230.56,2677.48c17.201,20.253 31.074,38.715 32.116,50.267" style="fill:none;stroke:#fff;stroke-opacity:0.44;stroke-width:8.33px;stroke-linecap:round;"/><path d="M1258.49,2679.34c10.124,7.391 19.2,17.582 25.599,34.908" style="fill:none;stroke:#fff;stroke-opacity:0.44;stroke-width:8.33px;stroke-linecap:round;"/><path d="M1715.97,2129.51c55.946,-19.402 81.386,44.262 40.908,65.453c-13.005,54.93 -50.648,93.381 -77.271,69.089" style="fill:none;stroke:#fff;stroke-opacity:0.44;stroke-width:8.33px;stroke-linecap:round;"/><path d="M1764.4,2215.3c13.358,3.216 40.204,-9.258 66.045,-29.873" style="fill:none;stroke:#fff;stroke-opacity:0.44;stroke-width:8.33px;stroke-linecap:round;"/><path d="M1836.87,2265.01c-46.535,7.788 -85.466,5.431 -92.259,-7.787" style="fill:none;stroke:#fff;stroke-opacity:0.44;stroke-width:8.33px;stroke-linecap:round;"/><path d="M1796.23,2299.1c-35.859,3.492 -61.372,-5.854 -75.662,-18.256" style="fill:none;stroke:#fff;stroke-opacity:0.44;stroke-width:8.33px;stroke-linecap:round;"/><path d="M333.34,2294.27c-3.402,18.927 -68.788,18.555 -103.623,4.423" style="fill:none;stroke:#fff;stroke-opacity:0.44;stroke-width:8.33px;stroke-linecap:round;"/><path d="M360.88,2314.31c-14.312,17.307 -74.538,25.025 -110.737,21.82" style="fill:none;stroke:#fff;stroke-opacity:0.44;stroke-width:8.33px;stroke-linecap:round;"/><path d="M351.642,2165.46c-46.797,-24.313 -83.149,46.367 -37.475,68.153c21.604,46.221 46.408,81.05 83.84,70.942" style="fill:none;stroke:#fff;stroke-opacity:0.44;stroke-width:8.33px;stroke-linecap:round;"/><path d="M307.195,2253.3c-15.789,4.291 -34.873,-0.157 -61.355,-24.228" style="fill:none;stroke:#fff;stroke-opacity:0.44;stroke-width:8.33px;stroke-linecap:round;"/><path d="M1426.28,1680.42c112.932,-191.217 77.045,-320.575 62.235,-458.694c7.168,155.232 5.852,306.076 -73.24,416.692l11.005,42.002Z" style="fill:#fff;"/><path d="M1426.28,1680.42c112.932,-191.217 77.045,-320.575 62.235,-458.694c7.168,155.232 5.852,306.076 -73.24,416.692l11.005,42.002Zm2.894,-21.836l-4.855,-18.528c48.2,-69.153 67.271,-153.45 73.101,-244.578c1.466,77.644 -12.012,161.521 -68.247,263.108l0.001,-0.002Z" style="fill:#fff;"/><path d="M1157.72,2526.54c44.256,40.321 87.511,115.918 146.529,189.769" style="fill:none;stroke:#fff;stroke-width:21.25px;"/></g><g id="user"><g id="face"><path d="M868.622,760.625l33.751,-7.972l30.404,3.295l20.291,10.077l30.466,25.809" style="fill:#d69bff;stroke:#fff;stroke-width:8.79px;stroke-linecap:round;"/><path d="M1022.94,791.727l14.586,-18.051l24.724,-15.828l28.125,-6.831l47.297,5.5" style="fill:#d69bff;stroke:#fff;stroke-width:8.79px;stroke-linecap:round;"/><path d="M880.727,777.628l12.978,-2.396l12.971,-5.348l15.938,0.842l12.111,4.394l16.56,12.35l18.35,19.427" style="fill:#d69bff;stroke:#fff;stroke-width:8.79px;stroke-linecap:round;"/><path d="M1039.57,805.527l15.888,-17.75l22.401,-10.094l15.928,-2.995l10.623,-0.324l15.651,3.794l6.205,2.639l8.851,-0.909" style="fill:#d69bff;stroke:#fff;stroke-width:8.79px;stroke-linecap:round;"/><path d="M864.279,806.298l12.395,0.262l4.439,4.709l7.104,7.654l8.859,2.337l11.518,2.92l25.09,1.997l17.404,-2.703" style="fill:#d69bff;stroke:#fff;stroke-width:8.79px;stroke-linecap:round;"/><path d="M1050.53,821.138l12.118,7.05l15.645,1.433l22.129,-1.831l12.673,-5.936l9.126,-8.288l8.544,-5.335l10.617,-2.39" style="fill:#d69bff;stroke:#fff;stroke-width:8.79px;stroke-linecap:round;"/><path d="M991.807,821.298l0.13,47.807l-2.034,11.81l-8.241,7.991l-10.898,7.702l-2.028,13.876l1.796,9.438l13.288,2.915l11.8,-1.507l4.439,4.414l8.572,5.289l10.034,-0.027l9.419,-8.879l15.352,2.319l11.192,-8.293l-0.928,-15.934l-13.024,-14.13l-12.714,-9.114l-2.408,-17.405l-2.466,-38.652" style="fill:#d69bff;stroke:#fff;stroke-width:8.79px;stroke-linecap:round;"/><path d="M970.674,972.452l18.886,-0.642l6.808,7.655l10.938,7.053l12.096,-1.509l13.849,-7.71l7.652,-7.694l16.531,1.726" style="fill:#d69bff;stroke:#fff;stroke-width:8.79px;stroke-linecap:round;"/><path d="M956.839,985.179c3.394,7.853 19.469,21.271 33.409,22.633c16.703,3.616 32.719,3.171 48.1,-1.016c13.942,-5.966 28.152,-17.488 30.628,-23.397" style="fill:#d69bff;stroke:#fff;stroke-width:8.79px;stroke-linecap:round;"/></g><g id="helmet"><path id="a-" serif:id="a " d="M822.352,753.837c-8.957,-57.939 -18.206,-97.229 -11.541,-130.987c23.859,-41.339 99.49,-101.715 121.314,-150.676c38.533,-17.516 87.071,-12.208 126.18,-2.266c38.052,45.011 77.421,87.48 120.281,123.211c13.781,31.796 20.964,96.796 18.879,148.613c-94.185,-145.823 -314.3,-122.898 -375.113,12.105Z" style="fill:#d69bff;stroke:#fff;stroke-width:13.18px;stroke-linecap:round;"/><path d="M825.198,711.585c-2.447,-15.254 1.94,-21.708 15.844,-15.906" style="fill:#d69bff;stroke:#fff;stroke-width:8.79px;stroke-linecap:round;"/><path d="M813.055,738.382c-13.587,-7.353 -16.031,-14.764 -2.959,-22.255" style="fill:#d69bff;stroke:#fff;stroke-width:8.79px;stroke-linecap:round;"/><path d="M813.546,700.645c-14.907,-4.057 -18.98,-10.713 -7.964,-20.991" style="fill:#d69bff;stroke:#fff;stroke-width:8.79px;stroke-linecap:round;"/><path d="M802.94,665.05c-11.724,-10.061 -12.546,-17.821 1.815,-22.377" style="fill:#d69bff;stroke:#fff;stroke-width:8.79px;stroke-linecap:round;"/><path d="M808.264,628.42c-10.523,-11.31 -10.471,-19.113 4.309,-22.033" style="fill:#d69bff;stroke:#fff;stroke-width:8.79px;stroke-linecap:round;"/><path d="M819.708,668.743c-2.448,-15.254 1.94,-21.707 15.844,-15.906" style="fill:#d69bff;stroke:#fff;stroke-width:8.79px;stroke-linecap:round;"/><path d="M838.471,638.47c-2.447,-15.254 1.94,-21.707 15.844,-15.906" style="fill:#d69bff;stroke:#fff;stroke-width:8.79px;stroke-linecap:round;"/><path d="M857.411,595.981c-2.447,-15.253 1.94,-21.707 15.844,-15.906" style="fill:#d69bff;stroke:#fff;stroke-width:8.79px;stroke-linecap:round;"/><path d="M891.207,567.757c4.627,-14.74 11.436,-18.552 21.282,-7.149" style="fill:#d69bff;stroke:#fff;stroke-width:8.79px;stroke-linecap:round;"/><path d="M934.136,556.159c4.628,-14.739 11.436,-18.552 21.282,-7.148" style="fill:#d69bff;stroke:#fff;stroke-width:8.79px;stroke-linecap:round;"/><path d="M982.201,547.397c8.746,-12.735 16.374,-14.383 22.443,-0.594" style="fill:#d69bff;stroke:#fff;stroke-width:8.79px;stroke-linecap:round;"/><path d="M982.642,516.859c8.746,-12.735 16.374,-14.383 22.443,-0.594" style="fill:#d69bff;stroke:#fff;stroke-width:8.79px;stroke-linecap:round;"/><path d="M970.868,486.145c8.746,-12.735 16.373,-14.384 22.443,-0.594" style="fill:#d69bff;stroke:#fff;stroke-width:8.79px;stroke-linecap:round;"/><path d="M1025.99,483.404c12.149,-9.544 19.92,-8.841 21.598,6.131" style="fill:#d69bff;stroke:#fff;stroke-width:8.79px;stroke-linecap:round;"/><path d="M1025.45,514.532c11.645,-10.152 19.443,-9.847 21.882,5.021" style="fill:#d69bff;stroke:#fff;stroke-width:8.79px;stroke-linecap:round;"/><path d="M1067.6,524.95c11.645,-10.151 19.443,-9.846 21.882,5.021" style="fill:#d69bff;stroke:#fff;stroke-width:8.79px;stroke-linecap:round;"/><path d="M940.789,519.639c4.576,-14.755 11.371,-18.592 21.257,-7.223" style="fill:#d69bff;stroke:#fff;stroke-width:8.79px;stroke-linecap:round;"/><path d="M935.034,495.121c4.576,-14.756 11.372,-18.592 21.257,-7.223" style="fill:#d69bff;stroke:#fff;stroke-width:8.79px;stroke-linecap:round;"/><path d="M903.934,533.638c4.576,-14.755 11.371,-18.592 21.257,-7.223" style="fill:#d69bff;stroke:#fff;stroke-width:8.79px;stroke-linecap:round;"/><path d="M1031.11,545.175c11.63,-10.169 19.428,-9.875 21.89,4.988" style="fill:#d69bff;stroke:#fff;stroke-width:8.79px;stroke-linecap:round;"/><path d="M1079.8,558.096c11.631,-10.169 19.429,-9.876 21.89,4.988" style="fill:#d69bff;stroke:#fff;stroke-width:8.79px;stroke-linecap:round;"/><path d="M1117.51,567.019c14.382,-5.643 21.622,-2.732 18.918,12.089" style="fill:#d69bff;stroke:#fff;stroke-width:8.79px;stroke-linecap:round;"/><path d="M820.678,601.56c-2.448,-15.254 1.94,-21.707 15.844,-15.906" style="fill:#d69bff;stroke:#fff;stroke-width:8.79px;stroke-linecap:round;"/><path d="M839.353,577.394c-2.447,-15.254 1.94,-21.707 15.844,-15.906" style="fill:#d69bff;stroke:#fff;stroke-width:8.79px;stroke-linecap:round;"/><path d="M864.136,553.317c-2.447,-15.254 1.94,-21.708 15.844,-15.907" style="fill:#d69bff;stroke:#fff;stroke-width:8.79px;stroke-linecap:round;"/><path d="M889.008,523.131c-2.448,-15.254 1.939,-21.707 15.844,-15.906" style="fill:#d69bff;stroke:#fff;stroke-width:8.79px;stroke-linecap:round;"/><path d="M907.683,498.966c-2.447,-15.254 1.94,-21.708 15.844,-15.907" style="fill:#d69bff;stroke:#fff;stroke-width:8.79px;stroke-linecap:round;"/><path d="M921.466,471.477c3.836,-14.965 10.433,-19.134 20.871,-8.271" style="fill:#d69bff;stroke:#fff;stroke-width:8.79px;stroke-linecap:round;"/><path d="M961.831,463.04c5.302,-14.511 12.28,-18.005 21.589,-6.16" style="fill:#d69bff;stroke:#fff;stroke-width:8.79px;stroke-linecap:round;"/><path d="M1006.88,456.98c11.224,-10.615 19.028,-10.626 22.067,4.13" style="fill:#d69bff;stroke:#fff;stroke-width:8.79px;stroke-linecap:round;"/><path d="M1051.87,462.136c14.427,-5.525 21.644,-2.556 18.82,12.243" style="fill:#d69bff;stroke:#fff;stroke-width:8.79px;stroke-linecap:round;"/><path d="M1069.84,486.831c14.427,-5.526 21.644,-2.556 18.82,12.242" style="fill:#d69bff;stroke:#fff;stroke-width:8.79px;stroke-linecap:round;"/><path d="M1094,505.507c14.427,-5.526 21.644,-2.557 18.819,12.242" style="fill:#d69bff;stroke:#fff;stroke-width:8.79px;stroke-linecap:round;"/><path d="M1118.08,530.29c14.427,-5.526 21.643,-2.557 18.819,12.242" style="fill:#d69bff;stroke:#fff;stroke-width:8.79px;stroke-linecap:round;"/><path d="M1142.16,555.073c14.427,-5.526 21.643,-2.557 18.819,12.242" style="fill:#d69bff;stroke:#fff;stroke-width:8.79px;stroke-linecap:round;"/><path d="M843.962,681.311c-2.448,-15.254 1.94,-21.707 15.844,-15.906" style="fill:#d69bff;stroke:#fff;stroke-width:8.79px;stroke-linecap:round;"/><path d="M871.744,658.553c1.8,-15.344 7.779,-20.358 19.577,-10.989" style="fill:#d69bff;stroke:#fff;stroke-width:8.79px;stroke-linecap:round;"/><path d="M902.141,640.667c5.376,-14.483 12.371,-17.942 21.62,-6.049" style="fill:#d69bff;stroke:#fff;stroke-width:8.79px;stroke-linecap:round;"/><path d="M938.372,633.316c7.581,-13.462 15.032,-15.781 22.301,-2.585" style="fill:#d69bff;stroke:#fff;stroke-width:8.79px;stroke-linecap:round;"/><path d="M973.92,627.817c8.502,-12.898 16.097,-14.691 22.427,-1.02" style="fill:#d69bff;stroke:#fff;stroke-width:8.79px;stroke-linecap:round;"/><path d="M1012.13,628.369c8.503,-12.899 16.098,-14.692 22.428,-1.02" style="fill:#d69bff;stroke:#fff;stroke-width:8.79px;stroke-linecap:round;"/><path d="M1055.32,627.749c10.845,-11.002 18.644,-11.286 22.198,3.354" style="fill:#d69bff;stroke:#fff;stroke-width:8.79px;stroke-linecap:round;"/><path d="M1098.12,633.281c11.915,-9.833 19.702,-9.317 21.738,5.61" style="fill:#d69bff;stroke:#fff;stroke-width:8.79px;stroke-linecap:round;"/><path d="M1128.49,645.937c11.916,-9.833 19.702,-9.317 21.739,5.61" style="fill:#d69bff;stroke:#fff;stroke-width:8.79px;stroke-linecap:round;"/><path d="M1160.49,660.294c14.834,-4.316 21.781,-0.762 17.745,13.753" style="fill:#d69bff;stroke:#fff;stroke-width:8.79px;stroke-linecap:round;"/><path d="M1207.46,708.756c9.962,11.809 9.53,19.6 -5.374,21.798" style="fill:#d69bff;stroke:#fff;stroke-width:8.79px;stroke-linecap:round;"/><path d="M1198.68,673.89c13.19,8.044 15.249,15.571 1.809,22.378" style="fill:#d69bff;stroke:#fff;stroke-width:8.79px;stroke-linecap:round;"/><path d="M1197.2,640.473c13.19,8.044 15.249,15.57 1.808,22.378" style="fill:#d69bff;stroke:#fff;stroke-width:8.79px;stroke-linecap:round;"/><path d="M1188.85,606.521c14.563,5.158 18.127,12.1 6.375,21.527" style="fill:#d69bff;stroke:#fff;stroke-width:8.79px;stroke-linecap:round;"/><path d="M1169,578.287c15.086,-3.326 21.783,0.68 16.796,14.897" style="fill:#d69bff;stroke:#fff;stroke-width:8.79px;stroke-linecap:round;"/><path d="M1161.55,616.906c15.087,-3.326 21.783,0.68 16.796,14.896" style="fill:#d69bff;stroke:#fff;stroke-width:8.79px;stroke-linecap:round;"/><path d="M1123.25,601.971c12.824,-8.615 20.522,-7.337 21.082,7.719" style="fill:#d69bff;stroke:#fff;stroke-width:8.79px;stroke-linecap:round;"/><path d="M1080.36,590.672c11.561,-10.248 19.36,-10.007 21.923,4.839" style="fill:#d69bff;stroke:#fff;stroke-width:8.79px;stroke-linecap:round;"/><path d="M1043.8,580.142c9.424,-12.241 17.13,-13.473 22.442,0.625" style="fill:#d69bff;stroke:#fff;stroke-width:8.79px;stroke-linecap:round;"/><path d="M995.106,580.888c7.828,-13.319 15.32,-15.501 22.346,-2.173" style="fill:#d69bff;stroke:#fff;stroke-width:8.79px;stroke-linecap:round;"/><path d="M952.853,588.485c5.217,-14.542 12.173,-18.078 21.553,-6.288" style="fill:#d69bff;stroke:#fff;stroke-width:8.79px;stroke-linecap:round;"/><path d="M909.892,599.998c5.329,-14.501 12.312,-17.983 21.6,-6.12" style="fill:#d69bff;stroke:#fff;stroke-width:8.79px;stroke-linecap:round;"/><path d="M874.376,620.432c1.49,-15.377 7.367,-20.511 19.352,-11.381" style="fill:#d69bff;stroke:#fff;stroke-width:8.79px;stroke-linecap:round;"/><path d="M957.671,432.802c-11.311,-12.946 -19.327,-30.05 -23.892,-51.51c-2.927,-10.328 -4.595,-31.03 4.92,-45.409c10.351,-15.642 17.561,-31.329 22.945,-47.043c6.051,-24.184 5.015,-38.323 6.01,-55.342c0.601,-10.261 14.82,-9.385 17.872,-23.729c-1.145,-7.702 0.626,-22.522 5.382,-44.629c1.605,-9.382 4.276,-13.415 7.33,-15.528c6.235,-2.237 9.683,3.868 12.13,12.967c5.111,26.013 5.708,44.093 5.749,61.196c-0.109,9.967 9.063,10.21 12.563,15.815c3.898,6.243 2.397,20.1 0.448,34.59c-1.841,13.686 15.675,26.207 19.428,32.496c10.231,19.641 11.787,30.511 12.709,38.557c1.856,16.203 3.578,31.089 -0.746,51.628c-3.989,18.951 -12.889,31.378 -17.591,37.172c-29.432,-19.379 -57.835,-19.455 -85.257,-1.231Z" style="fill:#d69bff;stroke:#fff;stroke-width:14.58px;stroke-linecap:round;"/><path d="M988.542,416.961c-7.485,-9.184 -13.677,-21.165 -18.427,-36.271c-2.444,-7.444 -2.165,-17.358 0.424,-29.366c2.192,-9.641 5.969,-17.241 10.763,-23.532" style="fill:#d69bff;stroke:#fff;stroke-width:8.79px;stroke-linecap:round;"/><path d="M1001.13,276.142c3.072,7.262 5.496,16.079 7.195,26.633c0.591,2.851 1.108,10.755 1.553,23.71c-0.193,13.692 -2.711,23.377 -6.602,30.699" style="fill:#d69bff;stroke:#fff;stroke-width:8.79px;stroke-linecap:round;"/></g><g id="eyes"><path d="M922.613,781.602c17.493,3.009 30.33,13.389 28.648,23.164c-1.681,9.776 -17.248,15.269 -34.741,12.26c-17.493,-3.009 -30.33,-13.388 -28.648,-23.164c1.681,-9.775 17.248,-15.269 34.741,-12.26Z" style="fill:#fff;"/><path d="M1081.49,785.427c-17.476,3.105 -30.256,13.553 -28.522,23.32c1.735,9.766 17.332,15.175 34.808,12.07c17.476,-3.104 30.256,-13.552 28.522,-23.319c-1.735,-9.766 -17.332,-15.175 -34.808,-12.071Z" style="fill:#fff;"/></g></g><path d="M867.861,951.268c24.812,59.676 26.974,32.191 74.684,95.66c37.133,49.399 105.162,44.552 136.175,1.362c26.361,-40.397 49.052,-49.129 69.118,-102.698" style="fill:none;stroke:#ebcdff;stroke-width:12.5px;stroke-linecap:round;"/></svg>