<?xml version="1.0" encoding="UTF-8" standalone="no"?><!DOCTYPE svg PUBLIC "-//W3C//DTD SVG 1.1//EN"
        "http://www.w3.org/Graphics/SVG/1.1/DTD/svg11.dtd">
<svg width="100%" height="100%" viewBox="0 0 1200 500" version="1.1"
     xmlns="http://www.w3.org/2000/svg"
     xmlns:xlink="http://www.w3.org/1999/xlink" xml:space="preserve"
     xmlns:serif="http://www.serif.com/" style="fill-rule:evenodd;clip-rule:evenodd;stroke-linecap:round;stroke-linejoin:round;stroke-miterlimit:1.5;">
    <defs>
        <linearGradient id="petal-bg" x2="0.35" y2="1">
            <stop offset="0%" stop-color="var(--palette1)"/>
            <stop offset="20%" stop-color="var(--palette2)"/>
            <stop offset="40%" stop-color="var(--palette3)"/>
            <stop offset="60%" stop-color="var(--palette4)"/>
            <stop offset="80%" stop-color="var(--palette5)"/>
            <stop offset="100%" stop-color="var(--palette6)"/>
        </linearGradient>
        <linearGradient id="_Linear1" x1="0" y1="0" x2="1" y2="0" gradientUnits="userSpaceOnUse" gradientTransform="matrix(162.06,0,0,33.744,376.557,251.485)">
            <stop offset="0" style="stop-color:#e3e3e3;stop-opacity:1"/>
            <stop offset="0.17" style="stop-color:#bebebe;stop-opacity:1"/>
            <stop offset="0.37" style="stop-color:#9c9c9c;stop-opacity:1"/>
            <stop offset="1" style="stop-color:#8e8e8e;stop-opacity:1"/>
        </linearGradient>
        <linearGradient id="_Linear2" x1="0" y1="0" x2="1" y2="0" gradientUnits="userSpaceOnUse" gradientTransform="matrix(2.86386,28.4059,-13.9037,1.40176,592.577,218.019)">
            <stop offset="0" style="stop-color:#fff;stop-opacity:1"/>
            <stop offset="1" style="stop-color:#8b8b8b;stop-opacity:1"/>
        </linearGradient>
        <linearGradient id="_Linear3" x1="0" y1="0" x2="1" y2="0" gradientUnits="userSpaceOnUse" gradientTransform="matrix(116.885,0,0,57.2109,542.916,250)">
            <stop offset="0" style="stop-color:#cdcdcd;stop-opacity:1"/>
            <stop offset="1" style="stop-color:#c5c5c5;stop-opacity:1"/>
        </linearGradient>
        <linearGradient id="_Linear4" x1="0" y1="0" x2="1" y2="0" gradientUnits="userSpaceOnUse" gradientTransform="matrix(-116.007,1.42068e-14,-3.0642e-15,-25.0211,815.299,245.503)">
            <stop offset="0" style="stop-color:#d7d4d4;stop-opacity:1"/>
            <stop offset="0.46" style="stop-color:#929191;stop-opacity:1"/>
            <stop offset="1" style="stop-color:#7f7e7e;stop-opacity:1"/>
        </linearGradient>
        <mask id="usr-mask">
            <g>
                <path d="M240.966,57.835c-1.882,-2.093 -3.234,-4.874 -4.032,-8.376c-0.504,-1.684 -0.826,-5.068 0.698,-7.445c1.657,-2.585 2.8,-5.17 3.645,-7.755c0.933,-3.973 0.73,-6.285 0.853,-9.073c0.074,-1.681 2.403,-1.572 2.869,-3.927c-0.205,-1.258 0.049,-3.688 0.776,-7.318c0.24,-1.54 0.668,-2.206 1.163,-2.559c1.015,-0.381 1.594,0.61 2.016,2.094c0.898,4.246 1.039,7.204 1.086,10.004c0.006,1.631 1.508,1.65 2.094,2.559c0.653,1.012 0.44,3.284 0.155,5.661c-0.269,2.245 2.628,4.253 3.257,5.274c0.753,1.396 1.23,2.521 1.543,3.455c0.402,1.201 0.533,2.087 0.628,2.826c0.343,2.648 0.66,5.081 0,8.453c-0.608,3.112 -2.035,5.167 -2.791,6.127c-3.774,-3.53 -8.506,-3.21 -13.96,-0Z" style="fill:#ab53ff;stroke:#fff;stroke-width:.25em;"/>
                <path id="foot" d="M324.162,331.148c0,0 -6.175,-6.334 -16.453,0.071c-6.547,4.08 -15.779,5.112 -15.943,5.135c-3.397,0.468 -6.679,0.567 -9.867,0.356c-0,0 0.106,-0.054 0.309,-0.169c6.176,-1.446 12.919,-3.837 20.623,-7.829c17.935,-15.689 33.85,-27.387 47.997,-42.778c2.794,-4.093 2.322,-6.254 1.431,-10.735c-5.392,-27.104 -20.77,-62.745 -34.438,-82.209l-5.156,-6.636c-3.055,-2.936 -5.423,-2.791 -8.449,-4.392c-7.344,-3.885 -31.661,1.249 -33.847,-8.545c-1.475,-6.607 -1.77,-14.066 -1.528,-21.912l2.105,-1.328l1.789,1.61l4.294,-1.252l2.684,-2.684l0.715,-6.083l0.537,-7.515l2.147,-5.367l2.147,-6.799l1.432,-5.905l-1.79,-5.188l-3.22,-0.895l-0.716,2.505l-0.015,-4.765c0.219,-8.487 -1.111,-19.111 -3.442,-24.283c-7.1,-5.748 -13.645,-12.607 -19.98,-19.885c-6.426,-1.535 -14.384,-2.289 -20.65,0.669c-3.457,8.066 -15.695,18.129 -19.503,24.952c-1.011,5.542 0.596,11.952 2.199,21.415l0.379,2.076l-2.505,-0.895l-1.61,2.505l-0.895,3.936l0.716,3.042l1.61,1.789l2.147,5.368l1.432,6.083l1.431,7.157l0.716,6.441l3.399,3.578l4.831,0.716l2.671,0.529c-0.584,7.204 -0.797,14.538 -3.092,21.138c-4.859,6.38 -18.878,8.86 -34.61,10.144c-3.802,0.31 -9.15,5.285 -13.725,11.935c-10.837,20.292 -30.065,76.476 -30.136,85.93c-0.802,4.631 -0.331,8.147 1.194,10.741c11.705,13.001 25.554,24.716 42.354,34.66c3.827,2.265 -0.424,-0.076 -0.424,-0.076l-26.085,4.432l-35.123,5.968c-7.373,2.217 -13.417,5.918 -17.39,11.935c-4.003,4.998 -6.073,8.708 -7.673,12.105c-1.067,4.509 -1.02,8.848 0.512,12.957c2.161,6.455 4.459,10.022 6.82,12.276c4.37,5.261 7.828,8.159 11.198,9.22c6.527,2.055 11.995,3.666 18.298,3.397c-0,-0 0.172,0.251 1.364,1.023l47.056,-1.023c2.263,-0.068 4.345,-0.315 5.968,-1.023c1.328,-0.909 2.019,-1.819 2.387,-2.728c0.304,0.795 0.942,1.39 2.046,1.705l142.364,3.069l21.653,-0c3.902,-0.473 7.771,-1.382 11.423,-5.115c2.932,-2.251 5.57,-4.944 7.502,-8.695c1.711,-3.323 3.329,-6.46 3.597,-9.684c0.376,-3.969 0.096,-6.556 -0.528,-10.776c0.024,-3.156 -0.642,-6.909 -6.138,-14.833c-3.909,-5.995 -9.287,-8.342 -15.174,-10.23c-9.21,-2.954 -18.419,-5.19 -27.629,-6.506l-0.02,1.489c-0.119,-2.054 -1.488,-3.561 -3.552,-3.337c0.136,-1.055 -1.983,-2.667 -3.457,-2.047c-0.331,-1.137 -1.24,-2.324 -2.34,-2.386c-0.827,0.078 -1.622,0.368 -2.387,0.852c0.549,-1.243 -0.338,-2.292 -1.193,-1.875c-1.978,0.765 -3.66,1.835 -4.794,3.474Zm-119.486,-84.558l0.132,-0.153c9.18,22.999 11.528,46.461 7.215,66.795l-0.051,0.239c-8.535,-7.827 -15.827,-17.216 -24.431,-31.889c-0.744,-1.269 -1.443,-4.027 0.154,-6.833c9.063,-15.921 11.413,-21.684 16.981,-28.159Zm81.858,66.367c8.515,-8.508 31.283,-32.182 29.877,-36.772c-1.287,-5.936 -7.89,-16.081 -14.271,-28.13c-0.593,-2.535 -3.805,-2.866 -5.419,-4.891c-4.281,17.168 -7.837,39.043 -10.08,69.452l-0.107,0.341Z" style="fill:#ab53ff;stroke:#fff;stroke-width:.25em;"/>
            </g>
        </mask>
    </defs>
    <symbol id="flwr">
        <g>
            <g class="ptl1">
                <path d="M250.123,86.342c-28.137,87.362 -30.107,144.819 -0,165.617"/>
                <path d="M249.877,86.342c28.137,87.362 30.107,144.819 0,165.617"/>
            </g>
            <g class="ptl2" serif:id="petal">
                <path d="M167.298,108.469c19.314,89.727 46.336,140.47 82.808,143.429"/>
                <path d="M167.085,108.592c68.049,61.589 98.483,110.363 82.809,143.428"/>
            </g>
            <g class="ptl3" serif:id="petal">
                <path d="M106.633,169.044c61.589,68.049 110.363,98.482 143.428,82.809"/>
                <path d="M106.511,169.257c89.726,19.314 140.469,46.336 143.428,82.808"/>
            </g>
            <g class="ptl4" serif:id="petal">
                <path d="M84.383,251.836c87.362,28.137 144.819,30.107 165.617,0"/>
                <path d="M84.383,252.082c87.362,-28.137 144.819,-30.107 165.617,-0"/>
            </g>
            <g class="ptl5" serif:id="petal">
                <path d="M332.915,108.592c-68.049,61.589 -98.483,110.363 -82.809,143.428"/>
                <path d="M332.702,108.469c-19.314,89.727 -46.336,140.47 -82.808,143.429"/>
            </g>
            <g class="ptl6" serif:id="petal">
                <path d="M393.489,169.257c-89.726,19.314 -140.469,46.336 -143.428,82.808"/>
                <path d="M393.367,169.044c-61.589,68.049 -110.363,98.482 -143.428,82.809"/>
            </g>
            <g class="ptl7" serif:id="petal">
                <path d="M250.123,413.658c-28.137,-87.362 -30.107,-144.819 -0,-165.617"/>
                <path d="M249.877,413.658c28.137,-87.362 30.107,-144.819 0,-165.617"/>
            </g>
            <g class="ptl8" serif:id="petal">
                <path d="M167.298,391.531c19.314,-89.727 46.336,-140.47 82.808,-143.429"/>
                <path d="M167.085,391.408c68.049,-61.589 98.483,-110.363 82.809,-143.428"/>
            </g>
            <g class="ptl9" serif:id="petal">
                <path d="M106.633,330.956c61.589,-68.049 110.363,-98.482 143.428,-82.809"/>
                <path d="M106.511,330.743c89.726,-19.314 140.469,-46.336 143.428,-82.808"/>
            </g>
            <g class="ptl10" serif:id="petal">
                <path d="M332.915,391.408c-68.049,-61.589 -98.483,-110.363 -82.809,-143.428"/>
                <path d="M332.702,391.531c-19.314,-89.727 -46.336,-140.47 -82.808,-143.429"/>
            </g>
            <g class="ptl11" serif:id="petal">
                <path d="M393.489,330.743c-89.726,-19.314 -140.469,-46.336 -143.428,-82.808"/>
                <path d="M393.367,330.956c-61.589,-68.049 -110.363,-98.482 -143.428,-82.809"/>
            </g>
            <g class="ptl12" serif:id="petal">
                <path d="M415.617,252.082c-87.362,-28.137 -144.819,-30.107 -165.617,-0"/>
                <path d="M415.617,251.836c-87.362,28.137 -144.819,30.107 -165.617,0"/>
            </g>
        </g>
    </symbol>
    <symbol id="flwr2">
        <g>
            <g id="petal12" serif:id="petal">
                <path d="M950.123,86.342c-28.137,87.362 -30.107,144.819 -0,165.617" style="fill:none;stroke:#fff;stroke-width:4.17px;"/>
                <path d="M949.877,86.342c28.137,87.362 30.107,144.819 0,165.617" style="fill:none;stroke:#fff;stroke-width:4.17px;"/>
            </g>
            <g id="petal13" serif:id="petal">
                <path d="M867.298,108.469c19.314,89.727 46.336,140.47 82.808,143.429" style="fill:none;stroke:#fff;stroke-width:4.17px;"/>
                <path d="M867.085,108.592c68.049,61.589 98.483,110.363 82.809,143.428" style="fill:none;stroke:#fff;stroke-width:4.17px;"/>
            </g>
            <g id="petal14" serif:id="petal">
                <path d="M806.633,169.044c61.589,68.049 110.363,98.482 143.428,82.809" style="fill:none;stroke:#fff;stroke-width:4.17px;"/>
                <path d="M806.511,169.257c89.726,19.314 140.469,46.336 143.428,82.808" style="fill:none;stroke:#fff;stroke-width:4.17px;"/>
            </g>
            <g id="petal15" serif:id="petal">
                <path d="M784.383,251.836c87.362,28.137 144.819,30.107 165.617,0" style="fill:none;stroke:#fff;stroke-width:4.17px;"/>
                <path d="M784.383,252.082c87.362,-28.137 144.819,-30.107 165.617,-0" style="fill:none;stroke:#fff;stroke-width:4.17px;"/>
            </g>
            <g id="petal16" serif:id="petal">
                <path d="M1032.91,108.592c-68.049,61.589 -98.483,110.363 -82.809,143.428" style="fill:none;stroke:#fff;stroke-width:4.17px;"/>
                <path d="M1032.7,108.469c-19.314,89.727 -46.336,140.47 -82.808,143.429" style="fill:none;stroke:#fff;stroke-width:4.17px;"/>
            </g>
            <g id="petal17" serif:id="petal">
                <path d="M1093.49,169.257c-89.726,19.314 -140.469,46.336 -143.428,82.808" style="fill:none;stroke:#fff;stroke-width:4.17px;"/>
                <path d="M1093.37,169.044c-61.589,68.049 -110.363,98.482 -143.428,82.809" style="fill:none;stroke:#fff;stroke-width:4.17px;"/>
            </g>
            <g id="petal18" serif:id="petal">
                <path d="M950.123,413.658c-28.137,-87.362 -30.107,-144.819 -0,-165.617" style="fill:none;stroke:#fff;stroke-width:4.17px;"/>
                <path d="M949.877,413.658c28.137,-87.362 30.107,-144.819 0,-165.617" style="fill:none;stroke:#fff;stroke-width:4.17px;"/>
            </g>
            <g id="petal19" serif:id="petal">
                <path d="M867.298,391.531c19.314,-89.727 46.336,-140.47 82.808,-143.429" style="fill:none;stroke:#fff;stroke-width:4.17px;"/>
                <path d="M867.085,391.408c68.049,-61.589 98.483,-110.363 82.809,-143.428" style="fill:none;stroke:#fff;stroke-width:4.17px;"/>
            </g>
            <g id="petal20" serif:id="petal">
                <path d="M806.633,330.956c61.589,-68.049 110.363,-98.482 143.428,-82.809" style="fill:none;stroke:#fff;stroke-width:4.17px;"/>
                <path d="M806.511,330.743c89.726,-19.314 140.469,-46.336 143.428,-82.808" style="fill:none;stroke:#fff;stroke-width:4.17px;"/>
            </g>
            <g id="petal21" serif:id="petal">
                <path d="M1032.91,391.408c-68.049,-61.589 -98.483,-110.363 -82.809,-143.428" style="fill:none;stroke:#fff;stroke-width:4.17px;"/>
                <path d="M1032.7,391.531c-19.314,-89.727 -46.336,-140.47 -82.808,-143.429" style="fill:none;stroke:#fff;stroke-width:4.17px;"/>
            </g>
            <g id="petal22" serif:id="petal">
                <path d="M1093.49,330.743c-89.726,-19.314 -140.469,-46.336 -143.428,-82.808" style="fill:none;stroke:#fff;stroke-width:4.17px;"/>
                <path d="M1093.37,330.956c-61.589,-68.049 -110.363,-98.482 -143.428,-82.809" style="fill:none;stroke:#fff;stroke-width:4.17px;"/>
            </g>
            <g id="petal23" serif:id="petal">
                <path d="M1115.62,252.082c-87.362,-28.137 -144.819,-30.107 -165.617,-0" style="fill:none;stroke:#fff;stroke-width:4.17px;"/>
                <path d="M1115.62,251.836c-87.362,28.137 -144.819,30.107 -165.617,0" style="fill:none;stroke:#fff;stroke-width:4.17px;"/>
            </g>
        </g>
    </symbol>
    <style>
        <!-- g#petal1 > path {
            fill:  linear-gradient(to right, #6666ff, #0099ff ,#8cff00, #eeff00, #ff3399, #f60, #ff0055, #ff009d, #ae2dc2, #6666ff, #09a1ff, #00ff6e, #d9ff01, #ffb406, #ffb406);
            stroke-width: 20em;
        } -->

        #petal-bg {
            --palette1: #ff3399;
            --palette2: #ff9046;
            --palette3: #d9ff01;
            --palette4: #8cff00;
            --palette5: #00f2ff;
            --palette6: #0044ff;
        }

        .flwr-pulse {
            fill: url(#petal-bg) #fff;
            transform-origin: center;
            transform-box: fill-box;
        }

        .device {
            filter: drop-shadow(0 0 2em #fff);
            animation: 8s device ease-in-out alternate-reverse infinite;
        }

        @keyframes device {
            0% {
                filter: drop-shadow(0 0 1em #fff);
                transform: translateY(-.25em);
            }
            25% {
                filter: drop-shadow(0 0 2em #fff);
                transform: translateY(.25em);
            }
            50% {
                filter: drop-shadow(0 0 1em #fff);
                transform: translateY(-.25em);
            }

            100% {
                filter: drop-shadow(0 0 2em #fff);
                transform: translateY(.25em);
            }
        }

        #usr-mask-bg {
            position: absolute;
            left: 0;
            animation: 10s maskMove linear infinite;
        }
        @keyframes rotate {
            100% {
                transform: rotate(360deg);
            }
        }
        @keyframes pulse {
            0% {
                transform: scale(0);
            }
            90% {
                opacity: .25;
            }
            100% {
                transform: scale(1.5);
                opacity: 0;
            }
        }
        @keyframes maskMove {
            100% {
                left: -50%;
            }
        }

        .flwr {
            transform-box: fill-box;
            transform-origin: center;
        }
        .flwr > g > path {
            fill: none;
            stroke-width: .21em;
        }

        .data {
            fill: none;
            stroke-width: 1em;
            stroke: #fff;
            stroke-dasharray: .5em, 0 .5em 4em;
            stroke-dashoffset: 5em;
            stroke-opacity: .5;
            animation: dash 10s linear infinite;
            animation-play-state: inherit;
        }

        @keyframes dash {
            from {
                stroke-dashoffset: 20em;
            }
            to {
                stroke-dashoffset: 0;
            }
        }

        .decent-usr > .body-fill {
            fill:#ab53ff;
            stroke:#fff;
            stroke-width: 1em;
        }
        #header {
            transform-origin: center;
        }
        g.flwr-pulse{
            animation: 4s pulse linear infinite;
            animation-play-state: inherit;
        }
        #play * {
            animation-play-state: paused;
        }
        #play:target * {
            animation-play-state: running;
        }
        #usr1>use, #usr2>use {
            animation: 4s pulse linear infinite;
            animation-play-state: inherit;
        }
    </style>
    <g id="play">
        <g id="usr2">
            <use class="flwr-pulse" href="#flwr" x="5" y="5" />
            <use class="flwr-pulse" href="#flwr" x="5" y="5" style="animation-delay: 500ms;"/>
            <use class="flwr-pulse" href="#flwr" x="5" y="5" style="animation-delay: 1000ms;"/>
            <use class="flwr-pulse" href="#flwr" x="5" y="5" style="animation-delay: 1500ms;"/>
            <use class="flwr-pulse" href="#flwr" x="5" y="5" style="animation-delay: 2000ms;"/>
            <use class="flwr-pulse" href="#flwr" x="5" y="5" style="animation-delay: 2500ms;"/>
            <use class="flwr-pulse" href="#flwr" x="5" y="5" style="animation-delay: 3000ms;"/>
            <use class="flwr-pulse" href="#flwr" x="5" y="5" style="animation-delay: 3500ms;"/>
<!--            <use class="flwr-pulse" href="#flwr" x="5" y="5" style="animation: 4s pulse linear infinite"/>-->
<!--            <use class="flwr-pulse" href="#flwr" x="5" y="5" style="animation: 4s pulse linear 500ms infinite"/>-->
<!--            <use class="flwr-pulse" href="#flwr" x="5" y="5" style="animation: 4s pulse linear 1000ms infinite"/>-->
<!--            <use class="flwr-pulse" href="#flwr" x="5" y="5" style="animation: 4s pulse linear 1500ms infinite"/>-->
<!--            <use class="flwr-pulse" href="#flwr" x="5" y="5" style="animation: 4s pulse linear 2000ms infinite"/>-->
<!--            <use class="flwr-pulse" href="#flwr" x="5" y="5" style="animation: 4s pulse linear 2500ms infinite"/>-->
<!--            <use class="flwr-pulse" href="#flwr" x="5" y="5" style="animation: 4s pulse linear 3000ms infinite"/>-->
<!--            <use class="flwr-pulse" href="#flwr" x="5" y="5" style="animation: 4s pulse linear 3500ms infinite"/>-->
            <g id="flower" class="flwr">
                <g id="petal">
                    <path d="M256.181,8.522c-41.516,128.903 -44.422,213.68 0,244.368"/>
                    <path d="M255.819,8.522c41.516,128.903 44.422,213.68 -0,244.368"/>
                </g>
                <g id="petal1" serif:id="petal">
                    <path d="M133.972,41.17c28.498,132.392 68.37,207.264 122.185,211.63"/>
                    <path d="M133.659,41.351c100.406,90.876 145.311,162.842 122.184,211.63"/>
                </g>
                <g id="petal2" serif:id="petal">
                    <path d="M44.461,130.549c90.875,100.406 162.842,145.311 211.63,122.185"/>
                    <path d="M44.28,130.863c132.392,28.497 207.264,68.369 211.629,122.184"/>
                </g>
                <g id="petal3" serif:id="petal">
                    <path d="M11.631,252.709c128.904,41.517 213.681,44.423 244.369,0"/>
                    <path d="M11.631,253.071c128.904,-41.516 213.681,-44.422 244.369,0"/>
                </g>
                <g id="petal4" serif:id="petal">
                    <path d="M378.341,41.351c-100.406,90.876 -145.311,162.842 -122.184,211.63"/>
                    <path d="M378.028,41.17c-28.498,132.392 -68.37,207.264 -122.185,211.63"/>
                </g>
                <g id="petal5" serif:id="petal">
                    <path d="M467.72,130.863c-132.392,28.497 -207.264,68.369 -211.629,122.184"/>
                    <path d="M467.539,130.549c-90.875,100.406 -162.842,145.311 -211.63,122.185"/>
                </g>
                <g id="petal6" serif:id="petal">
                    <path d="M256.181,491.478c-41.516,-128.903 -44.422,-213.68 0,-244.368"/>
                    <path d="M255.819,491.478c41.516,-128.903 44.422,-213.68 -0,-244.368"/>
                </g>
                <g id="petal7" serif:id="petal">
                    <path d="M133.972,458.83c28.498,-132.392 68.37,-207.264 122.185,-211.63"/>
                    <path d="M133.659,458.649c100.406,-90.876 145.311,-162.842 122.184,-211.63"/>
                </g>
                <g id="petal8" serif:id="petal">
                    <path d="M44.461,369.451c90.875,-100.406 162.842,-145.311 211.63,-122.185"/>
                    <path d="M44.28,369.137c132.392,-28.497 207.264,-68.369 211.629,-122.184"/>
                </g>
                <g id="petal9" serif:id="petal">
                    <path d="M378.341,458.649c-100.406,-90.876 -145.311,-162.842 -122.184,-211.63"/>
                    <path d="M378.028,458.83c-28.498,-132.392 -68.37,-207.264 -122.185,-211.63"/>
                </g>
                <g id="petal10" serif:id="petal">
                    <path d="M467.72,369.137c-132.392,-28.497 -207.264,-68.369 -211.629,-122.184"/>
                    <path d="M467.539,369.451c-90.875,-100.406 -162.842,-145.311 -211.63,-122.185"/>
                </g>
                <g id="petal11" serif:id="petal">
                    <path d="M500.369,253.071c-128.904,-41.516 -213.681,-44.422 -244.369,0"/>
                    <path d="M500.369,252.709c-128.904,41.517 -213.681,44.423 -244.369,0"/>
                </g>
            </g>
            <g class="decent-usr">
                <g class="body-fill">
                    <path d="M246.966,57.835c-1.882,-2.093 -3.234,-4.874 -4.032,-8.376c-0.504,-1.684 -0.826,-5.068 0.698,-7.445c1.657,-2.585 2.8,-5.17 3.645,-7.755c0.933,-3.973 0.73,-6.285 0.853,-9.073c0.074,-1.681 2.403,-1.572 2.869,-3.927c-0.205,-1.258 0.049,-3.688 0.776,-7.318c0.24,-1.54 0.668,-2.206 1.163,-2.559c1.015,-0.381 1.594,0.61 2.016,2.094c0.898,4.246 1.039,7.204 1.086,10.004c0.006,1.631 1.508,1.65 2.094,2.559c0.653,1.012 0.44,3.284 0.155,5.661c-0.269,2.245 2.628,4.253 3.257,5.274c0.753,1.396 1.23,2.521 1.543,3.455c0.402,1.201 0.533,2.087 0.628,2.826c0.343,2.648 0.66,5.081 0,8.453c-0.608,3.112 -2.035,5.167 -2.791,6.127c-3.774,-3.53 -8.506,-3.21 -13.96,-0Z" style="fill:#ab53ff;stroke:#fff;stroke-width: .15em;"/>
                    <path id="foot" d="M330.162,331.148c0,0 -6.175,-6.334 -16.453,0.071c-6.547,4.08 -15.779,5.112 -15.943,5.135c-3.397,0.468 -6.679,0.567 -9.867,0.356c-0,0 0.106,-0.054 0.309,-0.169c6.176,-1.446 12.919,-3.837 20.623,-7.829c17.935,-15.689 33.85,-27.387 47.997,-42.778c2.794,-4.093 2.322,-6.254 1.431,-10.735c-5.392,-27.104 -20.77,-62.745 -34.438,-82.209l-5.156,-6.636c-3.055,-2.936 -5.423,-2.791 -8.449,-4.392c-7.344,-3.885 -31.661,1.249 -33.847,-8.545c-1.475,-6.607 -1.77,-14.066 -1.528,-21.912l2.105,-1.328l1.789,1.61l4.294,-1.252l2.684,-2.684l0.715,-6.083l0.537,-7.515l2.147,-5.367l2.147,-6.799l1.432,-5.905l-1.79,-5.188l-3.22,-0.895l-0.716,2.505l-0.015,-4.765c0.219,-8.487 -1.111,-19.111 -3.442,-24.283c-7.1,-5.748 -13.645,-12.607 -19.98,-19.885c-6.426,-1.535 -14.384,-2.289 -20.65,0.669c-3.457,8.066 -15.695,18.129 -19.503,24.952c-1.011,5.542 0.596,11.952 2.199,21.415l0.379,2.076l-2.505,-0.895l-1.61,2.505l-0.895,3.936l0.716,3.042l1.61,1.789l2.147,5.368l1.432,6.083l1.431,7.157l0.716,6.441l3.399,3.578l4.831,0.716l2.671,0.529c-0.584,7.204 -0.797,14.538 -3.092,21.138c-4.859,6.38 -18.878,8.86 -34.61,10.144c-3.802,0.31 -9.15,5.285 -13.725,11.935c-10.837,20.292 -30.065,76.476 -30.136,85.93c-0.802,4.631 -0.331,8.147 1.194,10.741c11.705,13.001 25.554,24.716 42.354,34.66c3.827,2.265 -0.424,-0.076 -0.424,-0.076l-26.085,4.432l-35.123,5.968c-7.373,2.217 -13.417,5.918 -17.39,11.935c-4.003,4.998 -6.073,8.708 -7.673,12.105c-1.067,4.509 -1.02,8.848 0.512,12.957c2.161,6.455 4.459,10.022 6.82,12.276c4.37,5.261 7.828,8.159 11.198,9.22c6.527,2.055 11.995,3.666 18.298,3.397c-0,-0 0.172,0.251 1.364,1.023l47.056,-1.023c2.263,-0.068 4.345,-0.315 5.968,-1.023c1.328,-0.909 2.019,-1.819 2.387,-2.728c0.304,0.795 0.942,1.39 2.046,1.705l142.364,3.069l21.653,-0c3.902,-0.473 7.771,-1.382 11.423,-5.115c2.932,-2.251 5.57,-4.944 7.502,-8.695c1.711,-3.323 3.329,-6.46 3.597,-9.684c0.376,-3.969 0.096,-6.556 -0.528,-10.776c0.024,-3.156 -0.642,-6.909 -6.138,-14.833c-3.909,-5.995 -9.287,-8.342 -15.174,-10.23c-9.21,-2.954 -18.419,-5.19 -27.629,-6.506l-0.02,1.489c-0.119,-2.054 -1.488,-3.561 -3.552,-3.337c0.136,-1.055 -1.983,-2.667 -3.457,-2.047c-0.331,-1.137 -1.24,-2.324 -2.34,-2.386c-0.827,0.078 -1.622,0.368 -2.387,0.852c0.549,-1.243 -0.338,-2.292 -1.193,-1.875c-1.978,0.765 -3.66,1.835 -4.794,3.474Zm-119.486,-84.558l0.132,-0.153c9.18,22.999 11.528,46.461 7.215,66.795l-0.051,0.239c-8.535,-7.827 -15.827,-17.216 -24.431,-31.889c-0.744,-1.269 -1.443,-4.027 0.154,-6.833c9.063,-15.921 11.413,-21.684 16.981,-28.159Zm81.858,66.367c8.515,-8.508 31.283,-32.182 29.877,-36.772c-1.287,-5.936 -7.89,-16.081 -14.271,-28.13c-0.593,-2.535 -3.805,-2.866 -5.419,-4.891c-4.281,17.168 -7.837,39.043 -10.08,69.452l-0.107,0.341Z" style="fill:#ab53ff;stroke:#fff;stroke-width: .15em;"/>
                </g>
                <g class="body">
                    <path d="M276.946,150.177l1.789,1.61l4.294,-1.252l2.684,-2.684l0.715,-6.083l0.537,-7.515l2.147,-5.367l2.147,-6.799l1.432,-5.905l-1.79,-5.188l-3.22,-0.895l-0.716,2.505" style="fill:none;stroke:#fff;stroke-width: .15em;"/>
                    <path d="M225.953,112.783l-2.505,-0.895l-1.61,2.505l-0.895,3.936l0.716,3.042l1.61,1.789l2.147,5.368l1.432,6.083l1.431,7.157l0.716,6.441l3.399,3.578l4.831,0.716" style="fill:none;stroke:#fff;stroke-width: .15em;"/>
                    <path d="M274.841,151.505c-0.242,7.846 0.053,15.305 1.528,21.912c2.186,9.794 26.503,4.66 33.847,8.545c3.026,1.601 5.394,1.456 8.449,4.392l5.156,6.636c13.668,19.464 29.046,55.105 34.438,82.209c0.891,4.481 1.363,6.642 -1.431,10.735c-14.147,15.391 -30.062,27.089 -47.997,42.778c-7.704,3.992 -14.447,6.383 -20.623,7.829c-2.811,1.591 -9.281,3.182 -17.186,4.774c-16.56,2.077 -28.322,0.157 -38.764,-2.865c-3.469,-2.737 -2.705,-4.264 0.955,-4.964c27.011,3.946 25.949,2.84 26.925,2.1c3.835,0.47 6.285,-0.215 7.065,-2.291c-2.507,-2.038 -8.857,-1.673 -15.467,-1.146c-4.313,-1.006 -3.839,-2.749 -1.528,-4.774c11.237,-2.708 19.897,-2.838 28.07,-2.482c2.077,-0.725 4.343,-2.43 6.302,-4.201c2.907,-2.629 3.675,-3.549 5.729,-5.538c5.491,-5.319 33.662,-33.879 32.102,-38.969c-1.287,-5.936 -7.89,-16.081 -14.271,-28.13c-0.593,-2.535 -3.805,-2.866 -5.419,-4.891c-4.281,17.168 -7.837,39.043 -10.08,69.452" style="fill:none;stroke:#fff;stroke-width: .15em;"/>
                    <path d="M201.457,327.504l-26.085,4.432l-35.123,5.968c-7.373,2.217 -13.417,5.918 -17.39,11.935c-4.003,4.998 -6.073,8.708 -7.673,12.105c-1.067,4.509 -1.02,8.848 0.512,12.957c2.161,6.455 4.459,10.022 6.82,12.276c4.37,5.261 7.828,8.159 11.198,9.22c6.527,2.055 11.995,3.666 18.298,3.397" style="fill:none;stroke:#fff;stroke-width: .15em;"/>
                    <path d="M239.896,153.032c-0.584,7.204 -0.797,14.538 -3.092,21.138c-4.859,6.38 -18.878,8.86 -34.61,10.144c-3.802,0.31 -9.15,5.285 -13.725,11.935c-10.837,20.292 -30.065,76.476 -30.136,85.93c-0.802,4.631 -0.331,8.147 1.194,10.741c14.371,15.963 31.976,29.986 54.303,41.175c3.779,2.14 7.559,2.932 11.338,2.685c8.203,0.331 15.989,0.035 23.095,-1.28" style="fill:none;stroke:#fff;stroke-width: .15em;"/>
                    <path d="M274.055,324.724c2.571,-1.527 4.943,-3.082 7.206,-4.652c2.288,-4.563 1.094,-6.08 -2.983,-5.073c-8.61,3.842 -14.565,5.408 -17.604,4.476c3.219,-2.066 2.787,-4.127 -0.597,-3.879c-9.925,0.729 -30.297,7.494 -35.222,3.672c-11.75,-9.138 -20.494,-19.234 -31.314,-37.686c-0.744,-1.269 -1.443,-4.027 0.154,-6.833c9.134,-16.046 11.45,-21.774 17.113,-28.312c9.216,23.089 11.546,46.645 7.164,67.034" style="fill:none;stroke:#fff;stroke-width: .15em;"/>
                    <path d="M347.905,334.978c9.21,1.316 18.419,3.552 27.629,6.506c5.887,1.888 11.265,4.235 15.174,10.23c5.496,7.924 6.162,11.677 6.138,14.833c0.624,4.22 0.904,6.807 0.528,10.776c-0.268,3.224 -1.886,6.361 -3.597,9.684c-1.932,3.751 -4.57,6.444 -7.502,8.695c-3.652,3.733 -7.521,4.642 -11.423,5.115l-21.653,-0l-142.364,-3.069c-1.104,-0.315 -1.742,-0.91 -2.046,-1.705c-0.368,0.909 -1.059,1.819 -2.387,2.728c-1.623,0.708 -3.705,0.955 -5.968,1.023l-47.056,1.023c-1.192,-0.772 -2.198,-2.009 -3.069,-3.581c-0.948,-0.701 -1.175,-2.121 -0.682,-4.262c0.503,-1.746 1.606,-2.592 3.069,-2.898c7.034,-0.119 13.964,-0.091 21.823,-1.364c4.98,-0.973 10.055,-2.168 15.515,-4.263c8.704,-3.102 12.446,-5.477 15.686,-6.138c3.633,0.272 6.357,0.219 7.751,-0.309" style="fill:none;stroke:#fff;stroke-width: .15em;"/>
                    <path id="toes" d="M330.162,331.148c1.134,-1.639 2.816,-2.709 4.794,-3.474c0.855,-0.417 1.742,0.632 1.193,1.875c0.765,-0.484 1.56,-0.774 2.387,-0.852c1.1,0.062 2.009,1.249 2.34,2.386c1.474,-0.62 3.593,0.992 3.457,2.047c2.064,-0.224 3.433,1.283 3.552,3.337" style="fill:none;stroke:#fff;stroke-width: .15em;"/>
                    <path id="body-tihgh" d="M201.457,327.504l-26.085,4.432l-35.123,5.968c-7.373,2.217 -13.417,5.918 -17.39,11.935c-4.003,4.998 -6.073,8.708 -7.673,12.105c-1.067,4.509 -1.02,8.848 0.512,12.957c2.161,6.455 4.459,10.022 6.82,12.276c4.37,5.261 7.828,8.159 11.198,9.22c6.527,2.055 11.995,3.666 18.298,3.397" style="fill:none;stroke:#fff;stroke-width: .15em;"/>
                    <path d="M264.063,160.734c-3.435,0.685 -7.38,0.968 -12.703,-0c-2.742,-0.5 -8.158,-4.413 -9.125,-5.905c-1.954,-3.015 -3.334,-1.212 -6.62,-7.693c-3.39,-6.686 -5.261,-14.239 -6.441,-22.187c-1.334,-9.871 -0.576,-12.772 -0,-16.281c0.937,-5.719 2.586,-7.328 5.999,-9.626c5.914,-3.982 10.138,-5.379 15.43,-5.774c5.432,-0.405 9.009,-0.412 13.639,0.191c3.955,0.208 8.005,1.18 12.167,3.042c4.493,2.039 6.538,4.799 7.514,7.873c1.462,4.878 1.502,9.188 0.895,13.24c-1.554,11.636 -3.255,22.962 -6.513,28.216c-2.059,3.321 -9.287,13.916 -14.242,14.904Z" style="fill:none;stroke:#fff;stroke-width: .15em;"/>
                    <path id="foot-" serif:id="foot " d="M287.899,336.71c3.513,0.232 7.142,0.089 10.912,-0.511c4.035,-0.62 8.07,-1.745 12.105,-3.581c2.785,-1.459 5.115,-2.935 11.594,-4.262c2.77,-0.37 5.157,0.539 7.16,2.728l4.092,4.944l4.433,3.581l5.456,-2.558c2.212,-0.761 4.236,-0.929 5.967,-0.17c2.293,1.223 3.318,2.538 3.41,3.921c0.035,1.945 -0.096,3.368 -0.341,4.433c-0.416,1.316 -2.578,1.521 -4.773,1.705c-2.985,0.083 -5.73,-0.205 -8.355,-0.682c-2.829,-0.186 -3.899,1.83 -6.308,3.41c-5.038,3.304 -10.413,3.383 -15.686,4.433l-50.126,9.377c-0.237,1.194 -2.157,2.267 -3.195,3.461c-17.806,4.888 -33.748,8.383 -51.022,11.031" style="fill:none;stroke:#fff;stroke-width: .15em;"/>
                </g>
                <g id="face">
                    <path d="M235.615,110.099l5.367,-1.252l4.831,0.536l3.221,1.611l4.831,4.115" style="fill:none;stroke:#fff;stroke-width:2.08px;"/>
                    <path d="M260.127,115.109l2.326,-2.863l3.936,-2.505l4.473,-1.073l7.515,0.894" style="fill:none;stroke:#fff;stroke-width:2.08px;"/>
                    <path d="M237.531,112.806l2.064,-0.375l2.064,-0.844l2.533,0.141l1.923,0.703l2.626,1.97l2.908,3.096" style="fill:none;stroke:#fff;stroke-width:2.08px;"/>
                    <path d="M262.765,117.309l2.533,-2.814l3.565,-1.595l2.532,-0.469l1.689,-0.047l2.486,0.61l0.985,0.422l1.407,-0.14" style="fill:none;stroke:#fff;stroke-width:2.08px;"/>
                    <path d="M234.905,117.356l1.97,0.047l0.703,0.75l1.126,1.22l1.407,0.375l1.829,0.469l3.987,0.328l2.767,-0.422" style="fill:none;stroke:#fff;stroke-width:2.08px;"/>
                    <path d="M264.501,119.795l1.923,1.126l2.486,0.234l3.517,-0.281l2.017,-0.938l1.454,-1.314l1.36,-0.844l1.689,-0.375" style="fill:none;stroke:#fff;stroke-width:2.08px;"/>
                    <path d="M255.167,119.795l-0,7.598l-0.328,1.876l-1.314,1.267l-1.735,1.219l-0.328,2.205l0.281,1.501l2.111,0.469l1.876,-0.235l0.703,0.704l1.361,0.844l1.594,-0l1.501,-1.407l2.439,0.375l1.782,-1.313l-0.14,-2.533l-2.064,-2.251l-2.017,-1.454l-0.375,-2.768l-0.375,-6.144" style="fill:none;stroke:#fff;stroke-width:2.08px;"/>
                    <path d="M251.743,143.809l3.002,-0.093l1.079,1.219l1.735,1.126l1.923,-0.235l2.204,-1.219l1.22,-1.22l2.627,0.282" style="fill:none;stroke:#fff;stroke-width:2.08px;"/>
                    <path d="M249.539,145.826c0.536,1.25 3.085,3.389 5.3,3.612c2.653,0.582 5.198,0.518 7.645,-0.141c2.218,-0.942 4.482,-2.767 4.878,-3.705" style="fill:none;stroke:#fff;stroke-width:2.08px;"/>
                </g>
                <g id="helmet">
                    <path d="M225.94,103.784c-0.437,-2.492 0.266,-3.558 2.556,-2.642" style="fill:none;stroke:#fff;stroke-width:2.08px;"/>
                    <path d="M224.016,108.199c-2.242,-1.172 -2.66,-2.379 -0.537,-3.636" style="fill:none;stroke:#fff;stroke-width:2.08px;"/>
                    <path d="M224.007,102.02c-2.45,-0.628 -3.132,-1.708 -1.354,-3.417" style="fill:none;stroke:#fff;stroke-width:2.08px;"/>
                    <path d="M222.186,96.219c-1.943,-1.62 -2.095,-2.888 0.245,-3.668" style="fill:none;stroke:#fff;stroke-width:2.08px;"/>
                    <path d="M222.971,90.21c-1.749,-1.827 -1.759,-3.104 0.654,-3.617" style="fill:none;stroke:#fff;stroke-width:2.08px;"/>
                    <path d="M224.94,96.784c-0.437,-2.492 0.266,-3.558 2.556,-2.642" style="fill:none;stroke:#fff;stroke-width:2.08px;"/>
                    <path d="M227.94,91.784c-0.437,-2.492 0.266,-3.558 2.556,-2.642" style="fill:none;stroke:#fff;stroke-width:2.08px;"/>
                    <path d="M230.94,84.784c-0.437,-2.492 0.266,-3.558 2.556,-2.642" style="fill:none;stroke:#fff;stroke-width:2.08px;"/>
                    <path d="M236.405,80.084c0.723,-2.424 1.829,-3.064 3.467,-1.221" style="fill:none;stroke:#fff;stroke-width:2.08px;"/>
                    <path d="M243.405,78.084c0.723,-2.424 1.829,-3.064 3.467,-1.221" style="fill:none;stroke:#fff;stroke-width:2.08px;"/>
                    <path d="M251.253,76.536c1.401,-2.106 2.646,-2.394 3.672,-0.151" style="fill:none;stroke:#fff;stroke-width:2.08px;"/>
                    <path d="M251.253,71.536c1.401,-2.106 2.646,-2.394 3.672,-0.151" style="fill:none;stroke:#fff;stroke-width:2.08px;"/>
                    <path d="M249.253,66.536c1.401,-2.106 2.646,-2.394 3.672,-0.151" style="fill:none;stroke:#fff;stroke-width:2.08px;"/>
                    <path d="M258.269,65.957c1.966,-1.591 3.24,-1.495 3.55,0.952" style="fill:none;stroke:#fff;stroke-width:2.08px;"/>
                    <path d="M258.254,71.053c1.883,-1.689 3.16,-1.657 3.594,0.771" style="fill:none;stroke:#fff;stroke-width:2.08px;"/>
                    <path d="M265.179,72.659c1.882,-1.689 3.159,-1.657 3.594,0.77" style="fill:none;stroke:#fff;stroke-width:2.08px;"/>
                    <path d="M244.408,72.09c0.714,-2.427 1.818,-3.071 3.463,-1.233" style="fill:none;stroke:#fff;stroke-width:2.08px;"/>
                    <path d="M243.408,68.09c0.714,-2.427 1.818,-3.071 3.463,-1.233" style="fill:none;stroke:#fff;stroke-width:2.08px;"/>
                    <path d="M238.408,74.468c0.714,-2.426 1.818,-3.07 3.463,-1.232" style="fill:none;stroke:#fff;stroke-width:2.08px;"/>
                    <path d="M259.254,76.056c1.88,-1.692 3.157,-1.662 3.595,0.765" style="fill:none;stroke:#fff;stroke-width:2.08px;"/>
                    <path d="M267.254,78.056c1.88,-1.692 3.157,-1.662 3.595,0.765" style="fill:none;stroke:#fff;stroke-width:2.08px;"/>
                    <path d="M273.448,79.428c2.341,-0.958 3.533,-0.498 3.126,1.934" style="fill:none;stroke:#fff;stroke-width:2.08px;"/>
                    <path d="M224.94,85.784c-0.437,-2.492 0.266,-3.558 2.556,-2.642" style="fill:none;stroke:#fff;stroke-width:2.08px;"/>
                    <path d="M227.94,81.784c-0.437,-2.492 0.266,-3.558 2.556,-2.642" style="fill:none;stroke:#fff;stroke-width:2.08px;"/>
                    <path d="M231.94,77.784c-0.437,-2.492 0.266,-3.558 2.556,-2.642" style="fill:none;stroke:#fff;stroke-width:2.08px;"/>
                    <path d="M235.94,72.784c-0.437,-2.492 0.266,-3.558 2.556,-2.642" style="fill:none;stroke:#fff;stroke-width:2.08px;"/>
                    <path d="M238.94,68.784c-0.437,-2.492 0.266,-3.558 2.556,-2.642" style="fill:none;stroke:#fff;stroke-width:2.08px;"/>
                    <path d="M241.131,64.251c0.593,-2.458 1.663,-3.157 3.397,-1.403" style="fill:none;stroke:#fff;stroke-width:2.08px;"/>
                    <path d="M247.719,62.775c0.834,-2.388 1.968,-2.977 3.519,-1.06" style="fill:none;stroke:#fff;stroke-width:2.08px;"/>
                    <path d="M255.079,61.676c1.812,-1.764 3.09,-1.784 3.622,0.624" style="fill:none;stroke:#fff;stroke-width:2.08px;"/>
                    <path d="M262.455,62.414c2.349,-0.939 3.537,-0.47 3.11,1.96" style="fill:none;stroke:#fff;stroke-width:2.08px;"/>
                    <path d="M265.455,66.414c2.349,-0.939 3.537,-0.47 3.11,1.96" style="fill:none;stroke:#fff;stroke-width:2.08px;"/>
                    <path d="M269.455,69.414c2.349,-0.939 3.537,-0.47 3.11,1.96" style="fill:none;stroke:#fff;stroke-width:2.08px;"/>
                    <path d="M273.455,73.414c2.349,-0.939 3.537,-0.47 3.11,1.96" style="fill:none;stroke:#fff;stroke-width:2.08px;"/>
                    <path d="M277.455,77.414c2.349,-0.939 3.537,-0.47 3.11,1.96" style="fill:none;stroke:#fff;stroke-width:2.08px;"/>
                    <path d="M228.94,98.784c-0.437,-2.492 0.266,-3.558 2.556,-2.642" style="fill:none;stroke:#fff;stroke-width:2.08px;"/>
                    <path d="M233.434,94.993c0.258,-2.516 1.225,-3.351 3.179,-1.846" style="fill:none;stroke:#fff;stroke-width:2.08px;"/>
                    <path d="M238.368,91.993c0.846,-2.384 1.982,-2.967 3.525,-1.042" style="fill:none;stroke:#fff;stroke-width:2.08px;"/>
                    <path d="M244.281,90.704c1.209,-2.222 2.424,-2.619 3.645,-0.476" style="fill:none;stroke:#fff;stroke-width:2.08px;"/>
                    <path d="M250.087,89.72c1.362,-2.132 2.601,-2.443 3.669,-0.22" style="fill:none;stroke:#fff;stroke-width:2.08px;"/>
                    <path d="M256.343,89.72c1.361,-2.132 2.6,-2.443 3.669,-0.22" style="fill:none;stroke:#fff;stroke-width:2.08px;"/>
                    <path d="M263.412,89.516c1.749,-1.826 3.025,-1.891 3.641,0.497" style="fill:none;stroke:#fff;stroke-width:2.08px;"/>
                    <path d="M270.432,90.32c1.927,-1.637 3.203,-1.571 3.572,0.868" style="fill:none;stroke:#fff;stroke-width:2.08px;"/>
                    <path d="M275.432,92.32c1.927,-1.637 3.203,-1.571 3.572,0.868" style="fill:none;stroke:#fff;stroke-width:2.08px;"/>
                    <path d="M280.705,94.595c2.418,-0.742 3.563,-0.176 2.937,2.21" style="fill:none;stroke:#fff;stroke-width:2.08px;"/>
                    <path d="M288.508,102.417c1.659,1.91 1.606,3.186 -0.828,3.581" style="fill:none;stroke:#fff;stroke-width:2.08px;"/>
                    <path d="M286.989,96.73c2.178,1.286 2.533,2.513 0.349,3.659" style="fill:none;stroke:#fff;stroke-width:2.08px;"/>
                    <path d="M286.668,91.264c2.178,1.285 2.533,2.512 0.349,3.659" style="fill:none;stroke:#fff;stroke-width:2.08px;"/>
                    <path d="M285.22,85.726c2.396,0.809 2.996,1.937 1.095,3.508" style="fill:none;stroke:#fff;stroke-width:2.08px;"/>
                    <path d="M281.904,81.151c2.461,-0.58 3.567,0.06 2.784,2.399" style="fill:none;stroke:#fff;stroke-width:2.08px;"/>
                    <path d="M280.776,87.49c2.462,-0.58 3.568,0.06 2.785,2.399" style="fill:none;stroke:#fff;stroke-width:2.08px;"/>
                    <path d="M274.471,85.136c2.078,-1.441 3.342,-1.25 3.469,1.213" style="fill:none;stroke:#fff;stroke-width:2.08px;"/>
                    <path d="M267.423,83.388c1.868,-1.705 3.145,-1.684 3.6,0.74" style="fill:none;stroke:#fff;stroke-width:2.08px;"/>
                    <path d="M261.413,81.75c1.514,-2.026 2.773,-2.246 3.675,0.05" style="fill:none;stroke:#fff;stroke-width:2.08px;"/>
                    <path d="M253.445,81.987c1.249,-2.198 2.471,-2.573 3.652,-0.408" style="fill:none;stroke:#fff;stroke-width:2.08px;"/>
                    <path d="M246.546,83.331c0.819,-2.393 1.95,-2.988 3.513,-1.08" style="fill:none;stroke:#fff;stroke-width:2.08px;"/>
                    <path d="M239.54,85.317c0.838,-2.386 1.973,-2.973 3.522,-1.053" style="fill:none;stroke:#fff;stroke-width:2.08px;"/>
                    <path d="M233.775,88.746c0.207,-2.521 1.157,-3.375 3.141,-1.909" style="fill:none;stroke:#fff;stroke-width:2.08px;"/>
                    <path d="M246.966,57.835c-1.882,-2.093 -3.234,-4.874 -4.032,-8.376c-0.504,-1.684 -0.826,-5.068 0.698,-7.445c1.657,-2.585 2.8,-5.17 3.645,-7.755c0.933,-3.973 0.73,-6.285 0.853,-9.073c0.074,-1.681 2.403,-1.572 2.869,-3.927c-0.205,-1.258 0.049,-3.688 0.776,-7.318c0.24,-1.54 0.668,-2.206 1.163,-2.559c1.015,-0.381 1.594,0.61 2.016,2.094c0.898,4.246 1.039,7.204 1.086,10.004c0.006,1.631 1.508,1.65 2.094,2.559c0.653,1.012 0.44,3.284 0.155,5.661c-0.269,2.245 2.628,4.253 3.257,5.274c1.721,3.19 2.002,4.966 2.171,6.281c0.343,2.648 0.66,5.081 0,8.453c-0.608,3.112 -2.035,5.167 -2.791,6.127" style="fill:none;stroke:#fff;stroke-width: .15em;"/>
                    <path d="M251.982,55.169c-1.246,-1.486 -2.288,-3.433 -3.102,-5.894c-0.417,-1.213 -0.395,-2.837 0,-4.808c0.337,-1.584 0.937,-2.837 1.707,-3.878" style="fill:none;stroke:#fff;stroke-width:2.08px;"/>
                    <path d="M253.71,32.087c0.52,1.182 0.937,2.619 1.24,4.343c0.104,0.465 0.207,1.758 0.311,3.878c0.001,2.241 -0.389,3.833 -1.008,5.04" style="fill:none;stroke:#fff;stroke-width:2.08px;"/>
                    <path d="M225.574,110.707c-1.603,-9.463 -3.21,-15.873 -2.199,-21.415c3.808,-6.823 16.046,-16.886 19.503,-24.952c6.266,-2.958 14.224,-2.204 20.65,-0.669c6.335,7.278 12.88,14.137 19.98,19.885c2.331,5.172 3.661,15.796 3.442,24.283" style="fill:none;stroke:#fff;stroke-width:3.13px;"/>
                </g>
            </g>
        </g>

        <g id="usr1">
            <use class="flwr-pulse" href="#flwr2" x="5" y="5" />
            <use class="flwr-pulse" href="#flwr2" x="5" y="5" style="animation-delay: 500ms;"/>
            <use class="flwr-pulse" href="#flwr2" x="5" y="5" style="animation-delay: 1000ms;"/>
            <use class="flwr-pulse" href="#flwr2" x="5" y="5" style="animation-delay: 1500ms;"/>
            <use class="flwr-pulse" href="#flwr2" x="5" y="5" style="animation-delay: 2000ms;"/>
            <use class="flwr-pulse" href="#flwr2" x="5" y="5" style="animation-delay: 2500ms;"/>
            <use class="flwr-pulse" href="#flwr2" x="5" y="5" style="animation-delay: 3000ms;"/>
            <use class="flwr-pulse" href="#flwr2" x="5" y="5" style="animation-delay: 3500ms;"/>
            <g id="flower1" class="flwr" style="animation-direction: reverse;">
                <g id="petal12" serif:id="petal">
                    <path d="M950.181,8.522c-41.516,128.903 -44.422,213.68 0,244.368"/>
                    <path d="M949.819,8.522c41.516,128.903 44.422,213.68 -0,244.368"/>
                </g>
                <g id="petal13" serif:id="petal">
                    <path d="M827.972,41.17c28.498,132.392 68.37,207.264 122.185,211.63"/>
                    <path d="M827.659,41.351c100.406,90.876 145.311,162.842 122.184,211.63"/>
                </g>
                <g id="petal14" serif:id="petal">
                    <path d="M738.461,130.549c90.875,100.406 162.842,145.311 211.63,122.185"/>
                    <path d="M738.28,130.863c132.392,28.497 207.264,68.369 211.629,122.184"/>
                </g>
                <g id="petal15" serif:id="petal">
                    <path d="M705.631,252.709c128.904,41.517 213.681,44.423 244.369,0"/>
                    <path d="M705.631,253.071c128.904,-41.516 213.681,-44.422 244.369,0"/>
                </g>
                <g id="petal16" serif:id="petal">
                    <path d="M1072.34,41.351c-100.406,90.876 -145.311,162.842 -122.184,211.63"/>
                    <path d="M1072.03,41.17c-28.498,132.392 -68.37,207.264 -122.185,211.63"/>
                </g>
                <g id="petal17" serif:id="petal">
                    <path d="M1161.72,130.863c-132.392,28.497 -207.264,68.369 -211.629,122.184"/>
                    <path d="M1161.54,130.549c-90.875,100.406 -162.842,145.311 -211.63,122.185"/>
                </g>
                <g id="petal18" serif:id="petal">
                    <path d="M950.181,491.478c-41.516,-128.903 -44.422,-213.68 0,-244.368"/>
                    <path d="M949.819,491.478c41.516,-128.903 44.422,-213.68 -0,-244.368"/>
                </g>
                <g id="petal19" serif:id="petal">
                    <path d="M827.972,458.83c28.498,-132.392 68.37,-207.264 122.185,-211.63"/>
                    <path d="M827.659,458.649c100.406,-90.876 145.311,-162.842 122.184,-211.63"/>
                </g>
                <g id="petal20" serif:id="petal">
                    <path d="M738.461,369.451c90.875,-100.406 162.842,-145.311 211.63,-122.185"/>
                    <path d="M738.28,369.137c132.392,-28.497 207.264,-68.369 211.629,-122.184"/>
                </g>
                <g id="petal21" serif:id="petal">
                    <path d="M1072.34,458.649c-100.406,-90.876 -145.311,-162.842 -122.184,-211.63"/>
                    <path d="M1072.03,458.83c-28.498,-132.392 -68.37,-207.264 -122.185,-211.63"/>
                </g>
                <g id="petal22" serif:id="petal">
                    <path d="M1161.72,369.137c-132.392,-28.497 -207.264,-68.369 -211.629,-122.184"/>
                    <path d="M1161.54,369.451c-90.875,-100.406 -162.842,-145.311 -211.63,-122.185"/>
                </g>
                <g id="petal23" serif:id="petal">
                    <path d="M1194.37,253.071c-128.904,-41.516 -213.681,-44.422 -244.369,0"/>
                    <path d="M1194.37,252.709c-128.904,41.517 -213.681,44.423 -244.369,0"/>
                </g>
            </g>
            <g id="decent-user1" serif:id="decent-user">
                <g id="body-fill1" serif:id="body-fill">
                    <path d="M940.966,57.835c-1.882,-2.093 -3.234,-4.874 -4.032,-8.376c-0.504,-1.684 -0.826,-5.068 0.698,-7.445c1.657,-2.585 2.8,-5.17 3.645,-7.755c0.933,-3.973 0.73,-6.285 0.853,-9.073c0.074,-1.681 2.403,-1.572 2.869,-3.927c-0.205,-1.258 0.049,-3.688 0.776,-7.318c0.24,-1.54 0.668,-2.206 1.163,-2.559c1.015,-0.381 1.594,0.61 2.016,2.094c0.898,4.246 1.039,7.204 1.086,10.004c0.006,1.631 1.508,1.65 2.094,2.559c0.653,1.012 0.44,3.284 0.155,5.661c-0.269,2.245 2.628,4.253 3.257,5.274c0.753,1.396 1.23,2.521 1.543,3.455c0.402,1.201 0.533,2.087 0.628,2.826c0.343,2.648 0.66,5.081 0,8.453c-0.608,3.112 -2.035,5.167 -2.791,6.127c-3.774,-3.53 -8.506,-3.21 -13.96,-0Z" style="fill:#ab53ff;stroke:#fff;stroke-width: .15em;"/>
                    <path id="foot1" serif:id="foot" d="M1024.16,331.148c0,0 -6.175,-6.334 -16.453,0.071c-6.547,4.08 -15.779,5.112 -15.943,5.135c-3.397,0.468 -6.679,0.567 -9.867,0.356c-0,0 0.106,-0.054 0.309,-0.169c6.176,-1.446 12.919,-3.837 20.623,-7.829c17.935,-15.689 33.85,-27.387 47.997,-42.778c2.794,-4.093 2.322,-6.254 1.431,-10.735c-5.392,-27.104 -20.77,-62.745 -34.438,-82.209l-5.156,-6.636c-3.055,-2.936 -5.423,-2.791 -8.449,-4.392c-7.344,-3.885 -31.661,1.249 -33.847,-8.545c-1.475,-6.607 -1.77,-14.066 -1.528,-21.912l2.105,-1.328l1.789,1.61l4.294,-1.252l2.684,-2.684l0.715,-6.083l0.537,-7.515l2.147,-5.367l2.147,-6.799l1.432,-5.905l-1.79,-5.188l-3.22,-0.895l-0.716,2.505l-0.015,-4.765c0.219,-8.487 -1.111,-19.111 -3.442,-24.283c-7.1,-5.748 -13.645,-12.607 -19.98,-19.885c-6.426,-1.535 -14.384,-2.289 -20.65,0.669c-3.457,8.066 -15.695,18.129 -19.503,24.952c-1.011,5.542 0.596,11.952 2.199,21.415l0.379,2.076l-2.505,-0.895l-1.61,2.505l-0.895,3.936l0.716,3.042l1.61,1.789l2.147,5.368l1.432,6.083l1.431,7.157l0.716,6.441l3.399,3.578l4.831,0.716l2.671,0.529c-0.584,7.204 -0.797,14.538 -3.092,21.138c-4.859,6.38 -18.878,8.86 -34.61,10.144c-3.802,0.31 -9.15,5.285 -13.725,11.935c-10.837,20.292 -30.065,76.476 -30.136,85.93c-0.802,4.631 -0.331,8.147 1.194,10.741c11.705,13.001 25.554,24.716 42.354,34.66c3.827,2.265 -0.424,-0.076 -0.424,-0.076l-26.085,4.432l-35.123,5.968c-7.373,2.217 -13.417,5.918 -17.39,11.935c-4.003,4.998 -6.073,8.708 -7.673,12.105c-1.067,4.509 -1.02,8.848 0.512,12.957c2.161,6.455 4.459,10.022 6.82,12.276c4.37,5.261 7.828,8.159 11.198,9.22c6.527,2.055 11.995,3.666 18.298,3.397c-0,-0 0.172,0.251 1.364,1.023l47.056,-1.023c2.263,-0.068 4.345,-0.315 5.968,-1.023c1.328,-0.909 2.019,-1.819 2.387,-2.728c0.304,0.795 0.942,1.39 2.046,1.705l142.364,3.069l21.653,-0c3.902,-0.473 7.771,-1.382 11.423,-5.115c2.932,-2.251 5.57,-4.944 7.502,-8.695c1.711,-3.323 3.329,-6.46 3.597,-9.684c0.376,-3.969 0.096,-6.556 -0.528,-10.776c0.024,-3.156 -0.642,-6.909 -6.138,-14.833c-3.909,-5.995 -9.287,-8.342 -15.174,-10.23c-9.21,-2.954 -18.419,-5.19 -27.629,-6.506l-0.02,1.489c-0.119,-2.054 -1.488,-3.561 -3.552,-3.337c0.136,-1.055 -1.983,-2.667 -3.457,-2.047c-0.331,-1.137 -1.24,-2.324 -2.34,-2.386c-0.827,0.078 -1.622,0.368 -2.387,0.852c0.549,-1.243 -0.338,-2.292 -1.193,-1.875c-1.978,0.765 -3.66,1.835 -4.794,3.474Zm-119.486,-84.558l0.132,-0.153c9.18,22.999 11.528,46.461 7.215,66.795l-0.051,0.239c-8.535,-7.827 -15.827,-17.216 -24.431,-31.889c-0.744,-1.269 -1.443,-4.027 0.154,-6.833c9.063,-15.921 11.413,-21.684 16.981,-28.159Zm81.858,66.367c8.515,-8.508 31.283,-32.182 29.877,-36.772c-1.287,-5.936 -7.89,-16.081 -14.271,-28.13c-0.593,-2.535 -3.805,-2.866 -5.419,-4.891c-4.281,17.168 -7.837,39.043 -10.08,69.452l-0.107,0.341Z" style="fill:#ab53ff;stroke:#fff;stroke-width: .15em;"/>
                </g>
                <g id="body1" serif:id="body">
                    <path d="M970.946,150.177l1.789,1.61l4.294,-1.252l2.684,-2.684l0.715,-6.083l0.537,-7.515l2.147,-5.367l2.147,-6.799l1.432,-5.905l-1.79,-5.188l-3.22,-0.895l-0.716,2.505" style="fill:none;stroke:#fff;stroke-width: .15em;"/>
                    <path d="M919.953,112.783l-2.505,-0.895l-1.61,2.505l-0.895,3.936l0.716,3.042l1.61,1.789l2.147,5.368l1.432,6.083l1.431,7.157l0.716,6.441l3.399,3.578l4.831,0.716" style="fill:none;stroke:#fff;stroke-width: .15em;"/>
                    <path d="M968.841,151.505c-0.242,7.846 0.053,15.305 1.528,21.912c2.186,9.794 26.503,4.66 33.847,8.545c3.026,1.601 5.394,1.456 8.449,4.392l5.156,6.636c13.668,19.464 29.046,55.105 34.438,82.209c0.891,4.481 1.363,6.642 -1.431,10.735c-14.147,15.391 -30.062,27.089 -47.997,42.778c-7.704,3.992 -14.447,6.383 -20.623,7.829c-2.811,1.591 -9.281,3.182 -17.186,4.774c-16.56,2.077 -28.322,0.157 -38.764,-2.865c-3.469,-2.737 -2.705,-4.264 0.955,-4.964c27.011,3.946 25.949,2.84 26.925,2.1c3.835,0.47 6.285,-0.215 7.065,-2.291c-2.507,-2.038 -8.857,-1.673 -15.467,-1.146c-4.313,-1.006 -3.839,-2.749 -1.528,-4.774c11.237,-2.708 19.897,-2.838 28.07,-2.482c2.077,-0.725 4.343,-2.43 6.302,-4.201c2.907,-2.629 3.675,-3.549 5.729,-5.538c5.491,-5.319 33.662,-33.879 32.102,-38.969c-1.287,-5.936 -7.89,-16.081 -14.271,-28.13c-0.593,-2.535 -3.805,-2.866 -5.419,-4.891c-4.281,17.168 -7.837,39.043 -10.08,69.452" style="fill:none;stroke:#fff;stroke-width: .15em;"/>
                    <path d="M895.457,327.504l-26.085,4.432l-35.123,5.968c-7.373,2.217 -13.417,5.918 -17.39,11.935c-4.003,4.998 -6.073,8.708 -7.673,12.105c-1.067,4.509 -1.02,8.848 0.512,12.957c2.161,6.455 4.459,10.022 6.82,12.276c4.37,5.261 7.828,8.159 11.198,9.22c6.527,2.055 11.995,3.666 18.298,3.397" style="fill:none;stroke:#fff;stroke-width: .15em;"/>
                    <path d="M933.896,153.032c-0.584,7.204 -0.797,14.538 -3.092,21.138c-4.859,6.38 -18.878,8.86 -34.61,10.144c-3.802,0.31 -9.15,5.285 -13.725,11.935c-10.837,20.292 -30.065,76.476 -30.136,85.93c-0.802,4.631 -0.331,8.147 1.194,10.741c14.371,15.963 31.976,29.986 54.303,41.175c3.779,2.14 7.559,2.932 11.338,2.685c8.203,0.331 15.989,0.035 23.095,-1.28" style="fill:none;stroke:#fff;stroke-width: .15em;"/>
                    <path d="M968.055,324.724c2.571,-1.527 4.943,-3.082 7.206,-4.652c2.288,-4.563 1.094,-6.08 -2.983,-5.073c-8.61,3.842 -14.565,5.408 -17.604,4.476c3.219,-2.066 2.787,-4.127 -0.597,-3.879c-9.925,0.729 -30.297,7.494 -35.222,3.672c-11.75,-9.138 -20.494,-19.234 -31.314,-37.686c-0.744,-1.269 -1.443,-4.027 0.154,-6.833c9.134,-16.046 11.45,-21.774 17.113,-28.312c9.216,23.089 11.546,46.645 7.164,67.034" style="fill:none;stroke:#fff;stroke-width: .15em;"/>
                    <path d="M1041.9,334.978c9.21,1.316 18.419,3.552 27.629,6.506c5.887,1.888 11.265,4.235 15.174,10.23c5.496,7.924 6.162,11.677 6.138,14.833c0.624,4.22 0.904,6.807 0.528,10.776c-0.268,3.224 -1.886,6.361 -3.597,9.684c-1.932,3.751 -4.57,6.444 -7.502,8.695c-3.652,3.733 -7.521,4.642 -11.423,5.115l-21.653,-0l-142.364,-3.069c-1.104,-0.315 -1.742,-0.91 -2.046,-1.705c-0.368,0.909 -1.059,1.819 -2.387,2.728c-1.623,0.708 -3.705,0.955 -5.968,1.023l-47.056,1.023c-1.192,-0.772 -2.198,-2.009 -3.069,-3.581c-0.948,-0.701 -1.175,-2.121 -0.682,-4.262c0.503,-1.746 1.606,-2.592 3.069,-2.898c7.034,-0.119 13.964,-0.091 21.823,-1.364c4.98,-0.973 10.055,-2.168 15.515,-4.263c8.704,-3.102 12.446,-5.477 15.686,-6.138c3.633,0.272 6.357,0.219 7.751,-0.309" style="fill:none;stroke:#fff;stroke-width: .15em;"/>
                    <path id="toes1" serif:id="toes" d="M1024.16,331.148c1.134,-1.639 2.816,-2.709 4.794,-3.474c0.855,-0.417 1.742,0.632 1.193,1.875c0.765,-0.484 1.56,-0.774 2.387,-0.852c1.1,0.062 2.009,1.249 2.34,2.386c1.474,-0.62 3.593,0.992 3.457,2.047c2.064,-0.224 3.433,1.283 3.552,3.337" style="fill:none;stroke:#fff;stroke-width: .15em;"/>
                    <path id="body-tihgh1" serif:id="body-tihgh" d="M895.457,327.504l-26.085,4.432l-35.123,5.968c-7.373,2.217 -13.417,5.918 -17.39,11.935c-4.003,4.998 -6.073,8.708 -7.673,12.105c-1.067,4.509 -1.02,8.848 0.512,12.957c2.161,6.455 4.459,10.022 6.82,12.276c4.37,5.261 7.828,8.159 11.198,9.22c6.527,2.055 11.995,3.666 18.298,3.397" style="fill:none;stroke:#fff;stroke-width: .15em;"/>
                    <path d="M958.063,160.734c-3.435,0.685 -7.38,0.968 -12.703,-0c-2.742,-0.5 -8.158,-4.413 -9.125,-5.905c-1.954,-3.015 -3.334,-1.212 -6.62,-7.693c-3.39,-6.686 -5.261,-14.239 -6.441,-22.187c-1.334,-9.871 -0.576,-12.772 -0,-16.281c0.937,-5.719 2.586,-7.328 5.999,-9.626c5.914,-3.982 10.138,-5.379 15.43,-5.774c5.432,-0.405 9.009,-0.412 13.639,0.191c3.955,0.208 8.005,1.18 12.167,3.042c4.493,2.039 6.538,4.799 7.514,7.873c1.462,4.878 1.502,9.188 0.895,13.24c-1.554,11.636 -3.255,22.962 -6.513,28.216c-2.059,3.321 -9.287,13.916 -14.242,14.904Z" style="fill:none;stroke:#fff;stroke-width: .15em;"/>
                    <path id="foot-1" serif:id="foot " d="M981.899,336.71c3.513,0.232 7.142,0.089 10.912,-0.511c4.035,-0.62 8.07,-1.745 12.105,-3.581c2.785,-1.459 5.115,-2.935 11.594,-4.262c2.77,-0.37 5.157,0.539 7.16,2.728l4.092,4.944l4.433,3.581l5.456,-2.558c2.212,-0.761 4.236,-0.929 5.967,-0.17c2.293,1.223 3.318,2.538 3.41,3.921c0.035,1.945 -0.096,3.368 -0.341,4.433c-0.416,1.316 -2.578,1.521 -4.773,1.705c-2.985,0.083 -5.73,-0.205 -8.355,-0.682c-2.829,-0.186 -3.899,1.83 -6.308,3.41c-5.038,3.304 -10.413,3.383 -15.686,4.433l-50.126,9.377c-0.237,1.194 -2.157,2.267 -3.195,3.461c-17.806,4.888 -33.748,8.383 -51.022,11.031" style="fill:none;stroke:#fff;stroke-width: .15em;"/>
                </g>
                <g id="face1" serif:id="face">
                    <path d="M929.615,110.099l5.367,-1.252l4.831,0.536l3.221,1.611l4.831,4.115" style="fill:none;stroke:#fff;stroke-width:2.08px;"/>
                    <path d="M954.127,115.109l2.326,-2.863l3.936,-2.505l4.473,-1.073l7.515,0.894" style="fill:none;stroke:#fff;stroke-width:2.08px;"/>
                    <path d="M931.531,112.806l2.064,-0.375l2.064,-0.844l2.533,0.141l1.923,0.703l2.626,1.97l2.908,3.096" style="fill:none;stroke:#fff;stroke-width:2.08px;"/>
                    <path d="M956.765,117.309l2.533,-2.814l3.565,-1.595l2.532,-0.469l1.689,-0.047l2.486,0.61l0.985,0.422l1.407,-0.14" style="fill:none;stroke:#fff;stroke-width:2.08px;"/>
                    <path d="M928.905,117.356l1.97,0.047l0.703,0.75l1.126,1.22l1.407,0.375l1.829,0.469l3.987,0.328l2.767,-0.422" style="fill:none;stroke:#fff;stroke-width:2.08px;"/>
                    <path d="M958.501,119.795l1.923,1.126l2.486,0.234l3.517,-0.281l2.017,-0.938l1.454,-1.314l1.36,-0.844l1.689,-0.375" style="fill:none;stroke:#fff;stroke-width:2.08px;"/>
                    <path d="M949.167,119.795l-0,7.598l-0.328,1.876l-1.314,1.267l-1.735,1.219l-0.328,2.205l0.281,1.501l2.111,0.469l1.876,-0.235l0.703,0.704l1.361,0.844l1.594,-0l1.501,-1.407l2.439,0.375l1.782,-1.313l-0.14,-2.533l-2.064,-2.251l-2.017,-1.454l-0.375,-2.768l-0.375,-6.144" style="fill:none;stroke:#fff;stroke-width:2.08px;"/>
                    <path d="M945.743,143.809l3.002,-0.093l1.079,1.219l1.735,1.126l1.923,-0.235l2.204,-1.219l1.22,-1.22l2.627,0.282" style="fill:none;stroke:#fff;stroke-width:2.08px;"/>
                    <path d="M943.539,145.826c0.536,1.25 3.085,3.389 5.3,3.612c2.653,0.582 5.198,0.518 7.645,-0.141c2.218,-0.942 4.482,-2.767 4.878,-3.705" style="fill:none;stroke:#fff;stroke-width:2.08px;"/>
                </g>
                <g id="helmet1" serif:id="helmet">
                    <path d="M919.94,103.784c-0.437,-2.492 0.266,-3.558 2.556,-2.642" style="fill:none;stroke:#fff;stroke-width:2.08px;"/>
                    <path d="M918.016,108.199c-2.242,-1.172 -2.66,-2.379 -0.537,-3.636" style="fill:none;stroke:#fff;stroke-width:2.08px;"/>
                    <path d="M918.007,102.02c-2.45,-0.628 -3.132,-1.708 -1.354,-3.417" style="fill:none;stroke:#fff;stroke-width:2.08px;"/>
                    <path d="M916.186,96.219c-1.943,-1.62 -2.095,-2.888 0.245,-3.668" style="fill:none;stroke:#fff;stroke-width:2.08px;"/>
                    <path d="M916.971,90.21c-1.749,-1.827 -1.759,-3.104 0.654,-3.617" style="fill:none;stroke:#fff;stroke-width:2.08px;"/>
                    <path d="M918.94,96.784c-0.437,-2.492 0.266,-3.558 2.556,-2.642" style="fill:none;stroke:#fff;stroke-width:2.08px;"/>
                    <path d="M921.94,91.784c-0.437,-2.492 0.266,-3.558 2.556,-2.642" style="fill:none;stroke:#fff;stroke-width:2.08px;"/>
                    <path d="M924.94,84.784c-0.437,-2.492 0.266,-3.558 2.556,-2.642" style="fill:none;stroke:#fff;stroke-width:2.08px;"/>
                    <path d="M930.405,80.084c0.723,-2.424 1.829,-3.064 3.467,-1.221" style="fill:none;stroke:#fff;stroke-width:2.08px;"/>
                    <path d="M937.405,78.084c0.723,-2.424 1.829,-3.064 3.467,-1.221" style="fill:none;stroke:#fff;stroke-width:2.08px;"/>
                    <path d="M945.253,76.536c1.401,-2.106 2.646,-2.394 3.672,-0.151" style="fill:none;stroke:#fff;stroke-width:2.08px;"/>
                    <path d="M945.253,71.536c1.401,-2.106 2.646,-2.394 3.672,-0.151" style="fill:none;stroke:#fff;stroke-width:2.08px;"/>
                    <path d="M943.253,66.536c1.401,-2.106 2.646,-2.394 3.672,-0.151" style="fill:none;stroke:#fff;stroke-width:2.08px;"/>
                    <path d="M952.269,65.957c1.966,-1.591 3.24,-1.495 3.55,0.952" style="fill:none;stroke:#fff;stroke-width:2.08px;"/>
                    <path d="M952.254,71.053c1.883,-1.689 3.16,-1.657 3.594,0.771" style="fill:none;stroke:#fff;stroke-width:2.08px;"/>
                    <path d="M959.179,72.659c1.882,-1.689 3.159,-1.657 3.594,0.77" style="fill:none;stroke:#fff;stroke-width:2.08px;"/>
                    <path d="M938.408,72.09c0.714,-2.427 1.818,-3.071 3.463,-1.233" style="fill:none;stroke:#fff;stroke-width:2.08px;"/>
                    <path d="M937.408,68.09c0.714,-2.427 1.818,-3.071 3.463,-1.233" style="fill:none;stroke:#fff;stroke-width:2.08px;"/>
                    <path d="M932.408,74.468c0.714,-2.426 1.818,-3.07 3.463,-1.232" style="fill:none;stroke:#fff;stroke-width:2.08px;"/>
                    <path d="M953.254,76.056c1.88,-1.692 3.157,-1.662 3.595,0.765" style="fill:none;stroke:#fff;stroke-width:2.08px;"/>
                    <path d="M961.254,78.056c1.88,-1.692 3.157,-1.662 3.595,0.765" style="fill:none;stroke:#fff;stroke-width:2.08px;"/>
                    <path d="M967.448,79.428c2.341,-0.958 3.533,-0.498 3.126,1.934" style="fill:none;stroke:#fff;stroke-width:2.08px;"/>
                    <path d="M918.94,85.784c-0.437,-2.492 0.266,-3.558 2.556,-2.642" style="fill:none;stroke:#fff;stroke-width:2.08px;"/>
                    <path d="M921.94,81.784c-0.437,-2.492 0.266,-3.558 2.556,-2.642" style="fill:none;stroke:#fff;stroke-width:2.08px;"/>
                    <path d="M925.94,77.784c-0.437,-2.492 0.266,-3.558 2.556,-2.642" style="fill:none;stroke:#fff;stroke-width:2.08px;"/>
                    <path d="M929.94,72.784c-0.437,-2.492 0.266,-3.558 2.556,-2.642" style="fill:none;stroke:#fff;stroke-width:2.08px;"/>
                    <path d="M932.94,68.784c-0.437,-2.492 0.266,-3.558 2.556,-2.642" style="fill:none;stroke:#fff;stroke-width:2.08px;"/>
                    <path d="M935.131,64.251c0.593,-2.458 1.663,-3.157 3.397,-1.403" style="fill:none;stroke:#fff;stroke-width:2.08px;"/>
                    <path d="M941.719,62.775c0.834,-2.388 1.968,-2.977 3.519,-1.06" style="fill:none;stroke:#fff;stroke-width:2.08px;"/>
                    <path d="M949.079,61.676c1.812,-1.764 3.09,-1.784 3.622,0.624" style="fill:none;stroke:#fff;stroke-width:2.08px;"/>
                    <path d="M956.455,62.414c2.349,-0.939 3.537,-0.47 3.11,1.96" style="fill:none;stroke:#fff;stroke-width:2.08px;"/>
                    <path d="M959.455,66.414c2.349,-0.939 3.537,-0.47 3.11,1.96" style="fill:none;stroke:#fff;stroke-width:2.08px;"/>
                    <path d="M963.455,69.414c2.349,-0.939 3.537,-0.47 3.11,1.96" style="fill:none;stroke:#fff;stroke-width:2.08px;"/>
                    <path d="M967.455,73.414c2.349,-0.939 3.537,-0.47 3.11,1.96" style="fill:none;stroke:#fff;stroke-width:2.08px;"/>
                    <path d="M971.455,77.414c2.349,-0.939 3.537,-0.47 3.11,1.96" style="fill:none;stroke:#fff;stroke-width:2.08px;"/>
                    <path d="M922.94,98.784c-0.437,-2.492 0.266,-3.558 2.556,-2.642" style="fill:none;stroke:#fff;stroke-width:2.08px;"/>
                    <path d="M927.434,94.993c0.258,-2.516 1.225,-3.351 3.179,-1.846" style="fill:none;stroke:#fff;stroke-width:2.08px;"/>
                    <path d="M932.368,91.993c0.846,-2.384 1.982,-2.967 3.525,-1.042" style="fill:none;stroke:#fff;stroke-width:2.08px;"/>
                    <path d="M938.281,90.704c1.209,-2.222 2.424,-2.619 3.645,-0.476" style="fill:none;stroke:#fff;stroke-width:2.08px;"/>
                    <path d="M944.087,89.72c1.362,-2.132 2.601,-2.443 3.669,-0.22" style="fill:none;stroke:#fff;stroke-width:2.08px;"/>
                    <path d="M950.343,89.72c1.361,-2.132 2.6,-2.443 3.669,-0.22" style="fill:none;stroke:#fff;stroke-width:2.08px;"/>
                    <path d="M957.412,89.516c1.749,-1.826 3.025,-1.891 3.641,0.497" style="fill:none;stroke:#fff;stroke-width:2.08px;"/>
                    <path d="M964.432,90.32c1.927,-1.637 3.203,-1.571 3.572,0.868" style="fill:none;stroke:#fff;stroke-width:2.08px;"/>
                    <path d="M969.432,92.32c1.927,-1.637 3.203,-1.571 3.572,0.868" style="fill:none;stroke:#fff;stroke-width:2.08px;"/>
                    <path d="M974.705,94.595c2.418,-0.742 3.563,-0.176 2.937,2.21" style="fill:none;stroke:#fff;stroke-width:2.08px;"/>
                    <path d="M982.508,102.417c1.659,1.91 1.606,3.186 -0.828,3.581" style="fill:none;stroke:#fff;stroke-width:2.08px;"/>
                    <path d="M980.989,96.73c2.178,1.286 2.533,2.513 0.349,3.659" style="fill:none;stroke:#fff;stroke-width:2.08px;"/>
                    <path d="M980.668,91.264c2.178,1.285 2.533,2.512 0.349,3.659" style="fill:none;stroke:#fff;stroke-width:2.08px;"/>
                    <path d="M979.22,85.726c2.396,0.809 2.996,1.937 1.095,3.508" style="fill:none;stroke:#fff;stroke-width:2.08px;"/>
                    <path d="M975.904,81.151c2.461,-0.58 3.567,0.06 2.784,2.399" style="fill:none;stroke:#fff;stroke-width:2.08px;"/>
                    <path d="M974.776,87.49c2.462,-0.58 3.568,0.06 2.785,2.399" style="fill:none;stroke:#fff;stroke-width:2.08px;"/>
                    <path d="M968.471,85.136c2.078,-1.441 3.342,-1.25 3.469,1.213" style="fill:none;stroke:#fff;stroke-width:2.08px;"/>
                    <path d="M961.423,83.388c1.868,-1.705 3.145,-1.684 3.6,0.74" style="fill:none;stroke:#fff;stroke-width:2.08px;"/>
                    <path d="M955.413,81.75c1.514,-2.026 2.773,-2.246 3.675,0.05" style="fill:none;stroke:#fff;stroke-width:2.08px;"/>
                    <path d="M947.445,81.987c1.249,-2.198 2.471,-2.573 3.652,-0.408" style="fill:none;stroke:#fff;stroke-width:2.08px;"/>
                    <path d="M940.546,83.331c0.819,-2.393 1.95,-2.988 3.513,-1.08" style="fill:none;stroke:#fff;stroke-width:2.08px;"/>
                    <path d="M933.54,85.317c0.838,-2.386 1.973,-2.973 3.522,-1.053" style="fill:none;stroke:#fff;stroke-width:2.08px;"/>
                    <path d="M927.775,88.746c0.207,-2.521 1.157,-3.375 3.141,-1.909" style="fill:none;stroke:#fff;stroke-width:2.08px;"/>
                    <path d="M940.966,57.835c-1.882,-2.093 -3.234,-4.874 -4.032,-8.376c-0.504,-1.684 -0.826,-5.068 0.698,-7.445c1.657,-2.585 2.8,-5.17 3.645,-7.755c0.933,-3.973 0.73,-6.285 0.853,-9.073c0.074,-1.681 2.403,-1.572 2.869,-3.927c-0.205,-1.258 0.049,-3.688 0.776,-7.318c0.24,-1.54 0.668,-2.206 1.163,-2.559c1.015,-0.381 1.594,0.61 2.016,2.094c0.898,4.246 1.039,7.204 1.086,10.004c0.006,1.631 1.508,1.65 2.094,2.559c0.653,1.012 0.44,3.284 0.155,5.661c-0.269,2.245 2.628,4.253 3.257,5.274c1.721,3.19 2.002,4.966 2.171,6.281c0.343,2.648 0.66,5.081 0,8.453c-0.608,3.112 -2.035,5.167 -2.791,6.127" style="fill:none;stroke:#fff;stroke-width: .15em;"/>
                    <path d="M945.982,55.169c-1.246,-1.486 -2.288,-3.433 -3.102,-5.894c-0.417,-1.213 -0.395,-2.837 0,-4.808c0.337,-1.584 0.937,-2.837 1.707,-3.878" style="fill:none;stroke:#fff;stroke-width:2.08px;"/>
                    <path d="M947.71,32.087c0.52,1.182 0.937,2.619 1.24,4.343c0.104,0.465 0.207,1.758 0.311,3.878c0.001,2.241 -0.389,3.833 -1.008,5.04" style="fill:none;stroke:#fff;stroke-width:2.08px;"/>
                    <path d="M919.574,110.707c-1.603,-9.463 -3.21,-15.873 -2.199,-21.415c3.808,-6.823 16.046,-16.886 19.503,-24.952c6.266,-2.958 14.224,-2.204 20.65,-0.669c6.335,7.278 12.88,14.137 19.98,19.885c2.331,5.172 3.661,15.796 3.442,24.283" style="fill:none;stroke:#fff;stroke-width:3.13px;"/>
                </g>
            </g>
        </g>
        <g id="header">
            <path d="M538.617,246.379l-110.334,0c3.367,-5.287 10.135,-8.372 16.428,-11.766l-68.154,20.646l48.618,13.098c-1.563,-2.578 -2.592,-5.926 -2.664,-10.656c-0.032,-1.713 0.706,-2.271 1.998,-1.998l114.108,0c-1.143,-3.372 -1.009,-6.449 -0,-9.324Z" style="fill:url(#_Linear1);"/>
            <ellipse cx="601.358" cy="250" rx="58.442" ry="28.605" style="fill:url(#_Linear2);stroke:url(#_Linear3);stroke-width:3.13px;"/>
            <path d="M581.188,243.134c2.492,-4.411 7.475,-4.411 9.967,-2.205c2.492,2.205 2.492,6.617 0,11.028c-1.744,3.309 -6.229,6.617 -9.967,8.823c-3.737,-2.206 -8.222,-5.514 -9.967,-8.823c-2.491,-4.411 -2.491,-8.823 0,-11.028c2.492,-2.206 7.476,-2.206 9.967,2.205Z" style="fill:#ff009e;"/>
            <path d="M622.786,243.134c2.492,-4.411 7.475,-4.411 9.967,-2.205c2.492,2.205 2.492,6.617 -0,11.028c-1.744,3.309 -6.229,6.617 -9.967,8.823c-3.737,-2.206 -8.223,-5.514 -9.967,-8.823c-2.491,-4.411 -2.491,-8.823 0,-11.028c2.492,-2.206 7.475,-2.206 9.967,2.205Z" style="fill:#ff009e;"/>
            <path d="M664.935,245.935l111.222,0c1.707,-3.922 -0.542,-7.844 -2.886,-11.766l50.172,12.876l-67.932,21.312c6.255,-3.808 12.22,-7.537 15.616,-10.565c1.389,-1.313 1.151,-1.848 -0.435,-1.738l-105.534,-0c0.811,-3.373 0.776,-6.746 -0.223,-10.119Z" style="fill:url(#_Linear4);"/>
            <path d="M598.346,251.999c0.088,-0.721 0.375,-1.365 0.86,-1.931c0.486,-0.566 1.06,-0.967 1.721,-1.203c0.368,-0.132 0.751,-0.198 1.148,-0.198c0.015,-0 0.022,-0.004 0.022,-0.011c-0,-0.008 0.007,-0.011 0.022,-0.011l0,0.022l0.662,-0c0.324,-0.015 0.607,-0.133 0.85,-0.353c0.242,-0.221 0.386,-0.493 0.43,-0.817l0.375,-3.045c0.029,-0.323 -0.052,-0.595 -0.243,-0.816c-0.191,-0.221 -0.448,-0.331 -0.772,-0.331l-5.507,-0l0.265,-2.185l5.507,0c0.412,0 0.787,0.067 1.125,0.199c0.618,0.235 1.096,0.636 1.434,1.203c0.339,0.566 0.464,1.209 0.375,1.93l-0.375,3.045l-0.022,0.199c-0.073,0.427 -0.224,0.831 -0.452,1.214c-0.228,0.382 -0.504,0.713 -0.828,0.993c-0.323,0.279 -0.687,0.503 -1.092,0.673c-0.404,0.169 -0.827,0.261 -1.269,0.275l-0.772,0c-0.309,0 -0.588,0.114 -0.838,0.342c-0.25,0.228 -0.39,0.497 -0.42,0.806l-0.419,3.464c-0.044,0.309 0.03,0.574 0.221,0.795c0.191,0.22 0.441,0.338 0.75,0.353l7.064,-0l-0.287,2.184l-7.108,0c-0.191,0 -0.371,-0.018 -0.541,-0.055c-0.169,-0.037 -0.334,-0.085 -0.496,-0.143c-0.588,-0.236 -1.052,-0.615 -1.39,-1.137c-0.339,-0.522 -0.486,-1.129 -0.442,-1.82l0.023,-0.199l0.198,-1.522l0.044,-0.398l0.177,-1.522Z" style="fill:#cecece;fill-rule:nonzero;"/>
        </g>
        <path id="ltr" class="data" d="M904.452,272.78c-125.257,103.416 -250.513,141.243 -375.77,113.769c-72.99,-16.009 -145.981,-54.194 -218.971,-114.496" style="fill:none;"/>
        <path id="rtl" class="data" d="M309.711,246.258c198.247,-163.68 396.494,-163.058 594.741,0.727" style="fill:none;"/>
        <g id="device" class="device">
            <path d="M972.582,227.01c-0,-0.858 -0.341,-1.68 -0.948,-2.287c-0.606,-0.606 -1.429,-0.947 -2.286,-0.947c-7.203,0 -24.5,0 -31.703,0c-0.857,0 -1.68,0.341 -2.286,0.947c-0.607,0.607 -0.948,1.429 -0.948,2.287c0,11.411 0,49.72 0,61.132c0,0.857 0.341,1.68 0.948,2.286c0.606,0.607 1.429,0.947 2.286,0.947c7.203,0 24.5,0 31.703,0c0.857,0 1.68,-0.34 2.286,-0.947c0.607,-0.606 0.948,-1.429 0.948,-2.286c-0,-11.412 -0,-49.721 -0,-61.132Z" style="fill:#8e61c4;"/>
            <circle cx="953.496" cy="288.164" r="1.696" style="fill:#a281cf;"/>
            <path d="M969.502,228.975c0,-1.786 -1.447,-3.233 -3.233,-3.233c-6.138,-0 -19.407,-0 -25.545,-0c-1.786,-0 -3.233,1.447 -3.233,3.233c-0,10.385 -0,42.816 -0,53.201c-0,1.786 1.447,3.234 3.233,3.234c6.138,-0 19.407,-0 25.545,-0c1.786,-0 3.233,-1.448 3.233,-3.234c0,-10.385 0,-42.816 0,-53.201Z" style="fill:#61b0c4;"/>
            <g id="logo">
                <path d="M946.984,240.689l0,28.655l13.855,-7.596l-0,-13.966l-13.855,-7.093Z" style="fill:none;stroke:#fff;stroke-width:1px;"/>
                <circle cx="947.095" cy="240.654" r="1.636" style="fill:#fff;"/>
                <circle cx="947.095" cy="247.671" r="1.636" style="fill:#fff;"/>
                <circle cx="960.745" cy="247.671" r="1.636" style="fill:#fff;"/>
                <circle cx="947.095" cy="269.475" r="1.636" style="fill:#fff;"/>
                <circle cx="947.095" cy="261.671" r="1.636" style="fill:#fff;"/>
                <circle cx="960.745" cy="261.671" r="1.636" style="fill:#fff;"/>
                <path d="M947.126,247.881l13.479,-0l-13.479,13.844l13.596,-0l-13.596,-13.844Z" style="fill:none;stroke:#fff;stroke-width:1px;"/>
            </g>
        </g>
        <g id="device1" class="device">
            <path d="M278.582,227.01c-0,-0.858 -0.341,-1.68 -0.948,-2.287c-0.606,-0.606 -1.429,-0.947 -2.286,-0.947c-7.203,0 -24.5,0 -31.703,0c-0.857,0 -1.68,0.341 -2.286,0.947c-0.607,0.607 -0.948,1.429 -0.948,2.287c0,11.411 0,49.72 0,61.132c0,0.857 0.341,1.68 0.948,2.286c0.606,0.607 1.429,0.947 2.286,0.947c7.203,0 24.5,0 31.703,0c0.857,0 1.68,-0.34 2.286,-0.947c0.607,-0.606 0.948,-1.429 0.948,-2.286c-0,-11.412 -0,-49.721 -0,-61.132Z" style="fill:#8e61c4;"/>
            <circle cx="259.496" cy="288.164" r="1.696" style="fill:#a281cf;"/>
            <path d="M275.502,228.975c0,-1.786 -1.447,-3.233 -3.233,-3.233c-6.138,-0 -19.407,-0 -25.545,-0c-1.786,-0 -3.233,1.447 -3.233,3.233c-0,10.385 -0,42.816 -0,53.201c-0,1.786 1.447,3.234 3.233,3.234c6.138,-0 19.407,-0 25.545,-0c1.786,-0 3.233,-1.448 3.233,-3.234c0,-10.385 0,-42.816 0,-53.201Z" style="fill:#61b0c4;"/>
            <g id="logo1" serif:id="logo">
                <path d="M252.984,240.689l0,28.655l13.855,-7.596l-0,-13.966l-13.855,-7.093Z" style="fill:none;stroke:#fff;stroke-width:1px;"/>
                <circle cx="253.095" cy="240.654" r="1.636" style="fill:#fff;"/>
                <circle cx="253.095" cy="247.671" r="1.636" style="fill:#fff;"/>
                <circle cx="266.745" cy="247.671" r="1.636" style="fill:#fff;"/>
                <circle cx="253.095" cy="269.475" r="1.636" style="fill:#fff;"/>
                <circle cx="253.095" cy="261.671" r="1.636" style="fill:#fff;"/>
                <circle cx="266.745" cy="261.671" r="1.636" style="fill:#fff;"/>
                <path d="M253.126,247.881l13.479,-0l-13.479,13.844l13.596,-0l-13.596,-13.844Z" style="fill:none;stroke:#fff;stroke-width:1px;"/>
            </g>
        </g>
    </g>
</svg>