<?xml version="1.0" encoding="UTF-8" standalone="no"?><!DOCTYPE svg PUBLIC "-//W3C//DTD SVG 1.1//EN" "http://www.w3.org/Graphics/SVG/1.1/DTD/svg11.dtd">
<svg width="100%" height="100%" viewBox="0 0 1000 1000" version="1.1"
    xmlns="http://www.w3.org/2000/svg"
    xmlns:xlink="http://www.w3.org/1999/xlink" xml:space="preserve"
    xmlns:serif="http://www.serif.com/" style="fill-rule:evenodd;clip-rule:evenodd;stroke-linecap:round;stroke-linejoin:round;stroke-miterlimit:1.5;">
<!--    <view id="play" viewBox="0 0 1000 1000" />-->
    <style>
        svg{
            --animation-play-state: paused;
        }
        g#play:target{
            --animation-play-state: running;
            transform-style: preserve-3d;
        }
        #txt>path {
            transform-origin: center;
            filter: drop-shadow(.5em .5em 0 #fd89d5) drop-shadow(.5em .5em 2em #ff00a7);
        }
        #txt>path{
             fill:#ff00d4;fill-rule:nonzero;
        }
        #pltfrm {
            transform-origin: center;
            animation: 40s spn linear infinite;
            animation-play-state: var(--animation-play-state);
            perspective-origin: 0 -200em;
            transform-style: preserve-3d;
            transform:  translateY(17em) rotateX(-15deg);
        }
        @keyframes spn {
            100% {
                transform: translateY(17em) rotateX(-15deg) rotateY(360deg);
            }
        }
        #wut {
            <!-- transform: translateY(-30vh); -->
        }
        g>g {
            transform-origin: center;
        }
        g>g:nth-of-type(5){
            transform: rotateX(90deg) rotateY(0deg) rotateZ(0deg) translateZ(3.5em);
            backface-visibility: hidden;
        }
        g>g:nth-of-type(6){
            transform: rotateX(270deg) rotateY(0deg) rotateZ(0deg) translateZ(3.5em);
            backface-visibility: hidden;
        }
        rect {
            fill:#fff7;stroke:#fff;stroke-width:14.57px;stroke-dasharray: 100;
            animation: 10s mv linear infinite;
            animation-play-state: var(--animation-play-state);
        }
        g.sd:nth-of-type(1){
            display: block;
            transform-origin: center;
            transform-box: fill-box;
            transform-style: preserve-3d;
            transform: rotateX(0deg) rotateY(180deg) rotateZ(0deg) translateZ(19em);
            backface-visibility: hidden;
        }
        g.sd:nth-of-type(2){
            display: block;
            transform-origin: center;
            transform-box: fill-box;
            transform-style: preserve-3d;
            transform: rotateX(0deg) rotateY(0deg) rotateZ(0deg) translateZ(19em);
            backface-visibility: hidden;
        }
        g.sd:nth-of-type(3){
            display: block;
            transform-origin: center;
            transform-box: fill-box;
            transform-style: preserve-3d;
            transform: rotateX(0deg) rotateY(90deg) rotateZ(0deg) translateZ(19em);
            backface-visibility: hidden;
        }
        g.sd:nth-of-type(4){
            display: block;
            transform-origin: center;
            transform-box: fill-box;
            transform-style: preserve-3d;
            transform: rotateX(0deg) rotateY(270deg) rotateZ(0deg) translateZ(19em);
            backface-visibility: hidden;
        }
        @keyframes mv {
            100% {
                stroke-dashoffset: 1000;
            }
        }
        path {
             fill: #fff;
        }
        #ban>*{
            fill:none;
            stroke:#ff9de8;
            stroke: #fff;
            stroke-width:16.67px;
            --shoe color: #fc20b6;
        }
    </style>
    <g id="play">
        <g id="pltfrm">
            <g class="sd">
                <rect x="200" y="450" width="600" height="100"/>
                <path d="M594.59,526.854c-0,0.601 -0.218,1.119 -0.655,1.556c-0.437,0.436 -0.955,0.655 -1.556,0.655l-4.666,-0c-0.601,-0 -1.119,-0.219 -1.556,-0.655c-0.437,-0.437 -0.655,-0.955 -0.655,-1.556l0,-4.667c0,-0.6 0.218,-1.118 0.655,-1.555c0.437,-0.437 0.955,-0.655 1.556,-0.655l4.666,-0c0.601,-0 1.119,0.218 1.556,0.655c0.437,0.437 0.655,0.955 0.655,1.555l-0,4.667Zm-23.334,-39.954c0.109,-1.801 0.56,-3.643 1.351,-5.526c0.792,-1.883 1.965,-3.602 3.521,-5.158c1.555,-1.556 3.507,-2.825 5.854,-3.807c2.347,-0.983 5.076,-1.474 8.187,-1.474c2.674,0 5.144,0.396 7.409,1.187c2.265,0.792 4.23,1.87 5.895,3.234c1.665,1.365 2.961,3.002 3.889,4.913c0.928,1.91 1.392,3.957 1.392,6.14c-0,2.238 -0.369,4.162 -1.105,5.772c-0.737,1.61 -1.665,3.043 -2.784,4.298c-1.119,1.256 -2.32,2.416 -3.602,3.48c-1.283,1.064 -2.484,2.156 -3.603,3.275c-1.119,1.119 -2.047,2.347 -2.783,3.684c-0.737,1.337 -1.106,2.934 -1.106,4.79l0,1.146c0,0.6 -0.218,1.119 -0.655,1.556c-0.436,0.436 -0.955,0.655 -1.555,0.655l-3.03,-0c-0.6,-0 -1.119,-0.219 -1.555,-0.655c-0.437,-0.437 -0.655,-0.956 -0.655,-1.556l-0,-1.719c-0,-2.184 0.368,-4.08 1.105,-5.69c0.737,-1.611 1.665,-3.043 2.784,-4.299c1.119,-1.255 2.32,-2.415 3.602,-3.479c1.283,-1.065 2.484,-2.156 3.603,-3.275c1.119,-1.119 2.046,-2.306 2.783,-3.562c0.737,-1.255 1.106,-2.729 1.106,-4.421c-0,-1.364 -0.314,-2.579 -0.942,-3.643c-0.628,-1.065 -1.46,-1.951 -2.497,-2.661c-1.037,-0.71 -2.224,-1.255 -3.562,-1.637c-1.337,-0.383 -2.715,-0.574 -4.134,-0.574c-2.838,0 -5.267,0.71 -7.287,2.129c-2.019,1.419 -3.411,3.712 -4.175,6.877c-0.109,0.601 -0.382,1.051 -0.819,1.351c-0.437,0.3 -0.873,0.451 -1.31,0.451l-3.52,-0c-0.492,-0 -0.928,-0.178 -1.31,-0.533c-0.383,-0.354 -0.546,-0.777 -0.492,-1.269Z"/>
                <path d="M414.59,526.854c-0,0.601 -0.218,1.119 -0.655,1.556c-0.437,0.436 -0.955,0.655 -1.556,0.655l-4.666,-0c-0.601,-0 -1.119,-0.219 -1.556,-0.655c-0.437,-0.437 -0.655,-0.955 -0.655,-1.556l0,-4.667c0,-0.6 0.218,-1.118 0.655,-1.555c0.437,-0.437 0.955,-0.655 1.556,-0.655l4.666,-0c0.601,-0 1.119,0.218 1.556,0.655c0.437,0.437 0.655,0.955 0.655,1.555l-0,4.667Zm-23.334,-39.954c0.109,-1.801 0.56,-3.643 1.351,-5.526c0.792,-1.883 1.965,-3.602 3.521,-5.158c1.555,-1.556 3.507,-2.825 5.854,-3.807c2.347,-0.983 5.076,-1.474 8.187,-1.474c2.674,0 5.144,0.396 7.409,1.187c2.265,0.792 4.23,1.87 5.895,3.234c1.665,1.365 2.961,3.002 3.889,4.913c0.928,1.91 1.392,3.957 1.392,6.14c-0,2.238 -0.369,4.162 -1.105,5.772c-0.737,1.61 -1.665,3.043 -2.784,4.298c-1.119,1.256 -2.32,2.416 -3.602,3.48c-1.283,1.064 -2.484,2.156 -3.603,3.275c-1.119,1.119 -2.047,2.347 -2.783,3.684c-0.737,1.337 -1.106,2.934 -1.106,4.79l0,1.146c0,0.6 -0.218,1.119 -0.655,1.556c-0.436,0.436 -0.955,0.655 -1.555,0.655l-3.03,-0c-0.6,-0 -1.119,-0.219 -1.555,-0.655c-0.437,-0.437 -0.655,-0.956 -0.655,-1.556l-0,-1.719c-0,-2.184 0.368,-4.08 1.105,-5.69c0.737,-1.611 1.665,-3.043 2.784,-4.299c1.119,-1.255 2.32,-2.415 3.602,-3.479c1.283,-1.065 2.484,-2.156 3.603,-3.275c1.119,-1.119 2.046,-2.306 2.783,-3.562c0.737,-1.255 1.106,-2.729 1.106,-4.421c-0,-1.364 -0.314,-2.579 -0.942,-3.643c-0.628,-1.065 -1.46,-1.951 -2.497,-2.661c-1.037,-0.71 -2.224,-1.255 -3.562,-1.637c-1.337,-0.383 -2.715,-0.574 -4.134,-0.574c-2.838,0 -5.267,0.71 -7.287,2.129c-2.019,1.419 -3.411,3.712 -4.175,6.877c-0.109,0.601 -0.382,1.051 -0.819,1.351c-0.437,0.3 -0.873,0.451 -1.31,0.451l-3.52,-0c-0.492,-0 -0.928,-0.178 -1.31,-0.533c-0.383,-0.354 -0.546,-0.777 -0.492,-1.269Z"/>
            </g>
            <g class="sd">
                <rect x="200" y="450" width="600" height="100"/>
                <path d="M594.59,526.854c-0,0.601 -0.218,1.119 -0.655,1.556c-0.437,0.436 -0.955,0.655 -1.556,0.655l-4.666,-0c-0.601,-0 -1.119,-0.219 -1.556,-0.655c-0.437,-0.437 -0.655,-0.955 -0.655,-1.556l0,-4.667c0,-0.6 0.218,-1.118 0.655,-1.555c0.437,-0.437 0.955,-0.655 1.556,-0.655l4.666,-0c0.601,-0 1.119,0.218 1.556,0.655c0.437,0.437 0.655,0.955 0.655,1.555l-0,4.667Zm-23.334,-39.954c0.109,-1.801 0.56,-3.643 1.351,-5.526c0.792,-1.883 1.965,-3.602 3.521,-5.158c1.555,-1.556 3.507,-2.825 5.854,-3.807c2.347,-0.983 5.076,-1.474 8.187,-1.474c2.674,0 5.144,0.396 7.409,1.187c2.265,0.792 4.23,1.87 5.895,3.234c1.665,1.365 2.961,3.002 3.889,4.913c0.928,1.91 1.392,3.957 1.392,6.14c-0,2.238 -0.369,4.162 -1.105,5.772c-0.737,1.61 -1.665,3.043 -2.784,4.298c-1.119,1.256 -2.32,2.416 -3.602,3.48c-1.283,1.064 -2.484,2.156 -3.603,3.275c-1.119,1.119 -2.047,2.347 -2.783,3.684c-0.737,1.337 -1.106,2.934 -1.106,4.79l0,1.146c0,0.6 -0.218,1.119 -0.655,1.556c-0.436,0.436 -0.955,0.655 -1.555,0.655l-3.03,-0c-0.6,-0 -1.119,-0.219 -1.555,-0.655c-0.437,-0.437 -0.655,-0.956 -0.655,-1.556l-0,-1.719c-0,-2.184 0.368,-4.08 1.105,-5.69c0.737,-1.611 1.665,-3.043 2.784,-4.299c1.119,-1.255 2.32,-2.415 3.602,-3.479c1.283,-1.065 2.484,-2.156 3.603,-3.275c1.119,-1.119 2.046,-2.306 2.783,-3.562c0.737,-1.255 1.106,-2.729 1.106,-4.421c-0,-1.364 -0.314,-2.579 -0.942,-3.643c-0.628,-1.065 -1.46,-1.951 -2.497,-2.661c-1.037,-0.71 -2.224,-1.255 -3.562,-1.637c-1.337,-0.383 -2.715,-0.574 -4.134,-0.574c-2.838,0 -5.267,0.71 -7.287,2.129c-2.019,1.419 -3.411,3.712 -4.175,6.877c-0.109,0.601 -0.382,1.051 -0.819,1.351c-0.437,0.3 -0.873,0.451 -1.31,0.451l-3.52,-0c-0.492,-0 -0.928,-0.178 -1.31,-0.533c-0.383,-0.354 -0.546,-0.777 -0.492,-1.269Z"/>
                <path d="M414.59,526.854c-0,0.601 -0.218,1.119 -0.655,1.556c-0.437,0.436 -0.955,0.655 -1.556,0.655l-4.666,-0c-0.601,-0 -1.119,-0.219 -1.556,-0.655c-0.437,-0.437 -0.655,-0.955 -0.655,-1.556l0,-4.667c0,-0.6 0.218,-1.118 0.655,-1.555c0.437,-0.437 0.955,-0.655 1.556,-0.655l4.666,-0c0.601,-0 1.119,0.218 1.556,0.655c0.437,0.437 0.655,0.955 0.655,1.555l-0,4.667Zm-23.334,-39.954c0.109,-1.801 0.56,-3.643 1.351,-5.526c0.792,-1.883 1.965,-3.602 3.521,-5.158c1.555,-1.556 3.507,-2.825 5.854,-3.807c2.347,-0.983 5.076,-1.474 8.187,-1.474c2.674,0 5.144,0.396 7.409,1.187c2.265,0.792 4.23,1.87 5.895,3.234c1.665,1.365 2.961,3.002 3.889,4.913c0.928,1.91 1.392,3.957 1.392,6.14c-0,2.238 -0.369,4.162 -1.105,5.772c-0.737,1.61 -1.665,3.043 -2.784,4.298c-1.119,1.256 -2.32,2.416 -3.602,3.48c-1.283,1.064 -2.484,2.156 -3.603,3.275c-1.119,1.119 -2.047,2.347 -2.783,3.684c-0.737,1.337 -1.106,2.934 -1.106,4.79l0,1.146c0,0.6 -0.218,1.119 -0.655,1.556c-0.436,0.436 -0.955,0.655 -1.555,0.655l-3.03,-0c-0.6,-0 -1.119,-0.219 -1.555,-0.655c-0.437,-0.437 -0.655,-0.956 -0.655,-1.556l-0,-1.719c-0,-2.184 0.368,-4.08 1.105,-5.69c0.737,-1.611 1.665,-3.043 2.784,-4.299c1.119,-1.255 2.32,-2.415 3.602,-3.479c1.283,-1.065 2.484,-2.156 3.603,-3.275c1.119,-1.119 2.046,-2.306 2.783,-3.562c0.737,-1.255 1.106,-2.729 1.106,-4.421c-0,-1.364 -0.314,-2.579 -0.942,-3.643c-0.628,-1.065 -1.46,-1.951 -2.497,-2.661c-1.037,-0.71 -2.224,-1.255 -3.562,-1.637c-1.337,-0.383 -2.715,-0.574 -4.134,-0.574c-2.838,0 -5.267,0.71 -7.287,2.129c-2.019,1.419 -3.411,3.712 -4.175,6.877c-0.109,0.601 -0.382,1.051 -0.819,1.351c-0.437,0.3 -0.873,0.451 -1.31,0.451l-3.52,-0c-0.492,-0 -0.928,-0.178 -1.31,-0.533c-0.383,-0.354 -0.546,-0.777 -0.492,-1.269Z"/>
            </g>
            <g class="sd">
                <rect x="200" y="450" width="600" height="100"/>
                <path d="M594.59,526.854c-0,0.601 -0.218,1.119 -0.655,1.556c-0.437,0.436 -0.955,0.655 -1.556,0.655l-4.666,-0c-0.601,-0 -1.119,-0.219 -1.556,-0.655c-0.437,-0.437 -0.655,-0.955 -0.655,-1.556l0,-4.667c0,-0.6 0.218,-1.118 0.655,-1.555c0.437,-0.437 0.955,-0.655 1.556,-0.655l4.666,-0c0.601,-0 1.119,0.218 1.556,0.655c0.437,0.437 0.655,0.955 0.655,1.555l-0,4.667Zm-23.334,-39.954c0.109,-1.801 0.56,-3.643 1.351,-5.526c0.792,-1.883 1.965,-3.602 3.521,-5.158c1.555,-1.556 3.507,-2.825 5.854,-3.807c2.347,-0.983 5.076,-1.474 8.187,-1.474c2.674,0 5.144,0.396 7.409,1.187c2.265,0.792 4.23,1.87 5.895,3.234c1.665,1.365 2.961,3.002 3.889,4.913c0.928,1.91 1.392,3.957 1.392,6.14c-0,2.238 -0.369,4.162 -1.105,5.772c-0.737,1.61 -1.665,3.043 -2.784,4.298c-1.119,1.256 -2.32,2.416 -3.602,3.48c-1.283,1.064 -2.484,2.156 -3.603,3.275c-1.119,1.119 -2.047,2.347 -2.783,3.684c-0.737,1.337 -1.106,2.934 -1.106,4.79l0,1.146c0,0.6 -0.218,1.119 -0.655,1.556c-0.436,0.436 -0.955,0.655 -1.555,0.655l-3.03,-0c-0.6,-0 -1.119,-0.219 -1.555,-0.655c-0.437,-0.437 -0.655,-0.956 -0.655,-1.556l-0,-1.719c-0,-2.184 0.368,-4.08 1.105,-5.69c0.737,-1.611 1.665,-3.043 2.784,-4.299c1.119,-1.255 2.32,-2.415 3.602,-3.479c1.283,-1.065 2.484,-2.156 3.603,-3.275c1.119,-1.119 2.046,-2.306 2.783,-3.562c0.737,-1.255 1.106,-2.729 1.106,-4.421c-0,-1.364 -0.314,-2.579 -0.942,-3.643c-0.628,-1.065 -1.46,-1.951 -2.497,-2.661c-1.037,-0.71 -2.224,-1.255 -3.562,-1.637c-1.337,-0.383 -2.715,-0.574 -4.134,-0.574c-2.838,0 -5.267,0.71 -7.287,2.129c-2.019,1.419 -3.411,3.712 -4.175,6.877c-0.109,0.601 -0.382,1.051 -0.819,1.351c-0.437,0.3 -0.873,0.451 -1.31,0.451l-3.52,-0c-0.492,-0 -0.928,-0.178 -1.31,-0.533c-0.383,-0.354 -0.546,-0.777 -0.492,-1.269Z"/>
                <path d="M414.59,526.854c-0,0.601 -0.218,1.119 -0.655,1.556c-0.437,0.436 -0.955,0.655 -1.556,0.655l-4.666,-0c-0.601,-0 -1.119,-0.219 -1.556,-0.655c-0.437,-0.437 -0.655,-0.955 -0.655,-1.556l0,-4.667c0,-0.6 0.218,-1.118 0.655,-1.555c0.437,-0.437 0.955,-0.655 1.556,-0.655l4.666,-0c0.601,-0 1.119,0.218 1.556,0.655c0.437,0.437 0.655,0.955 0.655,1.555l-0,4.667Zm-23.334,-39.954c0.109,-1.801 0.56,-3.643 1.351,-5.526c0.792,-1.883 1.965,-3.602 3.521,-5.158c1.555,-1.556 3.507,-2.825 5.854,-3.807c2.347,-0.983 5.076,-1.474 8.187,-1.474c2.674,0 5.144,0.396 7.409,1.187c2.265,0.792 4.23,1.87 5.895,3.234c1.665,1.365 2.961,3.002 3.889,4.913c0.928,1.91 1.392,3.957 1.392,6.14c-0,2.238 -0.369,4.162 -1.105,5.772c-0.737,1.61 -1.665,3.043 -2.784,4.298c-1.119,1.256 -2.32,2.416 -3.602,3.48c-1.283,1.064 -2.484,2.156 -3.603,3.275c-1.119,1.119 -2.047,2.347 -2.783,3.684c-0.737,1.337 -1.106,2.934 -1.106,4.79l0,1.146c0,0.6 -0.218,1.119 -0.655,1.556c-0.436,0.436 -0.955,0.655 -1.555,0.655l-3.03,-0c-0.6,-0 -1.119,-0.219 -1.555,-0.655c-0.437,-0.437 -0.655,-0.956 -0.655,-1.556l-0,-1.719c-0,-2.184 0.368,-4.08 1.105,-5.69c0.737,-1.611 1.665,-3.043 2.784,-4.299c1.119,-1.255 2.32,-2.415 3.602,-3.479c1.283,-1.065 2.484,-2.156 3.603,-3.275c1.119,-1.119 2.046,-2.306 2.783,-3.562c0.737,-1.255 1.106,-2.729 1.106,-4.421c-0,-1.364 -0.314,-2.579 -0.942,-3.643c-0.628,-1.065 -1.46,-1.951 -2.497,-2.661c-1.037,-0.71 -2.224,-1.255 -3.562,-1.637c-1.337,-0.383 -2.715,-0.574 -4.134,-0.574c-2.838,0 -5.267,0.71 -7.287,2.129c-2.019,1.419 -3.411,3.712 -4.175,6.877c-0.109,0.601 -0.382,1.051 -0.819,1.351c-0.437,0.3 -0.873,0.451 -1.31,0.451l-3.52,-0c-0.492,-0 -0.928,-0.178 -1.31,-0.533c-0.383,-0.354 -0.546,-0.777 -0.492,-1.269Z"/>
            </g>
            <g class="sd">
                <rect x="200" y="450" width="600" height="100"/>
                <path d="M594.59,526.854c-0,0.601 -0.218,1.119 -0.655,1.556c-0.437,0.436 -0.955,0.655 -1.556,0.655l-4.666,-0c-0.601,-0 -1.119,-0.219 -1.556,-0.655c-0.437,-0.437 -0.655,-0.955 -0.655,-1.556l0,-4.667c0,-0.6 0.218,-1.118 0.655,-1.555c0.437,-0.437 0.955,-0.655 1.556,-0.655l4.666,-0c0.601,-0 1.119,0.218 1.556,0.655c0.437,0.437 0.655,0.955 0.655,1.555l-0,4.667Zm-23.334,-39.954c0.109,-1.801 0.56,-3.643 1.351,-5.526c0.792,-1.883 1.965,-3.602 3.521,-5.158c1.555,-1.556 3.507,-2.825 5.854,-3.807c2.347,-0.983 5.076,-1.474 8.187,-1.474c2.674,0 5.144,0.396 7.409,1.187c2.265,0.792 4.23,1.87 5.895,3.234c1.665,1.365 2.961,3.002 3.889,4.913c0.928,1.91 1.392,3.957 1.392,6.14c-0,2.238 -0.369,4.162 -1.105,5.772c-0.737,1.61 -1.665,3.043 -2.784,4.298c-1.119,1.256 -2.32,2.416 -3.602,3.48c-1.283,1.064 -2.484,2.156 -3.603,3.275c-1.119,1.119 -2.047,2.347 -2.783,3.684c-0.737,1.337 -1.106,2.934 -1.106,4.79l0,1.146c0,0.6 -0.218,1.119 -0.655,1.556c-0.436,0.436 -0.955,0.655 -1.555,0.655l-3.03,-0c-0.6,-0 -1.119,-0.219 -1.555,-0.655c-0.437,-0.437 -0.655,-0.956 -0.655,-1.556l-0,-1.719c-0,-2.184 0.368,-4.08 1.105,-5.69c0.737,-1.611 1.665,-3.043 2.784,-4.299c1.119,-1.255 2.32,-2.415 3.602,-3.479c1.283,-1.065 2.484,-2.156 3.603,-3.275c1.119,-1.119 2.046,-2.306 2.783,-3.562c0.737,-1.255 1.106,-2.729 1.106,-4.421c-0,-1.364 -0.314,-2.579 -0.942,-3.643c-0.628,-1.065 -1.46,-1.951 -2.497,-2.661c-1.037,-0.71 -2.224,-1.255 -3.562,-1.637c-1.337,-0.383 -2.715,-0.574 -4.134,-0.574c-2.838,0 -5.267,0.71 -7.287,2.129c-2.019,1.419 -3.411,3.712 -4.175,6.877c-0.109,0.601 -0.382,1.051 -0.819,1.351c-0.437,0.3 -0.873,0.451 -1.31,0.451l-3.52,-0c-0.492,-0 -0.928,-0.178 -1.31,-0.533c-0.383,-0.354 -0.546,-0.777 -0.492,-1.269Z"/>
                <path d="M414.59,526.854c-0,0.601 -0.218,1.119 -0.655,1.556c-0.437,0.436 -0.955,0.655 -1.556,0.655l-4.666,-0c-0.601,-0 -1.119,-0.219 -1.556,-0.655c-0.437,-0.437 -0.655,-0.955 -0.655,-1.556l0,-4.667c0,-0.6 0.218,-1.118 0.655,-1.555c0.437,-0.437 0.955,-0.655 1.556,-0.655l4.666,-0c0.601,-0 1.119,0.218 1.556,0.655c0.437,0.437 0.655,0.955 0.655,1.555l-0,4.667Zm-23.334,-39.954c0.109,-1.801 0.56,-3.643 1.351,-5.526c0.792,-1.883 1.965,-3.602 3.521,-5.158c1.555,-1.556 3.507,-2.825 5.854,-3.807c2.347,-0.983 5.076,-1.474 8.187,-1.474c2.674,0 5.144,0.396 7.409,1.187c2.265,0.792 4.23,1.87 5.895,3.234c1.665,1.365 2.961,3.002 3.889,4.913c0.928,1.91 1.392,3.957 1.392,6.14c-0,2.238 -0.369,4.162 -1.105,5.772c-0.737,1.61 -1.665,3.043 -2.784,4.298c-1.119,1.256 -2.32,2.416 -3.602,3.48c-1.283,1.064 -2.484,2.156 -3.603,3.275c-1.119,1.119 -2.047,2.347 -2.783,3.684c-0.737,1.337 -1.106,2.934 -1.106,4.79l0,1.146c0,0.6 -0.218,1.119 -0.655,1.556c-0.436,0.436 -0.955,0.655 -1.555,0.655l-3.03,-0c-0.6,-0 -1.119,-0.219 -1.555,-0.655c-0.437,-0.437 -0.655,-0.956 -0.655,-1.556l-0,-1.719c-0,-2.184 0.368,-4.08 1.105,-5.69c0.737,-1.611 1.665,-3.043 2.784,-4.299c1.119,-1.255 2.32,-2.415 3.602,-3.479c1.283,-1.065 2.484,-2.156 3.603,-3.275c1.119,-1.119 2.046,-2.306 2.783,-3.562c0.737,-1.255 1.106,-2.729 1.106,-4.421c-0,-1.364 -0.314,-2.579 -0.942,-3.643c-0.628,-1.065 -1.46,-1.951 -2.497,-2.661c-1.037,-0.71 -2.224,-1.255 -3.562,-1.637c-1.337,-0.383 -2.715,-0.574 -4.134,-0.574c-2.838,0 -5.267,0.71 -7.287,2.129c-2.019,1.419 -3.411,3.712 -4.175,6.877c-0.109,0.601 -0.382,1.051 -0.819,1.351c-0.437,0.3 -0.873,0.451 -1.31,0.451l-3.52,-0c-0.492,-0 -0.928,-0.178 -1.31,-0.533c-0.383,-0.354 -0.546,-0.777 -0.492,-1.269Z"/>
            </g>
            <g class="tp">
                <rect x="200" y="200" width="600" height="600"/>
                <path d="M522.064,629.085c-0,2.886 -1.05,5.379 -3.149,7.478c-2.099,2.099 -4.591,3.148 -7.477,3.148l-22.433,0c-2.886,0 -5.378,-1.049 -7.477,-3.148c-2.099,-2.099 -3.149,-4.592 -3.149,-7.478l0,-22.432c0,-2.886 1.05,-5.379 3.149,-7.478c2.099,-2.099 4.591,-3.148 7.477,-3.148l22.433,-0c2.886,-0 5.378,1.049 7.477,3.148c2.099,2.099 3.149,4.592 3.149,7.478l-0,22.432Zm-112.163,-192.054c0.525,-8.658 2.689,-17.513 6.494,-26.564c3.804,-9.052 9.445,-17.317 16.922,-24.794c7.478,-7.478 16.858,-13.578 28.139,-18.3c11.282,-4.723 24.401,-7.084 39.356,-7.084c12.856,-0 24.728,1.902 35.616,5.706c10.889,3.804 20.334,8.986 28.336,15.545c8.002,6.56 14.234,14.431 18.694,23.614c4.46,9.183 6.69,19.021 6.69,29.516c0,10.757 -1.771,20.006 -5.313,27.746c-3.542,7.74 -8.002,14.627 -13.381,20.661c-5.378,6.035 -11.15,11.61 -17.316,16.726c-6.166,5.116 -11.938,10.364 -17.316,15.742c-5.379,5.379 -9.839,11.282 -13.381,17.71c-3.542,6.428 -5.313,14.103 -5.313,23.023l0,5.51c0,2.886 -1.049,5.378 -3.148,7.477c-2.099,2.099 -4.592,3.149 -7.478,3.149l-14.561,-0c-2.886,-0 -5.379,-1.05 -7.478,-3.149c-2.099,-2.099 -3.148,-4.591 -3.148,-7.477l-0,-8.265c-0,-10.495 1.771,-19.612 5.313,-27.352c3.542,-7.74 8.002,-14.627 13.38,-20.661c5.379,-6.035 11.151,-11.61 17.317,-16.726c6.165,-5.116 11.938,-10.364 17.316,-15.742c5.379,-5.379 9.839,-11.085 13.381,-17.12c3.542,-6.034 5.313,-13.118 5.313,-21.252c-0,-6.559 -1.509,-12.397 -4.526,-17.513c-3.017,-5.116 -7.018,-9.38 -12.003,-12.79c-4.985,-3.411 -10.692,-6.035 -17.12,-7.871c-6.428,-1.837 -13.053,-2.755 -19.874,-2.755c-13.643,-0 -25.319,3.41 -35.027,10.232c-9.707,6.822 -16.398,17.841 -20.071,33.058c-0.524,2.887 -1.836,5.051 -3.935,6.494c-2.099,1.443 -4.198,2.165 -6.297,2.165l-16.923,-0c-2.361,-0 -4.46,-0.853 -6.297,-2.558c-1.836,-1.706 -2.623,-3.739 -2.361,-6.101Z"/>
            </g>
            <g class="tp">
                <rect x="200" y="200" width="600" height="600"/>
                <path d="M522.064,629.085c-0,2.886 -1.05,5.379 -3.149,7.478c-2.099,2.099 -4.591,3.148 -7.477,3.148l-22.433,0c-2.886,0 -5.378,-1.049 -7.477,-3.148c-2.099,-2.099 -3.149,-4.592 -3.149,-7.478l0,-22.432c0,-2.886 1.05,-5.379 3.149,-7.478c2.099,-2.099 4.591,-3.148 7.477,-3.148l22.433,-0c2.886,-0 5.378,1.049 7.477,3.148c2.099,2.099 3.149,4.592 3.149,7.478l-0,22.432Zm-112.163,-192.054c0.525,-8.658 2.689,-17.513 6.494,-26.564c3.804,-9.052 9.445,-17.317 16.922,-24.794c7.478,-7.478 16.858,-13.578 28.139,-18.3c11.282,-4.723 24.401,-7.084 39.356,-7.084c12.856,-0 24.728,1.902 35.616,5.706c10.889,3.804 20.334,8.986 28.336,15.545c8.002,6.56 14.234,14.431 18.694,23.614c4.46,9.183 6.69,19.021 6.69,29.516c0,10.757 -1.771,20.006 -5.313,27.746c-3.542,7.74 -8.002,14.627 -13.381,20.661c-5.378,6.035 -11.15,11.61 -17.316,16.726c-6.166,5.116 -11.938,10.364 -17.316,15.742c-5.379,5.379 -9.839,11.282 -13.381,17.71c-3.542,6.428 -5.313,14.103 -5.313,23.023l0,5.51c0,2.886 -1.049,5.378 -3.148,7.477c-2.099,2.099 -4.592,3.149 -7.478,3.149l-14.561,-0c-2.886,-0 -5.379,-1.05 -7.478,-3.149c-2.099,-2.099 -3.148,-4.591 -3.148,-7.477l-0,-8.265c-0,-10.495 1.771,-19.612 5.313,-27.352c3.542,-7.74 8.002,-14.627 13.38,-20.661c5.379,-6.035 11.151,-11.61 17.317,-16.726c6.165,-5.116 11.938,-10.364 17.316,-15.742c5.379,-5.379 9.839,-11.085 13.381,-17.12c3.542,-6.034 5.313,-13.118 5.313,-21.252c-0,-6.559 -1.509,-12.397 -4.526,-17.513c-3.017,-5.116 -7.018,-9.38 -12.003,-12.79c-4.985,-3.411 -10.692,-6.035 -17.12,-7.871c-6.428,-1.837 -13.053,-2.755 -19.874,-2.755c-13.643,-0 -25.319,3.41 -35.027,10.232c-9.707,6.822 -16.398,17.841 -20.071,33.058c-0.524,2.887 -1.836,5.051 -3.935,6.494c-2.099,1.443 -4.198,2.165 -6.297,2.165l-16.923,-0c-2.361,-0 -4.46,-0.853 -6.297,-2.558c-1.836,-1.706 -2.623,-3.739 -2.361,-6.101Z"/>
            </g>
        </g>
        <g id="wut">
            <path d="M499.969,184.54c-2.287,0.386 -4.136,0.887 -5.455,2.375c-6.466,11.15 -11.163,22.766 -14.941,34.624c-0.72,2.642 -0.79,4.848 -0.237,6.641c-28.254,48.221 -56.859,80.852 -85.85,96.285c-30.827,14.592 -59.233,30.049 -84.902,46.483c-11.732,7.003 -18.099,12.494 -22.056,19.447c-4.229,9.571 -6.463,19.441 -3.32,30.118c50.128,24.545 107.344,38.065 174.547,36.048c27.861,0.816 61.215,-5.013 83.893,-17.877c27.199,-15.427 57.878,-66.297 99.903,-99.041c29.486,-22.974 58.973,-43.83 88.459,-58.577c2.816,-10.055 2.767,-13.466 1.423,-23.953c-5.503,-42.933 -15.871,-68.026 -25.376,-96.286c-0.717,-9.836 -7.459,-11.551 -16.126,-10.672c-31.326,8.931 -80.433,30.389 -130.243,58.105c-15.565,-7.803 -25.22,-12.178 -33.869,-13.756c0.181,-1.308 -0.826,-2.853 -2.372,-4.506c-1.548,-1.656 -18.776,-6.251 -23.478,-5.458Zm-44.815,130.418c17.252,-12.286 40.651,-38.828 66.538,-69.822l-16.917,-6.322c-12.612,24.735 -46.088,67.159 -49.621,76.144Z" style="fill:#fc20b6;stroke:#fff;stroke-width:4.14px;"/>
            <g>
                <path d="M282.724,418.7l-4.118,2.529l-0,76.157l3.453,3.972l2.591,0.518l21.414,11.916l20.032,-0.864l2.417,8.29l24.35,7.425l8.116,-7.253l8.808,2.763l2.072,8.462l20.205,2.936l2.245,-7.771l15.715,0.691l0.518,8.98l24.868,2.245l2.417,-7.944l7.081,0.172l5.526,8.117l17.269,0.691l5.008,-10.707l8.635,-0l2.245,9.843l23.14,-3.108l1.209,-8.98l10.189,5.871l13.815,-3.799l0,-8.634l12.261,4.144l17.097,-4.317l15.715,-68.386l7.426,-12.089l0.863,30.394l14.679,5.526l4.317,-1.381l2.245,3.281l26.077,2.418l2.935,8.116l14.161,8.289l10.016,-1.036l1.9,-4.317l4.835,2.245l9.844,-0.864l0.518,-4.144l4.49,2.418l12.606,-2.936l0.691,-4.145l5.699,1.9l8.462,-2.936l-0.173,-4.145l4.144,1.9l9.671,-4.835l15.715,-186.853l-8.289,-8.807" style="fill:#fc20b6;stroke:#fff;stroke-width:4.14px;"/>
            </g>
            <path d="M280.679,480.668c84.24,37.467 178.137,47.506 285.402,19.58" style="fill:none;stroke:#fff;stroke-width:4.14px;"/>
            <path d="M277.571,454.764c83.026,41.489 178.369,54.876 294.094,21.759" style="fill:none;stroke:#fff;stroke-width:4.14px;"/>
            <path d="M277.398,429.897c59.81,27.354 123.876,37.98 194.278,34.02c39.193,-2.205 70.234,-10.542 97.916,-40.41c16.009,-17.272 36.364,-43.938 65.796,-70.804c30.65,-27.977 54.899,-42.662 95.326,-67.004" style="fill:none;stroke:#fff;stroke-width:4.14px;"/>
            <path d="M650.169,494.999l6.908,-119.503l-6.217,-3.626l-66.141,65.795l-7.598,14.506" style="fill:none;stroke:#fff;stroke-width:4.14px;"/>
            <path d="M651.46,472.676c22.968,-2.218 47.128,-6.311 70.549,-13.597" style="fill:none;stroke:#fff;stroke-width:4.14px;"/>
            <path d="M652.414,450.099c22.915,-2.186 46.565,-6.391 71.322,-13.643" style="fill:none;stroke:#fff;stroke-width:4.14px;"/>
            <path d="M654.659,427.994c23.797,-1.413 47.986,-5.379 72.703,-12.779" style="fill:none;stroke:#fff;stroke-width:4.14px;"/>
            <path d="M655.177,404.681c23.525,-1.928 48.085,-6.131 73.912,-13.125" style="fill:none;stroke:#fff;stroke-width:4.14px;"/>
            <path d="M657.595,381.195c21.549,-2.529 45.859,-6.969 73.394,-13.643" style="fill:none;stroke:#fff;stroke-width:4.14px;"/>
            <path d="M651.364,371.455c32.71,-24.742 58.924,-40.523 83.079,-53.465" style="fill:none;stroke:#fff;stroke-width:4.14px;"/>
            <path d="M669.716,358.47c19.377,-2.576 43.335,-8.086 63.173,-13.886" style="fill:none;stroke:#fff;stroke-width:4.14px;"/>
            <path d="M559.95,209.419l14.229,6.632c1.868,-3.635 5.179,-5.345 10.362,-4.559l38.821,17.269c4.41,2.544 6.182,7.679 3.592,11.328l72.017,40.665l-35.887,29.681l-55.046,-31.3c-4.065,2.626 -7.906,2.775 -11.603,1.349l-32.109,-13.491c-5.957,-3.482 -7.422,-7.213 -6.746,-11.064l-34.241,-11.142c-22.672,28.498 -45.529,54.034 -68.938,70.734c-7.763,11.252 -12.731,20.062 -12.02,29.703c0.668,9.062 3.668,19.232 16.717,25.973c13.518,7.772 28.939,10.191 48.353,1.381c32.595,-21.897 62.653,-51.407 88.984,-92.094" style="fill:none;stroke:#fff;stroke-width:4.14px;"/>
            <path d="M608.038,279.135l18.916,-39.046" style="fill:none;stroke:#fff;stroke-width:4.14px;"/>
            <path d="M586.475,239.26l-4.973,-4.006l-6.908,-3.868" style="fill:none;stroke:#fff;stroke-width:8.33px;"/>
            <path d="M583.298,221.715l-15.059,37.025c10.787,1.675 21.909,6.522 33.433,15.197l16.164,-37.163c-11.118,-11.516 -21.761,-18.051 -34.538,-15.059Z" style="fill:none;stroke:#fff;stroke-width:4.14px;"/>
            <path d="M504.775,238.814l15.52,-40.677l39.201,12.952" style="fill:none;"/>
            <path d="M560.681,209.349c36.142,-22.431 75.183,-41.214 118.634,-54.449c14.088,-3.369 26.46,-0.517 21.317,8.634c-16.267,28.946 -40.398,52.274 -71.775,70.426" style="fill:none;stroke:#fff;stroke-width:8.33px;"/>
            <g id="ban">
                <circle cx="502.498" cy="350.654" r="306.64"/>
                <path d="M283.362,136.247l433.539,433.539"/>
            </g>
        </g>
    </g>
</svg>