<?xml version="1.0" encoding="UTF-8" standalone="no"?><!DOCTYPE svg PUBLIC "-//W3C//DTD SVG 1.1//EN" "http://www.w3.org/Graphics/SVG/1.1/DTD/svg11.dtd"><svg width="100%" height="100%" viewBox="0 0 500 100" version="1.1" xmlns="http://www.w3.org/2000/svg" xmlns:xlink="http://www.w3.org/1999/xlink" xml:space="preserve" xmlns:serif="http://www.serif.com/" style="fill-rule:evenodd;clip-rule:evenodd;stroke-linecap:round;stroke-linejoin:round;stroke-miterlimit:1.5;"><rect id="Artboard1" x="0" y="0" width="500" height="100" style="fill:none;"/><g><path d="M187.907,46.379l-110.334,0c3.366,-5.287 10.135,-8.372 16.428,-11.766l-68.154,20.646l48.618,13.098c-1.563,-2.578 -2.592,-5.926 -2.664,-10.656c-0.033,-1.713 0.706,-2.271 1.998,-1.998l114.108,0c-1.144,-3.372 -1.009,-6.449 -0,-9.324Z" style="fill:url(#_Linear1);"/><ellipse cx="250.648" cy="50" rx="58.442" ry="28.605" style="fill:url(#_Linear2);stroke:url(#_Linear3);stroke-width:3.13px;"/><path d="M230.478,43.134c2.492,-4.411 7.475,-4.411 9.967,-2.205c2.492,2.205 2.492,6.617 -0,11.028c-1.744,3.309 -6.229,6.617 -9.967,8.823c-3.738,-2.206 -8.223,-5.514 -9.967,-8.823c-2.492,-4.411 -2.492,-8.823 0,-11.028c2.492,-2.206 7.475,-2.206 9.967,2.205Z" style="fill:#ff00df;"/><path d="M272.076,43.134c2.492,-4.411 7.475,-4.411 9.967,-2.205c2.491,2.205 2.491,6.617 -0,11.028c-1.745,3.309 -6.23,6.617 -9.967,8.823c-3.738,-2.206 -8.223,-5.514 -9.967,-8.823c-2.492,-4.411 -2.492,-8.823 -0,-11.028c2.492,-2.206 7.475,-2.206 9.967,2.205Z" style="fill:#ff00df;"/><path d="M314.225,45.935l111.222,0c1.707,-3.922 -0.542,-7.844 -2.886,-11.766l50.172,12.876l-67.932,21.312c6.255,-3.808 12.22,-7.537 15.615,-10.565c1.389,-1.313 1.151,-1.848 -0.434,-1.738l-105.535,-0c0.812,-3.373 0.777,-6.746 -0.222,-10.119Z" style="fill:url(#_Linear4);"/><path d="M247.635,51.999c0.089,-0.721 0.376,-1.365 0.861,-1.931c0.485,-0.566 1.059,-0.967 1.721,-1.203c0.368,-0.132 0.75,-0.198 1.148,-0.198c0.014,-0 0.022,-0.004 0.022,-0.011c-0,-0.008 0.007,-0.011 0.022,-0.011l-0,0.022l0.662,-0c0.323,-0.015 0.607,-0.133 0.849,-0.353c0.243,-0.221 0.386,-0.493 0.431,-0.817l0.375,-3.045c0.029,-0.323 -0.052,-0.595 -0.243,-0.816c-0.191,-0.221 -0.449,-0.331 -0.772,-0.331l-5.507,-0l0.264,-2.185l5.507,0c0.412,0 0.787,0.067 1.126,0.199c0.618,0.235 1.096,0.636 1.434,1.203c0.338,0.566 0.463,1.209 0.375,1.93l-0.375,3.045l-0.022,0.199c-0.074,0.427 -0.224,0.831 -0.452,1.214c-0.228,0.382 -0.504,0.713 -0.828,0.993c-0.323,0.279 -0.688,0.503 -1.092,0.673c-0.405,0.169 -0.828,0.261 -1.269,0.275l-0.772,0c-0.309,0 -0.589,0.114 -0.839,0.342c-0.25,0.228 -0.39,0.497 -0.419,0.806l-0.419,3.464c-0.044,0.309 0.029,0.574 0.22,0.795c0.192,0.22 0.442,0.338 0.751,0.353l7.064,-0l-0.287,2.184l-7.108,0c-0.192,0 -0.372,-0.018 -0.541,-0.055c-0.169,-0.037 -0.335,-0.085 -0.496,-0.143c-0.589,-0.236 -1.052,-0.615 -1.391,-1.137c-0.338,-0.522 -0.485,-1.129 -0.441,-1.82l0.022,-0.199l0.199,-1.522l0.044,-0.398l0.176,-1.522Z" style="fill:#cecece;fill-rule:nonzero;"/></g><defs><linearGradient id="_Linear1" x1="0" y1="0" x2="1" y2="0" gradientUnits="userSpaceOnUse" gradientTransform="matrix(162.06,0,0,33.744,25.8465,51.4852)"><stop offset="0" style="stop-color:#e3e3e3;stop-opacity:1"/><stop offset="0.17" style="stop-color:#bebebe;stop-opacity:1"/><stop offset="0.37" style="stop-color:#9c9c9c;stop-opacity:1"/><stop offset="1" style="stop-color:#8e8e8e;stop-opacity:1"/></linearGradient><linearGradient id="_Linear2" x1="0" y1="0" x2="1" y2="0" gradientUnits="userSpaceOnUse" gradientTransform="matrix(2.86386,28.4059,-13.9037,1.40176,241.866,18.0186)"><stop offset="0" style="stop-color:#fff;stop-opacity:1"/><stop offset="1" style="stop-color:#8b8b8b;stop-opacity:1"/></linearGradient><linearGradient id="_Linear3" x1="0" y1="0" x2="1" y2="0" gradientUnits="userSpaceOnUse" gradientTransform="matrix(116.885,0,0,57.2109,192.206,50)"><stop offset="0" style="stop-color:#cdcdcd;stop-opacity:1"/><stop offset="1" style="stop-color:#c5c5c5;stop-opacity:1"/></linearGradient><linearGradient id="_Linear4" x1="0" y1="0" x2="1" y2="0" gradientUnits="userSpaceOnUse" gradientTransform="matrix(-116.007,1.42068e-14,-3.0642e-15,-25.0211,464.588,45.5025)"><stop offset="0" style="stop-color:#d7d4d4;stop-opacity:1"/><stop offset="0.46" style="stop-color:#929191;stop-opacity:1"/><stop offset="1" style="stop-color:#7f7e7e;stop-opacity:1"/></linearGradient></defs></svg>