<?xml version="1.0" encoding="UTF-8" standalone="no"?><!DOCTYPE svg PUBLIC "-//W3C//DTD SVG 1.1//EN" "http://www.w3.org/Graphics/SVG/1.1/DTD/svg11.dtd"><svg width="100%" height="100%" viewBox="0 0 919 936" version="1.1" xmlns="http://www.w3.org/2000/svg" xmlns:xlink="http://www.w3.org/1999/xlink" xml:space="preserve" xmlns:serif="http://www.serif.com/" style="fill-rule:evenodd;clip-rule:evenodd;stroke-linecap:round;stroke-linejoin:round;stroke-miterlimit:1.5;"><rect id="Artboard1" x="0" y="0" width="918.398" height="935.11" style="fill:none;"/><path d="M898.103,91.113c0,-38.647 -31.376,-70.024 -70.023,-70.024l-735.245,0c-38.646,0 -70.023,31.377 -70.023,70.024l0,752.727c0,38.647 31.377,70.023 70.023,70.023l735.245,0c38.647,0 70.023,-31.376 70.023,-70.023l0,-752.727Z" style="fill:none;stroke:#00fff5;stroke-width:17.21px;"/><text x="55.246px" y="442.852px" style="font-family:'Comfortaa-Bold', 'Comfortaa';font-weight:700;font-size:441.043px;fill:#00ffca;">G</text><text x="74.255px" y="686.729px" style="font-family:'Comfortaa-Bold', 'Comfortaa';font-weight:700;font-size:248.499px;fill:#00ffca;">Gr<tspan x="378.169px 527.517px " y="686.729px 686.729px ">ee</tspan>n</text><g transform="matrix(0.994928,-0.100589,0.100589,0.994928,3.36027,5.43512)"><text x="199.224px" y="865.975px" style="font-family:'Rubik-BoldItalic', 'Rubik';font-weight:700;font-style:italic;font-size:83.333px;fill:#ff00f3;">Platformless</text></g><text x="104.397px" y="839.847px" style="font-family:'Consolas-Bold', 'Consolas', monospace;font-weight:700;font-size:66.667px;fill:#cf9cff;">with</text><g><path d="M626.102,195.029c0,0 -0.315,-97.932 0,-97.932c109.929,0 199.178,85.956 199.178,191.83c-0,105.873 -89.249,191.829 -199.178,191.829c-109.929,-0 -199.177,-85.956 -199.177,-191.829c-0,-43.343 14.958,-83.348 40.168,-115.484" style="fill:none;stroke:#00ffca;stroke-width:17.21px;stroke-linecap:square;"/><path d="M486.71,171.419c-20.981,34.823 -37.236,73.426 -31.419,129.687c46.216,-20.648 88.813,-43.927 95.594,-93.254c2.222,-18.948 -1.776,-38.432 -9.359,-67.184c-3.577,-22.93 3.678,-40.031 11.699,-50.471c-147.099,50.103 -168.168,120.574 -138.712,199.21c28.229,-52.86 51.104,-88.32 72.197,-117.988Z" style="fill:#00ffca;stroke:#00ffca;stroke-width:2.02px;stroke-linecap:square;"/><path d="M702.987,287.135c-0,-20.478 -8.135,-40.116 -22.615,-54.596c-14.479,-14.48 -34.118,-22.614 -54.595,-22.614l-0.002,-0c-20.477,-0 -40.116,8.134 -54.595,22.614c-14.48,14.48 -22.615,34.118 -22.615,54.596l0,40.444l154.422,0l-0,-40.444Z" style="fill:none;stroke:#00ffca;stroke-width:15.29px;"/><path d="M605.46,336.303l-23.063,-0l-0,50.974c-0,6.367 5.162,11.53 11.53,11.53c0.001,-0 0.002,-0 0.003,-0c6.368,-0 11.53,-5.163 11.53,-11.53c-0,-18.059 -0,-50.974 -0,-50.974Z" style="fill:#00ffca;stroke:#00ffca;stroke-width:2.02px;stroke-linecap:square;"/><path d="M670.882,336.303l-23.063,-0l0,50.974c0,6.367 5.162,11.53 11.53,11.53c0.001,-0 0.002,-0 0.003,-0c6.368,-0 11.53,-5.163 11.53,-11.53c0,-18.059 0,-50.974 0,-50.974Z" style="fill:#00ffca;stroke:#00ffca;stroke-width:2.02px;stroke-linecap:square;"/><path d="M628.733,308.907l23.745,-49.365l-29.52,0.428l0.214,-32.351l-29.307,45.828l34.083,-0l0.785,35.46Z" style="fill:#00ffca;stroke:#00ffca;stroke-width:2.02px;stroke-linecap:square;"/></g></svg>