<?xml version="1.0" encoding="UTF-8" standalone="no"?><!DOCTYPE svg PUBLIC "-//W3C//DTD SVG 1.1//EN" "http://www.w3.org/Graphics/SVG/1.1/DTD/svg11.dtd">
<svg width="100%" height="100%" viewBox="0 0 1000 1000" version="1.1"
     xmlns="http://www.w3.org/2000/svg"
     xmlns:xlink="http://www.w3.org/1999/xlink" xml:space="preserve"
     xmlns:serif="http://www.serif.com/" style="fill-rule:evenodd;clip-rule:evenodd;stroke-linecap:round;stroke-linejoin:round;stroke-miterlimit:1.5;">
    <g>
        <g id="circle">
            <g>
                <path d="M500,500c-61.958,107.315 -199.386,144.138 -306.701,82.18c-107.315,-61.958 -144.139,-199.386 -82.18,-306.701c61.958,-107.314 199.386,-144.138 306.701,-82.18c107.314,61.958 144.138,199.386 82.18,306.701Z" style="fill:none;stroke:#c880fa;stroke-width:12.74px;"/>
                <path d="M306.532,388.301c-0.31,0.537 -0.997,0.721 -1.534,0.411c-0.537,-0.31 -0.721,-0.997 -0.411,-1.534c0.31,-0.536 0.997,-0.72 1.534,-0.411c0.536,0.31 0.72,0.997 0.411,1.534Z" style="fill:none;stroke:#c880fa;stroke-width:12.74px;"/>
            </g>
        </g>
        <g id="circle1" serif:id="circle">
            <g>
                <path d="M888.881,724.521c-61.958,107.314 -199.386,144.138 -306.701,82.18c-107.314,-61.958 -144.138,-199.386 -82.18,-306.701c61.958,-107.315 199.386,-144.138 306.701,-82.18c107.315,61.958 144.139,199.386 82.18,306.701Z" style="fill:none;stroke:#c880fa;stroke-width:12.74px;"/>
                <path d="M695.413,612.822c-0.31,0.536 -0.997,0.72 -1.534,0.411c-0.536,-0.31 -0.72,-0.997 -0.411,-1.534c0.31,-0.537 0.997,-0.721 1.534,-0.411c0.537,0.31 0.721,0.997 0.411,1.534Z" style="fill:none;stroke:#c880fa;stroke-width:12.74px;"/>
            </g>
        </g>
        <g id="circle2" serif:id="circle">
            <g>
                <path d="M500,500c61.958,107.315 25.134,244.743 -82.18,306.701c-107.315,61.958 -244.743,25.134 -306.701,-82.18c-61.959,-107.315 -25.135,-244.743 82.18,-306.701c107.315,-61.958 244.743,-25.135 306.701,82.18Z" style="fill:none;stroke:#c880fa;stroke-width:12.74px;"/>
                <path d="M306.532,611.699c0.309,0.537 0.125,1.224 -0.411,1.534c-0.537,0.309 -1.224,0.125 -1.534,-0.411c-0.31,-0.537 -0.126,-1.224 0.411,-1.534c0.537,-0.31 1.224,-0.126 1.534,0.411Z" style="fill:none;stroke:#c880fa;stroke-width:12.74px;"/>
            </g>
        </g>
        <g id="circle3" serif:id="circle">
            <g>
                <path d="M888.881,275.479c61.959,107.315 25.135,244.743 -82.18,306.701c-107.315,61.958 -244.743,25.135 -306.701,-82.18c-61.958,-107.315 -25.134,-244.743 82.18,-306.701c107.315,-61.958 244.743,-25.134 306.701,82.18Z" style="fill:none;stroke:#c880fa;stroke-width:12.74px;"/>
                <path d="M695.413,387.178c0.31,0.537 0.126,1.224 -0.411,1.534c-0.537,0.31 -1.224,0.126 -1.534,-0.411c-0.309,-0.537 -0.125,-1.224 0.411,-1.534c0.537,-0.309 1.224,-0.125 1.534,0.411Z" style="fill:none;stroke:#c880fa;stroke-width:12.74px;"/>
            </g>
        </g>
        <g id="circle4" serif:id="circle">
            <g>
                <circle cx="500" cy="724.521" r="224.521" style="fill:none;stroke:#c880fa;stroke-width:12.74px;"/>
                <circle cx="500" cy="724.521" r="1.123" style="fill:none;stroke:#c880fa;stroke-width:12.74px;"/>
            </g>
        </g>
        <g id="circle5" serif:id="circle">
            <g>
                <circle cx="500" cy="275.479" r="224.521" style="fill:none;stroke:#c880fa;stroke-width:12.74px;"/>
                <circle cx="500" cy="275.479" r="1.123" style="fill:none;stroke:#c880fa;stroke-width:12.74px;"/>
            </g>
        </g>
    </g>
</svg>