<?xml version="1.0" encoding="UTF-8" standalone="no"?><!DOCTYPE svg PUBLIC "-//W3C//DTD SVG 1.1//EN" "http://www.w3.org/Graphics/SVG/1.1/DTD/svg11.dtd">
<svg width="100%" height="100%" viewBox="0 0 2430 3825" version="1.1"
     xmlns="http://www.w3.org/2000/svg"
     xmlns:xlink="http://www.w3.org/1999/xlink" xml:space="preserve"
     xmlns:serif="http://www.serif.com/" style="fill-rule:evenodd;clip-rule:evenodd;stroke-linecap:round;stroke-linejoin:round;stroke-miterlimit:1.5;">
    <style>
        #p1 {
            animation: p1 3s linear infinite;
        }
        #p2 {
            animation: p2 3s linear infinite;
        }
        #oh {
            animation: p2 3s linear infinite;
        }
        @keyframes p1 {
            0% {
                opacity: 0;
            }
            49.99% {
                opacity: 0;
            }
            50% {
                opacity: 1;
            }
            100% {
                opacity: 1;
            }
        }
        @keyframes p2 {
            0% {
                opacity: 1;
            }
            49.99% {
                opacity: 1;
            }
            50% {
                opacity: 0;
            }
            100% {
                opacity: 0;
            }
        }
        #play *{
            animation-play-state: paused;
        }
        #play:target *{
            animation-play-state: running;
        }
    </style>
    <g id="play">
        <g id="p2">
            <path d="M1384.22,1430.48c0,-0 -21.683,-365.088 -52.16,-478.962c-24.856,-92.873 206.739,-297.732 348.703,-312.34c61.981,-6.378 124.584,87.577 98.588,160.014c-20.502,57.131 -156.361,168.262 -180.623,254.073c-27.15,96.025 -6.478,251.777 0.835,435.176c37.741,139.487 58.575,281.387 50.991,427.35l-97.125,449.204c-30.675,140.467 -34.896,294.162 12.142,473.483l179.679,630.633c-261.429,47.388 -522.854,50.567 -784.283,-31.562c-26.084,-295.879 -60.521,-316.942 -99.555,-703.479c-366.904,-701.184 -430.1,-776.654 -548.758,-1133.93c-35.029,-103.095 -11.767,-128.466 12.142,-152.975c51.496,-82.12 102.216,-129.916 237.958,-237.954c10.088,-51.966 35.788,-101.85 143.258,-140.833c13.28,-54.167 17.79,-102.26 118.98,-172.396c-28.875,-71.904 229.586,-257.952 305.05,-235.48c250.715,13.22 242.674,709.267 254.178,769.982Z" style="fill:#a859ed;stroke:#fff;stroke-width:40.88px;"/>
            <path d="M434.063,1554c135.162,16.737 211.254,-17.542 203.962,-123.833" style="fill:none;stroke:#fff;stroke-width:26.08px;"/>
            <path d="M596.371,1533.96c57.241,18.95 88.829,136.237 107.212,304.129c8.317,75.079 67.584,82.966 101.95,38.237c60.238,-78.408 83.863,-160.554 72.875,-290.762c-25.596,-155.655 -82.05,-277.363 -172.396,-361.792c-43.049,-43.729 -114.962,-15.3 -184.537,7.288" style="fill:none;stroke:#fff;stroke-width:26.08px;"/>
            <path d="M865.404,1763c5.946,56.563 22.134,111.802 63.996,160.073c24.317,22.375 51.517,32.346 84.983,-12.137c45.08,-101.288 48.096,-239.38 41.28,-386.076c-35.813,-275.525 -76.684,-373.87 -118.98,-422.491c-9.395,-10.804 -51.137,-49.259 -89.129,-52.288c-34.358,-2.741 -87.821,8.434 -130.946,23.396" style="fill:none;stroke:#fff;stroke-width:26.08px;"/>
            <path d="M1235.35,2306.72c-77.954,-185.408 -105.779,-187.702 -80.129,-534.985" style="fill:none;stroke:#fff;stroke-width:26.08px;"/>
            <path d="M1216.01,1522.1c-6.101,109.469 -49.999,393.327 -159.589,198.638" style="fill:none;stroke:#fff;stroke-width:26.08px;"/>
            <path d="M1177.58,1179.17c40.423,156.102 201.46,64.823 175.417,-86.678" style="fill:none;stroke:#fff;stroke-width:26.08px;"/>
            <path d="M1215.54,1526.4c12.929,-76.846 -56.314,-1011.26 -478.681,-537.94" style="fill:none;stroke:#fff;stroke-width:26.08px;"/>
            <path d="M1424.74,2588.38c-80.609,54.896 -168.68,76.225 -262.238,72.846" style="fill:none;stroke:#fff;stroke-width:26.08px;"/>
        </g>
        <g id="p1">
            <path d="M1376.17,522.046c87.946,-4.688 120.083,24.104 46.133,116.55l99.554,-7.283c61.596,12.016 102.784,39.729 80.13,116.55c64.691,20.616 64.845,78.108 38.85,150.545c-43.134,51.909 -82.338,111.555 -99.554,208.817c-27.15,96.025 -11.7,220.446 58.274,381.217c37.742,139.487 58.576,281.387 50.992,427.35l-97.125,449.204c-30.675,140.467 -34.896,294.162 12.142,473.483l179.679,630.633c-261.429,47.388 -522.854,50.567 -784.283,-31.562c-26.084,-295.879 -60.521,-316.942 -99.555,-703.479c-366.904,-701.184 -430.1,-776.654 -548.758,-1133.93c-35.029,-103.095 -11.767,-128.466 12.142,-152.975c51.496,-82.12 102.216,-129.916 237.958,-237.954c10.088,-51.966 35.788,-101.85 143.258,-140.833c13.28,-54.167 53.9,-111.754 118.98,-172.396c-28.875,-71.904 72.9,-185.271 134.675,-211.85c165.425,-77.292 293.45,-121.862 416.508,-162.083" style="fill:#a859ed;stroke:#fff;stroke-width:40.88px;"/>
            <path d="M434.063,1554c135.162,16.737 211.254,-17.542 203.962,-123.833" style="fill:none;stroke:#fff;stroke-width:26.08px;"/>
            <path d="M596.371,1533.96c57.241,18.95 88.829,136.237 107.212,304.129c8.317,75.079 67.584,82.966 101.95,38.237c60.238,-78.408 83.863,-160.554 72.875,-290.762c-25.596,-155.655 -82.05,-277.363 -172.396,-361.792c-43.049,-43.729 -114.962,-15.3 -184.537,7.288" style="fill:none;stroke:#fff;stroke-width:26.08px;"/>
            <path d="M863.579,1764.46c5.946,56.562 23.958,110.341 65.821,158.612c24.317,22.375 51.517,32.346 84.983,-12.137c45.08,-101.288 48.096,-239.38 41.28,-386.076c-35.813,-275.525 -76.684,-373.87 -118.98,-422.491c-9.395,-10.804 -51.137,-49.259 -89.129,-52.288c-34.358,-2.741 -87.821,8.434 -130.946,23.396" style="fill:none;stroke:#fff;stroke-width:26.08px;"/>
            <path d="M1235.35,2306.72c-77.954,-185.408 -105.779,-449.142 -80.129,-796.425" style="fill:none;stroke:#fff;stroke-width:26.08px;"/>
            <path d="M1490.3,1549.15c-48.167,-47.033 -104.8,-63.042 -172.396,-38.85c-95.325,-100.758 -186.362,-160.088 -262.238,-72.846" style="fill:none;stroke:#fff;stroke-width:26.08px;"/>
            <path d="M1594.03,747.204c-13.108,49.584 -46.116,79.538 -84.312,90.5c-65.029,18.663 -167.842,59.713 -407.925,182.108c-31.463,18.592 -73.754,61.538 -131.117,138.405" style="fill:none;stroke:#fff;stroke-width:26.08px;"/>
            <path d="M1296.08,926.446c-57.562,165.508 -60.658,339.012 24.25,569.279" style="fill:none;stroke:#fff;stroke-width:26.08px;"/>
            <path d="M1128.51,1388.89c12.929,-76.846 -5.187,-168.321 -82.912,-316.4" style="fill:none;stroke:#fff;stroke-width:26.08px;"/>
            <path d="M1424.74,2588.38c-80.609,54.896 -168.68,76.225 -262.238,72.846" style="fill:none;stroke:#fff;stroke-width:26.08px;"/>
            <path d="M1428.62,637.108c-207.021,48.017 -420.454,144.675 -599.846,259" style="fill:none;stroke:#fff;stroke-width:40.88px;"/>
        </g>
        <g id="oh">
            <path d="M1690.83,520.138l177.159,-317.017" style="fill:none;stroke:#fff;stroke-width:40.88px;"/>
            <path d="M1586.39,557.882l37.905,-361.175" style="fill:none;stroke:#fff;stroke-width:40.88px;"/>
            <path d="M1817.22,520.138l152.292,-167.834" style="fill:none;stroke:#fff;stroke-width:40.88px;"/>
            <path d="M1852.45,605.088l318.054,-167.83" style="fill:none;stroke:#fff;stroke-width:40.88px;"/>
            <path d="M1848.3,700.4l249.675,-1.037" style="fill:none;stroke:#fff;stroke-width:40.88px;"/>
        </g>
    </g>
</svg>