<?xml version="1.0" encoding="UTF-8" standalone="no"?><!DOCTYPE svg PUBLIC "-//W3C//DTD SVG 1.1//EN" "http://www.w3.org/Graphics/SVG/1.1/DTD/svg11.dtd"><svg width="100%" height="100%" viewBox="0 0 815 239" version="1.1" xmlns="http://www.w3.org/2000/svg" xmlns:xlink="http://www.w3.org/1999/xlink" xml:space="preserve" xmlns:serif="http://www.serif.com/" style="fill-rule:evenodd;clip-rule:evenodd;stroke-linecap:round;stroke-linejoin:round;stroke-miterlimit:1.5;"><rect id="Artboard2" x="0" y="0" width="814.499" height="238.138" style="fill:none;"/><clipPath id="_clip1"><rect x="0" y="0" width="814.499" height="238.138"/></clipPath><g clip-path="url(#_clip1)"><rect id="Artboard1" x="-56.879" y="-85.282" width="927.987" height="401.308" style="fill:none;"/><g><path d="M809.421,62.011c-0,-31.451 -31.896,-56.984 -71.188,-56.984l-661.975,0c-39.292,0 -71.187,25.533 -71.187,56.984l-0,113.973c-0,31.45 31.895,56.983 71.187,56.983l661.975,-0c39.292,-0 71.188,-25.533 71.188,-56.983l-0,-113.973Z" style="fill:#ff00a1;stroke:#ffc7e5;stroke-width:8.04px;"/><g><path d="M133.584,176.157l-0,-24.415l85.449,0c3.371,0 6.248,-1.191 8.629,-3.572c2.386,-2.386 3.577,-5.262 3.577,-8.633c-0,-3.371 -1.191,-6.247 -3.577,-8.633c-2.381,-2.382 -5.258,-3.573 -8.629,-3.573l-48.829,0c-5.113,0 -9.881,-0.962 -14.298,-2.88c-4.417,-1.917 -8.283,-4.531 -11.597,-7.845c-3.314,-3.314 -5.927,-7.21 -7.845,-11.684c-1.921,-4.474 -2.88,-9.215 -2.88,-14.211c-0,-4.999 0.959,-9.736 2.88,-14.214c1.918,-4.474 4.531,-8.37 7.845,-11.684c3.314,-3.314 7.18,-5.928 11.597,-7.845c4.417,-1.918 9.185,-2.877 14.298,-2.877l85.449,0l0,24.411l-85.449,0c-3.371,0 -6.247,1.191 -8.629,3.577c-2.386,2.381 -3.576,5.258 -3.576,8.632c-0,3.371 1.19,6.248 3.576,8.629c2.382,2.386 5.258,3.577 8.629,3.577l48.829,-0c5.114,-0 9.881,0.959 14.298,2.876c4.418,1.918 8.283,4.535 11.597,7.849c3.314,3.31 5.928,7.206 7.845,11.681c1.922,4.478 2.88,9.215 2.88,14.214c0,4.999 -0.958,9.736 -2.88,14.21c-1.917,4.478 -4.531,8.371 -7.845,11.685c-3.314,3.313 -7.179,5.927 -11.597,7.849c-4.417,1.917 -9.184,2.876 -14.298,2.876l-85.449,-0Z" style="fill:#ffc7e5;fill-rule:nonzero;"/><path d="M277.1,54.091l24.415,0l0,89.981c0,2.093 0.753,3.892 2.268,5.403c1.51,1.514 3.31,2.267 5.402,2.267l16.741,0l-0,-97.651l24.415,0l-0,97.651l16.74,0c2.093,0 3.896,-0.753 5.407,-2.267c1.51,-1.511 2.267,-3.31 2.267,-5.403l0,-89.981l24.411,0l-0,97.651c-0,3.371 -0.639,6.541 -1.918,9.504c-1.278,2.964 -3.02,5.551 -5.231,7.762c-2.207,2.207 -4.794,3.953 -7.758,5.231c-2.964,1.279 -6.133,1.918 -9.504,1.918l-73.24,-0c-3.371,-0 -6.54,-0.639 -9.504,-1.918c-2.964,-1.278 -5.551,-3.024 -7.762,-5.231c-2.206,-2.211 -3.953,-4.798 -5.231,-7.762c-1.278,-2.963 -1.918,-6.133 -1.918,-9.504l0,-97.651Z" style="fill:#ffc7e5;fill-rule:nonzero;"/><path d="M423.756,151.742l-0,-73.24c-0,-3.371 0.639,-6.54 1.917,-9.504c1.279,-2.964 3.025,-5.551 5.232,-7.758c2.21,-2.21 4.797,-3.953 7.761,-5.231c2.964,-1.278 6.133,-1.918 9.504,-1.918l97.651,0l0,24.411l-89.98,0c-2.093,0 -3.893,0.757 -5.407,2.268c-1.51,1.51 -2.264,3.314 -2.264,5.406l0,16.741l73.24,-0l0,24.414l-73.24,0l0,16.741c0,2.093 0.754,3.892 2.264,5.403c1.514,1.514 3.314,2.267 5.407,2.267l89.98,0l0,24.415l-97.651,-0c-3.371,-0 -6.54,-0.639 -9.504,-1.918c-2.964,-1.278 -5.551,-3.024 -7.761,-5.231c-2.207,-2.211 -3.953,-4.798 -5.232,-7.762c-1.278,-2.963 -1.917,-6.133 -1.917,-9.504Z" style="fill:#ffc7e5;fill-rule:nonzero;"/><path d="M563.958,54.091l97.655,0c3.371,0 6.536,0.64 9.504,1.918c2.964,1.278 5.551,3.021 7.758,5.231c2.21,2.207 3.953,4.794 5.231,7.758c1.279,2.964 1.918,6.133 1.918,9.504l-0,73.24c-0,3.371 -0.639,6.541 -1.918,9.504c-1.278,2.964 -3.021,5.551 -5.231,7.762c-2.207,2.207 -4.794,3.953 -7.758,5.231c-2.968,1.279 -6.133,1.918 -9.504,1.918l-97.655,-0l0,-122.066Zm24.415,97.651l65.566,0c2.093,0 3.896,-0.753 5.406,-2.267c1.511,-1.511 2.268,-3.31 2.268,-5.403l-0,-57.896c-0,-2.092 -0.757,-3.896 -2.268,-5.406c-1.51,-1.511 -3.313,-2.268 -5.406,-2.268l-65.566,0l-0,73.24Z" style="fill:#ffc7e5;fill-rule:nonzero;"/></g></g></g></svg>