<?xml version="1.0" encoding="UTF-8" standalone="no"?><!DOCTYPE svg PUBLIC "-//W3C//DTD SVG 1.1//EN" "http://www.w3.org/Graphics/SVG/1.1/DTD/svg11.dtd">
<svg width="100%" height="100%" viewBox="0 0 16662 12558" version="1.1"
     xmlns="http://www.w3.org/2000/svg"
     xmlns:xlink="http://www.w3.org/1999/xlink" xml:space="preserve"
     xmlns:serif="http://www.serif.com/" style="fill-rule:evenodd;clip-rule:evenodd;stroke-linecap:round;stroke-linejoin:round;stroke-miterlimit:1.5;">
    <style>
        #figure{
            display: block;
        }
        #divider,#container{
            fill:none;
            stroke: #b480ff;
            stroke-width: 30vw;
        }
        circle{
            fill: #ff00a8;
            stroke: #fff;
            stroke-width: 20vw;
        }
        g#icon{
            transform-origin: 50% 10%;
            transform-box: fill-box;
            transform-style: preserve-3d;
            animation: 8s spn linear infinite;
            filter: drop-shadow(0 0 205vw #56ffca);
            animation-play-state: paused;
        }
        @keyframes spn {
            0% {
                transform: rotate3d(0, 1, 0, 0deg);
            }
            100% {
                transform: rotate3d(0, 1, 0, 360deg);
            }
        }
        #icon>path{
            fill:none;
            stroke: #56ffca;
            stroke-width: 25vw;
        }
        #heart{
            filter: drop-shadow(0 0 55vw #fa01f0);
            animation: 4s heart linear infinite;
        }
        @keyframes heart {
            50% {
                filter: drop-shadow(0 0 100vw #fa01f0);
            }
        }
        #tx>path {
            animation: 15s tx ease-in-out infinite;
        }
        @keyframes tx {
            25% {
                fill: #ae49fc;
            }
            50% {
                fill: #49f6fc;
            }
            75% {
                fill: #09f4ec;
            }
        }
        #ball{
            offset-path: path("M15908.4,2085.74c-0,-763.028 -619.482,-1382.51 -1382.51,-1382.51l-3599.53,-0l-1049.89,1166.67l-7659.27,-0c-763.028,-0 -1382.51,619.482 -1382.51,1382.51l-0,7110.05c-0,763.028 619.482,1382.51 1382.51,1382.51l12308.7,0c763.028,0 1382.51,-619.482 1382.51,-1382.51l-0,-8276.72Z");
            animation: 10s ball1 linear infinite;
        }
        @keyframes ball1 {
            0%{
                offset-distance: 0;
            }
            100%{
                offset-distance: 100%;
            }
        }
        #ball2{
            offset-path: path("M15908.4,2085.74c-0,-763.028 -619.482,-1382.51 -1382.51,-1382.51l-3599.53,-0l-1049.89,1166.67l-7659.27,-0c-763.028,-0 -1382.51,619.482 -1382.51,1382.51l-0,7110.05c-0,763.028 619.482,1382.51 1382.51,1382.51l12308.7,0c763.028,0 1382.51,-619.482 1382.51,-1382.51l-0,-8276.72Z");
            animation: 10s ball2 linear infinite;
        }
        @keyframes ball2 {
            0%{
                offset-distance: -50%;
            }
            100%{
                offset-distance: 50%;
            }
        }
        #play *{
            animation-play-state: paused;
        }
        #play:target * {
            animation-play-state: running;
        }
    </style>
    <g id="play">
        <g id="icon">
        <path id="_3" d="M5855.35,10787.9l45.403,-2232.32c341.372,587.844 827.907,880.64 1434.87,1137.55c-242.979,-433.796 -586.922,-859.869 -1188.32,-1266.16c910.587,86.506 1785.21,-139.883 2637.5,-560.41c-711.509,-79.996 -1340.21,-78.524 -1869.48,20.743c589.753,-414.387 1152.92,-1012.32 1686.65,-1813.64c-1344.42,495.842 -2167.45,1070.21 -2599.81,1703.43c509.379,-1062.12 322.825,-2363.27 -225.136,-3788.51c-521.897,1435.01 -706.909,2742.88 -304.564,3829.07c-494.197,-919.263 -1474.7,-1532.24 -2662.84,-2014.48c471.863,797.846 1022.52,1532.89 1854.02,2044.13c-586.602,-121.45 -1221.59,-149.965 -1899.98,-95.211c972.8,505.997 1784.83,699.24 2480.46,666.139c-537.454,317.601 -909.77,742.822 -1223.44,1206.25c244.424,-57.935 1371.44,-488.577 1683.84,-1078.27l20.174,2236.38l130.652,5.297l0,0.004Z" style="fill:none;stroke:#56ffca;stroke-width:72.42px;"/>
        <path id="_2" d="M5845.91,10787l46.101,-2300.82c271.619,445.276 639.477,667.35 1121.87,862.283c-193.34,-328.597 -466.888,-651.387 -944.924,-959.42c723.441,66.141 1418.1,-104.613 2094.87,-422.378c-565.296,-61.051 -1064.74,-60.385 -1485.14,14.38c468.227,-313.295 915.204,-765.573 1338.62,-1371.82c-1067.67,374.408 -1721.1,808.664 -2064.12,1287.74c403.907,-803.735 254.775,-1788.88 -181.543,-2868.27c-413.578,1086.02 -559.625,2076.01 -239.231,2898.61c-393.262,-696.296 -1172.62,-1161.06 -2116.85,-1526.97c375.423,604.345 813.406,1161.21 1474.32,1548.82c-466.091,-92.346 -970.555,-114.388 -1509.43,-73.423c773.179,383.756 1418.38,530.629 1971,506.057c-426.74,240.078 -722.215,561.725 -971.074,912.354c194.128,-43.697 1107.99,-368.979 1355.74,-815.185l6.004,2303.95l103.795,4.095Z" style="fill:none;stroke:#56ffca;stroke-width:72.42px;"/>
        <path id="_1" d="M5866.06,10790.2l44.736,-2160.64c420.688,756.103 1042.23,1132.29 1791.01,1462.3c-299.415,-557.996 -723.436,-1105.91 -1465.16,-1628.16c1123.59,110.404 2203.12,-181.789 3255.3,-723.781c-877.957,-102.226 -1653.79,-99.696 -2307.02,28.553c728.194,-533.827 1423.75,-1303.82 2083.19,-2335.5c-1659.54,639.391 -2675.74,1379.34 -3209.91,2194.6c629.641,-1367.26 400.723,-3041.4 -274.031,-4874.88c-645.464,1847.11 -875.084,3530.29 -379.678,4927.63c-608.936,-1182.44 -1818.3,-1970.26 -3283.98,-2589.6c581.472,1026.2 1260.26,1971.52 2285.84,2628.56c-723.751,-155.675 -1507.32,-191.758 -2344.52,-120.607c1199.96,650.145 2201.82,898.002 3060.28,854.706c-663.539,409.234 -1123.4,956.809 -1510.96,1553.48c301.685,-74.817 1671.43,-630.001 2057.52,-1389.14l36.189,2165.8l161.202,6.678l-0,0.008Z" style="fill:none;stroke:#56ffca;stroke-width:72.42px;"/>
        </g>
            <path id="divider" d="M10628.3,2608.42l0,8063.76" style="fill:none;stroke:#b480ff;stroke-width:208.33px;"/>
            <path id="container" d="M15908.4,2085.74c-0,-763.028 -619.482,-1382.51 -1382.51,-1382.51l-3599.53,-0l-1049.89,1166.67l-7659.27,-0c-763.028,-0 -1382.51,619.482 -1382.51,1382.51l-0,7110.05c-0,763.028 619.482,1382.51 1382.51,1382.51l12308.7,0c763.028,0 1382.51,-619.482 1382.51,-1382.51l-0,-8276.72Z" style="fill:none;stroke:#b480ff;stroke-width:208.33px;"/>
            <g transform="matrix(6.12323e-17,1,-1,6.12323e-17,16577,-20408)">
            <text x="23797px" y="4280.43px" style="font-family:'ConthraxSb-Regular', 'Conthrax', sans-serif;font-weight:600;font-size:2708.33px;fill:#ff00f1;stroke:#b2f3ff;stroke-width:82.98px;stroke-linecap:butt;stroke-miterlimit:2;">HTN</text>
        </g>
            <path id="heart" d="M13216.9,1858.18c208.381,-496.579 625.144,-496.579 833.527,-325.345c208.39,171.234 208.39,513.703 0,856.172c-145.868,256.851 -520.954,513.703 -833.527,684.937c-312.574,-171.234 -687.659,-428.086 -833.527,-684.937c-208.382,-342.469 -208.382,-684.938 -0,-856.172c208.382,-171.234 625.145,-171.234 833.527,325.345Z" style="fill:none;stroke:#ff00f1;stroke-width:104.1px;"/>
            <path d="M12881.3,2084.39l218.912,-0c88.862,-0 141.076,38.917 156.643,116.753l35.999,179.994c3.243,16.215 13.946,24.323 32.107,24.323l71.998,0c19.459,0 29.188,-9.729 29.188,-29.188l0,-272.424l75.89,0l50.593,65.187l-0,213.075c-0,108.969 -54.485,163.454 -163.455,163.454l-63.241,-0c-88.862,-0 -141.076,-38.918 -156.643,-116.753l-35.999,-179.994c-3.243,-16.216 -13.946,-24.324 -32.107,-24.324l-93.403,0l0,321.071l-126.482,-0l0,-461.174Z" style="fill:#b480ff;fill-rule:nonzero;"/>
            <g id="tx">
            <path d="M14192.4,3922.54c0,39.722 -19.861,59.584 -59.583,59.584l-704.167,-0l0,1267.5l704.167,-0c39.722,-0 59.583,19.861 59.583,59.583l0,292.5c0,41.528 -19.861,62.292 -59.583,62.292l-1776.67,-0c-39.722,-0 -59.583,-20.764 -59.583,-62.292l-0,-292.5c-0,-39.722 19.861,-59.583 59.583,-59.583l720.417,-0l-0,-1267.5l-720.417,-0c-39.722,-0 -59.583,-19.862 -59.583,-59.584l-0,-292.5c-0,-41.528 19.861,-62.291 59.583,-62.291l1776.67,-0c39.722,-0 59.583,20.763 59.583,62.291l0,292.5Z" style="fill:#ff00f1;fill-rule:nonzero;stroke:#b2f3ff;stroke-width:82.98px;stroke-linecap:butt;stroke-miterlimit:2;"/>
                <path d="M14192.4,8082.54c0,41.528 -19.861,62.292 -59.583,62.292l-265.417,-0c-41.528,-0 -62.292,-20.764 -62.292,-62.292l0,-850.416l-1448.96,-0c-39.722,-0 -59.583,-19.862 -59.583,-59.584l-0,-295.208c-0,-39.722 19.861,-59.583 59.583,-59.583l1448.96,-0l0,-850.417c0,-41.528 20.764,-62.292 62.292,-62.292l265.417,0c39.722,0 59.583,20.764 59.583,62.292l0,2115.21Z" style="fill:#ff00f1;fill-rule:nonzero;stroke:#b2f3ff;stroke-width:82.98px;stroke-linecap:butt;stroke-miterlimit:2;"/>
                <path d="M14192.4,8867.95c0,43.333 -1.805,79.444 -5.417,108.333c-3.611,28.889 -11.284,54.167 -23.02,75.834c-11.736,21.666 -27.986,42.43 -48.75,62.291c-20.764,19.861 -48.299,42.431 -82.605,67.709l-1321.67,1007.5c-12.639,7.222 -18.959,18.958 -18.959,35.208l0,24.375c0,14.444 9.028,21.667 27.084,21.667l1413.75,-0c39.722,-0 59.583,19.861 59.583,59.583l0,284.375c0,39.722 -19.861,59.583 -59.583,59.583l-1554.58,0c-110.138,0 -184.618,-19.861 -223.437,-59.583c-38.819,-39.722 -58.229,-101.111 -58.229,-184.167l-0,-232.916c-0,-41.528 1.805,-76.285 5.416,-104.271c3.612,-27.986 10.834,-52.813 21.667,-74.479c10.833,-21.667 26.632,-42.882 47.396,-63.646c20.764,-20.764 49.201,-44.688 85.312,-71.771l1321.67,-1010.21c12.639,-10.834 18.958,-22.57 18.958,-35.209l0,-24.375c0,-14.444 -9.027,-21.666 -27.083,-21.666l-1413.75,-0c-39.722,-0 -59.583,-19.862 -59.583,-59.584l-0,-284.375c-0,-41.528 19.861,-62.291 59.583,-62.291l1554.58,-0c110.139,-0 184.619,19.861 223.438,59.583c38.819,39.722 58.229,101.111 58.229,184.167l0,238.333Z" style="fill:#ff00f1;fill-rule:nonzero;stroke:#b2f3ff;stroke-width:82.98px;stroke-linecap:butt;stroke-miterlimit:2;"/>
        </g>
        <circle id="ball" cx="2" r="350">
<!--            <animateMotion-->
<!--                    xlink:href="#ball"-->
<!--                    dur="10s"-->
<!--                    repeatCount="indefinite"-->
<!--                    fill="freeze"-->
<!--                    path="M15908.4,2085.74c-0,-763.028 -619.482,-1382.51 -1382.51,-1382.51l-3599.53,-0l-1049.89,1166.67l-7659.27,-0c-763.028,-0 -1382.51,619.482 -1382.51,1382.51l-0,7110.05c-0,763.028 619.482,1382.51 1382.51,1382.51l12308.7,0c763.028,0 1382.51,-619.482 1382.51,-1382.51l-0,-8276.72Z" />-->
        </circle>
        <circle id="ball2" cx="2" r="350">
            <animateMotion
                    xlink:href="#ball2"
                    dur="10s"
                    begin="-5s"
                    repeatCount="indefinite"
                    fill="freeze"
                    path="M15908.4,2085.74c-0,-763.028 -619.482,-1382.51 -1382.51,-1382.51l-3599.53,-0l-1049.89,1166.67l-7659.27,-0c-763.028,-0 -1382.51,619.482 -1382.51,1382.51l-0,7110.05c-0,763.028 619.482,1382.51 1382.51,1382.51l12308.7,0c763.028,0 1382.51,-619.482 1382.51,-1382.51l-0,-8276.72Z" />
        </circle>
    </g>
</svg>