<?xml version="1.0" encoding="UTF-8" standalone="no"?>
<!DOCTYPE svg PUBLIC "-//W3C//DTD SVG 1.1//EN" "http://www.w3.org/Graphics/SVG/1.1/DTD/svg11.dtd">
<svg width="100%" height="100%" viewBox="0 0 1000 1000" version="1.1" xmlns="http://www.w3.org/2000/svg" xmlns:xlink="http://www.w3.org/1999/xlink" xml:space="preserve" xmlns:serif="http://www.serif.com/" style="fill-rule:evenodd;clip-rule:evenodd;stroke-linecap:round;stroke-linejoin:round;stroke-miterlimit:1.5;">
    <defs>
        <filter id="red-glow" filterUnits="userSpaceOnUse" x="-50%" y="-50%" width="200%" height="200%">
        <!-- blur the text at different levels-->
        <feGaussianBlur in="SourceGraphic" stdDeviation="5" result="blur5"/>
        <feGaussianBlur in="SourceGraphic" stdDeviation="10" result="blur10"/>
        <feGaussianBlur in="SourceGraphic" stdDeviation="20" result="blur20"/>
        <feGaussianBlur in="SourceGraphic" stdDeviation="30" result="blur30"/>
        <feGaussianBlur in="SourceGraphic" stdDeviation="50" result="blur50"/>
        <!-- merge all the blurs except for the first one -->
        <feMerge result="blur-merged">
            <feMergeNode in="blur10"/>
            <feMergeNode in="blur20"/>
            <feMergeNode in="blur30"/>
            <feMergeNode in="blur50"/>
        </feMerge>
        <!-- recolour the merged blurs red-->
        <feColorMatrix result="red-blur" in="blur-merged" type="matrix" values="1 0 0 0 0                                 0 0.06 0 0 0                                 0 0 0.44 0 0                                 0 0 0 1 0"/>
        <feMerge>
            <feMergeNode in="red-blur"/>       <!-- largest blurs coloured red -->
            <feMergeNode in="blur5"/>          <!-- smallest blur left white -->
            <feMergeNode in="SourceGraphic"/>  <!-- original white text -->
        </feMerge>
        </filter>
    </defs>
    <style>
        #magnetic-field {
            transform-origin: center;
            transform-box: border-box;
            animation: 25s rotateOuter linear infinite;
            transform-style: preserve-3d;
        }
        #magnetic-field2 {
            transform-origin: center;
            transform-box: border-box;
            animation: 25s rotateOuter linear infinite;
            transform-style: preserve-3d;
        }
        #magnetic-field2 &gt; path {
            fill: none;
            stroke: #00ffb3;
            transform-origin: center;
            transform-box: border-box;
            stroke-width: .5em;
            animation: 15s field1 linear infinite;
            opacity: .5;
        }
        @keyframes rotateOuter {
            100% {
                transform: rotate3d(0, 1, 0, 360deg);
            }
        }
        #magnetic-field &gt; path {
            fill: none;
            stroke: #fff;
            transform-origin: center;
            transform-box: border-box;
            stroke-dasharray: 1em 25em, 0 0;
            stroke-width: 1em;
            stroke-dashoffset: 0;
            animation: 15s field1 linear infinite;
            filter: blur(10px);

        }
        @keyframes field1 {
            100% {
                stroke-dashoffset: 1000;
            }
        }

        #magnetic-field &gt; path:nth-of-type(1) {
            transform: rotate3d(0, 1, 0, 0deg);
            stroke-dashoffset: 100;

        }
        #magnetic-field &gt; path:nth-of-type(2) {
            transform: rotate3d(0, 1, 0, 90deg);
            stroke-dashoffset: 500;
        }
        #magnetic-field &gt; path:nth-of-type(3) {
            transform: rotate3d(0, 1, 0, -90deg);
            stroke-dashoffset: 50;
        }
        #magnetic-field &gt; path:nth-of-type(4) {
            transform: rotate3d(0, 1, 0, 45deg);
            stroke-dashoffset: 750;
        }
        #magnetic-field &gt; path:nth-of-type(5) {
            transform: rotate3d(0, 1, 0, -45deg);
            stroke-dashoffset: 200;
        }
        #magnetic-field &gt; path:nth-of-type(6) {
            transform: rotate3d(0, 1, 0, 135deg);
            stroke-dashoffset: 69;
        }
        #magnetic-field &gt; path:nth-of-type(7) {
            transform: rotate3d(0, 1, 0, -135deg);
        }


        #magnetic-field2 &gt; path:nth-of-type(1) {
            transform: rotate3d(0, 1, 0, 0deg);
        }
        #magnetic-field2 &gt; path:nth-of-type(2) {
            transform: rotate3d(0, 1, 0, 90deg);
        }
        #magnetic-field2 &gt; path:nth-of-type(3) {
            transform: rotate3d(0, 1, 0, 90deg);
        }
        #magnetic-field2 &gt; path:nth-of-type(4) {
            transform: rotate3d(0, 1, 0, 45deg);
        }
        #magnetic-field2 &gt; path:nth-of-type(5) {
            transform: rotate3d(0, 1, 0, -45deg);
        }
        #magnetic-field2 &gt; path:nth-of-type(6) {
            transform: rotate3d(0, 1, 0, 135deg);
        }
        #magnetic-field2 &gt; path:nth-of-type(7) {
            transform: rotate3d(0, 1, 0, -135deg);
        }

        #quantum-field {
            animation: 20s rotateOuter linear reverse infinite;
            transform-origin: center;
            transform-box: border-box;
            transform-style: preserve-3d;
            
        }

        #quantum-field &gt; path {
            <!-- filter: drop-shadow(0px 0px 4px magenta); -->
            fill: none;
            stroke: magenta;
            stroke-width: .5em;
            stroke-dashoffset: 0;
            stroke-dasharray: 2em 2em, 0 0;
            transform-origin: center;
            transform-box: border-box;
            opacity: .5;
            animation: 5s field2 linear infinite;
            
        }
        @keyframes field2 {
            100% {
                stroke-dashoffset: 100;
            }
        }

        #quantum-field &gt; path:nth-of-type(1) {
            transform: rotate3d(0, 1, 0, 0deg);
        }
        #quantum-field &gt; path:nth-of-type(2) {
            transform: rotate3d(0, 1, 0, 180deg);
        }
        #quantum-field &gt; path:nth-of-type(3) {
            transform: rotate3d(0, 1, 0, 20deg);
        }
        #quantum-field &gt; path:nth-of-type(4) {
            transform: rotate3d(0, 1, 0, -20deg);
        }
        #quantum-field &gt; path:nth-of-type(5) {
            transform: rotate3d(0, 1, 0, 40deg);
        }
        #quantum-field &gt; path:nth-of-type(6) {
            transform: rotate3d(0, 1, 0, -40deg);
        }
        #quantum-field &gt; path:nth-of-type(7) {
            transform: rotate3d(0, 1, 0, 60deg);
        }
        #quantum-field &gt; path:nth-of-type(8) {
            transform: rotate3d(0, 1, 0, -60deg);
        }
        #quantum-field &gt; path:nth-of-type(9) {
            transform: rotate3d(0, 1, 0, 80deg);
        }
        #quantum-field &gt; path:nth-of-type(10) {
            transform: rotate3d(0, 1, 0, -80deg);
        }
        #quantum-field &gt; path:nth-of-type(11) {
            transform: rotate3d(0, 1, 0, 100deg);
        }
        #quantum-field &gt; path:nth-of-type(12) {
            transform: rotate3d(0, 1, 0, -100deg);
        }
        #quantum-field &gt; path:nth-of-type(13) {
            transform: rotate3d(0, 1, 0, 120deg);
        }
        #quantum-field &gt; path:nth-of-type(14) {
            transform: rotate3d(0, 1, 0, -120deg);
        }
        #quantum-field &gt; path:nth-of-type(15) {
            transform: rotate3d(0, 1, 0, 140deg);
        }
        #quantum-field &gt; path:nth-of-type(16) {
            transform: rotate3d(0, 1, 0, -140deg);
        }
        #quantum-field &gt; path:nth-of-type(17) {
            transform: rotate3d(0, 1, 0, 160deg);
        }
        #quantum-field &gt; path:nth-of-type(18) {
            transform: rotate3d(0, 1, 0, -160deg);
        }

       
    </style>
    <g id="Artboard11" serif:id="Artboard1">
                <g id="h2h">
            <ellipse cx="500" cy="500" rx="122.621" ry="60.019" style="fill:url(#_Linear1);stroke:url(#_Linear2);stroke-width:3.13px;"/>
            <path d="M457.68,485.322c5.228,-9.256 15.684,-9.256 20.912,-4.628c5.228,4.628 5.228,13.884 0,23.14c-3.659,6.942 -13.07,13.884 -20.912,18.512c-7.842,-4.628 -17.252,-11.57 -20.912,-18.512c-5.228,-9.256 -5.228,-18.512 0,-23.14c5.228,-4.628 15.684,-4.628 20.912,4.628Z" style="fill:#ff009e;"/>
            <path d="M544.959,485.322c5.228,-9.256 15.684,-9.256 20.912,-4.628c5.228,4.628 5.228,13.884 -0,23.14c-3.66,6.942 -13.07,13.884 -20.912,18.512c-7.842,-4.628 -17.252,-11.57 -20.912,-18.512c-5.228,-9.256 -5.228,-18.512 -0,-23.14c5.228,-4.628 15.684,-4.628 20.912,4.628Z" style="fill:#ff009e;"/>
            <path d="M493.679,504.283c0.186,-1.513 0.787,-2.863 1.806,-4.052c1.018,-1.188 2.222,-2.029 3.611,-2.523c0.772,-0.278 1.574,-0.416 2.408,-0.416c0.03,-0 0.046,-0.008 0.046,-0.024c-0,-0.015 0.015,-0.023 0.046,-0.023l0,0.047l1.389,-0c0.679,-0.031 1.273,-0.278 1.783,-0.741c0.509,-0.463 0.81,-1.034 0.902,-1.713l0.787,-6.389c0.062,-0.679 -0.108,-1.25 -0.509,-1.713c-0.401,-0.463 -0.941,-0.695 -1.62,-0.695l-11.555,0l0.556,-4.583l11.554,-0c0.865,-0 1.652,0.139 2.362,0.417c1.296,0.493 2.299,1.334 3.009,2.523c0.71,1.188 0.972,2.538 0.787,4.051l-0.787,6.389l-0.046,0.417c-0.155,0.895 -0.471,1.743 -0.95,2.546c-0.478,0.802 -1.057,1.497 -1.736,2.083c-0.679,0.587 -1.443,1.057 -2.291,1.412c-0.849,0.355 -1.737,0.548 -2.663,0.579l-1.62,0c-0.648,0 -1.235,0.239 -1.759,0.718c-0.525,0.478 -0.818,1.041 -0.88,1.69l-0.88,7.268c-0.092,0.648 0.062,1.204 0.463,1.667c0.402,0.463 0.926,0.71 1.575,0.741l14.821,-0l-0.602,4.583l-14.914,0c-0.401,0 -0.779,-0.038 -1.134,-0.116c-0.355,-0.077 -0.702,-0.177 -1.042,-0.301c-1.235,-0.493 -2.207,-1.288 -2.917,-2.384c-0.71,-1.096 -1.018,-2.369 -0.926,-3.819l0.047,-0.417l0.416,-3.195l0.093,-0.833l0.37,-3.194Z" style="fill:#cecece;fill-rule:nonzero;"/>
        </g>
        <g id="quantum-field">
            <path d="M500.068,403.94c132,-191.865 333.385,95.513 0,292.961"/>
            <path d="M500.068,403.94c129.315,-217.738 354.198,112.761 0,292.961"/>
            <path d="M500.068,403.94c132,-191.865 333.385,95.513 0,292.961"/>
            <path d="M500.068,403.94c129.315,-217.738 354.198,112.761 0,292.961"/>
            <path d="M500.068,403.94c132,-191.865 333.385,95.513 0,292.961"/>
            <path d="M500.068,403.94c129.315,-217.738 354.198,112.761 0,292.961"/>
            <path d="M500.068,403.94c132,-191.865 333.385,95.513 0,292.961"/>
            <path d="M500.068,403.94c129.315,-217.738 354.198,112.761 0,292.961"/>
            <path d="M500.068,403.94c132,-191.865 333.385,95.513 0,292.961"/>
            <path d="M500.068,403.94c129.315,-217.738 354.198,112.761 0,292.961"/>
            <path d="M500.068,403.94c132,-191.865 333.385,95.513 0,292.961"/>
            <path d="M500.068,403.94c129.315,-217.738 354.198,112.761 0,292.961"/>
            <path d="M500.068,403.94c132,-191.865 333.385,95.513 0,292.961"/>
            <path d="M500.068,403.94c129.315,-217.738 354.198,112.761 0,292.961"/>
            <path d="M500.068,403.94c132,-191.865 333.385,95.513 0,292.961"/>
            <path d="M500.068,403.94c129.315,-217.738 354.198,112.761 0,292.961"/>
            <path d="M500.068,403.94c132,-191.865 333.385,95.513 0,292.961"/>
            <path d="M500.068,403.94c129.315,-217.738 354.198,112.761 0,292.961"/>
            <!-- <path d="M500.068,403.94c132,-191.865 333.385,95.513 0,292.961"/>
            <path d="M500.068,403.94c129.315,-217.738 354.198,112.761 0,292.961"/> -->
        </g>
        <g id="magnetic-field">
            <path d="M499.932,403.94c-0,-303.43 399.198,-425.74 403.598,89.686c4.25,497.955 -403.411,417.667 -403.411,206.012"/>
            <path d="M499.563,403.94c-0,-303.43 -399.199,-425.74 -403.598,89.686c-4.251,497.955 403.411,417.667 403.411,206.012"/>
            <path d="M499.932,403.94c-0,-303.43 399.198,-425.74 403.598,89.686c4.25,497.955 -403.411,417.667 -403.411,206.012"/>
            <path d="M499.563,403.94c-0,-303.43 -399.199,-425.74 -403.598,89.686c-4.251,497.955 403.411,417.667 403.411,206.012"/>
            <path d="M499.563,403.94c-0,-303.43 -399.199,-425.74 -403.598,89.686c-4.251,497.955 403.411,417.667 403.411,206.012"/>
            <path d="M499.563,403.94c-0,-303.43 -399.199,-425.74 -403.598,89.686c-4.251,497.955 403.411,417.667 403.411,206.012"/>
            <path d="M499.563,403.94c-0,-303.43 -399.199,-425.74 -403.598,89.686c-4.251,497.955 403.411,417.667 403.411,206.012"/>
            <path d="M499.563,403.94c-0,-303.43 -399.199,-425.74 -403.598,89.686c-4.251,497.955 403.411,417.667 403.411,206.012"/>
            <!-- <path d="M499.563,403.94c-0,-303.43 -399.199,-425.74 -403.598,89.686c-4.251,497.955 403.411,417.667 403.411,206.012" />
            <path d="M499.563,403.94c-0,-303.43 -399.199,-425.74 -403.598,89.686c-4.251,497.955 403.411,417.667 403.411,206.012" />
            <path d="M499.563,403.94c-0,-303.43 -399.199,-425.74 -403.598,89.686c-4.251,497.955 403.411,417.667 403.411,206.012" /> -->
        </g>
        <g id="magnetic-field2">
            <path d="M499.932,403.94c-0,-303.43 399.198,-425.74 403.598,89.686c4.25,497.955 -403.411,417.667 -403.411,206.012"/>
            <path d="M499.563,403.94c-0,-303.43 -399.199,-425.74 -403.598,89.686c-4.251,497.955 403.411,417.667 403.411,206.012"/>
            <path d="M499.932,403.94c-0,-303.43 399.198,-425.74 403.598,89.686c4.25,497.955 -403.411,417.667 -403.411,206.012"/>
            <path d="M499.563,403.94c-0,-303.43 -399.199,-425.74 -403.598,89.686c-4.251,497.955 403.411,417.667 403.411,206.012"/>
            <path d="M499.563,403.94c-0,-303.43 -399.199,-425.74 -403.598,89.686c-4.251,497.955 403.411,417.667 403.411,206.012"/>
            <path d="M499.563,403.94c-0,-303.43 -399.199,-425.74 -403.598,89.686c-4.251,497.955 403.411,417.667 403.411,206.012"/>
            <path d="M499.563,403.94c-0,-303.43 -399.199,-425.74 -403.598,89.686c-4.251,497.955 403.411,417.667 403.411,206.012"/>
            <path d="M499.563,403.94c-0,-303.43 -399.199,-425.74 -403.598,89.686c-4.251,497.955 403.411,417.667 403.411,206.012"/>
            <!-- <path d="M499.563,403.94c-0,-303.43 -399.199,-425.74 -403.598,89.686c-4.251,497.955 403.411,417.667 403.411,206.012" />
            <path d="M499.563,403.94c-0,-303.43 -399.199,-425.74 -403.598,89.686c-4.251,497.955 403.411,417.667 403.411,206.012" />
            <path d="M499.563,403.94c-0,-303.43 -399.199,-425.74 -403.598,89.686c-4.251,497.955 403.411,417.667 403.411,206.012" /> -->
        </g>

    </g>
    <defs>
        <linearGradient id="_Linear1" x1="0" y1="0" x2="1" y2="0" gradientUnits="userSpaceOnUse" gradientTransform="matrix(6.00881,59.5998,-29.172,2.9411,481.575,432.898)">
            <stop offset="0" style="stop-color:#fff;stop-opacity:1"/>
            <stop offset="1" style="stop-color:#8b8b8b;stop-opacity:1"/>
        </linearGradient>
        <linearGradient id="_Linear2" x1="0" y1="0" x2="1" y2="0" gradientUnits="userSpaceOnUse" gradientTransform="matrix(245.242,0,0,120.037,377.379,500)">
            <stop offset="0" style="stop-color:#cdcdcd;stop-opacity:1"/>
            <stop offset="1" style="stop-color:#c5c5c5;stop-opacity:1"/>
        </linearGradient>
    </defs>
</svg>
