<?xml version="1.0" encoding="UTF-8" standalone="no"?><!DOCTYPE svg PUBLIC "-//W3C//DTD SVG 1.1//EN" "http://www.w3.org/Graphics/SVG/1.1/DTD/svg11.dtd">
<svg width="100%" height="100%" viewBox="0 0 899 1000" version="1.1"
    xmlns="http://www.w3.org/2000/svg"
    xmlns:xlink="http://www.w3.org/1999/xlink" xml:space="preserve"
    xmlns:serif="http://www.serif.com/" style="fill-rule:evenodd;clip-rule:evenodd;stroke-linecap:round;stroke-linejoin:round;stroke-miterlimit:1.5;">
    <style>
        g.hrt > path {
            visiblity: hidden;
            filter: drop-shadow(0 0 .25em #ff0caa);
            stroke: #f500ff;
            stroke-width: 1.5em;
            fill: none;
        }
        g.hrt > path:nth-of-type(1) {
            animation: 6s glow1 linear infinite;
        }
        g.hrt > path:nth-of-type(2) {
            animation: 6s glow2 linear infinite;
        }
        @keyframes glow1 {
            0% {
                filter: drop-shadow(0 0 2em #ff0caa);
            }
            25% {
                filter: drop-shadow(0 0 2em #ff0caa);
            }
            25.1% {
                filter: drop-shadow(0 0 .25em #ff0caa);
            }
        }        
        @keyframes glow2 {
            0% {
                filter: drop-shadow(0 0 .25em #ff0caa);
            }
            49.9% {
                filter: drop-shadow(0 0 .25em #ff0caa);
            }
            50% {
                filter: drop-shadow(0 0 2em #ff0caa);
            }
            74.9% {
                filter: drop-shadow(0 0 .25em #ff0caa);
            }
        }
        g.to > path:nth-of-type(1) {
            animation: 6s highlight linear  infinite;
            filter: drop-shadow(0 0 .25em #ababab);
        }
        g.to > path:nth-of-type(2) {
            fill:none;stroke:#00ffda;stroke-width:5.84px;stroke-linecap:butt;
        }
        @keyframes highlight {
            0% {
                filter: drop-shadow(0 0 .25em #ababab);
            }
            25.9% {
                filter: drop-shadow(0 0 .25em #ababab);
            }
            26% {
                filter: drop-shadow(0 0 1.5em #00ffb3);
            }
            45% {
                filter: drop-shadow(0 0 1.5em #00ffb3);
            }
            45.1% {
                filter: drop-shadow(0 0 .25em #ababab);
            }
            75.9% {
                filter: drop-shadow(0 0 .25em #ababab);
            }
            76% {
                filter: drop-shadow(0 0 1.5em #00ffb3);
            }
            95% {
                filter: drop-shadow(0 0 1.5em #00ffb3);
            }
            95.1% {
                filter: drop-shadow(0 0 .25em #ababab);
            }
            100% {
                filter: drop-shadow(0 0 .25em #ababab);
            }
        }
        svg>path {
            filter: drop-shadow(0 0 .75em #00ffda);
        }
    </style>
    <defs>
        <marker orient="auto" refY="0" refX="0" id="tri" style="overflow:visible">
            <path d="M 1.5,0 -0.5,1.5 V -1.5 Z" fill="#00ffda" />
        </marker>
    </defs>
    <g class="hrt">
        <path d="M228.979,174.86c29.293,-51.862 87.879,-51.862 117.172,-25.931c29.294,25.931 29.294,77.793 -0,129.655c-20.505,38.897 -73.233,77.793 -117.172,103.724c-43.94,-25.931 -96.667,-64.827 -117.173,-103.724c-29.293,-51.862 -29.293,-103.724 0,-129.655c29.293,-25.931 87.88,-25.931 117.173,25.931Z" />
        <path d="M677.729,708.346c29.293,-51.862 87.879,-51.862 117.172,-25.931c29.294,25.931 29.294,77.793 0,129.655c-20.505,38.897 -73.233,77.793 -117.172,103.724c-43.94,-25.931 -96.667,-64.827 -117.173,-103.724c-29.293,-51.862 -29.293,-103.724 0,-129.655c29.294,-25.931 87.88,-25.931 117.173,25.931Z" />
    </g>
    <g>

    </g>
    <g class="to">
        <path id="ani" d="M403.36,397.931c-0,0 58.063,-0.226 58.566,-0.237c15.174,-0.341 21.806,9.652 21.242,20.67l-5.311,47.943c-1.61,7.73 -10.264,18.42 -22.661,18.42l-18.923,1.9c-10.051,0.228 -20.752,4.737 -22.873,18.987l-8.085,52.903c-1.237,10.772 0.986,22.068 15.182,22.068l83.321,0" style="fill:none;stroke:#e5e5e5;stroke-width:39.29px;stroke-linecap:square;stroke-linejoin:miter;stroke-miterlimit:2;"/>
        <path id="ani1" serif:id="ani" d="M403.058,397.931c0,0 58.365,-0.226 58.868,-0.237c15.174,-0.341 21.806,9.652 21.242,20.67l-5.311,47.943c-1.61,7.73 -10.264,18.42 -22.661,18.42l-18.923,1.9c-10.051,0.228 -20.752,4.737 -22.873,18.987l-8.085,52.903c-1.237,10.772 0.986,22.068 15.182,22.068l83.555,0" />
    </g>

    <path d="M516.838,870.517l-140.437,0" marker-end="url(#tri)" style="fill:none;stroke:#00ffda;stroke-width:56.02px;stroke-miterlimit:1;">
        <animate 
            attributeType="XML"
            attributeName="d"
            dur="2s"
            fill="freeze"
            repeatCount="indefinite"
            values="
                M501.727,870.517l-125.326,0c-45.764,0 -95.756,5.699 -133.129,-44.755c-13.39,-18.077 -12.867,-59.204 -12.867,-110.918l0,-168.42" />
        <!-- <animate attributeType="XML" attributeName="d" dur="3s" from="M480.872,878.089c-0,-0 5.261,-0 -0.928,-0" to="M480.872,878.089l-140.928,-0c-54.519,-0 -116.986,-41.771 -116.986,-139.03l0,-158.173" /> -->
    </path>



    <path d="M455.966,170.886l169.706,-0c14.64,-0 28.68,5.815 39.032,16.167c10.352,10.352 16.168,24.393 16.168,39.033c-0,85.948 -0,242.003 -0,242.003" marker-end="url(#tri)" style="fill:none;stroke:#00ffda;stroke-width:56.02px;"/>

</svg>

