<?xml version="1.0" encoding="UTF-8" standalone="no"?><!DOCTYPE svg PUBLIC "-//W3C//DTD SVG 1.1//EN" "http://www.w3.org/Graphics/SVG/1.1/DTD/svg11.dtd">
<svg width="100%" height="100%" viewBox="0 0 1000 284" version="1.1"
    xmlns="http://www.w3.org/2000/svg"
    xmlns:xlink="http://www.w3.org/1999/xlink" xml:space="preserve"
    xmlns:serif="http://www.serif.com/" style="fill-rule:evenodd;clip-rule:evenodd;stroke-linecap:round;stroke-linejoin:round;stroke-miterlimit:1.5;">
    <g>
        <circle cx="169.367" cy="132.953" r="95.541" style="fill:none;stroke:#fff;stroke-width:2.19px;"/>
        <ellipse cx="169.367" cy="132.953" rx="100.528" ry="101.139" style="fill:none;stroke:#fff;stroke-width:2.25px;"/>
        <circle cx="132.285" cy="63.512" r="5.247" style="fill:#fff;stroke:#fff;stroke-width:0.35px;"/>
        <circle cx="132.285" cy="97.445" r="5.247" style="fill:#fff;stroke:#fff;stroke-width:0.35px;"/>
        <circle cx="132.285" cy="167.24" r="5.247" style="fill:#fff;stroke:#fff;stroke-width:0.35px;"/>
        <circle cx="216.244" cy="167.24" r="5.247" style="fill:#fff;stroke:#fff;stroke-width:0.35px;"/>
        <circle cx="216.244" cy="97.445" r="5.247" style="fill:#fff;stroke:#fff;stroke-width:0.35px;"/>
        <circle cx="132.285" cy="202.394" r="5.247" style="fill:#fff;stroke:#fff;stroke-width:0.35px;"/>
        <path d="M132.339,63.583l83.674,33.556" style="fill:none;stroke:#fff;stroke-width:2.52px;"/>
        <path d="M132.149,168.005l0.136,34.153" style="fill:none;stroke:#fff;stroke-width:2.52px;"/>
        <path d="M132.285,100.647l-0,63.958" style="fill:none;stroke:#fff;stroke-width:2.52px;"/>
        <path d="M216.227,167.574l-83.915,0" style="fill:none;stroke:#fff;stroke-width:2.52px;"/>
        <path d="M132.285,65.221l-0,29.419" style="fill:none;stroke:#fff;stroke-width:2.52px;"/>
        <path d="M216.244,100.647l-0,63.958" style="fill:none;stroke:#fff;stroke-width:2.52px;"/>
        <path d="M216.51,97.872l-83.88,69.701" style="fill:none;stroke:#fff;stroke-width:2.52px;"/>
        <path d="M132.63,98.143l83.609,69.43" style="fill:none;stroke:#fff;stroke-width:2.52px;"/>
        <g>
            <path d="M133.192,105.013l75.489,62.686" style="fill:none;"/>
            <path d="M140.189,98.016l75.489,62.686" style="fill:none;"/>
            <path d="M215.678,105.013l-75.489,62.686" style="fill:none;"/>
            <path d="M208.681,98.016l-75.489,62.686" style="fill:none;"/>
            <path id="bbbp" d="M139.143,205.229l75.42,-30.976" style="fill:none;"/>
            <path id="bbtp" d="M136.827,194.911l54.34,-22.318" style="fill:none;"/>
            <path id="tlrp" d="M136.483,92.428l-0,-23.102" style="fill:none;"/>
            <path id="tbtp" d="M194.465,93.284l-56.931,0" style="fill:none;"/>
            <path id="tttp" d="M139.143,60.527l75.42,30.976" style="fill:none;"/>
            <path id="ttbp" d="M136.827,70.845l54.34,22.318" style="fill:none;"/>
            <path d="M127.737,174.267l0,22.02" style="fill:none;"/>
            <path d="M136.483,173.327l-0,23.103" style="fill:none;"/>
            <path d="M127.737,103.492l0,57.812" style="fill:none;"/>
            <path d="M136.483,100.647l-0,63.958" style="fill:none;"/>
            <path d="M220.603,102.17l-0,60.219" style="fill:none;"/>
            <path d="M211.857,99.123l-0,64.236" style="fill:none;"/>
            <path d="M210.484,102.541l-72.397,-0" style="fill:none;"/>
            <path d="M194.465,172.472l-56.931,-0" style="fill:none;"/>
            <path d="M209.978,162.415l-71.566,0.068" style="fill:none;"/>
            <path d="M127.737,69.319l0,21.792" style="fill:none;"/>
        </g>
        <path id="bbp" d="M132.545,202.342l83.59,-34.332" style="fill:none;stroke:#fff;stroke-width:2.52px;"/>
        <path id="tbp" d="M216.227,97.643l-83.915,0" style="fill:none;stroke:#fff;stroke-width:2.52px;"/>
    </g>
    <g>
        <path d="M431.847,117.335c-0.593,2.729 -1.097,5.219 -1.513,7.473c-0.415,2.254 -0.86,4.448 -1.334,6.583c-0.474,2.135 -0.979,4.359 -1.512,6.672c-0.534,2.313 -1.097,4.774 -1.691,7.384c-3.439,15.182 -10.111,26.865 -20.015,35.05c-9.905,8.184 -22.982,12.276 -39.232,12.276l-42.522,0c-1.305,0 -2.343,-0.474 -3.114,-1.423c-0.771,-0.949 -1.038,-2.076 -0.801,-3.381l24.553,-114.935c0.238,-1.305 0.92,-2.432 2.046,-3.381c1.127,-0.949 2.343,-1.423 3.648,-1.423l40.209,-0c7.236,-0 13.73,1.156 19.483,3.469c5.752,2.313 10.497,5.605 14.233,9.875c3.736,4.27 6.287,9.429 7.651,15.479c1.364,6.049 1.334,12.81 -0.089,20.282Zm-16.903,0c0.831,-4.27 1.127,-8.391 0.89,-12.365c-0.237,-3.973 -1.275,-7.502 -3.114,-10.586c-1.838,-3.084 -4.685,-5.545 -8.54,-7.384c-3.855,-1.838 -8.985,-2.757 -15.39,-2.757l-29.712,-0l-19.571,92.517l27.043,0c6.761,0 12.603,-0.919 17.525,-2.757c4.923,-1.839 9.074,-4.3 12.455,-7.384c3.38,-3.084 6.108,-6.613 8.184,-10.586c2.076,-3.974 3.588,-8.095 4.537,-12.365c0.593,-2.61 1.127,-4.953 1.601,-7.028c0.475,-2.076 0.92,-4.092 1.335,-6.05c0.415,-1.957 0.83,-3.973 1.245,-6.049c0.415,-2.076 0.919,-4.477 1.512,-7.206Z" style="fill:#fff;fill-rule:nonzero;"/>
        <path d="M446.97,137.618c1.66,-5.456 4.003,-10.556 7.028,-15.301c3.024,-4.744 6.612,-8.896 10.764,-12.454c4.151,-3.559 8.807,-6.346 13.966,-8.362c5.16,-2.017 10.705,-3.025 16.636,-3.025c5.931,0 11.209,1.097 15.835,3.292c4.626,2.194 8.421,5.307 11.387,9.34c2.965,4.033 4.981,8.807 6.049,14.323c1.067,5.515 1.008,11.535 -0.178,18.059l-0.89,4.803c-0.356,1.305 -1.097,2.432 -2.224,3.381c-1.127,0.949 -2.342,1.423 -3.647,1.423l-61.916,0c-1.067,8.185 0.089,14.59 3.469,19.215c3.381,4.626 8.155,6.939 14.323,6.939c6.524,0 11.535,-0.919 15.034,-2.757c3.499,-1.839 6.494,-3.885 8.985,-6.139c1.068,-0.949 2.016,-1.601 2.847,-1.957c0.83,-0.356 1.957,-0.533 3.38,-0.533l8.007,-0c1.304,-0 2.342,0.474 3.113,1.423c0.771,0.949 0.86,2.076 0.267,3.38c-0.949,1.78 -2.461,3.944 -4.537,6.494c-2.076,2.551 -4.804,4.952 -8.184,7.206c-3.381,2.254 -7.443,4.181 -12.188,5.782c-4.744,1.602 -10.26,2.402 -16.546,2.402c-5.931,0 -11.15,-1.037 -15.657,-3.113c-4.507,-2.076 -8.273,-4.923 -11.298,-8.54c-3.024,-3.618 -5.16,-7.888 -6.405,-12.81c-1.245,-4.923 -1.512,-10.29 -0.801,-16.102c0.238,-2.728 0.653,-5.456 1.246,-8.184c0.593,-2.729 1.305,-5.457 2.135,-8.185Zm66.542,0.534c1.304,-7.117 0.207,-12.958 -3.292,-17.525c-3.499,-4.567 -8.748,-6.85 -15.746,-6.85c-3.439,0 -6.731,0.593 -9.874,1.779c-3.143,1.186 -6.079,2.847 -8.807,4.982c-2.728,2.135 -5.16,4.715 -7.295,7.74c-2.135,3.024 -3.855,6.316 -5.16,9.874l50.174,0Z" style="fill:#fff;fill-rule:nonzero;"/>
        <path d="M569.378,115.556c-1.304,5.338 -2.461,10.32 -3.469,14.945c-1.008,4.626 -1.987,9.608 -2.936,14.946c-0.949,4.981 -1.008,9.489 -0.178,13.522c0.831,4.032 2.343,7.502 4.537,10.408c2.195,2.906 5.012,5.159 8.451,6.761c3.44,1.601 7.354,2.402 11.743,2.402c5.693,-0 10.705,-0.712 15.034,-2.135c4.33,-1.424 8.096,-3.262 11.298,-5.516c3.203,-2.254 5.871,-4.833 8.006,-7.739c2.135,-2.906 3.855,-5.842 5.16,-8.807c0.593,-1.305 1.423,-2.284 2.491,-2.936c1.067,-0.652 2.076,-0.979 3.025,-0.979l8.54,0c1.067,0 1.897,0.386 2.491,1.157c0.593,0.771 0.771,1.69 0.533,2.758c-0.949,3.914 -2.757,8.184 -5.426,12.81c-2.669,4.626 -6.316,8.985 -10.942,13.077c-4.626,4.092 -10.26,7.502 -16.903,10.23c-6.642,2.728 -14.411,4.092 -23.307,4.092c-7.235,0 -13.7,-1.215 -19.393,-3.647c-5.694,-2.432 -10.408,-5.782 -14.145,-10.052c-3.736,-4.27 -6.346,-9.341 -7.828,-15.212c-1.483,-5.872 -1.572,-12.307 -0.267,-19.305c0.949,-5.337 1.987,-10.616 3.114,-15.835c1.126,-5.218 2.342,-10.497 3.647,-15.834c1.66,-6.88 4.24,-13.285 7.739,-19.216c3.499,-5.93 7.769,-11.031 12.811,-15.301c5.041,-4.27 10.764,-7.621 17.169,-10.052c6.405,-2.432 13.462,-3.647 21.172,-3.647c8.896,-0 16.22,1.364 21.973,4.092c5.753,2.728 10.23,6.138 13.433,10.23c3.203,4.092 5.338,8.451 6.405,13.077c1.068,4.626 1.364,8.896 0.89,12.81c-0.238,1.068 -0.801,1.987 -1.691,2.758c-0.889,0.771 -1.868,1.157 -2.935,1.157l-8.362,-0c-0.949,-0 -1.839,-0.327 -2.669,-0.979c-0.83,-0.652 -1.246,-1.631 -1.246,-2.936c0,-2.965 -0.296,-5.901 -0.889,-8.807c-0.593,-2.906 -1.779,-5.486 -3.559,-7.739c-1.779,-2.254 -4.359,-4.092 -7.739,-5.516c-3.381,-1.423 -7.917,-2.135 -13.611,-2.135c-11.505,0 -20.816,3.025 -27.933,9.074c-7.117,6.049 -11.861,14.056 -14.234,24.019Z" style="fill:#fff;fill-rule:nonzero;"/>
        <path d="M664.387,137.618c1.661,-5.456 4.003,-10.556 7.028,-15.301c3.025,-4.744 6.613,-8.896 10.764,-12.454c4.151,-3.559 8.807,-6.346 13.967,-8.362c5.159,-2.017 10.704,-3.025 16.635,-3.025c5.931,0 11.209,1.097 15.835,3.292c4.626,2.194 8.421,5.307 11.387,9.34c2.965,4.033 4.981,8.807 6.049,14.323c1.068,5.515 1.008,11.535 -0.178,18.059l-0.89,4.803c-0.355,1.305 -1.097,2.432 -2.224,3.381c-1.126,0.949 -2.342,1.423 -3.647,1.423l-61.916,0c-1.067,8.185 0.089,14.59 3.47,19.215c3.38,4.626 8.154,6.939 14.322,6.939c6.524,0 11.535,-0.919 15.034,-2.757c3.499,-1.839 6.494,-3.885 8.985,-6.139c1.068,-0.949 2.017,-1.601 2.847,-1.957c0.83,-0.356 1.957,-0.533 3.38,-0.533l8.007,-0c1.305,-0 2.342,0.474 3.113,1.423c0.771,0.949 0.86,2.076 0.267,3.38c-0.949,1.78 -2.461,3.944 -4.537,6.494c-2.075,2.551 -4.803,4.952 -8.184,7.206c-3.38,2.254 -7.443,4.181 -12.187,5.782c-4.745,1.602 -10.26,2.402 -16.547,2.402c-5.931,0 -11.149,-1.037 -15.657,-3.113c-4.507,-2.076 -8.273,-4.923 -11.298,-8.54c-3.024,-3.618 -5.159,-7.888 -6.405,-12.81c-1.245,-4.923 -1.512,-10.29 -0.8,-16.102c0.237,-2.728 0.652,-5.456 1.245,-8.184c0.593,-2.729 1.305,-5.457 2.135,-8.185Zm66.542,0.534c1.305,-7.117 0.207,-12.958 -3.292,-17.525c-3.499,-4.567 -8.747,-6.85 -15.745,-6.85c-3.44,0 -6.732,0.593 -9.875,1.779c-3.143,1.186 -6.079,2.847 -8.807,4.982c-2.728,2.135 -5.16,4.715 -7.295,7.74c-2.135,3.024 -3.855,6.316 -5.159,9.874l50.173,0Z" style="fill:#fff;fill-rule:nonzero;"/>
        <path d="M839.46,187.969c-0.238,1.305 -0.92,2.432 -2.047,3.381c-1.126,0.949 -2.342,1.423 -3.647,1.423l-6.583,0c-1.305,0 -2.342,-0.474 -3.113,-1.423c-0.771,-0.949 -1.038,-2.076 -0.801,-3.381l9.963,-46.97c3.915,-18.148 -1.838,-27.222 -17.258,-27.222c-8.421,0 -15.449,2.254 -21.083,6.761c-5.634,4.507 -9.46,11.328 -11.476,20.461l-9.963,46.97c-0.238,1.305 -0.92,2.432 -2.047,3.381c-1.126,0.949 -2.342,1.423 -3.647,1.423l-6.583,0c-1.305,0 -2.342,-0.474 -3.113,-1.423c-0.771,-0.949 -1.038,-2.076 -0.801,-3.381l17.614,-82.91c0.237,-1.305 0.949,-2.432 2.135,-3.38c1.186,-0.949 2.432,-1.424 3.736,-1.424l6.583,0c1.305,0 2.313,0.475 3.025,1.424c0.712,0.948 0.949,2.075 0.712,3.38l-1.068,5.516c1.423,-1.424 2.995,-2.877 4.715,-4.359c1.72,-1.483 3.707,-2.788 5.96,-3.915c2.254,-1.127 4.804,-2.046 7.651,-2.757c2.846,-0.712 6.049,-1.068 9.607,-1.068c6.05,0 11.358,0.919 15.924,2.758c4.567,1.838 8.273,4.448 11.12,7.828c2.847,3.381 4.745,7.562 5.693,12.544c0.949,4.981 0.771,10.556 -0.533,16.724l-10.675,49.639Z" style="fill:#fff;fill-rule:nonzero;"/>
        <path d="M892.479,161.637c-1.304,6.287 -1.126,10.498 0.534,12.633c1.661,2.135 4.745,3.202 9.252,3.202l11.209,0c1.305,0 2.313,0.475 3.025,1.424c0.711,0.948 0.948,2.075 0.711,3.38l-1.245,5.693c-0.237,1.305 -0.919,2.432 -2.046,3.381c-1.127,0.949 -2.343,1.423 -3.648,1.423l-9.785,0c-4.626,0 -8.718,-0.593 -12.277,-1.779c-3.558,-1.186 -6.405,-3.054 -8.54,-5.604c-2.135,-2.551 -3.528,-5.783 -4.181,-9.697c-0.652,-3.914 -0.385,-8.599 0.801,-14.056l9.785,-46.081l-13.166,0c-1.304,0 -2.342,-0.474 -3.113,-1.423c-0.771,-0.949 -1.038,-2.076 -0.801,-3.381l1.246,-5.693c0.237,-1.305 0.948,-2.432 2.135,-3.38c1.186,-0.949 2.431,-1.424 3.736,-1.424l13.344,0l6.049,-29.001c0.237,-1.304 0.919,-2.431 2.046,-3.38c1.127,-0.949 2.343,-1.423 3.648,-1.423l6.583,-0c1.304,-0 2.342,0.474 3.113,1.423c0.771,0.949 1.038,2.076 0.801,3.38l-6.049,29.001l22.417,0c1.305,0 2.313,0.475 3.025,1.424c0.712,0.948 0.949,2.075 0.712,3.38l-1.246,5.693c-0.237,1.305 -0.919,2.432 -2.046,3.381c-1.127,0.949 -2.342,1.423 -3.647,1.423l-22.596,0l-9.786,46.081Z" style="fill:#fff;fill-rule:nonzero;"/>
    </g>
</svg>
