<?xml version="1.0" encoding="UTF-8" standalone="no"?><!DOCTYPE svg PUBLIC "-//W3C//DTD SVG 1.1//EN" "http://www.w3.org/Graphics/SVG/1.1/DTD/svg11.dtd">
<svg width="100%" height="100%" viewBox="0 0 1000 240" version="1.1"
    xmlns="http://www.w3.org/2000/svg"
    xmlns:xlink="http://www.w3.org/1999/xlink" xml:space="preserve"
    xmlns:serif="http://www.serif.com/" style="fill-rule:evenodd;clip-rule:evenodd;stroke-linejoin:round;stroke-miterlimit:2;">
    <defs>
        <linearGradient id="linear-gradient" x1="-100%" y1="0" x2="200%" y2="0" >
            <stop offset="0" stop-color="#6666ff">
               <animate attributeName="offset" values="-.5;0-.25;0;1" dur="10s" repeatCount="indefinite"  /> 
            </stop>
            <stop offset="0" stop-color="#6666ff">
               <animate attributeName="offset" values="0;0.1;0.2" dur="10s" repeatCount="indefinite"  /> 
            </stop>
            <stop offset="0.1" stop-color="#0099ff">
                <animate attributeName="offset" values="0.2;0.3;0.4;" dur="10s" repeatCount="indefinite"  /> 
            </stop>
            <stop offset="0.2" stop-color="#8cff00">
                <animate attributeName="offset" values="0.3;0.4;0.5;" dur="10s" repeatCount="indefinite"  /> 
            </stop>
            <stop offset="0.3" stop-color="#eeff00">
                <animate attributeName="offset" values="0.4;0.5;0.6;" dur="10s" repeatCount="indefinite"  /> 
            </stop>  
            <stop offset="0.4" stop-color="#ff3399">
                <animate attributeName="offset" values="0.5;0.6;0.7;" dur="10s" repeatCount="indefinite"  /> 
            </stop>
            <stop offset="0.5" stop-color="#ff9046">
                <animate attributeName="offset" values="0.6;0.7;0.8;" dur="10s" repeatCount="indefinite"  /> 
            </stop>
            <stop offset="0.6" stop-color="#ff0055">
                <animate attributeName="offset" values="0.7;0.8;0.9;" dur="10s" repeatCount="indefinite"  /> 
            </stop> 
                <stop offset="0.7" stop-color="#ff009d">
                <animate attributeName="offset" values="0.8;0.9;1;" dur="10s" repeatCount="indefinite"  /> 
            </stop>
            <stop offset="0.8" stop-color="#ae2dc2">
                <animate attributeName="offset" values="0.9;1;1.1;" dur="10s" repeatCount="indefinite"  /> 
            </stop>
            <stop offset="0.9" stop-color="#6666ff">
                <animate attributeName="offset" values="1;1.1;1.2;" dur="10s" repeatCount="indefinite"  /> 
            </stop>
            <stop offset="1" stop-color="#8966ff">
                <animate attributeName="offset" values="1.1;1.2;1.3;" dur="10s" repeatCount="indefinite"  /> 
            </stop> 
        </linearGradient>
    </defs>
    <style>
        g:first-of-type {
            filter: drop-shadow( 3px 3px 2px rgba(0, 0, 0, .7));
        }
        g:first-of-type path {
            fill: #fff;
            stroke: #fff;
            stroke-width: 2em;
            
        }
        g:nth-of-type(2) {
            filter: drop-shadow( 3px 3px 2px rgba(0, 0, 0, .7));
        }
        g#bg > rect {
            background: linear-gradient(to right, #6666ff, #0099ff ,#8cff00, #eeff00, #ff3399, #ff9046, #ff0055, #ff009d, #ae2dc2, #6666ff, #09a1ff, #00ff6e, #d9ff01, #ffb406, #ffb406);
            -webkit-background-clip: text;
            color: transparent;
            animation: rainbow_animation 12s ease-in-out infinite alternate-reverse;
            background-size: 200% 100%;
        }
        @keyframes rainbow_animation {
            0% {
                background-position: 0 0;
            }

            100% {
                background-position: 100% 0;
            }
        }
        g#bg {
            fill: linear-gradient(to right, #6666ff, #0099ff ,#8cff00, #eeff00, #ff3399, #ff9046, #ff0055, #ff009d, #ae2dc2, #6666ff, #09a1ff, #00ff6e, #d9ff01, #ffb406, #ffb406);
        }
        #_clip1 > path {
        }
    </style>
    <clipPath id="_clip1">
        <path id="mask-bg" d="M114.374,153.066c3.422,-0 6.523,0.443 9.304,1.329c2.78,0.886 5.087,2.2 6.921,3.942c1.833,1.741 3.101,3.88 3.804,6.416c0.703,2.537 0.687,5.485 -0.046,8.846c-0.733,3.361 -1.757,6.325 -3.071,8.892c-1.314,2.567 -3.055,4.721 -5.225,6.462c-2.169,1.742 -4.782,3.071 -7.837,3.988c-3.056,0.917 -6.631,1.375 -10.725,1.375l-15.584,-0l-4.4,20.442c-0.122,0.672 -0.473,1.252 -1.054,1.741c-0.58,0.489 -1.207,0.734 -1.879,0.734l-7.425,-0c-0.672,-0 -1.207,-0.245 -1.604,-0.734c-0.397,-0.489 -0.535,-1.069 -0.413,-1.741l12.65,-59.217c0.122,-0.672 0.474,-1.253 1.054,-1.742c0.581,-0.489 1.207,-0.733 1.88,-0.733l23.65,-0Zm-20.075,29.792l14.208,-0c3.483,-0 6.417,-0.673 8.8,-2.017c2.383,-1.344 3.942,-3.758 4.675,-7.242c0.733,-3.422 0.199,-5.79 -1.604,-7.104c-1.803,-1.314 -4.446,-1.971 -7.929,-1.971l-14.209,0l-3.941,18.334Zm48.95,-10.817c0.122,-0.672 0.488,-1.253 1.1,-1.742c0.611,-0.489 1.252,-0.733 1.925,-0.733l6.966,-0c0.672,-0 1.192,0.244 1.559,0.733c0.366,0.489 0.488,1.07 0.366,1.742l-4.95,23.283c-0.794,3.667 -0.641,6.6 0.459,8.8c1.1,2.2 3.422,3.3 6.966,3.3c3.239,0 5.943,-1.1 8.113,-3.3c2.169,-2.2 3.651,-5.133 4.446,-8.8l4.95,-23.283c0.122,-0.672 0.488,-1.253 1.1,-1.742c0.611,-0.489 1.252,-0.733 1.925,-0.733l6.966,-0c0.672,-0 1.192,0.244 1.559,0.733c0.366,0.489 0.488,1.07 0.366,1.742l-9.075,42.717c-0.122,0.672 -0.473,1.252 -1.054,1.741c-0.58,0.489 -1.207,0.734 -1.879,0.734l-6.967,-0c-0.672,-0 -1.207,-0.245 -1.604,-0.734c-0.397,-0.489 -0.535,-1.069 -0.412,-1.741l0.458,-2.109c-1.406,1.711 -3.071,3.056 -4.996,4.034c-1.925,0.977 -4.599,1.466 -8.021,1.466c-3.239,0 -5.989,-0.58 -8.25,-1.741c-2.261,-1.161 -4.018,-2.72 -5.271,-4.675c-1.252,-1.956 -2.047,-4.232 -2.383,-6.83c-0.336,-2.597 -0.199,-5.331 0.413,-8.204l5.225,-24.658Zm77,8.525c-3.667,-0 -6.478,0.81 -8.434,2.429c-1.955,1.62 -3.33,4.263 -4.125,7.929l-5.133,23.834c-0.122,0.672 -0.474,1.252 -1.054,1.741c-0.581,0.489 -1.207,0.734 -1.879,0.734l-6.967,-0c-0.672,-0 -1.207,-0.245 -1.604,-0.734c-0.397,-0.489 -0.535,-1.069 -0.413,-1.741l9.075,-42.717c0.122,-0.672 0.489,-1.253 1.1,-1.742c0.611,-0.489 1.253,-0.733 1.925,-0.733l6.967,-0c0.672,-0 1.192,0.244 1.558,0.733c0.367,0.489 0.489,1.07 0.367,1.742l-0.458,2.108c0.733,-0.794 1.466,-1.482 2.2,-2.062c0.733,-0.581 1.543,-1.054 2.429,-1.421c0.886,-0.367 1.864,-0.642 2.933,-0.825c1.07,-0.183 2.338,-0.275 3.804,-0.275l5.959,-0c0.672,-0 1.191,0.244 1.558,0.733c0.367,0.489 0.489,1.07 0.367,1.742l-1.284,6.05c-0.122,0.672 -0.473,1.253 -1.054,1.742c-0.58,0.489 -1.207,0.733 -1.879,0.733l-5.958,-0Zm10.358,12.467c0.733,-3.423 1.803,-6.616 3.208,-9.58c1.406,-2.963 3.193,-5.545 5.363,-7.745c2.169,-2.2 4.751,-3.927 7.746,-5.18c2.994,-1.252 6.447,-1.879 10.358,-1.879c3.178,0 6.065,0.627 8.662,1.879c2.598,1.253 4.737,2.934 6.417,5.042c1.681,2.108 2.842,4.583 3.483,7.425c0.642,2.842 0.627,5.821 -0.045,8.938l-0.825,4.125c-0.184,0.672 -0.566,1.252 -1.146,1.741c-0.581,0.489 -1.207,0.734 -1.879,0.734l-30.617,-0c-0.306,1.405 -0.275,2.643 0.092,3.712c0.366,1.07 0.962,1.971 1.787,2.704c0.825,0.734 1.833,1.284 3.025,1.65c1.192,0.367 2.46,0.55 3.804,0.55c1.956,0 3.591,-0.198 4.904,-0.596c1.314,-0.397 2.43,-0.901 3.346,-1.512c0.734,-0.489 1.345,-0.825 1.834,-1.008c0.488,-0.184 1.1,-0.275 1.833,-0.275l7.333,-0c0.672,-0 1.207,0.244 1.604,0.733c0.398,0.489 0.505,1.069 0.321,1.742c-0.244,0.855 -0.871,1.955 -1.879,3.3c-1.008,1.344 -2.444,2.658 -4.308,3.941c-1.864,1.284 -4.156,2.384 -6.875,3.3c-2.72,0.917 -5.913,1.375 -9.579,1.375c-2.995,0 -5.76,-0.626 -8.296,-1.879c-2.536,-1.253 -4.645,-2.979 -6.325,-5.179c-1.681,-2.2 -2.857,-4.843 -3.529,-7.929c-0.673,-3.086 -0.612,-6.463 0.183,-10.129Zm25.3,-13.384c-1.772,0 -3.346,0.26 -4.721,0.779c-1.375,0.52 -2.582,1.192 -3.621,2.017c-1.039,0.825 -1.894,1.742 -2.566,2.75c-0.673,1.008 -1.162,1.971 -1.467,2.888l20.717,-0c0.061,-0.917 0.03,-1.88 -0.092,-2.888c-0.122,-1.008 -0.474,-1.925 -1.054,-2.75c-0.581,-0.825 -1.436,-1.497 -2.567,-2.017c-1.13,-0.519 -2.674,-0.779 -4.629,-0.779Zm90.108,17.234c0.306,-0.795 0.749,-1.391 1.329,-1.788c0.581,-0.397 1.177,-0.596 1.788,-0.596l7.425,0c0.672,0 1.222,0.229 1.65,0.688c0.428,0.458 0.519,1.054 0.275,1.787c-0.672,2.506 -1.726,5.011 -3.163,7.517c-1.436,2.506 -3.376,4.767 -5.82,6.783c-2.445,2.017 -5.47,3.667 -9.075,4.95c-3.606,1.284 -7.884,1.925 -12.834,1.925c-3.972,0 -7.486,-0.626 -10.541,-1.879c-3.056,-1.253 -5.562,-2.994 -7.517,-5.225c-1.956,-2.23 -3.315,-4.904 -4.079,-8.021c-0.764,-3.116 -0.871,-6.508 -0.321,-10.175c0.367,-2.322 0.84,-4.889 1.421,-7.7c0.58,-2.811 1.207,-5.377 1.879,-7.7c0.978,-3.666 2.337,-7.058 4.079,-10.175c1.742,-3.116 3.896,-5.79 6.463,-8.021c2.566,-2.23 5.561,-3.972 8.983,-5.225c3.422,-1.252 7.364,-1.879 11.825,-1.879c4.522,0 8.372,0.642 11.55,1.925c3.178,1.284 5.729,2.934 7.654,4.95c1.925,2.017 3.254,4.293 3.988,6.829c0.733,2.537 0.916,5.027 0.55,7.471c-0.123,0.734 -0.474,1.329 -1.055,1.788c-0.58,0.458 -1.207,0.687 -1.879,0.687l-7.425,0c-0.611,0 -1.161,-0.198 -1.65,-0.596c-0.489,-0.397 -0.703,-0.993 -0.641,-1.787c0.061,-1.222 -0.107,-2.414 -0.505,-3.575c-0.397,-1.161 -1.084,-2.2 -2.062,-3.117c-0.978,-0.916 -2.292,-1.665 -3.942,-2.246c-1.65,-0.58 -3.666,-0.87 -6.05,-0.87c-2.383,-0 -4.537,0.366 -6.462,1.1c-1.925,0.733 -3.621,1.711 -5.088,2.933c-1.466,1.222 -2.689,2.689 -3.666,4.4c-0.978,1.711 -1.742,3.514 -2.292,5.408c-0.672,2.323 -1.299,4.889 -1.879,7.7c-0.581,2.811 -1.054,5.378 -1.421,7.7c-0.306,1.956 -0.321,3.774 -0.046,5.454c0.275,1.681 0.886,3.132 1.833,4.355c0.948,1.222 2.231,2.2 3.85,2.933c1.62,0.733 3.621,1.1 6.005,1.1c2.383,-0 4.522,-0.29 6.416,-0.871c1.895,-0.58 3.529,-1.329 4.904,-2.246c1.375,-0.916 2.521,-1.955 3.438,-3.116c0.917,-1.161 1.619,-2.353 2.108,-3.575Zm48.217,-28.234c3.117,0 5.958,0.55 8.525,1.65c2.567,1.1 4.736,2.582 6.508,4.446c1.772,1.864 3.071,4.049 3.896,6.554c0.825,2.506 1.024,5.164 0.596,7.975c-0.061,0.55 -0.168,1.253 -0.321,2.109c-0.153,0.855 -0.321,1.711 -0.504,2.566c-0.183,0.856 -0.367,1.696 -0.55,2.521c-0.183,0.825 -0.367,1.513 -0.55,2.063c-0.856,2.811 -1.94,5.408 -3.254,7.791c-1.314,2.384 -3.01,4.446 -5.088,6.188c-2.078,1.741 -4.583,3.116 -7.516,4.125c-2.934,1.008 -6.417,1.512 -10.45,1.512c-3.117,0 -5.959,-0.55 -8.525,-1.65c-2.567,-1.1 -4.721,-2.582 -6.463,-4.446c-1.742,-1.863 -3.025,-4.033 -3.85,-6.508c-0.825,-2.475 -1.054,-5.118 -0.687,-7.929c0.061,-0.55 0.168,-1.238 0.32,-2.063c0.153,-0.825 0.321,-1.665 0.505,-2.52c0.183,-0.856 0.366,-1.711 0.55,-2.567c0.183,-0.856 0.366,-1.558 0.55,-2.108c0.794,-2.811 1.909,-5.424 3.345,-7.838c1.437,-2.414 3.224,-4.492 5.363,-6.233c2.139,-1.742 4.66,-3.117 7.562,-4.125c2.903,-1.009 6.249,-1.513 10.038,-1.513Zm7.608,20.625c0.245,-1.894 0.153,-3.468 -0.275,-4.721c-0.428,-1.252 -1.084,-2.245 -1.971,-2.979c-0.886,-0.733 -1.909,-1.237 -3.07,-1.512c-1.162,-0.275 -2.384,-0.413 -3.667,-0.413c-1.283,0 -2.567,0.138 -3.85,0.413c-1.283,0.275 -2.521,0.779 -3.713,1.512c-1.191,0.734 -2.276,1.727 -3.254,2.979c-0.978,1.253 -1.772,2.827 -2.383,4.721c-0.122,0.489 -0.275,1.1 -0.458,1.834c-0.184,0.733 -0.367,1.497 -0.55,2.291c-0.184,0.795 -0.337,1.574 -0.459,2.338c-0.122,0.764 -0.214,1.36 -0.275,1.787c-0.183,1.895 -0.061,3.468 0.367,4.721c0.428,1.253 1.085,2.246 1.971,2.979c0.886,0.734 1.909,1.238 3.071,1.513c1.161,0.275 2.383,0.412 3.666,0.412c1.284,0 2.567,-0.137 3.85,-0.412c1.284,-0.275 2.521,-0.779 3.713,-1.513c1.191,-0.733 2.276,-1.726 3.254,-2.979c0.978,-1.253 1.742,-2.826 2.292,-4.721c0.122,-0.427 0.275,-1.023 0.458,-1.787c0.183,-0.764 0.367,-1.543 0.55,-2.338c0.183,-0.794 0.336,-1.558 0.458,-2.291c0.122,-0.734 0.214,-1.345 0.275,-1.834Zm61.784,25.484c-0.123,0.672 -0.474,1.252 -1.055,1.741c-0.58,0.489 -1.207,0.734 -1.879,0.734l-6.966,-0c-0.673,-0 -1.207,-0.245 -1.605,-0.734c-0.397,-0.489 -0.534,-1.069 -0.412,-1.741l4.95,-23.284c0.794,-3.666 0.565,-6.6 -0.688,-8.8c-1.252,-2.2 -3.651,-3.3 -7.195,-3.3c-3.239,0 -6.02,1.1 -8.342,3.3c-2.322,2.2 -3.881,5.134 -4.675,8.8l-4.95,23.284c-0.122,0.672 -0.474,1.252 -1.054,1.741c-0.581,0.489 -1.207,0.734 -1.879,0.734l-6.967,-0c-0.672,-0 -1.207,-0.245 -1.604,-0.734c-0.397,-0.489 -0.535,-1.069 -0.413,-1.741l9.075,-42.717c0.122,-0.672 0.489,-1.253 1.1,-1.742c0.611,-0.489 1.253,-0.733 1.925,-0.733l6.967,-0c0.672,-0 1.192,0.244 1.558,0.733c0.367,0.489 0.489,1.07 0.367,1.742l-0.458,2.108c1.588,-1.711 3.498,-3.055 5.729,-4.033c2.23,-0.978 4.812,-1.467 7.746,-1.467c3.238,0 6.019,0.581 8.341,1.742c2.322,1.161 4.141,2.719 5.454,4.675c1.314,1.956 2.155,4.232 2.521,6.829c0.367,2.597 0.245,5.332 -0.366,8.204l-5.225,24.659Zm56.741,-0c-0.122,0.672 -0.473,1.252 -1.054,1.741c-0.58,0.489 -1.207,0.734 -1.879,0.734l-6.967,-0c-0.672,-0 -1.207,-0.245 -1.604,-0.734c-0.397,-0.489 -0.535,-1.069 -0.412,-1.741l4.95,-23.284c0.794,-3.666 0.565,-6.6 -0.688,-8.8c-1.253,-2.2 -3.651,-3.3 -7.196,-3.3c-3.239,0 -6.019,1.1 -8.341,3.3c-2.323,2.2 -3.881,5.134 -4.675,8.8l-4.95,23.284c-0.123,0.672 -0.474,1.252 -1.055,1.741c-0.58,0.489 -1.207,0.734 -1.879,0.734l-6.966,-0c-0.673,-0 -1.207,-0.245 -1.605,-0.734c-0.397,-0.489 -0.534,-1.069 -0.412,-1.741l9.075,-42.717c0.122,-0.672 0.489,-1.253 1.1,-1.742c0.611,-0.489 1.253,-0.733 1.925,-0.733l6.967,-0c0.672,-0 1.191,0.244 1.558,0.733c0.367,0.489 0.489,1.07 0.367,1.742l-0.459,2.108c1.589,-1.711 3.499,-3.055 5.729,-4.033c2.231,-0.978 4.813,-1.467 7.746,-1.467c3.239,0 6.02,0.581 8.342,1.742c2.322,1.161 4.14,2.719 5.454,4.675c1.314,1.956 2.154,4.232 2.521,6.829c0.367,2.597 0.244,5.332 -0.367,8.204l-5.225,24.659Zm14.025,-21.725c0.734,-3.423 1.803,-6.616 3.209,-9.58c1.405,-2.963 3.193,-5.545 5.362,-7.745c2.17,-2.2 4.751,-3.927 7.746,-5.18c2.994,-1.252 6.447,-1.879 10.358,-1.879c3.178,0 6.066,0.627 8.663,1.879c2.597,1.253 4.736,2.934 6.416,5.042c1.681,2.108 2.842,4.583 3.484,7.425c0.641,2.842 0.626,5.821 -0.046,8.938l-0.825,4.125c-0.183,0.672 -0.565,1.252 -1.146,1.741c-0.58,0.489 -1.207,0.734 -1.879,0.734l-30.617,-0c-0.305,1.405 -0.275,2.643 0.092,3.712c0.367,1.07 0.962,1.971 1.787,2.704c0.825,0.734 1.834,1.284 3.025,1.65c1.192,0.367 2.46,0.55 3.805,0.55c1.955,0 3.59,-0.198 4.904,-0.596c1.314,-0.397 2.429,-0.901 3.346,-1.512c0.733,-0.489 1.344,-0.825 1.833,-1.008c0.489,-0.184 1.1,-0.275 1.833,-0.275l7.334,-0c0.672,-0 1.207,0.244 1.604,0.733c0.397,0.489 0.504,1.069 0.321,1.742c-0.245,0.855 -0.871,1.955 -1.88,3.3c-1.008,1.344 -2.444,2.658 -4.308,3.941c-1.864,1.284 -4.155,2.384 -6.875,3.3c-2.719,0.917 -5.912,1.375 -9.579,1.375c-2.995,0 -5.76,-0.626 -8.296,-1.879c-2.536,-1.253 -4.644,-2.979 -6.325,-5.179c-1.68,-2.2 -2.857,-4.843 -3.529,-7.929c-0.672,-3.086 -0.611,-6.463 0.183,-10.129Zm25.3,-13.384c-1.772,0 -3.346,0.26 -4.721,0.779c-1.375,0.52 -2.582,1.192 -3.62,2.017c-1.039,0.825 -1.895,1.742 -2.567,2.75c-0.672,1.008 -1.161,1.971 -1.467,2.888l20.717,-0c0.061,-0.917 0.03,-1.88 -0.092,-2.888c-0.122,-1.008 -0.473,-1.925 -1.054,-2.75c-0.58,-0.825 -1.436,-1.497 -2.567,-2.017c-1.13,-0.519 -2.673,-0.779 -4.629,-0.779Zm39.692,10.542c-0.306,0.917 -0.581,1.986 -0.825,3.208c-0.245,1.223 -0.428,2.292 -0.55,3.209c-0.183,1.894 -0.076,3.514 0.321,4.858c0.397,1.344 1.008,2.429 1.833,3.254c0.825,0.825 1.803,1.436 2.933,1.833c1.131,0.398 2.338,0.596 3.621,0.596c2.995,0 5.256,-0.473 6.784,-1.421c1.527,-0.947 2.902,-2.123 4.125,-3.529c0.488,-0.55 1.038,-1.1 1.65,-1.65c0.611,-0.55 1.252,-0.825 1.925,-0.825l7.058,0c0.672,0 1.222,0.245 1.65,0.734c0.428,0.489 0.519,1.069 0.275,1.741c-0.367,1.284 -1.039,2.842 -2.017,4.675c-0.978,1.834 -2.429,3.591 -4.354,5.271c-1.925,1.681 -4.4,3.102 -7.425,4.263c-3.025,1.161 -6.737,1.741 -11.137,1.741c-3.117,0 -5.943,-0.565 -8.48,-1.696c-2.536,-1.13 -4.659,-2.658 -6.37,-4.583c-1.712,-1.925 -2.964,-4.155 -3.759,-6.692c-0.794,-2.536 -1.008,-5.209 -0.641,-8.02c0.122,-1.1 0.336,-2.323 0.641,-3.667c0.306,-1.344 0.611,-2.597 0.917,-3.758c0.794,-2.811 1.91,-5.5 3.346,-8.067c1.436,-2.567 3.223,-4.813 5.362,-6.738c2.139,-1.925 4.675,-3.452 7.609,-4.583c2.933,-1.13 6.294,-1.696 10.083,-1.696c3.728,0 6.89,0.581 9.487,1.742c2.598,1.161 4.706,2.582 6.325,4.262c1.62,1.681 2.75,3.438 3.392,5.271c0.642,1.834 0.871,3.392 0.688,4.675c-0.123,0.673 -0.489,1.253 -1.1,1.742c-0.612,0.489 -1.253,0.733 -1.925,0.733l-6.692,0c-0.672,0 -1.176,-0.275 -1.513,-0.825c-0.336,-0.55 -0.657,-1.1 -0.962,-1.65c-0.306,-0.733 -0.672,-1.39 -1.1,-1.971c-0.428,-0.58 -0.978,-1.1 -1.65,-1.558c-0.672,-0.458 -1.513,-0.81 -2.521,-1.054c-1.008,-0.244 -2.276,-0.367 -3.804,-0.367c-1.283,0 -2.567,0.199 -3.85,0.596c-1.283,0.397 -2.521,1.008 -3.713,1.833c-1.191,0.825 -2.276,1.91 -3.254,3.255c-0.978,1.344 -1.772,2.964 -2.383,4.858Zm56.65,9.808c-0.367,1.895 -0.321,3.407 0.137,4.538c0.459,1.13 1.757,1.696 3.896,1.696l7.425,-0c0.672,-0 1.192,0.244 1.559,0.733c0.366,0.489 0.488,1.069 0.366,1.742l-1.283,6.05c-0.122,0.672 -0.474,1.252 -1.054,1.741c-0.581,0.489 -1.207,0.734 -1.879,0.734l-5.867,-0c-5.745,-0 -10.007,-1.482 -12.788,-4.446c-2.78,-2.964 -3.59,-7.135 -2.429,-12.513l4.217,-19.708l-6.05,-0c-0.672,-0 -1.207,-0.244 -1.604,-0.733c-0.397,-0.489 -0.535,-1.07 -0.413,-1.742l1.284,-6.05c0.122,-0.672 0.488,-1.253 1.1,-1.742c0.611,-0.489 1.252,-0.733 1.925,-0.733l6.05,-0l3.208,-14.942c0.122,-0.672 0.474,-1.252 1.054,-1.741c0.581,-0.489 1.207,-0.734 1.879,-0.734l6.967,0c0.672,0 1.207,0.245 1.604,0.734c0.397,0.489 0.535,1.069 0.413,1.741l-3.209,14.942l11.825,-0c0.672,-0 1.192,0.244 1.559,0.733c0.366,0.489 0.488,1.07 0.366,1.742l-1.283,6.05c-0.122,0.672 -0.474,1.253 -1.054,1.742c-0.581,0.489 -1.207,0.733 -1.879,0.733l-11.825,-0l-4.217,19.433Zm32.817,14.759c-0.123,0.672 -0.474,1.252 -1.055,1.741c-0.58,0.489 -1.207,0.734 -1.879,0.734l-6.966,-0c-0.673,-0 -1.207,-0.245 -1.605,-0.734c-0.397,-0.489 -0.534,-1.069 -0.412,-1.741l9.075,-42.717c0.122,-0.672 0.489,-1.253 1.1,-1.742c0.611,-0.489 1.253,-0.733 1.925,-0.733l6.967,-0c0.672,-0 1.191,0.244 1.558,0.733c0.367,0.489 0.489,1.07 0.367,1.742l-9.075,42.717Zm11.275,-62.609c0.672,0 1.207,0.245 1.604,0.734c0.397,0.489 0.534,1.069 0.412,1.741l-1.558,7.15c-0.122,0.673 -0.489,1.253 -1.1,1.742c-0.611,0.489 -1.253,0.733 -1.925,0.733l-7.883,0c-0.673,0 -1.192,-0.244 -1.559,-0.733c-0.366,-0.489 -0.489,-1.069 -0.366,-1.742l1.558,-7.15c0.122,-0.672 0.474,-1.252 1.054,-1.741c0.581,-0.489 1.207,-0.734 1.879,-0.734l7.884,0Zm31.075,16.5c3.116,0 5.958,0.55 8.525,1.65c2.566,1.1 4.736,2.582 6.508,4.446c1.772,1.864 3.071,4.049 3.896,6.554c0.825,2.506 1.023,5.164 0.596,7.975c-0.062,0.55 -0.168,1.253 -0.321,2.109c-0.153,0.855 -0.321,1.711 -0.504,2.566c-0.184,0.856 -0.367,1.696 -0.55,2.521c-0.184,0.825 -0.367,1.513 -0.55,2.063c-0.856,2.811 -1.941,5.408 -3.255,7.791c-1.313,2.384 -3.009,4.446 -5.087,6.188c-2.078,1.741 -4.583,3.116 -7.517,4.125c-2.933,1.008 -6.416,1.512 -10.45,1.512c-3.116,0 -5.958,-0.55 -8.525,-1.65c-2.566,-1.1 -4.721,-2.582 -6.462,-4.446c-1.742,-1.863 -3.025,-4.033 -3.85,-6.508c-0.825,-2.475 -1.054,-5.118 -0.688,-7.929c0.061,-0.55 0.168,-1.238 0.321,-2.063c0.153,-0.825 0.321,-1.665 0.504,-2.52c0.184,-0.856 0.367,-1.711 0.55,-2.567c0.184,-0.856 0.367,-1.558 0.55,-2.108c0.795,-2.811 1.91,-5.424 3.346,-7.838c1.436,-2.414 3.224,-4.492 5.363,-6.233c2.138,-1.742 4.659,-3.117 7.562,-4.125c2.903,-1.009 6.249,-1.513 10.038,-1.513Zm7.608,20.625c0.244,-1.894 0.153,-3.468 -0.275,-4.721c-0.428,-1.252 -1.085,-2.245 -1.971,-2.979c-0.886,-0.733 -1.91,-1.237 -3.071,-1.512c-1.161,-0.275 -2.383,-0.413 -3.666,-0.413c-1.284,0 -2.567,0.138 -3.85,0.413c-1.284,0.275 -2.521,0.779 -3.713,1.512c-1.192,0.734 -2.276,1.727 -3.254,2.979c-0.978,1.253 -1.772,2.827 -2.383,4.721c-0.123,0.489 -0.275,1.1 -0.459,1.834c-0.183,0.733 -0.366,1.497 -0.55,2.291c-0.183,0.795 -0.336,1.574 -0.458,2.338c-0.122,0.764 -0.214,1.36 -0.275,1.787c-0.183,1.895 -0.061,3.468 0.367,4.721c0.427,1.253 1.084,2.246 1.97,2.979c0.887,0.734 1.91,1.238 3.071,1.513c1.161,0.275 2.384,0.412 3.667,0.412c1.283,0 2.567,-0.137 3.85,-0.412c1.283,-0.275 2.521,-0.779 3.712,-1.513c1.192,-0.733 2.277,-1.726 3.255,-2.979c0.977,-1.253 1.741,-2.826 2.291,-4.721c0.122,-0.427 0.275,-1.023 0.459,-1.787c0.183,-0.764 0.366,-1.543 0.55,-2.338c0.183,-0.794 0.336,-1.558 0.458,-2.291c0.122,-0.734 0.214,-1.345 0.275,-1.834Zm61.783,25.484c-0.122,0.672 -0.473,1.252 -1.054,1.741c-0.58,0.489 -1.207,0.734 -1.879,0.734l-6.967,-0c-0.672,-0 -1.207,-0.245 -1.604,-0.734c-0.397,-0.489 -0.535,-1.069 -0.412,-1.741l4.95,-23.284c0.794,-3.666 0.565,-6.6 -0.688,-8.8c-1.253,-2.2 -3.651,-3.3 -7.196,-3.3c-3.239,0 -6.019,1.1 -8.341,3.3c-2.323,2.2 -3.881,5.134 -4.675,8.8l-4.95,23.284c-0.123,0.672 -0.474,1.252 -1.055,1.741c-0.58,0.489 -1.207,0.734 -1.879,0.734l-6.966,-0c-0.673,-0 -1.207,-0.245 -1.605,-0.734c-0.397,-0.489 -0.534,-1.069 -0.412,-1.741l9.075,-42.717c0.122,-0.672 0.489,-1.253 1.1,-1.742c0.611,-0.489 1.253,-0.733 1.925,-0.733l6.967,-0c0.672,-0 1.191,0.244 1.558,0.733c0.367,0.489 0.489,1.07 0.367,1.742l-0.459,2.108c1.589,-1.711 3.499,-3.055 5.729,-4.033c2.231,-0.978 4.813,-1.467 7.746,-1.467c3.239,0 6.02,0.581 8.342,1.742c2.322,1.161 4.14,2.719 5.454,4.675c1.314,1.956 2.154,4.232 2.521,6.829c0.367,2.597 0.244,5.332 -0.367,8.204l-5.225,24.659Zm33.195,-51.664l11.915,-14.53c0.332,-0.415 0.691,-0.623 1.079,-0.623l1.287,0c0.47,0 0.713,0.153 0.726,0.457c0.014,0.305 -0.103,0.609 -0.353,0.913l-13.657,16.606l-2.201,10.171c-0.138,0.609 -0.512,0.913 -1.121,0.913l-0.705,-0c-0.277,-0 -0.485,-0.083 -0.623,-0.249c-0.138,-0.166 -0.18,-0.388 -0.125,-0.664l2.118,-10.171l-6.601,-16.606c-0.138,-0.304 -0.111,-0.608 0.083,-0.913c0.194,-0.304 0.484,-0.457 0.872,-0.457l0.706,0c0.387,0 0.664,0.208 0.83,0.623l5.77,14.53Zm32.298,11.416c0.636,0 0.885,0.318 0.747,0.955l-0.125,0.623c-0.138,0.609 -0.512,0.913 -1.12,0.913l-16.523,-0c-0.277,-0 -0.484,-0.083 -0.623,-0.249c-0.138,-0.166 -0.179,-0.388 -0.124,-0.664l5.77,-27.192c0.139,-0.636 0.512,-0.955 1.121,-0.955l16.19,0c0.637,0 0.886,0.319 0.748,0.955l-0.125,0.623c-0.138,0.609 -0.512,0.913 -1.121,0.913l-14.488,0l-2.283,10.586l13.575,0c0.636,0 0.885,0.319 0.747,0.955l-0.125,0.623c-0.138,0.609 -0.512,0.913 -1.12,0.913l-13.575,0l-2.367,11.001l14.821,0Zm21.006,-26.984c1.632,0 3.023,0.229 4.172,0.685c1.148,0.457 2.068,1.038 2.76,1.744c0.692,0.706 1.163,1.487 1.412,2.345c0.249,0.858 0.304,1.689 0.166,2.491c-0.056,0.222 -0.139,0.415 -0.249,0.581c-0.111,0.166 -0.319,0.249 -0.623,0.249l-0.996,0c-0.139,0 -0.305,-0.055 -0.498,-0.166c-0.194,-0.11 -0.277,-0.332 -0.25,-0.664c0.056,-0.692 -0.048,-1.328 -0.311,-1.909c-0.263,-0.582 -0.657,-1.087 -1.183,-1.516c-0.526,-0.429 -1.162,-0.761 -1.91,-0.996c-0.747,-0.235 -1.577,-0.353 -2.49,-0.353c-1.024,0 -2,0.097 -2.927,0.291c-0.927,0.193 -1.758,0.498 -2.491,0.913c-0.733,0.415 -1.349,0.934 -1.847,1.557c-0.498,0.623 -0.844,1.363 -1.038,2.221c-0.166,0.83 -0.152,1.536 0.041,2.117c0.194,0.581 0.582,1.107 1.163,1.577c0.581,0.471 1.363,0.914 2.345,1.329c0.983,0.415 2.166,0.858 3.55,1.328c1.439,0.499 2.677,1.004 3.715,1.516c1.038,0.512 1.868,1.093 2.491,1.743c0.623,0.651 1.031,1.398 1.225,2.242c0.193,0.844 0.166,1.833 -0.083,2.968c-0.554,2.519 -1.841,4.414 -3.861,5.687c-2.021,1.274 -4.65,1.91 -7.888,1.91c-1.688,0 -3.141,-0.207 -4.359,-0.623c-1.217,-0.415 -2.214,-0.961 -2.989,-1.639c-0.775,-0.678 -1.321,-1.467 -1.639,-2.367c-0.319,-0.899 -0.423,-1.847 -0.312,-2.843c0.028,-0.222 0.118,-0.415 0.27,-0.582c0.152,-0.166 0.353,-0.249 0.602,-0.249l0.996,0c0.277,0 0.471,0.083 0.581,0.249c0.111,0.167 0.167,0.36 0.167,0.582c-0.056,0.581 0.034,1.169 0.269,1.764c0.236,0.595 0.616,1.128 1.142,1.598c0.526,0.471 1.225,0.858 2.096,1.163c0.872,0.304 1.931,0.456 3.176,0.456c2.712,0 4.837,-0.491 6.373,-1.473c1.536,-0.983 2.483,-2.304 2.843,-3.965c0.166,-0.83 0.132,-1.529 -0.104,-2.096c-0.235,-0.568 -0.678,-1.08 -1.328,-1.536c-0.65,-0.457 -1.501,-0.893 -2.553,-1.308c-1.052,-0.415 -2.297,-0.872 -3.736,-1.37c-1.384,-0.471 -2.553,-0.969 -3.508,-1.495c-0.955,-0.525 -1.709,-1.113 -2.263,-1.764c-0.553,-0.65 -0.906,-1.404 -1.058,-2.262c-0.152,-0.858 -0.104,-1.855 0.145,-2.989c0.471,-2.104 1.612,-3.82 3.425,-5.148c1.813,-1.328 4.269,-1.993 7.369,-1.993Zm37.03,0.415c0.636,0 0.885,0.319 0.747,0.955l-5.771,27.192c-0.138,0.609 -0.512,0.913 -1.12,0.913l-0.748,-0c-0.276,-0 -0.484,-0.083 -0.622,-0.249c-0.139,-0.166 -0.18,-0.388 -0.125,-0.664l2.698,-12.579l-16.024,0l-2.698,12.579c-0.138,0.609 -0.512,0.913 -1.121,0.913l-0.747,-0c-0.277,-0 -0.485,-0.083 -0.623,-0.249c-0.138,-0.166 -0.18,-0.388 -0.124,-0.664l5.77,-27.192c0.138,-0.636 0.512,-0.955 1.121,-0.955l0.747,0c0.637,0 0.886,0.319 0.747,0.955l-2.574,12.122l16.025,0l2.573,-12.122c0.139,-0.636 0.512,-0.955 1.121,-0.955l0.748,0Z" clip-rule="nonzero"/>
    </clipPath>
    <g id="bg" clip-path="url(#_clip1)">
        <rect x="63.335" y="135.808" width="865.744" height="91.008" fill="url(#linear-gradient)" />
    </g>
    <g id="featuring">
        <path d="M404.185,49.922c0.402,0 0.722,0.146 0.959,0.438c0.238,0.293 0.32,0.64 0.247,1.042l-0.877,3.89c-0.073,0.402 -0.283,0.749 -0.63,1.041c-0.347,0.293 -0.722,0.439 -1.123,0.439l-17.481,-0l-2.301,10.631l16.384,-0c0.402,-0 0.722,0.146 0.959,0.438c0.237,0.292 0.32,0.639 0.247,1.041l-0.822,3.891c-0.11,0.402 -0.338,0.749 -0.685,1.041c-0.347,0.292 -0.722,0.438 -1.124,0.438l-16.384,0l-2.685,12.549c-0.073,0.402 -0.283,0.749 -0.63,1.041c-0.348,0.292 -0.722,0.438 -1.124,0.438l-4.438,0c-0.402,0 -0.722,-0.146 -0.959,-0.438c-0.238,-0.292 -0.32,-0.639 -0.247,-1.041l7.562,-35.399c0.073,-0.402 0.283,-0.749 0.63,-1.042c0.347,-0.292 0.722,-0.438 1.124,-0.438l23.398,0Z" style="fill:#fff;fill-rule:nonzero;"/>
        <path d="M404.514,73.814c0.438,-2.046 1.078,-3.955 1.918,-5.726c0.84,-1.772 1.909,-3.316 3.206,-4.631c1.297,-1.315 2.84,-2.347 4.63,-3.096c1.79,-0.749 3.854,-1.123 6.192,-1.123c1.9,-0 3.626,0.374 5.179,1.123c1.552,0.749 2.831,1.754 3.835,3.014c1.005,1.26 1.699,2.74 2.083,4.439c0.383,1.698 0.374,3.479 -0.028,5.342l-0.493,2.466c-0.109,0.402 -0.338,0.749 -0.685,1.041c-0.347,0.293 -0.721,0.439 -1.123,0.439l-18.303,-0c-0.182,0.84 -0.164,1.58 0.055,2.219c0.219,0.639 0.576,1.178 1.069,1.617c0.493,0.438 1.096,0.767 1.808,0.986c0.712,0.219 1.47,0.329 2.274,0.329c1.169,-0 2.146,-0.119 2.932,-0.356c0.785,-0.238 1.452,-0.539 2,-0.905c0.438,-0.292 0.804,-0.493 1.096,-0.602c0.292,-0.11 0.658,-0.165 1.096,-0.165l4.384,0c0.402,0 0.721,0.146 0.959,0.439c0.237,0.292 0.301,0.639 0.191,1.041c-0.146,0.511 -0.52,1.169 -1.123,1.972c-0.603,0.804 -1.461,1.59 -2.575,2.357c-1.115,0.767 -2.485,1.425 -4.11,1.973c-1.626,0.547 -3.535,0.821 -5.727,0.821c-1.79,0 -3.443,-0.374 -4.959,-1.123c-1.516,-0.749 -2.776,-1.781 -3.781,-3.096c-1.004,-1.315 -1.708,-2.895 -2.11,-4.74c-0.401,-1.845 -0.365,-3.863 0.11,-6.055Zm15.124,-8.001c-1.059,0 -2,0.156 -2.822,0.466c-0.822,0.311 -1.543,0.713 -2.164,1.206c-0.621,0.493 -1.133,1.041 -1.535,1.644c-0.402,0.602 -0.694,1.178 -0.876,1.726l12.384,-0c0.036,-0.548 0.018,-1.124 -0.055,-1.726c-0.073,-0.603 -0.283,-1.151 -0.63,-1.644c-0.347,-0.493 -0.859,-0.895 -1.534,-1.206c-0.676,-0.31 -1.599,-0.466 -2.768,-0.466Z" style="fill:#fff;fill-rule:nonzero;"/>
        <path d="M450.654,59.238c1.132,-0 2.155,0.109 3.068,0.328c0.914,0.22 1.708,0.494 2.384,0.822c0.676,0.329 1.233,0.685 1.672,1.069c0.438,0.384 0.767,0.74 0.986,1.069l0.274,-1.261c0.073,-0.402 0.283,-0.749 0.63,-1.041c0.347,-0.292 0.722,-0.438 1.123,-0.438l4.165,-0c0.402,-0 0.722,0.146 0.959,0.438c0.237,0.292 0.32,0.639 0.247,1.041l-5.425,25.536c-0.073,0.402 -0.284,0.749 -0.631,1.041c-0.347,0.292 -0.721,0.438 -1.123,0.438l-4.165,0c-0.401,0 -0.721,-0.146 -0.959,-0.438c-0.237,-0.292 -0.319,-0.639 -0.246,-1.041l0.274,-1.26c-0.365,0.438 -0.767,0.858 -1.206,1.26c-0.438,0.402 -0.986,0.749 -1.644,1.041c-0.657,0.292 -1.433,0.53 -2.329,0.712c-0.895,0.183 -1.981,0.274 -3.26,0.274c-1.717,0 -3.251,-0.365 -4.603,-1.095c-1.352,-0.731 -2.466,-1.708 -3.343,-2.932c-0.876,-1.224 -1.507,-2.63 -1.89,-4.22c-0.384,-1.589 -0.429,-3.224 -0.137,-4.904c0.109,-0.548 0.237,-1.187 0.383,-1.918c0.147,-0.731 0.293,-1.37 0.439,-1.918c0.438,-1.68 1.059,-3.288 1.863,-4.822c0.804,-1.534 1.808,-2.877 3.014,-4.028c1.205,-1.15 2.594,-2.064 4.164,-2.74c1.571,-0.675 3.343,-1.013 5.316,-1.013Zm-7.343,13.261c-0.183,0.548 -0.32,1.059 -0.411,1.534c-0.091,0.475 -0.174,0.986 -0.247,1.534c-0.146,1.169 -0.118,2.174 0.083,3.014c0.2,0.841 0.538,1.535 1.013,2.083c0.475,0.548 1.078,0.949 1.809,1.205c0.73,0.256 1.534,0.384 2.411,0.384c1.79,-0 3.406,-0.53 4.849,-1.589c1.443,-1.06 2.475,-2.576 3.096,-4.549c0.183,-0.548 0.357,-1.242 0.521,-2.082c0.164,-0.84 0.283,-1.534 0.356,-2.082c0.219,-1.9 -0.164,-3.398 -1.151,-4.494c-0.986,-1.096 -2.374,-1.644 -4.164,-1.644c-1.79,0 -3.416,0.521 -4.877,1.562c-1.462,1.041 -2.557,2.749 -3.288,5.124Z" style="fill:#fff;fill-rule:nonzero;"/>
        <path d="M479.532,77.979c-0.219,1.132 -0.192,2.036 0.082,2.712c0.274,0.676 1.051,1.014 2.329,1.014l4.439,-0c0.402,-0 0.712,0.146 0.932,0.438c0.219,0.292 0.292,0.639 0.219,1.041l-0.767,3.617c-0.074,0.402 -0.284,0.749 -0.631,1.041c-0.347,0.292 -0.721,0.438 -1.123,0.438l-3.507,0c-3.434,0 -5.982,-0.885 -7.644,-2.657c-1.663,-1.772 -2.147,-4.265 -1.452,-7.48l2.52,-11.782l-3.616,0c-0.402,0 -0.722,-0.146 -0.959,-0.438c-0.238,-0.292 -0.32,-0.639 -0.247,-1.041l0.767,-3.617c0.073,-0.402 0.292,-0.749 0.658,-1.041c0.365,-0.292 0.749,-0.438 1.15,-0.438l3.617,-0l1.918,-8.932c0.073,-0.402 0.283,-0.749 0.63,-1.042c0.347,-0.292 0.722,-0.438 1.124,-0.438l4.164,0c0.402,0 0.722,0.146 0.959,0.438c0.238,0.293 0.32,0.64 0.247,1.042l-1.918,8.932l7.069,-0c0.402,-0 0.712,0.146 0.931,0.438c0.22,0.292 0.293,0.639 0.22,1.041l-0.768,3.617c-0.073,0.402 -0.283,0.749 -0.63,1.041c-0.347,0.292 -0.721,0.438 -1.123,0.438l-7.069,0l-2.521,11.618Z" style="fill:#fff;fill-rule:nonzero;"/>
        <path d="M497.068,61.265c0.073,-0.402 0.292,-0.749 0.657,-1.041c0.365,-0.292 0.749,-0.438 1.151,-0.438l4.164,-0c0.402,-0 0.713,0.146 0.932,0.438c0.219,0.292 0.292,0.639 0.219,1.041l-2.959,13.919c-0.475,2.192 -0.383,3.945 0.274,5.26c0.658,1.316 2.046,1.973 4.165,1.973c1.936,0 3.552,-0.657 4.849,-1.973c1.297,-1.315 2.183,-3.068 2.658,-5.26l2.959,-13.919c0.073,-0.402 0.292,-0.749 0.658,-1.041c0.365,-0.292 0.749,-0.438 1.15,-0.438l4.165,-0c0.402,-0 0.712,0.146 0.932,0.438c0.219,0.292 0.292,0.639 0.219,1.041l-5.425,25.536c-0.073,0.402 -0.283,0.749 -0.63,1.041c-0.347,0.292 -0.722,0.438 -1.124,0.438l-4.164,0c-0.402,0 -0.722,-0.146 -0.959,-0.438c-0.238,-0.292 -0.32,-0.639 -0.247,-1.041l0.274,-1.26c-0.84,1.022 -1.836,1.826 -2.986,2.411c-1.151,0.584 -2.749,0.876 -4.795,0.876c-1.936,0 -3.58,-0.347 -4.932,-1.041c-1.352,-0.694 -2.402,-1.625 -3.151,-2.794c-0.749,-1.169 -1.224,-2.53 -1.425,-4.083c-0.2,-1.552 -0.118,-3.187 0.247,-4.904l3.124,-14.741Z" style="fill:#fff;fill-rule:nonzero;"/>
        <path d="M543.098,66.361c-2.192,0 -3.873,0.484 -5.042,1.453c-1.169,0.968 -1.991,2.548 -2.466,4.74l-3.068,14.247c-0.073,0.402 -0.283,0.749 -0.63,1.041c-0.348,0.292 -0.722,0.438 -1.124,0.438l-4.164,0c-0.402,0 -0.722,-0.146 -0.959,-0.438c-0.238,-0.292 -0.32,-0.639 -0.247,-1.041l5.425,-25.536c0.073,-0.402 0.292,-0.749 0.658,-1.041c0.365,-0.292 0.748,-0.438 1.15,-0.438l4.165,-0c0.402,-0 0.712,0.146 0.931,0.438c0.22,0.292 0.293,0.639 0.22,1.041l-0.274,1.261c0.438,-0.475 0.876,-0.886 1.315,-1.233c0.438,-0.347 0.922,-0.631 1.452,-0.85c0.53,-0.219 1.114,-0.383 1.753,-0.493c0.64,-0.11 1.398,-0.164 2.275,-0.164l3.561,-0c0.402,-0 0.713,0.146 0.932,0.438c0.219,0.292 0.292,0.639 0.219,1.041l-0.767,3.617c-0.073,0.402 -0.283,0.749 -0.63,1.041c-0.347,0.292 -0.722,0.438 -1.123,0.438l-3.562,0Z" style="fill:#fff;fill-rule:nonzero;"/>
        <path d="M555.427,86.801c-0.073,0.402 -0.283,0.749 -0.63,1.041c-0.347,0.292 -0.722,0.438 -1.123,0.438l-4.165,0c-0.402,0 -0.722,-0.146 -0.959,-0.438c-0.237,-0.292 -0.32,-0.639 -0.247,-1.041l5.425,-25.536c0.073,-0.402 0.293,-0.749 0.658,-1.041c0.365,-0.292 0.749,-0.438 1.151,-0.438l4.164,-0c0.402,-0 0.713,0.146 0.932,0.438c0.219,0.292 0.292,0.639 0.219,1.041l-5.425,25.536Zm6.74,-37.427c0.402,0 0.722,0.146 0.959,0.438c0.238,0.293 0.32,0.64 0.247,1.042l-0.932,4.274c-0.073,0.402 -0.292,0.749 -0.657,1.041c-0.366,0.292 -0.749,0.438 -1.151,0.438l-4.713,0c-0.402,0 -0.712,-0.146 -0.931,-0.438c-0.219,-0.292 -0.292,-0.639 -0.219,-1.041l0.931,-4.274c0.073,-0.402 0.283,-0.749 0.63,-1.042c0.347,-0.292 0.722,-0.438 1.124,-0.438l4.712,0Z" style="fill:#fff;fill-rule:nonzero;"/>
        <path d="M589.731,86.801c-0.073,0.402 -0.284,0.749 -0.631,1.041c-0.347,0.292 -0.721,0.438 -1.123,0.438l-4.165,0c-0.401,0 -0.721,-0.146 -0.959,-0.438c-0.237,-0.292 -0.319,-0.639 -0.246,-1.041l2.959,-13.919c0.475,-2.192 0.338,-3.945 -0.411,-5.26c-0.749,-1.315 -2.183,-1.973 -4.302,-1.973c-1.936,0 -3.598,0.658 -4.986,1.973c-1.388,1.315 -2.32,3.068 -2.795,5.26l-2.959,13.919c-0.073,0.402 -0.283,0.749 -0.63,1.041c-0.347,0.292 -0.722,0.438 -1.124,0.438l-4.164,0c-0.402,0 -0.722,-0.146 -0.959,-0.438c-0.238,-0.292 -0.32,-0.639 -0.247,-1.041l5.425,-25.536c0.073,-0.402 0.292,-0.749 0.658,-1.041c0.365,-0.292 0.749,-0.438 1.151,-0.438l4.164,-0c0.402,-0 0.713,0.146 0.932,0.438c0.219,0.292 0.292,0.639 0.219,1.041l-0.274,1.261c0.95,-1.023 2.091,-1.827 3.425,-2.412c1.333,-0.584 2.877,-0.876 4.63,-0.876c1.936,-0 3.599,0.347 4.987,1.041c1.388,0.694 2.475,1.625 3.26,2.795c0.786,1.169 1.288,2.529 1.507,4.082c0.219,1.553 0.146,3.187 -0.219,4.904l-3.123,14.741Z" style="fill:#fff;fill-rule:nonzero;"/>
        <path d="M607.704,93.76c0.767,0 1.58,-0.118 2.439,-0.356c0.858,-0.237 1.671,-0.612 2.438,-1.123c0.767,-0.512 1.443,-1.16 2.028,-1.946c0.584,-0.785 0.986,-1.707 1.205,-2.767l0.439,-2.027c-0.329,0.401 -0.713,0.794 -1.151,1.178c-0.438,0.383 -0.986,0.73 -1.644,1.041c-0.658,0.31 -1.443,0.566 -2.356,0.767c-0.914,0.201 -2.01,0.301 -3.288,0.301c-1.717,0 -3.242,-0.365 -4.576,-1.095c-1.333,-0.731 -2.438,-1.708 -3.315,-2.932c-0.877,-1.224 -1.498,-2.63 -1.863,-4.22c-0.365,-1.589 -0.402,-3.224 -0.11,-4.904c0.11,-0.548 0.238,-1.187 0.384,-1.918c0.146,-0.731 0.292,-1.37 0.438,-1.918c0.439,-1.68 1.06,-3.288 1.863,-4.822c0.804,-1.534 1.79,-2.877 2.959,-4.028c1.169,-1.15 2.539,-2.064 4.11,-2.74c1.571,-0.675 3.343,-1.013 5.316,-1.013c1.132,-0 2.155,0.109 3.068,0.328c0.914,0.22 1.708,0.494 2.384,0.822c0.676,0.329 1.233,0.685 1.671,1.069c0.439,0.384 0.768,0.74 0.987,1.069l0.274,-1.261c0.073,-0.402 0.292,-0.749 0.657,-1.041c0.366,-0.292 0.749,-0.438 1.151,-0.438l4.165,-0c0.401,-0 0.712,0.146 0.931,0.438c0.219,0.292 0.292,0.639 0.219,1.041l-5.425,25.7c-0.949,4.421 -2.676,7.754 -5.178,10.001c-2.502,2.247 -6.183,3.37 -11.042,3.37c-1.717,0 -3.333,-0.247 -4.849,-0.74c-1.516,-0.493 -2.822,-1.151 -3.918,-1.972c-1.096,-0.822 -1.937,-1.754 -2.521,-2.795c-0.585,-1.041 -0.804,-2.11 -0.658,-3.206c0.073,-0.402 0.283,-0.749 0.631,-1.041c0.347,-0.292 0.721,-0.438 1.123,-0.438l3.726,-0c0.512,-0 0.923,0.173 1.233,0.52c0.311,0.347 0.557,0.667 0.74,0.959c0.365,0.621 0.904,1.133 1.616,1.534c0.713,0.402 1.946,0.603 3.699,0.603Zm-2.027,-21.261c-0.183,0.548 -0.32,1.059 -0.411,1.534c-0.092,0.475 -0.174,0.986 -0.247,1.534c-0.146,1.169 -0.119,2.174 0.082,3.014c0.201,0.841 0.539,1.535 1.014,2.083c0.475,0.548 1.078,0.949 1.808,1.205c0.731,0.256 1.535,0.384 2.412,0.384c1.79,-0 3.406,-0.53 4.849,-1.589c1.443,-1.06 2.475,-2.576 3.096,-4.549c0.183,-0.548 0.356,-1.242 0.521,-2.082c0.164,-0.84 0.283,-1.534 0.356,-2.082c0.219,-1.9 -0.164,-3.398 -1.151,-4.494c-0.986,-1.096 -2.374,-1.644 -4.164,-1.644c-1.79,0 -3.416,0.521 -4.877,1.562c-1.462,1.041 -2.558,2.749 -3.288,5.124Z" style="fill:#fff;fill-rule:nonzero;"/>
    </g>
</svg>
