<?xml version="1.0" encoding="UTF-8" standalone="no"?><!DOCTYPE svg PUBLIC "-//W3C//DTD SVG 1.1//EN" "http://www.w3.org/Graphics/SVG/1.1/DTD/svg11.dtd">
<svg width="100%" height="100%" viewBox="0 0 1000 271" version="1.1"
    xmlns="http://www.w3.org/2000/svg"
    xmlns:xlink="http://www.w3.org/1999/xlink" xml:space="preserve"
    xmlns:serif="http://www.serif.com/" style="fill-rule:evenodd;clip-rule:evenodd;stroke-linejoin:round;stroke-miterlimit:2;">
    <defs>
        <linearGradient id="linear-gradient" x1="-100%" y1="0" x2="200%" y2="0" >
            <stop offset="0" stop-color="#6666ff">
               <animate attributeName="offset" values="-.5;0-.25;0;1" dur="10s" repeatCount="indefinite"  /> 
            </stop>
            <stop offset="0" stop-color="#6666ff">
               <animate attributeName="offset" values="0;0.1;0.2" dur="10s" repeatCount="indefinite"  /> 
            </stop>
            <stop offset="0.1" stop-color="#0099ff">
                <animate attributeName="offset" values="0.2;0.3;0.4;1" dur="10s" repeatCount="indefinite"  /> 
            </stop>
            <stop offset="0.2" stop-color="#8cff00">
                <animate attributeName="offset" values="0.3;0.4;0.5;1" dur="10s" repeatCount="indefinite"  /> 
            </stop>
            <stop offset="0.3" stop-color="#eeff00">
                <animate attributeName="offset" values="0.4;0.5;0.6;1" dur="10s" repeatCount="indefinite"  /> 
            </stop>  
            <stop offset="0.4" stop-color="#ff3399">
                <animate attributeName="offset" values="0.5;0.6;0.7;1" dur="10s" repeatCount="indefinite"  /> 
            </stop>
            <stop offset="0.5" stop-color="#ff9046">
                <animate attributeName="offset" values="0.6;0.7;0.8;1" dur="10s" repeatCount="indefinite"  /> 
            </stop>
            <stop offset="0.6" stop-color="#ff0055">
                <animate attributeName="offset" values="0.7;0.8;0.9;1" dur="10s" repeatCount="indefinite"  /> 
            </stop> 
                <stop offset="0.7" stop-color="#ff009d">
                <animate attributeName="offset" values="0.8;0.9;1;1" dur="10s" repeatCount="indefinite"  /> 
            </stop>
            <stop offset="0.8" stop-color="#ae2dc2">
                <animate attributeName="offset" values="0.9;1;1.1;1" dur="10s" repeatCount="indefinite"  /> 
            </stop>
            <stop offset="0.9" stop-color="#6666ff">
                <animate attributeName="offset" values="1;1.1;1.2;1" dur="10s" repeatCount="indefinite"  /> 
            </stop>
            <stop offset="1" stop-color="#8966ff">
                <animate attributeName="offset" values="1.1;1.2;1.3;1" dur="10s" repeatCount="indefinite"  /> 
            </stop> 
        </linearGradient>
    </defs>
    <style>
        g:first-of-type path {
            fill: #fff;
        }
        g#bg > rect {
            background: linear-gradient(to right, #6666ff, #0099ff ,#8cff00, #eeff00, #ff3399, #ff9046, #ff0055, #ff009d, #ae2dc2, #6666ff, #09a1ff, #00ff6e, #d9ff01, #ffb406, #ffb406);
            -webkit-background-clip: text;
            color: transparent;
            animation: rainbow_animation 12s ease-in-out infinite alternate-reverse;
            background-size: 200% 100%;
        }
        @keyframes rainbow_animation {
            0% {
                background-position: 0 0;
            }

            100% {
                background-position: 100% 0;
            }
        }
        g#bg {
            fill: linear-gradient(to right, #6666ff, #0099ff ,#8cff00, #eeff00, #ff3399, #ff9046, #ff0055, #ff009d, #ae2dc2, #6666ff, #09a1ff, #00ff6e, #d9ff01, #ffb406, #ffb406);
        }
    </style>
    <clipPath id="_clip1">
        <path id="mask-bg" d="M114.374,153.066c3.422,-0 6.523,0.443 9.304,1.329c2.78,0.886 5.087,2.2 6.921,3.942c1.833,1.741 3.101,3.88 3.804,6.416c0.703,2.537 0.687,5.485 -0.046,8.846c-0.733,3.361 -1.757,6.325 -3.071,8.892c-1.314,2.567 -3.055,4.721 -5.225,6.462c-2.169,1.742 -4.782,3.071 -7.837,3.988c-3.056,0.917 -6.631,1.375 -10.725,1.375l-15.584,-0l-4.4,20.442c-0.122,0.672 -0.473,1.252 -1.054,1.741c-0.58,0.489 -1.207,0.734 -1.879,0.734l-7.425,-0c-0.672,-0 -1.207,-0.245 -1.604,-0.734c-0.397,-0.489 -0.535,-1.069 -0.413,-1.741l12.65,-59.217c0.122,-0.672 0.474,-1.253 1.054,-1.742c0.581,-0.489 1.207,-0.733 1.88,-0.733l23.65,-0Zm-20.075,29.792l14.208,-0c3.483,-0 6.417,-0.673 8.8,-2.017c2.383,-1.344 3.942,-3.758 4.675,-7.242c0.733,-3.422 0.199,-5.79 -1.604,-7.104c-1.803,-1.314 -4.446,-1.971 -7.929,-1.971l-14.209,0l-3.941,18.334Zm48.95,-10.817c0.122,-0.672 0.488,-1.253 1.1,-1.742c0.611,-0.489 1.252,-0.733 1.925,-0.733l6.966,-0c0.672,-0 1.192,0.244 1.559,0.733c0.366,0.489 0.488,1.07 0.366,1.742l-4.95,23.283c-0.794,3.667 -0.641,6.6 0.459,8.8c1.1,2.2 3.422,3.3 6.966,3.3c3.239,0 5.943,-1.1 8.113,-3.3c2.169,-2.2 3.651,-5.133 4.446,-8.8l4.95,-23.283c0.122,-0.672 0.488,-1.253 1.1,-1.742c0.611,-0.489 1.252,-0.733 1.925,-0.733l6.966,-0c0.672,-0 1.192,0.244 1.559,0.733c0.366,0.489 0.488,1.07 0.366,1.742l-9.075,42.717c-0.122,0.672 -0.473,1.252 -1.054,1.741c-0.58,0.489 -1.207,0.734 -1.879,0.734l-6.967,-0c-0.672,-0 -1.207,-0.245 -1.604,-0.734c-0.397,-0.489 -0.535,-1.069 -0.412,-1.741l0.458,-2.109c-1.406,1.711 -3.071,3.056 -4.996,4.034c-1.925,0.977 -4.599,1.466 -8.021,1.466c-3.239,0 -5.989,-0.58 -8.25,-1.741c-2.261,-1.161 -4.018,-2.72 -5.271,-4.675c-1.252,-1.956 -2.047,-4.232 -2.383,-6.83c-0.336,-2.597 -0.199,-5.331 0.413,-8.204l5.225,-24.658Zm77,8.525c-3.667,-0 -6.478,0.81 -8.434,2.429c-1.955,1.62 -3.33,4.263 -4.125,7.929l-5.133,23.834c-0.122,0.672 -0.474,1.252 -1.054,1.741c-0.581,0.489 -1.207,0.734 -1.879,0.734l-6.967,-0c-0.672,-0 -1.207,-0.245 -1.604,-0.734c-0.397,-0.489 -0.535,-1.069 -0.413,-1.741l9.075,-42.717c0.122,-0.672 0.489,-1.253 1.1,-1.742c0.611,-0.489 1.253,-0.733 1.925,-0.733l6.967,-0c0.672,-0 1.192,0.244 1.558,0.733c0.367,0.489 0.489,1.07 0.367,1.742l-0.458,2.108c0.733,-0.794 1.466,-1.482 2.2,-2.062c0.733,-0.581 1.543,-1.054 2.429,-1.421c0.886,-0.367 1.864,-0.642 2.933,-0.825c1.07,-0.183 2.338,-0.275 3.804,-0.275l5.959,-0c0.672,-0 1.191,0.244 1.558,0.733c0.367,0.489 0.489,1.07 0.367,1.742l-1.284,6.05c-0.122,0.672 -0.473,1.253 -1.054,1.742c-0.58,0.489 -1.207,0.733 -1.879,0.733l-5.958,-0Zm10.358,12.467c0.733,-3.423 1.803,-6.616 3.208,-9.58c1.406,-2.963 3.193,-5.545 5.363,-7.745c2.169,-2.2 4.751,-3.927 7.746,-5.18c2.994,-1.252 6.447,-1.879 10.358,-1.879c3.178,0 6.065,0.627 8.662,1.879c2.598,1.253 4.737,2.934 6.417,5.042c1.681,2.108 2.842,4.583 3.483,7.425c0.642,2.842 0.627,5.821 -0.045,8.938l-0.825,4.125c-0.184,0.672 -0.566,1.252 -1.146,1.741c-0.581,0.489 -1.207,0.734 -1.879,0.734l-30.617,-0c-0.306,1.405 -0.275,2.643 0.092,3.712c0.366,1.07 0.962,1.971 1.787,2.704c0.825,0.734 1.833,1.284 3.025,1.65c1.192,0.367 2.46,0.55 3.804,0.55c1.956,0 3.591,-0.198 4.904,-0.596c1.314,-0.397 2.43,-0.901 3.346,-1.512c0.734,-0.489 1.345,-0.825 1.834,-1.008c0.488,-0.184 1.1,-0.275 1.833,-0.275l7.333,-0c0.672,-0 1.207,0.244 1.604,0.733c0.398,0.489 0.505,1.069 0.321,1.742c-0.244,0.855 -0.871,1.955 -1.879,3.3c-1.008,1.344 -2.444,2.658 -4.308,3.941c-1.864,1.284 -4.156,2.384 -6.875,3.3c-2.72,0.917 -5.913,1.375 -9.579,1.375c-2.995,0 -5.76,-0.626 -8.296,-1.879c-2.536,-1.253 -4.645,-2.979 -6.325,-5.179c-1.681,-2.2 -2.857,-4.843 -3.529,-7.929c-0.673,-3.086 -0.612,-6.463 0.183,-10.129Zm25.3,-13.384c-1.772,0 -3.346,0.26 -4.721,0.779c-1.375,0.52 -2.582,1.192 -3.621,2.017c-1.039,0.825 -1.894,1.742 -2.566,2.75c-0.673,1.008 -1.162,1.971 -1.467,2.888l20.717,-0c0.061,-0.917 0.03,-1.88 -0.092,-2.888c-0.122,-1.008 -0.474,-1.925 -1.054,-2.75c-0.581,-0.825 -1.436,-1.497 -2.567,-2.017c-1.13,-0.519 -2.674,-0.779 -4.629,-0.779Zm90.108,17.234c0.306,-0.795 0.749,-1.391 1.329,-1.788c0.581,-0.397 1.177,-0.596 1.788,-0.596l7.425,0c0.672,0 1.222,0.229 1.65,0.688c0.428,0.458 0.519,1.054 0.275,1.787c-0.672,2.506 -1.726,5.011 -3.163,7.517c-1.436,2.506 -3.376,4.767 -5.82,6.783c-2.445,2.017 -5.47,3.667 -9.075,4.95c-3.606,1.284 -7.884,1.925 -12.834,1.925c-3.972,0 -7.486,-0.626 -10.541,-1.879c-3.056,-1.253 -5.562,-2.994 -7.517,-5.225c-1.956,-2.23 -3.315,-4.904 -4.079,-8.021c-0.764,-3.116 -0.871,-6.508 -0.321,-10.175c0.367,-2.322 0.84,-4.889 1.421,-7.7c0.58,-2.811 1.207,-5.377 1.879,-7.7c0.978,-3.666 2.337,-7.058 4.079,-10.175c1.742,-3.116 3.896,-5.79 6.463,-8.021c2.566,-2.23 5.561,-3.972 8.983,-5.225c3.422,-1.252 7.364,-1.879 11.825,-1.879c4.522,0 8.372,0.642 11.55,1.925c3.178,1.284 5.729,2.934 7.654,4.95c1.925,2.017 3.254,4.293 3.988,6.829c0.733,2.537 0.916,5.027 0.55,7.471c-0.123,0.734 -0.474,1.329 -1.055,1.788c-0.58,0.458 -1.207,0.687 -1.879,0.687l-7.425,0c-0.611,0 -1.161,-0.198 -1.65,-0.596c-0.489,-0.397 -0.703,-0.993 -0.641,-1.787c0.061,-1.222 -0.107,-2.414 -0.505,-3.575c-0.397,-1.161 -1.084,-2.2 -2.062,-3.117c-0.978,-0.916 -2.292,-1.665 -3.942,-2.246c-1.65,-0.58 -3.666,-0.87 -6.05,-0.87c-2.383,-0 -4.537,0.366 -6.462,1.1c-1.925,0.733 -3.621,1.711 -5.088,2.933c-1.466,1.222 -2.689,2.689 -3.666,4.4c-0.978,1.711 -1.742,3.514 -2.292,5.408c-0.672,2.323 -1.299,4.889 -1.879,7.7c-0.581,2.811 -1.054,5.378 -1.421,7.7c-0.306,1.956 -0.321,3.774 -0.046,5.454c0.275,1.681 0.886,3.132 1.833,4.355c0.948,1.222 2.231,2.2 3.85,2.933c1.62,0.733 3.621,1.1 6.005,1.1c2.383,-0 4.522,-0.29 6.416,-0.871c1.895,-0.58 3.529,-1.329 4.904,-2.246c1.375,-0.916 2.521,-1.955 3.438,-3.116c0.917,-1.161 1.619,-2.353 2.108,-3.575Zm48.217,-28.234c3.117,0 5.958,0.55 8.525,1.65c2.567,1.1 4.736,2.582 6.508,4.446c1.772,1.864 3.071,4.049 3.896,6.554c0.825,2.506 1.024,5.164 0.596,7.975c-0.061,0.55 -0.168,1.253 -0.321,2.109c-0.153,0.855 -0.321,1.711 -0.504,2.566c-0.183,0.856 -0.367,1.696 -0.55,2.521c-0.183,0.825 -0.367,1.513 -0.55,2.063c-0.856,2.811 -1.94,5.408 -3.254,7.791c-1.314,2.384 -3.01,4.446 -5.088,6.188c-2.078,1.741 -4.583,3.116 -7.516,4.125c-2.934,1.008 -6.417,1.512 -10.45,1.512c-3.117,0 -5.959,-0.55 -8.525,-1.65c-2.567,-1.1 -4.721,-2.582 -6.463,-4.446c-1.742,-1.863 -3.025,-4.033 -3.85,-6.508c-0.825,-2.475 -1.054,-5.118 -0.687,-7.929c0.061,-0.55 0.168,-1.238 0.32,-2.063c0.153,-0.825 0.321,-1.665 0.505,-2.52c0.183,-0.856 0.366,-1.711 0.55,-2.567c0.183,-0.856 0.366,-1.558 0.55,-2.108c0.794,-2.811 1.909,-5.424 3.345,-7.838c1.437,-2.414 3.224,-4.492 5.363,-6.233c2.139,-1.742 4.66,-3.117 7.562,-4.125c2.903,-1.009 6.249,-1.513 10.038,-1.513Zm7.608,20.625c0.245,-1.894 0.153,-3.468 -0.275,-4.721c-0.428,-1.252 -1.084,-2.245 -1.971,-2.979c-0.886,-0.733 -1.909,-1.237 -3.07,-1.512c-1.162,-0.275 -2.384,-0.413 -3.667,-0.413c-1.283,0 -2.567,0.138 -3.85,0.413c-1.283,0.275 -2.521,0.779 -3.713,1.512c-1.191,0.734 -2.276,1.727 -3.254,2.979c-0.978,1.253 -1.772,2.827 -2.383,4.721c-0.122,0.489 -0.275,1.1 -0.458,1.834c-0.184,0.733 -0.367,1.497 -0.55,2.291c-0.184,0.795 -0.337,1.574 -0.459,2.338c-0.122,0.764 -0.214,1.36 -0.275,1.787c-0.183,1.895 -0.061,3.468 0.367,4.721c0.428,1.253 1.085,2.246 1.971,2.979c0.886,0.734 1.909,1.238 3.071,1.513c1.161,0.275 2.383,0.412 3.666,0.412c1.284,0 2.567,-0.137 3.85,-0.412c1.284,-0.275 2.521,-0.779 3.713,-1.513c1.191,-0.733 2.276,-1.726 3.254,-2.979c0.978,-1.253 1.742,-2.826 2.292,-4.721c0.122,-0.427 0.275,-1.023 0.458,-1.787c0.183,-0.764 0.367,-1.543 0.55,-2.338c0.183,-0.794 0.336,-1.558 0.458,-2.291c0.122,-0.734 0.214,-1.345 0.275,-1.834Zm61.784,25.484c-0.123,0.672 -0.474,1.252 -1.055,1.741c-0.58,0.489 -1.207,0.734 -1.879,0.734l-6.966,-0c-0.673,-0 -1.207,-0.245 -1.605,-0.734c-0.397,-0.489 -0.534,-1.069 -0.412,-1.741l4.95,-23.284c0.794,-3.666 0.565,-6.6 -0.688,-8.8c-1.252,-2.2 -3.651,-3.3 -7.195,-3.3c-3.239,0 -6.02,1.1 -8.342,3.3c-2.322,2.2 -3.881,5.134 -4.675,8.8l-4.95,23.284c-0.122,0.672 -0.474,1.252 -1.054,1.741c-0.581,0.489 -1.207,0.734 -1.879,0.734l-6.967,-0c-0.672,-0 -1.207,-0.245 -1.604,-0.734c-0.397,-0.489 -0.535,-1.069 -0.413,-1.741l9.075,-42.717c0.122,-0.672 0.489,-1.253 1.1,-1.742c0.611,-0.489 1.253,-0.733 1.925,-0.733l6.967,-0c0.672,-0 1.192,0.244 1.558,0.733c0.367,0.489 0.489,1.07 0.367,1.742l-0.458,2.108c1.588,-1.711 3.498,-3.055 5.729,-4.033c2.23,-0.978 4.812,-1.467 7.746,-1.467c3.238,0 6.019,0.581 8.341,1.742c2.322,1.161 4.141,2.719 5.454,4.675c1.314,1.956 2.155,4.232 2.521,6.829c0.367,2.597 0.245,5.332 -0.366,8.204l-5.225,24.659Zm56.741,-0c-0.122,0.672 -0.473,1.252 -1.054,1.741c-0.58,0.489 -1.207,0.734 -1.879,0.734l-6.967,-0c-0.672,-0 -1.207,-0.245 -1.604,-0.734c-0.397,-0.489 -0.535,-1.069 -0.412,-1.741l4.95,-23.284c0.794,-3.666 0.565,-6.6 -0.688,-8.8c-1.253,-2.2 -3.651,-3.3 -7.196,-3.3c-3.239,0 -6.019,1.1 -8.341,3.3c-2.323,2.2 -3.881,5.134 -4.675,8.8l-4.95,23.284c-0.123,0.672 -0.474,1.252 -1.055,1.741c-0.58,0.489 -1.207,0.734 -1.879,0.734l-6.966,-0c-0.673,-0 -1.207,-0.245 -1.605,-0.734c-0.397,-0.489 -0.534,-1.069 -0.412,-1.741l9.075,-42.717c0.122,-0.672 0.489,-1.253 1.1,-1.742c0.611,-0.489 1.253,-0.733 1.925,-0.733l6.967,-0c0.672,-0 1.191,0.244 1.558,0.733c0.367,0.489 0.489,1.07 0.367,1.742l-0.459,2.108c1.589,-1.711 3.499,-3.055 5.729,-4.033c2.231,-0.978 4.813,-1.467 7.746,-1.467c3.239,0 6.02,0.581 8.342,1.742c2.322,1.161 4.14,2.719 5.454,4.675c1.314,1.956 2.154,4.232 2.521,6.829c0.367,2.597 0.244,5.332 -0.367,8.204l-5.225,24.659Zm14.025,-21.725c0.734,-3.423 1.803,-6.616 3.209,-9.58c1.405,-2.963 3.193,-5.545 5.362,-7.745c2.17,-2.2 4.751,-3.927 7.746,-5.18c2.994,-1.252 6.447,-1.879 10.358,-1.879c3.178,0 6.066,0.627 8.663,1.879c2.597,1.253 4.736,2.934 6.416,5.042c1.681,2.108 2.842,4.583 3.484,7.425c0.641,2.842 0.626,5.821 -0.046,8.938l-0.825,4.125c-0.183,0.672 -0.565,1.252 -1.146,1.741c-0.58,0.489 -1.207,0.734 -1.879,0.734l-30.617,-0c-0.305,1.405 -0.275,2.643 0.092,3.712c0.367,1.07 0.962,1.971 1.787,2.704c0.825,0.734 1.834,1.284 3.025,1.65c1.192,0.367 2.46,0.55 3.805,0.55c1.955,0 3.59,-0.198 4.904,-0.596c1.314,-0.397 2.429,-0.901 3.346,-1.512c0.733,-0.489 1.344,-0.825 1.833,-1.008c0.489,-0.184 1.1,-0.275 1.833,-0.275l7.334,-0c0.672,-0 1.207,0.244 1.604,0.733c0.397,0.489 0.504,1.069 0.321,1.742c-0.245,0.855 -0.871,1.955 -1.88,3.3c-1.008,1.344 -2.444,2.658 -4.308,3.941c-1.864,1.284 -4.155,2.384 -6.875,3.3c-2.719,0.917 -5.912,1.375 -9.579,1.375c-2.995,0 -5.76,-0.626 -8.296,-1.879c-2.536,-1.253 -4.644,-2.979 -6.325,-5.179c-1.68,-2.2 -2.857,-4.843 -3.529,-7.929c-0.672,-3.086 -0.611,-6.463 0.183,-10.129Zm25.3,-13.384c-1.772,0 -3.346,0.26 -4.721,0.779c-1.375,0.52 -2.582,1.192 -3.62,2.017c-1.039,0.825 -1.895,1.742 -2.567,2.75c-0.672,1.008 -1.161,1.971 -1.467,2.888l20.717,-0c0.061,-0.917 0.03,-1.88 -0.092,-2.888c-0.122,-1.008 -0.473,-1.925 -1.054,-2.75c-0.58,-0.825 -1.436,-1.497 -2.567,-2.017c-1.13,-0.519 -2.673,-0.779 -4.629,-0.779Zm39.692,10.542c-0.306,0.917 -0.581,1.986 -0.825,3.208c-0.245,1.223 -0.428,2.292 -0.55,3.209c-0.183,1.894 -0.076,3.514 0.321,4.858c0.397,1.344 1.008,2.429 1.833,3.254c0.825,0.825 1.803,1.436 2.933,1.833c1.131,0.398 2.338,0.596 3.621,0.596c2.995,0 5.256,-0.473 6.784,-1.421c1.527,-0.947 2.902,-2.123 4.125,-3.529c0.488,-0.55 1.038,-1.1 1.65,-1.65c0.611,-0.55 1.252,-0.825 1.925,-0.825l7.058,0c0.672,0 1.222,0.245 1.65,0.734c0.428,0.489 0.519,1.069 0.275,1.741c-0.367,1.284 -1.039,2.842 -2.017,4.675c-0.978,1.834 -2.429,3.591 -4.354,5.271c-1.925,1.681 -4.4,3.102 -7.425,4.263c-3.025,1.161 -6.737,1.741 -11.137,1.741c-3.117,0 -5.943,-0.565 -8.48,-1.696c-2.536,-1.13 -4.659,-2.658 -6.37,-4.583c-1.712,-1.925 -2.964,-4.155 -3.759,-6.692c-0.794,-2.536 -1.008,-5.209 -0.641,-8.02c0.122,-1.1 0.336,-2.323 0.641,-3.667c0.306,-1.344 0.611,-2.597 0.917,-3.758c0.794,-2.811 1.91,-5.5 3.346,-8.067c1.436,-2.567 3.223,-4.813 5.362,-6.738c2.139,-1.925 4.675,-3.452 7.609,-4.583c2.933,-1.13 6.294,-1.696 10.083,-1.696c3.728,0 6.89,0.581 9.487,1.742c2.598,1.161 4.706,2.582 6.325,4.262c1.62,1.681 2.75,3.438 3.392,5.271c0.642,1.834 0.871,3.392 0.688,4.675c-0.123,0.673 -0.489,1.253 -1.1,1.742c-0.612,0.489 -1.253,0.733 -1.925,0.733l-6.692,0c-0.672,0 -1.176,-0.275 -1.513,-0.825c-0.336,-0.55 -0.657,-1.1 -0.962,-1.65c-0.306,-0.733 -0.672,-1.39 -1.1,-1.971c-0.428,-0.58 -0.978,-1.1 -1.65,-1.558c-0.672,-0.458 -1.513,-0.81 -2.521,-1.054c-1.008,-0.244 -2.276,-0.367 -3.804,-0.367c-1.283,0 -2.567,0.199 -3.85,0.596c-1.283,0.397 -2.521,1.008 -3.713,1.833c-1.191,0.825 -2.276,1.91 -3.254,3.255c-0.978,1.344 -1.772,2.964 -2.383,4.858Zm56.65,9.808c-0.367,1.895 -0.321,3.407 0.137,4.538c0.459,1.13 1.757,1.696 3.896,1.696l7.425,-0c0.672,-0 1.192,0.244 1.559,0.733c0.366,0.489 0.488,1.069 0.366,1.742l-1.283,6.05c-0.122,0.672 -0.474,1.252 -1.054,1.741c-0.581,0.489 -1.207,0.734 -1.879,0.734l-5.867,-0c-5.745,-0 -10.007,-1.482 -12.788,-4.446c-2.78,-2.964 -3.59,-7.135 -2.429,-12.513l4.217,-19.708l-6.05,-0c-0.672,-0 -1.207,-0.244 -1.604,-0.733c-0.397,-0.489 -0.535,-1.07 -0.413,-1.742l1.284,-6.05c0.122,-0.672 0.488,-1.253 1.1,-1.742c0.611,-0.489 1.252,-0.733 1.925,-0.733l6.05,-0l3.208,-14.942c0.122,-0.672 0.474,-1.252 1.054,-1.741c0.581,-0.489 1.207,-0.734 1.879,-0.734l6.967,0c0.672,0 1.207,0.245 1.604,0.734c0.397,0.489 0.535,1.069 0.413,1.741l-3.209,14.942l11.825,-0c0.672,-0 1.192,0.244 1.559,0.733c0.366,0.489 0.488,1.07 0.366,1.742l-1.283,6.05c-0.122,0.672 -0.474,1.253 -1.054,1.742c-0.581,0.489 -1.207,0.733 -1.879,0.733l-11.825,-0l-4.217,19.433Zm32.817,14.759c-0.123,0.672 -0.474,1.252 -1.055,1.741c-0.58,0.489 -1.207,0.734 -1.879,0.734l-6.966,-0c-0.673,-0 -1.207,-0.245 -1.605,-0.734c-0.397,-0.489 -0.534,-1.069 -0.412,-1.741l9.075,-42.717c0.122,-0.672 0.489,-1.253 1.1,-1.742c0.611,-0.489 1.253,-0.733 1.925,-0.733l6.967,-0c0.672,-0 1.191,0.244 1.558,0.733c0.367,0.489 0.489,1.07 0.367,1.742l-9.075,42.717Zm11.275,-62.609c0.672,0 1.207,0.245 1.604,0.734c0.397,0.489 0.534,1.069 0.412,1.741l-1.558,7.15c-0.122,0.673 -0.489,1.253 -1.1,1.742c-0.611,0.489 -1.253,0.733 -1.925,0.733l-7.883,0c-0.673,0 -1.192,-0.244 -1.559,-0.733c-0.366,-0.489 -0.489,-1.069 -0.366,-1.742l1.558,-7.15c0.122,-0.672 0.474,-1.252 1.054,-1.741c0.581,-0.489 1.207,-0.734 1.879,-0.734l7.884,0Zm31.075,16.5c3.116,0 5.958,0.55 8.525,1.65c2.566,1.1 4.736,2.582 6.508,4.446c1.772,1.864 3.071,4.049 3.896,6.554c0.825,2.506 1.023,5.164 0.596,7.975c-0.062,0.55 -0.168,1.253 -0.321,2.109c-0.153,0.855 -0.321,1.711 -0.504,2.566c-0.184,0.856 -0.367,1.696 -0.55,2.521c-0.184,0.825 -0.367,1.513 -0.55,2.063c-0.856,2.811 -1.941,5.408 -3.255,7.791c-1.313,2.384 -3.009,4.446 -5.087,6.188c-2.078,1.741 -4.583,3.116 -7.517,4.125c-2.933,1.008 -6.416,1.512 -10.45,1.512c-3.116,0 -5.958,-0.55 -8.525,-1.65c-2.566,-1.1 -4.721,-2.582 -6.462,-4.446c-1.742,-1.863 -3.025,-4.033 -3.85,-6.508c-0.825,-2.475 -1.054,-5.118 -0.688,-7.929c0.061,-0.55 0.168,-1.238 0.321,-2.063c0.153,-0.825 0.321,-1.665 0.504,-2.52c0.184,-0.856 0.367,-1.711 0.55,-2.567c0.184,-0.856 0.367,-1.558 0.55,-2.108c0.795,-2.811 1.91,-5.424 3.346,-7.838c1.436,-2.414 3.224,-4.492 5.363,-6.233c2.138,-1.742 4.659,-3.117 7.562,-4.125c2.903,-1.009 6.249,-1.513 10.038,-1.513Zm7.608,20.625c0.244,-1.894 0.153,-3.468 -0.275,-4.721c-0.428,-1.252 -1.085,-2.245 -1.971,-2.979c-0.886,-0.733 -1.91,-1.237 -3.071,-1.512c-1.161,-0.275 -2.383,-0.413 -3.666,-0.413c-1.284,0 -2.567,0.138 -3.85,0.413c-1.284,0.275 -2.521,0.779 -3.713,1.512c-1.192,0.734 -2.276,1.727 -3.254,2.979c-0.978,1.253 -1.772,2.827 -2.383,4.721c-0.123,0.489 -0.275,1.1 -0.459,1.834c-0.183,0.733 -0.366,1.497 -0.55,2.291c-0.183,0.795 -0.336,1.574 -0.458,2.338c-0.122,0.764 -0.214,1.36 -0.275,1.787c-0.183,1.895 -0.061,3.468 0.367,4.721c0.427,1.253 1.084,2.246 1.97,2.979c0.887,0.734 1.91,1.238 3.071,1.513c1.161,0.275 2.384,0.412 3.667,0.412c1.283,0 2.567,-0.137 3.85,-0.412c1.283,-0.275 2.521,-0.779 3.712,-1.513c1.192,-0.733 2.277,-1.726 3.255,-2.979c0.977,-1.253 1.741,-2.826 2.291,-4.721c0.122,-0.427 0.275,-1.023 0.459,-1.787c0.183,-0.764 0.366,-1.543 0.55,-2.338c0.183,-0.794 0.336,-1.558 0.458,-2.291c0.122,-0.734 0.214,-1.345 0.275,-1.834Zm61.783,25.484c-0.122,0.672 -0.473,1.252 -1.054,1.741c-0.58,0.489 -1.207,0.734 -1.879,0.734l-6.967,-0c-0.672,-0 -1.207,-0.245 -1.604,-0.734c-0.397,-0.489 -0.535,-1.069 -0.412,-1.741l4.95,-23.284c0.794,-3.666 0.565,-6.6 -0.688,-8.8c-1.253,-2.2 -3.651,-3.3 -7.196,-3.3c-3.239,0 -6.019,1.1 -8.341,3.3c-2.323,2.2 -3.881,5.134 -4.675,8.8l-4.95,23.284c-0.123,0.672 -0.474,1.252 -1.055,1.741c-0.58,0.489 -1.207,0.734 -1.879,0.734l-6.966,-0c-0.673,-0 -1.207,-0.245 -1.605,-0.734c-0.397,-0.489 -0.534,-1.069 -0.412,-1.741l9.075,-42.717c0.122,-0.672 0.489,-1.253 1.1,-1.742c0.611,-0.489 1.253,-0.733 1.925,-0.733l6.967,-0c0.672,-0 1.191,0.244 1.558,0.733c0.367,0.489 0.489,1.07 0.367,1.742l-0.459,2.108c1.589,-1.711 3.499,-3.055 5.729,-4.033c2.231,-0.978 4.813,-1.467 7.746,-1.467c3.239,0 6.02,0.581 8.342,1.742c2.322,1.161 4.14,2.719 5.454,4.675c1.314,1.956 2.154,4.232 2.521,6.829c0.367,2.597 0.244,5.332 -0.367,8.204l-5.225,24.659Zm33.195,-51.664l11.915,-14.53c0.332,-0.415 0.691,-0.623 1.079,-0.623l1.287,0c0.47,0 0.713,0.153 0.726,0.457c0.014,0.305 -0.103,0.609 -0.353,0.913l-13.657,16.606l-2.201,10.171c-0.138,0.609 -0.512,0.913 -1.121,0.913l-0.705,-0c-0.277,-0 -0.485,-0.083 -0.623,-0.249c-0.138,-0.166 -0.18,-0.388 -0.125,-0.664l2.118,-10.171l-6.601,-16.606c-0.138,-0.304 -0.111,-0.608 0.083,-0.913c0.194,-0.304 0.484,-0.457 0.872,-0.457l0.706,0c0.387,0 0.664,0.208 0.83,0.623l5.77,14.53Zm32.298,11.416c0.636,0 0.885,0.318 0.747,0.955l-0.125,0.623c-0.138,0.609 -0.512,0.913 -1.12,0.913l-16.523,-0c-0.277,-0 -0.484,-0.083 -0.623,-0.249c-0.138,-0.166 -0.179,-0.388 -0.124,-0.664l5.77,-27.192c0.139,-0.636 0.512,-0.955 1.121,-0.955l16.19,0c0.637,0 0.886,0.319 0.748,0.955l-0.125,0.623c-0.138,0.609 -0.512,0.913 -1.121,0.913l-14.488,0l-2.283,10.586l13.575,0c0.636,0 0.885,0.319 0.747,0.955l-0.125,0.623c-0.138,0.609 -0.512,0.913 -1.12,0.913l-13.575,0l-2.367,11.001l14.821,0Zm21.006,-26.984c1.632,0 3.023,0.229 4.172,0.685c1.148,0.457 2.068,1.038 2.76,1.744c0.692,0.706 1.163,1.487 1.412,2.345c0.249,0.858 0.304,1.689 0.166,2.491c-0.056,0.222 -0.139,0.415 -0.249,0.581c-0.111,0.166 -0.319,0.249 -0.623,0.249l-0.996,0c-0.139,0 -0.305,-0.055 -0.498,-0.166c-0.194,-0.11 -0.277,-0.332 -0.25,-0.664c0.056,-0.692 -0.048,-1.328 -0.311,-1.909c-0.263,-0.582 -0.657,-1.087 -1.183,-1.516c-0.526,-0.429 -1.162,-0.761 -1.91,-0.996c-0.747,-0.235 -1.577,-0.353 -2.49,-0.353c-1.024,0 -2,0.097 -2.927,0.291c-0.927,0.193 -1.758,0.498 -2.491,0.913c-0.733,0.415 -1.349,0.934 -1.847,1.557c-0.498,0.623 -0.844,1.363 -1.038,2.221c-0.166,0.83 -0.152,1.536 0.041,2.117c0.194,0.581 0.582,1.107 1.163,1.577c0.581,0.471 1.363,0.914 2.345,1.329c0.983,0.415 2.166,0.858 3.55,1.328c1.439,0.499 2.677,1.004 3.715,1.516c1.038,0.512 1.868,1.093 2.491,1.743c0.623,0.651 1.031,1.398 1.225,2.242c0.193,0.844 0.166,1.833 -0.083,2.968c-0.554,2.519 -1.841,4.414 -3.861,5.687c-2.021,1.274 -4.65,1.91 -7.888,1.91c-1.688,0 -3.141,-0.207 -4.359,-0.623c-1.217,-0.415 -2.214,-0.961 -2.989,-1.639c-0.775,-0.678 -1.321,-1.467 -1.639,-2.367c-0.319,-0.899 -0.423,-1.847 -0.312,-2.843c0.028,-0.222 0.118,-0.415 0.27,-0.582c0.152,-0.166 0.353,-0.249 0.602,-0.249l0.996,0c0.277,0 0.471,0.083 0.581,0.249c0.111,0.167 0.167,0.36 0.167,0.582c-0.056,0.581 0.034,1.169 0.269,1.764c0.236,0.595 0.616,1.128 1.142,1.598c0.526,0.471 1.225,0.858 2.096,1.163c0.872,0.304 1.931,0.456 3.176,0.456c2.712,0 4.837,-0.491 6.373,-1.473c1.536,-0.983 2.483,-2.304 2.843,-3.965c0.166,-0.83 0.132,-1.529 -0.104,-2.096c-0.235,-0.568 -0.678,-1.08 -1.328,-1.536c-0.65,-0.457 -1.501,-0.893 -2.553,-1.308c-1.052,-0.415 -2.297,-0.872 -3.736,-1.37c-1.384,-0.471 -2.553,-0.969 -3.508,-1.495c-0.955,-0.525 -1.709,-1.113 -2.263,-1.764c-0.553,-0.65 -0.906,-1.404 -1.058,-2.262c-0.152,-0.858 -0.104,-1.855 0.145,-2.989c0.471,-2.104 1.612,-3.82 3.425,-5.148c1.813,-1.328 4.269,-1.993 7.369,-1.993Zm37.03,0.415c0.636,0 0.885,0.319 0.747,0.955l-5.771,27.192c-0.138,0.609 -0.512,0.913 -1.12,0.913l-0.748,-0c-0.276,-0 -0.484,-0.083 -0.622,-0.249c-0.139,-0.166 -0.18,-0.388 -0.125,-0.664l2.698,-12.579l-16.024,0l-2.698,12.579c-0.138,0.609 -0.512,0.913 -1.121,0.913l-0.747,-0c-0.277,-0 -0.485,-0.083 -0.623,-0.249c-0.138,-0.166 -0.18,-0.388 -0.124,-0.664l5.77,-27.192c0.138,-0.636 0.512,-0.955 1.121,-0.955l0.747,0c0.637,0 0.886,0.319 0.747,0.955l-2.574,12.122l16.025,0l2.573,-12.122c0.139,-0.636 0.512,-0.955 1.121,-0.955l0.748,0Z" clip-rule="nonzero"/>
    </clipPath>
    <g id="bg" clip-path="url(#_clip1)">
        <rect x="63.335" y="135.808" width="865.744" height="91.008" fill="url(#linear-gradient)" />
    </g>
    <g>
        <path d="M375.972,42.206c0.584,0 1.048,0.213 1.394,0.637c0.345,0.425 0.464,0.93 0.358,1.514l-1.274,5.656c-0.107,0.584 -0.412,1.088 -0.917,1.513c-0.504,0.425 -1.048,0.638 -1.633,0.638l-25.411,-0l-3.345,15.453l23.818,0c0.584,0 1.048,0.213 1.394,0.638c0.345,0.424 0.464,0.929 0.358,1.513l-1.195,5.656c-0.159,0.584 -0.491,1.089 -0.995,1.513c-0.505,0.425 -1.049,0.638 -1.633,0.638l-23.818,-0l-3.904,18.241c-0.106,0.585 -0.411,1.089 -0.916,1.514c-0.504,0.425 -1.049,0.637 -1.633,0.637l-6.452,0c-0.584,0 -1.049,-0.212 -1.394,-0.637c-0.345,-0.425 -0.465,-0.929 -0.359,-1.514l10.993,-51.459c0.107,-0.584 0.412,-1.089 0.916,-1.514c0.505,-0.424 1.049,-0.637 1.633,-0.637l34.015,0Z" style="fill:#fff;fill-rule:nonzero;stroke:#000;stroke-width:0.42px;"/>
        <path d="M376.45,76.937c0.637,-2.974 1.566,-5.748 2.788,-8.324c1.221,-2.576 2.774,-4.819 4.66,-6.731c1.885,-1.912 4.129,-3.412 6.731,-4.501c2.602,-1.088 5.602,-1.633 9.001,-1.633c2.762,0 5.271,0.545 7.528,1.633c2.257,1.089 4.116,2.549 5.576,4.381c1.46,1.833 2.469,3.983 3.027,6.453c0.558,2.469 0.544,5.058 -0.04,7.766l-0.717,3.585c-0.159,0.584 -0.491,1.089 -0.995,1.514c-0.505,0.424 -1.049,0.637 -1.633,0.637l-26.606,-0c-0.266,1.221 -0.239,2.297 0.079,3.226c0.319,0.929 0.837,1.713 1.554,2.35c0.717,0.637 1.593,1.115 2.628,1.434c1.036,0.318 2.138,0.478 3.306,0.478c1.7,-0 3.12,-0.173 4.262,-0.518c1.142,-0.345 2.111,-0.783 2.907,-1.314c0.638,-0.425 1.169,-0.717 1.594,-0.877c0.424,-0.159 0.956,-0.239 1.593,-0.239l6.372,0c0.585,0 1.049,0.213 1.394,0.638c0.346,0.425 0.439,0.929 0.279,1.513c-0.212,0.744 -0.756,1.7 -1.633,2.868c-0.876,1.168 -2.124,2.31 -3.744,3.425c-1.619,1.115 -3.611,2.071 -5.974,2.868c-2.363,0.797 -5.138,1.195 -8.324,1.195c-2.603,-0 -5.006,-0.545 -7.209,-1.633c-2.204,-1.089 -4.037,-2.589 -5.497,-4.501c-1.46,-1.912 -2.483,-4.209 -3.067,-6.89c-0.584,-2.682 -0.531,-5.616 0.16,-8.803Zm21.985,-11.63c-1.54,0 -2.907,0.226 -4.102,0.677c-1.195,0.452 -2.244,1.036 -3.147,1.753c-0.902,0.717 -1.646,1.513 -2.23,2.39c-0.584,0.876 -1.009,1.712 -1.275,2.509l18.003,-0c0.053,-0.797 0.027,-1.633 -0.079,-2.509c-0.107,-0.877 -0.412,-1.673 -0.916,-2.39c-0.505,-0.717 -1.248,-1.301 -2.231,-1.753c-0.982,-0.451 -2.323,-0.677 -4.023,-0.677Z" style="fill:#fff;fill-rule:nonzero;stroke:#000;stroke-width:0.42px;"/>
        <path d="M443.522,55.748c1.646,0 3.133,0.159 4.461,0.478c1.328,0.319 2.483,0.717 3.465,1.195c0.983,0.478 1.792,0.996 2.43,1.553c0.637,0.558 1.115,1.076 1.434,1.554l0.398,-1.832c0.106,-0.585 0.411,-1.089 0.916,-1.514c0.504,-0.425 1.049,-0.637 1.633,-0.637l6.054,-0c0.584,-0 1.049,0.212 1.394,0.637c0.345,0.425 0.465,0.929 0.358,1.514l-7.886,37.12c-0.106,0.585 -0.411,1.089 -0.916,1.514c-0.504,0.425 -1.049,0.637 -1.633,0.637l-6.054,0c-0.584,0 -1.049,-0.212 -1.394,-0.637c-0.345,-0.425 -0.465,-0.929 -0.358,-1.514l0.398,-1.832c-0.531,0.638 -1.115,1.248 -1.753,1.832c-0.637,0.585 -1.433,1.089 -2.389,1.514c-0.956,0.425 -2.085,0.77 -3.386,1.036c-1.301,0.265 -2.881,0.398 -4.739,0.398c-2.496,-0 -4.727,-0.531 -6.692,-1.593c-1.965,-1.062 -3.584,-2.483 -4.859,-4.262c-1.275,-1.779 -2.191,-3.824 -2.748,-6.134c-0.558,-2.31 -0.624,-4.686 -0.199,-7.129c0.159,-0.797 0.345,-1.726 0.557,-2.788c0.213,-1.062 0.425,-1.992 0.638,-2.788c0.637,-2.443 1.54,-4.78 2.708,-7.01c1.168,-2.231 2.629,-4.182 4.381,-5.855c1.753,-1.673 3.771,-3.001 6.054,-3.983c2.284,-0.983 4.859,-1.474 7.727,-1.474Zm-10.674,19.278c-0.266,0.796 -0.465,1.54 -0.598,2.23c-0.132,0.69 -0.252,1.434 -0.358,2.23c-0.213,1.7 -0.173,3.16 0.119,4.382c0.292,1.221 0.784,2.23 1.474,3.027c0.69,0.796 1.567,1.38 2.629,1.752c1.062,0.372 2.23,0.558 3.505,0.558c2.602,-0 4.952,-0.77 7.05,-2.31c2.097,-1.54 3.597,-3.744 4.5,-6.612c0.266,-0.797 0.518,-1.806 0.757,-3.027c0.239,-1.221 0.412,-2.23 0.518,-3.027c0.318,-2.762 -0.239,-4.939 -1.673,-6.532c-1.434,-1.593 -3.452,-2.39 -6.054,-2.39c-2.602,0 -4.965,0.757 -7.09,2.27c-2.124,1.514 -3.717,3.997 -4.779,7.449Z" style="fill:#fff;fill-rule:nonzero;stroke:#000;stroke-width:0.42px;"/>
        <path d="M485.502,82.991c-0.318,1.647 -0.279,2.961 0.12,3.944c0.398,0.982 1.526,1.473 3.385,1.473l6.452,0c0.585,0 1.036,0.213 1.355,0.637c0.318,0.425 0.425,0.93 0.318,1.514l-1.115,5.257c-0.106,0.585 -0.411,1.089 -0.916,1.514c-0.505,0.425 -1.049,0.637 -1.633,0.637l-5.098,0c-4.992,0 -8.696,-1.288 -11.113,-3.863c-2.416,-2.576 -3.119,-6.2 -2.11,-10.874l3.664,-17.126l-5.258,-0c-0.584,-0 -1.048,-0.213 -1.394,-0.637c-0.345,-0.425 -0.464,-0.93 -0.358,-1.514l1.115,-5.257c0.106,-0.585 0.425,-1.089 0.956,-1.514c0.531,-0.425 1.089,-0.637 1.673,-0.637l5.257,-0l2.788,-12.985c0.107,-0.584 0.412,-1.088 0.916,-1.513c0.505,-0.425 1.049,-0.637 1.633,-0.637l6.054,-0c0.585,-0 1.049,0.212 1.394,0.637c0.346,0.425 0.465,0.929 0.359,1.513l-2.788,12.985l10.276,-0c0.584,-0 1.035,0.212 1.354,0.637c0.319,0.425 0.425,0.929 0.319,1.514l-1.116,5.257c-0.106,0.584 -0.411,1.089 -0.916,1.514c-0.504,0.424 -1.048,0.637 -1.633,0.637l-10.276,-0l-3.664,16.887Z" style="fill:#fff;fill-rule:nonzero;stroke:#000;stroke-width:0.42px;"/>
        <path d="M510.993,58.696c0.106,-0.585 0.425,-1.089 0.956,-1.514c0.531,-0.425 1.088,-0.637 1.673,-0.637l6.054,-0c0.584,-0 1.035,0.212 1.354,0.637c0.318,0.425 0.425,0.929 0.318,1.514l-4.301,20.233c-0.69,3.186 -0.558,5.735 0.398,7.647c0.956,1.912 2.974,2.868 6.054,2.868c2.815,-0 5.165,-0.956 7.05,-2.868c1.885,-1.912 3.173,-4.461 3.864,-7.647l4.301,-20.233c0.106,-0.585 0.425,-1.089 0.956,-1.514c0.531,-0.425 1.089,-0.637 1.673,-0.637l6.054,-0c0.584,-0 1.035,0.212 1.354,0.637c0.319,0.425 0.425,0.929 0.319,1.514l-7.887,37.12c-0.106,0.585 -0.411,1.089 -0.916,1.514c-0.504,0.425 -1.048,0.637 -1.633,0.637l-6.054,0c-0.584,0 -1.048,-0.212 -1.394,-0.637c-0.345,-0.425 -0.464,-0.929 -0.358,-1.514l0.398,-1.832c-1.221,1.487 -2.668,2.656 -4.341,3.505c-1.673,0.85 -3.996,1.275 -6.97,1.275c-2.815,-0 -5.205,-0.505 -7.17,-1.514c-1.965,-1.009 -3.491,-2.363 -4.58,-4.062c-1.089,-1.7 -1.779,-3.678 -2.071,-5.935c-0.292,-2.257 -0.173,-4.633 0.358,-7.129l4.541,-21.428Z" style="fill:#fff;fill-rule:nonzero;stroke:#000;stroke-width:0.42px;"/>
        <path d="M577.906,66.104c-3.186,-0 -5.629,0.703 -7.329,2.111c-1.699,1.407 -2.894,3.704 -3.584,6.89l-4.461,20.711c-0.106,0.585 -0.412,1.089 -0.916,1.514c-0.505,0.425 -1.049,0.637 -1.633,0.637l-6.054,0c-0.584,0 -1.049,-0.212 -1.394,-0.637c-0.345,-0.425 -0.465,-0.929 -0.359,-1.514l7.887,-37.12c0.106,-0.585 0.424,-1.089 0.955,-1.514c0.532,-0.425 1.089,-0.637 1.673,-0.637l6.054,-0c0.585,-0 1.036,0.212 1.355,0.637c0.318,0.425 0.424,0.929 0.318,1.514l-0.398,1.832c0.637,-0.691 1.274,-1.288 1.912,-1.793c0.637,-0.504 1.341,-0.916 2.111,-1.234c0.77,-0.319 1.619,-0.558 2.549,-0.717c0.929,-0.16 2.031,-0.239 3.306,-0.239l5.177,-0c0.585,-0 1.036,0.212 1.355,0.637c0.318,0.425 0.424,0.929 0.318,1.514l-1.115,5.257c-0.106,0.584 -0.412,1.089 -0.916,1.514c-0.505,0.424 -1.049,0.637 -1.633,0.637l-5.178,-0Z" style="fill:#fff;fill-rule:nonzero;stroke:#000;stroke-width:0.42px;"/>
        <path d="M595.829,95.816c-0.106,0.585 -0.411,1.089 -0.916,1.514c-0.504,0.425 -1.049,0.637 -1.633,0.637l-6.054,0c-0.584,0 -1.049,-0.212 -1.394,-0.637c-0.345,-0.425 -0.465,-0.929 -0.358,-1.514l7.886,-37.12c0.106,-0.585 0.425,-1.089 0.956,-1.514c0.531,-0.425 1.088,-0.637 1.673,-0.637l6.054,-0c0.584,-0 1.035,0.212 1.354,0.637c0.318,0.425 0.425,0.929 0.318,1.514l-7.886,37.12Zm9.798,-54.406c0.584,-0 1.049,0.212 1.394,0.637c0.345,0.425 0.465,0.929 0.359,1.513l-1.354,6.214c-0.107,0.584 -0.425,1.088 -0.956,1.513c-0.531,0.425 -1.089,0.638 -1.673,0.638l-6.851,-0c-0.584,-0 -1.035,-0.213 -1.354,-0.638c-0.319,-0.425 -0.425,-0.929 -0.319,-1.513l1.355,-6.214c0.106,-0.584 0.411,-1.088 0.916,-1.513c0.504,-0.425 1.048,-0.637 1.633,-0.637l6.85,-0Z" style="fill:#fff;fill-rule:nonzero;stroke:#000;stroke-width:0.42px;"/>
        <path d="M645.696,95.816c-0.107,0.585 -0.412,1.089 -0.917,1.514c-0.504,0.425 -1.048,0.637 -1.633,0.637l-6.054,0c-0.584,0 -1.048,-0.212 -1.394,-0.637c-0.345,-0.425 -0.464,-0.929 -0.358,-1.514l4.301,-20.233c0.691,-3.186 0.492,-5.735 -0.597,-7.647c-1.089,-1.912 -3.173,-2.868 -6.253,-2.868c-2.815,0 -5.231,0.956 -7.249,2.868c-2.018,1.912 -3.372,4.461 -4.063,7.647l-4.301,20.233c-0.106,0.585 -0.412,1.089 -0.916,1.514c-0.505,0.425 -1.049,0.637 -1.633,0.637l-6.054,0c-0.585,0 -1.049,-0.212 -1.394,-0.637c-0.346,-0.425 -0.465,-0.929 -0.359,-1.514l7.886,-37.12c0.107,-0.585 0.425,-1.089 0.956,-1.514c0.531,-0.425 1.089,-0.637 1.673,-0.637l6.054,-0c0.584,-0 1.036,0.212 1.354,0.637c0.319,0.425 0.425,0.929 0.319,1.514l-0.398,1.832c1.38,-1.487 3.04,-2.656 4.978,-3.505c1.939,-0.85 4.182,-1.275 6.731,-1.275c2.815,0 5.231,0.505 7.249,1.514c2.018,1.009 3.598,2.363 4.74,4.062c1.142,1.7 1.872,3.678 2.191,5.935c0.318,2.257 0.212,4.633 -0.319,7.129l-4.54,21.428Z" style="fill:#fff;fill-rule:nonzero;stroke:#000;stroke-width:0.42px;"/>
        <path d="M671.824,105.933c1.115,0 2.296,-0.173 3.544,-0.518c1.248,-0.345 2.43,-0.889 3.545,-1.633c1.115,-0.743 2.098,-1.686 2.948,-2.828c0.849,-1.141 1.433,-2.482 1.752,-4.022l0.637,-2.948c-0.478,0.584 -1.035,1.155 -1.673,1.713c-0.637,0.558 -1.433,1.062 -2.389,1.513c-0.956,0.452 -2.098,0.824 -3.426,1.116c-1.327,0.292 -2.92,0.438 -4.779,0.438c-2.496,-0 -4.713,-0.531 -6.652,-1.593c-1.938,-1.062 -3.544,-2.483 -4.819,-4.262c-1.275,-1.779 -2.177,-3.824 -2.708,-6.134c-0.531,-2.31 -0.585,-4.686 -0.16,-7.129c0.16,-0.797 0.346,-1.726 0.558,-2.788c0.212,-1.062 0.425,-1.992 0.637,-2.788c0.637,-2.443 1.54,-4.78 2.709,-7.01c1.168,-2.231 2.602,-4.182 4.301,-5.855c1.7,-1.673 3.691,-3.001 5.975,-3.983c2.283,-0.983 4.859,-1.474 7.726,-1.474c1.647,0 3.134,0.159 4.461,0.478c1.328,0.319 2.483,0.717 3.465,1.195c0.983,0.478 1.793,0.996 2.43,1.553c0.637,0.558 1.115,1.076 1.434,1.554l0.398,-1.832c0.106,-0.585 0.425,-1.089 0.956,-1.514c0.531,-0.425 1.089,-0.637 1.673,-0.637l6.054,-0c0.584,-0 1.036,0.212 1.354,0.637c0.319,0.425 0.425,0.929 0.319,1.514l-7.886,37.359c-1.381,6.426 -3.89,11.272 -7.528,14.538c-3.638,3.266 -8.988,4.899 -16.051,4.899c-2.496,0 -4.846,-0.358 -7.05,-1.075c-2.204,-0.717 -4.103,-1.673 -5.696,-2.868c-1.593,-1.195 -2.814,-2.549 -3.664,-4.063c-0.85,-1.513 -1.168,-3.066 -0.956,-4.66c0.106,-0.584 0.412,-1.088 0.916,-1.513c0.505,-0.425 1.049,-0.637 1.633,-0.637l5.417,-0c0.743,-0 1.341,0.252 1.792,0.756c0.452,0.505 0.81,0.97 1.076,1.394c0.531,0.903 1.314,1.647 2.35,2.231c1.035,0.584 2.827,0.876 5.377,0.876Zm-2.948,-30.907c-0.265,0.796 -0.464,1.54 -0.597,2.23c-0.133,0.69 -0.253,1.434 -0.359,2.23c-0.212,1.7 -0.172,3.16 0.12,4.382c0.292,1.221 0.783,2.23 1.473,3.027c0.691,0.796 1.567,1.38 2.629,1.752c1.062,0.372 2.231,0.558 3.505,0.558c2.602,-0 4.952,-0.77 7.05,-2.31c2.098,-1.54 3.598,-3.744 4.501,-6.612c0.265,-0.797 0.517,-1.806 0.756,-3.027c0.239,-1.221 0.412,-2.23 0.518,-3.027c0.319,-2.762 -0.239,-4.939 -1.673,-6.532c-1.433,-1.593 -3.452,-2.39 -6.054,-2.39c-2.602,0 -4.965,0.757 -7.089,2.27c-2.125,1.514 -3.718,3.997 -4.78,7.449Z" style="fill:#fff;fill-rule:nonzero;stroke:#000;stroke-width:0.42px;"/>
    </g>
</svg>
