<?xml version="1.0" encoding="UTF-8" standalone="no"?><!DOCTYPE svg PUBLIC "-//W3C//DTD SVG 1.1//EN" "http://www.w3.org/Graphics/SVG/1.1/DTD/svg11.dtd">
<svg width="100%" height="100%" viewBox="0 0 318 64" version="1.1"
    xmlns="http://www.w3.org/2000/svg"
    xmlns:xlink="http://www.w3.org/1999/xlink" xml:space="preserve"
    xmlns:serif="http://www.serif.com/" style="fill-rule:evenodd;clip-rule:evenodd;stroke-linecap:round;stroke-linejoin:round;stroke-miterlimit:1.5;">
    <rect id="Artboard1" x="0" y="0" width="318" height="64" style="fill:none;"/>
    <style>
        #play>path {
             fill:none;
             stroke: #b480ff;
             stroke-width: .05em;
        }
        #ball {
            fill:#ff00a8;
            stroke:#fff;
            stroke-width:.25vw;
            offset-path: path("M305.66,22.108c0,-5.352 -4.345,-9.697 -9.697,-9.697l-273.007,0c-5.352,0 -9.697,4.345 -9.697,9.697l0,19.394c0,5.352 4.345,9.697 9.697,9.697l273.007,0c5.352,0 9.697,-4.345 9.697,-9.697l0,-19.394Z");
            motion-path: path("M305.66,22.108c0,-5.352 -4.345,-9.697 -9.697,-9.697l-273.007,0c-5.352,0 -9.697,4.345 -9.697,9.697l0,19.394c0,5.352 4.345,9.697 9.697,9.697l273.007,0c5.352,0 9.697,-4.345 9.697,-9.697l0,-19.394Z");
            animation: 7s move linear infinite;
            motion-offset: 0%;
            offset-distance: 0%;
        }
        @keyframes move {
            100% {
                motion-offset: 100%;
                offset-distance: 100%;
            }
        }
        g>* {
            fill:#fff;
            fill-rule:nonzero;
            stroke:#33ecff;
            stroke-width:1px;
            stroke-linecap:butt;
            stroke-miterlimit:2;
        }
        #play *{
            animation-play-state: paused;
        }
        #play:target *{
            animation-play-state: running;
        }
    </style>
    <g id="play">
        <path id="track" d="M305.66,22.108c0,-5.352 -4.345,-9.697 -9.697,-9.697l-273.007,0c-5.352,0 -9.697,4.345 -9.697,9.697l0,19.394c0,5.352 4.345,9.697 9.697,9.697l273.007,0c5.352,0 9.697,-4.345 9.697,-9.697l0,-19.394Z"/>
        <g id="txt">
            <path d="M47.529,35.265l-0,-11.667l2.917,0l-0,10.75c-0,0.25 0.09,0.466 0.27,0.646c0.181,0.181 0.396,0.271 0.646,0.271l6.917,-0c0.25,-0 0.465,-0.09 0.646,-0.271c0.18,-0.18 0.271,-0.396 0.271,-0.646l-0,-10.75l2.916,0l0,11.667c0,0.403 -0.076,0.781 -0.229,1.135c-0.153,0.355 -0.361,0.664 -0.625,0.927c-0.264,0.264 -0.573,0.473 -0.927,0.625c-0.354,0.153 -0.733,0.23 -1.135,0.23l-8.75,-0c-0.403,-0 -0.782,-0.077 -1.136,-0.23c-0.354,-0.152 -0.663,-0.361 -0.927,-0.625c-0.264,-0.263 -0.472,-0.572 -0.625,-0.927c-0.153,-0.354 -0.229,-0.732 -0.229,-1.135Z" />
            <path d="M65.091,23.598l10.5,0c0.014,0.014 0.021,0.021 0.021,0.021l0.188,0c0.028,0.014 0.041,0.021 0.041,0.021l0.125,-0c0.014,0.014 0.035,0.021 0.063,0.021l0.042,-0c0.013,-0 0.024,0.003 0.031,0.01c0.007,0.007 0.017,0.011 0.031,0.011l0.042,-0c0.014,-0 0.024,0.003 0.031,0.01c0.007,0.007 0.017,0.01 0.031,0.01l0.042,0c0.014,0.014 0.035,0.021 0.062,0.021c0.028,0 0.042,0.007 0.042,0.021l0.063,0c0.013,0 0.02,0.007 0.02,0.021l0.042,-0c0.014,-0 0.028,0.007 0.042,0.021l0.021,-0c0.013,-0 0.027,0.007 0.041,0.021l0.021,-0c0.028,0.014 0.056,0.024 0.083,0.031c0.028,0.007 0.056,0.017 0.084,0.031l0.021,0c0.083,0.028 0.145,0.056 0.187,0.083l0.042,0c0.069,0.028 0.128,0.056 0.177,0.084c0.048,0.028 0.101,0.055 0.156,0.083c0.014,0.014 0.028,0.021 0.042,0.021l-0,0.021c0.014,-0 0.048,0.014 0.104,0.041c0.014,0.014 0.028,0.021 0.042,0.021c0.027,0.028 0.041,0.042 0.041,0.042c0.014,-0 0.035,0.014 0.063,0.042c0.014,-0 0.041,0.014 0.083,0.041c0.042,0.028 0.07,0.049 0.083,0.063c0.014,0.014 0.028,0.021 0.042,0.021l0.063,0.062l0.02,0c0,0 0.014,0.014 0.042,0.042c0.014,0.014 0.028,0.021 0.042,0.021l0.146,0.145c0.027,0 0.041,0.014 0.041,0.042c0.028,0.014 0.042,0.021 0.042,0.021l0.229,0.229c0,0.014 0.004,0.021 0.011,0.021c0.006,-0 0.01,0.007 0.01,0.021c0.028,-0 0.042,0.014 0.042,0.041c0.013,0 0.02,0.004 0.02,0.011c0,0.007 0.007,0.01 0.021,0.01l0,0.021l0.104,0.104c0.014,0.028 0.021,0.042 0.021,0.042c0.028,0.028 0.042,0.042 0.042,0.042c0.014,0.027 0.021,0.041 0.021,0.041c0.028,0.028 0.041,0.042 0.041,0.042c0.014,0.028 0.021,0.042 0.021,0.042l0,0.02l0.063,0.063c0.014,0.014 0.021,0.028 0.021,0.042c0.013,0.014 0.02,0.024 0.02,0.031c0,0.007 0.007,0.017 0.021,0.031c0,0.014 0.004,0.021 0.011,0.021c0.007,-0 0.01,0.007 0.01,0.021l0.042,0.041c-0,0.028 0.007,0.042 0.021,0.042c0.013,0.028 0.02,0.042 0.02,0.042c0.014,0.014 0.021,0.035 0.021,0.062c0,0 0.014,0.014 0.042,0.042c-0,0.014 0.007,0.028 0.021,0.042c0.014,0.027 0.021,0.045 0.021,0.052c-0,0.007 0.007,0.024 0.02,0.052c0.014,0.014 0.021,0.028 0.021,0.041c0.014,0.014 0.021,0.028 0.021,0.042c0.028,0.056 0.056,0.125 0.083,0.208c0.014,0 0.021,0.014 0.021,0.042l0.042,0.083l-0,0.021c0.014,0.014 0.021,0.028 0.021,0.042c-0,0.014 0.007,0.028 0.021,0.042l-0,0.041c0.013,0.014 0.02,0.028 0.02,0.042c0,0.014 0.007,0.028 0.021,0.042l0,0.041c0.014,0.028 0.021,0.049 0.021,0.063c0,0.014 0.007,0.035 0.021,0.062l-0,0.042c0.014,-0 0.021,0.014 0.021,0.042l-0,0.041c0.014,0.014 0.021,0.021 0.021,0.021l-0,0.042c0.013,0.028 0.02,0.041 0.02,0.041l0,0.084c0,0.014 0.004,0.021 0.011,0.021c0.007,-0 0.01,0.007 0.01,0.02l0,0.042c0,0.028 0.007,0.049 0.021,0.063l0,0.104c0,0.014 0.004,0.024 0.011,0.031c0.006,0.007 0.01,0.017 0.01,0.031l-0,0.146c-0,0.028 0.003,0.049 0.01,0.063c0.007,0.014 0.011,0.034 0.011,0.062l-0,0.458c-0,0.028 -0.004,0.049 -0.011,0.063c-0.007,0.014 -0.01,0.035 -0.01,0.062l-0,0.146c-0,0.014 -0.004,0.025 -0.01,0.032c-0.007,0.007 -0.011,0.017 -0.011,0.031l0,0.104c-0.014,0.014 -0.021,0.035 -0.021,0.062l0,0.042c0,0.014 -0.003,0.021 -0.01,0.021c-0.007,-0 -0.011,0.007 -0.011,0.021l0,0.083c-0.013,0.014 -0.02,0.028 -0.02,0.042l-0,0.041c-0,0.014 -0.007,0.021 -0.021,0.021l-0,0.042c-0,0.028 -0.007,0.042 -0.021,0.042l-0,0.041c-0.014,0.028 -0.021,0.049 -0.021,0.063c0,0.014 -0.007,0.035 -0.021,0.062l0,0.042c-0.014,0.028 -0.021,0.042 -0.021,0.042c0,0.014 -0.007,0.027 -0.02,0.041l-0,0.042l-0.042,0.083l-0,0.021c-0.028,0.056 -0.042,0.083 -0.042,0.083c0,0.014 -0.014,0.049 -0.041,0.105l-0,0.041c-0.014,0.028 -0.028,0.049 -0.042,0.063c-0,0.014 -0.007,0.028 -0.021,0.041c-0.014,0.028 -0.021,0.042 -0.021,0.042c0,0.014 -0.003,0.024 -0.01,0.031c-0.007,0.007 -0.011,0.018 -0.011,0.032c-0.013,0.014 -0.034,0.048 -0.062,0.104c-0.014,0.028 -0.028,0.055 -0.042,0.083c0,0.028 -0.014,0.056 -0.041,0.083c-0.014,0.014 -0.021,0.025 -0.021,0.032c-0,0.007 -0.007,0.017 -0.021,0.031c-0.014,0.014 -0.021,0.028 -0.021,0.042c0,-0 -0.014,0.014 -0.042,0.041c0,0.014 -0.013,0.042 -0.041,0.084c-0.028,0.041 -0.049,0.069 -0.063,0.083l-0.021,0.021c-0.027,0.028 -0.045,0.052 -0.052,0.073c-0.007,0.021 -0.024,0.045 -0.052,0.073l-0.021,0.02l0,0.021c-0.013,0 -0.02,0.004 -0.02,0.011c-0,0.007 -0.007,0.01 -0.021,0.01c-0,0.014 -0.014,0.035 -0.042,0.063l-0.042,0.041c-0.013,0.014 -0.02,0.028 -0.02,0.042c-0.403,0.444 -0.886,0.799 -1.448,1.062c-0.563,0.264 -1.17,0.396 -1.823,0.396l-7.292,0l0,5.834l-2.917,-0l0,-14.584Zm2.917,5.834l7.292,-0c0.403,-0 0.746,-0.143 1.031,-0.427c0.285,-0.285 0.427,-0.629 0.427,-1.032c0,-0.402 -0.142,-0.746 -0.427,-1.031c-0.285,-0.285 -0.628,-0.427 -1.031,-0.427l-7.292,-0l0,2.917Z" />
            <path d="M93.05,23.598c0.403,0 0.781,0.077 1.135,0.229c0.354,0.153 0.663,0.362 0.927,0.625c0.264,0.264 0.472,0.573 0.625,0.928c0.153,0.354 0.229,0.732 0.229,1.135l0,1.458l-2.916,0l-0,-0.541c-0,-0.25 -0.091,-0.466 -0.271,-0.646c-0.181,-0.181 -0.396,-0.271 -0.646,-0.271l-7.833,-0l-0,8.75l7.833,-0c0.25,-0 0.465,-0.09 0.646,-0.271c0.18,-0.18 0.271,-0.396 0.271,-0.646l-0,-2l-5.834,0l0,-2.916l8.75,-0l0,5.833c0,0.403 -0.076,0.781 -0.229,1.135c-0.153,0.355 -0.361,0.664 -0.625,0.927c-0.264,0.264 -0.573,0.473 -0.927,0.625c-0.354,0.153 -0.732,0.23 -1.135,0.23l-11.667,-0l0,-14.584l11.667,0Z" />
            <path d="M98.883,26.515c0,-0.403 0.076,-0.781 0.229,-1.135c0.153,-0.355 0.361,-0.664 0.625,-0.928c0.264,-0.263 0.573,-0.472 0.927,-0.625c0.355,-0.152 0.733,-0.229 1.136,-0.229l8.75,0c0.403,0 0.781,0.077 1.135,0.229c0.354,0.153 0.663,0.362 0.927,0.625c0.264,0.264 0.472,0.573 0.625,0.928c0.153,0.354 0.229,0.732 0.229,1.135l0,3.146c0,0.028 -0.003,0.048 -0.01,0.062c-0.007,0.014 -0.01,0.035 -0.01,0.063l-0,0.146c-0,0.014 -0.004,0.024 -0.011,0.031c-0.007,0.007 -0.01,0.017 -0.01,0.031l-0,0.104c-0.014,0.014 -0.021,0.035 -0.021,0.063l-0,0.041c-0,0.014 -0.004,0.021 -0.01,0.021c-0.007,0 -0.011,0.007 -0.011,0.021l0,0.083c-0.014,0.014 -0.021,0.028 -0.021,0.042l0,0.042c0,0.014 -0.007,0.021 -0.021,0.021l0,0.041c0,0.028 -0.007,0.042 -0.02,0.042l-0,0.042c-0.014,0.027 -0.021,0.048 -0.021,0.062c-0,0.014 -0.007,0.035 -0.021,0.063l-0,0.041c-0.014,0.028 -0.021,0.042 -0.021,0.042c0,0.014 -0.007,0.028 -0.021,0.042l0,0.041l-0.041,0.084l-0,0.02c-0.028,0.056 -0.042,0.084 -0.042,0.084c-0,0.014 -0.014,0.048 -0.042,0.104l0,0.042c-0.014,0.027 -0.028,0.048 -0.041,0.062c-0,0.014 -0.007,0.028 -0.021,0.042c-0.014,0.028 -0.021,0.041 -0.021,0.041c-0,0.014 -0.004,0.025 -0.01,0.032c-0.007,0.007 -0.011,0.017 -0.011,0.031c-0.014,0.014 -0.035,0.049 -0.062,0.104c-0.014,0.028 -0.028,0.056 -0.042,0.083c-0,0.028 -0.014,0.056 -0.042,0.084c-0.014,0.014 -0.021,0.024 -0.021,0.031c0,0.007 -0.007,0.017 -0.02,0.031c-0.014,0.014 -0.021,0.028 -0.021,0.042c-0,-0 -0.014,0.014 -0.042,0.042c0,0.014 -0.014,0.041 -0.042,0.083c-0.027,0.042 -0.048,0.069 -0.062,0.083l-0.021,0.021c-0.028,0.028 -0.045,0.052 -0.052,0.073c-0.007,0.021 -0.024,0.045 -0.052,0.073l-0.021,0.021l0,0.021c-0.014,-0 -0.021,0.003 -0.021,0.01c0,0.007 -0.007,0.01 -0.021,0.01c0,0.014 -0.013,0.035 -0.041,0.063l-0.042,0.042c-0.014,0.014 -0.021,0.027 -0.021,0.041l0,0.021c0.014,0 0.021,0.004 0.021,0.011c0,0.007 0.007,0.01 0.021,0.01l-0,0.021l0.104,0.104c0.014,0.028 0.021,0.042 0.021,0.042c0.028,0.027 0.042,0.041 0.042,0.041c0.013,0.028 0.02,0.042 0.02,0.042c0.028,0.028 0.042,0.042 0.042,0.042c0.014,0.027 0.021,0.041 0.021,0.041l-0,0.021c-0,0 0.014,0.014 0.042,0.042c0.013,0.014 0.02,0.028 0.02,0.041l0.021,0l0,0.021c0.042,0.042 0.063,0.077 0.063,0.104l0.041,0.042c0,0.028 0.007,0.042 0.021,0.042c0.014,0.028 0.021,0.041 0.021,0.041c0.014,0.014 0.021,0.035 0.021,0.063c-0,-0 0.014,0.014 0.042,0.042c-0,0.014 0.007,0.027 0.02,0.041c0.014,0.028 0.021,0.045 0.021,0.052c0,0.007 0.007,0.025 0.021,0.052c0.014,0.014 0.021,0.028 0.021,0.042c0.014,0.014 0.021,0.028 0.021,0.042c0.028,0.055 0.055,0.125 0.083,0.208c0.014,0 0.021,0.014 0.021,0.042l0.042,0.083l-0,0.021l0.041,0.083l0,0.042c0.014,0.014 0.021,0.028 0.021,0.042c0,0.014 0.007,0.027 0.021,0.041l-0,0.042c0.014,0.028 0.021,0.049 0.021,0.062c-0,0.014 0.007,0.035 0.021,0.063l-0,0.042c0.013,-0 0.02,0.014 0.02,0.041l0,0.042c0.014,0.014 0.021,0.021 0.021,0.021l0,0.041c0.014,0.028 0.021,0.042 0.021,0.042l0,0.083c0,0.014 0.004,0.021 0.011,0.021c0.006,0 0.01,0.007 0.01,0.021l-0,0.042c-0,0.028 0.007,0.048 0.021,0.062l-0,0.104c-0,0.014 0.003,0.025 0.01,0.032c0.007,0.007 0.011,0.017 0.011,0.031l-0,0.146c-0,0.028 0.003,0.048 0.01,0.062c0.007,0.014 0.01,0.035 0.01,0.063l0,3.146l-2.916,-0l-0,-2.917c-0,-0.097 -0.007,-0.188 -0.021,-0.271c-0.014,-0.083 -0.035,-0.167 -0.063,-0.25c-0.152,-0.361 -0.395,-0.625 -0.729,-0.792c-0.236,-0.097 -0.451,-0.145 -0.646,-0.145l-7.291,-0l-0,4.375l-2.917,-0l0,-11.667Zm2.917,0.917l-0,3.458l7.291,-0c0.403,-0 0.747,-0.142 1.032,-0.427c0.284,-0.285 0.427,-0.629 0.427,-1.031l-0,-2c-0,-0.25 -0.091,-0.466 -0.271,-0.646c-0.181,-0.181 -0.396,-0.271 -0.646,-0.271l-6.917,-0c-0.25,-0 -0.465,0.09 -0.645,0.271c-0.181,0.18 -0.271,0.396 -0.271,0.646Z" />
            <path d="M116.425,38.182l-0,-11.667c-0,-0.403 0.076,-0.781 0.229,-1.135c0.153,-0.355 0.361,-0.664 0.625,-0.928c0.264,-0.263 0.573,-0.472 0.927,-0.625c0.354,-0.152 0.733,-0.229 1.135,-0.229l8.75,0c0.403,0 0.782,0.077 1.136,0.229c0.354,0.153 0.663,0.362 0.927,0.625c0.264,0.264 0.472,0.573 0.625,0.928c0.153,0.354 0.229,0.732 0.229,1.135l0,11.667l-2.917,-0l0,-4.375l-8.75,-0l0,4.375l-2.916,-0Zm11.666,-7.292l0,-3.458c0,-0.25 -0.09,-0.466 -0.27,-0.646c-0.181,-0.181 -0.396,-0.271 -0.646,-0.271l-6.917,-0c-0.25,-0 -0.465,0.09 -0.646,0.271c-0.18,0.18 -0.271,0.396 -0.271,0.646l0,3.458l8.75,-0Z" />
            <path d="M133.966,23.598l11.667,0c0.403,0 0.781,0.077 1.136,0.229c0.354,0.153 0.663,0.362 0.927,0.625c0.263,0.264 0.472,0.573 0.625,0.928c0.152,0.354 0.229,0.732 0.229,1.135l-0,8.75c-0,0.403 -0.077,0.781 -0.229,1.135c-0.153,0.355 -0.362,0.664 -0.625,0.927c-0.264,0.264 -0.573,0.473 -0.927,0.625c-0.355,0.153 -0.733,0.23 -1.136,0.23l-11.667,-0l0,-14.584Zm2.917,11.667l7.833,-0c0.25,-0 0.466,-0.09 0.646,-0.271c0.181,-0.18 0.271,-0.396 0.271,-0.646l0,-6.916c0,-0.25 -0.09,-0.466 -0.271,-0.646c-0.18,-0.181 -0.396,-0.271 -0.646,-0.271l-7.833,-0l0,8.75Z" />
            <path d="M151.487,35.265l0,-8.75c0,-0.403 0.077,-0.781 0.229,-1.135c0.153,-0.355 0.362,-0.664 0.625,-0.928c0.264,-0.263 0.573,-0.472 0.928,-0.625c0.354,-0.152 0.732,-0.229 1.135,-0.229l11.667,0l-0,2.917l-10.75,-0c-0.25,-0 -0.466,0.09 -0.646,0.271c-0.181,0.18 -0.271,0.396 -0.271,0.646l-0,2l8.75,-0l-0,2.916l-8.75,0l-0,2c-0,0.25 0.09,0.466 0.271,0.646c0.18,0.181 0.396,0.271 0.646,0.271l10.75,-0l-0,2.917l-11.667,-0c-0.403,-0 -0.781,-0.077 -1.135,-0.23c-0.355,-0.152 -0.664,-0.361 -0.928,-0.625c-0.263,-0.263 -0.472,-0.572 -0.625,-0.927c-0.152,-0.354 -0.229,-0.732 -0.229,-1.135Z" />
            <path d="M173.466,23.598l10.5,0c0.014,0.014 0.021,0.021 0.021,0.021l0.188,0c0.028,0.014 0.041,0.021 0.041,0.021l0.125,-0c0.014,0.014 0.035,0.021 0.063,0.021l0.042,-0c0.013,-0 0.024,0.003 0.031,0.01c0.007,0.007 0.017,0.011 0.031,0.011l0.042,-0c0.014,-0 0.024,0.003 0.031,0.01c0.007,0.007 0.017,0.01 0.031,0.01l0.042,0c0.014,0.014 0.035,0.021 0.062,0.021c0.028,0 0.042,0.007 0.042,0.021l0.063,0c0.013,0 0.02,0.007 0.02,0.021l0.042,-0c0.014,-0 0.028,0.007 0.042,0.021l0.021,-0c0.013,-0 0.027,0.007 0.041,0.021l0.021,-0c0.028,0.014 0.056,0.024 0.083,0.031c0.028,0.007 0.056,0.017 0.084,0.031l0.021,0c0.083,0.028 0.145,0.056 0.187,0.083l0.042,0c0.069,0.028 0.128,0.056 0.177,0.084c0.048,0.028 0.101,0.055 0.156,0.083c0.014,0.014 0.028,0.021 0.042,0.021l-0,0.021c0.014,-0 0.048,0.014 0.104,0.041c0.014,0.014 0.028,0.021 0.042,0.021c0.027,0.028 0.041,0.042 0.041,0.042c0.014,-0 0.035,0.014 0.063,0.042c0.014,-0 0.041,0.014 0.083,0.041c0.042,0.028 0.07,0.049 0.083,0.063c0.014,0.014 0.028,0.021 0.042,0.021l0.063,0.062l0.02,0c0,0 0.014,0.014 0.042,0.042c0.014,0.014 0.028,0.021 0.042,0.021l0.146,0.145c0.027,0 0.041,0.014 0.041,0.042c0.028,0.014 0.042,0.021 0.042,0.021l0.229,0.229c0,0.014 0.004,0.021 0.011,0.021c0.006,-0 0.01,0.007 0.01,0.021c0.028,-0 0.042,0.014 0.042,0.041c0.013,0 0.02,0.004 0.02,0.011c0,0.007 0.007,0.01 0.021,0.01l0,0.021l0.104,0.104c0.014,0.028 0.021,0.042 0.021,0.042c0.028,0.028 0.042,0.042 0.042,0.042c0.014,0.027 0.021,0.041 0.021,0.041c0.028,0.028 0.041,0.042 0.041,0.042c0.014,0.028 0.021,0.042 0.021,0.042l0,0.02l0.063,0.063c0.014,0.014 0.021,0.028 0.021,0.042c0.013,0.014 0.02,0.024 0.02,0.031c0,0.007 0.007,0.017 0.021,0.031c0,0.014 0.004,0.021 0.011,0.021c0.007,-0 0.01,0.007 0.01,0.021l0.042,0.041c-0,0.028 0.007,0.042 0.021,0.042c0.013,0.028 0.02,0.042 0.02,0.042c0.014,0.014 0.021,0.035 0.021,0.062c0,0 0.014,0.014 0.042,0.042c-0,0.014 0.007,0.028 0.021,0.042c0.014,0.027 0.021,0.045 0.021,0.052c-0,0.007 0.007,0.024 0.02,0.052c0.014,0.014 0.021,0.028 0.021,0.041c0.014,0.014 0.021,0.028 0.021,0.042c0.028,0.056 0.056,0.125 0.083,0.208c0.014,0 0.021,0.014 0.021,0.042l0.042,0.083l-0,0.021c0.014,0.014 0.021,0.028 0.021,0.042c-0,0.014 0.007,0.028 0.021,0.042l-0,0.041c0.013,0.014 0.02,0.028 0.02,0.042c0,0.014 0.007,0.028 0.021,0.042l0,0.041c0.014,0.028 0.021,0.049 0.021,0.063c0,0.014 0.007,0.035 0.021,0.062l-0,0.042c0.014,-0 0.021,0.014 0.021,0.042l-0,0.041c0.014,0.014 0.021,0.021 0.021,0.021l-0,0.042c0.013,0.028 0.02,0.041 0.02,0.041l0,0.084c0,0.014 0.004,0.021 0.011,0.021c0.007,-0 0.01,0.007 0.01,0.02l0,0.042c0,0.028 0.007,0.049 0.021,0.063l0,0.104c0,0.014 0.004,0.024 0.011,0.031c0.006,0.007 0.01,0.017 0.01,0.031l-0,0.146c-0,0.028 0.003,0.049 0.01,0.063c0.007,0.014 0.011,0.034 0.011,0.062l-0,0.458c-0,0.028 -0.004,0.049 -0.011,0.063c-0.007,0.014 -0.01,0.035 -0.01,0.062l-0,0.146c-0,0.014 -0.004,0.025 -0.01,0.032c-0.007,0.007 -0.011,0.017 -0.011,0.031l0,0.104c-0.014,0.014 -0.021,0.035 -0.021,0.062l0,0.042c0,0.014 -0.003,0.021 -0.01,0.021c-0.007,-0 -0.011,0.007 -0.011,0.021l0,0.083c-0.013,0.014 -0.02,0.028 -0.02,0.042l-0,0.041c-0,0.014 -0.007,0.021 -0.021,0.021l-0,0.042c-0,0.028 -0.007,0.042 -0.021,0.042l-0,0.041c-0.014,0.028 -0.021,0.049 -0.021,0.063c0,0.014 -0.007,0.035 -0.021,0.062l0,0.042c-0.014,0.028 -0.021,0.042 -0.021,0.042c0,0.014 -0.007,0.027 -0.02,0.041l-0,0.042l-0.042,0.083l-0,0.021c-0.028,0.056 -0.042,0.083 -0.042,0.083c0,0.014 -0.014,0.049 -0.041,0.105l-0,0.041c-0.014,0.028 -0.028,0.049 -0.042,0.063c-0,0.014 -0.007,0.028 -0.021,0.041c-0.014,0.028 -0.021,0.042 -0.021,0.042c0,0.014 -0.003,0.024 -0.01,0.031c-0.007,0.007 -0.011,0.018 -0.011,0.032c-0.013,0.014 -0.034,0.048 -0.062,0.104c-0.014,0.028 -0.028,0.055 -0.042,0.083c0,0.028 -0.014,0.056 -0.041,0.083c-0.014,0.014 -0.021,0.025 -0.021,0.032c-0,0.007 -0.007,0.017 -0.021,0.031c-0.014,0.014 -0.021,0.028 -0.021,0.042c0,-0 -0.014,0.014 -0.042,0.041c0,0.014 -0.013,0.042 -0.041,0.084c-0.028,0.041 -0.049,0.069 -0.063,0.083l-0.021,0.021c-0.027,0.028 -0.045,0.052 -0.052,0.073c-0.007,0.021 -0.024,0.045 -0.052,0.073l-0.021,0.02l0,0.021c-0.013,0 -0.02,0.004 -0.02,0.011c-0,0.007 -0.007,0.01 -0.021,0.01c-0,0.014 -0.014,0.035 -0.042,0.063l-0.042,0.041c-0.013,0.014 -0.02,0.028 -0.02,0.042c-0.403,0.444 -0.886,0.799 -1.448,1.062c-0.563,0.264 -1.17,0.396 -1.823,0.396l-7.292,0l0,5.834l-2.917,-0l0,-14.584Zm2.917,5.834l7.292,-0c0.403,-0 0.746,-0.143 1.031,-0.427c0.285,-0.285 0.427,-0.629 0.427,-1.032c0,-0.402 -0.142,-0.746 -0.427,-1.031c-0.285,-0.285 -0.628,-0.427 -1.031,-0.427l-7.292,-0l0,2.917Z" />
            <path d="M189.779,35.265l-0,-8.75c-0,-0.403 0.076,-0.781 0.229,-1.135c0.153,-0.355 0.361,-0.664 0.625,-0.928c0.264,-0.263 0.573,-0.472 0.927,-0.625c0.354,-0.152 0.733,-0.229 1.136,-0.229l11.666,0l0,2.917l-10.75,-0c-0.25,-0 -0.465,0.09 -0.646,0.271c-0.18,0.18 -0.27,0.396 -0.27,0.646l-0,2l8.75,-0l-0,2.916l-8.75,0l-0,2c-0,0.25 0.09,0.466 0.27,0.646c0.181,0.181 0.396,0.271 0.646,0.271l10.75,-0l0,2.917l-11.666,-0c-0.403,-0 -0.782,-0.077 -1.136,-0.23c-0.354,-0.152 -0.663,-0.361 -0.927,-0.625c-0.264,-0.263 -0.472,-0.572 -0.625,-0.927c-0.153,-0.354 -0.229,-0.732 -0.229,-1.135Z" />
            <path d="M206.55,25.057c-0,-0.403 0.142,-0.747 0.427,-1.032c0.285,-0.284 0.628,-0.427 1.031,-0.427c0.417,0 0.757,0.146 1.021,0.438l9.187,9.166l0,-9.604l2.917,0l0,13.125c0,0.403 -0.142,0.747 -0.427,1.032c-0.285,0.284 -0.628,0.427 -1.031,0.427c-0.417,-0 -0.757,-0.146 -1.021,-0.438l-9.188,-9.167l0,9.605l-2.916,-0l-0,-13.125Z" />
            <path d="M224.112,23.598l11.667,0c0.403,0 0.781,0.077 1.135,0.229c0.355,0.153 0.664,0.362 0.927,0.625c0.264,0.264 0.473,0.573 0.625,0.928c0.153,0.354 0.23,0.732 0.23,1.135l-0,8.75c-0,0.403 -0.077,0.781 -0.23,1.135c-0.152,0.355 -0.361,0.664 -0.625,0.927c-0.263,0.264 -0.572,0.473 -0.927,0.625c-0.354,0.153 -0.732,0.23 -1.135,0.23l-11.667,-0l0,-14.584Zm2.917,11.667l7.833,-0c0.25,-0 0.466,-0.09 0.646,-0.271c0.181,-0.18 0.271,-0.396 0.271,-0.646l-0,-6.916c-0,-0.25 -0.09,-0.466 -0.271,-0.646c-0.18,-0.181 -0.396,-0.271 -0.646,-0.271l-7.833,-0l-0,8.75Z" />
            <rect x="241.675" y="23.598" width="2.917" height="14.583" />
            <path d="M247.591,25.057c0,-0.403 0.143,-0.747 0.428,-1.032c0.284,-0.284 0.628,-0.427 1.031,-0.427c0.416,0 0.757,0.146 1.021,0.438l9.187,9.166l0,-9.604l2.917,0l-0,13.125c-0,0.403 -0.143,0.747 -0.427,1.032c-0.285,0.284 -0.629,0.427 -1.032,0.427c-0.416,-0 -0.757,-0.146 -1.02,-0.438l-9.188,-9.167l0,9.605l-2.917,-0l0,-13.125Z" />
            <path d="M276.779,23.598c0.403,0 0.781,0.077 1.135,0.229c0.355,0.153 0.664,0.362 0.927,0.625c0.264,0.264 0.473,0.573 0.625,0.928c0.153,0.354 0.23,0.732 0.23,1.135l-0,1.458l-2.917,0l-0,-0.541c-0,-0.25 -0.09,-0.466 -0.271,-0.646c-0.18,-0.181 -0.396,-0.271 -0.646,-0.271l-7.833,-0l-0,8.75l7.833,-0c0.25,-0 0.466,-0.09 0.646,-0.271c0.181,-0.18 0.271,-0.396 0.271,-0.646l-0,-2l-5.833,0l-0,-2.916l8.75,-0l-0,5.833c-0,0.403 -0.077,0.781 -0.23,1.135c-0.152,0.355 -0.361,0.664 -0.625,0.927c-0.263,0.264 -0.572,0.473 -0.927,0.625c-0.354,0.153 -0.732,0.23 -1.135,0.23l-11.667,-0l0,-14.584l11.667,0Z" />
        </g>
        <circle id="ball" cx="2" r="5.723"/>
    </g>
</svg>