<?xml version="1.0" encoding="UTF-8" standalone="no"?><!DOCTYPE svg PUBLIC "-//W3C//DTD SVG 1.1//EN" "http://www.w3.org/Graphics/SVG/1.1/DTD/svg11.dtd">
<svg width="100%" height="100%" viewBox="0 0 2914 3713" version="1.1"
     xmlns="http://www.w3.org/2000/svg"
     xmlns:xlink="http://www.w3.org/1999/xlink" xml:space="preserve"
     xmlns:serif="http://www.serif.com/" style="fill-rule:evenodd;clip-rule:evenodd;stroke-linecap:round;stroke-linejoin:round;stroke-miterlimit:1.5;">
    <style>
        g>path{
            stroke-dasharray: 5000;
            stroke-dashoffset: 5000;
            animation: zap .25s linear forwards;
        }
        @keyframes zap {
            to {
                stroke-dashoffset: 0;
            }
        }
    </style>

    <g>
        <path d="M176.825,79.629l-132.537,318.408l260.933,214.312l-180.168,238.806l99.403,306.162l-126.325,165.327l209.161,349.024l-267.146,195.943l188.452,171.45l-72.482,134.711l76.624,226.56l-111.829,189.82l111.829,275.545l-122.183,312.285l68.339,502.104" style="fill:none;stroke:#00f5ff;stroke-width:17.79px;"/>
        <path d="M158.187,3643.35l82.836,-685.802l-101.474,-220.436l128.396,-153.08l-202.948,-275.546l57.985,-446.995l-55.914,-183.697l138.75,-257.176l-111.828,-349.023l124.253,-232.683l-124.253,-202.067l132.537,-183.696l-72.481,-367.394" style="fill:none;stroke:#00f5ff;stroke-width:17.79px;"/>
        <path d="M133.337,3643.35l107.686,-330.654l-163.6,-342.901l161.529,-202.067l-171.884,-195.943l184.31,-208.19l-118.041,-122.464l101.473,-514.351l-188.451,-55.109l221.586,-281.669l-223.657,-422.502l149.105,-6.124l-97.332,-208.189l190.522,-257.176l-107.687,-446.995" style="fill:none;stroke:#00f5ff;stroke-width:17.79px;"/>
    </g>
    <g>
        <path d="M812.59,3649.47l84.907,-140.834l-198.806,-153.081l173.955,-532.721l-99.403,30.617l118.041,-379.641l-227.798,6.124l217.443,-336.778l-132.537,-171.45l190.522,-514.351l-316.846,-97.972l291.996,-281.668l-202.948,-202.067l198.806,-244.929l-205.019,-244.929l111.829,-367.394" style="fill:none;stroke:#00f5ff;stroke-width:17.79px;"/>
        <path d="M796.023,3680.09l51.772,-379.64l-157.388,-324.531l186.381,-244.929l-190.523,-85.725l273.358,-465.365l-314.776,-153.081l151.176,-416.38l-105.616,-73.478l252.649,-306.162l-248.507,-195.943l180.168,-165.327l-219.515,-214.313l215.373,-251.052l-64.198,-367.394" style="fill:none;stroke:#00f5ff;stroke-width:17.79px;"/>
        <path d="M769.101,3673.96l115.97,-538.844l-173.955,30.616l219.515,-336.777l-285.784,-251.053l207.09,-263.298l-157.388,-110.219l242.295,-410.256l-263.004,-165.327l211.231,-422.502l-161.53,6.123l167.743,-440.873l-171.884,-104.094l86.977,-618.446" style="fill:none;stroke:#00f5ff;stroke-width:17.79px;"/>
    </g>
    <g>
        <path d="M1477.35,3692.33l-140.821,-440.873l209.16,-177.573l-188.451,-483.735l173.955,-36.74l-91.119,-306.161l-128.396,-153.081l252.649,-202.066l-138.749,-165.327l120.111,-104.095l-240.223,-153.081l263.003,-220.436l-140.821,-202.066l115.97,-226.56l-221.585,-208.19l250.578,-134.71l-109.757,-440.873" style="fill:none;stroke:#00f5ff;stroke-width:17.79px;"/>
        <path d="M1427.64,3686.21l76.624,-220.436l-184.31,-391.886l211.231,-275.546l-194.664,-116.341l194.664,-398.01l-196.735,-324.531l182.239,6.124l-159.459,-312.285l184.31,-183.697l-186.381,-281.668l205.019,-214.313l-190.523,-410.256l128.396,-171.451l-53.843,-361.27" style="fill:none;stroke:#00f5ff;stroke-width:17.79px;"/>
        <path d="M1444.21,30.643l-72.482,318.408l149.105,263.298l-149.105,195.944l82.836,61.232l-101.474,140.834l190.522,293.915l-115.97,159.204l62.127,220.436l-169.813,110.218l225.727,263.299l-213.302,36.739l215.373,361.271l-184.309,293.915l107.686,269.422l-124.253,355.147l97.332,306.161" style="fill:none;stroke:#00f5ff;stroke-width:17.79px;"/>
    </g>
    <g>
        <path d="M2740.59,3696.32l113.899,-430.688l-182.238,12.132l149.104,-260.839l-200.877,-60.661l147.034,-333.631l-134.608,-357.896l254.72,-248.707l-138.75,-42.462l70.41,-236.575l-198.806,-127.387l273.358,-430.688l-153.246,-60.66l95.261,-188.047l-200.876,-36.396l244.365,-248.707l-207.089,-303.302l72.481,-297.235" style="fill:none;stroke:#00f5ff;stroke-width:17.79px;"/>
        <path d="M2771.66,26.375l37.276,291.169l-192.593,236.575l144.962,72.792l-89.048,103.123l198.806,188.047l-205.019,212.311l200.877,351.829l-244.366,6.066l130.467,291.17l-159.459,84.924l260.932,72.793l-285.783,479.216l242.295,30.33l-31.064,345.763l55.914,6.067l-202.947,297.235l229.869,315.433l-134.608,266.906" style="fill:none;stroke:#00f5ff;stroke-width:17.79px;"/>
        <path d="M2750.43,3633.98l-103.028,-228.827l182.239,-266.905l-209.161,-163.783l217.444,-279.037l-188.451,-36.396l173.955,-285.103l-227.798,-254.774l246.436,-333.631l-161.53,-66.726l169.814,-157.717l-242.295,-272.972l209.16,-200.178l-190.522,-139.519l184.31,-297.235l-192.594,-297.236l124.254,-309.367" style="fill:none;stroke:#00f5ff;stroke-width:17.79px;"/>
    </g>
    <g>
        <path d="M2106.9,46.32l89.048,560.615l-215.373,18.481l158.773,629.897l-115.964,131.638l147.713,402.818l-159.458,92.409l186.38,283.388l-223.657,234.103l161.53,110.891l-122.183,295.708l130.467,-24.642l-165.672,499.008l178.097,123.212l-68.339,252.585" style="fill:none;stroke:#00f5ff;stroke-width:17.79px;"/>
        <path d="M2090.33,52.481l-47.631,234.102l161.53,43.125l-107.687,412.76l60.056,147.854l-161.53,141.694l188.452,178.657l-213.302,129.373l178.097,166.336l-74.553,117.051l109.758,18.482l-159.459,425.081l165.671,425.082l-200.876,-0l101.474,240.263l-91.12,92.409l149.105,166.336l-149.105,67.767l109.758,160.175l-31.064,406.6" style="fill:none;stroke:#00f5ff;stroke-width:17.79px;"/>
        <path d="M2113.11,3650.27l76.623,-474.366l-234.011,-301.869l225.728,-160.176l-198.806,-308.03l192.593,-129.372l-219.515,-480.527l188.452,36.964l-115.97,-271.067l159.459,-104.73l-223.657,-240.263l219.515,-418.921l-196.735,-326.512l105.615,-67.766l2.071,-332.673" style="fill:none;stroke:#00f5ff;stroke-width:17.79px;"/>
    </g>
</svg>