<?xml version="1.0" encoding="UTF-8" standalone="no"?><!DOCTYPE svg PUBLIC "-//W3C//DTD SVG 1.1//EN" "http://www.w3.org/Graphics/SVG/1.1/DTD/svg11.dtd">
<svg width="100%" height="100%" viewBox="0 0 1035 786" version="1.1"
    xmlns="http://www.w3.org/2000/svg"
    xmlns:xlink="http://www.w3.org/1999/xlink" xml:space="preserve"
    xmlns:serif="http://www.serif.com/" style="fill-rule:evenodd;clip-rule:evenodd;stroke-linecap:round;stroke-linejoin:round;stroke-miterlimit:1.5;">
    <g id="play">
        <path d="M432.271,609.537l-68.209,97.681l-68.209,-97.681l-137.729,72.991l27.365,-152.594l-114.656,-34.216l72.501,-94.585l-112.486,-107.483l154.641,-21.318l-2.652,-118.827l113.016,39.224l18.418,-126.972l118,126.972l60.173,-116.474l99.164,115.024l80.656,-114.525l55.761,114.525l113.017,-39.224l-2.652,118.827l154.641,21.317l-112.486,107.483l72.5,94.586l-114.655,34.215l27.364,152.594l-137.729,-72.991l-87.359,111.028l-49.058,-111.028l-77.232,83.872l-82.105,-82.421Z" style="fill:#ff00d2;stroke:#fff;stroke-width:9.81px;"/>
        <g>
            <path d="M367.964,320.647c1.798,0 3.302,0.605 4.512,1.816c1.21,1.21 1.815,2.61 1.815,4.201c0,1.729 -0.605,3.146 -1.815,4.253c-1.21,1.106 -2.714,1.659 -4.512,1.659l-34.75,0c-1.798,0 -3.302,-0.605 -4.512,-1.815c-1.21,-1.21 -1.816,-2.714 -1.816,-4.512l0,-59.956c0,-1.798 0.606,-3.302 1.816,-4.513c1.21,-1.21 2.714,-1.815 4.512,-1.815l34.75,0c1.798,0 3.302,0.571 4.512,1.712c1.21,1.141 1.815,2.61 1.815,4.408c0,1.729 -0.587,3.129 -1.763,4.201c-1.176,1.072 -2.697,1.608 -4.564,1.608l-28.111,0l-0,17.634l23.443,0c1.798,0 3.302,0.571 4.512,1.712c1.21,1.141 1.815,2.61 1.815,4.408c0,1.729 -0.587,3.13 -1.763,4.201c-1.176,1.072 -2.697,1.608 -4.564,1.608l-23.443,0l-0,19.19l28.111,0Z" style="fill:#a3ffc8;fill-rule:nonzero;"/>
                <path d="M430.098,276.043c1.798,0 3.285,0.588 4.461,1.764c1.175,1.175 1.763,2.697 1.763,4.564l0,43.878c0,1.798 -0.588,3.302 -1.763,4.512c-1.176,1.21 -2.663,1.815 -4.461,1.815c-1.798,0 -3.267,-0.587 -4.408,-1.763c-1.141,-1.176 -1.746,-2.662 -1.816,-4.46c-1.728,2.005 -4.062,3.717 -7.001,5.134c-2.939,1.418 -6.034,2.127 -9.284,2.127c-4.772,-0 -9.094,-1.228 -12.967,-3.683c-3.872,-2.455 -6.932,-5.861 -9.18,-10.217c-2.247,-4.357 -3.371,-9.301 -3.371,-14.834c0,-5.532 1.107,-10.494 3.319,-14.885c2.213,-4.391 5.239,-7.814 9.077,-10.269c3.838,-2.455 8.074,-3.683 12.707,-3.683c3.319,0 6.431,0.605 9.336,1.816c2.904,1.21 5.359,2.748 7.364,4.616l0,-0.104c0,-1.798 0.588,-3.302 1.764,-4.512c1.175,-1.211 2.662,-1.816 4.46,-1.816Zm-20.953,46.16c4.495,0 8.16,-1.642 10.995,-4.927c2.835,-3.285 4.253,-7.417 4.253,-12.396c0,-4.979 -1.418,-9.128 -4.253,-12.447c-2.835,-3.32 -6.5,-4.979 -10.995,-4.979c-4.426,-0 -8.057,1.659 -10.892,4.979c-2.835,3.319 -4.253,7.468 -4.253,12.447c0,4.979 1.4,9.111 4.201,12.396c2.801,3.285 6.449,4.927 10.944,4.927Z" style="fill:#a3ffc8;fill-rule:nonzero;"/>
                <path d="M446.591,323.967c-0.622,-0.83 -0.933,-1.867 -0.933,-3.112c-0,-1.798 0.899,-3.32 2.697,-4.564c0.968,-0.623 1.971,-0.934 3.008,-0.934c1.452,0 2.835,0.657 4.149,1.971c2.075,2.144 4.236,3.734 6.483,4.772c2.248,1.037 4.962,1.556 8.143,1.556c5.394,-0.208 8.091,-2.248 8.091,-6.121c0,-2.005 -0.916,-3.526 -2.749,-4.564c-1.832,-1.037 -4.685,-2.074 -8.557,-3.112c-4.011,-1.106 -7.279,-2.213 -9.803,-3.319c-2.524,-1.106 -4.702,-2.783 -6.535,-5.031c-1.833,-2.247 -2.749,-5.273 -2.749,-9.076c0,-3.32 0.951,-6.207 2.853,-8.662c1.902,-2.455 4.391,-4.356 7.468,-5.705c3.078,-1.348 6.345,-2.023 9.803,-2.023c3.527,0 7.054,0.657 10.58,1.971c3.527,1.314 6.293,3.25 8.299,5.809c0.899,1.107 1.348,2.351 1.348,3.734c0,1.591 -0.657,2.905 -1.971,3.942c-0.968,0.761 -2.074,1.141 -3.319,1.141c-1.521,0 -2.766,-0.484 -3.734,-1.452c-1.245,-1.521 -2.853,-2.732 -4.824,-3.631c-1.971,-0.899 -4.201,-1.348 -6.69,-1.348c-5.256,-0 -7.884,1.902 -7.884,5.705c0,1.521 0.484,2.749 1.452,3.682c0.969,0.934 2.196,1.66 3.683,2.179c1.487,0.518 3.579,1.158 6.276,1.919c3.734,1.037 6.846,2.109 9.335,3.215c2.49,1.107 4.599,2.801 6.328,5.083c1.729,2.282 2.593,5.291 2.593,9.025c0,3.388 -1.003,6.345 -3.008,8.869c-2.006,2.524 -4.582,4.443 -7.728,5.757c-3.146,1.314 -6.379,1.971 -9.699,1.971c-4.564,-0 -8.817,-0.761 -12.759,-2.282c-3.941,-1.522 -7.157,-3.977 -9.647,-7.365Z" style="fill:#a3ffc8;fill-rule:nonzero;"/>
                <path d="M540.986,277.081c1.798,-0 3.285,0.605 4.461,1.815c1.175,1.21 1.763,2.714 1.763,4.512l-0,44.086c-0,8.99 -2.42,15.542 -7.261,19.657c-4.841,4.114 -11.307,6.171 -19.398,6.171c-2.351,0 -4.754,-0.19 -7.209,-0.57c-2.455,-0.38 -4.443,-0.882 -5.965,-1.504c-3.388,-1.452 -5.082,-3.458 -5.082,-6.017c-0,-0.484 0.103,-1.037 0.311,-1.659c0.415,-1.522 1.124,-2.68 2.126,-3.475c1.003,-0.795 2.092,-1.193 3.268,-1.193c0.691,-0 1.348,0.104 1.971,0.311c0.484,0.208 1.331,0.553 2.541,1.037c1.21,0.485 2.49,0.882 3.838,1.193c1.349,0.312 2.749,0.467 4.201,0.467c4.91,0 8.523,-1.054 10.84,-3.164c2.317,-2.109 3.475,-5.722 3.475,-10.839l0,-1.038c-3.596,4.495 -9.197,6.743 -16.804,6.743c-3.596,-0 -6.777,-0.847 -9.543,-2.542c-2.767,-1.694 -4.91,-4.045 -6.432,-7.053c-1.521,-3.009 -2.282,-6.449 -2.282,-10.322l0,-30.289c0,-1.798 0.588,-3.302 1.764,-4.512c1.175,-1.21 2.662,-1.815 4.46,-1.815c1.798,-0 3.285,0.605 4.46,1.815c1.176,1.21 1.764,2.714 1.764,4.512l-0,26.555c-0,4.357 0.951,7.486 2.852,9.388c1.902,1.901 4.686,2.852 8.351,2.852c3.596,0 6.379,-1.054 8.35,-3.163c1.971,-2.11 2.956,-5.135 2.956,-9.077l0,-26.555c0,-1.798 0.588,-3.302 1.764,-4.512c1.175,-1.21 2.662,-1.815 4.46,-1.815Z" style="fill:#a3ffc8;fill-rule:nonzero;"/>
                <path d="M634.655,276.043c1.798,0 3.285,0.588 4.46,1.764c1.176,1.175 1.764,2.697 1.764,4.564l-0,43.878c-0,1.798 -0.588,3.302 -1.764,4.512c-1.175,1.21 -2.662,1.815 -4.46,1.815c-1.798,0 -3.268,-0.587 -4.409,-1.763c-1.141,-1.176 -1.746,-2.662 -1.815,-4.46c-1.729,2.005 -4.063,3.717 -7.002,5.134c-2.939,1.418 -6.034,2.127 -9.284,2.127c-4.771,-0 -9.093,-1.228 -12.966,-3.683c-3.873,-2.455 -6.933,-5.861 -9.18,-10.217c-2.248,-4.357 -3.371,-9.301 -3.371,-14.834c-0,-5.532 1.106,-10.494 3.319,-14.885c2.213,-4.391 5.238,-7.814 9.076,-10.269c3.838,-2.455 8.074,-3.683 12.707,-3.683c3.32,0 6.432,0.605 9.336,1.816c2.904,1.21 5.359,2.748 7.365,4.616l-0,-0.104c-0,-1.798 0.588,-3.302 1.763,-4.512c1.176,-1.211 2.663,-1.816 4.461,-1.816Zm-20.954,46.16c4.495,0 8.16,-1.642 10.996,-4.927c2.835,-3.285 4.253,-7.417 4.253,-12.396c-0,-4.979 -1.418,-9.128 -4.253,-12.447c-2.836,-3.32 -6.501,-4.979 -10.996,-4.979c-4.426,-0 -8.056,1.659 -10.892,4.979c-2.835,3.319 -4.252,7.468 -4.252,12.447c-0,4.979 1.4,9.111 4.201,12.396c2.8,3.285 6.448,4.927 10.943,4.927Z" style="fill:#a3ffc8;fill-rule:nonzero;"/>
                <path d="M651.148,323.967c-0.623,-0.83 -0.934,-1.867 -0.934,-3.112c0,-1.798 0.899,-3.32 2.697,-4.564c0.968,-0.623 1.971,-0.934 3.008,-0.934c1.453,0 2.836,0.657 4.15,1.971c2.074,2.144 4.235,3.734 6.483,4.772c2.247,1.037 4.962,1.556 8.143,1.556c5.394,-0.208 8.091,-2.248 8.091,-6.121c-0,-2.005 -0.917,-3.526 -2.749,-4.564c-1.833,-1.037 -4.685,-2.074 -8.558,-3.112c-4.011,-1.106 -7.278,-2.213 -9.802,-3.319c-2.525,-1.106 -4.703,-2.783 -6.536,-5.031c-1.832,-2.247 -2.748,-5.273 -2.748,-9.076c-0,-3.32 0.95,-6.207 2.852,-8.662c1.902,-2.455 4.391,-4.356 7.469,-5.705c3.077,-1.348 6.345,-2.023 9.802,-2.023c3.527,0 7.054,0.657 10.581,1.971c3.527,1.314 6.293,3.25 8.298,5.809c0.899,1.107 1.349,2.351 1.349,3.734c-0,1.591 -0.657,2.905 -1.971,3.942c-0.968,0.761 -2.075,1.141 -3.319,1.141c-1.522,0 -2.767,-0.484 -3.735,-1.452c-1.245,-1.521 -2.852,-2.732 -4.823,-3.631c-1.971,-0.899 -4.201,-1.348 -6.691,-1.348c-5.256,-0 -7.883,1.902 -7.883,5.705c-0,1.521 0.484,2.749 1.452,3.682c0.968,0.934 2.195,1.66 3.682,2.179c1.487,0.518 3.579,1.158 6.276,1.919c3.734,1.037 6.846,2.109 9.336,3.215c2.489,1.107 4.598,2.801 6.327,5.083c1.729,2.282 2.594,5.291 2.594,9.025c-0,3.388 -1.003,6.345 -3.009,8.869c-2.005,2.524 -4.581,4.443 -7.728,5.757c-3.146,1.314 -6.379,1.971 -9.698,1.971c-4.564,-0 -8.817,-0.761 -12.759,-2.282c-3.942,-1.522 -7.158,-3.977 -9.647,-7.365Z" style="fill:#a3ffc8;fill-rule:nonzero;"/>
        </g>
        <g>
            <path d="M272.131,428.716c-0.726,-0.934 -0.985,-1.971 -0.778,-3.112c0.207,-1.141 0.778,-2.075 1.712,-2.801l33.453,-25.673c0.829,-0.623 1.841,-1.349 3.034,-2.179c1.193,-0.829 2.567,-1.244 4.123,-1.244l18.983,-0c1.141,-0 2.126,0.415 2.956,1.244c0.83,0.83 1.245,1.816 1.245,2.957l-0,100.515c-0,1.141 -0.415,2.126 -1.245,2.956c-0.83,0.83 -1.815,1.245 -2.956,1.245l-20.383,-0c-1.141,-0 -2.127,-0.415 -2.957,-1.245c-0.829,-0.83 -1.244,-1.815 -1.244,-2.956l-0,-67.996l-18.516,14.004c-0.934,0.726 -1.971,1.011 -3.112,0.856c-1.141,-0.156 -2.075,-0.701 -2.801,-1.634l-11.514,-14.937Z" style="fill:#fff;fill-rule:nonzero;"/>
                <path d="M356.464,479.907c0.207,-1.453 0.856,-2.827 1.945,-4.124c1.089,-1.296 2.671,-1.945 4.745,-1.945l19.139,0c0.933,0 1.737,0.338 2.411,1.012c0.675,0.674 1.012,1.478 1.012,2.412c-0,0.414 -0.052,0.778 -0.156,1.089l-12.136,30.963c-0.415,1.038 -1.115,2.127 -2.101,3.268c-0.985,1.141 -2.515,1.711 -4.59,1.711l-11.67,0c-0.933,0 -1.737,-0.337 -2.411,-1.011c-0.674,-0.674 -1.012,-1.478 -1.012,-2.412l0,-0.311l4.824,-30.652Z" style="fill:#fff;fill-rule:nonzero;"/>
                <path d="M519.061,428.716c0,3.008 -0.311,5.912 -0.933,8.713c-0.623,2.801 -1.686,5.524 -3.19,8.169c-1.504,2.645 -3.475,5.264 -5.913,7.857c-2.437,2.594 -5.42,5.187 -8.946,7.78l-21.784,16.493l39.055,0c1.141,0 2.126,0.415 2.956,1.245c0.83,0.83 1.245,1.815 1.245,2.956l-0,16.494c-0,1.141 -0.415,2.126 -1.245,2.956c-0.83,0.83 -1.815,1.245 -2.956,1.245l-82.155,-0c-1.141,-0 -2.126,-0.415 -2.956,-1.245c-0.83,-0.83 -1.245,-1.815 -1.245,-2.956l0,-13.382c0,-1.659 0.337,-3.319 1.012,-4.979c0.674,-1.659 1.841,-3.06 3.5,-4.201l46.524,-33.297c3.63,-2.697 5.912,-5.161 6.846,-7.391c0.933,-2.23 1.4,-4.383 1.4,-6.457c0,-0.726 -0.13,-1.738 -0.389,-3.034c-0.259,-1.297 -0.856,-2.594 -1.789,-3.89c-0.934,-1.297 -2.256,-2.412 -3.968,-3.346c-1.711,-0.933 -4.019,-1.4 -6.924,-1.4c-2.904,0 -5.264,0.493 -7.08,1.478c-1.815,0.986 -3.215,2.101 -4.201,3.346c-0.985,1.244 -1.711,2.515 -2.178,3.812c-0.467,1.296 -0.804,2.256 -1.011,2.878c-0.519,1.452 -1.323,2.412 -2.412,2.879c-1.089,0.466 -2.36,0.7 -3.812,0.7l-19.138,-0c-0.934,-0 -1.738,-0.337 -2.412,-1.012c-0.674,-0.674 -1.011,-1.478 -1.011,-2.411c0.103,-4.357 1.037,-8.688 2.8,-12.993c1.764,-4.304 4.435,-8.22 8.013,-11.747c3.579,-3.527 8.04,-6.379 13.382,-8.558c5.342,-2.178 11.643,-3.267 18.905,-3.267c6.846,-0 12.888,1.011 18.126,3.034c5.239,2.023 9.621,4.72 13.148,8.091c3.527,3.371 6.198,7.261 8.013,11.67c1.816,4.408 2.723,8.998 2.723,13.77Z" style="fill:#fff;fill-rule:nonzero;"/>
                <path d="M537.733,479.907c0.207,-1.453 0.856,-2.827 1.945,-4.124c1.089,-1.296 2.671,-1.945 4.745,-1.945l19.139,0c0.933,0 1.737,0.338 2.411,1.012c0.675,0.674 1.012,1.478 1.012,2.412c-0,0.414 -0.052,0.778 -0.156,1.089l-12.136,30.963c-0.415,1.038 -1.115,2.127 -2.101,3.268c-0.985,1.141 -2.515,1.711 -4.59,1.711l-11.67,0c-0.933,0 -1.737,-0.337 -2.411,-1.011c-0.675,-0.674 -1.012,-1.478 -1.012,-2.412l0,-0.311l4.824,-30.652Z" style="fill:#fff;fill-rule:nonzero;"/>
                <path d="M694.729,393.707c1.141,-0 2.126,0.415 2.956,1.244c0.83,0.83 1.245,1.816 1.245,2.957l-0,16.493c-0,1.141 -0.363,2.178 -1.089,3.112c-0.726,0.933 -1.401,1.711 -2.023,2.334l-18.827,18.982c8.091,2.075 14.678,5.576 19.761,10.503c5.082,4.927 7.624,11.436 7.624,19.527c-0,11.722 -4.046,20.539 -12.137,26.452c-8.091,5.912 -19.397,8.869 -33.92,8.869c-7.468,-0 -14.081,-0.882 -19.838,-2.646c-5.757,-1.763 -10.606,-4.097 -14.548,-7.001c-3.942,-2.905 -6.976,-6.198 -9.103,-9.881c-2.126,-3.682 -3.241,-7.442 -3.345,-11.28c0,-0.934 0.337,-1.738 1.012,-2.412c0.674,-0.674 1.478,-1.011 2.411,-1.011l19.605,-0c2.179,-0 3.838,0.492 4.979,1.478c1.141,0.985 2.412,2.048 3.812,3.189c1.401,1.141 3.216,2.205 5.446,3.19c2.231,0.986 5.42,1.478 9.569,1.478c4.98,0 9.103,-0.83 12.37,-2.489c3.268,-1.66 4.902,-4.305 4.902,-7.936c-0,-3.63 -1.634,-6.275 -4.902,-7.935c-3.267,-1.66 -7.39,-2.49 -12.37,-2.49l-12.914,0c-1.141,0 -2.126,-0.414 -2.956,-1.244c-0.83,-0.83 -1.245,-1.816 -1.245,-2.957l-0,-13.381c-0,-1.141 0.363,-2.178 1.089,-3.112c0.726,-0.933 1.452,-1.763 2.178,-2.489l16.494,-16.649l-40.611,0c-1.141,0 -2.126,-0.415 -2.956,-1.245c-0.83,-0.83 -1.245,-1.815 -1.245,-2.956l0,-16.493c0,-1.141 0.415,-2.127 1.245,-2.957c0.83,-0.829 1.815,-1.244 2.956,-1.244l74.375,-0Z" style="fill:#fff;fill-rule:nonzero;"/>
                <path d="M748.721,464.97c-0,1.141 -0.415,2.126 -1.245,2.956c-0.83,0.83 -1.816,1.245 -2.957,1.245l-19.605,-0c-1.141,-0 -2.126,-0.415 -2.956,-1.245c-0.83,-0.83 -1.245,-1.815 -1.245,-2.956l0,-67.062c0,-1.141 0.415,-2.127 1.245,-2.957c0.83,-0.829 1.815,-1.244 2.956,-1.244l19.605,-0c1.141,-0 2.127,0.415 2.957,1.244c0.83,0.83 1.245,1.816 1.245,2.957l-0,67.062Zm-0,33.453c-0,1.141 -0.415,2.126 -1.245,2.956c-0.83,0.83 -1.816,1.245 -2.957,1.245l-19.605,-0c-1.141,-0 -2.126,-0.415 -2.956,-1.245c-0.83,-0.83 -1.245,-1.815 -1.245,-2.956l0,-15.716c0,-1.141 0.415,-2.126 1.245,-2.956c0.83,-0.83 1.815,-1.245 2.956,-1.245l19.605,0c1.141,0 2.127,0.415 2.957,1.245c0.83,0.83 1.245,1.815 1.245,2.956l-0,15.716Z" style="fill:#a3ffc8;fill-rule:nonzero;"/>
        </g>
    </g>
</svg>