<?xml version="1.0" encoding="UTF-8" standalone="no"?><!DOCTYPE svg PUBLIC "-//W3C//DTD SVG 1.1//EN" "http://www.w3.org/Graphics/SVG/1.1/DTD/svg11.dtd"><svg width="100%" height="100%" viewBox="0 0 150 150" version="1.1" xmlns="http://www.w3.org/2000/svg" xmlns:xlink="http://www.w3.org/1999/xlink" xml:space="preserve" xmlns:serif="http://www.serif.com/" style="fill-rule:evenodd;clip-rule:evenodd;stroke-linejoin:round;stroke-miterlimit:2;"><path d="M75,5.833c-37.5,0 -67.917,30.417 -67.917,67.917c0,30 19.584,55.417 46.25,64.583c3.334,0.417 4.584,-1.666 4.584,-3.333l-0,-11.667c-18.75,4.167 -22.917,-9.166 -22.917,-9.166c-2.917,-7.917 -7.5,-10 -7.5,-10c-6.25,-4.167 0.417,-4.167 0.417,-4.167c6.666,0.417 10.416,7.083 10.416,7.083c6.25,10.417 15.834,7.5 19.584,5.834c0.416,-4.584 2.5,-7.5 4.166,-9.167c-15,-1.667 -30.833,-7.5 -30.833,-33.75c0,-7.5 2.5,-13.333 7.083,-18.333c-0.833,-1.667 -2.916,-8.75 0.834,-17.917c-0,0 5.833,-1.667 18.75,7.083c5.416,-1.666 11.25,-2.083 17.083,-2.083c5.833,0 11.667,0.833 17.083,2.083c12.917,-8.75 18.75,-7.083 18.75,-7.083c3.75,9.167 1.25,16.25 0.834,17.917c4.166,4.583 7.083,10.833 7.083,18.333c-0,26.25 -15.833,31.667 -30.833,33.333c2.5,2.084 4.583,6.25 4.583,12.5l-0,18.75c-0,1.667 1.25,3.75 4.583,3.334c27.084,-9.167 46.25,-34.584 46.25,-64.584c-0.416,-37.083 -30.833,-67.5 -68.333,-67.5Z" style="fill:#fff;"/></svg>