<?xml version="1.0" encoding="UTF-8" standalone="no"?><!DOCTYPE svg PUBLIC "-//W3C//DTD SVG 1.1//EN" "http://www.w3.org/Graphics/SVG/1.1/DTD/svg11.dtd"><svg width="100%" height="100%" viewBox="0 0 1584 1584" version="1.1" xmlns="http://www.w3.org/2000/svg" xmlns:xlink="http://www.w3.org/1999/xlink" xml:space="preserve" xmlns:serif="http://www.serif.com/" style="fill-rule:evenodd;clip-rule:evenodd;stroke-linejoin:round;stroke-miterlimit:2;"><g id="LOGO"><path d="M1475.12,649.83l-1.988,-5.08l-192.451,-502.259c-3.915,-9.842 -10.851,-18.195 -19.805,-23.854c-18.313,-11.368 -41.91,-10.1 -58.899,3.166c-8.22,6.677 -14.186,15.728 -17.08,25.915l-129.946,397.567l-526.186,-0l-129.945,-397.567c-2.818,-10.242 -8.797,-19.339 -17.081,-25.989c-16.989,-13.265 -40.585,-14.534 -58.898,-3.165c-8.935,5.681 -15.864,14.027 -19.805,23.854l-192.82,502.037l-1.914,5.08c-56.747,148.272 -8.206,317.414 118.534,413.027l0.662,0.516l1.767,1.251l293.168,219.545l145.039,109.773l88.348,66.703c21.174,16.076 50.682,16.076 71.856,-0l88.348,-66.703l145.038,-109.773l294.935,-220.87l0.736,-0.589c126.446,-95.624 174.893,-264.465 118.387,-412.585Z" style="fill:#fff;fill-rule:nonzero;"/></g></svg>