<?xml version="1.0" encoding="UTF-8" standalone="no"?><!DOCTYPE svg PUBLIC "-//W3C//DTD SVG 1.1//EN" "http://www.w3.org/Graphics/SVG/1.1/DTD/svg11.dtd"><svg width="100%" height="100%" viewBox="0 0 1000 1000" version="1.1" xmlns="http://www.w3.org/2000/svg" xmlns:xlink="http://www.w3.org/1999/xlink" xml:space="preserve" xmlns:serif="http://www.serif.com/" style="fill-rule:evenodd;clip-rule:evenodd;stroke-linecap:round;stroke-linejoin:round;stroke-miterlimit:1.5;"><rect id="Artboard1" x="0" y="0" width="1000" height="1000" style="fill:none;"/><g id="Artboard11" serif:id="Artboard1"><path d="M561.629,166.667c-1.089,-67.245 -10.084,-105.43 -64.871,-107.105c-45.628,-1.394 -67.179,43.77 -62.9,109.436c-28.211,-53.936 -123.693,-36.197 -121.795,22.144l1.748,228.438c-39.626,-23.935 -83.723,-29.094 -131.119,-20.396c38.514,77.316 66.397,170.136 67.599,301.865c14.049,146.788 119.984,226.755 247.669,228.438l0.732,0c137.592,0.065 246.654,-117.148 247.669,-228.438c1.203,-131.729 29.085,-224.549 67.599,-301.865c-47.396,-8.698 -91.492,-3.539 -131.118,20.396l1.748,-228.438c-1.599,-57.758 -91.253,-81.908 -122.961,-24.475Z" style="fill:none;stroke:#fff;stroke-width:9.81px;"/><path d="M345.862,665.01c99.651,-80.907 199.301,-84.788 298.951,0.583c-99.65,90.36 -199.3,90.876 -298.951,-0.583Z" style="fill:none;stroke:#fff;stroke-width:9.81px;"/><circle cx="496.795" cy="668.507" r="37.879" style="fill:#00fff9;stroke:#fff;stroke-width:9.81px;"/><circle cx="498.013" cy="667.394" r="10.635" style="fill:#fff;stroke:#fff;stroke-width:9.81px;"/><path d="M313.559,486.689l0,-71.679" style="fill:none;stroke:#fff;stroke-width:9.81px;"/><path d="M433.606,489.602l0,-325.175" style="fill:none;stroke:#fff;stroke-width:9.81px;"/><path d="M561.235,492.516l0,-331.002" style="fill:none;stroke:#fff;stroke-width:9.81px;"/><path d="M682.779,487.271l-0,-92.074" style="fill:none;stroke:#fff;stroke-width:9.81px;"/></g></svg>