<?xml version="1.0" encoding="UTF-8" standalone="no"?><!DOCTYPE svg PUBLIC "-//W3C//DTD SVG 1.1//EN" "http://www.w3.org/Graphics/SVG/1.1/DTD/svg11.dtd"><svg width="100%" height="100%" viewBox="0 0 669 1000" version="1.1" xmlns="http://www.w3.org/2000/svg" xmlns:xlink="http://www.w3.org/1999/xlink" xml:space="preserve" xmlns:serif="http://www.serif.com/" style="fill-rule:evenodd;clip-rule:evenodd;stroke-linecap:round;stroke-linejoin:round;stroke-miterlimit:1.5;"><rect id="Artboard1" x="0" y="0" width="668.415" height="1000" style="fill:none;"/><path d="M343.886,968.28l224.254,-0c40.772,-0 73.873,-33.102 73.873,-73.874l0,-788.812c0,-40.772 -33.101,-73.874 -73.873,-73.874l-467.865,0c-40.772,0 -73.873,33.102 -73.873,73.874l-0,788.812c-0,40.772 33.101,73.874 73.873,73.874l190.147,-0" style="fill:none;stroke:#00ff98;stroke-width:30.65px;"/><path d="M456.133,728.588c-46.29,-6.881 -78.687,-3.495 -97.517,16.455c-21.566,22.849 -26.599,43.6 -12.964,92.903c0.233,0.844 31.379,-36.919 31.379,-36.919l2.158,1.353c-0,0 -23.638,39.561 -23.145,39.588c124.455,6.726 55.834,-62.549 100.089,-113.38Z" style="fill:#00ff98;stroke:#00ff98;stroke-width:1px;"/><path d="M351.525,859.326c-0,-13.594 -0.022,-15.713 6.758,-28.934c-6.821,5.413 -18.225,18.681 -18.225,18.681l-22.757,-10.787c0,0 11.877,6.96 11.262,20.901" style="fill:#00ff98;"/><path d="M226.719,790.062c29.711,-15.02 52.342,-19.994 69.526,-10.745c19.681,10.592 27.73,23.475 29.574,59.817c0.032,0.622 -29.459,-17.893 -29.459,-17.893l-1.154,1.397c0,0 24.826,21.412 24.498,21.54c-82.517,32.434 -51.714,-29.716 -92.985,-54.116Z" style="fill:#00ff98;stroke:#00ff98;stroke-width:1px;"/><rect x="328.582" y="849.155" width="22.943" height="119.582" style="fill:#00ff98;"/><text x="97.721px" y="279.179px" style="font-family:'Lato-Black', 'Lato', sans-serif;font-weight:900;font-size:175px;fill:#00d6c1;stroke:#9bfddc;stroke-width:3.17px;stroke-linecap:butt;stroke-miterlimit:2;">100%</text><text x="89.283px" y="453px" style="font-family:'Lato-Light', 'Lato', sans-serif;font-weight:300;font-size:112.5px;fill:#00d6c1;stroke:#9bfddc;stroke-width:3.17px;stroke-linecap:butt;stroke-miterlimit:2;">NA<tspan x="240.371px 306.127px " y="453px 453px ">TU</tspan>RAL</text><text x="92.732px" y="662.386px" style="font-family:'Lato-Light', 'Lato', sans-serif;font-weight:300;font-size:200px;fill:#00d6c1;stroke:#9bfddc;stroke-width:3.17px;stroke-linecap:butt;stroke-miterlimit:2;">TING</text></svg>