<?xml version="1.0" encoding="UTF-8" standalone="no"?><!DOCTYPE svg PUBLIC "-//W3C//DTD SVG 1.1//EN" "http://www.w3.org/Graphics/SVG/1.1/DTD/svg11.dtd"><svg width="100%" height="100%" viewBox="0 0 1199 277" version="1.1" xmlns="http://www.w3.org/2000/svg" xmlns:xlink="http://www.w3.org/1999/xlink" xml:space="preserve" xmlns:serif="http://www.serif.com/" style="fill-rule:evenodd;clip-rule:evenodd;stroke-linecap:round;stroke-linejoin:round;stroke-miterlimit:1.5;"><rect id="Artboard1" x="0" y="0" width="1198.28" height="276.118" style="fill:none;"/><path d="M1189.48,43.438c0,-18.54 -18.269,-33.592 -40.772,-33.592l-1100.83,0c-22.502,0 -40.772,15.052 -40.772,33.592l0,191.215c0,18.54 18.27,33.592 40.772,33.592l1100.83,-0c22.503,-0 40.772,-15.052 40.772,-33.592l0,-191.215Z" style="fill:#f6f6f6;fill-opacity:0.21;stroke:#00d3ff;stroke-width:6.65px;"/><g><path d="M325.748,105.837l-224.763,-0.3c-1.674,-1.613 -2.315,-3.504 -2.202,-5.599c8.386,-11.628 20.096,-21.239 44.243,-23.301l31.495,0c2.213,-0.099 4.318,1.302 4.194,3.54l68.281,-0c-0.033,-2.235 1.81,-3.663 3.014,-3.835l33.413,0c17.976,3.287 34.897,8.317 44.98,24.629l-2.655,4.866Z" style="fill:#b26ae3;"/><path d="M257.082,87.845c6.665,-2.531 13.9,-3.918 21.458,-3.918c33.254,-0 60.252,26.852 60.252,59.928c-0,33.075 -26.998,59.927 -60.252,59.927c-17.225,0 -32.772,-7.205 -43.759,-18.75l-43.724,-0c-10.987,11.545 -26.534,18.75 -43.759,18.75c-33.254,0 -60.252,-26.852 -60.252,-59.927c0,-33.076 26.998,-59.928 60.252,-59.928c7.558,-0 14.793,1.387 21.458,3.918l88.326,0Z" style="fill:#ddb1ff;"/><path d="M198.119,142.265l9.645,-9.13" style="fill:none;stroke:#971ecb;stroke-width:8.33px;"/><path d="M215.513,142.265l9.644,-9.13" style="fill:none;stroke:#971ecb;stroke-width:8.33px;"/><circle cx="148.273" cy="143.124" r="33.29" style="fill:none;stroke:#bf82e9;stroke-width:6.65px;"/><path d="M142.255,137.658l-11.548,0c-0.85,0 -1.538,0.689 -1.538,1.539l-0,8.669c-0,0.85 0.688,1.538 1.538,1.538l11.548,0l0,11.549c0,0.849 0.689,1.538 1.539,1.538l8.669,0c0.85,0 1.538,-0.689 1.538,-1.538l0,-11.549l11.549,0c0.849,0 1.538,-0.688 1.538,-1.538l-0,-8.669c-0,-0.85 -0.689,-1.539 -1.538,-1.539l-11.549,0l0,-11.548c0,-0.85 -0.688,-1.538 -1.538,-1.538l-8.669,-0c-0.85,-0 -1.539,0.688 -1.539,1.538l0,11.548Z" style="fill:#971ecb;"/><g><path d="M278.306,104.512c20.912,-0 37.89,16.978 37.89,37.89c-0,20.912 -16.978,37.89 -37.89,37.89c-20.913,0 -37.891,-16.978 -37.891,-37.89c0,-20.912 16.978,-37.89 37.891,-37.89Zm12.03,32.064c1.559,-1.385 3.612,-2.227 5.86,-2.227c4.874,-0 8.83,3.956 8.83,8.829c0,3.078 -1.578,5.79 -3.969,7.371l-16.73,16.624c-1.598,1.595 -3.803,2.582 -6.236,2.582c-4.874,-0 -8.83,-3.957 -8.83,-8.83c-0,-3.218 1.725,-6.037 4.301,-7.58l16.713,-16.824l0.061,0.055Zm-17.993,-18.188c1.559,-1.385 3.612,-2.227 5.86,-2.227c4.874,-0 8.83,3.956 8.83,8.83c0,3.077 -1.578,5.79 -3.969,7.37l-16.73,16.624c-1.598,1.595 -3.803,2.582 -6.236,2.582c-4.874,0 -8.83,-3.956 -8.83,-8.83c-0,-3.218 1.725,-6.036 4.301,-7.58l16.713,-16.824l0.061,0.055Z" style="fill:#9900d0;fill-opacity:0.49;"/><circle cx="277.353" cy="125.145" r="6.485" style="fill:#a53eda;"/><circle cx="259.992" cy="142.926" r="6.485" style="fill:#a53eda;"/><circle cx="278.407" cy="160.684" r="6.485" style="fill:#a53eda;"/><circle cx="295.507" cy="143.584" r="6.485" style="fill:#a53eda;"/></g></g><g><path d="M418.182,194.358l0,-18.327l36.655,0l0,-73.309l-18.327,-0l-0,-18.327l18.327,-0l0,-18.328l36.655,0l-0,109.964l36.654,0l0,18.327l-109.964,0Z" style="fill:#fff;fill-rule:nonzero;"/><path d="M546.474,212.686l-0,-109.964l109.963,-0l0,18.327l18.328,0l-0,36.655l-18.328,-0l0,18.327l-73.309,0l0,36.655l-36.654,-0Zm36.654,-54.982l54.982,-0l0,-36.655l-54.982,0l0,36.655Z" style="fill:#fff;fill-rule:nonzero;"/><rect x="711.419" y="121.049" width="109.964" height="18.327" style="fill:#fff;fill-rule:nonzero;"/><path d="M894.692,121.049l-36.654,0l-0,-18.327l36.654,-0l0,18.327Zm54.982,0l-36.654,0l-0,-18.327l36.654,-0l0,18.327Zm-91.636,0l-0,36.655l-18.328,-0l0,-36.655l18.328,0Zm54.982,0l-0,36.655l-18.328,-0l0,-36.655l18.328,0Zm54.982,0l-0,36.655l-18.328,-0l0,-36.655l18.328,0Zm-109.964,36.655l36.654,-0l0,18.327l-36.654,0l-0,-18.327Zm54.982,-0l36.654,-0l0,18.327l-36.654,0l-0,-18.327Z" style="fill:#fff;fill-rule:nonzero;"/><path d="M986.329,212.686l-0,-109.964l109.964,-0l-0,18.327l18.327,0l-0,36.655l-18.327,-0l-0,18.327l-73.31,0l0,36.655l-36.654,-0Zm36.654,-54.982l54.982,-0l0,-36.655l-54.982,0l0,36.655Z" style="fill:#fff;fill-rule:nonzero;"/></g></svg>