<?xml version="1.0" encoding="UTF-8" standalone="no"?><!DOCTYPE svg PUBLIC "-//W3C//DTD SVG 1.1//EN" "http://www.w3.org/Graphics/SVG/1.1/DTD/svg11.dtd"><svg width="100%" height="100%" viewBox="0 0 1291 2813" version="1.1" xmlns="http://www.w3.org/2000/svg" xmlns:xlink="http://www.w3.org/1999/xlink" xml:space="preserve" xmlns:serif="http://www.serif.com/" style="fill-rule:evenodd;clip-rule:evenodd;stroke-linecap:round;stroke-linejoin:round;stroke-miterlimit:1.5;"><rect id="Artboard1" x="0" y="0" width="1290.96" height="2812.5" style="fill:none;"/><g><rect x="147.206" y="2568.4" width="971.978" height="165.978" style="fill:url(#_Linear1);stroke:#af9581;stroke-width:15.9px;"/><path d="M1036.4,2383.48l-809.096,0l-80.117,187.341l976.147,-0l-86.934,-187.341Z" style="fill:url(#_Linear2);stroke:#af9581;stroke-width:15.9px;"/><g><path d="M635.268,2376.93c344.569,0 387.068,17.95 387.068,60.85c-0,42.897 -42.499,60.847 -387.068,60.847c-344.574,-0 -387.072,-17.95 -387.072,-60.847c-0,-42.9 42.498,-60.85 387.072,-60.85Z" style="fill:url(#_Linear3);stroke:#af9581;stroke-width:15.9px;"/><path d="M635.268,2292.85c344.569,0 387.068,17.947 387.068,60.847c-0,42.9 -42.499,60.85 -387.068,60.85c-344.574,-0 -387.072,-17.95 -387.072,-60.85c-0,-42.9 42.498,-60.847 387.072,-60.847Z" style="fill:url(#_Linear4);stroke:#af9581;stroke-width:15.9px;"/></g><path d="M945.649,2328.63l0,-1085.66l-618.219,0l-0,1085.66" style="fill:url(#_Linear5);stroke:#af9581;stroke-width:13.93px;stroke-linecap:butt;"/><path d="M945.649,2328.63c-201.914,25.438 -408.011,25.3 -618.219,0" style="fill:none;stroke:#af9581;stroke-width:15.9px;stroke-linecap:square;"/><g><ellipse cx="640.914" cy="995.593" rx="483.509" ry="71.188" style="fill:#ebebeb;"/><path d="M164.776,1098.57l-0.47,-0l-0,-98.303c318.433,130.21 636.866,129.702 955.299,-0l0,98.303l0.195,-0c34.895,17.015 -14.194,169.334 -91.073,169.334c-37.091,0 -70.818,-9.762 -95.794,-25.665l-589.751,-0c-23.997,13.159 -54.636,21.056 -88.002,21.056c-42.332,-0 -120.313,-147.56 -90.404,-164.725Z" style="fill:url(#_Linear6);stroke:#af9581;stroke-width:15.9px;"/><path d="M164.776,1098.57l-0.47,-0l-0,-98.303c318.433,88.071 636.866,86.3 955.299,-0l0,98.303l0.195,-0c34.895,17.015 -25.691,169.334 -91.073,169.334c-37.091,0 -70.818,-9.762 -95.794,-25.665c-196.584,46.607 -393.168,47.724 -589.751,-0c-23.997,13.159 -54.636,21.056 -88.002,21.056c-76.875,-0 -120.313,-147.56 -90.404,-164.725Z" style="fill:url(#_Linear7);stroke:#af9581;stroke-width:15.9px;"/></g></g><path d="M190.831,725.999c-3.223,3.458 -3.813,8.927 -1.136,14.262c4.503,8.975 30.359,5.377 31.243,-0.77c0.404,-2.802 -0.471,-5.092 -2.75,-6.821c-10.762,-8.606 -41.896,-9.982 -51.155,2.201c-3.115,5.961 2.553,11.799 18.482,17.492c20.793,5.289 40.93,5.331 59.846,-4.401c7.405,-4.605 8.11,-9.49 2.64,-14.631c-26.747,-19.473 -57.761,-28.796 -100.88,-9.351c-5.874,3.472 -8.236,9.831 -6.601,19.472c5.964,12.065 18.672,22.386 48.955,28.162c33.815,7.665 67.086,10.038 106.821,4.181c16.344,-2.409 44.766,-7.32 59.28,-10.332c57.044,-11.837 117.689,-18.319 192.535,-21.351c46.318,-1.876 92.611,-4.202 139.357,1.189c57.825,4.469 115.516,10.71 172.923,20.628c48.927,7.516 97.138,13.062 142.708,11.347c43.121,-0.063 78.237,-6.307 98.725,-25.023c11.587,-12.839 7.238,-27.773 -3.971,-31.429c-23.455,-7.651 -48.684,-11.867 -76.974,0.036c-24.39,8.2 -34.174,27.831 -3.343,32.915c13.431,2.215 64.129,0.128 64.795,-14.1c-0.699,-8.57 -7.61,-12.894 -20.881,-12.872c-25.097,-0 -33.155,4.745 -33.711,9.509c-0.648,5.553 5.31,8.224 13.83,7.621c7.808,-0.551 16.627,0.117 17.051,-6.679c0.24,-3.949 -0.22,-7.649 -3.549,-10.339" style="fill:none;stroke:#fff;stroke-width:4.4px;"/><path d="M1108.83,735.415c0.614,-44.367 -28.81,-252.894 -31.612,-328.949c-7.288,-197.861 -9.263,-228.471 -10.728,-307.875c-0.754,-40.865 -105.463,-25.284 -106.712,4.789l5.172,49.429c-40.958,0.857 -77.136,-2.631 -112.459,-6.897c-56.041,-6.986 -105.148,-12.238 -150.968,-16.668c-62.946,-5.881 -126.658,-3.706 -190.626,1.15c-34.198,2.596 -117.595,15.639 -153.267,19.541c-21.694,2.374 -46.294,2.661 -73.185,3.066l3.066,-52.686c-22.045,-33.887 -84.408,-31.219 -104.154,-3.223l-10.538,294.321c-8.096,145.49 -39.879,317.845 -33.047,350.598" style="fill:#fff;fill-opacity:0.18;stroke:#fff;stroke-width:4.4px;"/><path d="M284.45,153.001c-9.413,72.212 -17.976,155.91 -25.345,255.71c-5.396,75.552 -8.561,179.363 -7.825,332.576" style="fill:none;stroke:#fff;stroke-width:4.4px;"/><path d="M965.116,151.592c6.769,80.714 23.261,227.616 27.588,293.123c5.703,86.333 1.032,321.894 6.514,298.104" style="fill:none;stroke:#fff;stroke-width:4.4px;"/><g><text x="365.339px" y="388.179px" style="font-family:'HermeticSpellbook', 'Hermetic Spellbook';font-size:316.465px;fill:#00ffd1;">FUCK</text><text x="364.02px" y="601.055px" style="font-family:'HermeticSpellbook', 'Hermetic Spellbook';font-size:210.977px;fill:#00ffd1;">THIS</text></g><defs><linearGradient id="_Linear1" x1="0" y1="0" x2="1" y2="0" gradientUnits="userSpaceOnUse" gradientTransform="matrix(971.978,0,0,691.488,147.206,2651.39)"><stop offset="0" style="stop-color:#f3eee3;stop-opacity:1"/><stop offset="0.26" style="stop-color:#fdf6ed;stop-opacity:1"/><stop offset="0.41" style="stop-color:#fffaf3;stop-opacity:1"/><stop offset="0.57" style="stop-color:#fef8ef;stop-opacity:1"/><stop offset="0.71" style="stop-color:#f2ece4;stop-opacity:1"/><stop offset="1" style="stop-color:#f0eae2;stop-opacity:1"/></linearGradient><linearGradient id="_Linear2" x1="0" y1="0" x2="1" y2="0" gradientUnits="userSpaceOnUse" gradientTransform="matrix(976.151,0,0,694.456,147.206,2477.15)"><stop offset="0" style="stop-color:#f3eee3;stop-opacity:1"/><stop offset="0.26" style="stop-color:#fdf6ed;stop-opacity:1"/><stop offset="0.41" style="stop-color:#fffaf3;stop-opacity:1"/><stop offset="0.57" style="stop-color:#fef8ef;stop-opacity:1"/><stop offset="0.71" style="stop-color:#f2ece4;stop-opacity:1"/><stop offset="1" style="stop-color:#f0eae2;stop-opacity:1"/></linearGradient><linearGradient id="_Linear3" x1="0" y1="0" x2="1" y2="0" gradientUnits="userSpaceOnUse" gradientTransform="matrix(1248.64,0,0,888.312,10.9469,2437.78)"><stop offset="0" style="stop-color:#f3eee3;stop-opacity:1"/><stop offset="0.26" style="stop-color:#fdf6ed;stop-opacity:1"/><stop offset="0.41" style="stop-color:#fffaf3;stop-opacity:1"/><stop offset="0.57" style="stop-color:#fef8ef;stop-opacity:1"/><stop offset="0.71" style="stop-color:#f2ece4;stop-opacity:1"/><stop offset="1" style="stop-color:#f0eae2;stop-opacity:1"/></linearGradient><linearGradient id="_Linear4" x1="0" y1="0" x2="1" y2="0" gradientUnits="userSpaceOnUse" gradientTransform="matrix(1248.64,0,0,888.312,10.9469,2353.7)"><stop offset="0" style="stop-color:#f3eee3;stop-opacity:1"/><stop offset="0.26" style="stop-color:#fdf6ed;stop-opacity:1"/><stop offset="0.41" style="stop-color:#fffaf3;stop-opacity:1"/><stop offset="0.57" style="stop-color:#fef8ef;stop-opacity:1"/><stop offset="0.71" style="stop-color:#f2ece4;stop-opacity:1"/><stop offset="1" style="stop-color:#f0eae2;stop-opacity:1"/></linearGradient><linearGradient id="_Linear5" x1="0" y1="0" x2="1" y2="0" gradientUnits="userSpaceOnUse" gradientTransform="matrix(618.22,0,0,244.171,327.434,1785.8)"><stop offset="0" style="stop-color:#f3eee3;stop-opacity:1"/><stop offset="0.26" style="stop-color:#fdf6ed;stop-opacity:1"/><stop offset="0.41" style="stop-color:#fffaf3;stop-opacity:1"/><stop offset="0.57" style="stop-color:#fef8ef;stop-opacity:1"/><stop offset="0.71" style="stop-color:#f2ece4;stop-opacity:1"/><stop offset="1" style="stop-color:#f0eae2;stop-opacity:1"/></linearGradient><linearGradient id="_Linear6" x1="0" y1="0" x2="1" y2="0" gradientUnits="userSpaceOnUse" gradientTransform="matrix(1003.03,0,0,713.575,116.984,2252.49)"><stop offset="0" style="stop-color:#f3eee3;stop-opacity:1"/><stop offset="0.26" style="stop-color:#fdf6ed;stop-opacity:1"/><stop offset="0.41" style="stop-color:#fffaf3;stop-opacity:1"/><stop offset="0.57" style="stop-color:#fef8ef;stop-opacity:1"/><stop offset="0.71" style="stop-color:#f2ece4;stop-opacity:1"/><stop offset="1" style="stop-color:#f0eae2;stop-opacity:1"/></linearGradient><linearGradient id="_Linear7" x1="0" y1="0" x2="1" y2="0" gradientUnits="userSpaceOnUse" gradientTransform="matrix(1003.03,0,0,713.575,116.984,2252.49)"><stop offset="0" style="stop-color:#f3eee3;stop-opacity:1"/><stop offset="0.26" style="stop-color:#fdf6ed;stop-opacity:1"/><stop offset="0.41" style="stop-color:#fffaf3;stop-opacity:1"/><stop offset="0.57" style="stop-color:#fef8ef;stop-opacity:1"/><stop offset="0.71" style="stop-color:#f2ece4;stop-opacity:1"/><stop offset="1" style="stop-color:#f0eae2;stop-opacity:1"/></linearGradient></defs></svg>