<?xml version="1.0" encoding="UTF-8" standalone="no"?><!DOCTYPE svg PUBLIC "-//W3C//DTD SVG 1.1//EN" "http://www.w3.org/Graphics/SVG/1.1/DTD/svg11.dtd">
<svg width="100%" height="100%" viewBox="0 0 650 287" version="1.1"
    xmlns="http://www.w3.org/2000/svg"
    xmlns:xlink="http://www.w3.org/1999/xlink" xml:space="preserve"
    xmlns:serif="http://www.serif.com/" style="fill-rule:evenodd;clip-rule:evenodd;stroke-linejoin:round;stroke-miterlimit:2;">
    <rect id="Artboard1" x="0" y="0" width="649.579" height="286.6" style="fill:none;"/>
    <style>
        g {
            animation: 10s glw infinite;
        }
        @keyframes glw {
            10% {
                filter: drop-shadow(.2em .2em .2em #ff008f) drop-shadow(0 0 .06em #ff89cb);
            }
            20% {
                filter: drop-shadow(.2em .2em .2em #ff008f) drop-shadow(0 0 .05em #ff89cb);    
            }
        }
        path {
            fill: #ff8ae5;
            fill-rule: nonzero;
            stroke-width: .1em;
            stroke: #ff008f;
            filter: drop-shadow(.2em .2em .2em #ff008f) drop-shadow(0 0 .05em #ff89cb);
        }
    </style>
    <g>
        <path d="M98.923,139.981c15,-0.6 33,-2.701 48.6,-6.001c38.4,-8.701 80.4,-27.604 83.1,-60.609c1.5,-17.403 -12,-34.506 -35.4,-42.607c-42.3,-13.502 -96.3,-6.901 -126.6,7.501c-16.5,8.402 -40.463,24.004 -44.063,42.907c0,1.5 0.6,4.5 0.6,4.801c-3.9,18.302 15.574,30.004 24.863,31.504c3.9,0.9 5.7,-1.5 2.1,-4.2c-6,-3.601 -21.863,-7.501 -19.466,-21.904c8.077,-48.907 114.866,-63.609 163.466,-50.107c30.3,9.001 34.5,32.105 16.8,50.407c-22.8,23.704 -67.5,38.106 -105.3,42.307c-5.7,0.9 -10.2,-0 -12.9,-1.2c18.9,-33.005 42.9,-68.111 60,-68.111c1.5,0 4.8,3.001 3.3,-1.8c-1.8,-7.201 -13.8,-10.202 -16.8,-10.202c-15.6,0 -37.2,25.804 -38.7,35.706c0.6,1.8 1.5,4.801 -2.1,12.302c-2.7,5.701 -8.7,16.202 -15,28.204c-1.8,-1.5 -5.4,-2.7 -7.2,-2.7c-10.2,-0 -12.3,9.601 -6.3,13.502c1.2,0.6 3.6,1.5 6.6,1.8c-12.6,24.904 -26.1,52.808 -24.6,64.21c0.3,2.1 10.2,3.6 11.7,3.6c8.1,0 16.5,-14.402 21,-21.003c0.3,-0.3 5.4,-6.301 3.9,-7.801c-2.4,-0.3 -6.6,4.801 -11.1,10.201c-6.9,8.102 -16.8,9.302 -9.9,-7.801c3.9,-8.701 11.4,-24.603 20.4,-41.406c-0,-0 1.2,-1.2 2.1,0.3c25.2,33.005 57.9,100.215 126,113.393c23.4,4.492 46.5,-4.791 51,-18.879c2.4,-6.601 3.9,-14.402 2.1,-24.003c-1.2,-5.101 -7.2,-6.301 -6,-0.3c5.4,25.504 -23.7,31.803 -42,28.504c-58.5,-10.802 -90,-58.509 -124.2,-100.515Z" />
        <path d="M269.623,139.397c5.7,-8.4 7.5,-23.7 -4.8,-27.9c-22.5,-7.501 -69,31.8 -77.986,52.195c-16.477,37.769 21.886,50.067 52.486,37.769c21,-8.693 39.9,-25.179 51.9,-44.964c1.2,-1.5 1.2,-3 -0.3,-3.6c-0.6,-0.6 -2.1,-0.6 -3.3,0.9c-10.8,16.49 -30,32.676 -52.2,41.669c-19.5,7.793 -42.6,7.493 -35.1,-17.686c6.6,-21.883 32.4,-46.783 50.1,-54.883c4.2,-2.1 15,-6.6 15.3,1.8c0.6,6.6 -8.4,15.6 -13.5,19.5c-11.1,9 -27.9,18.596 -37.5,19.495c-4.5,0.3 -2.4,4.496 2.1,4.197c13.5,-1.199 42,-12.592 52.8,-28.492Z" />
        <path d="M311.938,126.797c6.903,-13.5 14.706,-28.8 18.007,-34.8c12.905,-23.1 28.211,-44.7 46.486,-58.8c13.192,-9.901 20.092,-3.001 11.992,11.7c-15.878,30.6 -55.477,82.5 -84.888,102.6c2.401,-6.6 5.102,-13.8 8.403,-20.7Zm-12.905,32.7c37.515,-31.2 72.914,-66.3 97.49,-109.2c10.8,-19.5 0.9,-30.001 -12.6,-30.001c-20.365,0 -33.87,18.001 -45.274,32.701c-19.508,25.8 -55.822,97.5 -57.622,127.5c-0.601,13.8 4.801,23.982 22.808,23.982c5.702,-0 12.605,-2.086 18.607,-6.582c15.006,-11.1 33.913,-30.9 39.916,-41.4c1.8,-3.3 -1.801,-5.1 -3.302,-3c-10.204,14.4 -32.412,34.5 -44.117,40.8c-17.406,9.884 -21.608,-6.3 -19.807,-21c0.3,-3 1.801,-7.8 3.901,-13.8Z" />
        <path d="M369.841,201.176c24,-0 52.5,-41.997 57.6,-44.398c-3.9,10.505 -7.5,28.513 -4.8,36.617c6,17.964 28.2,10.766 37.8,3.602c15,-10.805 33.6,-30.615 39,-41.119c1.5,-2.702 -2.1,-4.502 -3.6,-2.401c-12.3,17.408 -34.8,36.316 -44.7,41.719c-9.6,5.084 -15.6,-1.801 -13.8,-14.707c1.2,-9.604 7.2,-28.213 18,-43.52c2.7,-4.802 -9,-7.203 -12,-7.203c-2.7,-0 -25.5,25.211 -29.7,29.713c-7.8,8.404 -21.3,19.809 -29.1,26.412c-4.2,3.302 -18.9,14.091 -23.1,8.104c-9.3,-13.206 15.6,-41.719 24,-49.523c15.6,-13.806 36.6,-25.811 52.2,-25.811c5.7,-0 11.7,0.6 15,5.702c1.5,0.601 1.8,0.601 1.8,-1.5c0,-3.002 -2.1,-6.003 -5.1,-8.104c-7.8,-5.378 -21,-4.78 -30,-2.39c-22.5,5.391 -90.9,50.412 -68.7,78.625c4.5,6.003 12.9,10.182 19.2,10.182Z" />
        <path d="M538.14,168.179c3.592,10.806 12.283,31.793 25.483,34.78c8.4,1.8 17.1,0.3 30.9,-12.267c11.7,-11.406 24,-28.817 27.6,-34.22c2.1,-3.302 -1.5,-5.104 -3.6,-3.002c-4.5,5.703 -15,19.812 -24.6,30.318c-11.4,11.707 -22.8,17.971 -31.8,1.201c-6,-10.807 -11.1,-24.315 -11.1,-28.818c-0,0 18.9,-15.009 21.6,-16.81c6.3,-5.399 13.8,-11.382 28.5,-17.067c2.1,-0.598 6.9,0.598 6.9,-3.597c-0,-5.7 -7.5,-9.3 -13.5,-6.3c-17.1,10.795 -30.3,21.864 -45,36.27c-5.098,-14.705 -5.397,-29.97 -20.064,-29.97c-9.907,-0 -28.224,28.169 -35.431,37.174c-3.003,3.602 0,7.505 3.904,3.002c14.113,-16.51 22.52,-31.493 30.628,-17.11c4.192,7.204 5.988,13.508 5.988,17.41c-0,4.203 -63.588,59.986 -63.588,96.586c0,3.9 4.496,5.7 4.795,0c1.197,-24.3 44.397,-69.269 62.385,-87.58Z" />
    </g>
</svg>