<?xml version="1.0" encoding="UTF-8" standalone="no"?><!DOCTYPE svg PUBLIC "-//W3C//DTD SVG 1.1//EN" "http://www.w3.org/Graphics/SVG/1.1/DTD/svg11.dtd"><svg width="100%" height="100%" viewBox="0 0 1000 1000" version="1.1" xmlns="http://www.w3.org/2000/svg" xmlns:xlink="http://www.w3.org/1999/xlink" xml:space="preserve" xmlns:serif="http://www.serif.com/" style="fill-rule:evenodd;clip-rule:evenodd;stroke-linecap:round;stroke-linejoin:round;stroke-miterlimit:1.5;"><rect id="Artboard1" x="0" y="0" width="1000" height="1000" style="fill:none;"/><g id="Artboard11" serif:id="Artboard1"><g><path d="M762.718,96.315l12.865,81.658l82.665,0.094l-8.709,82.205l79.824,21.486l-29.688,77.15l71.543,41.414l-48.644,66.837l58.387,58.519l-64.286,51.97l41.251,71.637l-75.546,33.561l21.305,79.872l-81.658,12.865l-0.094,82.665l-82.205,-8.709l-21.486,79.824l-77.15,-29.688l-41.414,71.543l-66.837,-48.644l-58.519,58.387l-51.97,-64.286l-71.637,41.251l-33.561,-75.546l-79.872,21.305l-12.865,-81.658l-82.665,-0.094l8.709,-82.205l-79.824,-21.486l29.688,-77.15l-71.543,-41.414l48.644,-66.837l-58.387,-58.519l64.286,-51.97l-41.251,-71.637l75.546,-33.561l-21.305,-79.872l81.658,-12.865l0.094,-82.665l82.205,8.709l21.486,-79.824l77.15,29.688l41.414,-71.543l66.837,48.644l58.519,-58.387l51.97,64.286l71.637,-41.251l33.561,75.546l79.872,-21.305Z" style="fill:url(#_Linear1);stroke:#d359f5;stroke-width:1px;"/></g><circle cx="500" cy="500" r="388.749" style="fill:url(#_Linear2);stroke:#d359f5;stroke-width:10.99px;"/><g><path d="M308.112,611.059c2.584,1.333 3.875,3.458 3.875,6.375c0,1.75 -0.625,3.458 -1.875,5.125c-1.333,1.75 -3.041,2.625 -5.125,2.625c-1.416,-0 -2.833,-0.375 -4.25,-1.125c-4.083,-1.917 -8.5,-2.875 -13.25,-2.875c-5.833,-0 -10.916,1.229 -15.25,3.687c-4.333,2.459 -7.666,5.917 -10,10.375c-2.333,4.459 -3.5,9.563 -3.5,15.313c0,9.833 2.646,17.291 7.938,22.375c5.291,5.083 12.229,7.625 20.812,7.625c5.084,-0 9.5,-0.959 13.25,-2.875c1.5,-0.667 2.834,-1 4,-1c2.167,-0 4,0.916 5.5,2.75c1.25,1.583 1.875,3.291 1.875,5.125c0,1.333 -0.333,2.541 -1,3.625c-0.666,1.083 -1.625,1.916 -2.875,2.5c-6.5,3.25 -13.416,4.875 -20.75,4.875c-8.166,-0 -15.666,-1.729 -22.5,-5.188c-6.833,-3.458 -12.291,-8.562 -16.375,-15.312c-4.083,-6.75 -6.125,-14.917 -6.125,-24.5c0,-8.5 1.938,-16.125 5.813,-22.875c3.875,-6.75 9.229,-12.021 16.062,-15.813c6.834,-3.791 14.542,-5.687 23.125,-5.687c7.417,-0 14.292,1.625 20.625,4.875Z" style="fill:#d191ff;fill-rule:nonzero;stroke:#e6beff;stroke-width:2.02px;stroke-linecap:butt;stroke-miterlimit:2;"/><path d="M383.987,659.309c-0.083,2 -0.875,3.625 -2.375,4.875c-1.5,1.25 -3.25,1.875 -5.25,1.875l-41.25,-0c1,4.916 3.292,8.771 6.875,11.562c3.584,2.792 7.625,4.188 12.125,4.188c3.417,-0 6.084,-0.313 8,-0.938c1.917,-0.625 3.438,-1.291 4.563,-2c1.125,-0.708 1.896,-1.187 2.312,-1.437c1.5,-0.75 2.917,-1.125 4.25,-1.125c1.75,-0 3.25,0.625 4.5,1.875c1.25,1.25 1.875,2.708 1.875,4.375c0,2.25 -1.166,4.291 -3.5,6.125c-2.333,1.916 -5.458,3.541 -9.375,4.875c-3.916,1.333 -7.875,2 -11.875,2c-7,-0 -13.104,-1.459 -18.312,-4.375c-5.209,-2.917 -9.229,-6.938 -12.063,-12.063c-2.833,-5.125 -4.25,-10.896 -4.25,-17.312c0,-7.167 1.5,-13.459 4.5,-18.875c3,-5.417 6.959,-9.563 11.875,-12.438c4.917,-2.875 10.167,-4.312 15.75,-4.312c5.5,-0 10.688,1.5 15.563,4.5c4.875,3 8.771,7.041 11.687,12.125c2.917,5.083 4.375,10.583 4.375,16.5Zm-31.625,-19.375c-9.666,-0 -15.375,4.541 -17.125,13.625l32.75,-0l0,-0.875c-0.333,-3.5 -2.041,-6.5 -5.125,-9c-3.083,-2.5 -6.583,-3.75 -10.5,-3.75Z" style="fill:#d191ff;fill-rule:nonzero;stroke:#e6beff;stroke-width:2.02px;stroke-linecap:butt;stroke-miterlimit:2;"/><path d="M431.237,626.184c2.5,-0 4.604,0.708 6.313,2.125c1.708,1.416 2.562,3.083 2.562,5c0,2.583 -0.666,4.521 -2,5.812c-1.333,1.292 -2.916,1.938 -4.75,1.938c-1.25,-0 -2.666,-0.292 -4.25,-0.875c-0.25,-0.084 -0.812,-0.25 -1.687,-0.5c-0.875,-0.25 -1.813,-0.375 -2.813,-0.375c-2.166,-0 -4.25,0.666 -6.25,2c-2,1.333 -3.646,3.354 -4.937,6.062c-1.292,2.709 -1.938,5.938 -1.938,9.688l0,29.625c0,2.166 -0.708,3.979 -2.125,5.437c-1.416,1.459 -3.208,2.188 -5.375,2.188c-2.166,-0 -3.958,-0.729 -5.375,-2.188c-1.416,-1.458 -2.125,-3.271 -2.125,-5.437l0,-51.625c0,-2.167 0.709,-3.979 2.125,-5.438c1.417,-1.458 3.209,-2.187 5.375,-2.187c2.167,-0 3.959,0.729 5.375,2.187c1.417,1.459 2.125,3.271 2.125,5.438l0,1.625c1.917,-3.417 4.667,-6.021 8.25,-7.813c3.584,-1.791 7.417,-2.687 11.5,-2.687Z" style="fill:#d191ff;fill-rule:nonzero;stroke:#e6beff;stroke-width:2.02px;stroke-linecap:butt;stroke-miterlimit:2;"/><path d="M482.987,680.184c1.167,-0 2.229,0.562 3.188,1.687c0.958,1.125 1.437,2.604 1.437,4.438c0,2.25 -1.229,4.146 -3.687,5.687c-2.459,1.542 -5.229,2.313 -8.313,2.313c-5.166,-0 -9.521,-1.104 -13.062,-3.313c-3.542,-2.208 -5.313,-6.896 -5.313,-14.062l0,-34.5l-5.75,-0c-2,-0 -3.666,-0.667 -5,-2c-1.333,-1.334 -2,-3 -2,-5c0,-1.917 0.667,-3.521 2,-4.813c1.334,-1.291 3,-1.937 5,-1.937l5.75,-0l0,-8c0,-2.167 0.729,-3.979 2.188,-5.438c1.458,-1.458 3.271,-2.187 5.437,-2.187c2.084,-0 3.834,0.729 5.25,2.187c1.417,1.459 2.125,3.271 2.125,5.438l0,8l8.875,-0c2,-0 3.667,0.666 5,2c1.334,1.333 2,3 2,5c0,1.916 -0.666,3.521 -2,4.812c-1.333,1.292 -3,1.938 -5,1.938l-8.875,-0l0,33.875c0,1.75 0.459,3.021 1.375,3.812c0.917,0.792 2.167,1.188 3.75,1.188c0.667,-0 1.584,-0.167 2.75,-0.5c1,-0.417 1.959,-0.625 2.875,-0.625Z" style="fill:#d191ff;fill-rule:nonzero;stroke:#e6beff;stroke-width:2.02px;stroke-linecap:butt;stroke-miterlimit:2;"/><path d="M515.987,686.684c0,2.166 -0.708,3.979 -2.125,5.437c-1.416,1.459 -3.208,2.188 -5.375,2.188c-2.166,-0 -3.958,-0.729 -5.375,-2.188c-1.416,-1.458 -2.125,-3.271 -2.125,-5.437l0,-51.625c0,-2.167 0.709,-3.979 2.125,-5.438c1.417,-1.458 3.209,-2.187 5.375,-2.187c2.167,-0 3.959,0.729 5.375,2.187c1.417,1.459 2.125,3.271 2.125,5.438l0,51.625Zm-7.625,-67.375c-2.833,-0 -4.833,-0.459 -6,-1.375c-1.166,-0.917 -1.75,-2.542 -1.75,-4.875l0,-2.375c0,-2.334 0.625,-3.959 1.875,-4.875c1.25,-0.917 3.25,-1.375 6,-1.375c2.917,-0 4.959,0.458 6.125,1.375c1.167,0.916 1.75,2.541 1.75,4.875l0,2.375c0,2.416 -0.604,4.062 -1.812,4.937c-1.209,0.875 -3.271,1.313 -6.188,1.313Z" style="fill:#d191ff;fill-rule:nonzero;stroke:#e6beff;stroke-width:2.02px;stroke-linecap:butt;stroke-miterlimit:2;"/><path d="M563.487,615.059c-2.833,-0 -4.833,0.812 -6,2.437c-1.166,1.625 -1.75,3.396 -1.75,5.313l0,5.875l11.375,-0c2,-0 3.667,0.646 5,1.937c1.334,1.292 2,2.938 2,4.938c0,2 -0.666,3.646 -2,4.937c-1.333,1.292 -3,1.938 -5,1.938l-11.375,-0l0,44.25c0,2.166 -0.708,3.979 -2.125,5.437c-1.416,1.459 -3.208,2.188 -5.375,2.188c-2.166,-0 -3.958,-0.729 -5.375,-2.188c-1.416,-1.458 -2.125,-3.271 -2.125,-5.437l0,-44.25l-6.75,-0c-2,-0 -3.666,-0.646 -5,-1.938c-1.333,-1.291 -2,-2.937 -2,-4.937c0,-2 0.667,-3.646 2,-4.938c1.334,-1.291 3,-1.937 5,-1.937l6.75,-0l0,-5.75c0,-6.25 2.146,-11.334 6.438,-15.25c4.291,-3.917 10.479,-5.875 18.562,-5.875c3.084,-0 5.771,0.625 8.063,1.875c2.291,1.25 3.437,3.166 3.437,5.75c0,2 -0.583,3.625 -1.75,4.875c-1.166,1.25 -2.583,1.875 -4.25,1.875c-0.416,-0 -0.854,-0.042 -1.312,-0.125c-0.459,-0.084 -0.938,-0.167 -1.438,-0.25c-2,-0.5 -3.666,-0.75 -5,-0.75Zm34.125,71.625c0,2.166 -0.708,3.979 -2.125,5.437c-1.416,1.459 -3.208,2.188 -5.375,2.188c-2.166,-0 -3.958,-0.729 -5.375,-2.188c-1.416,-1.458 -2.125,-3.271 -2.125,-5.437l0,-51.625c0,-2.167 0.709,-3.979 2.125,-5.438c1.417,-1.458 3.209,-2.187 5.375,-2.187c2.167,-0 3.959,0.729 5.375,2.187c1.417,1.459 2.125,3.271 2.125,5.438l0,51.625Zm-7.625,-67.375c-2.833,-0 -4.833,-0.459 -6,-1.375c-1.166,-0.917 -1.75,-2.542 -1.75,-4.875l0,-2.375c0,-2.334 0.625,-3.959 1.875,-4.875c1.25,-0.917 3.25,-1.375 6,-1.375c2.917,-0 4.959,0.458 6.125,1.375c1.167,0.916 1.75,2.541 1.75,4.875l0,2.375c0,2.416 -0.604,4.062 -1.812,4.937c-1.209,0.875 -3.271,1.313 -6.188,1.313Z" style="fill:#d191ff;fill-rule:nonzero;stroke:#e6beff;stroke-width:2.02px;stroke-linecap:butt;stroke-miterlimit:2;"/><path d="M672.987,659.309c-0.083,2 -0.875,3.625 -2.375,4.875c-1.5,1.25 -3.25,1.875 -5.25,1.875l-41.25,-0c1,4.916 3.292,8.771 6.875,11.562c3.584,2.792 7.625,4.188 12.125,4.188c3.417,-0 6.084,-0.313 8,-0.938c1.917,-0.625 3.438,-1.291 4.563,-2c1.125,-0.708 1.896,-1.187 2.312,-1.437c1.5,-0.75 2.917,-1.125 4.25,-1.125c1.75,-0 3.25,0.625 4.5,1.875c1.25,1.25 1.875,2.708 1.875,4.375c0,2.25 -1.166,4.291 -3.5,6.125c-2.333,1.916 -5.458,3.541 -9.375,4.875c-3.916,1.333 -7.875,2 -11.875,2c-7,-0 -13.104,-1.459 -18.312,-4.375c-5.209,-2.917 -9.229,-6.938 -12.063,-12.063c-2.833,-5.125 -4.25,-10.896 -4.25,-17.312c0,-7.167 1.5,-13.459 4.5,-18.875c3,-5.417 6.959,-9.563 11.875,-12.438c4.917,-2.875 10.167,-4.312 15.75,-4.312c5.5,-0 10.688,1.5 15.563,4.5c4.875,3 8.771,7.041 11.687,12.125c2.917,5.083 4.375,10.583 4.375,16.5Zm-31.625,-19.375c-9.666,-0 -15.375,4.541 -17.125,13.625l32.75,-0l0,-0.875c-0.333,-3.5 -2.041,-6.5 -5.125,-9c-3.083,-2.5 -6.583,-3.75 -10.5,-3.75Z" style="fill:#d191ff;fill-rule:nonzero;stroke:#e6beff;stroke-width:2.02px;stroke-linecap:butt;stroke-miterlimit:2;"/><path d="M739.612,601.809c2.167,-0 3.959,0.708 5.375,2.125c1.417,1.416 2.125,3.25 2.125,5.5l0,77.25c0,2.166 -0.708,3.979 -2.125,5.437c-1.416,1.459 -3.208,2.188 -5.375,2.188c-2.166,-0 -3.937,-0.709 -5.312,-2.125c-1.375,-1.417 -2.104,-3.209 -2.188,-5.375c-2.083,2.416 -4.896,4.479 -8.437,6.187c-3.542,1.709 -7.271,2.563 -11.188,2.563c-5.75,-0 -10.958,-1.479 -15.625,-4.438c-4.666,-2.958 -8.354,-7.062 -11.062,-12.312c-2.709,-5.25 -4.063,-11.209 -4.063,-17.875c0,-6.667 1.334,-12.646 4,-17.938c2.667,-5.291 6.313,-9.416 10.938,-12.375c4.625,-2.958 9.729,-4.437 15.312,-4.437c4,-0 7.75,0.729 11.25,2.187c3.5,1.459 6.459,3.313 8.875,5.563l0,-24.5c0,-2.167 0.709,-3.979 2.125,-5.438c1.417,-1.458 3.209,-2.187 5.375,-2.187Zm-25.25,80c5.417,-0 9.834,-1.979 13.25,-5.938c3.417,-3.958 5.125,-8.937 5.125,-14.937c0,-6 -1.708,-11 -5.125,-15c-3.416,-4 -7.833,-6 -13.25,-6c-5.333,-0 -9.708,2 -13.125,6c-3.416,4 -5.125,9 -5.125,15c0,6 1.688,10.979 5.063,14.937c3.375,3.959 7.771,5.938 13.187,5.938Z" style="fill:#d191ff;fill-rule:nonzero;stroke:#e6beff;stroke-width:2.02px;stroke-linecap:butt;stroke-miterlimit:2;"/></g><g><path d="M327.32,347.805l0,15.867c0,0.778 -0.272,1.439 -0.816,1.983c-0.545,0.545 -1.206,0.817 -1.984,0.817l-58.216,0c-0.856,0 -1.536,-0.272 -2.042,-0.817c-0.505,-0.544 -0.758,-1.205 -0.758,-1.983l-0,-79.8c-0,-0.778 0.253,-1.439 0.758,-1.983c0.506,-0.545 1.186,-0.817 2.042,-0.817l17.5,0c0.778,0 1.439,0.272 1.983,0.817c0.545,0.544 0.817,1.205 0.817,1.983l-0,58.333c-0,0.778 0.253,1.439 0.758,1.984c0.506,0.544 1.186,0.816 2.042,0.816l35.116,0c0.778,0 1.439,0.273 1.984,0.817c0.544,0.544 0.816,1.206 0.816,1.983Z" style="fill:#d191ff;fill-rule:nonzero;stroke:#e6beff;stroke-width:3.84px;stroke-linecap:butt;stroke-miterlimit:2;"/><path d="M331.754,283.989c-0,-0.778 0.271,-1.439 0.812,-1.984c0.541,-0.544 1.199,-0.816 1.973,-0.816l17.529,-0c0.775,-0 1.432,0.272 1.974,0.816c0.541,0.545 0.812,1.206 0.812,1.984l-0,47.25c-0,3.033 0.488,5.541 1.465,7.525c0.976,1.983 2.186,3.539 3.631,4.666c1.444,1.128 2.987,1.925 4.627,2.392c1.641,0.467 3.125,0.7 4.452,0.7c1.328,0 2.812,-0.233 4.452,-0.7c1.64,-0.467 3.163,-1.264 4.569,-2.392c1.405,-1.127 2.596,-2.683 3.572,-4.666c0.977,-1.984 1.465,-4.492 1.465,-7.525l0,-47.25c0,-0.778 0.271,-1.439 0.812,-1.984c0.542,-0.544 1.199,-0.816 1.974,-0.816l17.529,-0c0.774,-0 1.432,0.272 1.973,0.816c0.541,0.545 0.812,1.206 0.812,1.984l0,47.25c0,5.522 -0.873,10.539 -2.62,15.05c-1.747,4.511 -4.252,8.361 -7.513,11.55c-3.262,3.189 -7.184,5.658 -11.766,7.408c-4.581,1.75 -9.668,2.625 -15.259,2.625c-5.592,0 -10.678,-0.875 -15.26,-2.625c-4.581,-1.75 -8.503,-4.219 -11.765,-7.408c-3.262,-3.189 -5.786,-7.039 -7.571,-11.55c-1.786,-4.511 -2.679,-9.528 -2.679,-15.05l-0,-47.25Z" style="fill:#d191ff;fill-rule:nonzero;stroke:#e6beff;stroke-width:3.84px;stroke-linecap:butt;stroke-miterlimit:2;"/><path d="M444.92,322.022l-29.283,-37.567c-0.467,-0.622 -0.583,-1.322 -0.35,-2.1c0.233,-0.777 0.739,-1.166 1.517,-1.166l22.4,-0c0.778,-0 1.594,0.233 2.45,0.7c0.855,0.466 1.516,1.011 1.983,1.633l14.583,21.35c0.467,0.622 1.012,0.933 1.634,0.933c0.622,0 1.166,-0.311 1.633,-0.933c2.489,-3.5 4.958,-7.097 7.408,-10.792c2.45,-3.694 4.842,-7.252 7.175,-10.675c0.467,-0.622 1.128,-1.147 1.984,-1.575c0.855,-0.427 1.672,-0.641 2.45,-0.641l22.283,-0c0.933,-0 1.478,0.389 1.633,1.166c0.156,0.778 0,1.478 -0.466,2.1l-29.05,37.567c-0.467,0.622 -0.7,1.361 -0.7,2.217c-0,0.855 0.233,1.594 0.7,2.216l28.466,36.634c0.467,0.622 0.564,1.341 0.292,2.158c-0.272,0.817 -0.797,1.225 -1.575,1.225l-22.167,0c-0.777,0 -1.594,-0.233 -2.45,-0.7c-0.855,-0.467 -1.516,-1.011 -1.983,-1.633l-14,-20.417c-0.467,-0.622 -1.011,-0.933 -1.633,-0.933c-0.622,-0 -1.167,0.311 -1.634,0.933l-14,20.417c-0.466,0.622 -1.127,1.166 -1.983,1.633c-0.855,0.467 -1.672,0.7 -2.45,0.7l-22.167,0c-0.777,0 -1.283,-0.408 -1.516,-1.225c-0.234,-0.817 -0.117,-1.536 0.35,-2.158l28.466,-36.634c0.467,-0.622 0.7,-1.361 0.7,-2.216c0,-0.856 -0.233,-1.595 -0.7,-2.217Z" style="fill:#d191ff;fill-rule:nonzero;stroke:#e6beff;stroke-width:3.84px;stroke-linecap:butt;stroke-miterlimit:2;"/><path d="M511.654,283.989c-0,-0.778 0.271,-1.439 0.812,-1.984c0.541,-0.544 1.199,-0.816 1.973,-0.816l17.529,-0c0.775,-0 1.432,0.272 1.974,0.816c0.541,0.545 0.812,1.206 0.812,1.984l-0,47.25c-0,3.033 0.488,5.541 1.465,7.525c0.976,1.983 2.186,3.539 3.631,4.666c1.444,1.128 2.987,1.925 4.627,2.392c1.641,0.467 3.125,0.7 4.452,0.7c1.328,0 2.812,-0.233 4.452,-0.7c1.64,-0.467 3.163,-1.264 4.569,-2.392c1.405,-1.127 2.596,-2.683 3.572,-4.666c0.977,-1.984 1.465,-4.492 1.465,-7.525l0,-47.25c0,-0.778 0.271,-1.439 0.812,-1.984c0.542,-0.544 1.199,-0.816 1.974,-0.816l17.529,-0c0.774,-0 1.432,0.272 1.973,0.816c0.541,0.545 0.812,1.206 0.812,1.984l0,47.25c0,5.522 -0.873,10.539 -2.62,15.05c-1.747,4.511 -4.252,8.361 -7.513,11.55c-3.262,3.189 -7.184,5.658 -11.766,7.408c-4.581,1.75 -9.668,2.625 -15.259,2.625c-5.592,0 -10.678,-0.875 -15.26,-2.625c-4.581,-1.75 -8.503,-4.219 -11.765,-7.408c-3.262,-3.189 -5.786,-7.039 -7.571,-11.55c-1.786,-4.511 -2.679,-9.528 -2.679,-15.05l-0,-47.25Z" style="fill:#d191ff;fill-rule:nonzero;stroke:#e6beff;stroke-width:3.84px;stroke-linecap:butt;stroke-miterlimit:2;"/><path d="M623.989,366.472l-17.471,0c-0.781,0 -1.445,-0.272 -1.993,-0.817c-0.547,-0.544 -0.821,-1.205 -0.821,-1.983l-0,-79.8c-0,-0.778 0.272,-1.439 0.816,-1.983c0.545,-0.545 1.206,-0.817 1.984,-0.817l36.283,0c4.511,0 8.672,0.758 12.483,2.275c3.812,1.517 7.059,3.636 9.742,6.358c2.683,2.723 4.783,5.95 6.3,9.684c1.517,3.733 2.275,7.855 2.275,12.366c0,2.489 -0.292,4.959 -0.875,7.409c-0.583,2.45 -1.419,4.764 -2.508,6.941c-1.089,2.178 -2.372,4.142 -3.85,5.892c-1.478,1.75 -3.15,3.208 -5.017,4.375c-0.622,0.467 -1.03,1.031 -1.225,1.692c-0.194,0.661 -0.058,1.302 0.408,1.925c2.956,3.889 6.067,7.894 9.334,12.016c3.266,4.123 6.183,7.895 8.75,11.317c0.466,0.622 0.583,1.303 0.35,2.042c-0.234,0.739 -0.739,1.108 -1.517,1.108l-21.7,0c-0.778,0 -1.614,-0.214 -2.508,-0.642c-0.895,-0.427 -1.575,-0.952 -2.042,-1.575c-2.477,-3.266 -4.934,-6.572 -7.373,-9.916c-2.438,-3.345 -4.857,-6.728 -7.258,-10.15c-0.464,-0.623 -1.122,-1.148 -1.973,-1.575c-0.851,-0.428 -1.664,-0.642 -2.438,-0.642l-2.554,0c-0.774,0 -1.432,0.272 -1.974,0.817c-0.542,0.544 -0.813,1.205 -0.813,1.983l-0,18.9c-0,0.778 -0.274,1.439 -0.821,1.983c-0.548,0.545 -1.212,0.817 -1.994,0.817Zm5.6,-45.967l12.307,0c0.928,0 1.896,-0.175 2.902,-0.525c1.006,-0.35 1.935,-0.894 2.786,-1.633c0.851,-0.739 1.548,-1.653 2.09,-2.742c0.542,-1.089 0.813,-2.372 0.813,-3.85c0,-0.777 -0.135,-1.691 -0.406,-2.741c-0.271,-1.05 -0.736,-2.061 -1.393,-3.034c-0.658,-0.972 -1.547,-1.789 -2.67,-2.45c-1.122,-0.661 -2.496,-0.991 -4.122,-0.991l-12.307,-0c-0.773,-0 -1.43,0.272 -1.972,0.816c-0.542,0.545 -0.813,1.206 -0.813,1.984l-0,12.366c-0,0.778 0.271,1.439 0.813,1.984c0.542,0.544 1.199,0.816 1.972,0.816Z" style="fill:#d191ff;fill-rule:nonzero;stroke:#e6beff;stroke-width:3.84px;stroke-linecap:butt;stroke-miterlimit:2;"/><path d="M756.77,284.455l-29.166,47.25c-0.389,0.7 -0.739,1.556 -1.05,2.567c-0.311,1.011 -0.467,1.906 -0.467,2.683l0,26.717c0,0.778 -0.271,1.439 -0.812,1.983c-0.541,0.545 -1.199,0.817 -1.973,0.817l-17.529,0c-0.775,0 -1.432,-0.272 -1.974,-0.817c-0.541,-0.544 -0.812,-1.205 -0.812,-1.983l0,-26.6c0,-0.778 -0.136,-1.692 -0.408,-2.742c-0.272,-1.05 -0.603,-1.886 -0.992,-2.508c-4.667,-8.011 -9.43,-15.867 -14.292,-23.567c-4.861,-7.7 -9.702,-15.633 -14.525,-23.8c-0.388,-0.7 -0.466,-1.419 -0.233,-2.158c0.233,-0.739 0.739,-1.108 1.517,-1.108l20.766,-0c0.778,-0 1.575,0.233 2.392,0.7c0.817,0.466 1.42,1.05 1.808,1.75l14.298,24.966c0.387,0.623 0.852,0.934 1.393,0.934c0.542,-0 1.006,-0.311 1.394,-0.934l14.182,-24.966c0.389,-0.7 0.992,-1.284 1.808,-1.75c0.817,-0.467 1.614,-0.7 2.392,-0.7l21,-0c0.778,-0 1.342,0.272 1.692,0.816c0.35,0.545 0.214,1.361 -0.409,2.45Z" style="fill:#d191ff;fill-rule:nonzero;stroke:#e6beff;stroke-width:3.84px;stroke-linecap:butt;stroke-miterlimit:2;"/><path d="M266.818,461.555c-2.255,3.645 -4.744,6.957 -7.466,9.935c-2.722,2.979 -5.775,5.512 -9.159,7.601c-3.383,2.088 -7.136,3.713 -11.258,4.873c-4.122,1.161 -8.672,1.741 -13.65,1.741c-6.222,0 -12.055,-1.166 -17.5,-3.5c-5.444,-2.333 -10.208,-5.483 -14.292,-9.45c-4.083,-3.966 -7.291,-8.633 -9.625,-14c-2.333,-5.366 -3.5,-11.083 -3.5,-17.15c0,-6.066 1.167,-11.783 3.5,-17.15c2.334,-5.366 5.542,-10.033 9.625,-14c4.084,-3.966 8.848,-7.116 14.292,-9.45c5.445,-2.333 11.278,-3.5 17.5,-3.5c5.133,0 9.761,0.584 13.883,1.75c4.123,1.167 7.856,2.8 11.2,4.9c3.345,2.1 6.359,4.648 9.042,7.642c2.683,2.994 5.153,6.281 7.408,9.858c0.389,0.623 0.467,1.284 0.234,1.984c-0.234,0.7 -0.7,1.205 -1.4,1.516l-16.567,6.534c-0.778,0.311 -1.555,0.311 -2.333,-0c-0.778,-0.311 -1.361,-0.778 -1.75,-1.4c-2.256,-3.578 -4.978,-6.32 -8.167,-8.225c-3.189,-1.906 -7.039,-2.859 -11.55,-2.859c-2.955,0 -5.736,0.624 -8.342,1.872c-2.605,1.247 -4.88,2.904 -6.825,4.971c-1.944,2.066 -3.461,4.464 -4.55,7.194c-1.088,2.729 -1.633,5.537 -1.633,8.422c0,2.963 0.545,5.789 1.633,8.48c1.089,2.691 2.606,5.05 4.55,7.077c1.945,2.028 4.22,3.666 6.825,4.913c2.606,1.248 5.387,1.871 8.342,1.871c4.278,0 8.147,-1.03 11.608,-3.091c3.462,-2.061 6.203,-4.725 8.225,-7.992c0.389,-0.622 0.953,-1.089 1.692,-1.4c0.739,-0.311 1.497,-0.311 2.275,0l16.567,6.533c0.7,0.311 1.166,0.798 1.4,1.459c0.233,0.661 0.155,1.341 -0.234,2.041Z" style="fill:#d191ff;fill-rule:nonzero;stroke:#e6beff;stroke-width:3.84px;stroke-linecap:butt;stroke-miterlimit:2;"/><path d="M271.835,441.489c0,-6.067 1.167,-11.784 3.5,-17.15c2.333,-5.367 5.483,-10.053 9.45,-14.059c3.967,-4.005 8.633,-7.175 14,-9.508c5.367,-2.333 11.083,-3.5 17.15,-3.5c6.067,0 11.783,1.167 17.15,3.5c5.367,2.333 10.053,5.503 14.058,9.508c4.006,4.006 7.175,8.692 9.509,14.059c2.333,5.366 3.5,11.083 3.5,17.15c-0,6.066 -1.167,11.783 -3.5,17.15c-2.334,5.366 -5.503,10.052 -9.509,14.058c-4.005,4.006 -8.691,7.175 -14.058,9.508c-5.367,2.334 -11.083,3.5 -17.15,3.5c-6.067,0 -11.783,-1.166 -17.15,-3.5c-5.367,-2.333 -10.033,-5.502 -14,-9.508c-3.967,-4.006 -7.117,-8.692 -9.45,-14.058c-2.333,-5.367 -3.5,-11.084 -3.5,-17.15Zm23.1,-0c0,2.955 0.545,5.755 1.633,8.4c1.089,2.644 2.587,4.977 4.492,7c1.906,2.022 4.142,3.636 6.708,4.841c2.567,1.206 5.289,1.809 8.167,1.809c2.878,-0 5.6,-0.603 8.167,-1.809c2.566,-1.205 4.822,-2.819 6.766,-4.841c1.945,-2.023 3.462,-4.356 4.55,-7c1.089,-2.645 1.634,-5.445 1.634,-8.4c-0,-2.878 -0.545,-5.659 -1.634,-8.342c-1.088,-2.683 -2.605,-5.017 -4.55,-7c-1.944,-1.983 -4.2,-3.578 -6.766,-4.783c-2.567,-1.206 -5.289,-1.809 -8.167,-1.809c-2.878,0 -5.6,0.603 -8.167,1.809c-2.566,1.205 -4.802,2.8 -6.708,4.783c-1.905,1.983 -3.403,4.317 -4.492,7c-1.088,2.683 -1.633,5.464 -1.633,8.342Z" style="fill:#d191ff;fill-rule:nonzero;stroke:#e6beff;stroke-width:3.84px;stroke-linecap:butt;stroke-miterlimit:2;"/><path d="M467.368,401.705l0,79.684c0,0.777 -0.27,1.439 -0.812,1.983c-0.541,0.544 -1.199,0.817 -1.973,0.817l-17.529,-0c-0.774,-0 -1.432,-0.273 -1.973,-0.817c-0.542,-0.544 -0.813,-1.206 -0.813,-1.983l0,-37.567c0,-0.778 -0.351,-1.206 -1.052,-1.283c-0.702,-0.078 -1.287,0.194 -1.755,0.816l-19.647,31.617c-0.389,0.622 -1.013,0.933 -1.871,0.933c-0.858,0 -1.521,-0.311 -1.988,-0.933l-19.646,-31.617c-0.39,-0.622 -0.936,-0.894 -1.638,-0.816c-0.702,0.077 -1.053,0.505 -1.053,1.283l0,37.567c0,0.777 -0.27,1.439 -0.812,1.983c-0.541,0.544 -1.199,0.817 -1.973,0.817l-17.529,-0c-0.774,-0 -1.432,-0.273 -1.973,-0.817c-0.542,-0.544 -0.813,-1.206 -0.813,-1.983l0,-79.684c0,-0.777 0.271,-1.439 0.813,-1.983c0.542,-0.544 1.2,-0.817 1.973,-0.817l16.253,0c0.774,0 1.587,0.234 2.438,0.7c0.851,0.467 1.47,1.011 1.857,1.634l22.454,32.9c0.468,0.622 1.014,0.933 1.637,0.933c0.624,0 1.131,-0.311 1.521,-0.933l22.454,-32.9c0.465,-0.623 1.122,-1.167 1.974,-1.634c0.851,-0.466 1.664,-0.7 2.438,-0.7l16.253,0c0.773,0 1.43,0.273 1.972,0.817c0.542,0.544 0.813,1.206 0.813,1.983Z" style="fill:#d191ff;fill-rule:nonzero;stroke:#e6beff;stroke-width:3.84px;stroke-linecap:butt;stroke-miterlimit:2;"/><path d="M508.902,423.258l-0,4.845c-0,0.769 0.272,1.423 0.816,1.961c0.545,0.539 1.206,0.808 1.984,0.808l31.5,0c0.778,0 1.439,0.272 1.983,0.817c0.545,0.544 0.817,1.205 0.817,1.983l-0,16.333c-0,0.778 -0.272,1.439 -0.817,1.984c-0.544,0.544 -1.205,0.816 -1.983,0.816l-31.5,0c-0.778,0 -1.439,0.273 -1.984,0.817c-0.544,0.544 -0.816,1.206 -0.816,1.983l-0,25.784c-0,0.777 -0.271,1.439 -0.812,1.983c-0.542,0.544 -1.2,0.817 -1.974,0.817l-17.529,-0c-0.774,-0 -1.432,-0.273 -1.973,-0.817c-0.542,-0.544 -0.812,-1.206 -0.812,-1.983l-0,-79.8c-0,-0.778 0.27,-1.439 0.812,-1.984c0.541,-0.544 1.199,-0.816 1.973,-0.816l59.281,-0c0.778,-0 1.439,0.273 1.984,0.821c0.544,0.547 0.816,1.212 0.816,1.993l0,16.071c0,0.782 -0.272,1.446 -0.816,1.993c-0.545,0.548 -1.206,0.822 -1.984,0.822l-36.166,-0c-0.778,-0 -1.439,0.269 -1.984,0.807c-0.544,0.539 -0.816,1.192 -0.816,1.962Z" style="fill:#d191ff;fill-rule:nonzero;stroke:#e6beff;stroke-width:3.84px;stroke-linecap:butt;stroke-miterlimit:2;"/><path d="M558.252,441.489c-0,-6.067 1.166,-11.784 3.5,-17.15c2.333,-5.367 5.483,-10.053 9.45,-14.059c3.966,-4.005 8.633,-7.175 14,-9.508c5.366,-2.333 11.083,-3.5 17.15,-3.5c6.066,0 11.783,1.167 17.15,3.5c5.366,2.333 10.053,5.503 14.058,9.508c4.006,4.006 7.175,8.692 9.508,14.059c2.334,5.366 3.5,11.083 3.5,17.15c0,6.066 -1.166,11.783 -3.5,17.15c-2.333,5.366 -5.502,10.052 -9.508,14.058c-4.005,4.006 -8.692,7.175 -14.058,9.508c-5.367,2.334 -11.084,3.5 -17.15,3.5c-6.067,0 -11.784,-1.166 -17.15,-3.5c-5.367,-2.333 -10.034,-5.502 -14,-9.508c-3.967,-4.006 -7.117,-8.692 -9.45,-14.058c-2.334,-5.367 -3.5,-11.084 -3.5,-17.15Zm23.1,-0c-0,2.955 0.544,5.755 1.633,8.4c1.089,2.644 2.586,4.977 4.492,7c1.905,2.022 4.141,3.636 6.708,4.841c2.567,1.206 5.289,1.809 8.167,1.809c2.878,-0 5.6,-0.603 8.166,-1.809c2.567,-1.205 4.823,-2.819 6.767,-4.841c1.945,-2.023 3.461,-4.356 4.55,-7c1.089,-2.645 1.633,-5.445 1.633,-8.4c0,-2.878 -0.544,-5.659 -1.633,-8.342c-1.089,-2.683 -2.605,-5.017 -4.55,-7c-1.944,-1.983 -4.2,-3.578 -6.767,-4.783c-2.566,-1.206 -5.288,-1.809 -8.166,-1.809c-2.878,0 -5.6,0.603 -8.167,1.809c-2.567,1.205 -4.803,2.8 -6.708,4.783c-1.906,1.983 -3.403,4.317 -4.492,7c-1.089,2.683 -1.633,5.464 -1.633,8.342Z" style="fill:#d191ff;fill-rule:nonzero;stroke:#e6beff;stroke-width:3.84px;stroke-linecap:butt;stroke-miterlimit:2;"/><path d="M678.987,484.189l-17.471,-0c-0.781,-0 -1.446,-0.273 -1.993,-0.817c-0.548,-0.544 -0.821,-1.206 -0.821,-1.983l-0,-79.8c-0,-0.778 0.272,-1.439 0.816,-1.984c0.545,-0.544 1.206,-0.816 1.984,-0.816l36.283,-0c4.511,-0 8.672,0.758 12.483,2.275c3.812,1.516 7.059,3.636 9.742,6.358c2.683,2.722 4.783,5.95 6.3,9.683c1.517,3.734 2.275,7.856 2.275,12.367c0,2.489 -0.292,4.958 -0.875,7.408c-0.583,2.45 -1.419,4.764 -2.508,6.942c-1.089,2.178 -2.372,4.142 -3.85,5.892c-1.478,1.75 -3.15,3.208 -5.017,4.375c-0.622,0.466 -1.03,1.03 -1.225,1.691c-0.194,0.661 -0.058,1.303 0.408,1.925c2.956,3.889 6.067,7.895 9.334,12.017c3.266,4.122 6.183,7.894 8.75,11.317c0.466,0.622 0.583,1.302 0.35,2.041c-0.234,0.739 -0.739,1.109 -1.517,1.109l-21.7,-0c-0.778,-0 -1.614,-0.214 -2.508,-0.642c-0.895,-0.428 -1.575,-0.953 -2.042,-1.575c-2.477,-3.267 -4.934,-6.572 -7.373,-9.917c-2.438,-3.344 -4.857,-6.727 -7.258,-10.15c-0.464,-0.622 -1.122,-1.147 -1.973,-1.575c-0.851,-0.427 -1.664,-0.641 -2.438,-0.641l-2.554,-0c-0.774,-0 -1.432,0.272 -1.974,0.816c-0.542,0.545 -0.813,1.206 -0.813,1.984l-0,18.9c-0,0.777 -0.274,1.439 -0.821,1.983c-0.548,0.544 -1.212,0.817 -1.994,0.817Zm5.6,-45.967l12.307,0c0.928,0 1.896,-0.175 2.902,-0.525c1.006,-0.35 1.935,-0.894 2.786,-1.633c0.851,-0.739 1.548,-1.653 2.09,-2.742c0.542,-1.089 0.813,-2.372 0.813,-3.85c0,-0.778 -0.135,-1.692 -0.406,-2.742c-0.271,-1.05 -0.736,-2.061 -1.393,-3.033c-0.658,-0.972 -1.547,-1.789 -2.67,-2.45c-1.122,-0.661 -2.496,-0.992 -4.122,-0.992l-12.307,0c-0.773,0 -1.43,0.273 -1.972,0.817c-0.542,0.544 -0.813,1.206 -0.813,1.983l-0,12.367c-0,0.778 0.271,1.439 0.813,1.983c0.542,0.545 1.199,0.817 1.972,0.817Z" style="fill:#d191ff;fill-rule:nonzero;stroke:#e6beff;stroke-width:3.84px;stroke-linecap:butt;stroke-miterlimit:2;"/><path d="M798.468,420.255l-16.333,0c-0.778,0 -1.439,0.273 -1.983,0.817c-0.545,0.544 -0.817,1.206 -0.817,1.983l0,58.334c0,0.777 -0.253,1.439 -0.758,1.983c-0.506,0.544 -1.186,0.817 -2.042,0.817l-17.5,-0c-0.778,-0 -1.439,-0.273 -1.983,-0.817c-0.545,-0.544 -0.817,-1.206 -0.817,-1.983l0,-58.334c0,-0.777 -0.253,-1.439 -0.758,-1.983c-0.506,-0.544 -1.186,-0.817 -2.042,-0.817l-16.567,0c-0.777,0 -1.438,-0.272 -1.983,-0.816c-0.544,-0.545 -0.817,-1.206 -0.817,-1.984l0,-15.866c0,-0.778 0.273,-1.439 0.817,-1.984c0.545,-0.544 1.206,-0.816 1.983,-0.816l61.6,-0c0.856,-0 1.537,0.272 2.042,0.816c0.506,0.545 0.758,1.206 0.758,1.984l0,15.866c0,0.778 -0.252,1.439 -0.758,1.984c-0.505,0.544 -1.186,0.816 -2.042,0.816Z" style="fill:#d191ff;fill-rule:nonzero;stroke:#e6beff;stroke-width:3.84px;stroke-linecap:butt;stroke-miterlimit:2;"/><path d="M815.931,389.439l-2.917,-0c-0.139,-0 -0.257,0.048 -0.354,0.146c-0.097,0.097 -0.146,0.215 -0.146,0.354l0,10.416c0,0.139 -0.045,0.257 -0.135,0.355c-0.09,0.097 -0.212,0.145 -0.365,0.145l-3.125,0c-0.139,0 -0.257,-0.048 -0.354,-0.145c-0.097,-0.098 -0.146,-0.216 -0.146,-0.355l0,-10.416c0,-0.139 -0.045,-0.257 -0.135,-0.354c-0.09,-0.098 -0.212,-0.146 -0.365,-0.146l-2.958,-0c-0.139,-0 -0.257,-0.049 -0.354,-0.146c-0.097,-0.097 -0.146,-0.215 -0.146,-0.354l-0,-2.834c-0,-0.139 0.049,-0.257 0.146,-0.354c0.097,-0.097 0.215,-0.146 0.354,-0.146l11,0c0.153,0 0.274,0.049 0.364,0.146c0.091,0.097 0.136,0.215 0.136,0.354l-0,2.834c-0,0.139 -0.045,0.257 -0.136,0.354c-0.09,0.097 -0.211,0.146 -0.364,0.146Z" style="fill:#d191ff;fill-rule:nonzero;"/><path d="M835.035,386.126l0,14.229c0,0.139 -0.048,0.257 -0.145,0.355c-0.097,0.097 -0.214,0.145 -0.352,0.145l-3.131,0c-0.138,0 -0.255,-0.048 -0.352,-0.145c-0.097,-0.098 -0.145,-0.216 -0.145,-0.355l0,-6.708c0,-0.139 -0.063,-0.215 -0.188,-0.229c-0.125,-0.014 -0.23,0.035 -0.313,0.146l-3.509,5.646c-0.069,0.111 -0.18,0.166 -0.334,0.166c-0.153,0 -0.271,-0.055 -0.355,-0.166l-3.508,-5.646c-0.07,-0.111 -0.167,-0.16 -0.292,-0.146c-0.126,0.014 -0.188,0.09 -0.188,0.229l-0,6.708c-0,0.139 -0.049,0.257 -0.145,0.355c-0.097,0.097 -0.215,0.145 -0.353,0.145l-3.13,0c-0.138,0 -0.256,-0.048 -0.352,-0.145c-0.097,-0.098 -0.145,-0.216 -0.145,-0.355l-0,-14.229c-0,-0.139 0.048,-0.257 0.145,-0.354c0.097,-0.097 0.214,-0.146 0.352,-0.146l2.902,0c0.139,0 0.284,0.042 0.436,0.125c0.152,0.084 0.262,0.181 0.331,0.292l4.01,5.875c0.084,0.111 0.181,0.167 0.292,0.167c0.112,-0 0.202,-0.056 0.272,-0.167l4.01,-5.875c0.082,-0.111 0.2,-0.208 0.352,-0.292c0.152,-0.083 0.297,-0.125 0.435,-0.125l2.903,0c0.138,0 0.255,0.049 0.352,0.146c0.097,0.097 0.145,0.215 0.145,0.354Z" style="fill:#d191ff;fill-rule:nonzero;"/></g><path d="M167.593,545.096l650.864,0" style="fill:none;stroke:#d5a7ff;stroke-width:10.99px;"/></g><defs><linearGradient id="_Linear1" x1="0" y1="0" x2="1" y2="0" gradientUnits="userSpaceOnUse" gradientTransform="matrix(-726.401,248.189,-248.189,-726.401,941.971,220.045)"><stop offset="0" style="stop-color:#d300ff;stop-opacity:1"/><stop offset="0" style="stop-color:#d34eff;stop-opacity:1"/><stop offset="0.31" style="stop-color:#d363ff;stop-opacity:1"/><stop offset="0.62" style="stop-color:#d2a3ff;stop-opacity:1"/><stop offset="1" style="stop-color:#d300ff;stop-opacity:1"/></linearGradient><linearGradient id="_Linear2" x1="0" y1="0" x2="1" y2="0" gradientUnits="userSpaceOnUse" gradientTransform="matrix(-628.517,214.161,-214.161,-628.517,894.974,265.588)"><stop offset="0" style="stop-color:#d300ff;stop-opacity:1"/><stop offset="0" style="stop-color:#d350ff;stop-opacity:1"/><stop offset="0.32" style="stop-color:#d059ff;stop-opacity:1"/><stop offset="0.44" style="stop-color:#ca6dff;stop-opacity:1"/><stop offset="0.55" style="stop-color:#c580ff;stop-opacity:1"/><stop offset="1" style="stop-color:#d300ff;stop-opacity:1"/></linearGradient></defs></svg>