<?xml version="1.0" encoding="UTF-8" standalone="no"?><!DOCTYPE svg PUBLIC "-//W3C//DTD SVG 1.1//EN" "http://www.w3.org/Graphics/SVG/1.1/DTD/svg11.dtd">
<svg width="100%" height="100%" viewBox="0 0 650 1000" version="1.1"
    xmlns="http://www.w3.org/2000/svg"
    xmlns:xlink="http://www.w3.org/1999/xlink" xml:space="preserve"
    xmlns:serif="http://www.serif.com/" style="fill-rule:evenodd;clip-rule:evenodd;stroke-linecap:round;stroke-linejoin:round;stroke-miterlimit:1.5;">
    <style>
        #backend path {
            fill:#944ed9;stroke:#fff;stroke-width:4.17px;
            <!-- fill: none; -->
            stroke: #fff;
            stroke-width: .15em;
        }
        #computations {
            transform-origin: center;
            transform-box: fill-box;
            transform: rotate(40deg);
        }
    </style>
    <g id="backend">
        <path d="M116.539,395.405c9.618,-2.509 15.58,-7.479 16.401,-11.381c0.859,-4.084 4.132,-3.11 4.63,-0.349c0.834,3.032 -0.167,6.242 -3.794,9.709l-17.237,2.021Z"/>
        <path d="M121.472,396.971c9.619,-2.508 15.581,-7.479 16.402,-11.38c0.859,-4.084 4.131,-3.11 4.63,-0.349c0.834,3.031 -0.167,6.242 -3.794,9.709l-17.238,2.02Z"/>
        <path id="body" d="M189.208,518.21c1.814,-4.662 4.364,-11.403 1.409,-24.544l-12.252,-22.257l-4.789,-7.25c-5.932,0.239 -5.262,-2.967 -4.21,-6.373c-4.157,-1.632 -5.255,-3.509 -1.88,-5.744c-3.688,-2.06 -2.606,-4.392 -0.269,-7.055c-1.999,-1.623 -1.172,-4.06 2.988,-3.334c-3.947,-3.706 -0.529,-4.577 3.357,-4.969c-1.639,-3.078 0.33,-5.667 3.813,-4.918c-1.327,-4.194 -0.776,-4.969 2.177,-4.731c-1.774,-3.003 -0.298,-4.894 2.237,-4.07c-1.725,-2.208 -0.727,-3.84 1.887,-4.601c0.386,-2.612 1.375,-4.351 3.78,-2.685c-0.248,-2.643 1.294,-4.221 3.365,-2.555c1.077,-2.419 2.578,-3.95 4.378,-1.306c1.342,-2.907 3.159,-3.039 4.26,-0.884c1.853,-3.416 2.611,-3.145 3.982,-0.535c2.817,-3.325 4.349,-0.887 4.996,2.297c1.634,-3.98 3.415,-2.288 4.326,0.963c2.986,-2.246 5.513,-3.018 4.402,1.271c3.03,-1.9 3.763,2.138 3.419,4.817c1.998,-1.828 3.41,-1.601 3.962,1.632c2.297,-1.19 4.694,-2.308 4.339,1.081c3.88,-3.321 5.342,-1.275 4.813,1.848c3.074,-2.227 3.168,0.739 3.35,2.851c3.062,-0.283 2.392,1.375 0.633,4.225c4.088,0.81 3.417,1.578 0.997,4.076c2.372,1.357 2.505,2.202 -0.185,5.729c1.764,1.766 1.113,6.777 -1.703,8.543l-1.768,-2.4c14.309,17.651 10.318,52.308 1.52,56.373c-2.453,1.133 -5.223,1.537 -5.219,1.572c1.08,8.978 0.067,18.741 0.067,18.741l31.389,6.885l57.989,19.775l65.619,-13.85l6.099,-4.263l6.139,-8.456l8.48,-7.758c3.144,-3.144 7.856,1.053 4.713,4.196l-3.808,4.197l-3.721,4.555c-0,-0 0.196,3.8 3.827,5.031c10.595,3.591 22.14,-2.21 26.408,-3.757c4.348,-1.576 5.586,3.268 1.461,4.776c5.64,-2.946 7.183,3.145 1.228,5.488c7.277,-2.738 7.903,4.065 1.976,8.008c-4.822,3.208 -17.884,10.061 -35.933,6.166l-10.464,-3.585c-2.105,-1.107 -4.209,-1.35 -6.313,-0.998c-1.098,0.184 -2.195,0.529 -3.292,0.998l-62.91,26.346c-5.171,2.366 -13.643,2.256 -23.918,0.794l-29.372,-8.278c-5.252,12.296 -0.499,56.369 7.247,69.459c7.752,13.101 16.454,26.304 14.811,47.682c-2.395,31.167 -11.735,39.799 -21.098,61.025c-4.026,9.129 -7.743,9.423 -18.234,46.751l-2.036,78.578l-3.757,25.7c-1.467,7.97 -1.539,15.833 -0.656,23.623c1.148,2.645 1.301,4.391 0.957,5.76c-0.494,1.966 -2.325,9.11 -19.227,20.743c-3.726,2.563 -11.724,8.192 -18.488,9.845c-1.643,1.486 -4.666,3.219 -7.139,1.967c-1.425,-0.722 0.97,-3.574 0.528,-3.474c-0.138,0.032 -0.794,-0.535 -0.914,-0.453c-1.064,0.729 -2.104,4.143 -4.372,2.718c-1.842,-1.157 1.882,-4.518 0.959,-4.759c-1.155,-0.301 -3.523,3.186 -4.28,2.753c-0.119,-0.068 -1.088,-0.42 -1.122,-0.803c-0.114,-1.282 1.587,-4.833 1.102,-4.265c-1.461,1.709 -3.69,4.061 -4.225,3.593c-0.108,-0.095 -1.389,-0.773 -1.381,-1.056c0.033,-1.136 2.09,-3.013 2.433,-4.132c0.25,-0.815 -6.692,2.498 -7.014,2.23c-5.871,-4.895 4.28,-7.942 12.081,-13.014l23.364,-14.797c1.415,-0.937 2.108,-2.235 2.077,-3.894l-10.502,-101.621l-12.725,0.447c-11.432,0.907 -20.21,-1.147 -23.412,-10.125c-4.051,-11.362 -3.911,-15.837 2.712,-45.928c3.823,-17.368 5.669,-42.133 10.424,-62.816c5.271,-22.924 11.888,-37.484 6.599,-56.11c-3.163,-11.141 -4.069,-12.587 -10.834,-25.366c-11.849,-22.38 -18.521,-60.885 -19.251,-61.461c-21.72,-17.161 -55.042,-33.792 -76.762,-66.319c-4.677,-5.403 -4.219,-46.893 -3.971,-55.31c0.41,-13.947 3.629,-25.888 8.505,-36.646c0,0 5.84,-8.549 7.646,-8.973l7.755,-4.33c11.817,-5.069 11.786,-3.851 16.512,-8.447c2.912,-2.911 6.97,0.628 4.058,3.539l-6.798,8.088l13.342,1.567c3.634,-0.677 7.184,-1.98 10.504,-5.007c4.19,-4.191 8.114,1.306 5.23,4.19c-4.484,4.155 -9.296,6.557 -14.25,8.207c-8.009,2.124 -16.018,3.212 -24.026,3.615c-4.427,0.222 -6.995,6.697 -7.832,12.496c-2.677,28.035 2.378,52.385 4.386,60.342c17.621,18.554 43.775,31.266 60.722,37.818c10.244,3.961 17.966,3.262 22.573,4.292Z"/>
        <path d="M437.213,540.837c-8.534,4.056 -15.164,6.759 -23.943,5.895" style="fill:none;"/>
        <clipPath id="_clip1">
            <path d="M437.213,540.837c-8.534,4.056 -15.164,6.759 -23.943,5.895"/>
        </clipPath>
        <g clip-path="url(#_clip1)">
            <path d="M112.665,394.087c1.722,-0.508 4.478,-2.151 5.602,-3.137" style="fill:none;stroke:#000;stroke-width:4.17px;"/>
        </g>
        <path d="M437.213,540.837c-8.534,4.056 -15.164,6.759 -23.943,5.895" style="fill:none;stroke:#fff;stroke-width:4.17px;"/>
        <path d="M435.867,535.407c-6.977,4.133 -15.878,6.638 -25.316,4.866" style="fill:none;stroke:#fff;stroke-width:4.17px;"/>
        <g id="mouth">
            <path d="M221.823,492.371c8.972,3.774 15.692,3.163 20.469,-2.33" style="fill:none;stroke:#fff;stroke-width:3.13px;"/>
            <path d="M221.407,489.902l4.955,-0.944c5.896,2.784 9.739,1.968 11.839,-1.903l4.987,-1.102" style="fill:none;stroke:#fff;stroke-width:3.13px;"/>
        </g>
        <path id="leg" d="M249.458,812.394c22.033,-6.543 43.936,-14.766 65.685,-24.996l21.162,-9.874c9.293,11.964 22.121,20.054 37.659,25.175c2.719,-0.326 3.531,-1.79 2.607,-4.289c-14.466,-13.898 -26.159,-29.314 -34.124,-46.77c-2.013,-2.053 -4.515,-2.613 -7.555,-1.535l-14.459,8.93l-11.828,4.436l-51.956,10.513l-6.623,21.136c-0,0 -0.23,10.169 -0.568,17.274Z"/>
        <path d="M218.023,702.388c-8.359,33.101 -11.46,53.755 -16.095,86.061c-2.207,15.389 3.011,21.06 6.547,33.976" style="fill:none;stroke:#fff;stroke-width:4.17px;"/>
        <g id="hat">
            <g id="base">
                <path d="M177.995,472.263c0.374,-22.398 49.421,-32.296 56.739,-24.945" style="fill:none;stroke:#fff;stroke-width:4.17px;"/>
                <path d="M174.025,463.848c-0.017,-2.997 1.13,-4.294 4.248,-2.711" style="fill:none;stroke:#fff;stroke-width:3.13px;"/>
                <path d="M180.089,459.943c-0.723,-2.908 0.085,-4.44 3.488,-3.637" style="fill:none;stroke:#fff;stroke-width:3.13px;"/>
                <path d="M185.675,453.658c0.193,-1.799 0.738,-2.934 1.782,-3.13c0.685,-0.128 1.586,0.15 2.744,0.912" style="fill:none;stroke:#fff;stroke-width:3.13px;"/>
                <path d="M193.225,449.378c0.321,-2.98 1.606,-4.14 4.526,-2.218" style="fill:none;stroke:#fff;stroke-width:3.13px;"/>
                <path d="M200.36,446.232c0.79,-2.891 2.243,-3.833 4.821,-1.47" style="fill:none;stroke:#fff;stroke-width:3.13px;"/>
                <path d="M207.761,444.216c0.791,-2.89 2.244,-3.832 4.821,-1.469" style="fill:none;stroke:#fff;stroke-width:3.13px;"/>
                <path d="M215.138,442.224c1.119,-2.78 2.672,-3.547 4.958,-0.902" style="fill:none;stroke:#fff;stroke-width:3.13px;"/>
                <path d="M222.254,441.79c1.811,-2.388 3.51,-2.719 5.021,0.434" style="fill:none;stroke:#fff;stroke-width:3.13px;"/>
                <path d="M230.469,442.402c2.297,-1.925 4.028,-1.87 4.798,1.541" style="fill:none;stroke:#fff;stroke-width:3.13px;"/>
                <path d="M168.594,461.044c-0.016,-2.997 1.131,-4.294 4.248,-2.711" style="fill:none;stroke:#fff;stroke-width:3.13px;"/>
                <path d="M175.028,457.021c-0.017,-2.997 1.13,-4.294 4.248,-2.712" style="fill:none;stroke:#fff;stroke-width:3.13px;"/>
                <path d="M180.618,452.53c-0.293,-2.982 0.728,-4.38 3.979,-3.093" style="fill:none;stroke:#fff;stroke-width:3.13px;"/>
                <path d="M187.24,448.155c0.32,-2.98 1.605,-4.14 4.525,-2.217" style="fill:none;stroke:#fff;stroke-width:3.13px;"/>
                <path d="M194.282,443.739c0.79,-2.891 2.243,-3.832 4.82,-1.47" style="fill:none;stroke:#fff;stroke-width:3.13px;"/>
                <path d="M202.205,440.845c0.791,-2.891 2.244,-3.833 4.821,-1.47" style="fill:none;stroke:#fff;stroke-width:3.13px;"/>
                <path d="M209.782,438.742c1.12,-2.78 2.672,-3.547 4.959,-0.902" style="fill:none;stroke:#fff;stroke-width:3.13px;"/>
                <path d="M217.521,436.297c1.811,-2.388 3.511,-2.719 5.021,0.434" style="fill:none;stroke:#fff;stroke-width:3.13px;"/>
                <path d="M226.156,437.28c1.962,-2.265 3.68,-2.485 4.982,0.76" style="fill:none;stroke:#fff;stroke-width:3.13px;"/>
                <path d="M233.567,437.762c1.963,-2.265 3.681,-2.485 4.982,0.76" style="fill:none;stroke:#fff;stroke-width:3.13px;"/>
                <path d="M168.769,455.303c-0.989,-2.829 -0.326,-4.429 3.136,-3.945" style="fill:none;stroke:#fff;stroke-width:3.13px;"/>
                <path d="M174.614,450.679c0.06,-2.997 1.24,-4.264 4.316,-2.603" style="fill:none;stroke:#fff;stroke-width:3.13px;"/>
                <path d="M180.868,446.671c0.397,-2.971 1.711,-4.098 4.581,-2.101" style="fill:none;stroke:#fff;stroke-width:3.13px;"/>
                <path d="M187.901,442.705c0.397,-2.971 1.711,-4.098 4.581,-2.102" style="fill:none;stroke:#fff;stroke-width:3.13px;"/>
                <path d="M194.988,437.833c0.864,-2.87 2.341,-3.774 4.857,-1.346" style="fill:none;stroke:#fff;stroke-width:3.13px;"/>
                <path d="M202.625,434.879c0.864,-2.87 2.341,-3.774 4.857,-1.346" style="fill:none;stroke:#fff;stroke-width:3.13px;"/>
                <path d="M211.119,432.707c1.19,-2.75 2.762,-3.477 4.98,-0.775" style="fill:none;stroke:#fff;stroke-width:3.13px;"/>
                <path d="M219.942,431.177c1.871,-2.341 3.579,-2.629 5.009,0.562" style="fill:none;stroke:#fff;stroke-width:3.13px;"/>
                <path d="M229.322,432.897c2.02,-2.214 3.743,-2.39 4.961,0.887" style="fill:none;stroke:#fff;stroke-width:3.13px;"/>
                <path d="M168.278,448.836c-0.455,-2.963 0.49,-4.414 3.806,-3.304" style="fill:none;stroke:#fff;stroke-width:3.13px;"/>
                <path d="M174.027,444.564c0.083,-2.996 1.272,-4.254 4.336,-2.569" style="fill:none;stroke:#fff;stroke-width:3.13px;"/>
                <path d="M212.801,421.197c1.211,-2.741 2.788,-3.456 4.986,-0.736" style="fill:none;stroke:#fff;stroke-width:3.13px;"/>
                <path d="M183.608,426.108c0.52,-2.952 1.88,-4.023 4.664,-1.908" style="fill:none;stroke:#fff;stroke-width:3.13px;"/>
                <path d="M190.762,421.592c0.52,-2.952 1.881,-4.023 4.665,-1.908" style="fill:none;stroke:#fff;stroke-width:3.13px;"/>
                <path d="M200.18,418.39c0.385,-2.972 1.694,-4.105 4.573,-2.12" style="fill:none;stroke:#fff;stroke-width:3.13px;"/>
                <path d="M208.53,416.025c1.396,-2.652 3.018,-3.257 5.024,-0.394" style="fill:none;stroke:#fff;stroke-width:3.13px;"/>
                <path d="M193.125,416.031c0.37,-2.974 1.674,-4.113 4.562,-2.142" style="fill:none;stroke:#fff;stroke-width:3.13px;"/>
                <path d="M185.526,419.396c0.369,-2.974 1.674,-4.113 4.561,-2.142" style="fill:none;stroke:#fff;stroke-width:3.13px;"/>
                <path d="M199.753,413.277c1.3,-2.7 2.899,-3.363 5.007,-0.574" style="fill:none;stroke:#fff;stroke-width:3.13px;"/>
                <path d="M180.839,440.379c0.42,-2.967 1.743,-4.084 4.597,-2.065" style="fill:none;stroke:#fff;stroke-width:3.13px;"/>
                <path d="M187.903,436.468c0.419,-2.968 1.742,-4.085 4.597,-2.066" style="fill:none;stroke:#fff;stroke-width:3.13px;"/>
                <path d="M194.967,431.337c1.284,-2.708 2.879,-3.381 5.003,-0.604" style="fill:none;stroke:#fff;stroke-width:3.13px;"/>
                <path d="M203.024,428.509c1.32,-2.691 2.925,-3.342 5.012,-0.536" style="fill:none;stroke:#fff;stroke-width:3.13px;"/>
                <path d="M211.381,426.91c1.211,-2.742 2.788,-3.456 4.985,-0.737" style="fill:none;stroke:#fff;stroke-width:3.13px;"/>
                <path d="M220.201,426.177c1.89,-2.327 3.599,-2.602 5.004,0.6" style="fill:none;stroke:#fff;stroke-width:3.13px;"/>
                <path d="M229.04,428.005c2.037,-2.198 3.761,-2.361 4.954,0.925" style="fill:none;stroke:#fff;stroke-width:3.13px;"/>
                <path d="M173.396,439.119c0.083,-2.996 1.273,-4.254 4.336,-2.569" style="fill:none;stroke:#fff;stroke-width:3.13px;"/>
                <path d="M180.312,433.281c0.419,-2.968 1.742,-4.085 4.597,-2.066" style="fill:none;stroke:#fff;stroke-width:3.13px;"/>
                <path d="M187.903,429.67c0.419,-2.967 1.742,-4.084 4.597,-2.065" style="fill:none;stroke:#fff;stroke-width:3.13px;"/>
                <path d="M196.524,425.653c0.283,-2.984 1.553,-4.16 4.497,-2.275" style="fill:none;stroke:#fff;stroke-width:3.13px;"/>
                <path d="M204.281,422.539c1.305,-2.699 2.906,-3.359 5.009,-0.565" style="fill:none;stroke:#fff;stroke-width:3.13px;"/>
            </g>
            <g id="top">
                <path d="M199.169,404.871l-13.267,3.75c-2.294,-1.534 -4.252,-3.85 -5.857,-6.986c-0.886,-1.479 -2.01,-4.618 -1.136,-7.245c0.95,-2.857 1.412,-5.59 1.589,-8.251c-0.073,-4.002 -0.825,-6.151 -1.382,-8.83c-0.336,-1.616 1.905,-2.075 1.778,-4.426c-0.499,-1.146 -0.845,-3.517 -1.032,-7.143c-0.143,-1.521 0.102,-2.258 0.487,-2.713c0.873,-0.608 1.663,0.194 2.423,1.502c1.88,3.819 2.728,6.597 3.45,9.246c0.4,1.55 1.831,1.204 2.608,1.926c0.866,0.805 1.212,3.016 1.516,5.344c0.287,2.198 3.526,3.406 4.371,4.224c2.407,2.617 3.102,4.237 3.582,5.446c0.965,2.434 1.854,4.669 2.043,8.034c0.174,3.104 -0.686,5.028 -1.173,6.122Z"/>
                <path d="M190.025,404.874c-1.544,-1.11 -3.005,-2.709 -4.373,-4.852c-0.69,-1.051 -1.061,-2.6 -1.162,-4.57c-0.063,-1.586 0.204,-2.922 0.684,-4.097" style="fill:#944ed9;stroke:#fff;stroke-width:2.08px;"/>
                <path d="M186.088,382.519c0.779,0.998 1.524,2.263 2.229,3.828c0.21,0.417 0.621,1.621 1.232,3.61c0.542,2.131 0.557,3.738 0.26,5.035" style="fill:#944ed9;stroke:#fff;stroke-width:2.08px;"/>
            </g>
        </g>
        <g id="face">
            <g>
                <path d="M229.607,475.493c-1.641,1.282 -2.818,2.692 -3.682,4.19c-0.106,2.37 0.122,2.236 0.999,3.151l1.799,-0.562" style="fill:none;stroke:#fff;stroke-width:3.13px;"/>
                <path d="M228.723,482.272l1.799,-0.562c2.561,1.684 4.581,1.053 6.062,-1.894l0.501,-0.156" style="fill:none;stroke:#fff;stroke-width:3.13px;"/>
                <path d="M229.661,474.86l-2.936,-11.536" style="fill:none;stroke:#fff;stroke-width:3.13px;"/>
            </g>
            <g>
                <path d="M199.895,461.896c10.463,-3.451 18.733,-4.044 24.592,-1.497" style="fill:none;stroke:#fff;stroke-width:3.13px;"/>
                <path d="M204.321,464.387c6.92,-2.282 12.388,-2.674 16.263,-0.99" style="fill:none;stroke:#fff;stroke-width:3.13px;"/>
                <path d="M204.325,468.613l3.539,-0.459c4.305,3.045 7.785,2.918 10.12,-1.626" style="fill:none;stroke:#fff;stroke-width:3.13px;"/>
            </g>
            <g>
                <path d="M229.313,458.205c5.578,-4.255 5.594,-5.901 8.369,-5.641" style="fill:none;stroke:#fff;stroke-width:3.13px;"/>
                <path d="M232.307,459.735c2.073,-2.939 4.254,-4.286 6.633,-4.373" style="fill:none;stroke:#fff;stroke-width:3.13px;"/>
                <path d="M240.543,460.563c-1.484,2.943 -3.712,3.787 -6.926,1.851" style="fill:none;stroke:#fff;stroke-width:3.13px;"/>
            </g>
            <path d="M188.263,481.625c0.266,0.49 0.532,0.968 0.796,1.437c11.759,20.834 19.759,22.157 41.961,22.157" style="fill:none;stroke:#fff;stroke-width:4.17px;"/>
            <path d="M186.053,467.35l-3.716,-1.908c-2.438,-0.989 -4.128,0.143 -5.523,2.109c-0.498,1.232 -0.8,2.955 -0.603,5.925c0.532,6.227 2.804,12.453 7.331,18.68c2.466,2.689 3.295,3.701 6.227,3.615c1.986,-0.058 3.232,-0.588 4.118,-1.305c2.034,-2.042 2.519,-4.084 2.41,-6.127" style="fill:#944ed9;stroke:#fff;stroke-width:3.13px;"/>
            <path d="M235.514,473.634c3.051,0.041 5.609,2.175 4.697,5.045l-2.485,0.755" style="fill:none;stroke:#fff;stroke-width:3.13px;"/>
            <path d="M235.514,473.634l-5.293,-11.597" style="fill:none;stroke:#fff;stroke-width:3.13px;"/>
        </g>
        <path d="M320.204,550.969c-4.988,3.503 -8.021,7.201 -7.337,11.271" style="fill:none;stroke:#fff;stroke-width:4.17px;"/>
        <path d="M106.56,475.894c-1.412,7.502 -4.099,12.27 -13.929,13.126" style="fill:none;stroke:#fff;stroke-width:4.17px;"/>
    </g>
    <g id="computations">
        <g>
            <path d="M396.22,251.103c131.845,-67.04 132.428,-132.907 0.067,-199.948" style="fill:none;stroke:#fff;stroke-width:2.08px;"/>
            <path d="M395.331,251.103c-131.845,-67.04 -132.428,-132.907 -0.067,-199.948" style="fill:none;stroke:#fff;stroke-width:2.08px;"/>
        </g>
        <g>
            <path d="M396.22,251.155c131.845,67.041 132.428,132.908 0.067,199.948" style="fill:none;stroke:#fff;stroke-width:2.08px;"/>
            <path d="M395.331,251.155c-131.845,67.041 -132.428,132.908 -0.067,199.948" style="fill:none;stroke:#fff;stroke-width:2.08px;"/>
        </g>
        <g>
            <path d="M395.781,250.705c67.041,-131.845 132.908,-132.428 199.948,-0.067" style="fill:none;stroke:#fff;stroke-width:2.08px;"/>
            <path d="M395.781,251.594c67.041,131.845 132.908,132.428 199.948,0.067" style="fill:none;stroke:#fff;stroke-width:2.08px;"/>
        </g>
        <g>
            <path d="M395.729,250.705c-67.04,-131.845 -132.907,-132.428 -199.948,-0.067" style="fill:none;stroke:#fff;stroke-width:2.08px;"/>
            <path d="M395.729,251.594c-67.04,131.845 -132.907,132.428 -199.948,0.067" style="fill:none;stroke:#fff;stroke-width:2.08px;"/>
        </g>
        <path d="M396.268,151.195l100.004,199.977l-200.005,-0.016l100.001,-199.961Z" style="fill:none;stroke:#fff;stroke-width:2.08px;"/>
        <path d="M396.268,351.172l100.004,-199.977l-200.005,0.016l100.001,199.961Z" style="fill:none;stroke:#fff;stroke-width:2.08px;"/>
        <path d="M496.258,251.185l-199.977,-100.004l0.016,200.005l199.961,-100.001Z" style="fill:none;stroke:#fff;stroke-width:2.08px;"/>
        <path d="M296.281,251.182l199.977,100.004l-0.016,-200.005l-199.961,100.001Z" style="fill:none;stroke:#fff;stroke-width:2.08px;"/>
        <path d="M195.281,251.182l199.977,100.004l-0.016,-200.005l-199.961,100.001Z" style="fill:none;stroke:#fff;stroke-width:2.08px;"/>
        <path d="M395.271,50.195l-100.004,199.977l200.005,-0.016l-100.001,-199.961Z" style="fill:none;stroke:#fff;stroke-width:2.08px;"/>
        <path d="M395.271,452.172l-100.004,-199.977l200.005,0.016l-100.001,199.961Z" style="fill:none;stroke:#fff;stroke-width:2.08px;"/>
        <circle cx="396.984" cy="251.029" r="141.084" style="fill:none;stroke:#fff;stroke-width:2.08px;"/>
        <path d="M597.258,251.182l-199.977,100.004l0.016,-200.005l199.961,100.001Z" style="fill:none;stroke:#fff;stroke-width:2.08px;"/>
        <circle cx="396.516" cy="251.668" r="200.992" style="fill:none;stroke:#fff;stroke-width:2.08px;"/>
    </g>
</svg>