<?xml version="1.0" encoding="UTF-8" standalone="no"?><!DOCTYPE svg PUBLIC "-//W3C//DTD SVG 1.1//EN" "http://www.w3.org/Graphics/SVG/1.1/DTD/svg11.dtd"><svg width="100%" height="100%" viewBox="0 0 1261 1292" version="1.1" xmlns="http://www.w3.org/2000/svg" xmlns:xlink="http://www.w3.org/1999/xlink" xml:space="preserve" xmlns:serif="http://www.serif.com/" style="fill-rule:evenodd;clip-rule:evenodd;stroke-linecap:round;stroke-linejoin:round;stroke-miterlimit:1.5;"><rect id="Artboard1" x="0" y="0" width="1260.13" height="1291.44" style="fill:none;"/><g><circle cx="630.064" cy="645.72" r="594.15" style="fill:none;stroke:#43e2a3;stroke-width:12.41px;"/><g><circle cx="640.388" cy="595.814" r="221.729" style="fill:#ff9499;"/><path id="tree" d="M413.416,895.743c41.664,-17.5 54.224,-2.025 64.925,-9.071c29.116,-19.17 43.487,-9.928 52.274,-11.935c10.878,-2.484 6.687,-17.982 53.229,-8.354c5.493,7.956 23.118,13.236 26.495,18.857c8.387,13.96 19.882,23.776 35.089,28.643c17.681,8.445 34.378,17.618 62.776,18.141c4.439,-1.365 7.445,-3.281 5.968,-6.922c-0.122,-5.246 -35.279,-14.384 -37.953,-21.96c-6.257,-16.95 -10.147,-25.486 -13.128,-30.791c-0.751,-2.161 0.564,-2.668 2.864,-2.387c7.703,4.89 11.56,10.415 59.913,8.593c13.388,-0.651 26.824,-0.43 40.578,5.49c13.118,2.807 26.835,4.297 41.771,3.103c10.754,1.004 6.223,-10.974 2.626,-11.219c-42.01,-2.868 -84.021,-16.182 -126.031,-37.236c-4.498,-3.803 -6.364,-7.168 -1.369,-9.388c28.83,-0.301 23.434,-13.717 70.759,-7.225c-24.115,-23.297 -73.05,-6.775 -101.852,-9.644c-3.16,0.125 -6.968,-4.069 -11.219,-11.218c0.423,-5.876 -5.01,-19.044 -23.869,-48.933c-3.637,-5.763 -10.382,-14.513 -14.083,-26.734c-1.069,-13.954 5.305,-21.92 25.063,-25.779c16.681,-5.548 17.759,-11.848 27.177,-15.447c22.207,-8.485 43.194,-10.383 59.946,-7.229c17.062,-0.761 32.064,-3.581 44.397,-9.07c9.719,-4.957 12.492,-7.773 6.206,-7.638c-37.769,1.759 -79.612,-0.846 -105.98,13.128l-4.535,-0.716c2.917,-1.111 5.899,-2.616 9.548,-8.116c3.8,-10.071 3.621,-19.664 -1.671,-28.643c-5.311,-9.146 -7.54,-18.485 -31.031,-26.495c-45.16,-9.167 -84.536,-21.07 -82.588,-52.513l-11.457,0.239c4.762,21.449 0.89,45.831 46.306,53.467l2.865,2.387c-26.414,-2.02 -48.311,-0.203 -60.867,9.548l1.909,4.296c18.548,-10.641 14.18,0.486 29.121,-1.432c0.965,-0.048 2.803,-0.662 3.252,-1.717c3.682,-8.645 16.813,-8.68 31.597,-7.353c10.904,0.18 22.891,1.241 42.169,8.225c2.879,1.533 4.802,4.843 6.802,6.039c6.319,3.781 9.002,4.028 8.793,5.309c-0.608,12.094 -3.123,21.851 -11.822,24.028l-12.15,6.025c-4.482,-1.042 -23.467,11.224 -30.45,11.957c-36.827,20.312 -54.724,46.747 -56.093,78.531c1.415,11.043 4.52,21.94 11.935,32.462c10.118,10.418 21.136,20.301 16.708,39.385c-15.111,9.015 -22.364,17.401 -31.985,19.334c-11.158,1.589 -26.627,6.282 -53.706,19.334c-23.715,0.896 -46.78,10.562 -69.222,28.644Z" style="fill:#c763e5;"/><path d="M594.635,791.154c-0.864,-3.219 1.009,-4.282 5.617,-3.189c2.787,4.864 6.069,9.013 11.848,9.554c8.365,-0.951 12.718,0.816 15.936,3.351c2.675,1.204 3.775,0.044 3.796,-2.733c2.352,-14.458 -4.224,-22.89 -18.067,-26.417c-1.423,-1.049 -1.65,-1.544 1.614,-2.729c1.739,0.184 3.678,-0.064 5.825,-0.763c-19.266,-32.871 -24.194,-43.258 -24.444,-46.306l3.948,-10.628c5.692,-9.786 15.652,-12.299 27.177,-12.146c-10.357,2.716 -20.578,7.349 -22.926,13.745c-1.401,3.818 -3.763,7.917 1.215,18.745l18.978,33.25c7.2,13.007 16.42,26.906 15.974,36.535c-1.808,5.681 -0.683,12.679 9.988,29.509l9.565,14.119c5.89,1.773 11.82,3.669 19.889,12.146c5.248,1.412 10.061,4.13 13.816,10.021c3.897,3.593 12.497,5.206 28.998,3.492c8.059,-1.753 15.396,-1.488 22.622,-0.911c8.767,1.338 16.619,4.013 23.229,8.502c11.475,2.008 21.633,4.264 42.208,4.555c1.621,0.741 2.384,1.769 1.518,3.34c-7.93,1.32 -17.283,1.623 -28.695,0.455c-6.714,-0.606 -13.683,-1.761 -21.559,-4.858c-8.632,-2.817 -18.686,-4.643 -32.794,-3.644c-25.492,0.919 -36.865,0.198 -43.766,-1.041c-4.613,1.1 -12.411,-2.817 -19.849,-6.702c-3.62,-1.911 -3.534,-1.148 -2.676,3.077c-5.474,-6.698 -6.693,-22.16 -17.516,-30.102c-0.858,-11.111 -4.552,-21.685 -15.031,-30.972c-1.825,4.227 -3.888,6.793 -6.377,6.377c1.14,1.229 0.825,2.043 -1.518,2.277c-2.015,2.778 -3.92,2.473 -5.769,0.607c-6.225,-2.404 -11.87,-6.357 -16.104,-14.07c-1.073,-2.664 0.058,-2.638 -6.67,-16.446Z" style="fill:#ba43e2;"/><path d="M749.669,821.211c-11.178,-2.114 -23.471,-3.455 -38.158,-3.138c-10.27,0.196 -23.436,0.586 -31.884,6.073c-1.586,1.207 -2.984,2.747 -2.125,8.3c0.672,3.33 2.6,4.329 5.162,4.15c-0.864,-0.51 -1.785,-0.812 -1.822,-4.353c0.114,-2.007 0.999,-2.986 2.733,-2.834c7.728,0.029 16.833,-1.614 28.34,-6.174c13.098,-3.754 25.47,-3.151 37.754,-2.024Z" style="fill:#ba43e2;"/><path d="M878.073,581.439c3.772,-0.39 -2.431,13.981 -11.672,14.639c-3.856,0.274 -2.401,-5.941 -9.804,-8.312c-7.141,1.811 -12.441,-0.877 -17.478,-4.208c-4.38,5.937 -17.092,11.161 -26.593,10.348c-7.062,-2.716 -5.636,-2.054 -11.766,-0.812l-12.574,4.05c-2.692,1.602 -7.844,1.312 -16.588,-1.742c-1.351,3.353 -6.109,5.929 -8.72,4.096c0,0 -2.725,-2.636 -7.087,-2.781c-3.089,1.434 -7.207,2.544 -5.62,7.953c-0.174,3.674 -9.981,9.265 -14.839,7.818c-6.118,-1.408 -11.772,-1.058 -15.558,6.394c-2.479,4.685 -8.168,5.478 -18.328,0.852c-13.901,5.405 -22.458,4.644 -27.28,-0.426c-9.944,-2.964 -14.19,1.01 -13.426,11.082l-12.148,-10.869c3.537,0.179 4.656,-1.565 3.771,-4.878c-0.681,-2.546 -4.769,-6.564 -13.362,-10.68c-4.081,-2.23 -2.489,-3.838 2.132,-5.115c4.7,-0.852 8.408,-0.303 11.082,1.705c-0.001,-4.293 0.376,-8.401 12.361,-6.819c4.297,1.39 8.51,0.613 12.574,-4.05c5.688,-3.629 11.709,-5.174 18.328,-2.983c2.41,-2.912 3.478,-5.591 18.329,-10.656c6.176,-6.411 13.124,-12.249 27.492,-12.574c7.236,-1.403 14.378,-3.271 22.804,1.278c4.503,2.081 8.757,4.361 19.181,1.705c5.84,-4.421 12.136,-6.368 19.607,-1.705c3.202,3.755 7.461,5.549 15.558,0.213c5.772,0.269 11.51,1.374 17.049,7.246c4.976,-0.431 10.245,-0.459 18.968,4.263c6.819,5.727 14.926,6.46 23.607,4.968Zm-198.864,20.157c0.22,1.012 0.672,1.716 1.967,1.296c1.974,0.357 2.391,-0.7 1.743,-2.726c-2.228,-0.358 -3.747,-0.12 -3.71,1.43Zm38.527,-10.995c1.36,-0.213 1.411,-1.113 0.268,-2.637c-2.485,-0.817 -4.639,-0.828 -5.453,2.413c0.328,1.215 1.043,2.078 2.682,2.101c1.259,0.436 2.198,0.071 2.503,-1.877Zm54.751,-12.291c1.284,4.003 3.308,6.806 6.078,8.402c2.77,1.597 6.284,1.987 10.548,1.163c-0.911,-7.335 -5.465,-11.408 -16.626,-9.565Zm-52.025,6.078c-0.569,-3.008 0.525,-4.992 4.604,-5.14c3.003,0.017 5.49,0.892 6.704,3.889c0.381,1.293 0.268,2.434 -2.458,2.771c-5.862,0.823 -8.47,0.16 -8.85,-1.52Z" style="fill:#97f7cc;"/><path d="M322.386,682.854c-5.517,9.342 -4.373,14.244 3.751,14.492c9.118,-4.9 14.352,-4.25 15.515,2.217c0.381,1.671 3.129,0.778 6.867,-1.187c10.246,-7.399 14.999,-7.015 13.502,2.223c0.787,1.066 1.633,1.314 2.56,0.422c7.549,-5.453 16.563,-12.472 15.759,4.251c-0.067,1.389 4.58,1.57 5.209,-0.714c3.205,-11.616 15.092,-12.542 17.594,0.513c2.882,1.551 6.029,1.221 7.512,-0.027c3.127,-3.407 -0.307,-3.88 5.511,-3.999c2.521,-1.476 4.522,-3.392 4.247,-5.707c-2.21,-3.887 -2.557,-4.43 -2.809,-8.038c3.327,-3.33 6.655,-2.316 9.982,1.485c2.2,2.665 4.576,1.868 7.194,-0.36c0.51,-3.644 1.86,-5.792 5.167,-6.918c4.277,0.356 6.958,4.68 7.46,11.327c1.055,1.529 2.74,0.752 3.178,-0.167c2.454,-5.152 11.388,-8.409 17.281,-4.947c5.896,2.442 11.793,2.413 17.689,-0.427c8.979,-1.11 13.699,1.432 16.837,5.328c3.611,2.476 2.635,-0.592 -0.427,-6.18c15.684,-6.234 25.133,-2.336 34.1,2.344c1.714,4.139 3.845,5.915 6.393,5.328c5.083,0.465 7.909,-1.326 9.377,-4.475c-1.549,-6.558 -7.851,-8.743 -14.7,-12.512c2.396,-8.05 0.203,-14.4 -4.907,-19.67c39.746,4.573 55.479,3.769 57.969,0c3.095,-0.021 1.202,-2.6 3.185,-7.903c-32.194,-7.075 -30.228,-12.49 -53.481,-16.179c-2.437,-0.775 -2.289,-2.31 -0,-4.476c0.959,-5.555 -7.56,-6.032 -14.706,-7.246c10.023,-1.075 13.607,-3.965 12.788,-8.098c12.904,-3.079 -0.098,-8.708 -7.775,-14.606c1.569,-3.555 -0,-5.737 -2.881,-7.346c-2.202,0.672 -4.569,0.519 -7.471,-2.309c-1.507,1.611 -3.251,1.96 -5.178,1.334c-1.665,4.194 -3.754,3.02 -5.844,1.836c-1.681,5.084 -8.443,-0.169 -17.256,-6.272c-2.868,1.566 -8.398,-1.97 -9.954,0.603c-2.13,3.522 -6.673,3.917 -10.512,2.543c-2.636,-2.822 -6.182,-6.46 -10.531,-8.909c-0.802,2.53 -6.584,-1.024 -7.648,0.559c-2.287,3.4 -5.245,4.375 -9.162,1.89l-4.463,-1.291c-4.943,6.28 -10.152,5.134 -15.377,3.526c-4.46,0.464 -5.386,1.96 -6.475,4.109c3.717,2.537 5.848,4.618 1.997,9.146c-2.14,2.887 -1.822,5.282 -0.466,7.469c2.15,3.501 -7.567,5.499 -9.496,5.825c-2.206,0.373 -28.457,2.838 -31.257,0.091c-3.867,-1.811 -7.037,-2.462 -10.063,-2.872c-4.151,-1.001 -4.592,4.382 -9.478,4.8l-3.329,-2.488c-1.217,-1.936 -4.872,-2.49 -6.368,-0.179l-5.03,5.927c-2.722,4.156 -17.013,3.859 -28.481,3.434l-10.823,4.85c-3.232,1.796 -6.358,1 -6.226,6.019c1.196,2.49 3.26,4.258 6.973,4.652c4.44,-0.321 9.981,-3.57 11.7,3.912l2.882,-0.092c5.063,-3.07 5.381,-8.224 10.59,0.95l2.979,0.175c13.493,-10.955 17.164,-11.981 13.041,-0.007c13.996,-0.719 15.553,-10.422 18.579,0l1.667,0c5.561,-2.854 11.181,-5.514 12.047,5.738c0.046,0.598 0.915,-0.135 1.104,0.52c3.094,0.564 5.633,-0.706 7.309,3.119c-2.197,2.3 -1.605,3.572 -5.718,4.122c-5.445,0.728 -10.674,6.649 -11.119,9.944c-1.113,3.6 -4.083,4.346 -15.279,2.87c-5.176,-0.682 -9.03,7.984 -14.558,11.409c-5.001,3.1 -14.228,-1.021 -18.247,4.299Z" style="fill:#97f7cc;"/><path d="M409.684,557.929c0.175,3.027 3.174,2.916 7.353,1.492c4.25,-1.002 7.106,-0.842 7.353,1.492c4.901,4.23 9.803,2.73 14.705,-6.607c0.885,1.957 3.155,3.008 4.265,4.881c1.551,2.617 2.188,5.964 5.538,7.907c0.545,1.397 1.571,0.865 2.783,-0.408c3.944,-3.448 5.874,-3.822 5.592,-0.82c1.932,2.102 3.483,0.963 4.969,-0.728c6.928,-4.99 8.283,-12.345 24.317,-4.261c3.44,1.809 5.721,1.007 7.382,-1.187c7.514,-15.409 11.632,-11.615 17.357,0.859c1.437,5.608 15.767,2.951 13.258,-3.259l7.367,0.945c3.488,0.847 5.642,2.242 8.017,-0.247c3.036,-3.18 8.656,-1.407 12.535,-2.403c2.711,1.118 4.952,2.746 10.443,0.853c8.201,-6.499 16.167,-9.012 23.656,-3.41c2.417,5.214 2.385,7.864 1.066,9.164c14.909,3.963 12.108,6.876 5.967,9.59c-10.976,-0.968 -15.933,2.244 -20.46,5.754c-5.291,1.449 -8.208,5.516 -5.848,9.634c4.081,1.427 8.578,1.61 13.728,-0.165c1.5,2.835 4.043,3.759 7.678,2.679c3.092,1.708 6.989,2.465 12.038,1.86c1.265,4.06 2.786,5.987 4.586,5.6c4.033,1.682 7.017,1.592 8.737,-0.64c1.425,-2.281 2.168,-5.139 1.279,-9.377c3.819,-2.806 6.522,-1.894 8.738,0.639c4.431,1.251 6.412,0.273 10.665,-3.102c8.27,-5.328 16.691,-5.522 25.139,-4.783c4.75,-7.327 15.692,-7.542 30.05,-3.836c3.453,-0.577 4.159,-1.978 4.049,-3.623c-3.395,-1.285 -6.843,-3.009 -3.465,-6.967c13.211,0.241 23.218,-4.656 35.647,-3.263c7.888,-3.121 8.974,-7.035 15.003,-13.873c4.863,-5.399 10.501,-5.718 16.965,-0.619c3.076,3.279 9.055,3.53 11.953,0.76c13,-8.964 22.998,-14.104 35.999,-13.121c7.834,-0.948 9.829,6.737 18.115,3.196c0.425,6.524 2.073,10.804 5.701,11.456c9.068,-6.291 17.503,-4.938 21.346,0.537c2.758,2.527 6.283,1.642 10.641,-2.948c6.08,-8.424 8.954,-5.195 13.963,-0.759c9.434,-1.253 13.961,-4.621 9.898,-10.137c-1.31,-3.258 0.561,-4.558 3.879,-4.968c6.892,0.438 7.783,-2.44 7.885,-5.755c2.835,-3.805 0.768,-6.109 -5.115,-7.246c-7.701,6.935 -12.66,5.843 -15.558,-1.278c0.601,-2.177 3.159,-3.864 6.607,-5.328c1.519,-2.075 -0.731,-2.621 -7.759,-1.848c-3.951,-0.554 -5.347,-3.22 -5.206,-7.155c-0.559,-0.955 -2.699,-0.033 -6.994,-0.098c0.45,-4.261 -9.102,-2.191 -17.459,-2.497c-9.732,-10.288 -16.877,-7.802 -23.747,-3.96c-4.309,-4.502 -8.321,-2.856 -14.943,1.894c-11.181,4.965 -18.75,3.818 -22.993,-2.96c-3.505,-0.774 -4.792,0.037 -4.562,1.932c0.385,9.234 -3.43,14.606 -6.603,13.165c-8.172,-0.555 -15.818,2.39 -23.812,4.327c-5.587,-0.104 -6.813,-4.025 -8.073,-7.915c-3.864,-0.495 -5.555,1.056 -6.393,3.41c1.982,6.947 -2.811,11.461 -14.706,13.426c-3.045,0.79 -5.932,0.163 -8.443,-3.853c-3.993,-1.403 -7.985,-1.073 -11.977,0.727c-0.473,-4.077 -3.895,-9.225 -8.489,-8.213c-3.682,0.81 -8.13,-8.731 -14.162,-8.842c-0.234,-0.255 -1.779,-1.126 -3.185,0.41c-3.497,3.823 -6.7,5.544 -9.177,4.845c-9.022,-3.647 -3.678,-7.031 -10.61,-7.275c-6.435,0.32 -11.825,0.926 -7.171,4.287c2.887,8.659 -6.789,10.844 -19.81,12.532c-2.702,2.994 -3.951,7.429 -2.027,12.202c-3.366,1.52 -6.569,3.634 -9.4,7.111c-12.97,3.402 -21,-1.393 -23.325,-5.208c-1.428,-1.325 -3.652,-1.567 -7.037,-0.224c-13.504,3.508 -22.093,3.863 -21.007,-0.28c2,-3.703 -0.009,-5.917 -0.866,-9.442c-2.355,-1.973 -5.684,-1.611 -9.818,0.686c0.186,-4.404 -2.181,-4.98 -5.91,-3.512c1.962,-4.164 -0.525,-6.437 -7.459,-6.82c-6.208,2.522 -12.061,4.257 -10.869,-9.59c-2.079,-0.888 -4.061,-2.015 -7.728,0.954c-2.164,1.687 -3.564,3.668 -2.835,6.468c-4.872,2.783 -9.134,1.628 -11.547,-0.281c-5.457,-0.242 -7.771,-2.929 -9.219,-6.289c-0.972,-2.004 -0.145,-3.817 -10.535,3.373c2.055,1.904 1.019,6.71 4.805,6.727c4.204,0.019 6.487,2.076 7.009,6.31c-6.05,11.24 -21.906,14.775 -44.78,12.796c-1.349,-0.116 -1.47,-1.837 -4.118,-0.407l-2.742,5.569l-8.553,-1.936c-4.581,1.725 -8.28,2.092 -9.525,6.041c-7.175,-0.084 -10.102,2.58 -13.399,5.004c-4.663,2.917 -8.649,5.971 -6.607,10.229Z" style="fill:#97f7cc;"/><path d="M667.887,643.832c10.711,0.244 20.556,-2.039 29.837,-5.967c5.071,-3.426 7.117,-5.484 11.473,-10.34c2.522,-3.007 13.184,-0.43 19.855,-3.3c3.777,-8.694 8.468,-13.098 15.345,-7.246c6.813,-8.574 13.553,-9.67 20.246,-5.967c16.378,-9.954 16.341,-9.782 34.313,-7.46c13.995,-9.057 24.921,-9.813 33.673,-4.688c14.598,-9.712 26.138,-8.667 34.896,1.048c8.378,-2.125 16.554,-1.085 25.767,0.485c4.239,0.722 2.265,-9.071 10.306,-0.681c2.278,1.289 4.19,1.052 5.754,-0.639c3.525,-3.602 6.171,-0.609 8.738,2.984c10.948,12.327 18.617,13.605 24.082,7.459c8.369,-6.971 14.521,-8.423 17.05,-0.853c-0.08,5.368 2.613,7.13 9.088,4.631c4.693,-1.129 7.628,-0.215 8.388,2.829c1.707,7.125 7.456,9.176 20.008,6.885c4.383,-0.732 8.697,1.595 10.1,5.63c3.99,7.18 8.493,13.053 13.794,16.895c3.271,2.629 2.501,5.257 -0.426,7.886c-6.284,3.084 -0.671,9.009 -18.115,20.885c-3.606,2.377 -5.692,5.314 -7.033,8.525c-0.908,2.067 -2.445,2.343 -4.902,0c-1.293,-3.69 -3.481,-2.913 -5.967,-0.639c-0.783,4.166 -3.414,4.045 -6.82,2.131c-1.635,-1.78 -3.016,-2.569 -4.192,-2.561c-1.665,0.01 -2.92,1.616 -3.906,4.266c-3.601,4.518 -5.705,3.45 -8.113,-0.856c2.94,-8.899 -16.041,-15.337 -15.544,-2.767c0.838,7.431 -9.885,0.6 -12.787,-3.623c0.682,-4.703 -1.141,-6.798 -6.18,-5.541c-5.975,-6.241 -9.94,-7.297 -13.64,-7.673c2.256,15.017 23.252,38.361 52.001,31.329c7.9,-1.471 14.022,-1.115 13.853,1.918c-0.821,14.739 14.372,6.547 8.738,26.427c-7.208,5.829 -19.799,7.542 -34.739,7.459c-1.297,-0.133 -2.095,0.688 -2.344,2.558c4.778,4.537 2.477,5.168 -1.066,5.114c-9.065,0.673 -13.868,2.766 -14.066,6.394c-2.637,2.593 -6.863,2.483 -12.361,0.213c-5.309,-5.843 -10.556,-5 -15.77,-0.639c-4.773,4.679 -6.014,3.292 -6.394,0.426c-3.128,-1.923 -5.991,0.272 -8.738,4.263c-6.612,1.187 -8.285,-0.918 -7.459,-4.689c2.231,-2.749 3.732,-5.423 3.197,-7.886c-0.146,-1.015 -1.665,-1.452 -3.623,-1.705c-8.725,0.883 -14.371,-3.716 -19.181,-9.803c-1.367,-1.971 -3.292,-2.028 -5.328,-1.705c-7.362,4.374 -16.586,-4.783 -21.099,5.967c-3.317,4.521 -6.98,4.504 -10.869,1.492c-3.382,-1.861 -0.262,-7.437 -4.354,-8.429c-5.813,-1.41 -7.534,-8.241 -12.056,-7.981c-8.814,-4.253 -16.809,-4.99 -22.378,4.689c-1.983,6.668 -1.808,10.51 0.213,11.934c3.272,3.581 -0.808,3.77 -7.459,2.771l-18.542,-4.263c-6.169,1.985 -12.545,2.728 -19.18,1.919c-7.123,1.742 -11.698,-1.611 -15.558,-6.394c-5.528,-3.665 -3.691,-5.89 1.492,-7.459c2.765,-1.689 3.025,-4.004 2.983,-6.394c-2.778,-4.596 11.7,-3.441 24.083,-2.984c4.136,-6.662 7.471,-9.001 10.443,-9.377c1.99,-2.797 1,-3.291 -2.131,-2.131c-15.409,1.4 -25.217,0.725 -34.313,-0.213c-14.971,9.824 -25.802,12.861 -32.394,8.951c-3.35,-9.601 2.302,-13.257 11.295,-14.705c14.599,-3.915 18.513,-8.58 19.821,-13.427c5.164,-0.202 10.11,-0.81 13.639,-4.049c7.952,0.089 14.41,-3.26 20.034,-8.525l5.754,-6.607c9.863,2.45 15.662,0.157 18.541,-5.541c-5.779,-0.83 -7.851,-0.954 -8.738,-0.852c16.378,-12.987 15.194,-17.088 12.148,-20.247c-6.938,-9.224 -12.439,-7.228 -17.049,1.705c-4.318,0.639 -7.221,2.569 -6.181,8.099c-6.548,6.511 -12.675,3.975 -18.754,0.426c-0.836,-6.787 -3.828,-9.442 -7.46,-10.869c-4.191,-1.794 -8.382,0.99 -12.574,6.18c-3.978,2.493 -6.255,0.811 -7.672,-2.983c-0.676,-6.42 -4.626,-4.158 -10.656,3.623c1.059,2.808 3.334,5.697 7.885,8.738l-13.426,-0l-7.672,-5.328l-4.263,0.213c-1.894,4.097 -4.64,6.49 -7.672,8.311c-12.148,2.558 -18.044,0 -17.689,-7.672Z" style="fill:#97f7cc;"/><g><path d="M340.68,276.85c4.444,-5.484 7.332,-8.992 8.666,-10.521c6.595,-8.289 10.945,-17.261 13.049,-26.915c2.104,-9.654 3.184,-16.867 3.24,-21.638l52.563,23.716c-2.998,5.158 -8.236,12.656 -15.713,22.494c-7.478,9.838 -15.924,18.242 -25.339,25.213c-4.461,3.17 -9.244,6.015 -14.348,8.534c-3.165,1.562 -5.562,2.649 -7.189,3.258c3.192,5.491 6.172,11.039 8.938,16.643c2.075,4.204 3.508,7.271 4.301,9.203l53.462,-44.539c1.046,3.259 2.453,7.574 4.221,12.946c1.767,5.371 4.218,12.535 7.353,21.49c3.135,8.956 5.106,14.251 5.913,15.886c-0.153,-0.311 -6.512,1.375 -19.076,5.06c-12.563,3.684 -27.11,8.154 -43.639,13.408c3.909,14.431 6.106,28.037 6.589,40.818c0.484,12.782 -0.086,23.591 -1.711,32.427c-1.624,8.836 -3.263,15.405 -4.916,19.706c-1.653,4.301 -2.928,7.254 -3.823,8.857c-0.867,-3.057 -2.486,-8.332 -4.859,-15.825c-2.373,-7.493 -5.735,-16.99 -10.086,-28.491c-4.352,-11.502 -9.178,-22.624 -14.48,-33.366c-1.307,-2.646 -2.38,-4.779 -3.219,-6.397c-0.839,-1.619 -1.752,-3.347 -2.738,-5.183c-4.287,1.245 -7.877,2.315 -10.769,3.21c-2.893,0.896 -5.269,1.657 -7.129,2.284c-1.859,0.628 -3.099,1.046 -3.719,1.255l17.231,-14.168c-1.641,-2.675 -4.002,-6.156 -7.083,-10.443c-4.21,-5.763 -12.048,-14.479 -23.512,-26.148c-2.325,0.663 -4.206,1.204 -5.646,1.625c-1.44,0.42 -2.453,0.727 -3.041,0.92c-0.588,0.193 -1.03,0.315 -1.327,0.364c0.646,-0.319 2.969,-2.288 6.967,-5.907c-4.628,-4.492 -8.861,-8.429 -12.699,-11.81c-3.838,-3.381 -6.568,-5.737 -8.188,-7.067l38.308,-54.484c1.824,2.391 5.046,6.803 9.666,13.234c4.621,6.432 9.215,13.216 13.782,20.351Z" style="fill:#d689fe;fill-rule:nonzero;"/><path d="M552.094,342.198c12.048,-23.758 19.769,-43.871 23.162,-60.339c1.145,-6.424 1.643,-15.153 1.496,-26.19c-0.148,-11.036 -0.667,-22.62 -1.558,-34.75c-0.89,-12.131 -1.679,-21.652 -2.366,-28.563c-0.688,-6.911 -1.22,-12.005 -1.598,-15.282l65.252,5.852c-0.325,5.979 -1.133,15.64 -2.423,28.983c-1.289,13.343 -3.609,28.596 -6.959,45.759c-3.35,17.163 -7.738,30.819 -13.164,40.968c-7.318,13.863 -15.863,26.359 -25.633,37.49c-9.771,11.13 -18.952,20.14 -27.544,27.027c-8.593,6.888 -15.752,12.06 -21.477,15.516c-5.726,3.456 -9.72,5.751 -11.981,6.885c0.358,-0.041 4.599,-6.952 12.723,-20.733l-38.086,22.344c-1.666,-5.662 -4.003,-14.939 -7.011,-27.831c-3.007,-12.891 -5.346,-26.581 -7.015,-41.068c-1.271,-11.039 -1.764,-21.293 -1.478,-30.763c0.453,-16.829 2.634,-32.502 6.542,-47.021c3.908,-14.518 8.366,-26.784 13.373,-36.798c5.007,-10.014 9.211,-17.401 12.612,-22.162c3.402,-4.761 5.907,-8.02 7.517,-9.778c-0.544,4.082 -1.226,11.063 -2.045,20.944c-0.818,9.881 -1.359,22.329 -1.622,37.345c-0.263,15.016 0.336,28.862 1.796,41.539c0.874,7.589 2.144,14.52 3.808,20.794c3.145,12.832 11.038,29.443 23.679,49.832Z" style="fill:#d689fe;fill-rule:nonzero;"/><path d="M728.749,273.302c-2.448,16.048 -1.471,30.928 2.933,44.639c4.404,13.712 10.219,25.414 17.445,35.107c7.226,9.693 13.749,17.135 19.569,22.326c5.82,5.192 10.038,8.709 12.653,10.551c-5.117,-0.85 -13.265,-3.019 -24.445,-6.505c-11.179,-3.486 -23.965,-9.726 -38.356,-18.717c-14.39,-8.992 -26.176,-21.687 -35.355,-38.084c-9.179,-16.397 -11.819,-36.328 -7.919,-59.79c5.11,-30.742 18.658,-52.381 40.645,-64.917c21.987,-12.537 43.073,-19.218 63.258,-20.042c20.186,-0.824 35.084,-0.482 44.693,1.027c-3.384,0.582 -9.031,2.151 -16.942,4.708c-7.911,2.557 -17.394,7.206 -28.448,13.948c-11.054,6.743 -21.33,16.386 -30.828,28.931c-9.499,12.544 -15.8,28.15 -18.903,46.818Z" style="fill:#d689fe;fill-rule:nonzero;"/><path d="M925.947,327.378c12.7,18.832 20.369,32.581 23.006,41.247c3.806,12.017 5.762,26.653 5.867,43.908c0.105,17.254 -0.155,30.391 -0.778,39.409l-54.15,-11.58c1.067,-6.874 2.408,-17.456 4.022,-31.746c1.614,-14.291 2.374,-26.995 2.279,-38.113c-0.104,-12.419 -1.698,-26.377 -4.781,-41.874c-1.154,-0.153 -2.656,-0.204 -4.506,-0.152c-7.123,7.343 -15.432,14.365 -24.924,21.068c-9.493,6.703 -19.165,12.881 -29.016,18.533c-9.852,5.653 -17.584,9.861 -23.198,12.623c-5.613,2.762 -9.643,4.699 -12.091,5.809c3.991,-4.725 10.121,-12.578 18.389,-23.561c8.269,-10.982 16.516,-23.173 24.742,-36.572c-8.631,-0.685 -14.459,-1.134 -17.483,-1.346c-3.025,-0.212 -5.398,-0.406 -7.119,-0.58c2.083,-0.319 5.929,-1.014 11.539,-2.084c5.609,-1.07 11.457,-2.379 17.543,-3.927c6.615,-11.716 11.452,-22.044 14.513,-30.982c3.703,-10.37 6.62,-22.28 8.752,-35.73c2.132,-13.45 3.532,-23.624 4.201,-30.524l69.672,6.288c-2.086,5.6 -5.692,14.405 -10.816,26.415c-5.125,12.009 -11.443,24.666 -18.954,37.97l-3.776,6.69c0.612,-0.352 1.514,-0.815 2.707,-1.388c1.192,-0.573 2.305,-1.115 3.339,-1.628c7.409,-3.892 14.914,-9.051 22.513,-15.477c7.599,-6.426 13.9,-12.238 18.904,-17.438c5.004,-5.2 8.482,-8.943 10.435,-11.23l35.632,39.105c-6.51,4.499 -16.439,10.582 -29.786,18.249c-13.346,7.667 -26.243,13.071 -38.689,16.212c-4.719,1.324 -10.715,2.126 -17.988,2.406Z" style="fill:#d689fe;fill-rule:nonzero;"/></g><g><path d="M365.297,974.936c-4.479,-4.965 -8.294,-9.773 -11.445,-14.425c-3.15,-4.652 -5.839,-9.672 -8.066,-15.061c-6.544,-16.532 -9.515,-31.36 -8.914,-44.484c0.601,-13.124 1.719,-22.402 3.356,-27.834c1.013,2.727 3.024,7.569 6.032,14.526c3.008,6.956 7.261,15.408 12.76,25.354c5.498,9.946 11.856,19.635 19.074,29.066c5.737,7.503 13.049,14.162 21.937,19.975c9.953,-4.75 19.606,-9.817 28.959,-15.201c9.354,-5.385 16.947,-9.957 22.779,-13.718c5.832,-3.76 9.91,-6.428 12.234,-8.005c-1.1,1.816 -3.231,5.075 -6.392,9.777c-3.161,4.702 -7.597,10.74 -13.308,18.114c-5.711,7.374 -11.926,14.513 -18.643,21.415c4.363,1.456 8.253,2.531 11.67,3.226c3.417,0.694 5.76,1.1 7.028,1.217l-40.694,27.756c-0.847,-0.309 -3.861,-2.347 -9.041,-6.111c-6.508,4.414 -13.217,8.062 -20.126,10.943c-8.711,3.748 -18.871,6.793 -30.479,9.135c-11.607,2.343 -21.476,3.935 -29.607,4.776c-8.13,0.84 -13.983,1.37 -17.559,1.588l-16.96,-54.755c7.76,1.727 19.729,3.416 35.908,5.066c16.179,1.65 31.927,1.012 47.244,-1.916c1.104,-0.151 1.855,-0.292 2.253,-0.424Z" style="fill:#d689fe;fill-rule:nonzero;"/><path d="M513.835,1022.31l78.005,3.475c-0.887,2.208 -2.316,5.681 -4.287,10.421c-1.97,4.74 -3.91,9.536 -5.82,14.389c-1.91,4.852 -3.082,8.297 -3.514,10.335c0.041,-0.191 -3.83,-1.511 -11.612,-3.961c-7.782,-2.45 -15.735,-4.887 -23.858,-7.309c-8.124,-2.423 -20.074,-5.974 -35.853,-10.653c-6.703,12.621 -15.162,23.438 -25.377,32.451c18.296,-2.44 32.386,-3.044 42.272,-1.812c6.956,0.811 15.569,2.306 25.84,4.485c8.587,1.822 16.059,3.558 22.418,5.207c6.359,1.648 11.828,3.142 16.408,4.48c4.58,1.337 7.699,2.249 9.357,2.734l-39.652,35.112c-0.774,-1.096 -2.456,-2.95 -5.046,-5.563c-2.591,-2.613 -6.678,-5.777 -12.263,-9.491c-5.585,-3.714 -12.309,-7.004 -20.17,-9.87c-5.201,-1.969 -10.078,-3.586 -14.631,-4.852c-4.553,-1.266 -9.799,-2.529 -15.737,-3.789c-6.66,-1.413 -15.287,-2.844 -25.881,-4.294c-5.921,3.403 -11.316,6.002 -16.183,7.797c-4.868,1.796 -8.272,2.921 -10.213,3.374c0.51,-0.824 1.39,-2.5 2.64,-5.031c1.249,-2.53 2.406,-5.113 3.468,-7.749c-4.95,-0.385 -8.762,-0.595 -11.438,-0.63c-2.676,-0.036 -4.563,-0.037 -5.66,-0.003c-0.241,-0.052 6.144,-1.492 19.156,-4.321c6.143,-13.538 10.681,-27.217 13.613,-41.037c0.487,-2.293 1.056,-5.766 1.708,-10.419c-4.586,-1.306 -8.715,-2.499 -12.386,-3.577c-3.67,-1.078 -6.395,-1.873 -8.173,-2.383c-1.779,-0.511 -3.022,-0.875 -3.731,-1.092l25.025,1.218c0.084,-1.979 0.078,-5.108 -0.02,-9.389c-0.27,-5.448 -2.044,-14.476 -5.322,-27.085c-2.581,-0.88 -4.673,-1.591 -6.278,-2.131c-1.604,-0.54 -2.741,-0.914 -3.409,-1.123c-0.669,-0.208 -1.157,-0.378 -1.464,-0.51c0.802,0.17 4.207,0.327 10.214,0.471c-1.461,-4.969 -2.907,-9.419 -4.337,-13.35c-1.43,-3.93 -2.478,-6.698 -3.143,-8.304l69.598,-7.294c0.223,2.111 0.463,5.722 0.72,10.835c0.257,5.113 0.284,11.108 0.082,17.987c4.135,-0.121 9.12,-0.494 14.955,-1.119c11.375,-1.047 21.095,-3.677 29.158,-7.889c8.064,-4.212 13.631,-7.623 16.7,-10.233l33.872,41.329c-6.051,1.246 -15.664,2.583 -28.839,4.014c-13.176,1.43 -26.346,1.547 -39.509,0.351c-6.154,-0.64 -12.4,-1.633 -18.739,-2.978c-3.932,-0.834 -6.848,-1.52 -8.746,-2.056c-0.506,4.752 -1.265,9.516 -2.278,14.292c-0.636,2.993 -1.182,5.173 -1.64,6.54Z" style="fill:#d689fe;fill-rule:nonzero;"/><path d="M710.105,976.718c0.424,0.072 0.788,0.152 1.09,0.241c0.303,0.088 0.797,0.216 1.483,0.382c10.402,2.079 22.872,2.091 37.411,0.035c13.239,-1.873 25.624,-4.66 37.155,-8.362c11.531,-3.702 19.8,-6.598 24.806,-8.686c-2.396,2.976 -7.145,7.62 -14.247,13.932c-7.102,6.311 -17.834,13.17 -32.196,20.575c-14.363,7.405 -31.047,12.451 -50.053,15.139c-6.435,0.778 -14.446,1.251 -24.032,1.419c2.847,6.072 8.712,10.933 17.596,14.582c10.999,-3.068 22.387,-5.435 34.164,-7.101c9.747,-1.378 18.946,-2.088 27.598,-2.13c8.652,-0.041 16.754,0.865 24.307,2.719c7.553,1.854 13.873,5.098 18.96,9.73c5.088,4.633 8.178,10.812 9.271,18.539c0.4,2.832 0.133,5.628 -0.802,8.387l12.571,6.294c-2.567,2.933 -7.1,7.494 -13.598,13.684c-6.498,6.19 -14.977,12.726 -25.437,19.608c-10.459,6.883 -20.977,11.302 -31.553,13.26c-2.094,0.427 -5.252,0.94 -9.476,1.537c-23.961,3.389 -45.414,3.271 -64.36,-0.353c-18.947,-3.625 -32.322,-6.964 -40.128,-10.019c1.643,-0.101 5.217,-0.459 10.722,-1.073c5.505,-0.614 9.801,-1.14 12.888,-1.576c14.376,-2.033 28.325,-4.745 41.847,-8.134c13.522,-3.389 24.933,-7.644 34.234,-12.765c5.764,-3.178 12.122,-7.425 19.075,-12.739c1.279,-3.265 1.681,-6.571 1.208,-9.917c-1.192,-8.428 -7.121,-14.907 -17.786,-19.437c-11.895,1.419 -23.682,2.429 -35.362,3.029c-11.679,0.6 -23.536,0.386 -35.57,-0.641c-12.034,-1.026 -22.208,-3.401 -30.522,-7.124c-8.314,-3.722 -12.977,-9.161 -13.989,-16.317c-0.83,-5.866 -0.298,-11.185 1.595,-15.956c1.894,-4.772 4.873,-8.892 8.94,-12.36l11.165,-22.982c-0.325,0.046 6.972,2.433 21.89,7.161c7.183,-1.936 14.876,-3.484 23.079,-4.644c10.234,-1.448 19.682,-2.307 28.342,-2.579c8.661,-0.271 14.864,-0.343 18.61,-0.215c-3.871,0.744 -9.756,2.333 -17.656,4.765c-7.899,2.432 -15.646,5.797 -23.24,10.092Zm5.664,51.472c9.057,2.533 19.535,3.977 31.432,4.333c-8.037,-2.349 -18.514,-3.793 -31.432,-4.333Z" style="fill:#d689fe;fill-rule:nonzero;"/><path d="M945.194,899.176l21.033,-29.347c-0.037,2.604 0.404,6.427 1.323,11.47c0.92,5.043 3.117,9.591 6.591,13.645c0.693,2.321 2.057,4.668 4.09,7.04c2.119,2.472 4.536,4.409 7.251,5.812c2.715,1.403 4.29,1.917 4.726,1.543c-0.127,-0.148 -6.015,4.642 -17.664,14.37c4.884,2.674 11.08,5.08 18.587,7.22c7.506,2.141 13.965,3.657 19.376,4.55c5.411,0.892 9.28,1.499 11.608,1.819l-41.432,65.484c-3.88,-2.762 -9.811,-7.476 -17.792,-14.14c-7.982,-6.664 -15.637,-14.271 -22.967,-22.823c-3.39,-3.954 -5.786,-7.002 -7.19,-9.143c-4.546,3.897 -11.389,9.59 -20.527,17.08c3.932,10.007 6.449,19.876 7.551,29.607c1.103,9.731 1.336,18.448 0.701,26.153c-0.635,7.704 -1.479,13.809 -2.534,18.314c-1.054,4.505 -1.845,7.584 -2.373,9.237c-1.027,-2.207 -2.923,-5.962 -5.687,-11.267c-2.765,-5.305 -6.62,-11.883 -11.567,-19.733c-4.946,-7.851 -10.343,-15.187 -16.19,-22.008l-2.479,-2.892c-5.025,4.222 -9.401,7.909 -13.128,11.06c-3.727,3.152 -6.275,5.315 -7.645,6.49l16.141,-22.197c-3.195,-3.349 -7.123,-6.671 -11.783,-9.965c-6.916,-4.791 -15.543,-9.057 -25.882,-12.8c-10.339,-3.743 -18.269,-6.377 -23.791,-7.903l43.315,-65.556c0.93,0.833 2.859,2.674 5.787,5.523c2.929,2.849 6.16,6.146 9.694,9.891c3.534,3.744 6.975,7.569 10.322,11.474c8.94,10.43 16.041,20.164 21.303,29.202l16.325,-22.74c-4.186,-10.303 -6.945,-20.265 -8.276,-29.885c-1.332,-9.62 -1.741,-18.165 -1.23,-25.635c0.512,-7.47 1.239,-13.303 2.181,-17.497c0.942,-4.195 1.667,-7.068 2.175,-8.618c0.94,1.853 2.653,5.08 5.138,9.681c2.485,4.601 6.046,10.488 10.682,17.661c4.636,7.173 9.382,13.781 14.237,19.823Z" style="fill:#d689fe;fill-rule:nonzero;"/></g><path id="a" d="M622.507,898.43c-4.776,-2.992 -7.966,-7.197 -11.486,-12.337c-3.686,-5.384 -21.088,-12.979 -27.473,-19.793c-23.015,-6.201 -38.601,-4.643 -47.367,5c-1.515,2.56 -3.427,3.074 -6.01,3.296c-17.309,1.487 -14.72,-8.578 -49.963,10.921c-5.935,3.283 -7.527,3.588 -15.245,2.655c-16.435,-1.418 -32.36,-0.435 -50.105,7.54c7.637,-6.201 15.455,-12.213 27.279,-14.008c10.533,-1.599 25.447,-1.685 38.204,-4.588c11.072,-2.519 24.293,-8.547 27.052,-11.941c6.921,-4.655 4.156,-1.209 22.399,-0.314c5.281,0.895 16.974,-8.626 20.725,-11.01c-3.116,-6.024 -0.598,-8.202 5.243,-8.11c7.972,-1.801 12.746,-0.403 17.203,1.311c-0.116,-1.623 1.017,-2.309 3.523,-1.966c-3.045,-2.524 -5.558,-8.773 -7.947,-15.893c3.044,-20.194 -9.323,-35.457 -17.949,-40.732c-10.119,-17.67 -13.646,-33.345 -7.446,-52.247c5.733,-20.061 19.781,-40.788 49.971,-56.934l17.194,-7.296l-6.482,8.402c-33.143,24.883 -40.007,58.157 -36.869,94.625c1.327,4.299 3.542,6.23 6.18,7.033c-0.578,5.015 0.296,8.689 2.558,11.082c1.474,3.334 4.238,4.824 7.246,5.967c9.953,16.059 20.091,23.641 30.263,29.624c0.881,0.819 0.871,1.935 -0.213,3.41c-1.734,0.532 -4.612,0.555 -8.312,0.213c-3.571,0.488 -0.481,4.306 3.41,8.525c0.998,3.281 1.373,9.181 1.279,17.05c1.038,7.804 3.639,9.425 5.935,12.721l5.147,10.296c3.792,7.254 8.53,9.776 13.213,12.574c27.576,-2.299 22.868,16.036 27.942,15.13c5.56,1.366 8.793,-7.216 9.738,-12.648c0.266,-1.53 0.351,-2.81 0.256,-3.548c2.075,5.449 -4.128,15.621 -2.707,16.919c1.839,-2.257 7.637,1.274 11.696,5.697c3.07,3.345 7.359,5.573 11.136,7.161c0.982,0.11 1.871,0.453 2.665,1.061c3.29,1.252 5.714,2.02 5.737,2.725c0.097,2.897 9.785,7.055 6.194,5.8c-27.358,-1.571 -39.247,-9.62 -60.959,-18.143c-12.775,-5.015 -27.156,-16.215 -24.53,-15.742c0.408,0.073 0.982,0.255 1.675,0.512c2.32,1.454 5.015,2.621 8.304,3.47l0,-0c-2.934,-1.189 -6.177,-2.681 -8.304,-3.47Zm60.476,24.438l0.069,0.024c0.052,0.019 0.104,0.038 0.156,0.057l0.155,0.058l2.089,0.762c2.385,-1.173 4.482,-1.752 6.273,-1.552c0.928,0.39 1.825,0.742 2.665,1.061c1.198,0.917 2.18,2.435 2.933,4.66c2.122,2.408 -3.847,-1.058 -13.96,-4.931l-0.38,-0.139c-3.231,-1.125 -7.264,-1.194 -11,-2.699c-3.128,-1.259 -6.139,-3.107 -9.323,-4.72c7.31,-4.955 14.034,-6.215 18.501,6.756l1.822,0.663Zm-25.275,-9.561l-0.405,-0.176c-1.837,-15.066 -19.096,-16.873 -26.492,-11.231c1.436,0.581 2.798,1.09 3.919,1.409c3.965,1.127 7.216,3.529 11.896,5.101c3.733,1.255 7.588,3.706 11.082,4.897c0,0 4.941,2.15 4.941,2.15l0.011,-0.008c-1.595,-0.808 -3.233,-1.556 -4.952,-2.142Zm-96.866,-181.786c0.416,7.956 1.171,15.387 -4.937,33.493c3.798,1.364 5.23,4.73 4.403,10.008c3.388,3.502 6.863,4.935 9.875,17.481c-1.929,3.081 -0.387,8.393 2.668,14.678c2.77,0.849 5.682,3.821 8.807,10.008c3.683,1.283 6.414,5.966 7.606,16.146c2.862,3.041 4.345,6.656 2.936,11.476c2.519,3.877 3.798,7.91 3.47,12.143c-3.843,2.049 -7.456,0.442 -10.943,-3.203c-9.418,-0.172 -10.019,-2.718 -0.934,-7.873c-2.772,-2.997 -3.633,-6.121 -1.067,-9.474c-0.373,-7.194 -2.519,-11.487 -6.806,-12.276c-0.333,-8.818 -1.934,-12.355 -4.403,-12.277c-3.01,-4.248 -3.975,-6.962 -4.137,-9.074c-3.24,-5.273 -2.651,-7.994 -1.601,-10.408c-5.496,-1.825 -7.892,-4.58 -6.272,-8.54c-7.032,-2.487 -7.049,-4.365 -5.871,-6.138c-5.958,-5.162 -6.854,-10.806 -5.338,-16.68c3.638,-5.555 4.192,-11.925 3.203,-18.548c4.762,0.061 7.427,-4.594 9.341,-10.942Z" style="fill:#ba43e2;"/></g></g></svg>