<?xml version="1.0" encoding="UTF-8" standalone="no"?><!DOCTYPE svg PUBLIC "-//W3C//DTD SVG 1.1//EN" "http://www.w3.org/Graphics/SVG/1.1/DTD/svg11.dtd"><svg width="100%" height="100%" viewBox="0 0 1031 1139" version="1.1" xmlns="http://www.w3.org/2000/svg" xmlns:xlink="http://www.w3.org/1999/xlink" xml:space="preserve" xmlns:serif="http://www.serif.com/" style="fill-rule:evenodd;clip-rule:evenodd;stroke-linecap:round;stroke-linejoin:round;stroke-miterlimit:1.5;"><rect id="Artboard1" x="0" y="0" width="1030.91" height="1138.53" style="fill:none;"/><path d="M1020.51,109.834c0,-55.69 -45.213,-100.903 -100.903,-100.903l-807.224,-0c-55.69,-0 -100.903,45.213 -100.903,100.903l0,917.747c0,55.69 45.213,100.903 100.903,100.903l807.224,0c55.69,0 100.903,-45.213 100.903,-100.903l0,-917.747Z" style="fill:none;stroke:#43e2a3;stroke-width:12.41px;"/><g><circle cx="509.112" cy="511.802" r="221.729" style="fill:#ff9499;"/><path id="tree" d="M282.14,811.73c41.664,-17.499 54.224,-2.024 64.925,-9.07c29.116,-19.171 43.487,-9.928 52.274,-11.935c10.878,-2.484 6.687,-17.983 53.229,-8.354c5.493,7.955 23.118,13.235 26.495,18.857c8.387,13.96 19.882,23.776 35.088,28.643c17.682,8.445 34.379,17.617 62.777,18.141c4.439,-1.366 7.445,-3.282 5.968,-6.922c-0.122,-5.246 -35.279,-14.385 -37.953,-21.96c-6.257,-16.951 -10.147,-25.486 -13.128,-30.792c-0.752,-2.161 0.564,-2.668 2.864,-2.387c7.703,4.89 11.56,10.416 59.913,8.593c13.388,-0.651 26.824,-0.43 40.578,5.49c13.118,2.808 26.834,4.297 41.771,3.103c10.754,1.005 6.223,-10.973 2.626,-11.219c-42.01,-2.867 -84.021,-16.182 -126.031,-37.236c-4.498,-3.803 -6.364,-7.167 -1.369,-9.388c28.83,-0.3 23.434,-13.716 70.759,-7.224c-24.115,-23.298 -73.05,-6.776 -101.852,-9.644c-3.16,0.125 -6.968,-4.069 -11.219,-11.219c0.423,-5.876 -5.01,-19.044 -23.869,-48.932c-3.637,-5.763 -10.382,-14.514 -14.083,-26.734c-1.069,-13.954 5.305,-21.92 25.062,-25.779c16.682,-5.548 17.759,-11.849 27.178,-15.447c22.207,-8.485 43.194,-10.383 59.946,-7.229c17.062,-0.761 32.064,-3.581 44.397,-9.071c9.719,-4.957 12.492,-7.773 6.206,-7.638c-37.769,1.759 -79.612,-0.846 -105.98,13.128l-4.535,-0.716c2.917,-1.11 5.899,-2.615 9.547,-8.115c3.801,-10.071 3.622,-19.664 -1.67,-28.644c-5.311,-9.146 -7.54,-18.485 -31.031,-26.495c-45.16,-9.167 -84.536,-21.069 -82.588,-52.513l-11.457,0.239c4.762,21.449 0.89,45.832 46.306,53.468l2.865,2.387c-26.414,-2.021 -48.311,-0.204 -60.867,9.547l1.909,4.297c18.548,-10.642 14.18,0.485 29.121,-1.432c0.965,-0.049 2.803,-0.662 3.252,-1.717c3.682,-8.646 16.813,-8.68 31.597,-7.354c10.904,0.181 22.891,1.241 42.169,8.225c2.879,1.534 4.802,4.843 6.802,6.04c6.319,3.781 9.002,4.027 8.793,5.308c-0.608,12.094 -3.123,21.851 -11.822,24.028l-12.15,6.026c-4.482,-1.043 -23.467,11.223 -30.45,11.957c-36.827,20.311 -54.724,46.747 -56.093,78.53c1.415,11.044 4.52,21.941 11.935,32.463c10.118,10.418 21.136,20.3 16.708,39.384c-15.111,9.015 -22.364,17.401 -31.985,19.334c-11.158,1.589 -26.627,6.282 -53.706,19.335c-23.715,0.896 -46.78,10.561 -69.222,28.643Z" style="fill:#c763e5;"/><path d="M463.359,707.141c-0.864,-3.219 1.009,-4.281 5.617,-3.188c2.787,4.863 6.069,9.012 11.848,9.554c8.365,-0.952 12.718,0.815 15.936,3.351c2.675,1.203 3.775,0.044 3.796,-2.733c2.352,-14.458 -4.224,-22.891 -18.067,-26.418c-1.423,-1.048 -1.65,-1.544 1.614,-2.728c1.739,0.184 3.678,-0.065 5.825,-0.763c-19.266,-32.872 -24.194,-43.258 -24.444,-46.307l3.948,-10.628c5.692,-9.785 15.652,-12.299 27.177,-12.146c-10.357,2.717 -20.578,7.349 -22.926,13.745c-1.402,3.818 -3.763,7.918 1.215,18.746l18.978,33.249c7.2,13.007 16.42,26.907 15.974,36.535c-1.808,5.682 -0.683,12.68 9.988,29.509l9.565,14.12c5.89,1.772 11.82,3.669 19.889,12.146c5.248,1.411 10.061,4.129 13.816,10.02c3.897,3.593 12.497,5.206 28.998,3.492c8.059,-1.753 15.396,-1.488 22.622,-0.911c8.766,1.339 16.619,4.013 23.229,8.502c11.475,2.008 21.633,4.264 42.208,4.555c1.621,0.742 2.384,1.769 1.518,3.34c-7.93,1.32 -17.283,1.623 -28.695,0.456c-6.714,-0.607 -13.683,-1.762 -21.559,-4.859c-8.632,-2.817 -18.686,-4.643 -32.794,-3.643c-25.492,0.918 -36.865,0.198 -43.766,-1.041c-4.613,1.1 -12.411,-2.817 -19.849,-6.702c-3.62,-1.911 -3.534,-1.149 -2.676,3.076c-5.474,-6.698 -6.693,-22.16 -17.517,-30.101c-0.857,-11.112 -4.551,-21.686 -15.03,-30.972c-1.825,4.227 -3.888,6.792 -6.377,6.376c1.14,1.23 0.825,2.043 -1.518,2.278c-2.015,2.778 -3.92,2.472 -5.769,0.607c-6.226,-2.405 -11.87,-6.357 -16.104,-14.07c-1.073,-2.665 0.058,-2.638 -6.67,-16.447Z" style="fill:#ba43e2;"/><path d="M618.393,737.198c-11.178,-2.113 -23.471,-3.454 -38.158,-3.138c-10.27,0.196 -23.436,0.586 -31.884,6.073c-1.586,1.207 -2.984,2.747 -2.125,8.3c0.672,3.33 2.6,4.329 5.162,4.15c-0.864,-0.509 -1.785,-0.811 -1.822,-4.352c0.114,-2.008 0.999,-2.986 2.733,-2.834c7.728,0.029 16.833,-1.615 28.34,-6.175c13.098,-3.754 25.47,-3.151 37.754,-2.024Z" style="fill:#ba43e2;"/><path d="M746.797,497.427c3.772,-0.39 -2.431,13.981 -11.672,14.638c-3.856,0.275 -2.401,-5.941 -9.804,-8.311c-7.141,1.81 -12.441,-0.878 -17.478,-4.208c-4.38,5.937 -17.092,11.161 -26.593,10.347c-7.062,-2.716 -5.636,-2.053 -11.766,-0.811l-12.575,4.049c-2.691,1.602 -7.843,1.312 -16.587,-1.741c-1.351,3.353 -6.109,5.929 -8.72,4.096c0,-0 -2.725,-2.637 -7.087,-2.781c-3.089,1.434 -7.207,2.544 -5.62,7.952c-0.174,3.675 -9.981,9.265 -14.839,7.819c-6.118,-1.409 -11.772,-1.058 -15.558,6.393c-2.479,4.686 -8.168,5.479 -18.328,0.853c-13.901,5.405 -22.458,4.644 -27.28,-0.427c-9.944,-2.963 -14.19,1.011 -13.426,11.083l-12.148,-10.869c3.537,0.179 4.656,-1.565 3.771,-4.878c-0.681,-2.546 -4.769,-6.564 -13.362,-10.68c-4.081,-2.23 -2.489,-3.839 2.132,-5.115c4.7,-0.852 8.408,-0.303 11.082,1.705c-0.001,-4.294 0.376,-8.402 12.361,-6.82c4.297,1.39 8.51,0.614 12.574,-4.049c5.688,-3.629 11.709,-5.175 18.328,-2.984c2.41,-2.912 3.478,-5.591 18.329,-10.656c6.176,-6.411 13.124,-12.248 27.492,-12.574c7.236,-1.402 14.378,-3.27 22.804,1.279c4.503,2.081 8.757,4.36 19.181,1.705c5.84,-4.421 12.136,-6.369 19.607,-1.705c3.202,3.755 7.461,5.548 15.558,0.213c5.772,0.269 11.51,1.374 17.049,7.246c4.976,-0.432 10.244,-0.46 18.968,4.262c6.818,5.727 14.926,6.46 23.607,4.969Zm-198.864,20.156c0.22,1.013 0.672,1.716 1.967,1.296c1.974,0.358 2.391,-0.7 1.743,-2.726c-2.228,-0.358 -3.747,-0.119 -3.71,1.43Zm38.527,-10.995c1.36,-0.213 1.41,-1.112 0.268,-2.637c-2.485,-0.817 -4.639,-0.828 -5.453,2.414c0.328,1.215 1.043,2.078 2.682,2.101c1.259,0.435 2.197,0.07 2.503,-1.878Zm54.751,-12.291c1.284,4.003 3.308,6.806 6.078,8.403c2.77,1.596 6.284,1.986 10.548,1.162c-0.911,-7.335 -5.465,-11.408 -16.626,-9.565Zm-52.025,6.079c-0.569,-3.008 0.525,-4.993 4.604,-5.14c3.002,0.016 5.49,0.892 6.704,3.888c0.381,1.293 0.268,2.435 -2.458,2.771c-5.862,0.823 -8.47,0.161 -8.85,-1.519Z" style="fill:#97f7cc;"/><path d="M191.11,598.842c-5.517,9.341 -4.373,14.243 3.751,14.492c9.118,-4.9 14.352,-4.25 15.515,2.216c0.381,1.671 3.129,0.778 6.867,-1.187c10.246,-7.399 14.999,-7.015 13.502,2.224c0.787,1.065 1.633,1.313 2.559,0.421c7.55,-5.453 16.564,-12.471 15.76,4.251c-0.067,1.389 4.58,1.57 5.209,-0.713c3.205,-11.617 15.092,-12.542 17.594,0.513c2.882,1.551 6.029,1.221 7.512,-0.028c3.127,-3.406 -0.307,-3.879 5.511,-3.998c2.521,-1.477 4.522,-3.392 4.247,-5.707c-2.21,-3.888 -2.557,-4.431 -2.809,-8.038c3.327,-3.33 6.655,-2.316 9.982,1.485c2.199,2.665 4.576,1.868 7.194,-0.361c0.51,-3.643 1.86,-5.791 5.167,-6.917c4.277,0.355 6.958,4.679 7.46,11.327c1.055,1.528 2.74,0.751 3.178,-0.167c2.454,-5.153 11.388,-8.41 17.281,-4.948c5.896,2.442 11.793,2.414 17.689,-0.426c8.979,-1.11 13.699,1.431 16.837,5.328c3.611,2.476 2.635,-0.593 -0.427,-6.181c15.684,-6.234 25.133,-2.336 34.1,2.345c1.714,4.139 3.845,5.915 6.393,5.328c5.083,0.465 7.909,-1.327 9.377,-4.476c-1.549,-6.557 -7.851,-8.743 -14.7,-12.511c2.396,-8.05 0.203,-14.4 -4.907,-19.67c39.746,4.572 55.478,3.768 57.969,-0c3.095,-0.021 1.202,-2.6 3.185,-7.904c-32.194,-7.074 -30.228,-12.49 -53.481,-16.179c-2.437,-0.775 -2.289,-2.31 -0,-4.475c0.959,-5.556 -7.56,-6.033 -14.706,-7.246c10.023,-1.075 13.607,-3.966 12.788,-8.099c12.904,-3.078 -0.098,-8.707 -7.775,-14.605c1.568,-3.555 -0,-5.738 -2.881,-7.346c-2.202,0.671 -4.569,0.518 -7.471,-2.309c-1.507,1.611 -3.251,1.959 -5.178,1.333c-1.665,4.194 -3.754,3.021 -5.844,1.837c-1.681,5.083 -8.443,-0.169 -17.256,-6.272c-2.868,1.565 -8.398,-1.97 -9.954,0.602c-2.131,3.522 -6.673,3.918 -10.512,2.544c-2.636,-2.823 -6.182,-6.461 -10.531,-8.909c-0.802,2.529 -6.584,-1.024 -7.648,0.559c-2.287,3.399 -5.245,4.375 -9.162,1.889l-4.463,-1.291c-4.943,6.281 -10.152,5.135 -15.377,3.527c-4.46,0.463 -5.386,1.96 -6.475,4.109c3.717,2.536 5.848,4.617 1.997,9.146c-2.14,2.886 -1.822,5.281 -0.466,7.468c2.15,3.502 -7.567,5.499 -9.496,5.825c-2.206,0.373 -28.457,2.839 -31.257,0.092c-3.867,-1.812 -7.037,-2.462 -10.063,-2.872c-4.151,-1.002 -4.592,4.382 -9.478,4.8l-3.329,-2.488c-1.217,-1.936 -4.872,-2.491 -6.369,-0.18l-5.029,5.927c-2.722,4.157 -17.013,3.859 -28.481,3.434l-10.823,4.851c-3.232,1.796 -6.358,0.999 -6.226,6.018c1.196,2.491 3.26,4.259 6.973,4.652c4.44,-0.32 9.981,-3.57 11.7,3.913l2.882,-0.092c5.063,-3.071 5.381,-8.224 10.59,0.95l2.979,0.174c13.493,-10.954 17.164,-11.981 13.041,-0.006c13.996,-0.72 15.553,-10.423 18.579,-0l1.667,-0c5.561,-2.854 11.181,-5.515 12.047,5.737c0.046,0.598 0.915,-0.134 1.104,0.521c3.094,0.564 5.633,-0.706 7.309,3.119c-2.197,2.299 -1.605,3.572 -5.718,4.121c-5.445,0.728 -10.674,6.649 -11.119,9.945c-1.113,3.599 -4.083,4.346 -15.279,2.87c-5.176,-0.682 -9.03,7.983 -14.558,11.409c-5.001,3.099 -14.228,-1.022 -18.247,4.299Z" style="fill:#97f7cc;"/><path d="M278.408,473.917c0.175,3.026 3.174,2.915 7.353,1.492c4.25,-1.002 7.106,-0.843 7.353,1.492c4.901,4.23 9.803,2.729 14.705,-6.607c0.885,1.956 3.155,3.008 4.265,4.88c1.551,2.618 2.188,5.964 5.538,7.907c0.545,1.397 1.571,0.865 2.783,-0.408c3.944,-3.447 5.874,-3.821 5.592,-0.819c1.932,2.102 3.483,0.963 4.969,-0.728c6.928,-4.991 8.283,-12.345 24.317,-4.262c3.44,1.809 5.721,1.008 7.382,-1.187c7.514,-15.408 11.632,-11.614 17.357,0.86c1.437,5.608 15.767,2.95 13.258,-3.259l7.367,0.945c3.488,0.847 5.642,2.241 8.017,-0.248c3.036,-3.18 8.656,-1.407 12.535,-2.402c2.711,1.117 4.952,2.745 10.443,0.852c8.2,-6.499 16.167,-9.012 23.656,-3.41c2.417,5.215 2.385,7.864 1.066,9.164c14.909,3.964 12.108,6.876 5.967,9.591c-10.976,-0.969 -15.933,2.243 -20.46,5.754c-5.291,1.448 -8.208,5.516 -5.848,9.633c4.081,1.428 8.578,1.611 13.728,-0.164c1.5,2.835 4.043,3.758 7.678,2.679c3.092,1.708 6.989,2.464 12.038,1.859c1.265,4.06 2.786,5.988 4.586,5.6c4.032,1.683 7.017,1.592 8.737,-0.639c1.425,-2.281 2.168,-5.139 1.279,-9.378c3.818,-2.805 6.522,-1.894 8.738,0.64c4.431,1.251 6.412,0.273 10.665,-3.103c8.27,-5.327 16.691,-5.521 25.139,-4.783c4.75,-7.326 15.692,-7.542 30.05,-3.836c3.453,-0.577 4.159,-1.977 4.049,-3.623c-3.395,-1.284 -6.843,-3.008 -3.465,-6.966c13.211,0.241 23.218,-4.657 35.647,-3.264c7.888,-3.12 8.974,-7.034 15.003,-13.873c4.863,-5.398 10.5,-5.717 16.965,-0.619c3.076,3.279 9.055,3.53 11.953,0.76c13,-8.963 22.998,-14.103 35.999,-13.121c7.834,-0.947 9.829,6.737 18.115,3.197c0.425,6.523 2.073,10.803 5.701,11.455c9.068,-6.291 17.503,-4.937 21.346,0.537c2.758,2.528 6.283,1.642 10.641,-2.947c6.08,-8.424 8.954,-5.195 13.963,-0.759c9.434,-1.253 13.961,-4.622 9.898,-10.137c-1.31,-3.258 0.561,-4.558 3.879,-4.969c6.892,0.438 7.783,-2.44 7.885,-5.754c2.835,-3.805 0.768,-6.11 -5.115,-7.246c-7.701,6.934 -12.66,5.842 -15.558,-1.279c0.601,-2.176 3.159,-3.863 6.607,-5.328c1.519,-2.075 -0.731,-2.62 -7.759,-1.847c-3.951,-0.555 -5.347,-3.221 -5.206,-7.156c-0.559,-0.954 -2.699,-0.033 -6.994,-0.098c0.45,-4.26 -9.102,-2.19 -17.459,-2.496c-9.732,-10.289 -16.877,-7.802 -23.747,-3.961c-4.309,-4.502 -8.321,-2.856 -14.943,1.894c-11.181,4.965 -18.75,3.818 -22.993,-2.959c-3.505,-0.774 -4.792,0.036 -4.562,1.931c0.385,9.234 -3.43,14.607 -6.603,13.165c-8.172,-0.555 -15.818,2.39 -23.812,4.327c-5.587,-0.104 -6.813,-4.024 -8.073,-7.915c-3.864,-0.494 -5.555,1.057 -6.394,3.41c1.983,6.947 -2.81,11.462 -14.705,13.427c-3.045,0.79 -5.932,0.162 -8.443,-3.853c-3.993,-1.403 -7.985,-1.073 -11.977,0.726c-0.473,-4.076 -3.895,-9.224 -8.489,-8.213c-3.682,0.811 -8.13,-8.73 -14.162,-8.842c-0.234,-0.255 -1.779,-1.126 -3.185,0.411c-3.497,3.823 -6.7,5.544 -9.177,4.844c-9.022,-3.646 -3.678,-7.031 -10.61,-7.275c-6.435,0.32 -11.825,0.926 -7.171,4.287c2.887,8.659 -6.789,10.845 -19.81,12.533c-2.702,2.993 -3.951,7.429 -2.027,12.202c-3.366,1.519 -6.569,3.633 -9.4,7.11c-12.971,3.403 -21,-1.392 -23.325,-5.207c-1.428,-1.326 -3.652,-1.567 -7.037,-0.224c-13.504,3.507 -22.093,3.863 -21.007,-0.28c2,-3.703 -0.009,-5.918 -0.866,-9.442c-2.355,-1.973 -5.684,-1.611 -9.818,0.686c0.186,-4.405 -2.181,-4.98 -5.91,-3.513c1.962,-4.163 -0.525,-6.437 -7.459,-6.819c-6.208,2.522 -12.061,4.257 -10.869,-9.591c-2.079,-0.888 -4.061,-2.014 -7.728,0.955c-2.164,1.687 -3.564,3.668 -2.835,6.467c-4.872,2.784 -9.134,1.629 -11.548,-0.28c-5.456,-0.242 -7.77,-2.929 -9.218,-6.289c-0.972,-2.005 -0.145,-3.817 -10.535,3.372c2.055,1.905 1.019,6.71 4.805,6.728c4.204,0.019 6.487,2.076 7.009,6.31c-6.05,11.24 -21.906,14.775 -44.78,12.796c-1.349,-0.117 -1.47,-1.837 -4.118,-0.407l-2.742,5.569l-8.553,-1.937c-4.581,1.725 -8.28,2.093 -9.525,6.042c-7.175,-0.085 -10.102,2.579 -13.399,5.003c-4.663,2.918 -8.649,5.971 -6.607,10.23Z" style="fill:#97f7cc;"/><path d="M536.611,559.82c10.711,0.243 20.556,-2.04 29.837,-5.968c5.071,-3.426 7.117,-5.483 11.473,-10.339c2.522,-3.007 13.184,-0.431 19.855,-3.3c3.777,-8.694 8.468,-13.098 15.345,-7.247c6.813,-8.573 13.553,-9.669 20.246,-5.967c16.378,-9.954 16.341,-9.781 34.313,-7.459c13.995,-9.058 24.921,-9.814 33.673,-4.689c14.598,-9.712 26.138,-8.666 34.896,1.049c8.378,-2.125 16.554,-1.085 25.767,0.485c4.239,0.722 2.265,-9.072 10.305,-0.681c2.279,1.288 4.191,1.052 5.755,-0.64c3.525,-3.601 6.171,-0.608 8.738,2.984c10.948,12.328 18.617,13.606 24.082,7.459c8.369,-6.971 14.521,-8.422 17.05,-0.852c-0.08,5.367 2.613,7.129 9.088,4.63c4.693,-1.128 7.628,-0.214 8.388,2.829c1.707,7.125 7.456,9.176 20.008,6.885c4.383,-0.732 8.697,1.595 10.1,5.631c3.99,7.18 8.493,13.052 13.794,16.895c3.271,2.628 2.501,5.257 -0.426,7.885c-6.284,3.085 -0.671,9.009 -18.115,20.886c-3.606,2.377 -5.692,5.313 -7.033,8.525c-0.908,2.067 -2.445,2.342 -4.902,-0c-1.294,-3.69 -3.481,-2.914 -5.967,-0.64c-0.783,4.167 -3.415,4.046 -6.82,2.131c-1.635,-1.779 -3.016,-2.568 -4.192,-2.561c-1.665,0.011 -2.92,1.617 -3.907,4.266c-3.6,4.519 -5.704,3.451 -8.112,-0.855c2.94,-8.899 -16.041,-15.337 -15.544,-2.768c0.838,7.432 -9.885,0.601 -12.787,-3.623c0.682,-4.703 -1.141,-6.797 -6.181,-5.541c-5.974,-6.24 -9.939,-7.297 -13.639,-7.672c2.256,15.017 23.252,38.36 52.001,31.329c7.9,-1.471 14.022,-1.115 13.853,1.918c-0.821,14.738 14.372,6.547 8.738,26.426c-7.208,5.83 -19.799,7.543 -34.739,7.46c-1.297,-0.133 -2.095,0.688 -2.344,2.557c4.778,4.537 2.477,5.168 -1.066,5.115c-9.065,0.672 -13.868,2.765 -14.066,6.394c-2.637,2.592 -6.863,2.483 -12.361,0.213c-5.309,-5.843 -10.556,-5 -15.77,-0.64c-4.773,4.68 -6.014,3.293 -6.394,0.427c-3.128,-1.923 -5.991,0.271 -8.738,4.262c-6.612,1.188 -8.285,-0.918 -7.459,-4.689c2.231,-2.749 3.732,-5.422 3.197,-7.885c-0.146,-1.016 -1.665,-1.453 -3.623,-1.705c-8.725,0.883 -14.371,-3.717 -19.181,-9.804c-1.367,-1.971 -3.292,-2.027 -5.328,-1.705c-7.362,4.374 -16.586,-4.783 -21.099,5.968c-3.318,4.521 -6.98,4.503 -10.869,1.492c-3.382,-1.862 -0.262,-7.437 -4.354,-8.429c-5.813,-1.41 -7.534,-8.242 -12.056,-7.982c-8.814,-4.253 -16.809,-4.989 -22.378,4.689c-1.983,6.668 -1.808,10.511 0.213,11.935c3.272,3.581 -0.808,3.769 -7.459,2.77l-18.542,-4.262c-6.169,1.984 -12.545,2.727 -19.18,1.918c-7.123,1.743 -11.698,-1.61 -15.558,-6.394c-5.528,-3.665 -3.691,-5.889 1.492,-7.459c2.765,-1.688 3.025,-4.003 2.983,-6.393c-2.778,-4.597 11.7,-3.441 24.083,-2.984c4.136,-6.662 7.471,-9.002 10.443,-9.377c1.99,-2.798 1,-3.292 -2.131,-2.132c-15.409,1.4 -25.217,0.726 -34.313,-0.213c-14.971,9.824 -25.802,12.862 -32.394,8.951c-3.35,-9.6 2.301,-13.256 11.295,-14.705c14.599,-3.915 18.513,-8.579 19.821,-13.426c5.164,-0.202 10.11,-0.811 13.639,-4.05c7.952,0.09 14.41,-3.259 20.034,-8.525l5.754,-6.606c9.863,2.449 15.662,0.157 18.541,-5.541c-5.779,-0.831 -7.851,-0.955 -8.738,-0.853c16.378,-12.987 15.194,-17.088 12.148,-20.246c-6.938,-9.225 -12.439,-7.229 -17.049,1.705c-4.318,0.638 -7.221,2.568 -6.181,8.098c-6.548,6.511 -12.675,3.976 -18.754,0.427c-0.836,-6.788 -3.828,-9.442 -7.46,-10.87c-4.191,-1.793 -8.382,0.99 -12.574,6.181c-3.978,2.492 -6.255,0.81 -7.672,-2.984c-0.676,-6.419 -4.626,-4.158 -10.656,3.623c1.059,2.808 3.334,5.697 7.885,8.738l-13.426,0l-7.673,-5.328l-4.262,0.213c-1.894,4.097 -4.64,6.49 -7.672,8.312c-12.148,2.557 -18.044,-0 -17.689,-7.672Z" style="fill:#97f7cc;"/><g><path d="M209.404,192.838c4.443,-5.485 7.332,-8.992 8.666,-10.522c6.595,-8.289 10.945,-17.26 13.049,-26.915c2.104,-9.654 3.184,-16.867 3.24,-21.637l52.563,23.715c-2.998,5.159 -8.236,12.657 -15.713,22.495c-7.478,9.838 -15.924,18.242 -25.339,25.212c-4.461,3.17 -9.244,6.015 -14.348,8.534c-3.165,1.563 -5.562,2.649 -7.189,3.259c3.192,5.491 6.171,11.038 8.938,16.643c2.075,4.203 3.508,7.271 4.301,9.203l53.462,-44.54c1.046,3.259 2.453,7.575 4.221,12.946c1.767,5.371 4.218,12.535 7.353,21.491c3.135,8.956 5.106,14.251 5.913,15.886c-0.153,-0.312 -6.512,1.375 -19.076,5.059c-12.563,3.685 -27.11,8.154 -43.639,13.409c3.909,14.43 6.106,28.036 6.589,40.818c0.484,12.781 -0.086,23.59 -1.711,32.426c-1.624,8.837 -3.263,15.406 -4.916,19.707c-1.653,4.301 -2.928,7.253 -3.823,8.857c-0.867,-3.057 -2.486,-8.332 -4.859,-15.825c-2.373,-7.493 -5.735,-16.99 -10.086,-28.492c-4.352,-11.501 -9.178,-22.623 -14.481,-33.365c-1.306,-2.647 -2.379,-4.779 -3.218,-6.398c-0.839,-1.619 -1.752,-3.346 -2.739,-5.182c-4.286,1.244 -7.876,2.314 -10.769,3.21c-2.892,0.895 -5.268,1.656 -7.128,2.284c-1.859,0.627 -3.099,1.046 -3.719,1.255l17.231,-14.168c-1.641,-2.675 -4.002,-6.156 -7.083,-10.444c-4.21,-5.763 -12.048,-14.479 -23.512,-26.148c-2.325,0.663 -4.206,1.205 -5.646,1.625c-1.44,0.42 -2.454,0.727 -3.041,0.92c-0.588,0.194 -1.03,0.315 -1.327,0.365c0.646,-0.319 2.969,-2.288 6.967,-5.908c-4.628,-4.492 -8.861,-8.428 -12.699,-11.81c-3.838,-3.381 -6.568,-5.736 -8.188,-7.066l38.308,-54.485c1.824,2.392 5.046,6.803 9.666,13.235c4.621,6.431 9.215,13.215 13.782,20.351Z" style="fill:#d689fe;fill-rule:nonzero;"/><path d="M420.817,258.185c12.049,-23.757 19.77,-43.87 23.163,-60.339c1.145,-6.423 1.643,-15.153 1.495,-26.189c-0.147,-11.037 -0.666,-22.62 -1.557,-34.751c-0.89,-12.131 -1.679,-21.651 -2.366,-28.563c-0.688,-6.911 -1.22,-12.005 -1.598,-15.282l65.252,5.852c-0.325,5.98 -1.133,15.641 -2.423,28.984c-1.289,13.343 -3.609,28.595 -6.959,45.758c-3.35,17.163 -7.738,30.819 -13.164,40.969c-7.318,13.862 -15.863,26.359 -25.633,37.489c-9.771,11.131 -18.952,20.14 -27.544,27.028c-8.593,6.888 -15.752,12.06 -21.477,15.515c-5.726,3.456 -9.72,5.751 -11.981,6.886c0.358,-0.042 4.599,-6.953 12.723,-20.733l-38.086,22.344c-1.666,-5.663 -4.003,-14.94 -7.011,-27.831c-3.007,-12.892 -5.346,-26.581 -7.015,-41.069c-1.271,-11.038 -1.764,-21.292 -1.478,-30.762c0.453,-16.829 2.634,-32.503 6.542,-47.021c3.908,-14.519 8.366,-26.785 13.373,-36.798c5.007,-10.014 9.211,-17.402 12.612,-22.162c3.402,-4.761 5.907,-8.021 7.517,-9.779c-0.544,4.082 -1.226,11.064 -2.045,20.945c-0.818,9.88 -1.359,22.329 -1.622,37.345c-0.263,15.016 0.336,28.862 1.796,41.538c0.874,7.589 2.143,14.521 3.808,20.795c3.145,12.832 11.038,29.442 23.678,49.831Z" style="fill:#d689fe;fill-rule:nonzero;"/><path d="M597.473,189.289c-2.448,16.048 -1.471,30.928 2.933,44.64c4.404,13.711 10.219,25.414 17.445,35.107c7.226,9.692 13.749,17.134 19.569,22.326c5.82,5.191 10.038,8.708 12.653,10.551c-5.117,-0.851 -13.265,-3.019 -24.445,-6.506c-11.179,-3.486 -23.965,-9.725 -38.356,-18.717c-14.39,-8.992 -26.176,-21.686 -35.355,-38.084c-9.179,-16.397 -11.819,-36.327 -7.919,-59.79c5.11,-30.741 18.658,-52.38 40.645,-64.917c21.987,-12.536 43.073,-19.217 63.258,-20.041c20.186,-0.825 35.084,-0.482 44.693,1.027c-3.384,0.581 -9.031,2.151 -16.942,4.707c-7.912,2.557 -17.394,7.207 -28.448,13.949c-11.054,6.742 -21.33,16.386 -30.828,28.93c-9.499,12.545 -15.8,28.151 -18.903,46.818Z" style="fill:#d689fe;fill-rule:nonzero;"/><path d="M794.671,243.365c12.7,18.833 20.369,32.582 23.006,41.247c3.806,12.018 5.762,26.654 5.867,43.908c0.105,17.255 -0.155,30.391 -0.778,39.409l-54.15,-11.579c1.067,-6.874 2.408,-17.456 4.022,-31.747c1.614,-14.29 2.374,-26.994 2.279,-38.112c-0.104,-12.42 -1.698,-26.378 -4.781,-41.874c-1.154,-0.154 -2.656,-0.204 -4.506,-0.152c-7.123,7.342 -15.432,14.365 -24.924,21.068c-9.493,6.702 -19.165,12.88 -29.016,18.533c-9.852,5.653 -17.584,9.86 -23.198,12.622c-5.613,2.763 -9.644,4.699 -12.091,5.81c3.991,-4.725 10.121,-12.579 18.389,-23.561c8.269,-10.983 16.516,-23.173 24.742,-36.572c-8.631,-0.686 -14.459,-1.135 -17.483,-1.347c-3.025,-0.212 -5.398,-0.405 -7.119,-0.58c2.083,-0.319 5.929,-1.013 11.539,-2.083c5.609,-1.07 11.457,-2.379 17.543,-3.927c6.615,-11.717 11.452,-22.045 14.513,-30.983c3.702,-10.37 6.62,-22.28 8.752,-35.729c2.132,-13.45 3.532,-23.625 4.201,-30.524l69.672,6.287c-2.086,5.601 -5.692,14.406 -10.816,26.415c-5.125,12.01 -11.443,24.666 -18.954,37.971l-3.776,6.689c0.612,-0.352 1.514,-0.814 2.707,-1.387c1.192,-0.573 2.305,-1.116 3.339,-1.629c7.409,-3.891 14.913,-9.05 22.513,-15.476c7.599,-6.426 13.9,-12.239 18.904,-17.439c5.003,-5.199 8.482,-8.943 10.435,-11.229l35.632,39.105c-6.51,4.498 -16.439,10.581 -29.786,18.248c-13.346,7.667 -26.243,13.071 -38.689,16.213c-4.719,1.323 -10.715,2.125 -17.988,2.405Z" style="fill:#d689fe;fill-rule:nonzero;"/></g><g><path d="M234.021,890.923c-4.479,-4.964 -8.294,-9.772 -11.445,-14.424c-3.15,-4.652 -5.839,-9.672 -8.066,-15.061c-6.544,-16.533 -9.515,-31.361 -8.914,-44.484c0.601,-13.124 1.719,-22.402 3.355,-27.835c1.014,2.727 3.025,7.569 6.033,14.526c3.008,6.957 7.261,15.408 12.76,25.355c5.498,9.946 11.856,19.635 19.074,29.066c5.736,7.503 13.049,14.161 21.937,19.974c9.953,-4.749 19.606,-9.816 28.959,-15.201c9.354,-5.384 16.947,-9.957 22.779,-13.717c5.832,-3.761 9.91,-6.429 12.234,-8.006c-1.1,1.816 -3.231,5.075 -6.392,9.777c-3.161,4.702 -7.597,10.74 -13.308,18.115c-5.711,7.374 -11.926,14.512 -18.643,21.415c4.363,1.456 8.253,2.531 11.67,3.225c3.417,0.695 5.76,1.1 7.028,1.218l-40.694,27.756c-0.847,-0.31 -3.861,-2.347 -9.041,-6.112c-6.508,4.414 -13.217,8.062 -20.126,10.944c-8.711,3.747 -18.871,6.792 -30.479,9.135c-11.607,2.343 -21.476,3.934 -29.607,4.775c-8.13,0.841 -13.983,1.37 -17.559,1.588l-16.96,-54.755c7.76,1.728 19.729,3.416 35.908,5.067c16.179,1.65 31.927,1.011 47.244,-1.917c1.104,-0.15 1.855,-0.292 2.253,-0.424Z" style="fill:#d689fe;fill-rule:nonzero;"/><path d="M382.559,938.301l78.005,3.475c-0.887,2.207 -2.316,5.681 -4.287,10.421c-1.97,4.74 -3.91,9.536 -5.82,14.388c-1.91,4.853 -3.082,8.298 -3.514,10.336c0.041,-0.191 -3.83,-1.512 -11.612,-3.962c-7.782,-2.45 -15.735,-4.886 -23.858,-7.309c-8.124,-2.422 -20.075,-5.973 -35.853,-10.652c-6.703,12.62 -15.162,23.437 -25.377,32.451c18.296,-2.441 32.386,-3.045 42.272,-1.812c6.956,0.81 15.569,2.305 25.84,4.485c8.587,1.822 16.059,3.557 22.418,5.206c6.359,1.649 11.828,3.142 16.408,4.48c4.58,1.338 7.699,2.249 9.357,2.734l-39.652,35.112c-0.774,-1.096 -2.456,-2.95 -5.046,-5.563c-2.591,-2.613 -6.678,-5.776 -12.263,-9.49c-5.585,-3.714 -12.309,-7.005 -20.17,-9.871c-5.201,-1.969 -10.078,-3.586 -14.631,-4.851c-4.553,-1.266 -9.799,-2.529 -15.737,-3.789c-6.66,-1.413 -15.287,-2.845 -25.881,-4.294c-5.922,3.402 -11.316,6.001 -16.183,7.797c-4.868,1.796 -8.272,2.92 -10.213,3.373c0.51,-0.823 1.39,-2.5 2.64,-5.03c1.249,-2.53 2.406,-5.113 3.468,-7.75c-4.95,-0.384 -8.763,-0.595 -11.438,-0.63c-2.676,-0.035 -4.563,-0.036 -5.66,-0.003c-0.241,-0.051 6.144,-1.491 19.156,-4.321c6.143,-13.538 10.681,-27.217 13.613,-41.037c0.487,-2.292 1.056,-5.765 1.708,-10.419c-4.586,-1.306 -8.715,-2.498 -12.386,-3.577c-3.67,-1.078 -6.395,-1.872 -8.173,-2.383c-1.779,-0.51 -3.022,-0.874 -3.731,-1.091l25.025,1.217c0.084,-1.979 0.078,-5.108 -0.02,-9.388c-0.27,-5.448 -2.044,-14.477 -5.322,-27.085c-2.581,-0.881 -4.673,-1.591 -6.278,-2.131c-1.604,-0.54 -2.741,-0.915 -3.409,-1.123c-0.669,-0.208 -1.157,-0.379 -1.464,-0.51c0.802,0.17 4.207,0.327 10.214,0.47c-1.461,-4.969 -2.907,-9.419 -4.337,-13.349c-1.43,-3.931 -2.478,-6.699 -3.143,-8.304l69.598,-7.294c0.223,2.11 0.463,5.722 0.72,10.834c0.257,5.113 0.284,11.109 0.082,17.987c4.135,-0.12 9.12,-0.494 14.955,-1.119c11.375,-1.047 21.095,-3.676 29.158,-7.889c8.064,-4.212 13.631,-7.623 16.7,-10.233l33.872,41.33c-6.051,1.245 -15.664,2.583 -28.839,4.013c-13.176,1.43 -26.346,1.548 -39.509,0.352c-6.154,-0.641 -12.4,-1.633 -18.739,-2.978c-3.932,-0.835 -6.848,-1.52 -8.746,-2.056c-0.506,4.751 -1.265,9.515 -2.278,14.291c-0.636,2.994 -1.182,5.174 -1.64,6.541Z" style="fill:#d689fe;fill-rule:nonzero;"/><path d="M578.829,892.706c0.424,0.071 0.788,0.152 1.09,0.24c0.303,0.089 0.797,0.216 1.483,0.382c10.402,2.08 22.872,2.091 37.411,0.035c13.239,-1.872 25.624,-4.66 37.155,-8.362c11.531,-3.702 19.8,-6.597 24.806,-8.686c-2.396,2.976 -7.145,7.62 -14.247,13.932c-7.102,6.312 -17.834,13.17 -32.196,20.575c-14.363,7.405 -31.047,12.452 -50.053,15.14c-6.435,0.778 -14.446,1.25 -24.032,1.419c2.847,6.071 8.712,10.932 17.596,14.581c10.999,-3.068 22.387,-5.434 34.164,-7.1c9.747,-1.379 18.946,-2.089 27.598,-2.13c8.652,-0.042 16.754,0.864 24.307,2.719c7.553,1.854 13.873,5.097 18.96,9.73c5.088,4.632 8.178,10.812 9.271,18.538c0.4,2.833 0.133,5.628 -0.802,8.388l12.571,6.294c-2.567,2.932 -7.1,7.494 -13.598,13.684c-6.498,6.19 -14.977,12.726 -25.437,19.608c-10.459,6.882 -20.977,11.302 -31.553,13.259c-2.094,0.428 -5.252,0.94 -9.476,1.537c-23.961,3.389 -45.414,3.272 -64.36,-0.353c-18.947,-3.624 -32.323,-6.964 -40.128,-10.019c1.643,-0.101 5.217,-0.458 10.722,-1.072c5.505,-0.615 9.801,-1.14 12.888,-1.577c14.376,-2.033 28.325,-4.744 41.847,-8.133c13.522,-3.39 24.933,-7.645 34.234,-12.765c5.764,-3.179 12.122,-7.425 19.075,-12.74c1.278,-3.265 1.681,-6.57 1.208,-9.916c-1.192,-8.429 -7.121,-14.908 -17.786,-19.437c-11.895,1.419 -23.682,2.429 -35.362,3.028c-11.68,0.6 -23.536,0.387 -35.57,-0.64c-12.034,-1.027 -22.208,-3.401 -30.522,-7.124c-8.314,-3.723 -12.977,-9.162 -13.989,-16.317c-0.83,-5.866 -0.298,-11.185 1.595,-15.957c1.894,-4.772 4.873,-8.892 8.94,-12.36l11.165,-22.981c-0.325,0.046 6.972,2.433 21.89,7.161c7.183,-1.936 14.876,-3.485 23.079,-4.645c10.234,-1.447 19.681,-2.307 28.342,-2.578c8.661,-0.272 14.864,-0.344 18.61,-0.216c-3.871,0.745 -9.756,2.333 -17.656,4.766c-7.899,2.432 -15.646,5.796 -23.24,10.092Zm5.664,51.472c9.057,2.532 19.535,3.977 31.432,4.332c-8.037,-2.348 -18.514,-3.792 -31.432,-4.332Z" style="fill:#d689fe;fill-rule:nonzero;"/><path d="M813.918,815.164l21.033,-29.348c-0.037,2.605 0.404,6.428 1.323,11.471c0.92,5.043 3.117,9.591 6.591,13.644c0.693,2.321 2.057,4.668 4.09,7.041c2.119,2.471 4.536,4.409 7.251,5.811c2.715,1.403 4.29,1.918 4.726,1.544c-0.127,-0.148 -6.015,4.642 -17.664,14.37c4.884,2.673 11.08,5.08 18.587,7.22c7.506,2.14 13.965,3.656 19.376,4.549c5.411,0.893 9.28,1.499 11.608,1.819l-41.432,65.484c-3.88,-2.762 -9.811,-7.475 -17.792,-14.139c-7.982,-6.664 -15.637,-14.272 -22.967,-22.823c-3.39,-3.955 -5.786,-7.003 -7.19,-9.144c-4.546,3.897 -11.389,9.591 -20.527,17.081c3.932,10.007 6.449,19.875 7.551,29.606c1.102,9.731 1.336,18.449 0.701,26.153c-0.635,7.704 -1.479,13.809 -2.534,18.314c-1.054,4.505 -1.845,7.584 -2.373,9.237c-1.027,-2.206 -2.923,-5.962 -5.687,-11.267c-2.765,-5.305 -6.62,-11.882 -11.567,-19.733c-4.946,-7.85 -10.343,-15.186 -16.19,-22.007l-2.479,-2.892c-5.025,4.221 -9.401,7.908 -13.128,11.06c-3.727,3.152 -6.275,5.315 -7.645,6.489l16.141,-22.196c-3.195,-3.35 -7.123,-6.672 -11.783,-9.965c-6.916,-4.791 -15.543,-9.058 -25.882,-12.801c-10.339,-3.742 -18.269,-6.377 -23.791,-7.903l43.315,-65.555c0.93,0.832 2.859,2.673 5.787,5.522c2.929,2.849 6.16,6.146 9.694,9.891c3.534,3.745 6.975,7.57 10.322,11.475c8.94,10.43 16.041,20.163 21.303,29.201l16.325,-22.739c-4.186,-10.304 -6.945,-20.265 -8.276,-29.886c-1.332,-9.62 -1.742,-18.165 -1.23,-25.635c0.512,-7.47 1.239,-13.302 2.181,-17.497c0.942,-4.195 1.667,-7.067 2.175,-8.617c0.94,1.852 2.653,5.079 5.138,9.68c2.485,4.601 6.046,10.488 10.682,17.662c4.636,7.173 9.382,13.781 14.237,19.823Z" style="fill:#d689fe;fill-rule:nonzero;"/></g><path id="a" d="M491.231,814.418c-4.776,-2.992 -7.966,-7.197 -11.486,-12.338c-3.686,-5.383 -21.088,-12.979 -27.474,-19.792c-23.014,-6.202 -38.6,-4.644 -47.366,5c-1.516,2.56 -3.427,3.073 -6.01,3.295c-17.309,1.487 -14.72,-8.577 -49.963,10.921c-5.935,3.284 -7.527,3.589 -15.245,2.655c-16.435,-1.418 -32.36,-0.434 -50.106,7.541c7.638,-6.202 15.456,-12.213 27.28,-14.008c10.533,-1.599 25.447,-1.686 38.203,-4.588c11.073,-2.519 24.294,-8.547 27.053,-11.942c6.921,-4.655 4.156,-1.209 22.399,-0.313c5.281,0.894 16.974,-8.627 20.725,-11.01c-3.116,-6.025 -0.598,-8.203 5.243,-8.11c7.972,-1.801 12.746,-0.403 17.203,1.311c-0.116,-1.624 1.017,-2.31 3.523,-1.967c-3.045,-2.523 -5.558,-8.772 -7.947,-15.892c3.044,-20.194 -9.323,-35.457 -17.949,-40.732c-10.119,-17.671 -13.646,-33.346 -7.446,-52.247c5.733,-20.062 19.781,-40.789 49.971,-56.935l17.194,-7.296l-6.482,8.402c-33.143,24.884 -40.007,58.158 -36.869,94.625c1.327,4.299 3.542,6.23 6.18,7.033c-0.578,5.015 0.296,8.689 2.558,11.083c1.474,3.333 4.238,4.824 7.246,5.967c9.953,16.059 20.09,23.641 30.263,29.624c0.881,0.819 0.871,1.935 -0.213,3.41c-1.734,0.531 -4.612,0.555 -8.312,0.213c-3.571,0.487 -0.481,4.306 3.41,8.524c0.998,3.281 1.373,9.182 1.279,17.05c1.038,7.805 3.639,9.425 5.935,12.721l5.147,10.296c3.792,7.254 8.53,9.777 13.213,12.574c27.576,-2.299 22.868,16.036 27.942,15.13c5.56,1.366 8.793,-7.215 9.738,-12.648c0.266,-1.529 0.351,-2.81 0.256,-3.548c2.075,5.45 -4.128,15.621 -2.707,16.92c1.839,-2.257 7.637,1.273 11.696,5.696c3.07,3.345 7.359,5.574 11.136,7.162c0.982,0.109 1.871,0.453 2.665,1.061c3.29,1.251 5.714,2.019 5.737,2.725c0.097,2.896 9.785,7.054 6.194,5.799c-27.358,-1.57 -39.247,-9.62 -60.96,-18.143c-12.774,-5.014 -27.155,-16.215 -24.529,-15.742c0.408,0.073 0.982,0.256 1.675,0.513c2.32,1.453 5.015,2.621 8.304,3.469l0,0c-2.934,-1.189 -6.177,-2.68 -8.304,-3.469Zm60.475,24.438l0.07,0.024c0.052,0.019 0.104,0.037 0.156,0.056l0.155,0.058l2.089,0.762c2.385,-1.172 4.482,-1.751 6.273,-1.551c0.928,0.39 1.825,0.741 2.665,1.061c1.198,0.916 2.179,2.434 2.933,4.659c2.122,2.408 -3.847,-1.057 -13.96,-4.931l-0.381,-0.138c-3.23,-1.125 -7.263,-1.195 -10.999,-2.699c-3.128,-1.26 -6.139,-3.108 -9.323,-4.72c7.31,-4.956 14.034,-6.216 18.501,6.755l1.821,0.664Zm-25.274,-9.561l-0.405,-0.177c-1.837,-15.065 -19.096,-16.872 -26.492,-11.231c1.436,0.582 2.798,1.091 3.919,1.41c3.965,1.126 7.216,3.528 11.896,5.101c3.733,1.254 7.588,3.706 11.082,4.897c0,-0 4.941,2.149 4.941,2.149l0.011,-0.007c-1.595,-0.808 -3.233,-1.557 -4.952,-2.142Zm-96.866,-181.787c0.416,7.957 1.171,15.387 -4.938,33.493c3.799,1.364 5.231,4.731 4.404,10.008c3.388,3.502 6.863,4.935 9.875,17.481c-1.929,3.081 -0.387,8.393 2.668,14.678c2.77,0.85 5.682,3.821 8.807,10.008c3.683,1.284 6.414,5.967 7.606,16.147c2.862,3.04 4.345,6.655 2.936,11.475c2.519,3.878 3.798,7.91 3.47,12.143c-3.843,2.05 -7.456,0.443 -10.943,-3.202c-9.418,-0.173 -10.019,-2.719 -0.934,-7.873c-2.772,-2.997 -3.633,-6.121 -1.067,-9.474c-0.373,-7.195 -2.519,-11.487 -6.806,-12.277c-0.333,-8.818 -1.934,-12.354 -4.403,-12.276c-3.01,-4.248 -3.975,-6.962 -4.137,-9.074c-3.24,-5.274 -2.651,-7.995 -1.601,-10.408c-5.496,-1.825 -7.892,-4.58 -6.272,-8.541c-7.032,-2.487 -7.049,-4.364 -5.871,-6.138c-5.958,-5.162 -6.854,-10.806 -5.338,-16.68c3.638,-5.555 4.192,-11.925 3.203,-18.548c4.762,0.061 7.427,-4.594 9.341,-10.942Z" style="fill:#ba43e2;"/></g></svg>