<?xml version="1.0" encoding="UTF-8" standalone="no"?><!DOCTYPE svg PUBLIC "-//W3C//DTD SVG 1.1//EN" "http://www.w3.org/Graphics/SVG/1.1/DTD/svg11.dtd">
<svg width="100%" height="100%" viewBox="0 0 2084 2084" version="1.1"
    xmlns="http://www.w3.org/2000/svg"
    xmlns:xlink="http://www.w3.org/1999/xlink" xml:space="preserve"
    xmlns:serif="http://www.serif.com/" style="fill-rule:evenodd;clip-rule:evenodd;stroke-linecap:round;stroke-linejoin:round;stroke-miterlimit:1.5;">
    <rect id="Artboard1" x="0" y="0" width="2083.33" height="2083.33" style="fill:none;"/>
        <style>
        g#lf {
            transform-origin: center;
            animation: 5s spn linear infinite;
        }
        path {
            transform-origin: center 50%;
            fill:none;
            stroke: #56ffca;
            stroke-width:4.17px;
            filter: drop-shadow(0 0 1em #56ffca);
        }
        path:nth-of-type(1) {
        }
        path:nth-of-type(2) {
            transform: rotateY(0.5deg);
            transform-box: border-box;
            animation: 3s go linear infinite;
        }
        path:nth-of-type(3) {
            transform: rotateY(-0.5deg);
            transform-box: border-box;
            animation: 5s go linear infinite;
        }
        @keyframes spn {
            50% {
                filter: drop-shadow(0 0 2em #56ffca);
            }
            100% {
                transform: rotate3d(0, 1, 0, 360deg);
            }
        }
    </style>
    <g id="lf">
        <path id="_3" serif:id="3" d="M1052.72,2005.51l0.712,-535.867c84.596,139.5 224.675,207.121 371.492,266c-60.283,-102.984 -144.758,-203.654 -290.921,-298.404c218.896,16.604 427.734,-41.709 630.329,-146.505c-171.096,-15.95 -321.95,-12.729 -448.5,13.505c139.625,-102.125 272.034,-248.171 396.45,-442.888c-320.341,125.113 -515.212,266.692 -616.071,420.608c117.384,-257.187 66.684,-568.554 -71.304,-908.05c-118.687,346.721 -157.116,661.396 -55.616,920.2c-122.779,-218.329 -360.854,-360.945 -648.154,-471.241c116.866,189.296 252.354,363.162 454.208,482.046c-141.313,-26.467 -293.813,-30.413 -456.346,-14.18c235.738,116.98 431.471,159.646 598.242,148.53c-127.517,78.662 -214.917,182.395 -288.071,295.029c58.387,-15.017 304.862,-123.075 377.133,-266l15.042,536.541l31.375,0.675Z" style="fill:none;stroke:#56ffca;stroke-width:17.38px;"/>
        <path id="_2" serif:id="2" d="M1050.45,2005.35l0.567,-552.308c67.208,105.608 178.487,156.8 295.129,201.375c-47.892,-77.967 -115.004,-154.175 -231.117,-225.909c173.896,12.571 339.804,-31.571 500.75,-110.908c-135.925,-12.071 -255.767,-9.633 -356.304,10.225c110.925,-77.313 216.117,-187.879 314.954,-335.283c-254.487,94.712 -409.3,201.895 -489.425,318.416c93.254,-194.704 52.975,-430.416 -56.646,-687.433c-94.287,262.483 -124.816,500.704 -44.183,696.633c-97.542,-165.287 -286.675,-273.254 -514.917,-356.75c92.842,143.304 200.479,274.929 360.838,364.925c-112.263,-20.033 -233.413,-23.021 -362.534,-10.733c187.28,88.558 342.771,120.858 475.263,112.441c-101.304,59.555 -170.738,138.084 -228.854,223.355c46.383,-11.371 242.191,-93.175 299.604,-201.375l11.95,552.82l24.925,0.509Z" style="fill:none;stroke:#56ffca;stroke-width:17.38px;"/>
        <path id="_1" serif:id="1" d="M1055.3,2006.02l0.879,-518.663c104.396,179.513 277.25,266.529 458.43,342.3c-74.392,-132.529 -178.638,-262.071 -359.001,-384.004c270.117,21.367 527.825,-53.671 777.83,-188.525c-211.138,-20.525 -397.292,-16.379 -553.455,17.375c172.3,-131.417 335.692,-319.354 489.221,-569.921c-395.3,160.996 -635.771,343.188 -760.229,541.25c144.85,-330.954 82.283,-731.633 -87.992,-1168.51c-146.458,446.171 -193.879,851.108 -68.629,1184.15c-151.512,-280.958 -445.3,-464.483 -799.825,-606.413c144.209,243.592 311.4,467.33 560.492,620.313c-174.379,-34.054 -362.567,-39.138 -563.133,-18.246c290.904,150.533 532.437,205.438 738.233,191.133c-157.354,101.225 -265.204,234.717 -355.479,379.659c72.05,-19.329 376.2,-158.379 465.383,-342.3l18.563,519.533l38.712,0.867Z" style="fill:none;stroke:#56ffca;stroke-width:17.38px;"/>
    </g>
</svg>