<?xml version="1.0" encoding="UTF-8" standalone="no"?><!DOCTYPE svg PUBLIC "-//W3C//DTD SVG 1.1//EN" "http://www.w3.org/Graphics/SVG/1.1/DTD/svg11.dtd">
<svg width="100%" height="100%" viewBox="0 0 8684 8684" version="1.1"
     xmlns="http://www.w3.org/2000/svg"
     xmlns:xlink="http://www.w3.org/1999/xlink" xml:space="preserve"
     xmlns:serif="http://www.serif.com/" style="fill-rule:evenodd;clip-rule:evenodd;stroke-linecap:round;stroke-linejoin:round;stroke-miterlimit:1.5;">
    <style>
        g#lf{
            transform-origin: center;
            transform-box: border-box;
            transform-style: preserve-3d;
<!--            animation: 4s spin linear infinite;-->

        }
        g#edge {
            transform-style: preserve-3d;
        }
        g#edge>path {
            transform-origin: center;
            transform-box: border-box;
                 filter: drop-shadow(0 0 1em #56ffca);
        }
<!--        g#edge>path:nth-of-type(1) {-->
<!--            transform: rotateY(90deg);-->
<!--        }-->
<!--        g#edge>path:nth-of-type(2) {-->
<!--            transform: rotateY(180deg);-->
<!--        }-->
<!--        g#edge>path:nth-of-type(3) {-->
<!--            transform: rotateY(270deg);-->
<!--        }-->
        @keyframes spin {
            to {
                transform: rotateY(360deg);
            }
        }
    </style>
    <path id="_1" serif:id="1" d="M4397.08,8358.42l3.663,-2161.1c434.983,747.971 1155.21,1110.54 1910.12,1426.25c-309.967,-552.204 -744.325,-1091.96 -1495.84,-1600.02c1125.49,89.029 2199.27,-223.629 3240.96,-785.521c-879.742,-85.521 -1655.38,-68.246 -2306.06,72.396c717.917,-547.571 1398.72,-1330.64 2038.42,-2374.67c-1647.08,670.817 -2649.05,1429.95 -3167.62,2255.21c603.542,-1378.98 342.846,-3048.47 -366.633,-4868.79c-610.242,1859.05 -807.829,3546.28 -285.954,4933.96c-631.3,-1170.66 -1855.42,-1935.35 -3332.61,-2526.72c600.871,1014.97 1297.5,1947.21 2335.38,2584.64c-726.579,-141.892 -1510.7,-163.075 -2346.39,-76.025c1212.1,627.221 2218.49,855.992 3075.97,796.387c-655.642,421.771 -1105.02,977.988 -1481.16,1581.91c300.208,-80.537 1567.5,-659.912 1939.1,-1426.25l77.345,2164.72l161.3,3.612l0,0.009Z" style="fill:none;stroke:#56ffca;stroke-width:72.42px;"/>

    <g id="lf">
        <path id="_3" serif:id="3" d="M4386.33,8356.29l2.967,-2232.78c352.483,581.25 936.146,863.004 1547.88,1108.33c-251.179,-429.1 -603.158,-848.558 -1212.17,-1243.35c912.067,69.183 1782.23,-173.788 2626.37,-610.438c-712.9,-66.458 -1341.46,-53.037 -1868.75,56.271c581.771,-425.521 1133.48,-1034.05 1651.88,-1845.37c-1334.75,521.304 -2146.72,1111.22 -2566.96,1752.53c489.1,-1071.61 277.85,-2368.97 -297.1,-3783.54c-494.529,1444.67 -654.65,2755.82 -231.734,3834.17c-511.579,-909.704 -1503.56,-1503.94 -2700.64,-1963.5c486.941,788.733 1051.47,1513.17 1892.53,2008.53c-588.804,-110.279 -1224.22,-126.721 -1901.44,-59.084c982.242,487.417 1797.8,665.192 2492.68,618.875c-531.32,327.759 -895.487,759.98 -1200.3,1229.29c243.279,-62.571 1270.26,-512.813 1571.39,-1108.33l62.675,2235.59l130.729,2.813l0,0.004Z" style="fill:none;stroke:#56ffca;stroke-width:72.42px;"/>
        <path id="_2" serif:id="2" d="M4376.88,8355.62l2.363,-2301.28c280.033,440.033 743.695,653.333 1229.7,839.062c-199.55,-324.862 -479.184,-642.396 -962.988,-941.287c724.567,52.379 1415.85,-131.546 2086.46,-462.117c-566.355,-50.296 -1065.7,-40.137 -1484.6,42.604c462.187,-322.137 900.487,-782.829 1312.31,-1397.01c-1060.36,394.633 -1705.42,841.229 -2039.27,1326.73c388.558,-811.267 220.729,-1793.4 -236.025,-2864.3c-392.862,1093.68 -520.067,2086.27 -184.096,2902.64c-406.425,-688.696 -1194.48,-1138.56 -2145.49,-1486.46c386.841,597.1 835.329,1145.54 1503.49,1520.52c-467.762,-83.471 -972.554,-95.921 -1510.56,-44.721c780.333,368.992 1428.21,503.575 1980.26,468.504c-422.1,248.146 -711.409,575.35 -953.559,930.646c193.263,-47.379 1009.13,-388.229 1248.35,-839.063l49.792,2303.42l103.854,2.121Z" style="fill:none;stroke:#56ffca;stroke-width:72.42px;"/>
        <g id="edge">
            <path id="_11" serif:id="1" d="M4397.08,8358.42l3.663,-2161.1c434.983,747.971 1155.21,1110.54 1910.12,1426.25c-309.967,-552.204 -744.325,-1091.96 -1495.84,-1600.02c1125.49,89.029 2199.27,-223.629 3240.96,-785.521c-879.742,-85.521 -1655.38,-68.246 -2306.06,72.396c717.917,-547.571 1398.72,-1330.64 2038.42,-2374.67c-1647.08,670.817 -2649.05,1429.95 -3167.62,2255.21c603.542,-1378.98 342.846,-3048.47 -366.633,-4868.79c-610.242,1859.05 -807.829,3546.28 -285.954,4933.96c-631.3,-1170.66 -1855.42,-1935.35 -3332.61,-2526.72c600.871,1014.97 1297.5,1947.21 2335.38,2584.64c-726.579,-141.892 -1510.7,-163.075 -2346.39,-76.025c1212.1,627.221 2218.49,855.992 3075.97,796.387c-655.642,421.771 -1105.02,977.988 -1481.16,1581.91c300.208,-80.537 1567.5,-659.912 1939.1,-1426.25l77.345,2164.72l161.3,3.612l0,0.009Z" style="fill:none;stroke:#56ffca;stroke-width:72.42px;"/>
            <path id="_12" serif:id="1" d="M4397.08,8358.42l3.663,-2161.1c434.983,747.971 1155.21,1110.54 1910.12,1426.25c-309.967,-552.204 -744.325,-1091.96 -1495.84,-1600.02c1125.49,89.029 2199.27,-223.629 3240.96,-785.521c-879.742,-85.521 -1655.38,-68.246 -2306.06,72.396c717.917,-547.571 1398.72,-1330.64 2038.42,-2374.67c-1647.08,670.817 -2649.05,1429.95 -3167.62,2255.21c603.542,-1378.98 342.846,-3048.47 -366.633,-4868.79c-610.242,1859.05 -807.829,3546.28 -285.954,4933.96c-631.3,-1170.66 -1855.42,-1935.35 -3332.61,-2526.72c600.871,1014.97 1297.5,1947.21 2335.38,2584.64c-726.579,-141.892 -1510.7,-163.075 -2346.39,-76.025c1212.1,627.221 2218.49,855.992 3075.97,796.387c-655.642,421.771 -1105.02,977.988 -1481.16,1581.91c300.208,-80.537 1567.5,-659.912 1939.1,-1426.25l77.345,2164.72l161.3,3.612l0,0.009Z" style="fill:none;stroke:#56ffca;stroke-width:72.42px;"/>
            <path id="_13" serif:id="1" d="M4397.08,8358.42l3.663,-2161.1c434.983,747.971 1155.21,1110.54 1910.12,1426.25c-309.967,-552.204 -744.325,-1091.96 -1495.84,-1600.02c1125.49,89.029 2199.27,-223.629 3240.96,-785.521c-879.742,-85.521 -1655.38,-68.246 -2306.06,72.396c717.917,-547.571 1398.72,-1330.64 2038.42,-2374.67c-1647.08,670.817 -2649.05,1429.95 -3167.62,2255.21c603.542,-1378.98 342.846,-3048.47 -366.633,-4868.79c-610.242,1859.05 -807.829,3546.28 -285.954,4933.96c-631.3,-1170.66 -1855.42,-1935.35 -3332.61,-2526.72c600.871,1014.97 1297.5,1947.21 2335.38,2584.64c-726.579,-141.892 -1510.7,-163.075 -2346.39,-76.025c1212.1,627.221 2218.49,855.992 3075.97,796.387c-655.642,421.771 -1105.02,977.988 -1481.16,1581.91c300.208,-80.537 1567.5,-659.912 1939.1,-1426.25l77.345,2164.72l161.3,3.612l0,0.009Z" style="fill:none;stroke:#56ffca;stroke-width:72.42px;"/>
            <path id="_14" serif:id="1" d="M4397.08,8358.42l3.663,-2161.1c434.983,747.971 1155.21,1110.54 1910.12,1426.25c-309.967,-552.204 -744.325,-1091.96 -1495.84,-1600.02c1125.49,89.029 2199.27,-223.629 3240.96,-785.521c-879.742,-85.521 -1655.38,-68.246 -2306.06,72.396c717.917,-547.571 1398.72,-1330.64 2038.42,-2374.67c-1647.08,670.817 -2649.05,1429.95 -3167.62,2255.21c603.542,-1378.98 342.846,-3048.47 -366.633,-4868.79c-610.242,1859.05 -807.829,3546.28 -285.954,4933.96c-631.3,-1170.66 -1855.42,-1935.35 -3332.61,-2526.72c600.871,1014.97 1297.5,1947.21 2335.38,2584.64c-726.579,-141.892 -1510.7,-163.075 -2346.39,-76.025c1212.1,627.221 2218.49,855.992 3075.97,796.387c-655.642,421.771 -1105.02,977.988 -1481.16,1581.91c300.208,-80.537 1567.5,-659.912 1939.1,-1426.25l77.345,2164.72l161.3,3.612l0,0.009Z" style="fill:none;stroke:#56ffca;stroke-width:72.42px;"/>
            <path id="_15" serif:id="1" d="M4397.08,8358.42l3.663,-2161.1c434.983,747.971 1155.21,1110.54 1910.12,1426.25c-309.967,-552.204 -744.325,-1091.96 -1495.84,-1600.02c1125.49,89.029 2199.27,-223.629 3240.96,-785.521c-879.742,-85.521 -1655.38,-68.246 -2306.06,72.396c717.917,-547.571 1398.72,-1330.64 2038.42,-2374.67c-1647.08,670.817 -2649.05,1429.95 -3167.62,2255.21c603.542,-1378.98 342.846,-3048.47 -366.633,-4868.79c-610.242,1859.05 -807.829,3546.28 -285.954,4933.96c-631.3,-1170.66 -1855.42,-1935.35 -3332.61,-2526.72c600.871,1014.97 1297.5,1947.21 2335.38,2584.64c-726.579,-141.892 -1510.7,-163.075 -2346.39,-76.025c1212.1,627.221 2218.49,855.992 3075.97,796.387c-655.642,421.771 -1105.02,977.988 -1481.16,1581.91c300.208,-80.537 1567.5,-659.912 1939.1,-1426.25l77.345,2164.72l161.3,3.612l0,0.009Z" style="fill:none;stroke:#56ffca;stroke-width:72.42px;"/>
            <path id="_16" serif:id="1" d="M4397.08,8358.42l3.663,-2161.1c434.983,747.971 1155.21,1110.54 1910.12,1426.25c-309.967,-552.204 -744.325,-1091.96 -1495.84,-1600.02c1125.49,89.029 2199.27,-223.629 3240.96,-785.521c-879.742,-85.521 -1655.38,-68.246 -2306.06,72.396c717.917,-547.571 1398.72,-1330.64 2038.42,-2374.67c-1647.08,670.817 -2649.05,1429.95 -3167.62,2255.21c603.542,-1378.98 342.846,-3048.47 -366.633,-4868.79c-610.242,1859.05 -807.829,3546.28 -285.954,4933.96c-631.3,-1170.66 -1855.42,-1935.35 -3332.61,-2526.72c600.871,1014.97 1297.5,1947.21 2335.38,2584.64c-726.579,-141.892 -1510.7,-163.075 -2346.39,-76.025c1212.1,627.221 2218.49,855.992 3075.97,796.387c-655.642,421.771 -1105.02,977.988 -1481.16,1581.91c300.208,-80.537 1567.5,-659.912 1939.1,-1426.25l77.345,2164.72l161.3,3.612l0,0.009Z" style="fill:none;stroke:#56ffca;stroke-width:72.42px;"/>
            <path id="_17" serif:id="1" d="M4397.08,8358.42l3.663,-2161.1c434.983,747.971 1155.21,1110.54 1910.12,1426.25c-309.967,-552.204 -744.325,-1091.96 -1495.84,-1600.02c1125.49,89.029 2199.27,-223.629 3240.96,-785.521c-879.742,-85.521 -1655.38,-68.246 -2306.06,72.396c717.917,-547.571 1398.72,-1330.64 2038.42,-2374.67c-1647.08,670.817 -2649.05,1429.95 -3167.62,2255.21c603.542,-1378.98 342.846,-3048.47 -366.633,-4868.79c-610.242,1859.05 -807.829,3546.28 -285.954,4933.96c-631.3,-1170.66 -1855.42,-1935.35 -3332.61,-2526.72c600.871,1014.97 1297.5,1947.21 2335.38,2584.64c-726.579,-141.892 -1510.7,-163.075 -2346.39,-76.025c1212.1,627.221 2218.49,855.992 3075.97,796.387c-655.642,421.771 -1105.02,977.988 -1481.16,1581.91c300.208,-80.537 1567.5,-659.912 1939.1,-1426.25l77.345,2164.72l161.3,3.612l0,0.009Z" style="fill:none;stroke:#56ffca;stroke-width:72.42px;"/>
        </g>
    </g>
</svg>