<?xml version="1.0" encoding="UTF-8" standalone="no"?><!DOCTYPE svg PUBLIC "-//W3C//DTD SVG 1.1//EN" "http://www.w3.org/Graphics/SVG/1.1/DTD/svg11.dtd"><svg width="100%" height="100%" viewBox="0 0 4167 4167" version="1.1" xmlns="http://www.w3.org/2000/svg" xmlns:xlink="http://www.w3.org/1999/xlink" xml:space="preserve" xmlns:serif="http://www.serif.com/" style="fill-rule:evenodd;clip-rule:evenodd;stroke-linejoin:round;stroke-miterlimit:2;"><rect id="Artboard1" x="0" y="0" width="4166.67" height="4166.67" style="fill:none;"/><g id="Artboard11" serif:id="Artboard1"><g id="wzrd"><path d="M2001.3,869.021l340.717,56.441c-4.084,37.713 -14.125,70.13 -31.359,96.15c23.75,78.288 46.242,156.709 98.246,232.025c10.954,43.417 -21.933,74.655 -89.883,96.15c38.504,212.43 96.933,419.963 42.587,700.476c4.03,2.699 9.367,8.533 14.496,14.404l873.096,4.179l0.492,8.35l367.4,-18.8l-1.067,13.787l201.113,-12.316l0.954,12.879l283.946,-16.442c-5.7,64.504 -33.467,126.754 -110.788,183.946c-7.483,75.537 -43.825,143.083 -146.317,192.308c-49.525,94.421 -123.116,139.775 -251.183,119.492c-34.317,46.492 -103.596,66.362 -206.592,45.642c-41.795,42.62 -100.279,34.42 -182.991,3.975c-52.846,37.679 -115.963,36.65 -170.267,8.566c-35.733,32.854 -89.721,31.034 -154.683,8.359c-40.75,33.42 -97.671,36.516 -173.492,4.183c-66.321,24.154 -135.946,46.658 -254.037,-103.733c-13.484,29.541 -21.346,41.25 -37.1,66.379c116.987,55.796 195.154,110.508 243.062,164.862c57.125,64.813 112.388,134.613 165.129,211.117c59.154,78.508 121.042,139.246 186.038,179.767c71.041,44.55 138.604,65.537 196.487,20.9c36.75,-29.479 37.771,-52.65 0,-68.979c-9.05,24.55 -27.008,35.241 -49.212,39.333c-41.925,6.858 -78.963,-21.392 -74.117,-83.229c8.892,-27.838 30.108,-41.292 56.542,-48.663c31.954,-7.4 63.162,-7.316 93.654,-0.104c58.725,9.833 90.442,44.213 94.371,94.754c3.454,44.504 -6.642,87.384 -39.717,127.509c-54.375,52.379 -81.779,62.158 -171.404,52.254c-78.567,-5.054 -156.496,-36.338 -233.604,-101.304c-52.909,-44.45 -126.975,-136.542 -217.896,-268.717c-40.375,-60.279 -87.4,-113.171 -140.925,-158.838c-53.508,-43.07 -119.808,-68.945 -173.317,-87.166c-7.446,6.912 -26.991,24.008 -31.837,26.875l93.05,135.741c17.362,30.25 12.412,72.013 -15.525,89.113l86.596,136.842c17.995,28.745 -5.696,62.191 -29.163,74.866c37.996,52.729 101.929,138.513 110.783,165.129c22.725,68.3 -64.558,128.684 -146.316,94.067c-16.154,84.517 -89.279,118.758 -165.134,54.346c-13.516,76.058 -111.17,118.692 -169.312,20.904l-6.396,0c-58.146,97.788 -155.8,55.154 -169.312,-20.904c-75.859,64.412 -148.984,30.171 -165.134,-54.346c-81.758,34.617 -169.041,-25.767 -146.321,-94.067c8.859,-26.616 72.788,-112.4 110.788,-165.129c-23.467,-12.675 -47.163,-46.121 -29.163,-74.866l86.592,-136.842c-27.933,-17.1 -32.887,-58.863 -15.525,-89.113l90.063,-131.137c-14.33,-9.721 -21.734,-16.317 -39.971,-32.383c-53.509,18.22 -108.688,45 -162.196,88.07c-53.521,45.667 -100.546,98.559 -140.921,158.838c-90.921,132.175 -164.987,224.267 -217.896,268.717c-77.108,64.966 -155.037,96.25 -233.604,101.304c-89.629,9.904 -117.029,0.125 -171.404,-52.254c-33.075,-40.125 -43.175,-83.005 -39.717,-127.509c3.929,-50.541 35.646,-84.921 94.367,-94.754c30.496,-7.212 61.704,-7.296 93.658,0.104c26.429,7.371 47.65,20.825 56.538,48.663c4.85,61.837 -32.188,90.087 -74.113,83.229c-22.204,-4.092 -40.162,-14.783 -49.212,-39.333c-37.771,16.329 -36.75,39.5 -0,68.979c57.879,44.637 125.446,23.65 196.487,-20.9c64.996,-40.521 126.884,-101.259 186.034,-179.767c52.745,-76.504 108.004,-146.304 165.133,-211.117c47.908,-54.354 119.254,-104.637 236.242,-160.429c-20.884,-30.662 -27.405,-44.366 -37.188,-65.8c-118.092,150.392 -180.808,122.875 -247.129,98.721c-75.821,32.333 -132.746,29.238 -173.496,-4.183c-64.958,22.675 -118.946,24.496 -154.679,-8.359c-54.308,28.084 -117.425,29.113 -170.267,-8.566c-82.712,30.446 -141.196,38.646 -182.991,-3.975c-103,20.721 -172.275,0.85 -206.596,-45.642c-128.063,20.283 -201.654,-25.071 -251.179,-119.492c-102.492,-49.225 -138.834,-116.77 -146.321,-192.308c-77.317,-57.192 -105.084,-119.442 -110.784,-183.946l283.942,16.442l0.954,-12.879l201.117,12.316l-1.067,-13.787l367.4,18.8l0.492,-8.35l850.767,-4.125c-6.98,-24.171 -26.396,-105.563 -30.709,-187.638c-15.15,-20.879 -45.691,-54.287 -72.529,-76.629c-41.933,39.844 -241.384,-12.672 -278.614,-58.036c-6.223,-7.583 -12.574,-11.194 -2.737,-23.787c22.926,-29.348 146.67,33.37 186.757,31.614c117.94,-5.168 -44.017,-35.154 -27.988,-59.122c11.321,-16.928 72.441,2.268 101.368,15.728c19.381,9.018 45.565,29.165 53.541,37.667c8.208,8.748 31.573,9.207 47.723,14.345c10.229,-27.705 20.454,-40.788 30.683,-37.809c-20.916,-41.091 -31.329,-90.408 -18.629,-157.812c-8.996,-23.084 -20.046,-41.388 -33.425,-54.246c-37.65,-4.083 -97.146,-68.242 -169.866,-168.771c-27.713,-38.737 -49.334,-67.246 -21.371,-89.867c-13.338,-25.295 -8.221,-46.487 25.208,-36.712c9.629,-13.529 21.417,-18.442 38.354,-2.738c30.588,26.28 68.704,56.192 86.138,98.55c-4.963,-30.933 -15.425,-47.72 5.921,-42.112c7.083,1.862 63.645,57.779 83.837,178.087c-0.8,11.95 5.729,25.125 22.467,40l16.983,-14.795c46.5,41.495 68.083,77.058 83.838,111.237c18.612,-110.408 47.145,-209.233 83.291,-299.183c-10.183,-18.404 -10.275,-36.213 4.384,-53.154c-26.6,-2.53 -45.759,-8.6 -41.646,-25.755c17.671,-34.758 32.9,-64.8 50.412,-85.479c-4.291,-12.416 -4.475,-33.058 4.384,-71.783c-33.3,-36.217 -26.98,-61.867 5.479,-80.55c-5.925,-35.346 -2.917,-67.446 7.233,-96.95Z" style="fill:none;stroke:#ceaaff;stroke-width:9.53px;"/><path d="M1989.48,1044.83c52.355,-6.162 112.121,14.225 172.892,72.592c20.292,111.937 51.829,196.566 104.858,229c26,15.904 39.255,7.154 51.55,3.508" style="fill:none;stroke:#ceaaff;stroke-width:9.53px;"/><path d="M2007.54,1118.83c34.221,-7.525 59.329,1.004 73.437,28.909c3.963,-14.98 -9.117,-35.688 -25.675,-41.655c-20.579,-7.42 -39.354,1.717 -47.762,12.746" style="fill:none;stroke:#ceaaff;stroke-width:9.53px;"/><path d="M1995.8,965.917c54.596,-9.846 160.612,9.145 315.271,55.408" style="fill:none;stroke:#ceaaff;stroke-width:9.53px;"/><path d="M2169.42,1162.22c-6.284,27.729 -21.146,51.946 -49.375,70.7c-13.313,53.196 -57.692,71.979 -148.809,50.362" style="fill:none;stroke:#ceaaff;stroke-width:9.53px;"/><path d="M2002.84,1188.37c5.72,21.55 -2.805,40.758 -26.875,41.025" style="fill:none;stroke:#ceaaff;stroke-width:9.53px;"/><path d="M2120.06,1232.74c-41.175,15.716 -80.042,11.6 -131.192,-5.279" style="fill:none;stroke:#ceaaff;stroke-width:9.53px;"/><path d="M1887.52,1583.17c-1.096,4.237 -7.525,27.208 -6.042,43.146c2.692,28.996 11.167,42.808 30.746,47.125c21.708,4.787 50.071,-4.696 55.529,-18.021c69.075,-168.675 148.154,-299.733 244.508,-365.792" style="fill:none;stroke:#ceaaff;stroke-width:9.53px;"/><path d="M1768.99,1721.11c116.454,3.329 168.162,64.779 216.125,167.808c34.85,-333.146 181.221,-625.175 351.604,-436.083" style="fill:none;stroke:#ceaaff;stroke-width:9.53px;"/><path d="M2363.39,2040.44c-4.409,28.221 -13.38,61 -25.909,72.987c-11.833,13.709 -30.529,31.7 -58.6,55.559c-57.458,126.416 -161.958,319.416 -222.225,312.787c-153.129,-16.838 -370.979,-420.592 -318.121,-727.558" style="fill:none;stroke:#ceaaff;stroke-width:9.53px;"/><path d="M1853.75,1739.93c-56.462,228.592 -26.037,478.254 219.067,738.038" style="fill:none;stroke:#ceaaff;stroke-width:9.53px;"/><path d="M1939.48,1812.02c-46.725,165.7 -18.029,375.729 179.525,627.183" style="fill:none;stroke:#ceaaff;stroke-width:9.53px;"/><path d="M1609.71,1354.76c-34.154,-39.745 -58.687,-76.004 -84.558,-104.429" style="fill:none;stroke:#ceaaff;stroke-width:9.53px;"/><path d="M1674.76,1309.68c8.2,23.909 9.221,28.746 20.767,57.809" style="fill:none;stroke:#ceaaff;stroke-width:9.53px;"/><path d="M1552.43,1215.26c29.809,36.638 55.271,68.359 91.254,108.563" style="fill:none;stroke:#ceaaff;stroke-width:9.53px;"/><path d="M1787.62,1484.81c-11.038,8.308 -27.434,34.445 -37.754,77.258" style="fill:none;stroke:#ceaaff;stroke-width:9.53px;"/><path d="M1902.84,1670.94c-6.009,24.691 -11.426,55.258 -12.825,85.449" style="fill:none;stroke:#ceaaff;stroke-width:9.53px;"/><path d="M2292.01,1508.39c-110.884,-87.325 -190.717,109.92 -210.417,490.187" style="fill:none;stroke:#ceaaff;stroke-width:9.53px;"/><path d="M2007.56,1975.19c74.579,13.083 143.887,57.837 204.179,134.825" style="fill:none;stroke:#ceaaff;stroke-width:9.53px;"/><g id="inner-ring" serif:id="inner ring"><path d="M2313.57,2138.94c48.487,56.133 77.866,129.479 77.866,209.687c0,176.346 -142.008,319.517 -316.921,319.517c-174.912,-0 -316.92,-143.171 -316.92,-319.517c-0,-59.591 16.216,-115.391 44.437,-163.162" style="fill:none;stroke:#ceaaff;stroke-width:9.53px;"/><path d="M2374.78,2063.2c69.734,74.533 112.504,174.987 112.504,285.433c0,132.438 -61.495,250.513 -157.246,326.75c-70.304,55.979 -159.074,89.404 -255.524,89.404c-227.813,0 -412.767,-186.475 -412.767,-416.154c-0,-104.367 38.187,-199.808 101.233,-272.892" style="fill:none;stroke:#ceaaff;stroke-width:9.53px;"/></g><g id="wing-left" serif:id="wing left"><path d="M1681.14,2222.12c-468.517,-7 -780.451,26.629 -771.742,-144.259" style="fill:none;stroke:#ceaaff;stroke-width:9.53px;"/><path d="M542.896,2067.3c16.133,137.483 142.742,187.975 400.817,92.533" style="fill:none;stroke:#ceaaff;stroke-width:9.53px;"/><path d="M622.763,2189.95c45,148.429 166.666,165.592 394.604,4.638" style="fill:none;stroke:#ceaaff;stroke-width:9.53px;"/><path d="M1112.23,2212.23c-193.738,191.467 -300.338,175.08 -378.267,94.534" style="fill:none;stroke:#ceaaff;stroke-width:9.53px;"/><path d="M1211.09,2219.62c-128.621,177.433 -232.205,193.55 -310.025,137.5" style="fill:none;stroke:#ceaaff;stroke-width:9.53px;"/><path d="M643.575,2240.1c-163.854,26.358 -287.958,-9.475 -302.563,-168.721" style="fill:none;stroke:#ceaaff;stroke-width:9.53px;"/><path d="M762.675,2332.63c-187.396,70.042 -299.083,23.792 -335.35,-110.862" style="fill:none;stroke:#ceaaff;stroke-width:9.53px;"/><path d="M917.367,2368.71c-151.154,113.024 -280.146,134.62 -356.688,-6.809" style="fill:none;stroke:#ceaaff;stroke-width:9.53px;"/><path d="M1058.48,2391.56c-115.645,107.413 -225.704,111.884 -282.72,58.692" style="fill:none;stroke:#ceaaff;stroke-width:9.53px;"/><path d="M1208.68,2394.52c-110.987,115.391 -224.304,124.837 -290.245,81.746" style="fill:none;stroke:#ceaaff;stroke-width:9.53px;"/><path d="M1336.25,2395.71c-91.954,108.262 -190.566,121.158 -252.533,89.141" style="fill:none;stroke:#ceaaff;stroke-width:9.53px;"/><path d="M1452.76,2405.92c-109.225,116.458 -185.212,105.429 -225.7,78.05" style="fill:none;stroke:#ceaaff;stroke-width:9.53px;"/><path d="M1586.69,2402.54c-89.121,121.412 -162.188,131.533 -237.988,85.095" style="fill:none;stroke:#ceaaff;stroke-width:9.53px;"/><path d="M1673.88,2448.93c-60.404,62.525 -116.8,76.267 -182.704,46.729" style="fill:none;stroke:#ceaaff;stroke-width:9.53px;"/><path d="M444.408,2275.31c-101.429,16.771 -193.904,8.934 -276.2,-26.904" style="fill:none;stroke:#ceaaff;stroke-width:9.53px;"/><path d="M576.229,2394.58c-89.35,41.442 -177.583,55.112 -264.542,36.767" style="fill:none;stroke:#ceaaff;stroke-width:9.53px;"/><path d="M729.575,2460.04c-46.275,43.608 -91.925,81.975 -164.508,92.1" style="fill:none;stroke:#ceaaff;stroke-width:9.53px;"/><path d="M917.892,2482.46c-33.538,36.35 -64.334,76.046 -145.721,114.792" style="fill:none;stroke:#ceaaff;stroke-width:9.53px;"/><path d="M1094.14,2489.72c-30.721,39.162 -70.046,74.521 -138.48,111.841" style="fill:none;stroke:#ceaaff;stroke-width:9.53px;"/><path d="M1243.41,2492.32c-20.233,36.592 -51.854,78.537 -117.529,117.517" style="fill:none;stroke:#ceaaff;stroke-width:9.53px;"/><path d="M1389.58,2506.67c-18.096,28.325 -67.033,100.112 -109.779,111.983" style="fill:none;stroke:#ceaaff;stroke-width:9.53px;"/><path d="M1551.9,2510.26c-22.338,38.234 -38.054,79.005 -98.671,112.454" style="fill:none;stroke:#ceaaff;stroke-width:9.53px;"/><path d="M1337.58,2221.41c-131,180.016 -229.979,196.395 -309.775,158.133" style="fill:none;stroke:#ceaaff;stroke-width:9.53px;"/><path d="M1427.5,2222.98c-89.183,160.683 -183.958,187.85 -270.45,162.804" style="fill:none;stroke:#ceaaff;stroke-width:9.53px;"/><path d="M1536.13,2221.67c-119.833,186.071 -195.691,186.937 -264.187,162.237" style="fill:none;stroke:#ceaaff;stroke-width:9.53px;"/><path d="M1630.71,2222.81c-96.516,203.82 -196.571,199.845 -251.233,163.566" style="fill:none;stroke:#ceaaff;stroke-width:9.53px;"/><path d="M1661.49,2331.23c-50.7,87.2 -121.329,90.784 -166.325,63.321" style="fill:none;stroke:#ceaaff;stroke-width:9.53px;"/></g><g id="wing-left1" serif:id="wing left"><path d="M2478.14,2222.35c468.516,-7 780.45,26.629 771.741,-144.254" style="fill:none;stroke:#ceaaff;stroke-width:9.53px;"/><path d="M3616.38,2067.53c-16.133,137.484 -142.741,187.98 -400.816,92.534" style="fill:none;stroke:#ceaaff;stroke-width:9.53px;"/><path d="M3536.52,2190.19c-45,148.429 -166.667,165.587 -394.6,4.637" style="fill:none;stroke:#ceaaff;stroke-width:9.53px;"/><path d="M3047.06,2212.47c193.734,191.466 300.334,175.079 378.263,94.533" style="fill:none;stroke:#ceaaff;stroke-width:9.53px;"/><path d="M2948.19,2219.86c128.616,177.434 232.2,193.55 310.021,137.504" style="fill:none;stroke:#ceaaff;stroke-width:9.53px;"/><path d="M3515.7,2240.34c163.854,26.354 287.959,-9.479 302.563,-168.725" style="fill:none;stroke:#ceaaff;stroke-width:9.53px;"/><path d="M3396.6,2332.87c187.396,70.041 299.083,23.796 335.35,-110.863" style="fill:none;stroke:#ceaaff;stroke-width:9.53px;"/><path d="M3241.91,2368.95c151.158,113.021 280.145,134.617 356.687,-6.808" style="fill:none;stroke:#ceaaff;stroke-width:9.53px;"/><path d="M3100.8,2391.8c115.65,107.412 225.704,111.883 282.721,58.691" style="fill:none;stroke:#ceaaff;stroke-width:9.53px;"/><path d="M2950.6,2394.75c110.987,115.396 224.304,124.838 290.246,81.746" style="fill:none;stroke:#ceaaff;stroke-width:9.53px;"/><path d="M2823.03,2395.95c91.954,108.262 190.567,121.158 252.533,89.146" style="fill:none;stroke:#ceaaff;stroke-width:9.53px;"/><path d="M2706.52,2406.15c109.229,116.454 185.217,105.429 225.7,78.05" style="fill:none;stroke:#ceaaff;stroke-width:9.53px;"/><path d="M2572.59,2402.78c89.121,121.408 162.187,131.533 237.987,85.096" style="fill:none;stroke:#ceaaff;stroke-width:9.53px;"/><path d="M2477.89,2441.65c60.408,62.525 124.312,83.775 190.216,54.238" style="fill:none;stroke:#ceaaff;stroke-width:9.53px;"/><path d="M3714.88,2275.54c101.425,16.775 193.9,8.937 276.196,-26.9" style="fill:none;stroke:#ceaaff;stroke-width:9.53px;"/><path d="M3583.05,2394.81c89.35,41.437 177.588,55.108 264.542,36.766" style="fill:none;stroke:#ceaaff;stroke-width:9.53px;"/><path d="M3429.71,2460.28c46.271,43.604 91.921,81.975 164.505,92.096" style="fill:none;stroke:#ceaaff;stroke-width:9.53px;"/><path d="M3241.39,2482.69c33.537,36.354 64.333,76.046 145.72,114.791" style="fill:none;stroke:#ceaaff;stroke-width:9.53px;"/><path d="M3065.31,2490.18c30.695,39.075 69.999,74.371 138.304,111.617" style="fill:none;stroke:#ceaaff;stroke-width:9.53px;"/><path d="M2915.87,2492.56c20.237,36.588 51.854,78.534 117.529,117.517" style="fill:none;stroke:#ceaaff;stroke-width:9.53px;"/><path d="M2769.7,2506.9c18.096,28.325 67.033,100.117 109.779,111.988" style="fill:none;stroke:#ceaaff;stroke-width:9.53px;"/><path d="M2607.38,2510.49c22.342,38.233 38.059,79.004 98.671,112.454" style="fill:none;stroke:#ceaaff;stroke-width:9.53px;"/><path d="M2821.7,2221.65c131,180.013 229.979,196.392 309.775,158.129" style="fill:none;stroke:#ceaaff;stroke-width:9.53px;"/><path d="M2731.78,2223.21c89.188,160.683 183.958,187.854 270.45,162.808" style="fill:none;stroke:#ceaaff;stroke-width:9.53px;"/><path d="M2623.15,2221.9c119.833,186.075 195.691,186.942 264.187,162.238" style="fill:none;stroke:#ceaaff;stroke-width:9.53px;"/><path d="M2528.57,2223.05c96.521,203.817 196.571,199.842 251.233,163.563" style="fill:none;stroke:#ceaaff;stroke-width:9.53px;"/><path d="M2486.66,2320.34c49.308,94.291 132.454,101.912 177.454,74.445" style="fill:none;stroke:#ceaaff;stroke-width:9.53px;"/></g><g id="hat"><path d="M2008.38,869.492l247.925,-547.771l80.259,601.017" style="fill:none;stroke:#ceaaff;stroke-width:9.53px;"/><path d="M2205.86,698.496l7.154,44.825l44.841,7.046l-40.42,20.654l7.154,44.825l-32.134,-32.058l-40.42,20.654l20.558,-40.467l-32.133,-32.058l44.841,7.046l20.559,-40.467Z" style="fill:none;stroke:#ceaaff;stroke-width:9.53px;"/><path d="M2228.49,543.058l4.462,27.967l27.975,4.4l-25.217,12.888l4.463,27.966l-20.05,-20.004l-25.217,12.888l12.825,-25.251l-20.046,-20l27.975,4.396l12.83,-25.25Z" style="fill:none;stroke:#ceaaff;stroke-width:9.53px;"/></g><g id="Fire"><path d="M1514.5,1165.55c-215.604,-196.433 -36.454,-227.85 -67.362,-380.042c14.133,25.759 26.85,51.513 30.379,77.271c34.487,-27.296 92.404,-84.642 52.171,-181.612c34.608,10.733 67.525,26.937 107.65,152.554c8.162,-17.221 2.625,-46.179 -13.871,-84.534c135.825,126.767 142.6,297.625 -21.134,412.096c43.93,-79.229 48.992,-153.237 -25.095,-216.612c-4.346,55.604 -20.967,100.471 -53.492,131.421c12.967,-42.484 15.433,-69.567 1.979,-73.309c-32.317,38.021 -56.783,80.5 -11.225,162.767Z" style="fill:none;stroke:#ceaaff;stroke-width:9.53px;"/><path d="M1514.5,1165.55c-215.604,-196.433 -36.454,-227.85 -67.362,-380.042c14.133,25.759 26.85,51.513 30.379,77.271c34.487,-27.296 92.404,-84.642 52.171,-181.612c34.608,10.733 67.525,26.937 107.65,152.554c8.162,-17.221 2.625,-46.179 -13.871,-84.534c135.825,126.767 142.6,297.625 -21.134,412.096c43.93,-79.229 48.992,-153.237 -25.095,-216.612c-4.346,55.604 -20.967,100.471 -53.492,131.421c12.967,-42.484 15.433,-69.567 1.979,-73.309c-32.317,38.021 -56.783,80.5 -11.225,162.767Z" style="fill:none;stroke:#ceaaff;stroke-width:9.53px;"/><path d="M1555.78,715.425c27.204,77.479 -6.229,139.308 -74.446,192.163c82.8,-57.701 79.767,-0.117 64.059,19.045c70.908,-49.008 120.291,54.005 115.412,142.538c31.721,-56.179 63.25,-112.517 4.617,-248.142c-2.121,59.904 -46.158,75.513 -65.208,53.092c12.704,-59.75 -11.88,-142.213 -44.434,-158.696Z" style="fill:none;stroke:#ceaaff;stroke-width:9.53px;"/><path d="M1465.23,871.867c-36.138,120.054 -43.883,155.071 3.942,214.7c-5.534,-61.188 0.158,-82.384 31.512,-101.934c20.371,-12.7 49.563,-5.4 50.725,17.73c7.467,-25.13 -18.791,-54.842 -34.104,-55.321c-21.958,-0.684 -58.754,49.621 -52.075,-75.175Z" style="fill:none;stroke:#ceaaff;stroke-width:9.53px;"/></g><g id="bottom-left"><path d="M1862.84,2887.05c-15.884,29.367 -8.925,54.696 7.1,70.842c26.583,26.787 78.112,28.304 91.658,-18.909" style="fill:none;stroke:#ceaaff;stroke-width:9.53px;"/><path d="M2079.23,2963.23c-0.537,50.655 -134.587,45.13 -117.633,-24.25" style="fill:none;stroke:#ceaaff;stroke-width:9.53px;"/><path d="M1705.9,3121.99c10.7,6.429 20.379,10.708 29.196,13.058c67.912,18.087 84.891,-78.292 125.962,-187.979" style="fill:none;stroke:#ceaaff;stroke-width:9.53px;"/><path d="M1976.18,2982.77l-43.17,183.758c-4.484,25.325 -38.555,29.704 -72.38,21.404c-41.633,-10.216 -82.887,-39.65 -68.112,-72.896" style="fill:none;stroke:#ceaaff;stroke-width:9.53px;"/><path d="M2078.68,2765.38l0,690.142" style="fill:none;stroke:#ceaaff;stroke-width:9.53px;"/><path d="M2002.71,2758.7l-41.113,180.287" style="fill:none;stroke:#ceaaff;stroke-width:9.53px;"/><path d="M2080.21,2765.23l-1.017,198.313" style="fill:none;stroke:#ceaaff;stroke-width:9.53px;"/><path d="M2079.13,3192.97c-0.8,70.671 -161.654,37.542 -147.366,-19.829" style="fill:none;stroke:#ceaaff;stroke-width:9.53px;"/><path d="M1907.54,3436.3l41.12,-225.571" style="fill:none;stroke:#ceaaff;stroke-width:9.53px;"/><path d="M1742.26,3381.9l71.113,-215.271" style="fill:none;stroke:#ceaaff;stroke-width:9.53px;"/><path d="M1765.01,2911.35c93.392,56.129 108.85,-51.654 155.596,-176.079" style="fill:none;stroke:#ceaaff;stroke-width:9.53px;"/></g><g id="bottom-right"><path d="M2296.32,2887.05c15.887,29.367 8.929,54.696 -7.096,70.842c-26.583,26.787 -78.117,28.304 -91.659,-18.909" style="fill:none;stroke:#ceaaff;stroke-width:9.53px;"/><path d="M2079.93,2963.23c0.537,50.655 134.588,45.13 117.637,-24.25" style="fill:none;stroke:#ceaaff;stroke-width:9.53px;"/><path d="M2453.27,3121.99c-10.7,6.429 -20.379,10.708 -29.2,13.058c-67.909,18.087 -84.892,-78.292 -125.963,-187.979" style="fill:none;stroke:#ceaaff;stroke-width:9.53px;"/><path d="M2182.98,2982.77l43.171,183.758c4.483,25.325 38.554,29.704 72.375,21.404c41.638,-10.216 82.892,-39.65 68.112,-72.896" style="fill:none;stroke:#ceaaff;stroke-width:9.53px;"/><path d="M2080.47,2764.93l0,690.588" style="fill:none;stroke:#ceaaff;stroke-width:9.53px;"/><path d="M2156.45,2758.7l41.117,180.287" style="fill:none;stroke:#ceaaff;stroke-width:9.53px;"/><path d="M2078.95,2765.63l1.013,197.913" style="fill:none;stroke:#ceaaff;stroke-width:9.53px;"/><path d="M2080.03,3192.97c0.8,70.671 161.654,37.542 147.367,-19.829" style="fill:none;stroke:#ceaaff;stroke-width:9.53px;"/><path d="M2251.62,3436.3l-41.125,-225.571" style="fill:none;stroke:#ceaaff;stroke-width:9.53px;"/><path d="M2416.9,3381.9l-71.112,-215.271" style="fill:none;stroke:#ceaaff;stroke-width:9.53px;"/><path d="M2394.15,2911.35c-93.391,56.129 -108.854,-51.654 -155.596,-176.079" style="fill:none;stroke:#ceaaff;stroke-width:9.53px;"/></g></g><path d="M1494.3,1696.06c-0.867,-45.181 -15.105,-94.913 -36.045,-141.916c1.338,40.622 -10.222,68.807 -23.984,94.868c-4.722,-20.031 -6.048,-42.768 13.42,-82.074c-19.8,34.47 -53.7,67.502 -83.733,78.351c10.251,-30.915 29.297,-60.625 70.311,-87.328c-46.177,22.303 -97.808,29.01 -136.966,16.934c28.722,-22.86 65.042,-40.31 134.403,-34.231c-67.443,-12.81 -129.464,-51.435 -182.582,-102.018c48.88,3.749 96.063,4.427 190.259,90.146c-74.229,-97.54 -90.815,-173.37 -99.821,-246.346c44.26,49.028 89.263,94.899 113.457,229.262c-1.849,-78.266 24.176,-138.51 61.308,-191.571c2.549,68.286 -5.406,136.982 -45.129,206.914c24.249,-39.788 70.074,-66.671 116.114,-82.517c-22.581,33.723 -44.241,67.675 -100.746,92.952c26.758,-9.511 66.708,-7.427 107.389,5.083c-27.382,12.008 -58.243,19.731 -98.793,15.517c24.423,9.25 41.19,24.557 55.808,41.564c-30.547,-3.086 -58.015,-15.193 -80.835,-40.911c18.207,42.685 32.988,95.35 33.04,140.641" style="fill:none;stroke:#ceaaff;stroke-width:9.53px;stroke-linecap:round;stroke-miterlimit:1.5;"/><path d="M1600.27,1734.27c14.442,9.394 33.984,23.439 51.443,26.726" style="fill:none;stroke:#ceaaff;stroke-width:9.53px;stroke-linecap:round;stroke-miterlimit:1.5;"/><path d="M1374.58,1733.68c30.594,12.434 72.23,24.051 114.484,34.763" style="fill:none;stroke:#ceaaff;stroke-width:9.53px;stroke-linecap:round;stroke-miterlimit:1.5;"/><path d="M1384.87,1717.93c30.594,12.434 65.741,23.125 107.995,33.836" style="fill:none;stroke:#ceaaff;stroke-width:9.53px;stroke-linecap:round;stroke-miterlimit:1.5;"/></g><g id="Layer1"></g></svg>