<?xml version="1.0" encoding="UTF-8" standalone="no"?><!DOCTYPE svg PUBLIC "-//W3C//DTD SVG 1.1//EN" "http://www.w3.org/Graphics/SVG/1.1/DTD/svg11.dtd"><svg width="100%" height="100%" viewBox="0 0 4202 3354" version="1.1" xmlns="http://www.w3.org/2000/svg" xmlns:xlink="http://www.w3.org/1999/xlink" xml:space="preserve" xmlns:serif="http://www.serif.com/" style="fill-rule:evenodd;clip-rule:evenodd;stroke-linejoin:round;stroke-miterlimit:2;"><rect id="Artboard2" x="-0" y="0" width="4201.57" height="3353.28" style="fill:none;"/><clipPath id="_clip1"><rect x="-0" y="0" width="4201.57" height="3353.28"/></clipPath><g clip-path="url(#_clip1)"><rect id="Artboard1" x="24.809" y="-263.342" width="4166.67" height="4166.67" style="fill:none;"/><g id="Artboard11" serif:id="Artboard1"><g id="wzrd"><path d="M2026.11,605.679l340.717,56.442c-4.083,37.712 -14.125,70.129 -31.358,96.15c23.75,78.287 46.241,156.708 98.246,232.025c10.954,43.416 -21.934,74.654 -89.884,96.15c38.504,212.429 96.934,419.962 42.588,700.475c4.029,2.7 9.366,8.533 14.496,14.404l873.095,4.179l0.492,8.35l367.4,-18.8l-1.067,13.787l201.113,-12.316l0.954,12.879l283.946,-16.442c-5.7,64.504 -33.467,126.754 -110.788,183.946c-7.483,75.538 -43.825,143.083 -146.316,192.308c-49.525,94.421 -123.117,139.775 -251.184,119.492c-34.316,46.492 -103.595,66.363 -206.591,45.642c-41.796,42.621 -100.279,34.421 -182.992,3.975c-52.846,37.679 -115.962,36.65 -170.267,8.566c-35.733,32.855 -89.72,31.034 -154.683,8.359c-40.75,33.421 -97.671,36.516 -173.492,4.183c-66.32,24.154 -135.945,46.658 -254.037,-103.733c-13.483,29.541 -21.346,41.25 -37.1,66.379c116.987,55.796 195.154,110.508 243.062,164.862c57.125,64.813 112.388,134.613 165.13,211.117c59.154,78.508 121.041,139.246 186.037,179.767c71.042,44.55 138.604,65.537 196.488,20.9c36.75,-29.479 37.77,-52.65 -0,-68.979c-9.05,24.55 -27.009,35.241 -49.213,39.333c-41.925,6.858 -78.962,-21.392 -74.117,-83.229c8.892,-27.838 30.109,-41.292 56.542,-48.663c31.954,-7.4 63.163,-7.316 93.654,-0.104c58.725,9.833 90.442,44.213 94.371,94.754c3.454,44.504 -6.642,87.384 -39.717,127.509c-54.375,52.379 -81.779,62.158 -171.404,52.254c-78.566,-5.054 -156.496,-36.338 -233.604,-101.304c-52.908,-44.45 -126.975,-136.542 -217.896,-268.717c-40.375,-60.279 -87.4,-113.171 -140.925,-158.838c-53.508,-43.07 -119.808,-68.945 -173.316,-87.166c-7.446,6.912 -26.992,24.008 -31.838,26.875l93.05,135.741c17.363,30.25 12.413,72.013 -15.525,89.113l86.596,136.842c17.996,28.745 -5.696,62.191 -29.163,74.866c37.996,52.729 101.93,138.513 110.784,165.129c22.725,68.3 -64.559,128.684 -146.317,94.067c-16.154,84.517 -89.279,118.758 -165.133,54.346c-13.517,76.058 -111.171,118.692 -169.313,20.904l-6.396,0c-58.145,97.788 -155.8,55.154 -169.312,-20.904c-75.858,64.412 -148.983,30.171 -165.133,-54.346c-81.759,34.617 -169.042,-25.767 -146.321,-94.067c8.858,-26.616 72.787,-112.4 110.787,-165.129c-23.466,-12.675 -47.162,-46.121 -29.162,-74.866l86.591,-136.842c-27.933,-17.1 -32.887,-58.863 -15.525,-89.113l90.063,-131.137c-14.329,-9.721 -21.733,-16.317 -39.971,-32.383c-53.508,18.22 -108.687,45 -162.196,88.07c-53.521,45.667 -100.546,98.559 -140.921,158.838c-90.92,132.175 -164.987,224.267 -217.895,268.717c-77.109,64.966 -155.038,96.25 -233.605,101.304c-89.629,9.904 -117.029,0.125 -171.404,-52.254c-33.075,-40.125 -43.175,-83.005 -39.716,-127.509c3.929,-50.541 35.645,-84.921 94.366,-94.754c30.496,-7.212 61.704,-7.296 93.659,0.104c26.429,7.371 47.65,20.825 56.537,48.663c4.85,61.837 -32.187,90.087 -74.112,83.229c-22.205,-4.092 -40.163,-14.783 -49.213,-39.333c-37.771,16.329 -36.75,39.5 0,68.979c57.879,44.637 125.446,23.65 196.488,-20.9c64.995,-40.521 126.883,-101.259 186.033,-179.767c52.746,-76.504 108.004,-146.304 165.133,-211.117c47.909,-54.354 119.254,-104.637 236.242,-160.429c-20.883,-30.662 -27.404,-44.366 -37.188,-65.8c-118.091,150.392 -180.808,122.875 -247.129,98.721c-75.821,32.333 -132.746,29.238 -173.496,-4.183c-64.958,22.675 -118.945,24.496 -154.679,-8.359c-54.308,28.084 -117.425,29.113 -170.266,-8.566c-82.713,30.446 -141.196,38.646 -182.992,-3.975c-103,20.721 -172.275,0.85 -206.596,-45.642c-128.062,20.283 -201.654,-25.071 -251.179,-119.492c-102.492,-49.225 -138.833,-116.77 -146.321,-192.308c-77.317,-57.192 -105.083,-119.442 -110.783,-183.946l283.941,16.442l0.955,-12.879l201.116,12.316l-1.066,-13.787l367.4,18.8l0.491,-8.35l850.767,-4.125c-6.979,-24.171 -26.396,-105.563 -30.708,-187.638c-15.15,-20.879 -45.692,-54.287 -72.53,-76.629c-41.932,39.844 -241.384,-12.672 -278.613,-58.036c-6.224,-7.583 -12.575,-11.194 -2.738,-23.787c22.926,-29.348 146.67,33.37 186.758,31.614c117.939,-5.168 -44.017,-35.154 -27.989,-59.122c11.321,-16.928 72.442,2.268 101.369,15.728c19.38,9.018 45.565,29.165 53.541,37.667c8.208,8.748 31.572,9.207 47.722,14.345c10.23,-27.705 20.455,-40.788 30.684,-37.809c-20.917,-41.091 -31.329,-90.408 -18.629,-157.812c-8.996,-23.084 -20.046,-41.388 -33.425,-54.246c-37.65,-4.083 -97.146,-68.242 -169.867,-168.771c-27.713,-38.737 -49.333,-67.246 -21.371,-89.867c-13.337,-25.295 -8.221,-46.487 25.208,-36.712c9.63,-13.529 21.417,-18.442 38.355,-2.738c30.587,26.28 68.704,56.192 86.137,98.55c-4.962,-30.933 -15.425,-47.72 5.921,-42.112c7.083,1.862 63.646,57.779 83.837,178.087c-0.8,11.95 5.73,25.125 22.467,40l16.983,-14.795c46.5,41.495 68.084,77.058 83.838,111.237c18.612,-110.408 47.146,-209.233 83.292,-299.183c-10.184,-18.404 -10.275,-36.213 4.383,-53.154c-26.6,-2.53 -45.758,-8.6 -41.646,-25.755c17.671,-34.758 32.9,-64.8 50.413,-85.479c-4.292,-12.416 -4.475,-33.058 4.383,-71.783c-33.3,-36.217 -26.979,-61.867 5.479,-80.55c-5.925,-35.346 -2.917,-67.446 7.233,-96.95Z" style="fill:none;stroke:#d196ff;stroke-width:11.46px;"/><path d="M2014.29,781.483c52.354,-6.162 112.121,14.225 172.891,72.592c20.292,111.937 51.83,196.566 104.859,229c26,15.904 39.254,7.154 51.55,3.508" style="fill:none;stroke:#d196ff;stroke-width:11.46px;"/><path d="M2032.35,855.491c34.221,-7.525 59.329,1.005 73.438,28.909c3.962,-14.979 -9.117,-35.688 -25.675,-41.654c-20.58,-7.421 -39.355,1.716 -47.763,12.745" style="fill:none;stroke:#d196ff;stroke-width:11.46px;"/><path d="M2020.61,702.575c54.596,-9.846 160.613,9.146 315.271,55.408" style="fill:none;stroke:#d196ff;stroke-width:11.46px;"/><path d="M2194.23,898.875c-6.283,27.729 -21.146,51.946 -49.375,70.7c-13.312,53.196 -57.692,71.979 -148.808,50.362" style="fill:none;stroke:#d196ff;stroke-width:11.46px;"/><path d="M2027.65,925.029c5.721,21.55 -2.804,40.758 -26.875,41.025" style="fill:none;stroke:#d196ff;stroke-width:11.46px;"/><path d="M2144.87,969.4c-41.175,15.716 -80.042,11.6 -131.192,-5.279" style="fill:none;stroke:#d196ff;stroke-width:11.46px;"/><path d="M1912.33,1319.83c-1.096,4.237 -7.525,27.208 -6.042,43.146c2.692,28.996 11.167,42.808 30.746,47.125c21.709,4.787 50.071,-4.696 55.529,-18.021c69.075,-168.675 148.155,-299.733 244.509,-365.792" style="fill:none;stroke:#d196ff;stroke-width:11.46px;"/><path d="M1793.8,1457.77c116.454,3.329 168.163,64.779 216.125,167.808c34.85,-333.146 181.221,-625.175 351.604,-436.083" style="fill:none;stroke:#d196ff;stroke-width:11.46px;"/><path d="M2388.2,1777.1c-4.408,28.221 -13.379,61 -25.908,72.987c-11.834,13.709 -30.53,31.7 -58.6,55.559c-57.459,126.416 -161.959,319.416 -222.225,312.787c-153.13,-16.837 -370.98,-420.592 -318.121,-727.558" style="fill:none;stroke:#d196ff;stroke-width:11.46px;"/><path d="M1878.56,1476.59c-56.463,228.592 -26.038,478.254 219.066,738.038" style="fill:none;stroke:#d196ff;stroke-width:11.46px;"/><path d="M1964.29,1548.67c-46.725,165.7 -18.03,375.729 179.525,627.183" style="fill:none;stroke:#d196ff;stroke-width:11.46px;"/><path d="M1634.52,1091.42c-34.154,-39.745 -58.688,-76.004 -84.559,-104.429" style="fill:none;stroke:#d196ff;stroke-width:11.46px;"/><path d="M1699.57,1046.34c8.2,23.909 9.221,28.746 20.766,57.809" style="fill:none;stroke:#d196ff;stroke-width:11.46px;"/><path d="M1577.24,951.916c29.808,36.638 55.27,68.359 91.254,108.563" style="fill:none;stroke:#d196ff;stroke-width:11.46px;"/><path d="M1812.43,1221.47c-11.037,8.308 -27.433,34.445 -37.754,77.258" style="fill:none;stroke:#d196ff;stroke-width:11.46px;"/><path d="M1927.65,1407.6c-6.008,24.691 -11.425,55.258 -12.825,85.45" style="fill:none;stroke:#d196ff;stroke-width:11.46px;"/><path d="M2316.82,1245.05c-110.883,-87.325 -190.717,109.92 -210.417,490.187" style="fill:none;stroke:#d196ff;stroke-width:11.46px;"/><path d="M2032.37,1711.85c74.579,13.083 143.887,57.837 204.179,134.825" style="fill:none;stroke:#d196ff;stroke-width:11.46px;"/><g id="inner-ring" serif:id="inner ring"><path d="M2338.38,1875.6c48.488,56.133 77.867,129.479 77.867,209.687c-0,176.346 -142.009,319.517 -316.921,319.517c-174.913,-0 -316.921,-143.171 -316.921,-319.517c0,-59.591 16.217,-115.391 44.438,-163.162" style="fill:none;stroke:#d196ff;stroke-width:11.46px;"/><path d="M2399.59,1799.85c69.733,74.533 112.504,174.987 112.504,285.433c-0,132.438 -61.496,250.513 -157.246,326.75c-70.304,55.979 -159.075,89.404 -255.525,89.404c-227.813,0 -412.767,-186.475 -412.767,-416.154c0,-104.366 38.188,-199.808 101.234,-272.891" style="fill:none;stroke:#d196ff;stroke-width:11.46px;"/></g><g id="wing-left" serif:id="wing left"><path d="M1705.95,1958.78c-468.517,-7 -780.45,26.629 -771.742,-144.259" style="fill:none;stroke:#d196ff;stroke-width:11.46px;"/><path d="M567.705,1803.96c16.134,137.483 142.742,187.975 400.817,92.533" style="fill:none;stroke:#d196ff;stroke-width:11.46px;"/><path d="M647.572,1926.61c45,148.429 166.667,165.592 394.604,4.638" style="fill:none;stroke:#d196ff;stroke-width:11.46px;"/><path d="M1137.03,1948.89c-193.737,191.467 -300.337,175.08 -378.266,94.534" style="fill:none;stroke:#d196ff;stroke-width:11.46px;"/><path d="M1235.9,1956.28c-128.621,177.433 -232.204,193.55 -310.025,137.5" style="fill:none;stroke:#d196ff;stroke-width:11.46px;"/><path d="M668.384,1976.76c-163.854,26.359 -287.958,-9.475 -302.562,-168.721" style="fill:none;stroke:#d196ff;stroke-width:11.46px;"/><path d="M787.484,2069.29c-187.395,70.042 -299.083,23.792 -335.35,-110.862" style="fill:none;stroke:#d196ff;stroke-width:11.46px;"/><path d="M942.176,2105.37c-151.154,113.025 -280.146,134.62 -356.687,-6.809" style="fill:none;stroke:#d196ff;stroke-width:11.46px;"/><path d="M1083.29,2128.22c-115.646,107.413 -225.704,111.884 -282.721,58.692" style="fill:none;stroke:#d196ff;stroke-width:11.46px;"/><path d="M1233.49,2131.18c-110.988,115.391 -224.304,124.837 -290.246,81.746" style="fill:none;stroke:#d196ff;stroke-width:11.46px;"/><path d="M1361.06,2132.37c-91.955,108.262 -190.567,121.158 -252.534,89.141" style="fill:none;stroke:#d196ff;stroke-width:11.46px;"/><path d="M1477.57,2142.57c-109.225,116.458 -185.213,105.429 -225.7,78.05" style="fill:none;stroke:#d196ff;stroke-width:11.46px;"/><path d="M1611.5,2139.2c-89.121,121.412 -162.188,131.533 -237.988,85.095" style="fill:none;stroke:#d196ff;stroke-width:11.46px;"/><path d="M1698.68,2185.58c-60.404,62.525 -116.8,76.267 -182.704,46.729" style="fill:none;stroke:#d196ff;stroke-width:11.46px;"/><path d="M469.218,2011.97c-101.429,16.771 -193.904,8.934 -276.2,-26.904" style="fill:none;stroke:#d196ff;stroke-width:11.46px;"/><path d="M601.039,2131.23c-89.35,41.442 -177.584,55.113 -264.542,36.767" style="fill:none;stroke:#d196ff;stroke-width:11.46px;"/><path d="M754.384,2196.7c-46.275,43.608 -91.925,81.975 -164.508,92.1" style="fill:none;stroke:#d196ff;stroke-width:11.46px;"/><path d="M942.701,2219.12c-33.537,36.35 -64.333,76.046 -145.721,114.792" style="fill:none;stroke:#d196ff;stroke-width:11.46px;"/><path d="M1118.95,2226.38c-30.721,39.162 -70.046,74.521 -138.479,111.841" style="fill:none;stroke:#d196ff;stroke-width:11.46px;"/><path d="M1268.22,2228.98c-20.233,36.592 -51.854,78.537 -117.529,117.517" style="fill:none;stroke:#d196ff;stroke-width:11.46px;"/><path d="M1414.39,2243.33c-18.096,28.325 -67.034,100.112 -109.779,111.983" style="fill:none;stroke:#d196ff;stroke-width:11.46px;"/><path d="M1576.7,2246.92c-22.337,38.234 -38.054,79.005 -98.671,112.455" style="fill:none;stroke:#d196ff;stroke-width:11.46px;"/><path d="M1362.38,1958.07c-131,180.016 -229.979,196.395 -309.775,158.133" style="fill:none;stroke:#d196ff;stroke-width:11.46px;"/><path d="M1452.31,1959.64c-89.184,160.684 -183.959,187.85 -270.45,162.804" style="fill:none;stroke:#d196ff;stroke-width:11.46px;"/><path d="M1560.94,1958.33c-119.834,186.071 -195.692,186.937 -264.188,162.237" style="fill:none;stroke:#d196ff;stroke-width:11.46px;"/><path d="M1655.52,1959.47c-96.517,203.82 -196.571,199.845 -251.234,163.566" style="fill:none;stroke:#d196ff;stroke-width:11.46px;"/><path d="M1686.3,2067.89c-50.7,87.2 -121.329,90.784 -166.325,63.321" style="fill:none;stroke:#d196ff;stroke-width:11.46px;"/></g><g id="wing-left1" serif:id="wing left"><path d="M2502.95,1959.01c468.517,-7 780.45,26.629 771.742,-144.254" style="fill:none;stroke:#d196ff;stroke-width:11.46px;"/><path d="M3641.19,1804.19c-16.134,137.484 -142.742,187.98 -400.817,92.534" style="fill:none;stroke:#d196ff;stroke-width:11.46px;"/><path d="M3561.33,1926.85c-45,148.429 -166.667,165.587 -394.6,4.637" style="fill:none;stroke:#d196ff;stroke-width:11.46px;"/><path d="M3071.87,1949.12c193.733,191.466 300.333,175.079 378.262,94.533" style="fill:none;stroke:#d196ff;stroke-width:11.46px;"/><path d="M2973,1956.52c128.617,177.434 232.2,193.55 310.021,137.505" style="fill:none;stroke:#d196ff;stroke-width:11.46px;"/><path d="M3540.51,1977c163.854,26.354 287.958,-9.479 302.562,-168.725" style="fill:none;stroke:#d196ff;stroke-width:11.46px;"/><path d="M3421.41,2069.53c187.395,70.041 299.083,23.796 335.35,-110.863" style="fill:none;stroke:#d196ff;stroke-width:11.46px;"/><path d="M3266.72,2105.61c151.158,113.021 280.146,134.617 356.687,-6.808" style="fill:none;stroke:#d196ff;stroke-width:11.46px;"/><path d="M3125.61,2128.45c115.65,107.412 225.704,111.883 282.721,58.692" style="fill:none;stroke:#d196ff;stroke-width:11.46px;"/><path d="M2975.41,2131.41c110.988,115.396 224.304,124.838 290.246,81.746" style="fill:none;stroke:#d196ff;stroke-width:11.46px;"/><path d="M2847.83,2132.6c91.955,108.262 190.567,121.158 252.534,89.146" style="fill:none;stroke:#d196ff;stroke-width:11.46px;"/><path d="M2731.33,2142.81c109.229,116.454 185.217,105.429 225.7,78.05" style="fill:none;stroke:#d196ff;stroke-width:11.46px;"/><path d="M2597.4,2139.43c89.121,121.408 162.188,131.533 237.988,85.096" style="fill:none;stroke:#d196ff;stroke-width:11.46px;"/><path d="M2502.7,2178.31c60.408,62.525 124.313,83.775 190.217,54.238" style="fill:none;stroke:#d196ff;stroke-width:11.46px;"/><path d="M3739.68,2012.2c101.425,16.775 193.9,8.937 276.196,-26.9" style="fill:none;stroke:#d196ff;stroke-width:11.46px;"/><path d="M3607.86,2131.47c89.35,41.437 177.588,55.108 264.542,36.766" style="fill:none;stroke:#d196ff;stroke-width:11.46px;"/><path d="M3454.52,2196.93c46.271,43.604 91.921,81.975 164.504,92.096" style="fill:none;stroke:#d196ff;stroke-width:11.46px;"/><path d="M3266.2,2219.35c33.537,36.354 64.333,76.046 145.721,114.791" style="fill:none;stroke:#d196ff;stroke-width:11.46px;"/><path d="M3090.12,2226.83c30.696,39.075 70,74.371 138.304,111.617" style="fill:none;stroke:#d196ff;stroke-width:11.46px;"/><path d="M2940.68,2229.22c20.238,36.588 51.854,78.534 117.529,117.517" style="fill:none;stroke:#d196ff;stroke-width:11.46px;"/><path d="M2794.51,2243.56c18.096,28.325 67.034,100.117 109.779,111.988" style="fill:none;stroke:#d196ff;stroke-width:11.46px;"/><path d="M2632.19,2247.15c22.341,38.233 38.058,79.004 98.671,112.454" style="fill:none;stroke:#d196ff;stroke-width:11.46px;"/><path d="M2846.51,1958.31c131,180.013 229.979,196.392 309.775,158.129" style="fill:none;stroke:#d196ff;stroke-width:11.46px;"/><path d="M2756.58,1959.87c89.188,160.683 183.959,187.854 270.45,162.808" style="fill:none;stroke:#d196ff;stroke-width:11.46px;"/><path d="M2647.95,1958.56c119.834,186.075 195.692,186.942 264.188,162.238" style="fill:none;stroke:#d196ff;stroke-width:11.46px;"/><path d="M2553.38,1959.71c96.521,203.817 196.571,199.842 251.234,163.563" style="fill:none;stroke:#d196ff;stroke-width:11.46px;"/><path d="M2511.47,2057c49.308,94.291 132.454,101.912 177.454,74.445" style="fill:none;stroke:#d196ff;stroke-width:11.46px;"/></g><g id="hat"><path d="M2033.19,606.15l247.925,-547.771l80.258,601.017" style="fill:none;stroke:#d196ff;stroke-width:11.46px;"/><path d="M2230.67,435.154l7.154,44.825l44.842,7.046l-40.421,20.654l7.154,44.825l-32.133,-32.058l-40.421,20.654l20.558,-40.467l-32.133,-32.058l44.842,7.046l20.558,-40.467Z" style="fill:none;stroke:#d196ff;stroke-width:11.46px;"/><path d="M2253.3,279.716l4.462,27.967l27.975,4.4l-25.216,12.888l4.462,27.966l-20.05,-20.004l-25.216,12.888l12.825,-25.25l-20.046,-20l27.975,4.395l12.829,-25.25Z" style="fill:none;stroke:#d196ff;stroke-width:11.46px;"/></g><g id="Fire"><path d="M1539.31,902.204c-215.604,-196.433 -36.454,-227.85 -67.362,-380.042c14.133,25.759 26.85,51.513 30.379,77.271c34.488,-27.296 92.404,-84.642 52.171,-181.612c34.608,10.733 67.525,26.937 107.65,152.554c12.033,-25.516 17.556,-37.885 13.778,-82.875c124.766,127.873 114.951,295.966 -48.782,410.437c43.929,-79.229 48.991,-153.237 -25.096,-216.612c-4.346,55.604 -20.967,100.471 -53.492,131.421c12.967,-42.484 15.434,-69.567 1.979,-73.309c-32.316,38.021 -56.783,80.5 -11.225,162.767Z" style="fill:none;stroke:#d196ff;stroke-width:11.46px;"/><path d="M1580.59,452.083c27.204,77.479 -6.229,139.308 -74.446,192.163c82.8,-57.7 79.767,-0.117 64.058,19.045c70.909,-49.008 120.292,54.005 115.413,142.538c31.721,-56.179 63.25,-112.517 4.616,-248.142c-2.12,59.904 -46.158,75.513 -65.208,53.092c12.704,-59.75 -11.879,-142.213 -44.433,-158.696Z" style="fill:none;stroke:#d196ff;stroke-width:11.46px;"/><path d="M1490.03,608.525c-36.137,120.054 -43.883,155.071 3.942,214.7c-5.533,-61.188 0.158,-82.384 31.513,-101.934c20.37,-12.7 49.562,-5.4 50.725,17.73c7.466,-25.13 -18.792,-54.842 -34.105,-55.321c-21.958,-0.684 -58.754,49.621 -52.075,-75.175Z" style="fill:none;stroke:#d196ff;stroke-width:11.46px;"/></g><g id="bottom-left"><path d="M1887.65,2623.71c-15.883,29.367 -8.925,54.696 7.1,70.842c26.583,26.787 78.113,28.304 91.658,-18.909" style="fill:none;stroke:#d196ff;stroke-width:11.46px;"/><path d="M2104.04,2699.89c-0.538,50.655 -134.588,45.13 -117.634,-24.25" style="fill:none;stroke:#d196ff;stroke-width:11.46px;"/><path d="M1730.7,2858.65c10.7,6.429 20.379,10.708 29.196,13.058c67.913,18.087 84.892,-78.292 125.963,-187.979" style="fill:none;stroke:#d196ff;stroke-width:11.46px;"/><path d="M2000.99,2719.43l-43.171,183.758c-4.483,25.325 -38.554,29.704 -72.379,21.404c-41.634,-10.216 -82.888,-39.65 -68.113,-72.896" style="fill:none;stroke:#d196ff;stroke-width:11.46px;"/><path d="M2103.49,2502.04l-0,690.142" style="fill:none;stroke:#d196ff;stroke-width:11.46px;"/><path d="M2027.52,2495.35l-41.113,180.287" style="fill:none;stroke:#d196ff;stroke-width:11.46px;"/><path d="M2105.02,2501.89l-1.017,198.313" style="fill:none;stroke:#d196ff;stroke-width:11.46px;"/><path d="M2103.94,2929.63c-0.8,70.671 -161.654,37.542 -147.367,-19.829" style="fill:none;stroke:#d196ff;stroke-width:11.46px;"/><path d="M1932.35,3172.96l41.121,-225.571" style="fill:none;stroke:#d196ff;stroke-width:11.46px;"/><path d="M1767.07,3118.56l71.112,-215.271" style="fill:none;stroke:#d196ff;stroke-width:11.46px;"/><path d="M1789.82,2648c93.391,56.129 108.85,-51.654 155.596,-176.079" style="fill:none;stroke:#d196ff;stroke-width:11.46px;"/></g><g id="bottom-right"><path d="M2321.13,2623.71c15.888,29.367 8.929,54.696 -7.096,70.842c-26.583,26.787 -78.116,28.304 -91.658,-18.909" style="fill:none;stroke:#d196ff;stroke-width:11.46px;"/><path d="M2104.73,2699.89c0.538,50.655 134.588,45.13 117.638,-24.25" style="fill:none;stroke:#d196ff;stroke-width:11.46px;"/><path d="M2478.08,2858.65c-10.7,6.429 -20.379,10.708 -29.2,13.058c-67.908,18.087 -84.892,-78.292 -125.962,-187.979" style="fill:none;stroke:#d196ff;stroke-width:11.46px;"/><path d="M2207.79,2719.43l43.17,183.758c4.484,25.325 38.555,29.704 72.375,21.404c41.638,-10.216 82.892,-39.65 68.113,-72.896" style="fill:none;stroke:#d196ff;stroke-width:11.46px;"/><path d="M2105.28,2501.59l0,690.588" style="fill:none;stroke:#d196ff;stroke-width:11.46px;"/><path d="M2181.26,2495.35l41.117,180.287" style="fill:none;stroke:#d196ff;stroke-width:11.46px;"/><path d="M2103.76,2502.29l1.013,197.913" style="fill:none;stroke:#d196ff;stroke-width:11.46px;"/><path d="M2104.84,2929.63c0.8,70.671 161.654,37.542 147.366,-19.829" style="fill:none;stroke:#d196ff;stroke-width:11.46px;"/><path d="M2276.43,3172.96l-41.125,-225.571" style="fill:none;stroke:#d196ff;stroke-width:11.46px;"/><path d="M2441.71,3118.56l-71.113,-215.271" style="fill:none;stroke:#d196ff;stroke-width:11.46px;"/><path d="M2418.96,2648c-93.392,56.129 -108.855,-51.654 -155.596,-176.079" style="fill:none;stroke:#d196ff;stroke-width:11.46px;"/></g></g><path d="M1519.11,1432.72c-0.867,-45.181 -15.104,-94.912 -36.045,-141.916c1.339,40.622 -10.221,68.807 -23.984,94.868c-4.722,-20.031 -6.047,-42.768 13.421,-82.074c-19.801,34.47 -53.701,67.502 -83.734,78.351c10.252,-30.915 29.298,-60.625 70.312,-87.328c-46.178,22.303 -97.809,29.01 -136.966,16.935c28.721,-22.861 65.041,-40.311 134.403,-34.232c-67.443,-12.81 -129.465,-51.435 -182.583,-102.018c48.881,3.749 96.063,4.427 190.259,90.146c-74.228,-97.54 -90.814,-173.37 -99.821,-246.346c44.26,49.028 89.263,94.899 113.457,229.262c-1.849,-78.266 24.177,-138.509 61.309,-191.571c2.549,68.286 -5.407,136.982 -45.129,206.914c24.248,-39.788 70.073,-66.671 116.114,-82.517c-22.581,33.723 -44.241,67.675 -100.746,92.952c26.757,-9.511 66.707,-7.427 107.388,5.083c-27.382,12.008 -58.242,19.731 -98.792,15.517c24.422,9.25 41.189,24.557 55.808,41.564c-30.547,-3.086 -58.015,-15.193 -80.836,-40.911c18.208,42.685 32.988,95.35 33.041,140.641" style="fill:none;stroke:#d196ff;stroke-width:11.46px;stroke-linecap:round;stroke-miterlimit:1.5;"/><path d="M1625.08,1470.92c14.442,9.394 33.984,23.439 51.444,26.726" style="fill:none;stroke:#d196ff;stroke-width:11.46px;stroke-linecap:round;stroke-miterlimit:1.5;"/><path d="M1399.39,1470.34c30.594,12.434 72.23,24.051 114.484,34.763" style="fill:none;stroke:#d196ff;stroke-width:11.46px;stroke-linecap:round;stroke-miterlimit:1.5;"/><path d="M1409.67,1454.58c30.594,12.435 65.741,23.125 107.995,33.836" style="fill:none;stroke:#d196ff;stroke-width:11.46px;stroke-linecap:round;stroke-miterlimit:1.5;"/></g></g></svg>