<?xml version="1.0" encoding="UTF-8" standalone="no"?><!DOCTYPE svg PUBLIC "-//W3C//DTD SVG 1.1//EN" "http://www.w3.org/Graphics/SVG/1.1/DTD/svg11.dtd">
<svg width="100%" height="100%" viewBox="0 0 964 398" version="1.1"
     xmlns="http://www.w3.org/2000/svg"
     xmlns:xlink="http://www.w3.org/1999/xlink" xml:space="preserve"
     xmlns:serif="http://www.serif.com/" style="fill-rule:evenodd;clip-rule:evenodd;stroke-linecap:round;stroke-linejoin:round;stroke-miterlimit:1.5;">
    <clipPath id="_clip1">
        <rect x="0" y="0" width="963.35" height="397.135"/>
    </clipPath>
    <style>
        :root{
            --decent: #0FFFD3;
            --with: #FF0FB3;
            --pc-stroke: none;
        }
        @media (prefers-color-scheme: dark) {
            :root{
                --decent: #fff;
                --with: #f1f1f1;
            }
        }
        #decent{
            fill: var(--decent);
            fill-rule:nonzero;
        }
        #with{
            fill: var(--with);
            fill-rule:nonzero;
        }
        #pc{
            fill: none;
            stroke: var(--pc-stroke);
            stroke-width: 5px;
        }
    </style>
    <path id="pc" d="M124.796,310.054c3.024,-0 5.846,0.432 8.464,1.296c2.619,0.864 4.833,2.146 6.642,3.847c1.809,1.701 3.092,3.78 3.848,6.237c0.755,2.457 0.809,5.251 0.162,8.383c-0.702,3.186 -1.701,5.913 -2.997,8.18c-1.296,2.268 -2.97,4.158 -5.022,5.67c-2.052,1.512 -4.522,2.619 -7.411,3.321c-2.889,0.702 -6.251,1.053 -10.084,1.053l-11.178,-0l-3.564,16.523c-0.108,0.594 -0.418,1.107 -0.931,1.539c-0.513,0.432 -1.067,0.648 -1.661,0.648l-10.61,0c-0.594,0 -1.067,-0.216 -1.418,-0.648c-0.351,-0.432 -0.472,-0.945 -0.364,-1.539l11.177,-52.323c0.108,-0.594 0.419,-1.107 0.932,-1.539c0.513,-0.432 1.066,-0.648 1.66,-0.648l22.355,-0Zm-14.903,25.352l9.963,-0c2.267,-0 4.252,-0.5 5.953,-1.499c1.701,-0.999 2.794,-2.632 3.28,-4.9c0.432,-2.268 0.014,-3.902 -1.255,-4.9c-1.269,-0.999 -3.038,-1.499 -5.306,-1.499l-9.962,0l-2.673,12.798Zm40.903,-8.586c0.108,-0.594 0.432,-1.107 0.972,-1.539c0.54,-0.432 1.107,-0.648 1.701,-0.648l10.206,0c0.594,0 1.053,0.216 1.377,0.648c0.324,0.432 0.432,0.945 0.324,1.539l-4.293,20.492c-0.54,2.322 -0.446,4.185 0.283,5.589c0.729,1.404 2.282,2.106 4.658,2.106c2.375,-0 4.211,-0.702 5.507,-2.106c1.296,-1.404 2.214,-3.267 2.754,-5.589l4.293,-20.492c0.108,-0.594 0.432,-1.107 0.972,-1.539c0.54,-0.432 1.107,-0.648 1.701,-0.648l10.205,0c0.594,0 1.053,0.216 1.377,0.648c0.324,0.432 0.432,0.945 0.324,1.539l-8.018,37.744c-0.108,0.594 -0.419,1.107 -0.932,1.539c-0.513,0.432 -1.066,0.648 -1.66,0.648l-9.396,0c-0.594,0 -1.066,-0.216 -1.417,-0.648c-0.351,-0.432 -0.473,-0.945 -0.365,-1.539l0.405,-1.863c-0.594,0.594 -1.215,1.175 -1.863,1.742c-0.648,0.567 -1.417,1.08 -2.308,1.539c-0.891,0.459 -1.944,0.837 -3.159,1.134c-1.215,0.297 -2.659,0.445 -4.333,0.445c-2.214,0 -4.32,-0.364 -6.318,-1.093c-1.998,-0.729 -3.685,-1.85 -5.062,-3.362c-1.377,-1.512 -2.336,-3.429 -2.876,-5.75c-0.54,-2.322 -0.459,-5.076 0.243,-8.262l4.698,-22.274Zm81.726,-2.187c0.594,0 1.053,0.216 1.377,0.648c0.324,0.432 0.432,0.945 0.324,1.539l-1.701,8.181c-0.108,0.594 -0.432,1.107 -0.972,1.538c-0.54,0.432 -1.107,0.648 -1.701,0.648l-7.371,0c-2.43,0 -4.414,0.635 -5.953,1.904c-1.539,1.269 -2.552,3.118 -3.038,5.548l-4.292,19.925c-0.108,0.594 -0.419,1.107 -0.932,1.539c-0.513,0.432 -1.066,0.648 -1.66,0.648l-10.206,0c-0.594,0 -1.066,-0.216 -1.417,-0.648c-0.351,-0.432 -0.473,-0.945 -0.365,-1.539l8.019,-37.744c0.108,-0.594 0.432,-1.107 0.972,-1.539c0.54,-0.432 1.107,-0.648 1.701,-0.648l9.395,0c0.594,0 1.053,0.216 1.377,0.648c0.324,0.432 0.432,0.945 0.324,1.539l-0.405,1.863c1.242,-1.242 2.66,-2.228 4.253,-2.957c1.593,-0.729 3.793,-1.093 6.601,-1.093l5.67,0Zm14.903,25.676c-0.27,1.242 -0.27,2.268 0,3.078c0.27,0.81 0.715,1.458 1.336,1.944c0.621,0.486 1.337,0.823 2.147,1.012c0.81,0.189 1.62,0.284 2.43,0.284c1.62,-0 2.943,-0.162 3.969,-0.486c1.026,-0.324 1.916,-0.783 2.672,-1.377c0.702,-0.486 1.202,-0.797 1.499,-0.932c0.297,-0.135 0.769,-0.202 1.417,-0.202l10.53,-0c1.188,-0 1.647,0.594 1.377,1.782c-0.108,0.648 -0.594,1.633 -1.458,2.956c-0.864,1.323 -2.201,2.673 -4.009,4.05c-1.809,1.377 -4.145,2.578 -7.007,3.604c-2.862,1.026 -6.371,1.539 -10.529,1.539c-3.132,0 -5.953,-0.553 -8.464,-1.66c-2.511,-1.107 -4.577,-2.646 -6.197,-4.617c-1.619,-1.971 -2.74,-4.347 -3.361,-7.128c-0.621,-2.781 -0.553,-5.872 0.203,-9.274c0.648,-3.132 1.647,-5.994 2.996,-8.585c1.35,-2.592 3.078,-4.82 5.184,-6.683c2.106,-1.863 4.59,-3.294 7.452,-4.293c2.862,-0.998 6.156,-1.498 9.881,-1.498c3.564,0 6.602,0.662 9.113,1.984c2.51,1.323 4.522,3.038 6.034,5.144c1.512,2.106 2.497,4.468 2.956,7.087c0.459,2.619 0.419,5.224 -0.121,7.816l-0.486,2.268c-0.108,0.594 -0.419,1.107 -0.932,1.539c-0.513,0.432 -1.066,0.648 -1.66,0.648l-26.972,-0Zm10.53,-15.551c-2.268,-0 -4.131,0.675 -5.589,2.024c-1.458,1.35 -2.484,2.862 -3.078,4.536l14.579,0c0.162,-1.674 -0.229,-3.186 -1.174,-4.536c-0.945,-1.349 -2.525,-2.024 -4.738,-2.024Zm61.314,-3.159c-0.216,0.702 -0.473,1.674 -0.77,2.916c-0.297,1.242 -0.594,2.524 -0.891,3.847c-0.297,1.323 -0.553,2.619 -0.769,3.888c-0.216,1.269 -0.378,2.254 -0.486,2.956c-0.162,1.242 -0.175,2.43 -0.041,3.564c0.135,1.134 0.513,2.133 1.134,2.997c0.621,0.864 1.499,1.552 2.633,2.065c1.134,0.513 2.619,0.77 4.455,0.77c1.836,-0 3.388,-0.216 4.657,-0.648c1.269,-0.432 2.349,-0.959 3.24,-1.58c0.891,-0.621 1.62,-1.309 2.187,-2.065c0.567,-0.756 1.039,-1.458 1.417,-2.106c0.486,-0.864 0.918,-1.471 1.296,-1.822c0.378,-0.351 1.026,-0.527 1.944,-0.527l10.611,0c0.486,0 0.877,0.176 1.174,0.527c0.297,0.351 0.391,0.769 0.283,1.255c-0.648,2.754 -1.768,5.346 -3.361,7.776c-1.593,2.43 -3.604,4.535 -6.034,6.317c-2.43,1.782 -5.278,3.2 -8.545,4.253c-3.267,1.053 -6.871,1.579 -10.813,1.579c-3.51,0 -6.682,-0.58 -9.517,-1.741c-2.835,-1.161 -5.198,-2.741 -7.088,-4.739c-1.889,-1.997 -3.266,-4.333 -4.13,-7.006c-0.864,-2.673 -1.053,-5.494 -0.567,-8.464c0.324,-2.214 0.769,-4.59 1.336,-7.128c0.567,-2.537 1.148,-4.967 1.742,-7.289c0.755,-2.97 1.889,-5.792 3.401,-8.464c1.512,-2.673 3.443,-5.009 5.792,-7.007c2.349,-1.998 5.156,-3.577 8.423,-4.738c3.267,-1.161 7.06,-1.741 11.38,-1.741c3.132,-0 6.142,0.526 9.031,1.579c2.889,1.053 5.373,2.471 7.452,4.252c2.079,1.782 3.631,3.888 4.657,6.318c1.026,2.43 1.269,5.022 0.729,7.776c-0.108,0.486 -0.378,0.904 -0.81,1.255c-0.432,0.351 -0.891,0.527 -1.377,0.527l-10.61,-0c-0.918,-0 -1.485,-0.176 -1.701,-0.527c-0.216,-0.351 -0.378,-0.958 -0.486,-1.822c-0.108,-0.648 -0.284,-1.35 -0.527,-2.106c-0.243,-0.756 -0.674,-1.445 -1.295,-2.065c-0.621,-0.621 -1.485,-1.148 -2.592,-1.58c-1.107,-0.432 -2.579,-0.648 -4.415,-0.648c-1.836,0 -3.429,0.257 -4.778,0.77c-1.35,0.513 -2.511,1.201 -3.483,2.065c-0.972,0.864 -1.769,1.863 -2.39,2.997c-0.621,1.134 -1.12,2.322 -1.498,3.564Zm82.616,11.42c-0.108,0.81 -0.297,1.85 -0.567,3.119c-0.27,1.269 -0.54,2.308 -0.81,3.118c-0.648,2.592 -1.593,4.995 -2.835,7.209c-1.242,2.214 -2.861,4.144 -4.859,5.791c-1.998,1.647 -4.428,2.943 -7.29,3.888c-2.862,0.945 -6.237,1.417 -10.125,1.417c-2.915,0 -5.602,-0.513 -8.059,-1.539c-2.457,-1.026 -4.563,-2.416 -6.317,-4.171c-1.755,-1.755 -3.038,-3.78 -3.848,-6.075c-0.81,-2.295 -0.999,-4.738 -0.567,-7.33c0.162,-0.81 0.378,-1.849 0.648,-3.118c0.27,-1.269 0.513,-2.309 0.729,-3.119c0.648,-2.592 1.62,-4.995 2.916,-7.208c1.296,-2.214 2.97,-4.158 5.022,-5.832c2.052,-1.674 4.495,-2.984 7.33,-3.929c2.835,-0.944 6.115,-1.417 9.841,-1.417c2.916,0 5.616,0.513 8.1,1.539c2.484,1.026 4.59,2.416 6.317,4.171c1.728,1.755 3.011,3.794 3.848,6.116c0.837,2.321 1.012,4.778 0.526,7.37Zm-30.616,5.427c-0.27,2.052 0.121,3.658 1.174,4.819c1.053,1.161 2.659,1.742 4.819,1.742c2.16,-0 4.037,-0.581 5.63,-1.742c1.593,-1.161 2.686,-2.767 3.28,-4.819c0.27,-0.81 0.499,-1.728 0.688,-2.754c0.189,-1.026 0.338,-1.944 0.446,-2.754c0.27,-2.052 -0.135,-3.658 -1.215,-4.819c-1.08,-1.161 -2.7,-1.742 -4.86,-1.742c-2.16,0 -4.023,0.581 -5.589,1.742c-1.566,1.161 -2.645,2.767 -3.239,4.819c-0.27,0.81 -0.5,1.728 -0.689,2.754c-0.189,1.026 -0.337,1.944 -0.445,2.754Zm76.784,16.118c-0.108,0.594 -0.418,1.107 -0.931,1.539c-0.513,0.432 -1.067,0.648 -1.661,0.648l-10.205,0c-0.594,0 -1.067,-0.216 -1.418,-0.648c-0.351,-0.432 -0.472,-0.945 -0.364,-1.539l4.374,-20.492c0.486,-2.322 0.31,-4.185 -0.527,-5.589c-0.837,-1.404 -2.47,-2.106 -4.9,-2.106c-2.43,0 -4.347,0.702 -5.751,2.106c-1.404,1.404 -2.349,3.267 -2.835,5.589l-4.374,20.492c-0.108,0.594 -0.418,1.107 -0.931,1.539c-0.513,0.432 -1.066,0.648 -1.66,0.648l-10.206,0c-0.594,0 -1.066,-0.216 -1.417,-0.648c-0.351,-0.432 -0.473,-0.945 -0.365,-1.539l8.019,-37.744c0.108,-0.594 0.432,-1.107 0.972,-1.539c0.54,-0.432 1.107,-0.648 1.701,-0.648l9.8,0c0.594,0 1.053,0.216 1.377,0.648c0.324,0.432 0.432,0.945 0.324,1.539l-0.405,1.863c1.134,-1.134 2.646,-2.228 4.536,-3.281c1.89,-1.052 4.266,-1.579 7.128,-1.579c2.43,0 4.67,0.365 6.722,1.093c2.052,0.729 3.767,1.85 5.144,3.362c1.377,1.512 2.322,3.429 2.835,5.751c0.513,2.321 0.445,5.075 -0.203,8.261l-4.779,22.274Zm52.081,0c-0.108,0.594 -0.419,1.107 -0.931,1.539c-0.513,0.432 -1.067,0.648 -1.661,0.648l-10.205,0c-0.594,0 -1.067,-0.216 -1.418,-0.648c-0.351,-0.432 -0.472,-0.945 -0.364,-1.539l4.373,-20.492c0.486,-2.322 0.311,-4.185 -0.526,-5.589c-0.837,-1.404 -2.47,-2.106 -4.9,-2.106c-2.43,0 -4.347,0.702 -5.751,2.106c-1.404,1.404 -2.349,3.267 -2.835,5.589l-4.374,20.492c-0.108,0.594 -0.418,1.107 -0.931,1.539c-0.513,0.432 -1.067,0.648 -1.661,0.648l-10.205,0c-0.594,0 -1.067,-0.216 -1.418,-0.648c-0.351,-0.432 -0.472,-0.945 -0.364,-1.539l8.019,-37.744c0.108,-0.594 0.431,-1.107 0.971,-1.539c0.54,-0.432 1.107,-0.648 1.701,-0.648l9.801,0c0.594,0 1.053,0.216 1.377,0.648c0.324,0.432 0.432,0.945 0.324,1.539l-0.405,1.863c1.134,-1.134 2.646,-2.228 4.536,-3.281c1.89,-1.052 4.266,-1.579 7.127,-1.579c2.43,0 4.671,0.365 6.723,1.093c2.052,0.729 3.766,1.85 5.143,3.362c1.377,1.512 2.322,3.429 2.835,5.751c0.513,2.321 0.446,5.075 -0.202,8.261l-4.779,22.274Zm24.542,-14.255c-0.27,1.242 -0.27,2.268 -0,3.078c0.27,0.81 0.715,1.458 1.336,1.944c0.621,0.486 1.337,0.823 2.147,1.012c0.81,0.189 1.62,0.284 2.43,0.284c1.62,-0 2.943,-0.162 3.968,-0.486c1.026,-0.324 1.917,-0.783 2.673,-1.377c0.702,-0.486 1.202,-0.797 1.499,-0.932c0.297,-0.135 0.769,-0.202 1.417,-0.202l10.53,-0c1.188,-0 1.647,0.594 1.377,1.782c-0.108,0.648 -0.594,1.633 -1.458,2.956c-0.864,1.323 -2.201,2.673 -4.01,4.05c-1.808,1.377 -4.144,2.578 -7.006,3.604c-2.862,1.026 -6.371,1.539 -10.529,1.539c-3.132,0 -5.954,-0.553 -8.464,-1.66c-2.511,-1.107 -4.577,-2.646 -6.197,-4.617c-1.62,-1.971 -2.74,-4.347 -3.361,-7.128c-0.621,-2.781 -0.553,-5.872 0.202,-9.274c0.648,-3.132 1.647,-5.994 2.997,-8.585c1.35,-2.592 3.078,-4.82 5.184,-6.683c2.106,-1.863 4.59,-3.294 7.452,-4.293c2.862,-0.998 6.156,-1.498 9.881,-1.498c3.564,0 6.602,0.662 9.112,1.984c2.511,1.323 4.523,3.038 6.035,5.144c1.512,2.106 2.497,4.468 2.956,7.087c0.459,2.619 0.419,5.224 -0.121,7.816l-0.486,2.268c-0.108,0.594 -0.419,1.107 -0.932,1.539c-0.513,0.432 -1.066,0.648 -1.66,0.648l-26.972,-0Zm10.529,-15.551c-2.267,-0 -4.13,0.675 -5.588,2.024c-1.458,1.35 -2.484,2.862 -3.078,4.536l14.579,0c0.162,-1.674 -0.229,-3.186 -1.174,-4.536c-0.945,-1.349 -2.525,-2.024 -4.739,-2.024Zm40.337,8.099c-0.27,0.81 -0.513,1.755 -0.729,2.835c-0.216,1.08 -0.378,2.025 -0.486,2.835c-0.27,1.944 0.121,3.51 1.174,4.698c1.053,1.188 2.66,1.782 4.819,1.782c1.782,-0 3.2,-0.257 4.253,-0.77c1.053,-0.513 1.984,-1.228 2.794,-2.146c0.378,-0.432 0.77,-0.81 1.175,-1.134c0.405,-0.324 0.904,-0.486 1.498,-0.486l10.611,-0c0.594,-0 1.08,0.216 1.458,0.648c0.378,0.432 0.459,0.945 0.243,1.539c-0.27,0.864 -0.783,2.133 -1.539,3.807c-0.756,1.674 -2.012,3.334 -3.767,4.981c-1.755,1.647 -4.117,3.078 -7.087,4.293c-2.97,1.215 -6.804,1.822 -11.501,1.822c-2.592,0 -5.13,-0.459 -7.614,-1.377c-2.484,-0.918 -4.63,-2.2 -6.439,-3.847c-1.809,-1.647 -3.159,-3.645 -4.05,-5.994c-0.891,-2.349 -1.094,-4.954 -0.608,-7.816c0.162,-0.81 0.378,-1.89 0.648,-3.24c0.27,-1.35 0.513,-2.43 0.729,-3.24c1.404,-5.723 4.199,-10.192 8.383,-13.405c4.185,-3.213 9.734,-4.819 16.645,-4.819c3.888,0 7.087,0.608 9.598,1.822c2.511,1.215 4.496,2.646 5.954,4.293c1.457,1.647 2.456,3.308 2.996,4.982c0.54,1.673 0.756,2.942 0.648,3.806c-0.108,0.594 -0.432,1.107 -0.972,1.539c-0.54,0.432 -1.107,0.648 -1.701,0.648l-10.61,0c-0.594,0 -1.026,-0.162 -1.296,-0.486c-0.27,-0.324 -0.486,-0.702 -0.648,-1.134c-0.432,-0.918 -1.066,-1.633 -1.903,-2.146c-0.837,-0.513 -2.147,-0.77 -3.929,-0.77c-2.16,0 -4.009,0.594 -5.548,1.782c-1.539,1.188 -2.605,2.754 -3.199,4.698Zm53.295,7.452c-0.27,1.242 -0.216,2.2 0.162,2.875c0.378,0.675 1.188,1.013 2.43,1.013l6.48,-0c0.594,-0 1.066,0.216 1.417,0.648c0.351,0.432 0.473,0.945 0.365,1.539l-1.782,8.18c-0.108,0.594 -0.419,1.107 -0.932,1.539c-0.512,0.432 -1.066,0.648 -1.66,0.648l-6.885,0c-2.106,0 -4.144,-0.364 -6.115,-1.093c-1.971,-0.729 -3.645,-1.782 -5.022,-3.159c-1.377,-1.377 -2.389,-3.051 -3.037,-5.022c-0.648,-1.971 -0.702,-4.198 -0.162,-6.682l2.916,-13.608l-5.994,0c-0.594,0 -1.053,-0.216 -1.377,-0.648c-0.324,-0.431 -0.432,-0.944 -0.324,-1.538l1.701,-8.181c0.108,-0.594 0.432,-1.107 0.972,-1.539c0.54,-0.432 1.107,-0.648 1.701,-0.648l5.994,0l2.835,-13.202c0.108,-0.594 0.418,-1.107 0.931,-1.539c0.513,-0.432 1.067,-0.648 1.661,-0.648l10.205,-0c0.594,-0 1.067,0.216 1.418,0.648c0.35,0.432 0.472,0.945 0.364,1.539l-2.835,13.202l9.153,0c0.594,0 1.053,0.216 1.377,0.648c0.324,0.432 0.432,0.945 0.324,1.539l-1.701,8.181c-0.108,0.594 -0.432,1.107 -0.972,1.538c-0.54,0.432 -1.107,0.648 -1.701,0.648l-9.153,0l-2.754,13.122Zm30.536,14.255c-0.108,0.594 -0.418,1.107 -0.931,1.539c-0.513,0.432 -1.067,0.648 -1.661,0.648l-10.205,0c-0.594,0 -1.067,-0.216 -1.418,-0.648c-0.351,-0.432 -0.472,-0.945 -0.364,-1.539l8.018,-37.744c0.108,-0.594 0.432,-1.107 0.972,-1.539c0.54,-0.432 1.107,-0.648 1.701,-0.648l10.206,0c0.594,0 1.053,0.216 1.377,0.648c0.324,0.432 0.432,0.945 0.324,1.539l-8.019,37.744Zm9.882,-46.573c-0.108,0.594 -0.419,1.107 -0.932,1.539c-0.513,0.432 -1.066,0.648 -1.66,0.648l-10.206,0c-0.594,0 -1.066,-0.216 -1.417,-0.648c-0.351,-0.432 -0.473,-0.945 -0.365,-1.539l1.782,-8.18c0.108,-0.594 0.432,-1.107 0.972,-1.539c0.54,-0.432 1.107,-0.648 1.701,-0.648l10.206,-0c0.594,-0 1.053,0.216 1.377,0.648c0.324,0.432 0.432,0.945 0.324,1.539l-1.782,8.18Zm46.33,25.028c-0.108,0.81 -0.297,1.85 -0.567,3.119c-0.27,1.269 -0.54,2.308 -0.81,3.118c-0.648,2.592 -1.593,4.995 -2.835,7.209c-1.242,2.214 -2.862,4.144 -4.86,5.791c-1.998,1.647 -4.428,2.943 -7.29,3.888c-2.862,0.945 -6.236,1.417 -10.124,1.417c-2.916,0 -5.603,-0.513 -8.059,-1.539c-2.457,-1.026 -4.563,-2.416 -6.318,-4.171c-1.755,-1.755 -3.038,-3.78 -3.847,-6.075c-0.81,-2.295 -0.999,-4.738 -0.567,-7.33c0.162,-0.81 0.378,-1.849 0.648,-3.118c0.27,-1.269 0.512,-2.309 0.728,-3.119c0.648,-2.592 1.62,-4.995 2.916,-7.208c1.296,-2.214 2.97,-4.158 5.022,-5.832c2.052,-1.674 4.495,-2.984 7.33,-3.929c2.835,-0.944 6.116,-1.417 9.841,-1.417c2.916,0 5.616,0.513 8.1,1.539c2.484,1.026 4.59,2.416 6.318,4.171c1.728,1.755 3.01,3.794 3.847,6.116c0.837,2.321 1.013,4.778 0.527,7.37Zm-30.617,5.427c-0.27,2.052 0.121,3.658 1.174,4.819c1.053,1.161 2.66,1.742 4.82,1.742c2.16,-0 4.036,-0.581 5.629,-1.742c1.593,-1.161 2.686,-2.767 3.28,-4.819c0.27,-0.81 0.5,-1.728 0.689,-2.754c0.189,-1.026 0.337,-1.944 0.445,-2.754c0.27,-2.052 -0.135,-3.658 -1.215,-4.819c-1.08,-1.161 -2.7,-1.742 -4.86,-1.742c-2.159,0 -4.022,0.581 -5.588,1.742c-1.566,1.161 -2.646,2.767 -3.24,4.819c-0.27,0.81 -0.5,1.728 -0.689,2.754c-0.189,1.026 -0.337,1.944 -0.445,2.754Zm76.785,16.118c-0.108,0.594 -0.419,1.107 -0.932,1.539c-0.513,0.432 -1.066,0.648 -1.66,0.648l-10.206,0c-0.594,0 -1.066,-0.216 -1.417,-0.648c-0.351,-0.432 -0.473,-0.945 -0.365,-1.539l4.374,-20.492c0.486,-2.322 0.31,-4.185 -0.526,-5.589c-0.837,-1.404 -2.471,-2.106 -4.901,-2.106c-2.43,0 -4.347,0.702 -5.751,2.106c-1.403,1.404 -2.348,3.267 -2.834,5.589l-4.374,20.492c-0.108,0.594 -0.419,1.107 -0.932,1.539c-0.513,0.432 -1.066,0.648 -1.66,0.648l-10.206,0c-0.594,0 -1.066,-0.216 -1.417,-0.648c-0.351,-0.432 -0.473,-0.945 -0.365,-1.539l8.019,-37.744c0.108,-0.594 0.432,-1.107 0.972,-1.539c0.54,-0.432 1.107,-0.648 1.701,-0.648l9.801,0c0.594,0 1.052,0.216 1.376,0.648c0.324,0.432 0.432,0.945 0.324,1.539l-0.405,1.863c1.134,-1.134 2.646,-2.228 4.536,-3.281c1.89,-1.052 4.266,-1.579 7.128,-1.579c2.43,0 4.671,0.365 6.723,1.093c2.052,0.729 3.766,1.85 5.143,3.362c1.377,1.512 2.322,3.429 2.835,5.751c0.513,2.321 0.445,5.075 -0.203,8.261l-4.778,22.274Zm47.737,-70.519c0.428,-0 0.734,0.191 0.917,0.573c0.183,0.382 0.153,0.741 -0.092,1.077l-14.987,19.112l-2.154,10.083c-0.062,0.337 -0.237,0.627 -0.528,0.871c-0.29,0.245 -0.603,0.367 -0.939,0.367l-3.621,-0c-0.336,-0 -0.603,-0.122 -0.802,-0.367c-0.199,-0.244 -0.267,-0.534 -0.206,-0.871l2.154,-10.083l-6.738,-18.975c-0.152,-0.489 -0.061,-0.909 0.275,-1.26c0.337,-0.352 0.718,-0.527 1.146,-0.527l3.117,-0c0.611,-0 1.031,0.152 1.26,0.458c0.229,0.306 0.375,0.535 0.436,0.687l4.537,12.788l9.992,-12.788c0.244,-0.305 0.512,-0.572 0.802,-0.802c0.29,-0.229 0.741,-0.343 1.352,-0.343l4.079,-0Zm21.679,26.354c0.337,-0 0.604,0.122 0.802,0.366c0.199,0.245 0.253,0.535 0.161,0.871l-0.688,3.254c-0.061,0.337 -0.236,0.627 -0.527,0.871c-0.29,0.245 -0.603,0.367 -0.939,0.367l-20.121,-0c-0.336,-0 -0.604,-0.122 -0.802,-0.367c-0.199,-0.244 -0.268,-0.534 -0.206,-0.871l6.325,-29.608c0.061,-0.336 0.236,-0.626 0.527,-0.871c0.29,-0.244 0.603,-0.366 0.939,-0.366l19.754,-0c0.337,-0 0.604,0.122 0.802,0.366c0.199,0.245 0.268,0.535 0.207,0.871l-0.734,3.254c-0.061,0.336 -0.236,0.627 -0.527,0.871c-0.29,0.245 -0.603,0.367 -0.939,0.367l-14.804,-0l-1.559,7.287l13.796,0c0.336,0 0.596,0.123 0.779,0.367c0.184,0.244 0.245,0.535 0.184,0.871l-0.688,3.254c-0.061,0.336 -0.244,0.626 -0.55,0.871c-0.305,0.244 -0.626,0.366 -0.962,0.366l-13.796,0l-1.604,7.609l15.17,-0Zm23.055,-26.813c1.955,0 3.666,0.275 5.133,0.825c1.467,0.55 2.674,1.238 3.621,2.063c0.947,0.825 1.627,1.734 2.039,2.727c0.413,0.993 0.558,1.933 0.436,2.819c-0.061,0.366 -0.237,0.664 -0.527,0.893c-0.291,0.23 -0.604,0.344 -0.94,0.344l-3.208,0c-0.52,0 -0.894,-0.099 -1.123,-0.298c-0.229,-0.198 -0.405,-0.466 -0.527,-0.802c-0.306,-0.764 -0.863,-1.428 -1.673,-1.994c-0.81,-0.565 -2.131,-0.848 -3.965,-0.848c-1.619,0 -3.071,0.329 -4.354,0.986c-1.283,0.657 -2.047,1.566 -2.292,2.727c-0.152,0.703 -0.129,1.276 0.069,1.719c0.199,0.443 0.604,0.84 1.215,1.191c0.611,0.352 1.451,0.665 2.521,0.94c1.069,0.275 2.413,0.596 4.033,0.962c3.514,0.795 5.92,2.01 7.219,3.644c1.298,1.635 1.703,3.629 1.214,5.981c-0.275,1.375 -0.748,2.621 -1.421,3.736c-0.672,1.115 -1.581,2.078 -2.727,2.887c-1.146,0.81 -2.551,1.429 -4.216,1.857c-1.666,0.427 -3.644,0.641 -5.936,0.641c-1.619,0 -3.2,-0.206 -4.744,-0.618c-1.543,-0.413 -2.902,-1.009 -4.079,-1.788c-1.176,-0.779 -2.085,-1.719 -2.727,-2.819c-0.641,-1.1 -0.855,-2.322 -0.641,-3.666c0.061,-0.367 0.236,-0.665 0.527,-0.894c0.29,-0.229 0.603,-0.344 0.939,-0.344l3.209,0c0.519,0 0.901,0.092 1.145,0.275c0.245,0.183 0.413,0.458 0.505,0.825c0.122,0.397 0.297,0.795 0.527,1.192c0.229,0.397 0.573,0.748 1.031,1.054c0.458,0.306 1.054,0.558 1.787,0.756c0.734,0.199 1.681,0.298 2.842,0.298c0.917,0 1.818,-0.069 2.704,-0.206c0.886,-0.138 1.688,-0.367 2.406,-0.688c0.719,-0.32 1.322,-0.718 1.811,-1.191c0.489,-0.474 0.81,-1.062 0.962,-1.765c0.153,-0.672 0.054,-1.222 -0.298,-1.65c-0.351,-0.428 -0.924,-0.802 -1.718,-1.123c-0.795,-0.321 -1.803,-0.626 -3.025,-0.916c-1.222,-0.291 -2.643,-0.65 -4.263,-1.078c-2.933,-0.763 -4.95,-1.94 -6.05,-3.529c-1.1,-1.589 -1.405,-3.636 -0.916,-6.141c0.519,-2.781 1.917,-4.973 4.193,-6.577c2.277,-1.605 5.37,-2.407 9.282,-2.407Zm44.091,0.459c0.336,-0 0.604,0.122 0.802,0.366c0.199,0.245 0.268,0.535 0.207,0.871l-6.325,29.608c-0.062,0.337 -0.237,0.627 -0.528,0.871c-0.29,0.245 -0.603,0.367 -0.939,0.367l-3.713,-0c-0.336,-0 -0.603,-0.122 -0.802,-0.367c-0.198,-0.244 -0.267,-0.534 -0.206,-0.871l2.567,-12.1l-13.842,0l-2.567,12.1c-0.061,0.337 -0.236,0.627 -0.527,0.871c-0.29,0.245 -0.603,0.367 -0.939,0.367l-3.713,-0c-0.336,-0 -0.603,-0.115 -0.802,-0.344c-0.198,-0.229 -0.267,-0.527 -0.206,-0.894l6.325,-29.608c0.061,-0.336 0.237,-0.626 0.527,-0.871c0.29,-0.244 0.603,-0.366 0.94,-0.366l3.712,-0c0.336,-0 0.604,0.122 0.802,0.366c0.199,0.245 0.268,0.535 0.206,0.871l-2.52,11.779l13.841,0l2.521,-11.779c0.061,-0.336 0.237,-0.626 0.527,-0.871c0.29,-0.244 0.604,-0.366 0.94,-0.366l3.712,-0Z"/>
    <g clip-path="url(#_clip1)">
        <clipPath id="_clip2">
            <path id="mask-bg" d="M124.796,310.054c3.024,-0 5.846,0.432 8.464,1.296c2.619,0.864 4.833,2.146 6.642,3.847c1.809,1.701 3.092,3.78 3.848,6.237c0.755,2.457 0.809,5.251 0.162,8.383c-0.702,3.186 -1.701,5.913 -2.997,8.18c-1.296,2.268 -2.97,4.158 -5.022,5.67c-2.052,1.512 -4.522,2.619 -7.411,3.321c-2.889,0.702 -6.251,1.053 -10.084,1.053l-11.178,-0l-3.564,16.523c-0.108,0.594 -0.418,1.107 -0.931,1.539c-0.513,0.432 -1.067,0.648 -1.661,0.648l-10.61,0c-0.594,0 -1.067,-0.216 -1.418,-0.648c-0.351,-0.432 -0.472,-0.945 -0.364,-1.539l11.177,-52.323c0.108,-0.594 0.419,-1.107 0.932,-1.539c0.513,-0.432 1.066,-0.648 1.66,-0.648l22.355,-0Zm-14.903,25.352l9.963,-0c2.267,-0 4.252,-0.5 5.953,-1.499c1.701,-0.999 2.794,-2.632 3.28,-4.9c0.432,-2.268 0.014,-3.902 -1.255,-4.9c-1.269,-0.999 -3.038,-1.499 -5.306,-1.499l-9.962,0l-2.673,12.798Zm40.903,-8.586c0.108,-0.594 0.432,-1.107 0.972,-1.539c0.54,-0.432 1.107,-0.648 1.701,-0.648l10.206,0c0.594,0 1.053,0.216 1.377,0.648c0.324,0.432 0.432,0.945 0.324,1.539l-4.293,20.492c-0.54,2.322 -0.446,4.185 0.283,5.589c0.729,1.404 2.282,2.106 4.658,2.106c2.375,-0 4.211,-0.702 5.507,-2.106c1.296,-1.404 2.214,-3.267 2.754,-5.589l4.293,-20.492c0.108,-0.594 0.432,-1.107 0.972,-1.539c0.54,-0.432 1.107,-0.648 1.701,-0.648l10.205,0c0.594,0 1.053,0.216 1.377,0.648c0.324,0.432 0.432,0.945 0.324,1.539l-8.018,37.744c-0.108,0.594 -0.419,1.107 -0.932,1.539c-0.513,0.432 -1.066,0.648 -1.66,0.648l-9.396,0c-0.594,0 -1.066,-0.216 -1.417,-0.648c-0.351,-0.432 -0.473,-0.945 -0.365,-1.539l0.405,-1.863c-0.594,0.594 -1.215,1.175 -1.863,1.742c-0.648,0.567 -1.417,1.08 -2.308,1.539c-0.891,0.459 -1.944,0.837 -3.159,1.134c-1.215,0.297 -2.659,0.445 -4.333,0.445c-2.214,0 -4.32,-0.364 -6.318,-1.093c-1.998,-0.729 -3.685,-1.85 -5.062,-3.362c-1.377,-1.512 -2.336,-3.429 -2.876,-5.75c-0.54,-2.322 -0.459,-5.076 0.243,-8.262l4.698,-22.274Zm81.726,-2.187c0.594,0 1.053,0.216 1.377,0.648c0.324,0.432 0.432,0.945 0.324,1.539l-1.701,8.181c-0.108,0.594 -0.432,1.107 -0.972,1.538c-0.54,0.432 -1.107,0.648 -1.701,0.648l-7.371,0c-2.43,0 -4.414,0.635 -5.953,1.904c-1.539,1.269 -2.552,3.118 -3.038,5.548l-4.292,19.925c-0.108,0.594 -0.419,1.107 -0.932,1.539c-0.513,0.432 -1.066,0.648 -1.66,0.648l-10.206,0c-0.594,0 -1.066,-0.216 -1.417,-0.648c-0.351,-0.432 -0.473,-0.945 -0.365,-1.539l8.019,-37.744c0.108,-0.594 0.432,-1.107 0.972,-1.539c0.54,-0.432 1.107,-0.648 1.701,-0.648l9.395,0c0.594,0 1.053,0.216 1.377,0.648c0.324,0.432 0.432,0.945 0.324,1.539l-0.405,1.863c1.242,-1.242 2.66,-2.228 4.253,-2.957c1.593,-0.729 3.793,-1.093 6.601,-1.093l5.67,0Zm14.903,25.676c-0.27,1.242 -0.27,2.268 0,3.078c0.27,0.81 0.715,1.458 1.336,1.944c0.621,0.486 1.337,0.823 2.147,1.012c0.81,0.189 1.62,0.284 2.43,0.284c1.62,-0 2.943,-0.162 3.969,-0.486c1.026,-0.324 1.916,-0.783 2.672,-1.377c0.702,-0.486 1.202,-0.797 1.499,-0.932c0.297,-0.135 0.769,-0.202 1.417,-0.202l10.53,-0c1.188,-0 1.647,0.594 1.377,1.782c-0.108,0.648 -0.594,1.633 -1.458,2.956c-0.864,1.323 -2.201,2.673 -4.009,4.05c-1.809,1.377 -4.145,2.578 -7.007,3.604c-2.862,1.026 -6.371,1.539 -10.529,1.539c-3.132,0 -5.953,-0.553 -8.464,-1.66c-2.511,-1.107 -4.577,-2.646 -6.197,-4.617c-1.619,-1.971 -2.74,-4.347 -3.361,-7.128c-0.621,-2.781 -0.553,-5.872 0.203,-9.274c0.648,-3.132 1.647,-5.994 2.996,-8.585c1.35,-2.592 3.078,-4.82 5.184,-6.683c2.106,-1.863 4.59,-3.294 7.452,-4.293c2.862,-0.998 6.156,-1.498 9.881,-1.498c3.564,0 6.602,0.662 9.113,1.984c2.51,1.323 4.522,3.038 6.034,5.144c1.512,2.106 2.497,4.468 2.956,7.087c0.459,2.619 0.419,5.224 -0.121,7.816l-0.486,2.268c-0.108,0.594 -0.419,1.107 -0.932,1.539c-0.513,0.432 -1.066,0.648 -1.66,0.648l-26.972,-0Zm10.53,-15.551c-2.268,-0 -4.131,0.675 -5.589,2.024c-1.458,1.35 -2.484,2.862 -3.078,4.536l14.579,0c0.162,-1.674 -0.229,-3.186 -1.174,-4.536c-0.945,-1.349 -2.525,-2.024 -4.738,-2.024Zm61.314,-3.159c-0.216,0.702 -0.473,1.674 -0.77,2.916c-0.297,1.242 -0.594,2.524 -0.891,3.847c-0.297,1.323 -0.553,2.619 -0.769,3.888c-0.216,1.269 -0.378,2.254 -0.486,2.956c-0.162,1.242 -0.175,2.43 -0.041,3.564c0.135,1.134 0.513,2.133 1.134,2.997c0.621,0.864 1.499,1.552 2.633,2.065c1.134,0.513 2.619,0.77 4.455,0.77c1.836,-0 3.388,-0.216 4.657,-0.648c1.269,-0.432 2.349,-0.959 3.24,-1.58c0.891,-0.621 1.62,-1.309 2.187,-2.065c0.567,-0.756 1.039,-1.458 1.417,-2.106c0.486,-0.864 0.918,-1.471 1.296,-1.822c0.378,-0.351 1.026,-0.527 1.944,-0.527l10.611,0c0.486,0 0.877,0.176 1.174,0.527c0.297,0.351 0.391,0.769 0.283,1.255c-0.648,2.754 -1.768,5.346 -3.361,7.776c-1.593,2.43 -3.604,4.535 -6.034,6.317c-2.43,1.782 -5.278,3.2 -8.545,4.253c-3.267,1.053 -6.871,1.579 -10.813,1.579c-3.51,0 -6.682,-0.58 -9.517,-1.741c-2.835,-1.161 -5.198,-2.741 -7.088,-4.739c-1.889,-1.997 -3.266,-4.333 -4.13,-7.006c-0.864,-2.673 -1.053,-5.494 -0.567,-8.464c0.324,-2.214 0.769,-4.59 1.336,-7.128c0.567,-2.537 1.148,-4.967 1.742,-7.289c0.755,-2.97 1.889,-5.792 3.401,-8.464c1.512,-2.673 3.443,-5.009 5.792,-7.007c2.349,-1.998 5.156,-3.577 8.423,-4.738c3.267,-1.161 7.06,-1.741 11.38,-1.741c3.132,-0 6.142,0.526 9.031,1.579c2.889,1.053 5.373,2.471 7.452,4.252c2.079,1.782 3.631,3.888 4.657,6.318c1.026,2.43 1.269,5.022 0.729,7.776c-0.108,0.486 -0.378,0.904 -0.81,1.255c-0.432,0.351 -0.891,0.527 -1.377,0.527l-10.61,-0c-0.918,-0 -1.485,-0.176 -1.701,-0.527c-0.216,-0.351 -0.378,-0.958 -0.486,-1.822c-0.108,-0.648 -0.284,-1.35 -0.527,-2.106c-0.243,-0.756 -0.674,-1.445 -1.295,-2.065c-0.621,-0.621 -1.485,-1.148 -2.592,-1.58c-1.107,-0.432 -2.579,-0.648 -4.415,-0.648c-1.836,0 -3.429,0.257 -4.778,0.77c-1.35,0.513 -2.511,1.201 -3.483,2.065c-0.972,0.864 -1.769,1.863 -2.39,2.997c-0.621,1.134 -1.12,2.322 -1.498,3.564Zm82.616,11.42c-0.108,0.81 -0.297,1.85 -0.567,3.119c-0.27,1.269 -0.54,2.308 -0.81,3.118c-0.648,2.592 -1.593,4.995 -2.835,7.209c-1.242,2.214 -2.861,4.144 -4.859,5.791c-1.998,1.647 -4.428,2.943 -7.29,3.888c-2.862,0.945 -6.237,1.417 -10.125,1.417c-2.915,0 -5.602,-0.513 -8.059,-1.539c-2.457,-1.026 -4.563,-2.416 -6.317,-4.171c-1.755,-1.755 -3.038,-3.78 -3.848,-6.075c-0.81,-2.295 -0.999,-4.738 -0.567,-7.33c0.162,-0.81 0.378,-1.849 0.648,-3.118c0.27,-1.269 0.513,-2.309 0.729,-3.119c0.648,-2.592 1.62,-4.995 2.916,-7.208c1.296,-2.214 2.97,-4.158 5.022,-5.832c2.052,-1.674 4.495,-2.984 7.33,-3.929c2.835,-0.944 6.115,-1.417 9.841,-1.417c2.916,0 5.616,0.513 8.1,1.539c2.484,1.026 4.59,2.416 6.317,4.171c1.728,1.755 3.011,3.794 3.848,6.116c0.837,2.321 1.012,4.778 0.526,7.37Zm-30.616,5.427c-0.27,2.052 0.121,3.658 1.174,4.819c1.053,1.161 2.659,1.742 4.819,1.742c2.16,-0 4.037,-0.581 5.63,-1.742c1.593,-1.161 2.686,-2.767 3.28,-4.819c0.27,-0.81 0.499,-1.728 0.688,-2.754c0.189,-1.026 0.338,-1.944 0.446,-2.754c0.27,-2.052 -0.135,-3.658 -1.215,-4.819c-1.08,-1.161 -2.7,-1.742 -4.86,-1.742c-2.16,0 -4.023,0.581 -5.589,1.742c-1.566,1.161 -2.645,2.767 -3.239,4.819c-0.27,0.81 -0.5,1.728 -0.689,2.754c-0.189,1.026 -0.337,1.944 -0.445,2.754Zm76.784,16.118c-0.108,0.594 -0.418,1.107 -0.931,1.539c-0.513,0.432 -1.067,0.648 -1.661,0.648l-10.205,0c-0.594,0 -1.067,-0.216 -1.418,-0.648c-0.351,-0.432 -0.472,-0.945 -0.364,-1.539l4.374,-20.492c0.486,-2.322 0.31,-4.185 -0.527,-5.589c-0.837,-1.404 -2.47,-2.106 -4.9,-2.106c-2.43,0 -4.347,0.702 -5.751,2.106c-1.404,1.404 -2.349,3.267 -2.835,5.589l-4.374,20.492c-0.108,0.594 -0.418,1.107 -0.931,1.539c-0.513,0.432 -1.066,0.648 -1.66,0.648l-10.206,0c-0.594,0 -1.066,-0.216 -1.417,-0.648c-0.351,-0.432 -0.473,-0.945 -0.365,-1.539l8.019,-37.744c0.108,-0.594 0.432,-1.107 0.972,-1.539c0.54,-0.432 1.107,-0.648 1.701,-0.648l9.8,0c0.594,0 1.053,0.216 1.377,0.648c0.324,0.432 0.432,0.945 0.324,1.539l-0.405,1.863c1.134,-1.134 2.646,-2.228 4.536,-3.281c1.89,-1.052 4.266,-1.579 7.128,-1.579c2.43,0 4.67,0.365 6.722,1.093c2.052,0.729 3.767,1.85 5.144,3.362c1.377,1.512 2.322,3.429 2.835,5.751c0.513,2.321 0.445,5.075 -0.203,8.261l-4.779,22.274Zm52.081,0c-0.108,0.594 -0.419,1.107 -0.931,1.539c-0.513,0.432 -1.067,0.648 -1.661,0.648l-10.205,0c-0.594,0 -1.067,-0.216 -1.418,-0.648c-0.351,-0.432 -0.472,-0.945 -0.364,-1.539l4.373,-20.492c0.486,-2.322 0.311,-4.185 -0.526,-5.589c-0.837,-1.404 -2.47,-2.106 -4.9,-2.106c-2.43,0 -4.347,0.702 -5.751,2.106c-1.404,1.404 -2.349,3.267 -2.835,5.589l-4.374,20.492c-0.108,0.594 -0.418,1.107 -0.931,1.539c-0.513,0.432 -1.067,0.648 -1.661,0.648l-10.205,0c-0.594,0 -1.067,-0.216 -1.418,-0.648c-0.351,-0.432 -0.472,-0.945 -0.364,-1.539l8.019,-37.744c0.108,-0.594 0.431,-1.107 0.971,-1.539c0.54,-0.432 1.107,-0.648 1.701,-0.648l9.801,0c0.594,0 1.053,0.216 1.377,0.648c0.324,0.432 0.432,0.945 0.324,1.539l-0.405,1.863c1.134,-1.134 2.646,-2.228 4.536,-3.281c1.89,-1.052 4.266,-1.579 7.127,-1.579c2.43,0 4.671,0.365 6.723,1.093c2.052,0.729 3.766,1.85 5.143,3.362c1.377,1.512 2.322,3.429 2.835,5.751c0.513,2.321 0.446,5.075 -0.202,8.261l-4.779,22.274Zm24.542,-14.255c-0.27,1.242 -0.27,2.268 -0,3.078c0.27,0.81 0.715,1.458 1.336,1.944c0.621,0.486 1.337,0.823 2.147,1.012c0.81,0.189 1.62,0.284 2.43,0.284c1.62,-0 2.943,-0.162 3.968,-0.486c1.026,-0.324 1.917,-0.783 2.673,-1.377c0.702,-0.486 1.202,-0.797 1.499,-0.932c0.297,-0.135 0.769,-0.202 1.417,-0.202l10.53,-0c1.188,-0 1.647,0.594 1.377,1.782c-0.108,0.648 -0.594,1.633 -1.458,2.956c-0.864,1.323 -2.201,2.673 -4.01,4.05c-1.808,1.377 -4.144,2.578 -7.006,3.604c-2.862,1.026 -6.371,1.539 -10.529,1.539c-3.132,0 -5.954,-0.553 -8.464,-1.66c-2.511,-1.107 -4.577,-2.646 -6.197,-4.617c-1.62,-1.971 -2.74,-4.347 -3.361,-7.128c-0.621,-2.781 -0.553,-5.872 0.202,-9.274c0.648,-3.132 1.647,-5.994 2.997,-8.585c1.35,-2.592 3.078,-4.82 5.184,-6.683c2.106,-1.863 4.59,-3.294 7.452,-4.293c2.862,-0.998 6.156,-1.498 9.881,-1.498c3.564,0 6.602,0.662 9.112,1.984c2.511,1.323 4.523,3.038 6.035,5.144c1.512,2.106 2.497,4.468 2.956,7.087c0.459,2.619 0.419,5.224 -0.121,7.816l-0.486,2.268c-0.108,0.594 -0.419,1.107 -0.932,1.539c-0.513,0.432 -1.066,0.648 -1.66,0.648l-26.972,-0Zm10.529,-15.551c-2.267,-0 -4.13,0.675 -5.588,2.024c-1.458,1.35 -2.484,2.862 -3.078,4.536l14.579,0c0.162,-1.674 -0.229,-3.186 -1.174,-4.536c-0.945,-1.349 -2.525,-2.024 -4.739,-2.024Zm40.337,8.099c-0.27,0.81 -0.513,1.755 -0.729,2.835c-0.216,1.08 -0.378,2.025 -0.486,2.835c-0.27,1.944 0.121,3.51 1.174,4.698c1.053,1.188 2.66,1.782 4.819,1.782c1.782,-0 3.2,-0.257 4.253,-0.77c1.053,-0.513 1.984,-1.228 2.794,-2.146c0.378,-0.432 0.77,-0.81 1.175,-1.134c0.405,-0.324 0.904,-0.486 1.498,-0.486l10.611,-0c0.594,-0 1.08,0.216 1.458,0.648c0.378,0.432 0.459,0.945 0.243,1.539c-0.27,0.864 -0.783,2.133 -1.539,3.807c-0.756,1.674 -2.012,3.334 -3.767,4.981c-1.755,1.647 -4.117,3.078 -7.087,4.293c-2.97,1.215 -6.804,1.822 -11.501,1.822c-2.592,0 -5.13,-0.459 -7.614,-1.377c-2.484,-0.918 -4.63,-2.2 -6.439,-3.847c-1.809,-1.647 -3.159,-3.645 -4.05,-5.994c-0.891,-2.349 -1.094,-4.954 -0.608,-7.816c0.162,-0.81 0.378,-1.89 0.648,-3.24c0.27,-1.35 0.513,-2.43 0.729,-3.24c1.404,-5.723 4.199,-10.192 8.383,-13.405c4.185,-3.213 9.734,-4.819 16.645,-4.819c3.888,0 7.087,0.608 9.598,1.822c2.511,1.215 4.496,2.646 5.954,4.293c1.457,1.647 2.456,3.308 2.996,4.982c0.54,1.673 0.756,2.942 0.648,3.806c-0.108,0.594 -0.432,1.107 -0.972,1.539c-0.54,0.432 -1.107,0.648 -1.701,0.648l-10.61,0c-0.594,0 -1.026,-0.162 -1.296,-0.486c-0.27,-0.324 -0.486,-0.702 -0.648,-1.134c-0.432,-0.918 -1.066,-1.633 -1.903,-2.146c-0.837,-0.513 -2.147,-0.77 -3.929,-0.77c-2.16,0 -4.009,0.594 -5.548,1.782c-1.539,1.188 -2.605,2.754 -3.199,4.698Zm53.295,7.452c-0.27,1.242 -0.216,2.2 0.162,2.875c0.378,0.675 1.188,1.013 2.43,1.013l6.48,-0c0.594,-0 1.066,0.216 1.417,0.648c0.351,0.432 0.473,0.945 0.365,1.539l-1.782,8.18c-0.108,0.594 -0.419,1.107 -0.932,1.539c-0.512,0.432 -1.066,0.648 -1.66,0.648l-6.885,0c-2.106,0 -4.144,-0.364 -6.115,-1.093c-1.971,-0.729 -3.645,-1.782 -5.022,-3.159c-1.377,-1.377 -2.389,-3.051 -3.037,-5.022c-0.648,-1.971 -0.702,-4.198 -0.162,-6.682l2.916,-13.608l-5.994,0c-0.594,0 -1.053,-0.216 -1.377,-0.648c-0.324,-0.431 -0.432,-0.944 -0.324,-1.538l1.701,-8.181c0.108,-0.594 0.432,-1.107 0.972,-1.539c0.54,-0.432 1.107,-0.648 1.701,-0.648l5.994,0l2.835,-13.202c0.108,-0.594 0.418,-1.107 0.931,-1.539c0.513,-0.432 1.067,-0.648 1.661,-0.648l10.205,-0c0.594,-0 1.067,0.216 1.418,0.648c0.35,0.432 0.472,0.945 0.364,1.539l-2.835,13.202l9.153,0c0.594,0 1.053,0.216 1.377,0.648c0.324,0.432 0.432,0.945 0.324,1.539l-1.701,8.181c-0.108,0.594 -0.432,1.107 -0.972,1.538c-0.54,0.432 -1.107,0.648 -1.701,0.648l-9.153,0l-2.754,13.122Zm30.536,14.255c-0.108,0.594 -0.418,1.107 -0.931,1.539c-0.513,0.432 -1.067,0.648 -1.661,0.648l-10.205,0c-0.594,0 -1.067,-0.216 -1.418,-0.648c-0.351,-0.432 -0.472,-0.945 -0.364,-1.539l8.018,-37.744c0.108,-0.594 0.432,-1.107 0.972,-1.539c0.54,-0.432 1.107,-0.648 1.701,-0.648l10.206,0c0.594,0 1.053,0.216 1.377,0.648c0.324,0.432 0.432,0.945 0.324,1.539l-8.019,37.744Zm9.882,-46.573c-0.108,0.594 -0.419,1.107 -0.932,1.539c-0.513,0.432 -1.066,0.648 -1.66,0.648l-10.206,0c-0.594,0 -1.066,-0.216 -1.417,-0.648c-0.351,-0.432 -0.473,-0.945 -0.365,-1.539l1.782,-8.18c0.108,-0.594 0.432,-1.107 0.972,-1.539c0.54,-0.432 1.107,-0.648 1.701,-0.648l10.206,-0c0.594,-0 1.053,0.216 1.377,0.648c0.324,0.432 0.432,0.945 0.324,1.539l-1.782,8.18Zm46.33,25.028c-0.108,0.81 -0.297,1.85 -0.567,3.119c-0.27,1.269 -0.54,2.308 -0.81,3.118c-0.648,2.592 -1.593,4.995 -2.835,7.209c-1.242,2.214 -2.862,4.144 -4.86,5.791c-1.998,1.647 -4.428,2.943 -7.29,3.888c-2.862,0.945 -6.236,1.417 -10.124,1.417c-2.916,0 -5.603,-0.513 -8.059,-1.539c-2.457,-1.026 -4.563,-2.416 -6.318,-4.171c-1.755,-1.755 -3.038,-3.78 -3.847,-6.075c-0.81,-2.295 -0.999,-4.738 -0.567,-7.33c0.162,-0.81 0.378,-1.849 0.648,-3.118c0.27,-1.269 0.512,-2.309 0.728,-3.119c0.648,-2.592 1.62,-4.995 2.916,-7.208c1.296,-2.214 2.97,-4.158 5.022,-5.832c2.052,-1.674 4.495,-2.984 7.33,-3.929c2.835,-0.944 6.116,-1.417 9.841,-1.417c2.916,0 5.616,0.513 8.1,1.539c2.484,1.026 4.59,2.416 6.318,4.171c1.728,1.755 3.01,3.794 3.847,6.116c0.837,2.321 1.013,4.778 0.527,7.37Zm-30.617,5.427c-0.27,2.052 0.121,3.658 1.174,4.819c1.053,1.161 2.66,1.742 4.82,1.742c2.16,-0 4.036,-0.581 5.629,-1.742c1.593,-1.161 2.686,-2.767 3.28,-4.819c0.27,-0.81 0.5,-1.728 0.689,-2.754c0.189,-1.026 0.337,-1.944 0.445,-2.754c0.27,-2.052 -0.135,-3.658 -1.215,-4.819c-1.08,-1.161 -2.7,-1.742 -4.86,-1.742c-2.159,0 -4.022,0.581 -5.588,1.742c-1.566,1.161 -2.646,2.767 -3.24,4.819c-0.27,0.81 -0.5,1.728 -0.689,2.754c-0.189,1.026 -0.337,1.944 -0.445,2.754Zm76.785,16.118c-0.108,0.594 -0.419,1.107 -0.932,1.539c-0.513,0.432 -1.066,0.648 -1.66,0.648l-10.206,0c-0.594,0 -1.066,-0.216 -1.417,-0.648c-0.351,-0.432 -0.473,-0.945 -0.365,-1.539l4.374,-20.492c0.486,-2.322 0.31,-4.185 -0.526,-5.589c-0.837,-1.404 -2.471,-2.106 -4.901,-2.106c-2.43,0 -4.347,0.702 -5.751,2.106c-1.403,1.404 -2.348,3.267 -2.834,5.589l-4.374,20.492c-0.108,0.594 -0.419,1.107 -0.932,1.539c-0.513,0.432 -1.066,0.648 -1.66,0.648l-10.206,0c-0.594,0 -1.066,-0.216 -1.417,-0.648c-0.351,-0.432 -0.473,-0.945 -0.365,-1.539l8.019,-37.744c0.108,-0.594 0.432,-1.107 0.972,-1.539c0.54,-0.432 1.107,-0.648 1.701,-0.648l9.801,0c0.594,0 1.052,0.216 1.376,0.648c0.324,0.432 0.432,0.945 0.324,1.539l-0.405,1.863c1.134,-1.134 2.646,-2.228 4.536,-3.281c1.89,-1.052 4.266,-1.579 7.128,-1.579c2.43,0 4.671,0.365 6.723,1.093c2.052,0.729 3.766,1.85 5.143,3.362c1.377,1.512 2.322,3.429 2.835,5.751c0.513,2.321 0.445,5.075 -0.203,8.261l-4.778,22.274Zm47.737,-70.519c0.428,-0 0.734,0.191 0.917,0.573c0.183,0.382 0.153,0.741 -0.092,1.077l-14.987,19.112l-2.154,10.083c-0.062,0.337 -0.237,0.627 -0.528,0.871c-0.29,0.245 -0.603,0.367 -0.939,0.367l-3.621,-0c-0.336,-0 -0.603,-0.122 -0.802,-0.367c-0.199,-0.244 -0.267,-0.534 -0.206,-0.871l2.154,-10.083l-6.738,-18.975c-0.152,-0.489 -0.061,-0.909 0.275,-1.26c0.337,-0.352 0.718,-0.527 1.146,-0.527l3.117,-0c0.611,-0 1.031,0.152 1.26,0.458c0.229,0.306 0.375,0.535 0.436,0.687l4.537,12.788l9.992,-12.788c0.244,-0.305 0.512,-0.572 0.802,-0.802c0.29,-0.229 0.741,-0.343 1.352,-0.343l4.079,-0Zm21.679,26.354c0.337,-0 0.604,0.122 0.802,0.366c0.199,0.245 0.253,0.535 0.161,0.871l-0.688,3.254c-0.061,0.337 -0.236,0.627 -0.527,0.871c-0.29,0.245 -0.603,0.367 -0.939,0.367l-20.121,-0c-0.336,-0 -0.604,-0.122 -0.802,-0.367c-0.199,-0.244 -0.268,-0.534 -0.206,-0.871l6.325,-29.608c0.061,-0.336 0.236,-0.626 0.527,-0.871c0.29,-0.244 0.603,-0.366 0.939,-0.366l19.754,-0c0.337,-0 0.604,0.122 0.802,0.366c0.199,0.245 0.268,0.535 0.207,0.871l-0.734,3.254c-0.061,0.336 -0.236,0.627 -0.527,0.871c-0.29,0.245 -0.603,0.367 -0.939,0.367l-14.804,-0l-1.559,7.287l13.796,0c0.336,0 0.596,0.123 0.779,0.367c0.184,0.244 0.245,0.535 0.184,0.871l-0.688,3.254c-0.061,0.336 -0.244,0.626 -0.55,0.871c-0.305,0.244 -0.626,0.366 -0.962,0.366l-13.796,0l-1.604,7.609l15.17,-0Zm23.055,-26.813c1.955,0 3.666,0.275 5.133,0.825c1.467,0.55 2.674,1.238 3.621,2.063c0.947,0.825 1.627,1.734 2.039,2.727c0.413,0.993 0.558,1.933 0.436,2.819c-0.061,0.366 -0.237,0.664 -0.527,0.893c-0.291,0.23 -0.604,0.344 -0.94,0.344l-3.208,0c-0.52,0 -0.894,-0.099 -1.123,-0.298c-0.229,-0.198 -0.405,-0.466 -0.527,-0.802c-0.306,-0.764 -0.863,-1.428 -1.673,-1.994c-0.81,-0.565 -2.131,-0.848 -3.965,-0.848c-1.619,0 -3.071,0.329 -4.354,0.986c-1.283,0.657 -2.047,1.566 -2.292,2.727c-0.152,0.703 -0.129,1.276 0.069,1.719c0.199,0.443 0.604,0.84 1.215,1.191c0.611,0.352 1.451,0.665 2.521,0.94c1.069,0.275 2.413,0.596 4.033,0.962c3.514,0.795 5.92,2.01 7.219,3.644c1.298,1.635 1.703,3.629 1.214,5.981c-0.275,1.375 -0.748,2.621 -1.421,3.736c-0.672,1.115 -1.581,2.078 -2.727,2.887c-1.146,0.81 -2.551,1.429 -4.216,1.857c-1.666,0.427 -3.644,0.641 -5.936,0.641c-1.619,0 -3.2,-0.206 -4.744,-0.618c-1.543,-0.413 -2.902,-1.009 -4.079,-1.788c-1.176,-0.779 -2.085,-1.719 -2.727,-2.819c-0.641,-1.1 -0.855,-2.322 -0.641,-3.666c0.061,-0.367 0.236,-0.665 0.527,-0.894c0.29,-0.229 0.603,-0.344 0.939,-0.344l3.209,0c0.519,0 0.901,0.092 1.145,0.275c0.245,0.183 0.413,0.458 0.505,0.825c0.122,0.397 0.297,0.795 0.527,1.192c0.229,0.397 0.573,0.748 1.031,1.054c0.458,0.306 1.054,0.558 1.787,0.756c0.734,0.199 1.681,0.298 2.842,0.298c0.917,0 1.818,-0.069 2.704,-0.206c0.886,-0.138 1.688,-0.367 2.406,-0.688c0.719,-0.32 1.322,-0.718 1.811,-1.191c0.489,-0.474 0.81,-1.062 0.962,-1.765c0.153,-0.672 0.054,-1.222 -0.298,-1.65c-0.351,-0.428 -0.924,-0.802 -1.718,-1.123c-0.795,-0.321 -1.803,-0.626 -3.025,-0.916c-1.222,-0.291 -2.643,-0.65 -4.263,-1.078c-2.933,-0.763 -4.95,-1.94 -6.05,-3.529c-1.1,-1.589 -1.405,-3.636 -0.916,-6.141c0.519,-2.781 1.917,-4.973 4.193,-6.577c2.277,-1.605 5.37,-2.407 9.282,-2.407Zm44.091,0.459c0.336,-0 0.604,0.122 0.802,0.366c0.199,0.245 0.268,0.535 0.207,0.871l-6.325,29.608c-0.062,0.337 -0.237,0.627 -0.528,0.871c-0.29,0.245 -0.603,0.367 -0.939,0.367l-3.713,-0c-0.336,-0 -0.603,-0.122 -0.802,-0.367c-0.198,-0.244 -0.267,-0.534 -0.206,-0.871l2.567,-12.1l-13.842,0l-2.567,12.1c-0.061,0.337 -0.236,0.627 -0.527,0.871c-0.29,0.245 -0.603,0.367 -0.939,0.367l-3.713,-0c-0.336,-0 -0.603,-0.115 -0.802,-0.344c-0.198,-0.229 -0.267,-0.527 -0.206,-0.894l6.325,-29.608c0.061,-0.336 0.237,-0.626 0.527,-0.871c0.29,-0.244 0.603,-0.366 0.94,-0.366l3.712,-0c0.336,-0 0.604,0.122 0.802,0.366c0.199,0.245 0.268,0.535 0.206,0.871l-2.52,11.779l13.841,0l2.521,-11.779c0.061,-0.336 0.237,-0.626 0.527,-0.871c0.29,-0.244 0.604,-0.366 0.94,-0.366l3.712,-0Z" clip-rule="nonzero"/>
        </clipPath>
        <g clip-path="url(#_clip2)">
            <rect x="65.892" y="281.316" width="1761.77" height="104.712" style="fill:url(#pc-gradient);"/>
        </g>
    </g>
    <g id="decent">
        <path d="M156.892,24.771c11.922,0 21.952,1.571 30.088,4.713c8.136,3.141 14.54,7.612 19.212,13.412c4.672,5.8 7.734,12.809 9.184,21.025c1.45,8.217 1.369,17.4 -0.242,27.55c-0.967,6.122 -2.054,12.084 -3.263,17.884c-1.208,5.8 -2.698,11.761 -4.47,17.883c-2.739,10.15 -6.566,19.333 -11.48,27.55c-4.913,8.217 -10.875,15.225 -17.883,21.025c-7.008,5.8 -15.144,10.271 -24.408,13.412c-9.264,3.142 -19.696,4.713 -31.296,4.713l-60.9,-0c-1.772,-0 -3.182,-0.645 -4.229,-1.933c-1.047,-1.289 -1.41,-2.82 -1.088,-4.592l33.35,-156.117c0.322,-1.772 1.249,-3.303 2.779,-4.591c1.531,-1.289 3.182,-1.934 4.955,-1.934l59.691,0Zm25.617,66.7c0.805,-5.155 0.846,-9.948 0.121,-14.379c-0.725,-4.43 -2.417,-8.297 -5.075,-11.6c-2.659,-3.303 -6.284,-5.88 -10.875,-7.733c-4.592,-1.853 -10.352,-2.779 -17.279,-2.779l-32.384,-0l-23.2,108.75l33.592,-0c6.605,-0 12.526,-0.927 17.762,-2.78c5.237,-1.852 9.828,-4.39 13.775,-7.612c3.948,-3.222 7.21,-7.089 9.788,-11.6c2.578,-4.511 4.592,-9.345 6.042,-14.5c1.772,-6.122 3.262,-12.083 4.47,-17.883c1.209,-5.8 2.296,-11.762 3.263,-17.884Z"/>
        <path d="M229.392,130.138c1.934,-9.022 4.753,-17.44 8.459,-25.254c3.705,-7.814 8.418,-14.621 14.137,-20.421c5.72,-5.8 12.526,-10.351 20.421,-13.654c7.894,-3.303 16.997,-4.954 27.308,-4.954c8.378,-0 15.991,1.651 22.838,4.954c6.847,3.303 12.486,7.733 16.916,13.291c4.431,5.559 7.492,12.084 9.184,19.575c1.691,7.492 1.651,15.346 -0.121,23.563l-2.175,10.875c-0.483,1.772 -1.49,3.303 -3.021,4.592c-1.53,1.288 -3.182,1.933 -4.954,1.933l-80.717,-0c-0.805,3.705 -0.725,6.968 0.242,9.787c0.967,2.82 2.537,5.196 4.712,7.13c2.175,1.933 4.834,3.383 7.975,4.35c3.142,0.966 6.485,1.45 10.03,1.45c5.155,-0 9.465,-0.524 12.929,-1.571c3.464,-1.047 6.404,-2.377 8.821,-3.988c1.933,-1.289 3.544,-2.175 4.833,-2.658c1.289,-0.483 2.9,-0.725 4.833,-0.725l19.334,-0c1.772,-0 3.182,0.644 4.229,1.933c1.047,1.289 1.329,2.82 0.846,4.592c-0.645,2.255 -2.296,5.155 -4.955,8.7c-2.658,3.544 -6.444,7.008 -11.358,10.392c-4.914,3.383 -10.955,6.283 -18.125,8.7c-7.169,2.416 -15.587,3.625 -25.254,3.625c-7.895,-0 -15.185,-1.652 -21.871,-4.955c-6.686,-3.302 -12.244,-7.854 -16.675,-13.654c-4.43,-5.8 -7.532,-12.768 -9.304,-20.904c-1.772,-8.136 -1.611,-17.037 0.483,-26.704Zm66.7,-35.283c-4.672,-0 -8.821,0.684 -12.446,2.054c-3.625,1.369 -6.807,3.141 -9.545,5.316c-2.739,2.175 -4.995,4.592 -6.767,7.25c-1.772,2.659 -3.061,5.196 -3.867,7.613l54.617,-0c0.161,-2.417 0.08,-4.954 -0.242,-7.613c-0.322,-2.658 -1.248,-5.075 -2.779,-7.25c-1.53,-2.175 -3.786,-3.947 -6.767,-5.316c-2.98,-1.37 -7.048,-2.054 -12.204,-2.054Z"/>
        <path d="M477.584,140.288c0.805,-2.095 1.974,-3.665 3.504,-4.713c1.531,-1.047 3.101,-1.57 4.713,-1.57l19.575,-0c1.772,-0 3.222,0.604 4.35,1.812c1.127,1.208 1.369,2.779 0.725,4.713c-1.773,6.605 -4.552,13.211 -8.338,19.816c-3.786,6.606 -8.901,12.567 -15.346,17.884c-6.444,5.316 -14.419,9.666 -23.925,13.05c-9.505,3.383 -20.783,5.075 -33.833,5.075c-10.472,-0 -19.736,-1.652 -27.792,-4.955c-8.055,-3.302 -14.661,-7.894 -19.816,-13.775c-5.156,-5.88 -8.741,-12.929 -10.755,-21.145c-2.013,-8.217 -2.295,-17.159 -0.845,-26.825c0.966,-6.123 2.215,-12.889 3.745,-20.3c1.531,-7.412 3.182,-14.178 4.955,-20.3c2.577,-9.667 6.162,-18.609 10.754,-26.825c4.591,-8.217 10.271,-15.266 17.037,-21.146c6.767,-5.881 14.661,-10.472 23.684,-13.775c9.022,-3.303 19.413,-4.954 31.175,-4.954c11.922,-0 22.072,1.691 30.45,5.075c8.377,3.383 15.104,7.733 20.179,13.05c5.075,5.316 8.579,11.318 10.512,18.004c1.934,6.686 2.417,13.251 1.45,19.696c-0.322,1.933 -1.248,3.504 -2.779,4.712c-1.53,1.208 -3.182,1.813 -4.954,1.813l-19.575,-0c-1.611,-0 -3.061,-0.524 -4.35,-1.571c-1.289,-1.047 -1.853,-2.618 -1.692,-4.713c0.161,-3.222 -0.282,-6.364 -1.329,-9.425c-1.047,-3.061 -2.86,-5.8 -5.437,-8.216c-2.578,-2.417 -6.042,-4.391 -10.392,-5.921c-4.35,-1.531 -9.667,-2.296 -15.95,-2.296c-6.283,-0 -11.963,0.967 -17.038,2.9c-5.075,1.933 -9.545,4.511 -13.412,7.733c-3.867,3.222 -7.089,7.089 -9.667,11.6c-2.578,4.511 -4.591,9.264 -6.041,14.259c-1.773,6.122 -3.424,12.888 -4.955,20.3c-1.53,7.411 -2.779,14.177 -3.745,20.3c-0.806,5.155 -0.846,9.948 -0.121,14.379c0.725,4.43 2.336,8.257 4.833,11.479c2.497,3.222 5.881,5.8 10.15,7.733c4.27,1.934 9.546,2.9 15.829,2.9c6.284,0 11.922,-0.765 16.917,-2.296c4.994,-1.53 9.304,-3.504 12.929,-5.92c3.625,-2.417 6.646,-5.156 9.063,-8.217c2.416,-3.061 4.269,-6.203 5.558,-9.425Z"/>
        <path d="M531.717,130.138c1.934,-9.022 4.753,-17.44 8.459,-25.254c3.705,-7.814 8.418,-14.621 14.137,-20.421c5.72,-5.8 12.526,-10.351 20.421,-13.654c7.894,-3.303 16.997,-4.954 27.308,-4.954c8.378,-0 15.991,1.651 22.838,4.954c6.847,3.303 12.486,7.733 16.916,13.291c4.431,5.559 7.492,12.084 9.184,19.575c1.691,7.492 1.651,15.346 -0.121,23.563l-2.175,10.875c-0.483,1.772 -1.49,3.303 -3.021,4.592c-1.53,1.288 -3.182,1.933 -4.954,1.933l-80.717,-0c-0.805,3.705 -0.725,6.968 0.242,9.787c0.967,2.82 2.537,5.196 4.712,7.13c2.175,1.933 4.834,3.383 7.975,4.35c3.142,0.966 6.485,1.45 10.03,1.45c5.155,-0 9.465,-0.524 12.929,-1.571c3.464,-1.047 6.404,-2.377 8.821,-3.988c1.933,-1.289 3.544,-2.175 4.833,-2.658c1.289,-0.483 2.9,-0.725 4.833,-0.725l19.334,-0c1.772,-0 3.182,0.644 4.229,1.933c1.047,1.289 1.329,2.82 0.846,4.592c-0.645,2.255 -2.296,5.155 -4.955,8.7c-2.658,3.544 -6.444,7.008 -11.358,10.392c-4.914,3.383 -10.955,6.283 -18.125,8.7c-7.169,2.416 -15.587,3.625 -25.254,3.625c-7.895,-0 -15.185,-1.652 -21.871,-4.955c-6.686,-3.302 -12.244,-7.854 -16.675,-13.654c-4.43,-5.8 -7.532,-12.768 -9.304,-20.904c-1.772,-8.136 -1.611,-17.037 0.483,-26.704Zm66.7,-35.283c-4.672,-0 -8.821,0.684 -12.446,2.054c-3.625,1.369 -6.807,3.141 -9.545,5.316c-2.739,2.175 -4.995,4.592 -6.767,7.25c-1.772,2.659 -3.061,5.196 -3.867,7.613l54.617,-0c0.161,-2.417 0.08,-4.954 -0.242,-7.613c-0.322,-2.658 -1.248,-5.075 -2.779,-7.25c-1.53,-2.175 -3.786,-3.947 -6.767,-5.316c-2.98,-1.37 -7.048,-2.054 -12.204,-2.054Z"/>
        <path d="M781.842,187.413c-0.322,1.772 -1.248,3.303 -2.779,4.592c-1.53,1.288 -3.182,1.933 -4.954,1.933l-18.367,-0c-1.772,-0 -3.182,-0.645 -4.229,-1.933c-1.047,-1.289 -1.41,-2.82 -1.087,-4.592l13.05,-61.383c2.094,-9.667 1.49,-17.4 -1.813,-23.2c-3.303,-5.8 -9.626,-8.7 -18.971,-8.7c-8.539,-0 -15.869,2.9 -21.991,8.7c-6.123,5.8 -10.231,13.533 -12.325,23.2l-13.05,61.383c-0.323,1.772 -1.249,3.303 -2.78,4.592c-1.53,1.288 -3.182,1.933 -4.954,1.933l-18.366,-0c-1.773,-0 -3.182,-0.645 -4.23,-1.933c-1.047,-1.289 -1.409,-2.82 -1.087,-4.592l23.925,-112.617c0.322,-1.772 1.289,-3.303 2.9,-4.591c1.611,-1.289 3.303,-1.934 5.075,-1.934l18.367,0c1.772,0 3.141,0.645 4.108,1.934c0.967,1.288 1.289,2.819 0.967,4.591l-1.209,5.559c4.189,-4.512 9.224,-8.056 15.104,-10.634c5.881,-2.578 12.688,-3.866 20.421,-3.866c8.539,-0 15.87,1.53 21.992,4.591c6.122,3.061 10.915,7.17 14.379,12.325c3.464,5.156 5.679,11.157 6.646,18.004c0.967,6.848 0.644,14.057 -0.967,21.63l-13.775,65.008Z"/>
        <path d="M860.867,148.505c-0.966,4.994 -0.846,8.982 0.363,11.962c1.208,2.981 4.632,4.471 10.271,4.471l19.575,-0c1.772,-0 3.141,0.644 4.108,1.933c0.967,1.289 1.289,2.82 0.967,4.592l-3.384,15.95c-0.322,1.772 -1.248,3.303 -2.779,4.592c-1.53,1.288 -3.182,1.933 -4.954,1.933l-15.467,-0c-15.144,-0 -26.382,-3.907 -33.712,-11.721c-7.331,-7.814 -9.466,-18.81 -6.404,-32.987l11.116,-51.959l-15.95,0c-1.772,0 -3.182,-0.644 -4.229,-1.933c-1.047,-1.289 -1.41,-2.82 -1.087,-4.592l3.383,-15.95c0.322,-1.772 1.289,-3.303 2.9,-4.591c1.611,-1.289 3.303,-1.934 5.075,-1.934l15.95,0l8.458,-39.391c0.322,-1.773 1.249,-3.303 2.779,-4.592c1.531,-1.289 3.182,-1.933 4.955,-1.933l18.366,-0c1.772,-0 3.182,0.644 4.229,1.933c1.048,1.289 1.41,2.819 1.088,4.592l-8.458,39.391l31.175,0c1.772,0 3.141,0.645 4.108,1.934c0.967,1.288 1.289,2.819 0.967,4.591l-3.384,15.95c-0.322,1.772 -1.248,3.303 -2.779,4.592c-1.53,1.289 -3.182,1.933 -4.954,1.933l-31.175,0l-11.117,51.234Z"/>
        </g>
    <g>
            <path d="M49.687,250.154l434.306,-0l30.74,0.232l416.001,0" style="fill:none;stroke:#b480ff;stroke-width:4.03px;"/>
        <circle id="ball" cx="44.95" cy="250.303" r="11.079" style="fill:#ff00a8;stroke:#fff;stroke-width:1.61px;"/>
        <circle id="ball1" serif:id="ball" cx="927.295" cy="250.207" r="11.079" style="fill:#ff00a8;stroke:#fff;stroke-width:1.61px;"/>
        </g>
    <g id="with">
        <path d="M39.77,313.637c0.361,-0.078 0.698,-0.017 1.01,0.185c0.312,0.201 0.511,0.501 0.597,0.9c0.028,0.133 0.029,0.322 0.003,0.566l-1.705,13.258c-0.048,0.329 -0.189,0.598 -0.422,0.808c-0.233,0.209 -0.506,0.328 -0.818,0.355c-0.522,0.073 -0.973,-0.128 -1.354,-0.603l-4.639,-7.115l-1.063,8.346c-0.057,0.29 -0.174,0.53 -0.352,0.717c-0.179,0.188 -0.389,0.318 -0.632,0.39c-0.277,0.1 -0.571,0.098 -0.881,-0.004c-0.311,-0.102 -0.544,-0.285 -0.701,-0.55l-7.077,-11.362c-0.094,-0.159 -0.161,-0.334 -0.202,-0.524c-0.082,-0.38 -0.029,-0.73 0.161,-1.049c0.19,-0.319 0.484,-0.522 0.883,-0.608c0.646,-0.14 1.126,0.055 1.439,0.584l5.466,8.876l1.177,-7.683c0.105,-0.62 0.462,-0.995 1.07,-1.127c0.57,-0.123 1.021,0.078 1.353,0.604l4.273,6.388l1.287,-10.214c0.086,-0.615 0.462,-0.995 1.127,-1.138Z"/>
        <path d="M49.543,325.88c0.082,0.38 0.024,0.731 -0.175,1.052c-0.2,0.322 -0.499,0.525 -0.898,0.611c-0.38,0.082 -0.727,0.018 -1.041,-0.193c-0.314,-0.21 -0.512,-0.506 -0.594,-0.886l-2.664,-12.345c-0.082,-0.38 -0.024,-0.731 0.175,-1.052c0.2,-0.322 0.489,-0.523 0.869,-0.606c0.4,-0.086 0.756,-0.023 1.07,0.187c0.314,0.211 0.512,0.507 0.594,0.887l2.664,12.345Zm-4.734,-15.3c-0.551,0.119 -0.967,0.104 -1.247,-0.044c-0.281,-0.149 -0.469,-0.441 -0.563,-0.878l-0.098,-0.457c-0.099,-0.456 -0.04,-0.807 0.175,-1.052c0.216,-0.245 0.59,-0.426 1.122,-0.54c0.532,-0.115 0.939,-0.099 1.219,0.05c0.281,0.148 0.468,0.441 0.563,0.878l0.098,0.456c0.099,0.456 0.045,0.806 -0.161,1.049c-0.206,0.244 -0.575,0.423 -1.108,0.538Z"/>
        <path d="M55.141,313.244l1.834,8.496c0.205,0.95 0.735,1.333 1.59,1.148c0.133,-0.028 0.307,-0.101 0.521,-0.216c0.213,-0.116 0.387,-0.188 0.52,-0.217c0.247,-0.053 0.478,0.006 0.695,0.178c0.216,0.172 0.359,0.42 0.428,0.743c0.087,0.399 -0.068,0.791 -0.462,1.174c-0.395,0.384 -0.877,0.637 -1.448,0.76c-0.627,0.135 -1.216,0.193 -1.768,0.173c-0.551,-0.021 -1.089,-0.257 -1.615,-0.711c-0.525,-0.453 -0.907,-1.231 -1.145,-2.334l-1.858,-8.61l-1.654,0.357c-0.361,0.078 -0.686,0.024 -0.975,-0.163c-0.289,-0.186 -0.472,-0.46 -0.55,-0.821c-0.078,-0.361 -0.023,-0.681 0.166,-0.961c0.188,-0.279 0.463,-0.458 0.824,-0.535l1.654,-0.357l-0.517,-2.395c-0.082,-0.38 -0.024,-0.731 0.175,-1.053c0.2,-0.321 0.499,-0.525 0.898,-0.611c0.38,-0.082 0.727,-0.018 1.041,0.193c0.314,0.211 0.512,0.506 0.594,0.886l0.517,2.395l2.366,-0.51c0.362,-0.078 0.686,-0.024 0.975,0.162c0.289,0.186 0.473,0.46 0.551,0.821c0.077,0.361 0.022,0.682 -0.166,0.961c-0.188,0.279 -0.463,0.458 -0.824,0.536l-2.367,0.511Z"/>
        <path d="M68.74,307.265c3.346,-0.722 5.465,0.989 6.359,5.133l1.643,7.612c0.082,0.38 0.024,0.731 -0.175,1.052c-0.2,0.322 -0.499,0.526 -0.898,0.612c-0.38,0.082 -0.727,0.018 -1.041,-0.193c-0.314,-0.211 -0.512,-0.506 -0.594,-0.886l-1.643,-7.613c-0.533,-2.471 -1.845,-3.48 -3.936,-3.029c-1.121,0.242 -1.976,0.799 -2.563,1.672c-0.588,0.873 -0.769,1.832 -0.543,2.877l1.643,7.612c0.082,0.38 0.023,0.731 -0.176,1.053c-0.199,0.321 -0.498,0.525 -0.897,0.611c-0.4,0.086 -0.75,0.028 -1.053,-0.176c-0.302,-0.203 -0.497,-0.504 -0.583,-0.903l-3.962,-18.361c-0.082,-0.38 -0.024,-0.731 0.176,-1.052c0.199,-0.322 0.488,-0.524 0.869,-0.606c0.399,-0.086 0.755,-0.023 1.069,0.187c0.314,0.211 0.512,0.506 0.594,0.887l1.557,7.213c0.315,-0.844 0.844,-1.62 1.587,-2.327c0.742,-0.707 1.598,-1.165 2.567,-1.375Z"/>
        </g>
    <defs>
        <linearGradient id="pc-gradient" x1="-100%" y1="0" x2="200%" y2="0" >
            <stop offset="0" stop-color="#6666ff">
               <animate attributeName="offset" values="-.5;0-.25;0;1" dur="10s" repeatCount="indefinite"  />
            </stop>
            <stop offset="0" stop-color="#6666ff">
               <animate attributeName="offset" values="0;0.1;0.2" dur="10s" repeatCount="indefinite"  />
            </stop>
            <stop offset="0.1" stop-color="#0099ff">
                <animate attributeName="offset" values="0.2;0.3;0.4;" dur="10s" repeatCount="indefinite"  />
            </stop>
            <stop offset="0.2" stop-color="#8cff00">
                <animate attributeName="offset" values="0.3;0.4;0.5;" dur="10s" repeatCount="indefinite"  />
            </stop>
            <stop offset="0.3" stop-color="#eeff00">
                <animate attributeName="offset" values="0.4;0.5;0.6;" dur="10s" repeatCount="indefinite"  />
            </stop>
            <stop offset="0.4" stop-color="#ff3399">
                <animate attributeName="offset" values="0.5;0.6;0.7;" dur="10s" repeatCount="indefinite"  />
            </stop>
            <stop offset="0.5" stop-color="#ff9046">
                <animate attributeName="offset" values="0.6;0.7;0.8;" dur="10s" repeatCount="indefinite"  />
            </stop>
            <stop offset="0.6" stop-color="#ff0055">
                <animate attributeName="offset" values="0.7;0.8;0.9;" dur="10s" repeatCount="indefinite"  />
            </stop>
            <stop offset="0.7" stop-color="#ff009d">
                <animate attributeName="offset" values="0.8;0.9;1;" dur="10s" repeatCount="indefinite"  />
            </stop>
            <stop offset="0.8" stop-color="#ae2dc2">
                <animate attributeName="offset" values="0.9;1;1.1;" dur="10s" repeatCount="indefinite"  />
            </stop>
            <stop offset="0.9" stop-color="#6666ff">
                <animate attributeName="offset" values="1;1.1;1.2;" dur="10s" repeatCount="indefinite"  />
            </stop>
            <stop offset="1" stop-color="#8966ff">
                <animate attributeName="offset" values="1.1;1.2;1.3;" dur="10s" repeatCount="indefinite"  />
            </stop>
        </linearGradient>
    </defs>
</svg>