<?xml version="1.0" encoding="UTF-8" standalone="no"?><!DOCTYPE svg PUBLIC "-//W3C//DTD SVG 1.1//EN" "http://www.w3.org/Graphics/SVG/1.1/DTD/svg11.dtd">
<svg width="100%" height="100%" viewBox="0 0 1000 1169" version="1.1"
     xmlns="http://www.w3.org/2000/svg"
     xmlns:xlink="http://www.w3.org/1999/xlink" xml:space="preserve"
     xmlns:serif="http://www.serif.com/" style="fill-rule:evenodd;clip-rule:evenodd;stroke-linecap:round;stroke-linejoin:round;stroke-miterlimit:1.5;">
    <style>
        :root{
            --chalice: #F4C6FF;
            --burst: #FFDDC6;
            --color3: #fff;
        }
        @media (prefers-color-scheme: dark) {
            :root{
                --chalice: #fff;
            }
        }
        #b1{
            transform-origin: center;
            transform-box: fill-box;
            <!--            display: none;-->
            animation: 60s bpls linear infinite;
            transform: rotate(0deg) scale(.75);
        }
        @keyframes bpls {
            5%{
                transform: scale(1) rotate(18deg);
            }
            50%{
                transform: scale(1) rotate(180deg);
            }
            100% {
                transform: scale(.75) rotate(360deg);
            }
        }
        #play *{
            animation-play-state: paused;
        }
        #play:target *{
            animation-play-state: running;
        }
        #chalice>path{
            fill: #F7EBFF;
            stroke-width:3.17px;
            stroke: var(--chalice);
        }
    </style>
    <g id="play">
        <clipPath id="_clip1">
            <path d="M999.927,0.489l-997.246,0l0,1166.42l997.246,0l-0,-1166.42Zm-509.541,376.952c-13.737,-54.552 -4.597,-118.621 18.317,-188.425c29.969,76.892 40.981,147.414 15.487,205.663c21.905,-34.86 64.229,-66.926 133.804,-95.262c-27.022,44.101 -55.78,77.178 -86.105,100.308c27.485,-5.94 60.249,-6.67 97.41,-3.058c-44.002,23.735 -89.36,36.942 -136.902,33.182c31.745,21.461 50.093,44.261 63.186,67.586c-31.888,-13.336 -62.311,-28.651 -80.686,-60.246l-0.102,60.648c39.834,0.833 78.62,9.237 107.108,23.276c0.9,30.494 -2.982,59.416 -13.228,86.256c4.507,2.76 9.138,5.574 13.922,8.457c4.103,3.58 6.183,11.349 3.479,29.029c-0.562,3.678 10.375,144.776 5.71,156.697c0,0 7.165,6.796 10.222,10.028l166.426,147.759l-143.776,24.205l-23.733,-36.098c0.212,-0.29 0.401,-0.592 0.565,-0.908c-0.42,0.365 -0.95,0.651 -1.598,0.849c-83.792,25.556 -169.756,30.368 -257.719,2.737c-10.362,-3.255 3.516,-22.597 16.425,-26.593c67.787,-23.921 92.816,-75.152 93.858,-147.045c-35.993,-2.522 -45.923,-13.334 -47.711,-17.599c-3.364,-8.021 7.107,-21.295 50.594,-26.662l1.028,-29.262c-45.765,-22.485 -72.881,-56.443 -87.467,-100.021c-0.083,-0.248 -0.239,-0.484 -0.271,-0.741c-2.867,40.582 -23.249,72.677 -40.205,76.889l-77.847,124.74l-122.145,-47.937l145.627,-136.464c3.5,-4.282 4.033,-7.822 4.273,-11.288l-15.754,-68.506c-4.964,-20.118 -5.874,-61.832 -4.535,-65.163c0.196,-2.983 4.334,-19.207 7.877,-21.96c19.735,-17.619 41.784,-33.538 66.482,-47.507c-5.566,-2.57 -11.236,-5.347 -17.016,-8.338c12.556,-1.308 24.837,-2.037 36.835,-2.165c1.619,-0.802 3.244,-1.595 4.88,-2.38c11.996,-3.098 23.739,-5.687 35.243,-7.8c-32.062,-25.539 -55.643,-58.401 -76.493,-93.622c53.737,21.513 99.546,48.456 128.263,87.11c2.099,-0.139 4.189,-0.262 6.272,-0.369Zm41.445,399.66c-0.733,0.062 -1.474,0.118 -2.223,0.167c5.875,54.985 3.705,104.476 85.255,140.397c13.348,4.525 23.809,14.674 26.917,21.922c-0.143,-0.494 -0.316,-1.004 -0.519,-1.529c0,0 -3.929,-7.483 -15.638,-16.106l-26.609,-39.151c-23.978,-5.098 -42.32,-23.974 -55.62,-55.175c-12.542,-29.041 -10.511,-23.725 -13.305,-47.564c-0.049,-0.418 -0.761,-2.66 0.272,-2.783c0.499,-0.059 0.988,-0.118 1.47,-0.178Zm23.538,-4.783c-0.705,0.243 -1.425,0.481 -2.162,0.712c-0.737,0.231 -1.49,0.456 -2.259,0.674c1.781,-0.48 3.208,-0.945 4.421,-1.386Zm18.449,-10.81c-1.686,2.001 -4.395,4.152 -8.035,6.207c2.809,-1.513 5.562,-3.325 7.323,-5.294c0.263,-0.295 0.5,-0.6 0.712,-0.913Zm-0.365,-10.666c0.592,0.759 1.081,1.513 1.462,2.257c-0.237,-0.707 -0.542,-1.272 -0.868,-1.624c-0.197,-0.214 -0.396,-0.426 -0.594,-0.633Zm-48.485,-43.331l0.711,24.651c17.574,1.583 31.818,6.645 40.586,12.397c-18.163,-13.235 -40.351,-12.507 -40.347,-12.722c0.163,-8.86 -0.656,-15.898 -0.322,-23.905l-0.628,-0.421Zm-116.159,-130.978l-0.175,6.403c0.03,0.419 0.057,0.838 0.083,1.256c0.025,-2.577 0.056,-5.129 0.092,-7.659Zm1.573,-57.699l-0.158,5.814l0.046,-1.198c0.034,-0.85 0.068,-1.699 0.101,-2.549l0.087,-2.138l-0.076,0.071Zm96.456,-21.063l-2.176,-60.888c-11.463,23.64 -43.105,43.069 -64.282,53.155c-8.461,8.169 -16.682,16.276 -24.97,24.097c0.561,-0.44 0.959,-0.738 1.024,-0.764c27.422,-10.57 59.046,-15.457 90.404,-15.6Z"/>
        </clipPath>
        <g clip-path="url(#_clip1)">
            <g id="b1">
                <path d="M505.236,118.811l12.958,392.861l115.172,-228.934l-91.824,241.233l288.879,-233.863l-272.722,256.025l235.441,-44.243l-229.674,71.879l347.269,101.238l-353.036,-73.602l178.418,173.764l-194.575,-151.602l144.158,360.105l-167.506,-347.806l-12.958,260.923l-12.957,-260.923l-167.506,347.806l144.158,-360.105l-194.576,151.602l178.418,-173.764l-353.035,73.602l347.269,-101.238l-229.675,-71.879l235.441,44.243l-272.721,-256.025l288.879,233.863l-91.824,-241.233l115.172,228.934l12.957,-392.861Z" style="fill:none;stroke:var(--burst);stroke-width:3.17px;"/>
            </g>
        </g>
        <path id="ds" d="M513.743,466.476l0.154,-29.287c18.375,31.595 48.798,46.91 80.686,60.246c-13.093,-23.325 -31.441,-46.125 -63.186,-67.586c47.542,3.76 92.9,-9.447 136.902,-33.182c-37.161,-3.612 -69.925,-2.882 -97.41,3.058c30.325,-23.13 59.083,-56.207 86.105,-100.308c-69.575,28.336 -111.899,60.402 -133.804,95.262c25.494,-58.249 14.482,-128.771 -15.487,-205.663c-25.778,78.528 -34.124,149.799 -12.079,208.416c-26.667,-49.45 -78.375,-81.751 -140.773,-106.732c25.381,42.874 54.807,82.253 98.649,109.178c-30.692,-5.993 -63.814,-6.888 -99.114,-3.211c51.2,26.495 93.711,36.158 129.932,33.64c-27.695,17.816 -46.677,41.312 -62.566,66.822c12.681,-3.402 66.213,-27.875 81.91,-60.246l3.267,60.44l6.814,0.153l-0,-31Z" style="fill:#62ffb5;fill-opacity:0.25;stroke:#00ffab;stroke-width:3.06px;"/>
        <g id="h1">
            <path d="M167.432,755.893l122.145,47.937l77.847,-124.74c19.563,-4.86 43.689,-46.839 40.21,-96.154l1.748,-64.102c20.45,-18.904 40.119,-39.792 63.579,-59.4c2.066,-5.514 2.15,-9.377 -0.478,-10.98c12.392,-7.656 24.239,-17.055 35.327,-28.882c5.113,-4.467 4.367,-7.956 2.865,-11.935c7.117,-1.521 9.926,-7.02 10.263,-14.799c0.109,-2.507 -1.607,-8.299 -6.381,-8.006c-7.836,0.48 -10.676,1.521 -12.237,2.755c0.657,-4.197 -1.042,-7.609 -4.296,-10.503c-31.962,0.989 -65.789,5.707 -101.923,15.038c-34.956,16.776 -65.09,37.096 -91.181,60.39c-3.543,2.753 -7.681,18.977 -7.877,21.96c-1.339,3.331 -0.429,45.045 4.535,65.163l15.754,68.506c-0.24,3.466 -0.773,7.006 -4.273,11.288l-145.627,136.464Z" style="fill:#b65aff;stroke:var(--chalice);stroke-width:3.17px;"/>
            <path d="M502.228,386.773l-97.124,25.517l-58.364,41.435" style="fill:#b65aff;stroke:var(--chalice);stroke-width:3.17px;"/>
            <path d="M510.63,406.823l-94.825,29.214l-42.13,29.174" style="fill:#b65aff;stroke:var(--chalice);stroke-width:3.17px;"/>
            <path d="M472.248,447.688l-8.784,-3.246l-35.7,16.509l-42.019,37.34" style="fill:#b65aff;stroke:var(--chalice);stroke-width:3.17px;"/>
        </g>
        <g id="chalice">
            <path d="M381.173,950.124c87.963,27.631 173.927,22.819 257.719,-2.737c9.028,-2.754 -4.628,-22.806 -25.029,-29.722c-81.55,-35.921 -79.38,-85.412 -85.255,-140.397c27.625,-1.808 44.659,-12.691 46.142,-19.233c2.069,-9.13 -18.695,-23.047 -50.071,-25.873l-0.763,-26.461c73.984,-47.834 99.138,-111.723 96.987,-184.588c-52.745,-25.993 -140.796,-32.671 -205.469,-7.742c-0.264,0.102 -5.946,4.665 -5.959,4.977c-1.117,27.268 -1.838,53.499 -1.852,83.762c0,0.293 0.184,0.555 0.277,0.832c14.586,43.578 41.702,77.536 87.467,100.021l-1.028,29.262c-43.487,5.367 -53.958,18.641 -50.594,26.662c1.788,4.265 11.718,15.077 47.711,17.599c-1.042,71.893 -26.071,123.124 -93.858,147.045c-12.909,3.996 -26.787,23.338 -16.425,26.593Z"/>
            <path d="M490.798,767.17c-82.364,-28.628 123.133,-25.66 37.305,0.879"/>
            <path d="M378.112,945.203c87.601,-24.223 175.203,-24.618 262.804,-1.564"/>
            <path d="M494.293,732.267c10.431,-1.098 20.542,-1.278 30.207,-0.179"/>
        </g>
            <g id="h2">
            <path d="M663.658,983.544l-23.733,-36.098c1.683,-2.303 1.883,-5.386 0.336,-9.388c0,0 -3.929,-7.483 -15.638,-16.106l-26.609,-39.151c-23.978,-5.098 -42.32,-23.974 -55.62,-55.175c-12.542,-29.041 -10.511,-23.725 -13.305,-47.564c-0.049,-0.418 -0.761,-2.66 0.272,-2.783c19.781,-2.345 24.757,-4.821 28.89,-6.51c4.146,-1.693 10.646,-4.76 13.855,-8.348c3.405,-3.807 2.942,-10.205 -0.165,-13.27c-16.027,-15.809 -47.028,-17.067 -47.023,-17.314c0.163,-8.86 -0.656,-15.898 -0.322,-23.905c-17.988,-12.031 -36.489,-25.519 -57.399,-45.831c-7.983,-8.052 -10.48,-14.886 -5.34,-20.023c-8.958,-3.142 -51.19,-21.716 -40.491,-42.271c-13.593,-12.278 -9.986,-17.549 2.67,-19.133c29.812,4.228 59.624,11.175 89.436,22.693c20.733,9.789 40.836,19.578 59.625,29.367c-15.793,-8.869 -32.181,-23.681 -48.946,-42.271c-32.965,0.501 -54.313,-7.883 -70.748,-20.023c-2.576,-6.298 -0.191,-8.399 3.56,-9.344c38.737,-3.434 65.817,0.784 88.991,7.564c23.98,15.173 47.083,29.957 75.643,47.166c4.103,3.58 6.183,11.349 3.479,29.029c-0.562,3.678 10.375,144.776 5.71,156.697c0,0 7.165,6.796 10.222,10.028l166.426,147.759l-143.776,24.205Z" style="fill:#b65aff;stroke:var(--chalice);stroke-width:3.17px;"/>
            <path d="M462.204,641.923l6.329,-2.109l79.558,46.377" style="fill:none;stroke:var(--chalice);stroke-width:2.3px;"/>
            <path d="M421.426,599.651c1.431,-0.793 2.862,-1.042 4.293,-0.839l59.026,16.525l55.122,31.651" style="fill:none;stroke:var(--chalice);stroke-width:2.3px;"/>
        </g>
        <path d="M491.973,776.675l0.697,-16.18" style="fill:none;stroke:var(--chalice);stroke-width:2.3px;"/>
        <path d="M528.134,777.311l-1.314,-16.713" style="fill:none;stroke:var(--chalice);stroke-width:2.3px;"/>
    </g>
</svg>