<?xml version="1.0" encoding="UTF-8" standalone="no"?><!DOCTYPE svg PUBLIC "-//W3C//DTD SVG 1.1//EN" "http://www.w3.org/Graphics/SVG/1.1/DTD/svg11.dtd"><svg width="100%" height="100%" viewBox="0 0 900 600" version="1.1" xmlns="http://www.w3.org/2000/svg" xmlns:xlink="http://www.w3.org/1999/xlink" xml:space="preserve" xmlns:serif="http://www.serif.com/" style="fill-rule:evenodd;clip-rule:evenodd;stroke-linecap:round;stroke-linejoin:round;stroke-miterlimit:1.5;">
    <style>
        #stab-u {
            transform-box: fill-box;
            transform-origin: bottom right;
            transform: rotate(50deg);
            animation: fuckBabylon 4s linear infinite;
        }
        @keyframes fuckBabylon {
            0% {
                transform: rotate(50deg);
            }
            49.9% {
                transform: rotate(50deg);
            }
            50% {
                transform: rotate(0deg);
            }
            100% {
                transform: rotate(0deg);
            }
        }
        #eyelid {
            animation: eyelid 4s linear infinite;
        }
        @keyframes eyelid {
            0% {
                visibility: hidden;
            }
            49.9% {
                visibility: hidden;
            }
            50% {
                visibility: visible;
            }
            100% {
                visibility: visible;
            }
        }
    </style>
    <g id="eye">
        <path d="M249.886,105.701l-224.075,387.879l448.448,0.298l-224.373,-388.177Z" style="fill:none;stroke:#b289ff;stroke-width:8.33px;"/>
        <path d="M249.886,297.254l0,-186.48" style="fill:none;stroke:#b289ff;stroke-width:8.33px;"/>
        <path d="M235.564,297.254l-25.361,-117.259" style="fill:none;stroke:#b289ff;stroke-width:8.33px;"/>
        <path d="M221.243,300.834l-35.208,-80.858" style="fill:none;stroke:#b289ff;stroke-width:8.33px;"/>
        <path d="M206.921,304.713l-39.385,-53.706" style="fill:none;stroke:#b289ff;stroke-width:8.33px;"/>
        <path d="M190.511,311.575l-37.893,-34.909" style="fill:none;stroke:#b289ff;stroke-width:8.33px;"/>
        <path d="M174.399,320.825l-36.103,-21.483" style="fill:none;stroke:#b289ff;stroke-width:8.33px;"/>
        <path d="M155.602,334.251l-30.434,-11.636" style="fill:none;stroke:#b289ff;stroke-width:8.33px;"/>
        <path d="M133.522,352.154l-21.482,-3.879" style="fill:none;stroke:#b289ff;stroke-width:8.33px;"/>
        <path d="M133.224,376.62l-38.788,3.282" style="fill:none;stroke:#b289ff;stroke-width:8.33px;"/>
        <path d="M154.11,395.417l-86.825,26.853" style="fill:none;stroke:#b289ff;stroke-width:8.33px;"/>
        <path d="M172.31,410.037l-144.41,81.753" style="fill:none;stroke:#b289ff;stroke-width:8.33px;"/>
        <path d="M188.721,419.585l-76.681,70.415" style="fill:none;stroke:#b289ff;stroke-width:8.33px;"/>
        <path d="M205.728,425.552l-45.352,63.254" style="fill:none;stroke:#b289ff;stroke-width:8.33px;"/>
        <path d="M220.348,430.923l-25.958,60.867" style="fill:none;stroke:#b289ff;stroke-width:8.33px;"/>
        <path d="M235.863,432.713l-11.637,57.883" style="fill:none;stroke:#b289ff;stroke-width:8.33px;"/>
        <path d="M264.198,297.254l25.362,-117.259" style="fill:none;stroke:#b289ff;stroke-width:8.33px;"/>
        <path d="M278.52,300.834l35.208,-80.858" style="fill:none;stroke:#b289ff;stroke-width:8.33px;"/>
        <path d="M292.842,304.713l39.384,-53.706" style="fill:none;stroke:#b289ff;stroke-width:8.33px;"/>
        <path d="M309.252,311.575l37.893,-34.909" style="fill:none;stroke:#b289ff;stroke-width:8.33px;"/>
        <path d="M325.364,320.825l36.102,-21.483" style="fill:none;stroke:#b289ff;stroke-width:8.33px;"/>
        <path d="M344.161,334.251l30.434,-11.636" style="fill:none;stroke:#b289ff;stroke-width:8.33px;"/>
        <path d="M366.24,352.154l21.483,-3.879" style="fill:none;stroke:#b289ff;stroke-width:8.33px;"/>
        <path d="M366.539,376.62l38.788,3.282" style="fill:none;stroke:#b289ff;stroke-width:8.33px;"/>
        <path d="M345.653,395.417l86.825,26.853" style="fill:none;stroke:#b289ff;stroke-width:8.33px;"/>
        <path d="M327.452,410.037l144.411,81.753" style="fill:none;stroke:#b289ff;stroke-width:8.33px;"/>
        <path d="M311.042,419.585l76.681,70.415" style="fill:none;stroke:#b289ff;stroke-width:8.33px;"/>
        <path d="M294.035,425.552l45.352,63.254" style="fill:none;stroke:#b289ff;stroke-width:8.33px;"/>
        <path d="M279.415,430.923l25.958,60.867" style="fill:none;stroke:#b289ff;stroke-width:8.33px;"/>
        <path d="M263.9,432.713l11.636,57.883" style="fill:none;stroke:#b289ff;stroke-width:8.33px;"/>
        <path d="M249.886,433.608l0,58.48" style="fill:none;stroke:#b289ff;stroke-width:8.33px;"/>
        <path d="M122.781,364.387c32.258,-31.263 82.184,-67.133 127.105,-67.133c40.483,-0 87.655,25.222 128.298,67.133c-33.458,36.239 -89.705,67.301 -127.701,67.729c-41.379,0.466 -81.847,-24.333 -127.702,-67.729Z" style="fill:none;stroke:#b289ff;stroke-width:8.33px;"/>
        <path d="M139.788,364.448c27.962,-24.9 71.239,-53.469 110.178,-53.469c35.091,-0 75.981,20.089 111.211,53.469c-29.002,28.864 -77.759,53.604 -110.694,53.945c-35.868,0.371 -70.947,-19.381 -110.695,-53.945Z" style="fill:none;stroke:#b289ff;stroke-width:8.33px;"/>
        <circle cx="250.422" cy="365.044" r="52.662" style="fill:#ae2dc2;stroke:#b289ff;stroke-width:8.33px;"/>
        <circle cx="250.422" cy="365.044" r="29.315"/>
        <circle cx="266.264" cy="352.307" r="12.754" style="fill:#fff;"/>
    </g>
    <g id="stab-u">
        <g id="dagger">
            <g id="hilt">
                <path d="M386.495,224.746c33.106,2.02 58.949,21.241 59.409,39.909c-0.269,7.402 -2.675,11.74 -6.162,14.528c-7.056,5.784 -17.293,4.552 -23.064,-5.854c-4.319,-7.788 2.874,-14.711 6.943,-14.744" style="fill:none;stroke:#b289ff;stroke-width:8.33px;"/>
                <path d="M386.34,224.584c-0.436,-33.165 -18.4,-59.897 -37.025,-61.248c-7.406,-0.085 -11.854,2.111 -14.806,5.461c-6.113,6.772 -5.373,17.056 4.746,23.317c7.573,4.687 14.831,-2.167 15.059,-6.23" style="fill:none;stroke:#b289ff;stroke-width:8.33px;"/>
                <path d="M430.421,268.516c-3.763,-24.056 -48.511,-28.8 -65.306,-22.435" style="fill:none;stroke:#b289ff;stroke-width:8.33px;"/>
                <path d="M345.221,179.143c23.849,4.908 26.449,49.832 19.289,66.304" style="fill:none;stroke:#b289ff;stroke-width:8.33px;"/>
            </g>
            <g id="blade">
                <path d="M364.817,201.541c3.613,14.94 4.134,29.573 1.461,43.891c18.86,-4.556 33.033,-2.298 44.794,3.467c-14.74,6.411 -20.239,14.531 -19.356,25.048l-186.767,129.395l132.727,-183.323c10.494,1.137 20.376,-3.897 27.141,-18.478Z" style="fill:#0FFFD3;stroke:#b289ff;stroke-width:8.33px;"/>
                path d="M358.803,252.468l-154.258,150.578" style="fill:none;stroke:#b289ff;stroke-width:4.17px;"/>
            </g>
            <path d="M550.173,95.039c10.147,10.369 28.345,-9.262 20.245,-18.869l-4.086,-26.293l-0.623,-0.638l-26.187,-4.72c-6.183,-5.474 -16.97,0.303 -20.764,7.857c-1.98,3.94 -2.057,8.364 1.412,11.927" style="fill:none;stroke:#b289ff;stroke-width:8.33px;"/>
            <path d="M533.236,105.979l-22.694,-24.175c-7.656,-8.176 8.098,-21.55 15.234,-14.979l12.851,10.882l0.471,0.502l10.049,13.511c6.107,7.537 -8.234,22.415 -15.911,14.259Z" style="fill:none;stroke:#b289ff;stroke-width:8.33px;"/>
            <path d="M498.854,94.49l10.931,-9.961" style="fill:none;stroke:#b289ff;stroke-width:8.33px;"/>
        </g>
        <g id="hand">
            <path d="M460.708,103.496c-3.591,6.034 -0.197,10.819 2.104,14.07l-4.979,2.671c-2.281,-4.456 -5.746,-8.191 -9.356,-9.615l12.231,-7.126Z" style="fill: #b289ff;stroke:#b289ff;stroke-width:0.63px;"/>
            <path d="M500.212,100.223c-14.701,6.357 -28.885,13.631 -42.33,22.211c-1.109,0.708 -1.397,0.986 -1.459,1.035c-1.204,0.957 -3.888,3.582 -3.326,6.07c2.942,13.033 10.962,19.935 24.561,20.101c11.089,-0.691 21.836,-2.474 31.711,-7.044" style="fill:none;stroke:#b289ff;stroke-width:6.25px;"/>
            <path d="M547.771,246.96c-0.293,8.833 -13.102,15.895 -22.764,18.879c13.677,24 31.419,45.703 51.89,65.864c-12.12,-15.589 -25.155,-33.598 -42.239,-62.304c6.669,-1.898 12.548,-5.193 16.948,-11.106l17.606,20.609l-21.441,-31.942Z"  style="fill:#b289ff" />
            <path d="M546.129,225.482c-10.867,16.381 -30.373,21.544 -55.001,17.18c15.983,8.747 34.75,7.706 55.192,-5.217"  style="fill:#b289ff" />
            <path d="M480.288,277.502c-5.233,8.636 -12.571,15.159 -23.83,17.746c-8.86,-3.029 -15.468,-7.792 -19.559,-14.493c15.264,5.854 29.714,4.663 43.389,-3.253Z" style="fill:#b289ff"/>
            <path d="M541.156,417.582c-13.179,-20.014 -65.441,-91.788 -87.528,-120.795c-6.841,-4.041 -12.048,-9.388 -17.732,-14.264" style="fill:none;stroke:#b289ff;stroke-width:6.25px;"/>
            <path d="M380.68,192.256c-3.962,-7.214 -7.46,-13.649 -7.073,-14.53c2.84,-6.477 11.432,-14.167 21.591,-14.783c0.077,-17.137 11.458,-27.314 27.431,-25.066c-1.275,-21.696 13.226,-30.479 31.276,-30.106c9.69,-14.794 22.778,-19.972 38.854,-16.699c3.171,0.646 5.956,5.559 7.184,9.328c6.261,-4.277 18.049,-5.353 23.401,-0.964c15.488,12.702 26.662,22.011 37.396,38.322c3.032,4.607 5.887,10.132 4.971,14.025l-16.697,74.362c-0.38,7.837 0.284,15.964 2.929,24.641c9.944,14.387 71.271,89.509 84.02,104.065" style="fill:none;stroke:#b289ff;stroke-width:6.25px;"/>
            <path d="M509.051,139.733c5.286,-2.776 9.954,-5.24 11.811,-11.161c0.95,4.558 -1.663,10.735 -8.728,15.502c-3.362,2.269 -1.632,3.792 -0.653,6.037c3.134,5.518 8.217,9.42 14.725,12.14c-5.953,-0.411 -11.58,-3.094 -16.582,-10.143c-5.307,4.01 -10.898,7.911 -17.122,10.297c-2.179,0.836 -5.969,6.975 -8.942,10.841c-2.77,3.601 -6.448,6.407 -9.365,9.558c-4.349,4.697 -6.737,7.415 -8.313,10.699c-1.653,3.445 -3.36,5.972 -3.501,8.751c0.079,12.025 5.335,22.41 15.412,31.266c-12.129,-6.599 -18.719,-16.245 -20.552,-28.507c-2.956,2.328 -5.683,3.96 -8.01,4.381c-4.798,9.24 -1.63,21.804 6.362,36.381c-7.179,-9.59 -12.441,-20.064 -13.709,-32.374c-7.707,4.636 -15.592,8.801 -23.928,11.775c-5.672,1.815 -21.463,-15.88 -10.934,-7.364c9.033,8.644 23.656,-4.102 22.131,-10.833c-0.825,-2.308 -2.329,-5.106 -4.78,-8.585l-29.674,-33.182l2.776,-3.462c8.559,8.179 18.283,18.342 31.095,33.762c2.639,2.712 5.21,4.711 7.717,6.052c9.828,5.273 24.923,-7.922 21.022,-19.235c-0.579,-1.681 -1.697,-3.511 -3.229,-5.457l-18.804,-19.228c-5.136,-5.519 -13.659,-16.552 -13.903,-17.515l3.933,-5.927c0.098,6.668 10.824,16.757 30.411,37.449c2.324,2.447 4.516,4 6.605,4.859c5.019,3.555 22.472,-7.621 20.046,-16.009c-0.992,-3.431 -1.418,-7.536 -5.325,-8.161l32.008,-12.607Z" style="fill:#b289ff; stroke:#b289ff;stroke-width:0.63px;"/>
            <path d="M379.764,188.971c6.923,14.533 19.625,26.966 37.192,33.096" style="fill:none;stroke:#b289ff;stroke-width:6.25px;"/>
        </g>
        <path d="M411.32,228.615l7.163,-6.03" style="fill:none;stroke:#b289ff;stroke-width:6.25px;"/><path d="M415.381,262.292c-4.401,-4.021 -5.758,-5.12 -9.831,-9.975" style="fill:none;stroke:#b289ff;stroke-width:6.25px;"/>
    </g>
    <g id="eyelid">
        <path d="M139.788,364.448c27.962,-24.9 71.239,-53.469 110.178,-53.469c6.433,-0 20.584,2.174 20.674,2.037c0.037,-0.057 -32.152,41.086 -31.552,41.082c3.623,-0.028 34.934,1.879 35.392,1.594c9.733,-6.067 37.583,-27.17 38.446,-26.704c16.526,8.931 32.925,20.938 48.251,35.46c-29.002,28.864 -77.759,53.604 -110.694,53.945c-35.868,0.371 -70.947,-19.381 -110.695,-53.945Z" style="fill:#c6a9fc;stroke:#b289ff;stroke-width:8.33px;"/>
        <path d="M141.948,363.756c72.6,24.963 145.199,24.793 217.799,-0" style="fill:none;stroke:#b289ff;stroke-width:6.25px;"/>
    </g>
</svg>